<!DOCTYPE svg PUBLIC "-//W3C//DTD SVG 20010904//EN" "http://www.w3.org/TR/2001/REC-SVG-20010904/DTD/svg10.dtd">
<svg version="1.0" xmlns="http://www.w3.org/2000/svg" width="1552px" height="1206px" viewBox="0 0 15520 12060" preserveAspectRatio="xMidYMid meet">
<g id="layer101" fill="#51311d" stroke="none">
 <path d="M4110 12054 c-1080 -63 -1725 -496 -1890 -1269 -16 -73 -23 -151 -27 -285 -5 -166 -3 -194 16 -275 43 -179 168 -390 354 -592 175 -192 348 -343 832 -728 491 -392 710 -593 865 -793 l64 -83 75 83 c161 176 335 332 640 571 107 84 262 205 345 270 395 309 662 559 814 762 98 130 201 331 234 455 20 75 23 108 23 285 -1 220 -12 302 -66 480 -191 625 -760 1008 -1634 1100 -147 15 -518 26 -645 19z"/>
 <path d="M9322 10113 c-25 -56 -21 -382 8 -738 29 -353 33 -653 8 -707 -14 -32 -22 -38 -47 -38 -62 0 -151 83 -466 435 -333 372 -434 465 -505 467 -93 3 -83 -109 45 -522 67 -217 97 -355 88 -402 -15 -76 -99 -86 -258 -33 -138 47 -217 54 -262 26 -28 -18 -33 -27 -33 -59 0 -77 62 -214 244 -540 262 -469 302 -602 174 -578 -54 10 -155 75 -386 250 -401 303 -491 359 -565 354 -35 -3 -43 -7 -51 -31 -21 -58 22 -161 169 -407 163 -272 206 -371 185 -425 -10 -26 -13 -27 -55 -21 -100 13 -286 105 -810 396 -561 312 -754 404 -838 398 -39 -3 -42 -5 -45 -36 -7 -75 63 -182 368 -567 231 -292 286 -366 330 -449 83 -158 -7 -182 -370 -98 -291 68 -387 76 -430 37 -45 -41 -16 -150 81 -308 220 -360 241 -425 146 -467 -84 -37 -173 -51 -560 -86 -458 -41 -577 -71 -577 -144 0 -68 106 -138 475 -312 132 -63 273 -133 313 -156 86 -51 152 -111 152 -139 0 -61 -109 -129 -466 -289 -376 -168 -474 -229 -474 -294 0 -78 137 -115 670 -180 531 -65 670 -102 670 -179 0 -42 -51 -133 -138 -247 -42 -56 -114 -151 -160 -210 -97 -128 -142 -212 -142 -265 0 -97 122 -99 581 -10 263 51 366 69 459 77 83 7 157 -7 167 -32 22 -58 -111 -178 -567 -509 -311 -226 -401 -297 -484 -385 -58 -62 -67 -76 -64 -103 2 -26 9 -34 38 -44 69 -24 195 0 580 110 385 111 510 121 510 42 0 -31 -82 -153 -173 -256 -42 -48 -162 -179 -268 -290 -333 -354 -436 -482 -446 -556 -14 -109 124 -92 638 76 342 112 453 141 535 141 56 0 65 -3 79 -24 32 -48 -8 -189 -146 -517 -182 -434 -219 -542 -219 -634 0 -60 12 -75 60 -75 75 0 174 63 599 383 279 210 430 303 481 295 15 -2 31 -14 40 -33 25 -50 18 -271 -19 -560 -18 -141 -35 -320 -37 -410 -5 -141 -3 -164 13 -195 13 -26 26 -36 46 -38 65 -8 174 150 502 723 313 547 425 710 484 703 30 -4 55 -47 71 -124 5 -27 14 -179 20 -339 18 -520 36 -615 118 -615 61 0 156 165 332 575 145 338 248 515 299 515 63 0 114 -139 205 -563 69 -315 115 -443 169 -461 34 -12 53 -2 85 44 40 60 55 121 152 629 50 261 96 382 149 389 59 9 133 -76 351 -398 85 -126 174 -245 215 -287 62 -65 74 -73 107 -73 29 0 41 6 54 25 29 45 14 242 -46 590 -58 341 -69 490 -37 538 9 15 23 27 29 27 20 0 129 -120 198 -218 80 -113 222 -337 450 -707 322 -522 481 -746 550 -775 28 -12 34 -11 51 6 47 47 34 209 -55 700 -66 363 -78 444 -79 555 -2 148 34 169 188 106 44 -18 166 -82 270 -142 291 -166 396 -209 458 -186 76 29 56 119 -98 426 -63 127 -122 250 -130 274 -18 52 -20 122 -3 139 45 45 190 -12 789 -306 503 -248 622 -296 716 -290 l48 3 -1 38 c-3 78 -94 184 -613 711 -358 363 -442 458 -484 544 -19 39 -20 44 -5 58 42 42 162 26 548 -71 298 -75 401 -95 479 -95 76 0 101 8 112 37 24 63 -70 167 -406 448 -280 234 -364 311 -405 373 -40 61 -38 93 10 109 76 26 199 16 675 -57 389 -60 521 -74 626 -68 65 4 84 9 102 26 20 21 20 23 4 56 -30 63 -160 151 -473 322 -483 262 -599 331 -679 405 -120 111 -9 157 555 229 521 67 650 103 650 181 0 59 -109 110 -415 196 -88 24 -246 68 -351 98 -227 63 -337 107 -382 151 -32 32 -33 34 -18 63 33 64 145 141 516 361 436 257 568 352 585 421 11 46 -22 59 -147 59 -132 0 -246 -14 -703 -90 -337 -55 -508 -80 -649 -95 -59 -6 -59 -5 -42 14 36 40 -1 61 -105 61 -27 0 -49 4 -49 9 0 12 94 98 165 152 33 25 152 108 265 184 258 174 333 230 397 298 60 64 74 99 48 127 -39 43 -162 35 -425 -27 -530 -124 -619 -135 -656 -78 -14 22 -14 28 6 72 16 36 70 97 225 251 218 216 264 272 272 331 4 32 1 41 -22 59 -51 41 -114 29 -446 -82 -241 -81 -311 -96 -358 -76 -42 17 -45 36 -17 94 36 71 131 182 396 460 254 267 322 347 356 421 34 73 20 105 -46 105 -83 0 -192 -42 -510 -198 -129 -63 -286 -136 -349 -163 -161 -70 -271 -93 -271 -56 0 47 179 431 364 782 113 213 138 285 134 375 l-3 65 -33 3 c-68 7 -193 -70 -521 -322 -253 -194 -344 -258 -427 -302 -109 -57 -149 -43 -147 50 2 72 22 145 113 416 88 261 110 343 110 412 0 60 -7 77 -37 89 -65 24 -164 -61 -441 -380 -186 -215 -263 -290 -325 -316 -35 -14 -38 -14 -56 4 -11 11 -24 37 -30 58 -16 55 -13 323 5 593 18 274 16 580 -6 623 -19 39 -55 45 -87 16 -42 -39 -107 -190 -186 -434 -42 -126 -114 -349 -161 -495 -84 -260 -155 -427 -194 -464 -74 -67 -128 82 -228 632 -84 465 -126 607 -186 641 -23 13 -29 13 -52 -2 -54 -36 -88 -130 -166 -467 -82 -352 -120 -457 -177 -483 -24 -11 -29 -8 -69 36 -56 62 -132 218 -279 572 -193 464 -267 595 -336 595 -25 0 -33 -6 -47 -37z"/>
 <path d="M2430 7764 c-324 -41 -647 -130 -963 -265 -673 -288 -1119 -658 -1333 -1103 -173 -361 -178 -771 -14 -1189 95 -244 262 -413 561 -571 225 -118 526 -224 1074 -376 738 -204 992 -295 1228 -437 32 -19 59 -34 60 -32 1 2 17 49 35 104 74 222 186 450 472 965 330 595 420 779 509 1046 69 208 94 345 95 519 0 200 -30 323 -128 517 -223 440 -558 704 -1015 800 -76 16 -144 20 -321 23 -124 2 -241 1 -260 -1z"/>
 </g>
<g id="layer102" fill="#914714" stroke="none">
 <path d="M4110 12054 c-1080 -63 -1725 -496 -1890 -1269 -16 -73 -23 -151 -27 -285 -5 -166 -3 -194 16 -275 43 -179 168 -390 354 -592 175 -192 348 -343 832 -728 491 -392 710 -593 865 -793 l64 -83 75 83 c161 176 335 332 640 571 107 84 262 205 345 270 395 309 662 559 814 762 98 130 201 331 234 455 20 75 23 108 23 285 -1 220 -12 302 -66 480 -191 625 -760 1008 -1634 1100 -147 15 -518 26 -645 19z"/>
 <path d="M9322 10113 c-25 -56 -21 -382 8 -738 29 -353 33 -653 8 -707 -14 -32 -22 -38 -47 -38 -62 0 -151 83 -466 435 -333 372 -434 465 -505 467 -93 3 -83 -109 45 -522 67 -217 97 -355 88 -402 -15 -76 -99 -86 -258 -33 -138 47 -217 54 -262 26 -28 -18 -33 -27 -33 -59 0 -77 62 -214 244 -540 262 -469 302 -602 174 -578 -54 10 -155 75 -386 250 -401 303 -491 359 -565 354 -35 -3 -43 -7 -51 -31 -21 -58 22 -161 169 -407 163 -272 206 -371 185 -425 -10 -26 -13 -27 -55 -21 -100 13 -286 105 -810 396 -561 312 -754 404 -838 398 -39 -3 -42 -5 -45 -36 -7 -75 63 -182 368 -567 231 -292 286 -366 330 -449 83 -158 -7 -182 -370 -98 -291 68 -387 76 -430 37 -45 -41 -16 -150 81 -308 220 -360 241 -425 146 -467 -84 -37 -173 -51 -560 -86 -458 -41 -577 -71 -577 -144 0 -68 106 -138 475 -312 132 -63 273 -133 313 -156 86 -51 152 -111 152 -139 0 -61 -109 -129 -466 -289 -376 -168 -474 -229 -474 -294 0 -78 137 -115 670 -180 531 -65 670 -102 670 -179 0 -42 -51 -133 -138 -247 -42 -56 -114 -151 -160 -210 -97 -128 -142 -212 -142 -265 0 -97 122 -99 581 -10 263 51 366 69 459 77 83 7 157 -7 167 -32 22 -58 -111 -178 -567 -509 -311 -226 -401 -297 -484 -385 -58 -62 -67 -76 -64 -103 2 -26 9 -34 38 -44 69 -24 195 0 580 110 385 111 510 121 510 42 0 -31 -82 -153 -173 -256 -42 -48 -162 -179 -268 -290 -333 -354 -436 -482 -446 -556 -14 -109 124 -92 638 76 342 112 453 141 535 141 56 0 65 -3 79 -24 32 -48 -8 -189 -146 -517 -182 -434 -219 -542 -219 -634 0 -60 12 -75 60 -75 75 0 174 63 599 383 279 210 430 303 481 295 15 -2 31 -14 40 -33 25 -50 18 -271 -19 -560 -18 -141 -35 -320 -37 -410 -5 -141 -3 -164 13 -195 13 -26 26 -36 46 -38 65 -8 174 150 502 723 313 547 425 710 484 703 30 -4 55 -47 71 -124 5 -27 14 -179 20 -339 18 -520 36 -615 118 -615 61 0 156 165 332 575 145 338 248 515 299 515 63 0 114 -139 205 -563 69 -315 115 -443 169 -461 34 -12 53 -2 85 44 40 60 55 121 152 629 50 261 96 382 149 389 59 9 133 -76 351 -398 85 -126 174 -245 215 -287 62 -65 74 -73 107 -73 29 0 41 6 54 25 29 45 14 242 -46 590 -58 341 -69 490 -37 538 9 15 23 27 29 27 20 0 129 -120 198 -218 80 -113 222 -337 450 -707 322 -522 481 -746 550 -775 28 -12 34 -11 51 6 47 47 34 209 -55 700 -66 363 -78 444 -79 555 -2 148 34 169 188 106 44 -18 166 -82 270 -142 291 -166 396 -209 458 -186 76 29 56 119 -98 426 -63 127 -122 250 -130 274 -18 52 -20 122 -3 139 45 45 190 -12 789 -306 503 -248 622 -296 716 -290 l48 3 -1 38 c-3 78 -94 184 -613 711 -358 363 -442 458 -484 544 -19 39 -20 44 -5 58 42 42 162 26 548 -71 298 -75 401 -95 479 -95 76 0 101 8 112 37 24 63 -70 167 -406 448 -280 234 -364 311 -405 373 -40 61 -38 93 10 109 76 26 199 16 675 -57 389 -60 521 -74 626 -68 65 4 84 9 102 26 20 21 20 23 4 56 -30 63 -160 151 -473 322 -483 262 -599 331 -679 405 -120 111 -9 157 555 229 521 67 650 103 650 181 0 59 -109 110 -415 196 -88 24 -246 68 -351 98 -227 63 -337 107 -382 151 -32 32 -33 34 -18 63 33 64 145 141 516 361 436 257 568 352 585 421 11 46 -22 59 -147 59 -131 0 -248 -15 -673 -85 -408 -67 -501 -81 -639 -95 l-108 -11 -87 -59 c-47 -32 -165 -110 -261 -173 -210 -139 -235 -158 -227 -180 8 -20 42 -30 262 -73 480 -94 528 -106 523 -132 -5 -25 -76 -60 -353 -172 -266 -108 -368 -157 -363 -174 6 -19 142 -81 366 -166 304 -116 375 -151 357 -179 -10 -17 -93 -38 -380 -97 -284 -59 -389 -87 -401 -106 -12 -19 56 -70 280 -210 288 -179 362 -235 343 -255 -13 -12 -160 -23 -442 -32 -176 -6 -333 -14 -350 -19 -16 -5 -32 -16 -33 -26 -3 -12 75 -95 248 -265 186 -183 251 -253 248 -267 -3 -17 -12 -19 -84 -17 -45 1 -186 18 -315 38 -129 20 -278 39 -331 42 -93 6 -98 5 -98 -14 0 -24 63 -129 204 -337 111 -165 156 -243 156 -272 0 -30 -86 -10 -401 96 -165 56 -323 104 -350 107 -49 6 -49 6 -49 -23 0 -38 24 -113 98 -309 70 -187 102 -288 102 -321 0 -50 -59 -26 -336 131 -247 141 -353 195 -381 195 -22 0 -23 -3 -23 -87 0 -49 9 -164 20 -258 21 -183 26 -340 10 -350 -19 -12 -89 36 -234 162 -235 203 -319 271 -354 290 -32 17 -34 17 -47 -1 -18 -24 -29 -78 -60 -297 -29 -203 -52 -324 -66 -351 -15 -29 -44 -21 -83 22 -20 22 -101 127 -180 233 -163 218 -222 287 -242 287 -25 0 -63 -73 -150 -286 -94 -229 -139 -328 -160 -345 -36 -29 -65 18 -191 310 -95 219 -130 288 -158 311 -14 11 -21 7 -58 -32 -23 -25 -107 -136 -186 -247 -154 -215 -221 -296 -243 -289 -22 7 -47 103 -87 343 -28 166 -35 232 -27 237 6 4 27 8 48 8 20 0 71 7 114 15 215 41 384 126 799 401 293 194 478 276 688 305 97 13 190 7 422 -28 224 -33 436 -41 528 -19 130 31 253 113 408 272 344 354 577 948 605 1544 l6 125 -58 70 c-146 178 -230 356 -264 555 -6 36 -15 218 -20 405 -10 375 -16 418 -74 534 -151 299 -578 570 -1231 781 -88 28 -197 60 -241 71 -400 95 -937 65 -1549 -87 -155 -38 -149 -34 -241 -157 -90 -121 -133 -256 -119 -382 4 -45 12 -69 27 -81 43 -40 42 -51 -9 -109 -203 -227 -264 -626 -177 -1145 42 -253 98 -460 270 -1005 19 -60 49 -159 66 -220 17 -60 36 -115 42 -121 19 -19 238 -138 446 -242 138 -69 237 -113 405 -180 50 -20 218 -70 308 -91 229 -55 524 -53 716 5 86 25 216 89 309 151 169 112 428 396 511 561 178 352 173 836 -14 1352 -30 83 -136 289 -194 377 -182 276 -475 558 -757 728 -68 41 -59 43 81 20 252 -41 426 -127 603 -299 215 -209 499 -651 630 -981 122 -307 176 -609 153 -844 -27 -266 -108 -470 -278 -700 -75 -101 -329 -352 -429 -423 -153 -109 -321 -184 -504 -224 -116 -26 -472 -26 -604 -1 l-89 17 -90 -86 c-225 -214 -369 -308 -580 -379 -145 -49 -262 -65 -464 -65 -516 0 -928 151 -1241 454 -145 140 -194 209 -348 487 -418 755 -546 1083 -531 1360 9 167 97 374 219 512 l38 42 -6 -105 c-7 -122 9 -345 37 -510 43 -255 96 -457 234 -895 51 -165 104 -336 116 -381 l23 -81 165 -90 c510 -280 832 -404 1169 -448 391 -52 723 45 987 288 l70 64 -60 7 c-218 26 -425 108 -835 330 -118 64 -246 128 -284 143 -38 15 -75 37 -83 49 -8 13 -32 94 -53 181 -21 87 -81 308 -134 490 -52 183 -108 388 -125 455 -110 451 -118 796 -26 1120 27 93 103 281 137 336 11 18 18 35 16 38 -14 13 -220 22 -302 13 -173 -20 -374 -105 -548 -233 l-86 -64 -144 1 c-151 1 -226 -12 -294 -53 -16 -11 -106 -104 -200 -207 -218 -241 -283 -319 -351 -415 -36 -52 -59 -76 -67 -71 -7 5 -113 71 -235 148 -245 153 -313 206 -294 225 17 18 143 28 478 39 165 6 310 13 323 17 12 3 22 14 22 23 0 9 -112 127 -250 262 -246 242 -275 277 -234 293 20 8 141 -6 429 -48 280 -42 356 -49 374 -37 23 15 -7 70 -145 276 -150 224 -204 315 -204 343 0 38 6 37 415 -98 165 -54 317 -101 338 -105 70 -12 65 19 -56 345 -86 235 -108 313 -90 331 17 17 106 -24 336 -154 237 -135 371 -202 386 -192 17 10 13 152 -9 340 -11 94 -20 212 -20 263 0 89 1 92 23 92 29 0 98 -53 304 -233 208 -180 272 -229 298 -225 27 4 41 50 65 210 67 432 71 455 96 465 25 9 84 -57 253 -282 161 -214 214 -275 236 -275 30 0 55 48 160 305 80 195 137 319 154 329 5 3 16 3 25 0 19 -7 87 -140 161 -314 79 -185 142 -310 162 -317 24 -9 74 49 233 272 155 217 228 302 253 292 23 -9 43 -85 87 -346 54 -317 61 -339 99 -326 30 9 116 80 281 230 233 213 302 263 321 234 13 -21 11 -144 -5 -320 -15 -154 -21 -275 -18 -336 2 -27 6 -33 24 -33 26 0 147 64 366 194 191 113 294 166 322 166 36 0 23 -64 -69 -340 -50 -146 -91 -281 -93 -300 -3 -33 -1 -35 32 -38 23 -2 100 20 225 64 385 134 451 155 493 161 39 5 42 4 42 -17 0 -31 -46 -113 -171 -306 -132 -204 -175 -284 -166 -308 9 -23 33 -21 407 39 417 66 440 67 410 9 -8 -16 -115 -128 -237 -250 -122 -122 -228 -236 -237 -252 -14 -28 -14 -31 2 -37 9 -5 157 -12 329 -17 l312 -9 38 42 c53 59 167 144 403 304 258 174 333 230 397 298 60 64 74 99 48 127 -39 43 -162 35 -425 -27 -530 -124 -619 -135 -656 -78 -14 22 -14 28 6 72 16 36 70 97 225 251 218 216 264 272 272 331 4 32 1 41 -22 59 -51 41 -114 29 -446 -82 -241 -81 -311 -96 -358 -76 -42 17 -45 36 -17 94 36 71 131 182 396 460 254 267 322 347 356 421 34 73 20 105 -46 105 -83 0 -192 -42 -510 -198 -129 -63 -286 -136 -349 -163 -161 -70 -271 -93 -271 -56 0 47 179 431 364 782 113 213 138 285 134 375 l-3 65 -33 3 c-68 7 -193 -70 -521 -322 -253 -194 -344 -258 -427 -302 -109 -57 -149 -43 -147 50 2 72 22 145 113 416 88 261 110 343 110 412 0 60 -7 77 -37 89 -65 24 -164 -61 -441 -380 -186 -215 -263 -290 -325 -316 -35 -14 -38 -14 -56 4 -11 11 -24 37 -30 58 -16 55 -13 323 5 593 18 274 16 580 -6 623 -19 39 -55 45 -87 16 -42 -39 -107 -190 -186 -434 -42 -126 -114 -349 -161 -495 -84 -260 -155 -427 -194 -464 -74 -67 -128 82 -228 632 -84 465 -126 607 -186 641 -23 13 -29 13 -52 -2 -54 -36 -88 -130 -166 -467 -82 -352 -120 -457 -177 -483 -24 -11 -29 -8 -69 36 -56 62 -132 218 -279 572 -193 464 -267 595 -336 595 -25 0 -33 -6 -47 -37z m-2393 -4795 c-37 -110 -45 -226 -22 -341 4 -25 3 -28 -14 -19 -10 5 -115 47 -233 92 -240 92 -350 144 -350 164 0 18 31 30 136 56 79 19 496 107 501 105 1 0 -7 -26 -18 -57z m55 -545 c74 -142 202 -286 331 -372 234 -155 371 -335 455 -596 17 -55 56 -224 86 -375 47 -235 94 -411 138 -511 5 -12 -40 -32 -251 -107 -305 -108 -348 -122 -390 -122 -63 0 -48 33 142 330 126 196 165 266 165 294 0 18 -6 19 -92 13 -51 -3 -201 -24 -333 -46 -277 -47 -389 -59 -399 -43 -13 22 18 58 244 288 207 209 253 264 236 281 -14 15 -118 22 -326 23 -281 1 -477 13 -493 29 -19 20 51 75 287 227 238 154 326 219 326 239 0 21 -104 49 -380 100 -276 52 -394 81 -410 100 -20 25 45 57 455 224 94 38 173 70 177 70 4 1 19 -20 32 -46z m1358 -2248 c58 -34 65 -40 50 -50 -110 -74 -382 -222 -441 -240 -24 -7 -24 -7 -18 51 3 35 35 145 77 264 l71 206 97 -97 c58 -57 125 -111 164 -134z m438 -176 c58 -16 155 -40 216 -52 l111 -22 -176 -158 c-185 -166 -255 -220 -281 -215 -21 4 -25 97 -11 268 14 161 20 210 29 210 4 0 54 -14 112 -31z"/>
 <path d="M2430 7764 c-324 -41 -647 -130 -963 -265 -673 -288 -1119 -658 -1333 -1103 -173 -361 -178 -771 -14 -1189 95 -244 262 -413 561 -571 225 -118 526 -224 1074 -376 738 -204 992 -295 1228 -437 32 -19 59 -34 60 -32 1 2 17 49 35 104 74 222 186 450 472 965 330 595 420 779 509 1046 69 208 94 345 95 519 0 200 -30 323 -128 517 -223 440 -558 704 -1015 800 -76 16 -144 20 -321 23 -124 2 -241 1 -260 -1z"/>
 </g>
<g id="layer103" fill="#c26423" stroke="none">
 <path d="M4110 12054 c-661 -38 -1163 -217 -1489 -529 -97 -94 -168 -180 -154 -188 20 -12 407 -90 573 -116 134 -21 348 -48 445 -56 33 -3 87 -7 120 -10 380 -34 927 -38 1310 -11 28 2 91 7 140 10 234 17 729 88 908 130 34 8 96 22 137 32 41 9 78 19 83 21 11 7 -73 111 -149 183 -298 285 -726 457 -1279 515 -147 15 -518 26 -645 19z m-266 -223 c27 -30 30 -81 7 -118 -31 -50 -81 -40 -100 20 -26 77 45 151 93 98z m1079 -19 c30 -33 38 -70 23 -107 -8 -18 -24 -38 -35 -45 -18 -9 -26 -7 -51 19 -34 33 -38 66 -15 111 22 42 52 51 78 22z m-1626 -214 c30 -34 36 -62 19 -102 -32 -76 -111 -49 -111 38 0 75 50 109 92 64z m2177 -29 c35 -42 34 -82 -4 -120 -25 -25 -33 -28 -50 -19 -29 16 -53 67 -45 99 7 30 43 71 61 71 7 0 24 -14 38 -31z m-1085 -75 c12 -15 21 -41 21 -59 0 -38 -33 -85 -60 -85 -27 0 -60 47 -60 85 0 38 33 85 60 85 10 0 28 -12 39 -26z"/>
 <path d="M9322 10113 c-25 -56 -21 -382 8 -738 29 -353 33 -653 8 -707 -14 -32 -22 -38 -47 -38 -62 0 -151 83 -466 435 -333 372 -434 465 -505 467 -93 3 -83 -109 45 -522 67 -217 97 -355 88 -402 -15 -76 -99 -86 -258 -33 -138 47 -217 54 -262 26 -28 -18 -33 -27 -33 -59 0 -77 62 -214 244 -540 262 -469 302 -602 174 -578 -54 10 -155 75 -386 250 -401 303 -491 359 -565 354 -35 -3 -43 -7 -51 -31 -21 -58 22 -161 169 -407 163 -272 206 -371 185 -425 -10 -26 -13 -27 -55 -21 -100 13 -286 105 -810 396 -561 312 -754 404 -838 398 -39 -3 -42 -5 -45 -36 -7 -75 63 -182 368 -567 231 -292 286 -366 330 -449 83 -158 -7 -182 -370 -98 -291 68 -387 76 -430 37 -45 -41 -16 -150 81 -308 220 -360 241 -425 146 -467 -84 -37 -173 -51 -560 -86 -458 -41 -577 -71 -577 -144 0 -68 106 -138 475 -312 132 -63 273 -133 313 -156 86 -51 152 -111 152 -139 0 -61 -109 -129 -466 -289 -376 -168 -474 -229 -474 -294 0 -78 137 -115 670 -180 531 -65 670 -102 670 -179 0 -42 -51 -133 -138 -247 -42 -56 -114 -151 -160 -210 -97 -128 -142 -212 -142 -265 0 -97 122 -99 581 -10 263 51 366 69 459 77 83 7 157 -7 167 -32 22 -58 -111 -178 -567 -509 -311 -226 -401 -297 -484 -385 -58 -62 -67 -76 -64 -103 2 -26 9 -34 38 -44 69 -24 195 0 580 110 385 111 510 121 510 42 0 -31 -82 -153 -173 -256 -42 -48 -162 -179 -268 -290 -333 -354 -436 -482 -446 -556 -14 -109 124 -92 638 76 342 112 453 141 535 141 56 0 65 -3 79 -24 32 -48 -8 -189 -146 -517 -182 -434 -219 -542 -219 -634 0 -60 12 -75 60 -75 75 0 174 63 599 383 279 210 430 303 481 295 15 -2 31 -14 40 -33 25 -50 18 -271 -19 -560 -18 -141 -35 -320 -37 -410 -5 -141 -3 -164 13 -195 13 -26 26 -36 46 -38 65 -8 174 150 502 723 313 547 425 710 484 703 30 -4 55 -47 71 -124 5 -27 14 -179 20 -339 18 -520 36 -615 118 -615 61 0 156 165 332 575 145 338 248 515 299 515 63 0 114 -139 205 -563 69 -315 115 -443 169 -461 34 -12 53 -2 85 44 40 60 55 121 152 629 50 261 96 382 149 389 59 9 133 -76 351 -398 85 -126 174 -245 215 -287 62 -65 74 -73 107 -73 29 0 41 6 54 25 29 45 14 242 -46 590 -58 341 -69 490 -37 538 9 15 23 27 29 27 20 0 129 -120 198 -218 80 -113 222 -337 450 -707 322 -522 481 -746 550 -775 28 -12 34 -11 51 6 47 47 34 209 -55 700 -66 363 -78 444 -79 555 -2 148 34 169 188 106 44 -18 166 -82 270 -142 291 -166 396 -209 458 -186 76 29 56 119 -98 426 -63 127 -122 250 -130 274 -18 52 -20 122 -3 139 45 45 190 -12 789 -306 503 -248 622 -296 716 -290 l48 3 -1 38 c-3 78 -94 184 -613 711 -358 363 -442 458 -484 544 -19 39 -20 44 -5 58 42 42 162 26 548 -71 298 -75 401 -95 479 -95 76 0 101 8 112 37 24 63 -70 167 -406 448 -280 234 -364 311 -405 373 -40 61 -38 93 10 109 76 26 199 16 675 -57 389 -60 521 -74 626 -68 65 4 84 9 102 26 20 21 20 23 4 56 -30 63 -160 151 -473 322 -483 262 -599 331 -679 405 -120 111 -9 157 555 229 521 67 650 103 650 181 0 59 -109 110 -415 196 -88 24 -246 68 -351 98 -227 63 -337 107 -382 151 -32 32 -33 34 -18 63 33 64 145 141 516 361 436 257 568 352 585 421 11 46 -22 59 -147 59 -131 0 -248 -15 -673 -85 -408 -67 -501 -81 -639 -95 l-108 -11 -87 -59 c-47 -32 -165 -110 -261 -173 -210 -139 -235 -158 -227 -180 8 -20 42 -30 262 -73 480 -94 528 -106 523 -132 -5 -25 -76 -60 -353 -172 -266 -108 -368 -157 -363 -174 6 -19 142 -81 366 -166 304 -116 375 -151 357 -179 -10 -17 -93 -38 -380 -97 -284 -59 -389 -87 -401 -106 -12 -19 56 -70 280 -210 288 -179 362 -235 343 -255 -13 -12 -160 -23 -442 -32 -176 -6 -333 -14 -350 -19 -16 -5 -32 -16 -33 -26 -3 -12 75 -95 248 -265 186 -183 251 -253 248 -267 -3 -17 -12 -19 -84 -17 -45 1 -186 18 -315 38 -129 20 -278 39 -331 42 -93 6 -98 5 -98 -14 0 -24 63 -129 204 -337 111 -165 156 -243 156 -272 0 -30 -86 -10 -401 96 -165 56 -323 104 -350 107 -49 6 -49 6 -49 -23 0 -38 24 -113 98 -309 70 -187 102 -288 102 -321 0 -50 -59 -26 -336 131 -247 141 -353 195 -381 195 -22 0 -23 -3 -23 -87 0 -49 9 -164 20 -258 21 -183 26 -340 10 -350 -19 -12 -89 36 -234 162 -235 203 -319 271 -354 290 -32 17 -34 17 -47 -1 -18 -24 -29 -78 -60 -297 -29 -203 -52 -324 -66 -351 -15 -29 -44 -21 -83 22 -20 22 -101 127 -180 233 -163 218 -222 287 -242 287 -25 0 -63 -73 -150 -286 -94 -229 -139 -328 -160 -345 -36 -29 -65 18 -191 310 -95 219 -130 288 -158 311 -14 11 -21 7 -58 -32 -23 -25 -107 -136 -186 -247 -154 -215 -221 -296 -243 -289 -22 7 -47 103 -87 343 -28 166 -35 232 -27 237 6 4 27 8 48 8 20 0 71 7 114 15 215 41 384 126 799 401 293 194 478 276 688 305 97 13 190 7 422 -28 224 -33 436 -41 528 -19 130 31 253 113 408 272 344 354 577 948 605 1544 l6 125 -58 70 c-146 178 -230 356 -264 555 -6 36 -15 218 -20 405 -10 375 -16 418 -74 534 -151 299 -578 570 -1231 781 -88 28 -197 60 -241 71 -400 95 -937 65 -1549 -87 -155 -38 -149 -34 -241 -157 -90 -121 -133 -256 -119 -382 4 -45 12 -69 27 -81 43 -40 42 -50 -12 -117 -64 -78 -143 -237 -169 -342 -92 -366 -32 -841 199 -1575 38 -124 94 -302 122 -396 l52 -171 166 -90 c710 -391 1163 -515 1596 -437 237 42 426 150 645 367 238 235 360 460 399 732 14 104 12 385 -5 503 -53 376 -208 738 -440 1027 -142 178 -369 383 -578 522 -123 81 -122 83 28 58 252 -41 426 -127 603 -299 215 -209 499 -651 630 -981 122 -307 176 -609 153 -844 -27 -266 -108 -470 -278 -700 -75 -101 -329 -352 -429 -423 -153 -109 -321 -184 -504 -224 -116 -26 -472 -26 -604 -1 l-89 17 -90 -86 c-225 -214 -369 -308 -580 -379 -145 -49 -262 -65 -464 -65 -516 0 -928 151 -1241 454 -145 140 -194 209 -348 487 -417 754 -546 1083 -531 1359 9 171 94 368 225 519 24 29 42 60 42 74 0 33 43 198 69 269 41 107 140 237 246 323 41 33 74 63 75 66 0 4 -42 9 -92 13 -132 10 -267 -13 -337 -56 -22 -13 -308 -324 -429 -466 -35 -41 -89 -111 -119 -154 -36 -52 -59 -76 -67 -71 -7 5 -113 71 -235 148 -245 153 -313 206 -294 225 17 18 143 28 478 39 165 6 310 13 323 17 12 3 22 14 22 23 0 9 -112 127 -250 262 -246 242 -275 277 -234 293 20 8 141 -6 429 -48 280 -42 356 -49 374 -37 23 15 -7 70 -145 276 -150 224 -204 315 -204 343 0 38 6 37 415 -98 165 -54 317 -101 338 -105 70 -12 65 19 -56 345 -86 235 -108 313 -90 331 17 17 106 -24 336 -154 237 -135 371 -202 386 -192 17 10 13 152 -9 340 -11 94 -20 212 -20 263 0 89 1 92 23 92 29 0 98 -53 304 -233 208 -180 272 -229 298 -225 27 4 41 50 65 210 67 432 71 455 96 465 25 9 84 -57 253 -282 161 -214 214 -275 236 -275 30 0 55 48 160 305 80 195 137 319 154 329 5 3 16 3 25 0 19 -7 87 -140 161 -314 79 -185 142 -310 162 -317 24 -9 74 49 233 272 155 217 228 302 253 292 23 -9 43 -85 87 -346 54 -317 61 -339 99 -326 30 9 116 80 281 230 233 213 302 263 321 234 13 -21 11 -144 -5 -320 -15 -154 -21 -275 -18 -336 2 -27 6 -33 24 -33 26 0 147 64 366 194 191 113 294 166 322 166 36 0 23 -64 -69 -340 -50 -146 -91 -281 -93 -300 -3 -33 -1 -35 32 -38 23 -2 100 20 225 64 385 134 451 155 493 161 39 5 42 4 42 -17 0 -31 -46 -113 -171 -306 -132 -204 -175 -284 -166 -308 9 -23 33 -21 407 39 417 66 440 67 410 9 -8 -16 -115 -128 -237 -250 -122 -122 -228 -236 -237 -252 -14 -28 -14 -31 2 -37 9 -5 157 -12 329 -17 l312 -9 38 42 c53 59 167 144 403 304 258 174 333 230 397 298 60 64 74 99 48 127 -39 43 -162 35 -425 -27 -530 -124 -619 -135 -656 -78 -14 22 -14 28 6 72 16 36 70 97 225 251 218 216 264 272 272 331 4 32 1 41 -22 59 -51 41 -114 29 -446 -82 -241 -81 -311 -96 -358 -76 -42 17 -45 36 -17 94 36 71 131 182 396 460 254 267 322 347 356 421 34 73 20 105 -46 105 -83 0 -192 -42 -510 -198 -129 -63 -286 -136 -349 -163 -161 -70 -271 -93 -271 -56 0 47 179 431 364 782 113 213 138 285 134 375 l-3 65 -33 3 c-68 7 -193 -70 -521 -322 -253 -194 -344 -258 -427 -302 -109 -57 -149 -43 -147 50 2 72 22 145 113 416 88 261 110 343 110 412 0 60 -7 77 -37 89 -65 24 -164 -61 -441 -380 -186 -215 -263 -290 -325 -316 -35 -14 -38 -14 -56 4 -11 11 -24 37 -30 58 -16 55 -13 323 5 593 18 274 16 580 -6 623 -19 39 -55 45 -87 16 -42 -39 -107 -190 -186 -434 -42 -126 -114 -349 -161 -495 -84 -260 -155 -427 -194 -464 -74 -67 -128 82 -228 632 -84 465 -126 607 -186 641 -23 13 -29 13 -52 -2 -54 -36 -88 -130 -166 -467 -82 -352 -120 -457 -177 -483 -24 -11 -29 -8 -69 36 -56 62 -132 218 -279 572 -193 464 -267 595 -336 595 -25 0 -33 -6 -47 -37z m-2393 -4795 c-37 -110 -45 -226 -22 -341 4 -25 3 -28 -14 -19 -10 5 -115 47 -233 92 -240 92 -350 144 -350 164 0 18 31 30 136 56 79 19 496 107 501 105 1 0 -7 -26 -18 -57z m55 -545 c74 -142 202 -286 331 -372 234 -155 371 -335 455 -596 17 -55 56 -224 86 -375 47 -235 94 -411 138 -511 5 -12 -40 -32 -251 -107 -305 -108 -348 -122 -390 -122 -63 0 -48 33 142 330 126 196 165 266 165 294 0 18 -6 19 -92 13 -51 -3 -201 -24 -333 -46 -277 -47 -389 -59 -399 -43 -13 22 18 58 244 288 207 209 253 264 236 281 -14 15 -118 22 -326 23 -281 1 -477 13 -493 29 -19 20 51 75 287 227 238 154 326 219 326 239 0 21 -104 49 -380 100 -276 52 -394 81 -410 100 -20 25 45 57 455 224 94 38 173 70 177 70 4 1 19 -20 32 -46z m1358 -2248 c58 -34 65 -40 50 -50 -110 -74 -382 -222 -441 -240 -24 -7 -24 -7 -18 51 3 35 35 145 77 264 l71 206 97 -97 c58 -57 125 -111 164 -134z m438 -176 c58 -16 155 -40 216 -52 l111 -22 -176 -158 c-185 -166 -255 -220 -281 -215 -21 4 -25 97 -11 268 14 161 20 210 29 210 4 0 54 -14 112 -31z"/>
 <path d="M3655 9660 c-116 -24 -216 -84 -250 -152 -38 -76 -6 -170 77 -225 93 -63 112 -68 258 -68 127 0 139 2 195 28 68 32 87 47 126 101 51 69 36 162 -37 225 -53 47 -127 79 -209 91 -80 11 -104 11 -160 0z"/>
 <path d="M2430 7764 c-324 -41 -647 -130 -963 -265 -666 -285 -1113 -653 -1328 -1092 -55 -112 -104 -258 -96 -282 7 -17 -4 -18 212 25 225 44 275 56 480 111 182 48 686 211 770 248 11 5 36 15 55 21 19 7 51 20 70 28 19 8 44 18 55 22 11 4 38 15 60 25 22 9 49 20 60 24 42 17 142 61 220 96 83 38 568 280 620 310 33 19 74 42 90 50 17 8 37 19 45 25 8 5 53 32 100 60 47 28 94 56 104 63 11 6 65 41 120 76 110 70 366 249 366 256 0 11 -188 98 -272 126 -171 57 -261 70 -508 74 -124 2 -241 1 -260 -1z m-282 -276 c35 -38 44 -75 27 -109 -20 -37 -53 -38 -88 -3 -34 34 -43 78 -23 109 21 31 56 32 84 3z m590 0 c52 -56 46 -130 -10 -136 -56 -7 -106 84 -74 133 21 31 56 32 84 3z m-1600 -400 c46 -50 48 -114 4 -137 -30 -16 -78 20 -93 68 -10 34 -9 44 5 66 21 31 55 33 84 3z m627 -90 c47 -42 50 -114 6 -138 -27 -14 -56 1 -81 43 -25 41 -25 72 0 97 26 26 43 25 75 -2z m-1034 -339 c39 -42 42 -89 9 -123 -16 -17 -23 -18 -45 -8 -27 12 -65 67 -65 93 0 23 38 69 57 69 8 0 28 -14 44 -31z"/>
 <path d="M1908 5086 c-82 -29 -129 -57 -191 -115 -61 -57 -88 -109 -93 -180 -4 -49 -1 -61 23 -95 43 -61 100 -86 196 -86 92 0 174 19 237 55 25 13 54 29 65 34 30 14 98 90 124 139 19 36 22 55 19 103 -5 74 -27 105 -98 142 -72 37 -183 38 -282 3z"/>
 <path d="M8300 4343 c-37 -15 -84 -61 -107 -107 -48 -93 -42 -279 12 -390 41 -85 77 -128 135 -163 84 -50 166 -40 225 30 47 55 65 118 65 229 0 174 -79 329 -195 384 -47 23 -102 29 -135 17z"/>
 </g>
<g id="layer104" fill="#c59d54" stroke="none">
 <path d="M4110 12054 c-661 -38 -1163 -217 -1489 -529 -53 -51 -111 -113 -129 -138 l-32 -46 37 -11 c67 -18 313 -68 468 -94 478 -80 947 -112 1510 -103 595 10 1036 58 1555 168 80 18 148 33 153 36 11 7 -73 111 -149 183 -298 285 -726 457 -1279 515 -147 15 -518 26 -645 19z m-266 -223 c27 -30 30 -81 7 -118 -31 -50 -81 -40 -100 20 -26 77 45 151 93 98z m1079 -19 c30 -33 38 -70 23 -107 -8 -18 -24 -38 -35 -45 -18 -9 -26 -7 -51 19 -34 33 -38 66 -15 111 22 42 52 51 78 22z m-1626 -214 c30 -34 36 -62 19 -102 -32 -76 -111 -49 -111 38 0 75 50 109 92 64z m2177 -29 c35 -42 34 -82 -4 -120 -25 -25 -33 -28 -50 -19 -29 16 -53 67 -45 99 7 30 43 71 61 71 7 0 24 -14 38 -31z m-1085 -75 c12 -15 21 -41 21 -59 0 -38 -33 -85 -60 -85 -27 0 -60 47 -60 85 0 38 33 85 60 85 10 0 28 -12 39 -26z"/>
 <path d="M9322 10113 c-25 -56 -21 -382 8 -738 29 -353 33 -653 8 -707 -14 -32 -22 -38 -47 -38 -62 0 -151 83 -466 435 -333 372 -434 465 -505 467 -93 3 -83 -109 45 -522 67 -217 97 -355 88 -402 -15 -76 -99 -86 -258 -33 -138 47 -217 54 -262 26 -28 -18 -33 -27 -33 -59 0 -77 62 -214 244 -540 262 -469 302 -602 174 -578 -54 10 -155 75 -386 250 -401 303 -491 359 -565 354 -35 -3 -43 -7 -51 -31 -21 -58 22 -161 169 -407 163 -272 206 -371 185 -425 -10 -26 -13 -27 -55 -21 -100 13 -286 105 -810 396 -561 312 -754 404 -838 398 -39 -3 -42 -5 -45 -36 -7 -75 63 -182 368 -567 231 -292 286 -366 330 -449 83 -158 -7 -182 -370 -98 -291 68 -387 76 -430 37 -45 -41 -16 -150 81 -308 220 -360 241 -425 146 -467 -84 -37 -173 -51 -560 -86 -458 -41 -577 -71 -577 -144 0 -68 106 -138 475 -312 132 -63 273 -133 313 -156 86 -51 152 -111 152 -139 0 -61 -109 -129 -466 -289 -376 -168 -474 -229 -474 -294 0 -78 137 -115 670 -180 531 -65 670 -102 670 -179 0 -42 -51 -133 -138 -247 -42 -56 -114 -151 -160 -210 -97 -128 -142 -212 -142 -265 0 -97 122 -99 581 -10 263 51 366 69 459 77 83 7 157 -7 167 -32 22 -58 -111 -178 -567 -509 -311 -226 -401 -297 -484 -385 -58 -62 -67 -76 -64 -103 2 -26 9 -34 38 -44 69 -24 195 0 580 110 385 111 510 121 510 42 0 -31 -82 -153 -173 -256 -42 -48 -162 -179 -268 -290 -333 -354 -436 -482 -446 -556 -14 -109 124 -92 638 76 342 112 453 141 535 141 56 0 65 -3 79 -24 32 -48 -8 -189 -146 -517 -182 -434 -219 -542 -219 -634 0 -60 12 -75 60 -75 75 0 174 63 599 383 279 210 430 303 481 295 15 -2 31 -14 40 -33 25 -50 18 -271 -19 -560 -18 -141 -35 -320 -37 -410 -5 -141 -3 -164 13 -195 13 -26 26 -36 46 -38 65 -8 174 150 502 723 313 547 425 710 484 703 30 -4 55 -47 71 -124 5 -27 14 -179 20 -339 18 -520 36 -615 118 -615 61 0 156 165 332 575 145 338 248 515 299 515 63 0 114 -139 205 -563 69 -315 115 -443 169 -461 34 -12 53 -2 85 44 40 60 55 121 152 629 50 261 96 382 149 389 59 9 133 -76 351 -398 85 -126 174 -245 215 -287 62 -65 74 -73 107 -73 29 0 41 6 54 25 29 45 14 242 -46 590 -58 341 -69 490 -37 538 9 15 23 27 29 27 20 0 129 -120 198 -218 80 -113 222 -337 450 -707 322 -522 481 -746 550 -775 28 -12 34 -11 51 6 47 47 34 209 -55 700 -66 363 -78 444 -79 555 -2 148 34 169 188 106 44 -18 166 -82 270 -142 291 -166 396 -209 458 -186 76 29 56 119 -98 426 -63 127 -122 250 -130 274 -18 52 -20 122 -3 139 45 45 190 -12 789 -306 503 -248 622 -296 716 -290 l48 3 -1 38 c-3 78 -94 184 -613 711 -358 363 -442 458 -484 544 -19 39 -20 44 -5 58 42 42 162 26 548 -71 298 -75 401 -95 479 -95 76 0 101 8 112 37 24 63 -70 167 -406 448 -280 234 -364 311 -405 373 -40 61 -38 93 10 109 76 26 199 16 675 -57 389 -60 521 -74 626 -68 65 4 84 9 102 26 20 21 20 23 4 56 -30 63 -160 151 -473 322 -483 262 -599 331 -679 405 -120 111 -9 157 555 229 521 67 650 103 650 181 0 59 -109 110 -415 196 -88 24 -246 68 -351 98 -227 63 -337 107 -382 151 -32 32 -33 34 -18 63 33 64 145 141 516 361 436 257 568 352 585 421 11 46 -22 59 -147 59 -131 0 -248 -15 -673 -85 -408 -67 -501 -81 -639 -95 l-108 -11 -87 -59 c-47 -32 -165 -110 -261 -173 -210 -139 -235 -158 -227 -180 8 -20 42 -30 262 -73 480 -94 528 -106 523 -132 -5 -25 -76 -60 -353 -172 -266 -108 -368 -157 -363 -174 6 -19 142 -81 366 -166 304 -116 375 -151 357 -179 -10 -17 -93 -38 -380 -97 -284 -59 -389 -87 -401 -106 -12 -19 56 -70 280 -210 288 -179 362 -235 343 -255 -13 -12 -160 -23 -442 -32 -176 -6 -333 -14 -350 -19 -16 -5 -32 -16 -33 -26 -3 -12 75 -95 248 -265 186 -183 251 -253 248 -267 -3 -17 -12 -19 -84 -17 -45 1 -186 18 -315 38 -129 20 -278 39 -331 42 -93 6 -98 5 -98 -14 0 -24 63 -129 204 -337 111 -165 156 -243 156 -272 0 -30 -86 -10 -401 96 -165 56 -323 104 -350 107 -49 6 -49 6 -49 -23 0 -38 24 -113 98 -309 70 -187 102 -288 102 -321 0 -50 -59 -26 -336 131 -247 141 -353 195 -381 195 -22 0 -23 -3 -23 -87 0 -49 9 -164 20 -258 21 -183 26 -340 10 -350 -19 -12 -89 36 -234 162 -235 203 -319 271 -354 290 -32 17 -34 17 -47 -1 -18 -24 -29 -78 -60 -297 -29 -203 -52 -324 -66 -351 -15 -29 -44 -21 -83 22 -20 22 -101 127 -180 233 -163 218 -222 287 -242 287 -25 0 -63 -73 -150 -286 -94 -229 -139 -328 -160 -345 -36 -29 -65 18 -191 310 -95 219 -130 288 -158 311 -14 11 -21 7 -58 -32 -23 -25 -107 -136 -186 -247 -154 -215 -221 -296 -243 -289 -22 7 -47 103 -87 343 -28 166 -35 232 -27 237 6 4 27 8 48 8 20 0 71 7 114 15 215 41 384 126 799 401 293 194 478 276 688 305 97 13 190 7 422 -28 224 -33 436 -41 528 -19 130 31 253 113 408 272 344 354 577 948 605 1544 l6 125 -58 70 c-146 178 -230 356 -264 555 -6 36 -15 218 -20 405 -10 375 -16 418 -74 534 -151 299 -578 570 -1231 781 -88 28 -197 60 -241 71 -400 95 -937 65 -1549 -87 -155 -38 -149 -34 -241 -157 -90 -120 -132 -253 -120 -376 6 -51 13 -70 38 -101 l32 -37 86 71 c431 358 717 429 1210 299 148 -39 372 -131 480 -197 24 -16 66 -26 138 -35 114 -13 270 -55 355 -94 221 -101 424 -315 683 -717 66 -103 194 -354 242 -475 122 -307 176 -609 153 -844 -27 -266 -108 -470 -278 -700 -75 -101 -329 -352 -429 -423 -153 -109 -321 -184 -504 -224 -116 -26 -472 -26 -604 -1 l-89 17 -90 -86 c-225 -214 -369 -308 -580 -379 -145 -49 -262 -65 -464 -65 -516 0 -928 151 -1241 454 -145 140 -194 209 -348 487 -417 754 -546 1083 -531 1359 9 168 90 360 218 512 33 39 42 60 54 126 20 103 67 241 106 311 43 76 120 167 202 237 37 32 67 61 67 65 0 3 -39 9 -87 13 -127 10 -262 -13 -332 -56 -22 -13 -308 -324 -429 -466 -35 -41 -89 -111 -119 -154 -36 -52 -59 -76 -67 -71 -7 5 -113 71 -235 148 -245 153 -313 206 -294 225 17 18 143 28 478 39 165 6 310 13 323 17 12 3 22 14 22 23 0 9 -112 127 -250 262 -246 242 -275 277 -234 293 20 8 141 -6 429 -48 280 -42 356 -49 374 -37 23 15 -7 70 -145 276 -150 224 -204 315 -204 343 0 38 6 37 415 -98 165 -54 317 -101 338 -105 70 -12 65 19 -56 345 -86 235 -108 313 -90 331 17 17 106 -24 336 -154 237 -135 371 -202 386 -192 17 10 13 152 -9 340 -11 94 -20 212 -20 263 0 89 1 92 23 92 29 0 98 -53 304 -233 208 -180 272 -229 298 -225 27 4 41 50 65 210 67 432 71 455 96 465 25 9 84 -57 253 -282 161 -214 214 -275 236 -275 30 0 55 48 160 305 80 195 137 319 154 329 5 3 16 3 25 0 19 -7 87 -140 161 -314 79 -185 142 -310 162 -317 24 -9 74 49 233 272 155 217 228 302 253 292 23 -9 43 -85 87 -346 54 -317 61 -339 99 -326 30 9 116 80 281 230 233 213 302 263 321 234 13 -21 11 -144 -5 -320 -15 -154 -21 -275 -18 -336 2 -27 6 -33 24 -33 26 0 147 64 366 194 191 113 294 166 322 166 36 0 23 -64 -69 -340 -50 -146 -91 -281 -93 -300 -3 -33 -1 -35 32 -38 23 -2 100 20 225 64 385 134 451 155 493 161 39 5 42 4 42 -17 0 -31 -46 -113 -171 -306 -132 -204 -175 -284 -166 -308 9 -23 33 -21 407 39 417 66 440 67 410 9 -8 -16 -115 -128 -237 -250 -122 -122 -228 -236 -237 -252 -14 -28 -14 -31 2 -37 9 -5 157 -12 329 -17 l312 -9 38 42 c53 59 167 144 403 304 258 174 333 230 397 298 60 64 74 99 48 127 -39 43 -162 35 -425 -27 -530 -124 -619 -135 -656 -78 -14 22 -14 28 6 72 16 36 70 97 225 251 218 216 264 272 272 331 4 32 1 41 -22 59 -51 41 -114 29 -446 -82 -241 -81 -311 -96 -358 -76 -42 17 -45 36 -17 94 36 71 131 182 396 460 254 267 322 347 356 421 34 73 20 105 -46 105 -83 0 -192 -42 -510 -198 -129 -63 -286 -136 -349 -163 -161 -70 -271 -93 -271 -56 0 47 179 431 364 782 113 213 138 285 134 375 l-3 65 -33 3 c-68 7 -193 -70 -521 -322 -253 -194 -344 -258 -427 -302 -109 -57 -149 -43 -147 50 2 72 22 145 113 416 88 261 110 343 110 412 0 60 -7 77 -37 89 -65 24 -164 -61 -441 -380 -186 -215 -263 -290 -325 -316 -35 -14 -38 -14 -56 4 -11 11 -24 37 -30 58 -16 55 -13 323 5 593 18 274 16 580 -6 623 -19 39 -55 45 -87 16 -42 -39 -107 -190 -186 -434 -42 -126 -114 -349 -161 -495 -84 -260 -155 -427 -194 -464 -74 -67 -128 82 -228 632 -84 465 -126 607 -186 641 -23 13 -29 13 -52 -2 -54 -36 -88 -130 -166 -467 -82 -352 -120 -457 -177 -483 -24 -11 -29 -8 -69 36 -56 62 -132 218 -279 572 -193 464 -267 595 -336 595 -25 0 -33 -6 -47 -37z m-2393 -4795 c-37 -110 -45 -226 -22 -341 4 -25 3 -28 -14 -19 -10 5 -115 47 -233 92 -240 92 -350 144 -350 164 0 18 31 30 136 56 79 19 496 107 501 105 1 0 -7 -26 -18 -57z m55 -545 c74 -142 202 -286 331 -372 234 -155 371 -335 455 -596 17 -55 56 -224 86 -375 47 -235 94 -411 138 -511 5 -12 -40 -32 -251 -107 -305 -108 -348 -122 -390 -122 -63 0 -48 33 142 330 126 196 165 266 165 294 0 18 -6 19 -92 13 -51 -3 -201 -24 -333 -46 -277 -47 -389 -59 -399 -43 -13 22 18 58 244 288 207 209 253 264 236 281 -14 15 -118 22 -326 23 -281 1 -477 13 -493 29 -19 20 51 75 287 227 238 154 326 219 326 239 0 21 -104 49 -380 100 -276 52 -394 81 -410 100 -20 25 45 57 455 224 94 38 173 70 177 70 4 1 19 -20 32 -46z m1358 -2248 c58 -34 65 -40 50 -50 -110 -74 -382 -222 -441 -240 -24 -7 -24 -7 -18 51 3 35 35 145 77 264 l71 206 97 -97 c58 -57 125 -111 164 -134z m438 -176 c58 -16 155 -40 216 -52 l111 -22 -176 -158 c-185 -166 -255 -220 -281 -215 -21 4 -25 97 -11 268 14 161 20 210 29 210 4 0 54 -14 112 -31z"/>
 <path d="M3655 9660 c-116 -24 -216 -84 -250 -152 -38 -76 -6 -170 77 -225 93 -63 112 -68 258 -68 127 0 139 2 195 28 68 32 87 47 126 101 51 69 36 162 -37 225 -53 47 -127 79 -209 91 -80 11 -104 11 -160 0z"/>
 <path d="M2430 7764 c-324 -41 -647 -130 -963 -265 -673 -288 -1120 -658 -1333 -1103 -54 -114 -103 -260 -91 -272 18 -18 603 104 812 170 28 9 73 23 100 31 91 26 339 107 420 137 143 53 386 149 452 179 24 10 45 19 48 19 3 0 44 18 91 40 47 22 88 40 90 40 19 0 515 252 669 340 90 52 201 117 224 132 14 10 39 25 55 34 67 38 423 281 460 315 12 11 -157 94 -266 130 -171 57 -261 70 -508 74 -124 2 -241 1 -260 -1z m-282 -276 c35 -38 44 -75 27 -109 -20 -37 -53 -38 -88 -3 -34 34 -43 78 -23 109 21 31 56 32 84 3z m590 0 c52 -56 46 -130 -10 -136 -56 -7 -106 84 -74 133 21 31 56 32 84 3z m-1600 -400 c46 -50 48 -114 4 -137 -30 -16 -78 20 -93 68 -10 34 -9 44 5 66 21 31 55 33 84 3z m627 -90 c47 -42 50 -114 6 -138 -27 -14 -56 1 -81 43 -25 41 -25 72 0 97 26 26 43 25 75 -2z m-1034 -339 c39 -42 42 -89 9 -123 -16 -17 -23 -18 -45 -8 -27 12 -65 67 -65 93 0 23 38 69 57 69 8 0 28 -14 44 -31z"/>
 <path d="M1908 5086 c-82 -29 -129 -57 -191 -115 -61 -57 -88 -109 -93 -180 -4 -49 -1 -61 23 -95 43 -61 100 -86 196 -86 92 0 174 19 237 55 25 13 54 29 65 34 30 14 98 90 124 139 19 36 22 55 19 103 -5 74 -27 105 -98 142 -72 37 -183 38 -282 3z"/>
 <path d="M9608 4820 c-61 -33 -93 -87 -118 -198 -29 -129 41 -340 142 -426 74 -64 160 -74 226 -26 73 53 105 130 105 255 1 132 -40 240 -121 328 -78 83 -159 106 -234 67z"/>
 <path d="M8300 4343 c-37 -15 -84 -61 -107 -107 -48 -93 -42 -279 12 -390 41 -85 77 -128 135 -163 84 -50 166 -40 225 30 47 55 65 118 65 229 0 174 -79 329 -195 384 -47 23 -102 29 -135 17z"/>
 </g>
<g id="layer105" fill="#fffefe" stroke="none">
 <path d="M3670 9660 c-258 -36 -368 -247 -194 -374 65 -47 132 -68 236 -73 244 -14 421 121 369 280 -37 112 -233 192 -411 167z"/>
 <path d="M1947 5095 c-90 -23 -167 -65 -228 -125 -66 -66 -88 -104 -95 -168 -7 -66 26 -129 85 -161 86 -47 243 -39 356 17 158 78 243 199 221 315 -7 40 -58 94 -105 114 -50 21 -166 25 -234 8z"/>
 <path d="M9635 4830 c-86 -27 -145 -136 -145 -272 0 -233 146 -436 300 -415 200 27 231 415 49 612 -61 66 -139 94 -204 75z"/>
 <path d="M8310 4341 c-93 -29 -150 -134 -150 -280 0 -221 159 -434 305 -407 93 18 155 113 163 247 8 146 -31 270 -115 360 -70 76 -134 101 -203 80z"/>
 </g>

</svg>