<!DOCTYPE svg PUBLIC "-//W3C//DTD SVG 20010904//EN" "http://www.w3.org/TR/2001/REC-SVG-20010904/DTD/svg10.dtd">
<svg version="1.0" xmlns="http://www.w3.org/2000/svg" width="547px" height="324px" viewBox="0 0 5470 3240" preserveAspectRatio="xMidYMid meet">
<g id="layer101" fill="#6a222f" stroke="none">
 <path d="M2148 3132 c-10 -14 -52 -25 -173 -45 -582 -99 -1084 -311 -1436 -606 -224 -187 -375 -412 -435 -646 -23 -91 -25 -113 -21 -250 4 -113 10 -168 26 -225 268 -930 1883 -1501 3437 -1215 913 169 1614 631 1787 1180 76 242 57 475 -58 710 -336 687 -1433 1144 -2660 1111 -132 -3 -278 -11 -325 -16 -69 -7 -87 -7 -101 5 -20 19 -25 19 -41 -3z"/>
 </g>
<g id="layer102" fill="#996342" stroke="none">
 <path d="M2148 3132 c-10 -14 -52 -25 -173 -45 -582 -99 -1084 -311 -1436 -606 -224 -187 -375 -412 -435 -646 -23 -91 -25 -113 -21 -250 4 -113 10 -168 26 -225 268 -930 1883 -1501 3437 -1215 913 169 1614 631 1787 1180 76 242 57 475 -58 710 -336 687 -1433 1144 -2660 1111 -132 -3 -278 -11 -325 -16 -69 -7 -87 -7 -101 5 -20 19 -25 19 -41 -3z m869 -581 c64 -40 116 -121 155 -246 12 -36 19 -42 87 -70 137 -57 193 -129 210 -266 12 -89 30 -109 100 -109 55 0 114 -25 166 -71 46 -41 70 -92 84 -178 15 -95 26 -107 108 -114 90 -8 249 -59 309 -99 61 -42 103 -119 111 -205 10 -114 -35 -196 -136 -246 -61 -30 -73 -32 -166 -32 -93 0 -105 2 -167 33 -113 56 -191 160 -208 281 -6 40 -12 77 -15 81 -3 4 -31 9 -63 12 -74 5 -177 53 -231 107 -50 50 -89 125 -102 199 -6 31 -12 58 -13 60 -2 1 -29 7 -61 13 -160 29 -289 162 -303 311 -5 55 -14 63 -87 73 -72 11 -142 50 -206 115 -58 60 -97 135 -85 166 6 15 16 16 74 9 94 -11 128 -8 180 15 65 29 106 63 152 126 44 59 59 64 107 35z m-717 -417 c54 -50 104 -140 115 -204 7 -40 9 -42 98 -84 139 -65 192 -133 204 -265 8 -80 22 -96 97 -105 75 -8 115 -26 166 -72 54 -49 69 -80 86 -178 8 -44 21 -87 29 -95 9 -9 45 -18 87 -22 83 -8 201 -41 269 -75 90 -45 142 -135 143 -249 0 -59 -4 -78 -29 -123 -43 -79 -105 -117 -218 -132 -210 -30 -399 109 -431 317 l-12 78 -71 12 c-177 29 -310 159 -330 321 l-5 50 -51 5 c-70 9 -167 57 -218 109 -52 53 -95 141 -104 213 -4 39 -11 55 -21 55 -59 0 -159 35 -212 75 -72 52 -142 152 -142 201 0 39 6 41 104 23 112 -21 217 28 300 139 51 69 78 70 146 6z m-778 -336 c56 -39 138 -172 138 -224 0 -33 29 -58 102 -88 78 -32 141 -83 168 -137 11 -21 25 -74 32 -116 6 -43 17 -85 25 -94 8 -10 37 -19 73 -22 96 -10 183 -65 220 -137 11 -21 25 -71 32 -111 15 -96 37 -119 110 -119 63 0 201 -39 278 -78 90 -45 140 -136 140 -255 0 -98 -43 -167 -134 -215 -47 -25 -60 -27 -166 -27 -112 0 -117 1 -179 35 -42 23 -80 54 -112 92 -64 77 -69 87 -85 181 -8 44 -16 82 -18 85 -3 2 -34 7 -69 12 -80 10 -195 67 -238 119 -43 52 -78 128 -86 190 l-8 54 -63 13 c-35 7 -85 23 -110 36 -101 48 -185 167 -198 281 l-7 56 -71 11 c-109 18 -204 82 -264 178 -34 54 -45 91 -32 111 7 12 21 13 92 2 78 -12 87 -12 140 8 54 21 148 84 148 100 0 4 16 26 36 50 39 45 53 47 106 9z"/>
 <path d="M2954 2399 c-13 -22 59 -94 101 -101 36 -6 29 31 -15 73 -40 39 -73 49 -86 28z"/>
 <path d="M3227 2117 c-9 -23 18 -71 62 -110 52 -47 88 -62 107 -46 29 24 -22 104 -91 144 -47 28 -70 31 -78 12z"/>
 <path d="M3569 1738 c-4 -42 25 -86 84 -129 78 -57 119 -23 65 54 -44 61 -146 112 -149 75z"/>
 <path d="M4042 1331 c-37 -23 49 -135 134 -172 89 -40 112 6 43 85 -39 44 -121 96 -151 96 -7 0 -19 -4 -26 -9z"/>
 <path d="M2203 2014 c-14 -37 92 -123 119 -96 15 15 -13 56 -62 90 -39 26 -49 27 -57 6z"/>
 <path d="M2474 1726 c-18 -46 115 -170 163 -152 34 14 -3 89 -68 136 -45 32 -86 39 -95 16z"/>
 <path d="M2814 1356 c-8 -22 24 -83 60 -113 37 -31 93 -56 106 -48 34 21 -35 126 -104 159 -42 20 -55 20 -62 2z"/>
 <path d="M3280 925 c0 -54 132 -165 195 -165 52 0 38 55 -32 121 -47 45 -93 69 -133 69 -26 0 -30 -4 -30 -25z"/>
 <path d="M1450 1647 c0 -38 84 -105 116 -93 27 10 -16 75 -68 102 -38 20 -48 18 -48 -9z"/>
 <path d="M1733 1383 c-26 -9 -12 -52 32 -101 48 -53 108 -83 127 -64 39 39 -103 184 -159 165z"/>
 <path d="M2064 995 c-21 -54 119 -184 165 -155 33 20 -35 122 -103 154 -42 20 -55 20 -62 1z"/>
 <path d="M2536 584 c-21 -20 -8 -52 40 -100 67 -68 164 -107 177 -71 23 65 -170 218 -217 171z"/>
 </g>
<g id="layer103" fill="#aa916f" stroke="none">
 <path d="M2385 3138 c-71 -5 -143 -12 -159 -16 -28 -7 -28 -8 70 -97 53 -50 134 -126 179 -170 45 -44 134 -131 198 -193 64 -63 117 -118 117 -123 0 -25 -37 -1 -108 69 -43 42 -136 132 -207 200 -72 68 -172 163 -224 212 -69 66 -102 90 -121 90 -46 0 -313 -50 -452 -85 -463 -117 -849 -301 -1139 -544 -224 -187 -375 -412 -435 -646 -23 -91 -25 -113 -21 -250 4 -113 10 -168 26 -225 268 -930 1883 -1501 3437 -1215 913 169 1614 631 1787 1180 76 242 57 475 -58 710 -241 492 -880 878 -1720 1039 -357 68 -779 91 -1170 64z m-888 -455 c47 -43 125 -116 172 -163 152 -149 295 -285 334 -318 24 -20 37 -39 33 -47 -3 -8 -9 -15 -14 -15 -5 0 -56 46 -114 103 -58 56 -156 151 -219 211 -210 200 -289 280 -289 293 0 7 3 13 6 13 3 0 44 -35 91 -77z m1553 -159 c60 -57 99 -120 119 -198 16 -58 16 -58 71 -79 143 -52 216 -135 232 -266 5 -41 13 -82 18 -91 10 -18 51 -30 105 -30 40 0 115 -41 160 -87 40 -41 61 -95 70 -176 8 -74 29 -97 88 -97 45 -1 89 -9 180 -34 172 -47 256 -143 257 -292 0 -81 -30 -156 -81 -198 -81 -68 -249 -90 -361 -47 -68 26 -152 99 -198 171 -23 35 -35 70 -43 122 -12 82 -22 102 -50 94 -28 -7 -125 21 -183 55 -96 55 -168 161 -181 266 l-5 49 -66 12 c-164 31 -282 156 -307 324 -8 51 -3 48 -100 64 -60 10 -113 40 -177 101 -60 58 -98 122 -98 165 0 35 14 38 102 25 110 -16 169 5 251 87 34 33 70 71 79 84 28 35 62 28 118 -24z m-2292 -211 c49 -49 135 -133 193 -188 271 -258 335 -322 331 -333 -7 -23 -24 -12 -101 66 -42 42 -127 124 -187 182 -332 317 -352 338 -341 349 6 6 12 11 14 11 2 0 43 -39 91 -87z m1500 -137 c59 -31 142 -156 157 -239 9 -45 22 -56 110 -92 78 -32 147 -93 172 -154 9 -20 19 -69 24 -110 5 -41 13 -79 19 -85 5 -5 41 -13 79 -17 38 -4 82 -16 98 -25 101 -64 135 -112 152 -219 17 -110 18 -111 108 -119 89 -8 237 -55 301 -94 77 -48 117 -131 117 -242 0 -64 -4 -82 -28 -123 -55 -94 -173 -145 -305 -134 -121 10 -209 62 -288 170 -41 55 -52 87 -69 198 l-5 36 -61 6 c-168 15 -318 158 -338 321 l-6 51 -53 6 c-159 20 -296 157 -319 319 l-8 55 -65 11 c-36 6 -90 23 -119 39 -95 52 -202 193 -186 245 7 23 45 26 122 10 41 -9 58 -7 108 10 80 27 123 59 179 131 49 62 61 68 104 45z m-760 -360 c71 -38 152 -156 167 -244 4 -27 13 -46 23 -49 10 -3 49 -20 87 -39 125 -58 180 -134 192 -263 8 -81 25 -101 88 -101 54 0 99 -17 161 -62 58 -41 84 -91 100 -191 7 -43 17 -84 23 -91 6 -7 44 -16 84 -20 82 -7 239 -53 290 -85 85 -52 129 -136 130 -245 0 -111 -51 -189 -158 -238 -41 -18 -68 -23 -145 -23 -82 0 -103 4 -153 27 -107 50 -227 196 -227 277 0 14 -3 42 -6 62 -6 36 -6 36 -67 42 -40 4 -83 17 -133 41 -114 57 -182 147 -206 274 l-11 60 -52 5 c-64 6 -142 45 -199 98 -50 45 -101 136 -111 194 -14 86 -9 81 -79 93 -35 6 -81 18 -102 28 -88 42 -210 191 -202 247 4 27 45 34 117 18 40 -8 59 -7 116 10 67 21 106 52 202 163 26 30 34 31 71 12z"/>
 </g>
<g id="layer104" fill="#dabf97" stroke="none">
 <path d="M2433 3011 c-50 -3 -94 -8 -97 -11 -2 -3 99 -103 225 -223 126 -120 229 -225 229 -233 0 -33 -39 -8 -144 93 -214 205 -311 298 -346 330 l-35 31 -139 -19 c-416 -56 -795 -168 -1126 -333 -392 -196 -670 -449 -816 -741 -99 -201 -123 -371 -76 -540 263 -933 1880 -1507 3438 -1220 626 116 1174 378 1499 716 178 186 282 380 320 596 13 72 13 94 0 165 -58 331 -270 619 -635 863 -408 273 -917 442 -1537 511 -151 17 -614 26 -760 15z m-924 -333 c336 -324 515 -493 522 -496 14 -6 10 -42 -4 -42 -12 0 -394 356 -586 545 -49 48 -59 75 -29 75 7 0 50 -37 97 -82z m1546 -159 c55 -52 115 -153 115 -193 0 -35 26 -62 77 -81 71 -27 147 -80 178 -125 30 -44 55 -124 55 -178 0 -59 12 -69 91 -77 61 -6 80 -13 132 -49 76 -52 103 -97 122 -208 17 -97 28 -108 100 -108 58 0 207 -41 274 -75 100 -51 150 -136 151 -253 0 -170 -112 -267 -311 -267 -80 0 -91 3 -163 39 -115 59 -196 164 -211 276 -13 91 -10 87 -72 95 -77 9 -170 53 -227 105 -55 51 -107 151 -114 219 l-4 48 -53 6 c-151 15 -303 169 -322 325 l-5 49 -72 12 c-88 15 -134 41 -209 120 -70 73 -103 140 -86 172 9 18 17 20 52 15 121 -18 132 -18 188 3 65 25 127 75 170 137 42 62 73 61 144 -7z m-2154 -339 c365 -349 389 -373 389 -387 0 -34 -45 0 -212 160 -455 435 -444 423 -429 440 10 13 16 14 26 4 6 -7 108 -104 226 -217z m1366 -9 c64 -40 153 -184 153 -250 0 -22 26 -46 60 -56 57 -17 139 -66 170 -101 43 -49 61 -94 71 -179 11 -85 29 -105 98 -105 30 0 63 -9 96 -26 99 -52 137 -106 155 -220 16 -100 25 -110 107 -117 71 -6 211 -46 275 -78 89 -45 148 -148 148 -257 -1 -101 -59 -191 -152 -233 -44 -20 -70 -24 -153 -24 -93 0 -105 2 -167 33 -71 35 -154 115 -187 181 -11 20 -24 70 -31 112 l-12 77 -57 4 c-36 3 -83 16 -129 38 -114 52 -189 149 -212 272 -6 29 -12 53 -14 55 -2 3 -34 11 -71 18 -152 32 -279 169 -293 317 -4 39 -9 49 -26 53 -11 2 -46 9 -78 15 -31 6 -77 25 -102 41 -96 64 -190 198 -172 245 6 15 16 16 79 9 93 -9 112 -8 171 11 47 16 119 78 183 157 25 32 47 34 90 8z m-720 -393 c58 -56 99 -124 118 -198 11 -44 13 -46 105 -92 136 -67 185 -133 200 -271 4 -38 13 -74 18 -79 6 -6 39 -14 74 -17 142 -16 237 -106 254 -242 4 -30 13 -69 20 -86 12 -31 16 -33 62 -33 105 0 296 -65 358 -122 91 -84 117 -231 59 -337 -36 -66 -76 -97 -156 -122 -170 -53 -337 7 -441 157 -42 61 -50 79 -60 150 l-12 82 -60 4 c-74 6 -168 51 -232 110 -53 49 -102 144 -110 214 l-6 51 -53 6 c-74 7 -135 37 -196 93 -65 62 -95 113 -117 205 l-18 74 -66 11 c-83 14 -137 45 -211 123 -60 63 -87 111 -87 157 l0 26 93 -7 c59 -4 109 -3 134 4 61 17 132 69 181 134 56 74 75 75 149 5z"/>
 </g>
<g id="layer105" fill="#fffbc4" stroke="none">
 <path d="M2813 2820 c-57 -12 -128 -44 -164 -74 l-28 -24 89 -86 c50 -47 90 -92 90 -101 0 -32 -37 -12 -116 65 -45 44 -87 80 -93 80 -21 0 -70 -103 -81 -172 -18 -106 -15 -111 80 -126 84 -13 131 -7 193 25 40 20 106 82 123 115 36 70 82 69 157 -5 50 -49 82 -104 107 -187 10 -30 24 -58 31 -62 8 -4 45 -21 82 -38 123 -56 182 -135 194 -259 8 -83 20 -97 91 -103 145 -14 235 -106 261 -268 6 -35 16 -69 23 -75 7 -7 47 -17 89 -23 107 -16 258 -66 308 -103 80 -58 127 -204 97 -302 -20 -67 3 -46 39 35 53 117 43 252 -27 360 -58 92 -149 150 -266 170 l-70 12 -10 65 c-30 177 -157 304 -327 328 l-42 5 -10 57 c-16 83 -50 149 -108 206 -57 58 -123 92 -207 108 -50 9 -58 14 -58 33 0 43 -41 150 -75 197 -82 110 -242 174 -372 147z"/>
 <path d="M2004 2420 c-33 -11 -77 -34 -98 -53 l-39 -33 87 -78 c83 -76 107 -116 69 -116 -10 0 -55 37 -100 82 -94 94 -94 94 -138 -5 -20 -44 -30 -83 -33 -137 l-4 -75 28 -1 c16 0 62 -4 101 -9 69 -7 76 -6 137 24 59 29 113 78 159 145 55 80 193 -46 246 -223 18 -59 18 -59 103 -91 67 -26 141 -87 167 -139 20 -40 41 -126 41 -170 0 -39 16 -49 91 -60 145 -20 235 -112 254 -261 10 -82 25 -100 83 -100 58 0 219 -43 287 -77 66 -33 92 -58 123 -118 29 -58 41 -173 23 -227 l-11 -33 20 23 c64 76 84 245 41 354 -49 125 -182 225 -314 235 l-64 6 -5 62 c-14 163 -143 304 -306 335 -30 5 -57 12 -61 15 -5 2 -11 27 -14 55 -8 66 -59 160 -114 211 -54 50 -141 91 -204 97 l-47 4 -7 46 c-19 130 -97 237 -212 294 -85 41 -196 49 -289 18z"/>
 <path d="M1253 2062 c-55 -20 -133 -67 -133 -81 0 -4 38 -45 85 -90 47 -45 85 -88 85 -96 0 -32 -36 -12 -116 65 -46 44 -88 80 -93 80 -5 0 -24 -30 -42 -66 -27 -54 -33 -81 -37 -151 -3 -58 -1 -84 6 -79 5 3 44 1 85 -6 59 -9 84 -9 121 2 67 19 131 65 178 127 22 30 46 57 54 60 65 25 195 -124 222 -254 8 -40 6 -39 122 -93 36 -17 78 -43 93 -58 43 -41 76 -113 87 -194 6 -40 16 -78 23 -85 7 -7 43 -17 80 -22 76 -11 141 -44 182 -93 37 -44 52 -82 65 -164 6 -38 18 -76 26 -85 10 -11 38 -18 82 -22 86 -6 247 -58 308 -100 65 -43 105 -120 111 -214 4 -49 1 -79 -11 -108 -15 -37 -15 -38 0 -20 9 11 28 45 43 75 23 48 26 68 26 155 0 88 -3 107 -27 157 -55 119 -178 205 -304 216 l-64 5 0 31 c0 92 -56 214 -128 277 -47 42 -142 86 -201 94 l-48 7 -6 47 c-8 65 -46 147 -96 203 -45 50 -139 104 -200 113 -81 13 -78 11 -83 63 -11 113 -105 239 -216 290 -76 35 -202 41 -279 14z"/>
 </g>

</svg>