<?xml version="1.0" encoding="utf-8"?>
<!-- Generator: Adobe Illustrator 22.1.0, SVG Export Plug-In . SVG Version: 6.00 Build 0)  -->
<svg version="1.1" xmlns="http://www.w3.org/2000/svg" xmlns:xlink="http://www.w3.org/1999/xlink" x="0px" y="0px"
	 viewBox="0 0 219 199" style="enable-background:new 0 0 219 199;" xml:space="preserve">
<style type="text/css">
	.st0{fill:#FFFFFF;}
	.st1{fill:#3EBCC2;}
	.st2{fill:#595757;}
	.st3{fill:#69B32D;}
	.st4{fill:#5DAAD8;}
	.st5{fill:#EDA6C5;}
	.st6{fill:#0A9C91;}
	.st7{fill:none;stroke:#FFFFFF;stroke-width:0.4192;stroke-miterlimit:10;}
	.st8{opacity:0.1;}
	.st9{opacity:0.3;}
	.st10{fill:url(#SVGID_1_);}
	.st11{fill:#727272;}
	.st12{fill:#69B22D;}
	.st13{fill:#459543;}
	.st14{fill:#1B1B1B;}
	.st15{fill:#643231;}
	.st16{fill:none;stroke:#595757;stroke-width:0.8944;stroke-miterlimit:10;}
	.st17{fill:#A3A3A3;}
	.st18{fill:none;stroke:#A3A3A3;stroke-miterlimit:10;}
	.st19{fill:#E96447;}
	.st20{fill:#365FA8;}
	.st21{fill:#A961A0;}
	.st22{fill:#F1BC1B;}
	.st23{fill:#69B42D;}
	.st24{fill:#EDA6C5;stroke:#E5A2BF;stroke-width:1.5;stroke-linecap:round;stroke-linejoin:round;stroke-miterlimit:10;}
	.st25{fill:none;stroke:#FFFFFF;stroke-width:8;stroke-miterlimit:10;}
	.st26{fill:none;stroke:#FFFFFF;stroke-width:8;stroke-linecap:round;stroke-linejoin:round;stroke-miterlimit:10;}
	.st27{fill:#0A9D92;stroke:#11968C;stroke-width:1.1728;stroke-linejoin:round;stroke-miterlimit:10;}
</style>
<g id="レイヤー_2">
</g>
<g id="レイヤー_1">
	<g>
		<g>
			<path class="st2" d="M58.6,156.3c-0.3,0-0.5-0.2-0.6-0.5l-6.8-33.2c-0.1-0.3,0.1-0.5,0.4-0.5h5.7c0.3,0,0.5,0.2,0.6,0.5l3.5,21.6
				h0.2l3.3-21.6c0.1-0.4,0.3-0.5,0.6-0.5H71c0.4,0,0.5,0.2,0.4,0.5l-6.8,33.2c-0.1,0.3-0.2,0.5-0.5,0.5H58.6z"/>
			<path class="st2" d="M76.2,122.6c0-0.3,0.2-0.5,0.5-0.5h14.9c0.3,0,0.5,0.2,0.5,0.5v4.9c0,0.3-0.2,0.5-0.5,0.5h-8.5
				c-0.2,0-0.3,0.1-0.3,0.3v7.4c0,0.2,0.1,0.3,0.3,0.3h7.4c0.3,0,0.5,0.2,0.5,0.5v4.9c0,0.3-0.2,0.5-0.5,0.5h-7.4
				c-0.2,0-0.3,0.1-0.3,0.3v7.7c0,0.2,0.1,0.3,0.3,0.3h8.5c0.3,0,0.5,0.2,0.5,0.5v4.9c0,0.3-0.2,0.5-0.5,0.5H76.7
				c-0.3,0-0.5-0.2-0.5-0.5V122.6z"/>
			<path class="st2" d="M96.8,139.2c0-8.8,0.2-10.2,0.7-11.8c1.3-3.7,4.2-5.7,8.8-5.7c5.5,0,8.7,3,9.2,8.5c0.1,0.3-0.1,0.6-0.4,0.6
				l-5.3,0.9c-0.3,0-0.5-0.1-0.6-0.5c-0.2-2.5-1.2-3.6-2.9-3.6c-1.2,0-2.2,0.7-2.5,1.6c-0.3,0.8-0.3,1.2-0.3,10
				c0,8.7,0.1,9.2,0.3,10c0.3,1,1.4,1.7,2.6,1.7c1.3,0,2.3-0.7,2.6-1.7c0.2-0.7,0.3-1.2,0.3-6.2c0-0.2-0.1-0.3-0.3-0.3h-2.2
				c-0.3,0-0.5-0.2-0.5-0.5v-4.4c0-0.3,0.2-0.5,0.5-0.5h8.3c0.3,0,0.5,0.2,0.5,0.5v1.5c0,8.8-0.2,10.2-0.7,11.8
				c-1.3,3.8-4.2,5.8-8.7,5.8c-4.6,0-7.5-2-8.8-5.7C97,149.4,96.8,148,96.8,139.2z"/>
			<path class="st2" d="M126.8,122.6c0.1-0.3,0.3-0.5,0.6-0.5h5.9c0.3,0,0.5,0.2,0.6,0.5l7.3,33.2c0.1,0.3-0.1,0.5-0.4,0.5h-5.6
				c-0.4,0-0.5-0.2-0.6-0.5l-1.1-6.2H127l-1.2,6.2c-0.1,0.3-0.2,0.5-0.6,0.5h-5.6c-0.3,0-0.5-0.2-0.4-0.5L126.8,122.6z M132.5,144.4
				l-2.2-11.9h-0.2l-2.3,11.9H132.5z"/>
			<path class="st2" d="M145.8,122.6c0-0.3,0.2-0.5,0.5-0.5h6.3c0.4,0,0.6,0.2,0.7,0.5l5.7,21.5h0.3v-21.5c0-0.3,0.2-0.5,0.5-0.5
				h4.8c0.3,0,0.5,0.2,0.5,0.5v33.2c0,0.3-0.2,0.5-0.5,0.5h-6c-0.4,0-0.6-0.2-0.7-0.5l-5.9-21.5h-0.3v21.5c0,0.3-0.2,0.5-0.5,0.5
				h-4.8c-0.3,0-0.5-0.2-0.5-0.5V122.6z"/>
			<path class="st2" d="M0.4,164.7c0-0.3,0.2-0.5,0.5-0.5h5.6c0.3,0,0.5,0.2,0.5,0.5v33.2c0,0.3-0.2,0.5-0.5,0.5H0.9
				c-0.3,0-0.5-0.2-0.5-0.5V164.7z"/>
			<path class="st2" d="M12.9,164.7c0-0.3,0.2-0.5,0.5-0.5h6.3c0.4,0,0.6,0.2,0.7,0.5l5.7,21.5h0.3v-21.5c0-0.3,0.2-0.5,0.5-0.5h4.8
				c0.3,0,0.5,0.2,0.5,0.5v33.2c0,0.3-0.2,0.5-0.5,0.5h-6c-0.4,0-0.6-0.2-0.7-0.5l-5.9-21.5h-0.3v21.5c0,0.3-0.2,0.5-0.5,0.5h-4.8
				c-0.3,0-0.5-0.2-0.5-0.5V164.7z"/>
			<path class="st2" d="M50,181.3c0-8.8,0.2-10.4,0.7-11.9c1.2-3.7,4-5.7,8.5-5.7c5.5,0,8.7,2.9,9,8.6c0,0.3-0.1,0.6-0.5,0.6
				l-5.3,0.9c-0.3,0.1-0.6-0.1-0.6-0.5c-0.1-2.7-1-3.8-2.6-3.8c-1.2,0-1.9,0.5-2.3,1.6c-0.2,0.8-0.3,1.4-0.3,10.1
				c0,8.7,0.1,9.3,0.3,10.1c0.4,1.1,1.1,1.6,2.3,1.6c1.7,0,2.5-1.1,2.6-3.8c0-0.4,0.3-0.5,0.6-0.5l5.3,0.9c0.4,0.1,0.5,0.3,0.5,0.6
				c-0.3,5.7-3.5,8.6-9,8.6c-4.5,0-7.3-2-8.5-5.7C50.2,191.7,50,190.2,50,181.3z"/>
			<path class="st2" d="M73.4,193.1c-0.6-1.6-0.7-3-0.7-11.8c0-8.8,0.2-10.2,0.7-11.8c1.3-3.8,4.3-5.8,8.7-5.8s7.5,2,8.7,5.8
				c0.6,1.6,0.7,3,0.7,11.8c0,8.8-0.2,10.2-0.7,11.8c-1.3,3.8-4.3,5.8-8.7,5.8S74.7,196.8,73.4,193.1z M84.6,191.3
				c0.3-0.8,0.4-1.7,0.4-10s-0.1-9.2-0.4-10c-0.3-1-1.2-1.7-2.4-1.7s-2.1,0.7-2.4,1.7c-0.3,0.8-0.4,1.7-0.4,10s0.1,9.2,0.4,10
				c0.3,1,1.2,1.7,2.4,1.7S84.3,192.2,84.6,191.3z"/>
			<path class="st2" d="M97.1,164.7c0-0.3,0.2-0.5,0.5-0.5h5.4c0.5,0,0.7,0.2,0.8,0.5l5.2,17.9h0.2l5-17.9c0.1-0.4,0.4-0.5,0.8-0.5
				h5.4c0.3,0,0.5,0.2,0.5,0.5v33.2c0,0.3-0.2,0.5-0.5,0.5h-4.9c-0.3,0-0.5-0.2-0.5-0.5v-19.8h-0.3l-3.7,13.7
				c-0.1,0.3-0.3,0.5-0.7,0.5h-2.8c-0.4,0-0.6-0.2-0.7-0.5l-3.7-13.7H103v19.8c0,0.3-0.2,0.5-0.5,0.5h-4.9c-0.3,0-0.5-0.2-0.5-0.5
				V164.7z"/>
			<path class="st2" d="M126.9,164.7c0-0.3,0.2-0.5,0.5-0.5h8.6c6.3,0,9.2,2.9,9.2,8.9c0,4.2-1.4,6.3-3.9,7.4v0.1
				c2.5,0.8,4.3,3.2,4.3,7.7c0,7.5-3.4,10.1-10.1,10.1h-8.1c-0.3,0-0.5-0.2-0.5-0.5V164.7z M135.2,178.2c2.6,0,3.4-0.9,3.4-4.2
				c0-3.3-0.8-4.2-3.4-4.2h-1.5c-0.2,0-0.3,0.1-0.3,0.3v7.8c0,0.2,0.1,0.3,0.3,0.3H135.2z M133.8,192.8h1.5c2.8,0,3.7-1.1,3.7-4.7
				c0-3.6-1-4.6-3.7-4.6h-1.5c-0.2,0-0.3,0.1-0.3,0.3v8.7C133.5,192.7,133.6,192.8,133.8,192.8z"/>
			<path class="st2" d="M150.7,164.7c0-0.3,0.2-0.5,0.5-0.5h5.6c0.3,0,0.5,0.2,0.5,0.5v33.2c0,0.3-0.2,0.5-0.5,0.5h-5.6
				c-0.3,0-0.5-0.2-0.5-0.5V164.7z"/>
			<path class="st2" d="M163.1,164.7c0-0.3,0.2-0.5,0.5-0.5h6.3c0.4,0,0.6,0.2,0.7,0.5l5.7,21.5h0.3v-21.5c0-0.3,0.2-0.5,0.5-0.5
				h4.8c0.3,0,0.5,0.2,0.5,0.5v33.2c0,0.3-0.2,0.5-0.5,0.5h-6c-0.4,0-0.6-0.2-0.7-0.5l-5.9-21.5h-0.3v21.5c0,0.3-0.2,0.5-0.5,0.5
				h-4.8c-0.3,0-0.5-0.2-0.5-0.5V164.7z"/>
			<path class="st2" d="M188.2,164.7c0-0.3,0.2-0.5,0.5-0.5h5.6c0.3,0,0.5,0.2,0.5,0.5v33.2c0,0.3-0.2,0.5-0.5,0.5h-5.6
				c-0.3,0-0.5-0.2-0.5-0.5V164.7z"/>
			<path class="st2" d="M209.1,198.9c-6.2,0-9.2-3.3-9.3-9.2c0-0.3,0.1-0.5,0.4-0.6l5.4-0.9c0.4-0.1,0.6,0.1,0.6,0.4
				c0.1,3.2,1,4.4,3,4.4c1.9,0,2.7-1,2.7-4.1c0-3-0.6-4.1-3.2-5.1l-2.1-0.8c-4.8-1.9-6.5-4.4-6.5-9.9c0-6.2,3-9.5,9-9.5
				c6,0,8.8,3.1,9.1,8.5c0,0.3-0.2,0.5-0.5,0.6l-5.1,0.8c-0.3,0.1-0.6-0.1-0.6-0.4c-0.1-2.5-0.9-3.7-2.7-3.7c-1.8,0-2.6,1.1-2.6,3.4
				c0,2.6,0.6,3.4,3.2,4.4l2.1,0.8c4.7,1.8,6.5,4.3,6.5,10.1C218.6,195.2,215.9,198.9,209.1,198.9z"/>
		</g>
	</g>
	<circle class="st5" cx="109.5" cy="52.5" r="52.4"/>
	<path class="st0" d="M144.8,69.3c-0.2,0.6-0.3,1.3-0.5,1.9c-0.1,0.2-0.2,0.3-0.3,0.5c-0.1,0.2-0.3,0.5-0.3,0.7c0.2,1.2,0,1.6-1.1,2
		c0.1,0.3,0.2,0.5,0.4,0.8c0.4-0.1,0.7-0.2,1-0.4c-0.1,0.3-0.2,0.6-0.4,1c0.8-0.2,1.4-0.3,2.1-0.5c-0.4,1.5-0.7,2.7-1,3.9
		c0.1,0,0.2,0.1,0.3,0.1c0.5-0.8,1.1-1.5,1.6-2.3c1.7-2.9,2.8-6.1,2.9-9.5c0-2.6-0.7-5.1-1.6-7.6c-0.1-0.2-0.5-0.3-0.8-0.5
		c0.1-0.2,0.2-0.6,0.4-1.1c1.1,2.6,2.1,5.1,2.3,7.9c0.3,4.5-1.1,8.6-3.5,12.2c-2.1,3.1-5.1,5.2-8.8,6c-1.2,0.2-2.4,0.2-3.6,0.3
		c-1.8,0.1-3.6,0.2-5.4,0.3c-2.1,0.1-4.1-0.1-5.9-1.3c-2.5-1.6-4.5-3.5-6.2-5.9c-2.1-3.1-3.5-6.5-3.6-10.3c-0.1-1.8,0-3.8,0.5-5.5
		c0.6-1.9,1.7-3.7,2.9-5.4c0.9-1.4,2.1-2.6,3.3-3.7c0.9-0.8,2-1.4,3.1-2c2.9-1.5,5.9-2.5,9.1-2.2c0.8,0.1,1.7,0,2.5,0.3
		c2.4,0.9,4.7,1.8,6.9,2.9c0.9,0.4,1.9,0.9,2.3,2c0,0.1,0.3,0.1,0.5,0.2c0.2,0.1,0.5,0.3,0.7,0.5c0.2,0.4,0.3,0.9,0.6,1.2
		c0.9,1.2,1.4,2.6,1.5,4.1c0,0.2,0.2,0.5,0.3,0.6c1.2,0.6,1.1,1.8,1.2,2.9c0.2,1.3,0.1,2.6,0.1,3.8c0,0-0.1-0.1-0.3-0.2
		c-0.3,0.8-0.5,1.5-0.8,2.4c-0.2-1-0.3-1.9-0.4-2.8c-0.1,0-0.2,0-0.3,0c-0.1,1.2,0.3,2.5-0.2,3.6C145.8,69.9,145.3,69.6,144.8,69.3
		c0.5-0.7,0.7-1.4,0.4-2.4c-0.3,0.7-0.5,1.3-0.7,1.9C144.4,68.9,144.7,69.1,144.8,69.3z M135,66.6c0-1.8-0.6-2.9-1.8-2.9
		c-1,0-2.1,0.1-3,0.4c-1.6,0.5-2.5,1.9-2.4,3.4c0,1.4,1.2,2.6,2.7,3.3c1.1,0.5,1.6,0.3,2.4-0.5C134.3,69.3,135.2,68,135,66.6z
		 M124.4,61.4c0.8,0.7,0.8,0.9-0.2,1.4c-0.3,0.1-0.6,0.4-0.8,0.6c-0.2,0.2-0.3,0.6-0.5,0.8c-0.2,0.3-0.5,0.6-0.8,0.9
		c0.1,0,0.2,0,0.3,0c0.1,0.4,0.2,1.1,0.1,1.1c-1.1,0.5-0.6,1.6-1.3,2.3c0.4,0.2,0.6,0.4,1,0.7c0.2-0.2,0.3-0.4,0.5-0.6
		c-0.3-0.1-0.5-0.2-0.5-0.2c0.3-0.3,0.7-0.6,0.8-1c0.2-0.9,0.8-1.4,1.9-1.3c-0.4-0.8-0.1-1.7,0.5-1.9c0.9-0.5,0.9-1.2,1-1.6
		c0.8-0.4,1.4-0.7,2-1.1c0-0.1-0.1-0.3-0.1-0.4c-0.6,0-1.2-0.1-1.8-0.1c0,0.8-0.6,0.8-1.1,1c0-0.3,0-0.5,0.1-0.7
		C125.1,61.4,124.8,61.4,124.4,61.4z M124,60.3c0,0.1-0.1,0.1-0.1,0.2c0.3,0.2,0.8,0.6,0.9,0.5c0.8-0.5,1.8-0.5,2.4-1.2
		c0.5-0.5,0.5-0.9-0.1-1.2c-0.3-0.2-0.7-0.3-1.2-0.4c0,0.8,0.1,1.6-0.9,1.8c0-0.3,0-0.6-0.1-0.8c-0.1-0.2-0.6-0.4-0.6-0.4
		c-0.3,0.5-0.6,0.9-1,1.6C123.7,60.4,123.8,60.4,124,60.3z M126.5,57.6c0.1,0.1,0.3,0.3,0.5,0.5c0.2-0.2,0.4-0.4,0.5-0.7
		c0.2-0.6,0.5-0.8,1.1-0.5c0.7,0.3,1.4,0.2,2.1,0c0.9-0.3,0.6-0.5,0.1-1.1c0.5-0.1,0.9-0.2,1.4-0.3c0-0.1,0-0.2,0-0.2
		c-0.4-0.1-0.9-0.2-1.4-0.3c-0.1,0.9-0.6,1.4-1.5,1.4c-0.1-0.2-0.3-0.5-0.3-0.5c-0.7,0.3-1.3,0.5-1.9,0.8
		C127,56.8,126.8,57.1,126.5,57.6z M141.4,77.4c0.2,0.4,0.4,0.7,0.6,1.1c-0.1,0.1-0.2,0.1-0.3,0.2c-0.2-0.3-0.4-0.7-0.7-1
		c-0.1-0.2-0.3-0.2-0.5-0.3c-0.1,0.2-0.3,0.4-0.3,0.5c0.1,0.3,0.3,0.7,0.5,0.8c0.6,0.3,1.2,0.5,1.8,0.7c0.9-0.5,0.3-1.1,0-1.6
		C142.4,77.4,142,77,141.4,77.4z M145.2,61.4c0.1,0.4,0.3,0.8,0.4,1.2c0.1,0.6,0.2,1.2,0.4,1.7c0.2,0.5,0.4,1,0.6,1.7
		C147.3,65,146.6,62.6,145.2,61.4z M118.9,61.7c-0.1,0-0.1-0.1-0.2-0.1c-0.5,0.3-1.1,0.6-1.5,1c-0.2,0.1,0,0.6,0,0.9
		c0.3,0,0.7,0.1,0.8,0C118.3,62.9,118.6,62.3,118.9,61.7z M142.8,81.1c-1-0.3-1.5,0.3-2,1.1C141.5,82.3,142.3,81.9,142.8,81.1z
		 M116.9,69.5c0.2-0.2,0.4-0.5,0.7-0.7c-0.3-0.3-0.7-0.6-1-0.9C116.1,68.5,116,69.1,116.9,69.5z M132.5,59.2c-0.4-0.2-0.7-0.4-1-0.7
		c0.3,0.5-0.7,1.6,0.7,1.5C132.3,59.7,132.4,59.4,132.5,59.2z M134.5,56.5c-0.2,0.6-0.4,0.9-0.5,1.2c0,0.2,0.2,0.4,0.3,0.6
		c0.2-0.4,0.5-0.7,0.6-1.1C134.9,57,134.7,56.7,134.5,56.5z M144.3,76c-0.4,0.5-0.8,0.8-1.1,1.3c-0.1,0.1,0.1,0.4,0.2,0.5
		c0.2-0.1,0.5-0.2,0.6-0.3C144.2,77.1,144.2,76.7,144.3,76z M118.8,71.8c-0.8,1.4-0.8,1.4-0.2,1.9C118.7,73,118.8,72.4,118.8,71.8z
		 M130.3,58.9c0.2-0.9-0.3-1.3-1.3-1C129.4,58.2,129.8,58.5,130.3,58.9z M144.5,79.7c-0.1-0.1-0.3-0.2-0.4-0.3
		c-0.2,0.4-0.5,0.7-0.7,1.1c0.1,0.1,0.2,0.1,0.3,0.2C143.9,80.3,144.2,80,144.5,79.7z"/>
	<g>
		<path class="st0" d="M106,46.1c-0.3-0.2-0.6-0.5-0.9-0.7c0.7-0.2,0.6-0.7,0.4-1.3c-0.6-1.2-1.1-2.4-1-3.7c0.1-1,0.3-1.9,0.7-2.9
			c0.3-0.8,0.3-1.2-0.4-1.5c0.2-0.2,0.4-0.5,0.5-0.7c0.6,0.4,1,0.2,1.4-0.6c0.4-0.6,0.9-1.3,1.4-1.6c0.6-0.4,1.3-0.5,2.1-0.7
			c0.8-0.2,1-0.6,0.8-1.3c0.4-0.7,1.2-0.6,1.8-0.8c0,0.8,0.2,1,1,0.7c0.7-0.3,1.3-0.5,2-0.2c1.2,0.6,2.5,1.1,3.7,1.9
			c2.5,1.5,3.1,3.8,3,6.5c-0.4,0-0.7,0.1-1.1,0.1c-1.8,0.2-3.5,0.8-5,1.8c-0.5,0.4-1.1,0.9-1.3,1.4c-0.5,1.4-0.9,2.8-1.3,4.2
			c-0.1,0.3,0.1,0.7,0.2,1.1c-0.2,0.2-0.3,0.5-0.5,0.7c-0.1,0.1-0.4,0.2-0.5,0.2c-0.1,0-0.2-0.3-0.3-0.4c-0.1-0.2,0-0.5-0.1-0.7
			c-0.1,0-0.1,0-0.2-0.1c-0.2,0.2-0.3,0.4-0.5,0.6c-0.2,0.1-0.5,0.3-0.7,0.3c-0.1,0-0.2-0.4-0.3-0.6c0-0.2,0-0.4,0-0.8
			c-0.4,0.4-0.7,0.6-1,0.9c-0.2-0.3-0.5-0.6-0.7-1c-1,0.5-1.1,0.4-1.7-0.6C107.2,45.8,106.7,45.7,106,46.1z"/>
		<path class="st0" d="M87.2,19.7c0.3-0.1,0.6-0.2,1-0.3c0.4,0.7,0.8,0.8,1.7,0.3c0.8-0.5,1.7-0.6,2.5-0.3c0.9,0.3,1.8,0.6,2.8,0.9
			c0.3,0.1,0.7,0.3,0.9-0.2c0.1,0,0.2,0.1,0.4,0.1c0,0.4,0.2,0.6,0.5,0.8c1.2,0.8,2.3,1.8,2.6,3.4c-0.9,0.3-1.8,0.5-2.7,0.8
			c-2.1,0.7-3.6,2.2-4.3,4.1c-1,2.8-1.6,5.6-1,8.6c-1.3-0.3-2.6-0.5-3.9-0.9c-1-0.3-1-0.4-0.8-1.4c0,0,0-0.1-0.2-0.5
			c-0.2,0.2-0.3,0.4-0.5,0.6c-0.1,0.1-0.4,0.1-0.7,0.1c0.3-0.4,0.4-0.7,0.6-1c-0.6-0.3-1.3,0.9-1.7-0.2c0.2-0.2,0.4-0.4,0.6-0.6
			c-0.3-0.1-0.5-0.1-0.7,0c-0.4,0.3-0.7,0-0.9-0.3c-0.2-0.3-0.4-0.6,0-1c0.2-0.2,0.3-0.4,0.5-0.7c-0.1,0-0.1-0.1-0.2-0.1
			c-0.3,0.1-0.6,0.3-0.9,0.4c-0.7-1,0.8-1.1,0.6-1.9c-0.4,0.1-0.7,0.3-1,0.4c0,0-0.1-0.1-0.1-0.1c0.3-0.4,0.6-0.8,0.9-1.2
			c0,0-0.1-0.1-0.1-0.1c-0.3,0.1-0.5,0.2-0.8,0.2c0-0.1-0.1-0.1-0.1-0.2c0.4-0.4,0.8-0.8,1.2-1.2c0-0.1-0.1-0.1-0.1-0.2
			c-0.3,0.1-0.6,0.2-1.2,0.3c0.2-0.8,0.4-1.5,0.6-2.1c0.7-2,1.6-3.8,3.4-4.9C86.5,21.1,87.3,20.6,87.2,19.7z"/>
		<path class="st0" d="M133.4,26.4c0.3,0.3,0.6,0.5,0.9,0.8c-0.3,0.1-0.5,0.1-0.8,0.2c0.1,0.3,0.1,0.7,0.3,1
			c1.1,1.3,1.3,2.7,1.1,4.3c-0.5-0.1-1.1-0.4-1.6-0.4c-1.8,0-3.4,0.8-4.8,1.9c-0.9,0.7-1.6,1.5-2,2.6c-0.4,1.2-0.9,2.4-2.5,2.7
			c0-1.6-0.3-3.1-1-4.5c-0.2-0.3-0.2-0.7-0.4-1c-0.2-0.1-0.5-0.3-0.5-0.5c0-0.3,0.2-0.6,0.3-1c-0.5,0.2-0.7,0.4-1.2,0.6
			c0.2-0.6,0.4-1.1,0.6-1.5c-0.1,0-0.1-0.1-0.2-0.1c-0.2,0.1-0.5,0.3-0.6,0.5c-0.3,0.3-0.5,0.4-0.9,0.1c-0.5-0.4-1.1-0.6-1.6-0.9
			c-0.2-0.1-0.4-0.3-0.5-0.5c-0.4-0.8,0.1-2.2,0.9-2.8c0.3-0.2,0.5-0.6,0.5-0.9c0-0.2-0.4-0.5-0.5-0.7c0.7-0.6,1.3-1.3,2-1.9
			c0.4-0.3,0.9-0.4,1.3-0.6c0.5,0.7,1.3,0.8,2.1,0.3c0.6-0.5,1.3-0.6,2-0.5c0.9,0.1,1.7,0.3,2.6,0.5c1.1,0.2,1.9,0.8,2.6,1.6
			C132.1,26.4,132.5,26.7,133.4,26.4z M121.7,24.9c-0.4,0.3-0.8,0.4-0.9,0.7c-0.1,0.2,0.2,0.5,0.3,0.7c0.2-0.1,0.6-0.2,0.7-0.4
			C121.9,25.7,121.7,25.4,121.7,24.9z"/>
		<path class="st0" d="M102,13.4c0.5-0.2,0.9-0.3,1.4-0.5c-0.2,0.5,0,0.8,0.5,0.7c1.4-0.4,2.9-0.4,4.3-0.1c1.7,0.4,3.1,1.1,3.7,2.9
			c-0.9,0.5-2,0.8-2.8,1.5c-1.5,1.1-2.4,2.6-3.5,4.1c-0.7,1-1.4,2.1-2.9,2c-0.4,0-0.9,0.2-1.4,0.2c0-0.2,0.1-0.5,0.1-0.7
			c0.1-0.3,0.2-0.5,0.3-0.7c-0.1-0.1-0.2-0.2-0.3-0.3c-0.3,0.2-0.5,0.5-0.8,0.7c0,0-0.1-0.1-0.1-0.1c0.2-0.4,0.3-0.7,0.5-1.1
			c-0.1,0-0.1,0-0.2-0.1c-0.3,0.1-0.6,0.3-1.1,0.5c0.2-0.6,0.4-0.9,0.5-1.3c0-0.1,0-0.2-0.1-0.2c-0.9,1-1.3,0.2-1.8-0.2
			c-0.4-0.3-0.9-0.5-1.3-0.7c0.1-0.1,0.1-0.3,0.2-0.4c1,0.4,1.3,0.2,1.5-0.8c0.1-0.5,0.1-1,0.3-1.5c0.6-1.3,1.3-2.6,2.8-3.2
			C102.2,13.9,102.3,13.7,102,13.4z"/>
		<path class="st0" d="M124.1,39.5c1.5-0.3,2.1-1.5,2.5-2.7c0.4-1.1,1.1-1.9,2-2.6c1.4-1.1,3-1.9,4.8-1.9c0.5,0,1.1,0.2,1.6,0.4
			c-0.2,0.5-0.3,1-0.5,1.4c-0.3,0.8,0,1.2,0.8,1.1c-0.1,0.3-0.2,0.5-0.2,0.8c-0.4-0.5-0.9-0.6-1.3-0.1c-0.1,0-0.2-0.1-0.3-0.1
			c0-0.6-0.3-0.8-0.8-0.6c-0.6,0.3-1.2,0.8-1.7,1.2c-0.6,0.4-0.5,1-0.2,1.5c0.3,0.5,0.8,0.4,1.2,0.1c0.1,0,0.1,0.1,0.2,0.1
			c0.1,0.6,0.2,1.1,0.3,1.7c0,0,0,0.1-0.1,0.1c-0.5,0.1-1,0.1-1.5,0.2c-0.1-0.1-0.2-0.2-0.3-0.3c-1.3,0.9-1.3,0.9-1.8,0.1
			c-0.3,0.3-0.6,0.6-0.9,0.9c-0.1-0.3-0.1-0.6-0.2-0.9c-0.4,0.4-0.7,0.7-1,1c0,0-0.1-0.1-0.1-0.1c0-0.3,0.1-0.6,0.1-0.8
			c-0.4,0-0.7,0-1.1-0.1c-0.7-0.2-1.2,0-1.5,0.5C124.1,40.1,124.1,39.8,124.1,39.5z"/>
		<path class="st0" d="M114,47.9c-0.1-0.4-0.3-0.8-0.2-1.1c0.4-1.4,0.8-2.8,1.3-4.2c0.2-0.6,0.8-1.1,1.3-1.4c1.5-1.1,3.2-1.6,5-1.8
			c0.4,0,0.7-0.1,1.1-0.1c0,0.2,0,0.4-0.1,0.6c-0.2,0.7,0,1.1,0.7,1.2c-0.1,0.3-0.1,0.5-0.2,0.8c-0.7,0-1.1,0.4-1,1.1
			c0,0.2,0,0.4,0,0.6c-0.3-0.2-0.5-0.3-0.8-0.5c0.1-0.8-0.1-1-0.9-1c-1.6,0-2.5,1.3-2.1,2.8c0.1,0.6,0.4,0.7,1,0.5
			c0.1,0,0.2,0.1,0.3,0.1c0.1,0.3,0.3,0.7,0.4,0.9c-0.4,0.2-1,0.2-1.2,0.5c-1,1.2-2.5,1.3-3.8,1.9c-0.1,0-0.1,0-0.1,0
			C114.4,48.4,114.2,48.2,114,47.9z"/>
		<path class="st0" d="M119.5,45.3c-0.1,0-0.2-0.1-0.3-0.1c0-0.4-0.1-0.7-0.1-1.1c0-0.3,0.1-0.7,0.3-1c0.1-0.2,0.5-0.1,0.8-0.1
			c0.3,0,0.6-0.1,1-0.1c0.3,0.2,0.5,0.3,0.8,0.5c-0.3,0.6,0.1,0.9,0.5,1.1c1.1,0.6,2.2,1.1,3.3,1.8c3.2,1.9,6.4,3.9,9.5,5.8
			c0.5,0.3,0.9,0.4,1.4,0c0.1,0,0.2,0.1,0.2,0.1c-0.3,0.5,0.1,0.9,0.5,1.1c0.3,0.2,0.6,0.3,0.9,0.4c0.6,0.3,0.7,0.9,0.1,1.4
			c0-0.1-0.1-0.2-0.1-0.3c-0.1-0.2-0.2-0.5-0.4-0.7c-0.2,0.2-0.4,0.4-0.6,0.5c-0.2,0.1-0.5,0.2-0.7,0.1c-0.7-0.4-1.4-0.8-2.1-1.2
			c-0.3-0.2-0.5-0.8-0.8-0.7c-0.6,0.1-0.7-0.4-0.9-0.6c-0.4,0-0.9,0-1.1-0.2c-0.3-0.3-0.4-0.5-0.8-0.5c-0.1,0-0.3-0.3-0.4-0.4
			c-0.1-0.2-0.1-0.4-0.1-0.6c-0.7,0.3-0.7,0.3-1.2-0.2c0,0-0.1-0.1-0.2-0.1c-0.8,0.1-1.2-0.2-1.3-0.8c-0.5-0.1-0.9,0-1.1-0.2
			c-0.3-0.2-0.4-0.6-0.6-0.9c-0.9,0.3-1.2,0.1-1.6-0.7c-0.1-0.1-0.3-0.2-0.5-0.2c-0.6,0.2-0.9,0-0.9-0.6c0-0.1-0.1-0.2-0.2-0.4
			c-0.6,0.6-1.1,0-1.5-0.2c-0.1,0-0.2-0.1-0.4-0.1c0-0.1-0.1-0.1-0.1-0.2c-0.3-0.1-0.5-0.2-0.8-0.4
			C119.7,45.3,119.6,45.3,119.5,45.3L119.5,45.3z"/>
		<path class="st0" d="M132.2,38c-0.1,0-0.1-0.1-0.2-0.1c0-0.3,0.1-0.7,0-1c-0.1-0.6,0.2-1,0.8-1c0.2,0,0.4-0.1,0.6-0.1
			c0.1,0,0.2,0.1,0.3,0.1c-0.4,0.4-0.3,0.7,0.1,1c0.5,0.3,1,0.6,1.4,0.9c3.4,2.5,6.9,4.9,10.3,7.4c0.2,0.1,0.4,0.4,0.4,0.7
			c0,0.5,0.2,0.7,0.8,0.7c0.1,0,0.3,0.1,0.6,0.1c-0.4,0.3-0.6,0.6-0.9,0.8c-0.1,0-0.2,0-0.3,0c0.1-0.6-0.3-0.8-0.7-1
			c-0.6-0.2-1.2-0.5-1.2-1.4c-0.8,0.4-1.2,0.2-1.2-0.7c-0.3,0-0.5,0-0.8,0.1c0-0.3,0-0.6,0-0.9c-1.1,0.5-1.9,0-2-1.1
			c-1.2,0.1-1.1-0.2-1.2-1c-0.2,0-0.4,0-0.5,0.1c-0.1-0.2-0.1-0.5-0.2-0.7c-0.3,0.2-0.5,0.3-0.8,0.4c-0.1-0.3-0.1-0.6-0.2-0.7
			c-0.4-0.1-0.8-0.1-1-0.3c-0.9-0.6-1.7-1.3-2.7-1.9C133.2,38.1,132.7,38.1,132.2,38z"/>
		<path class="st0" d="M113.6,16.7c-0.5,0.2-1,0.3-1.4,0.5c-0.5,0.2-0.6,0.5-0.3,1c-0.2,0.2-0.5,0.4-0.7,0.5c-0.7-0.3-0.8-0.2-1,0.5
			c-0.2,0.2-0.3,0.4-0.5,0.5c-1-0.3-1.2-0.1-1.1,1c-0.1,0-0.1,0.1-0.2,0.1c-0.5-0.2-0.9,0-1.1,0.4c-0.5,0.8-0.9,1.7-1.3,2.6
			c-0.2,0.3-0.3,0.5-0.7,0.5c-1.1,0-2.2,0-3.3,0c-0.2,0-0.4-0.1-0.6-0.2c0.5-0.1,0.9-0.3,1.4-0.2c1.5,0.1,2.2-1.1,2.9-2
			c1.1-1.4,2-3,3.5-4.1c0.9-0.6,1.9-1,2.8-1.5c0.6,0.5,0.9,0.5,1.3-0.1C113.3,16.4,113.5,16.6,113.6,16.7z"/>
		<path class="st0" d="M118.9,26.3c-1.2,0.2-1.4,1.4-1.9,2.2c-0.3,0.5-0.3,1.1-0.5,1.6c-1.2,0.1-2.5-0.9-3.7,0.2
			c-0.7,0.1-1.4,0.1-1.8,0.8c-0.2,0-0.4-0.1-0.6-0.1c-1.9,0.8-3.8,1.5-4.8,3.4c-0.2,0.3-0.2,0.7-0.3,1c-0.2,0.2-0.4,0.5-0.5,0.7
			c-0.3,0.3-0.7,0.6-0.8,0.9c-0.4,1.6-1,3.1-0.8,4.8c0,0.2-0.3,0.6-0.5,0.6c-0.5,0.1-0.9,0-1.4,0c0-0.2,0-0.3,0-0.5
			c-0.1-1.9,0-3.7,1.1-5.3c0.3-0.4,0.5-0.9,0.6-1.3c0.5-1.7,1.7-2.9,3-4c1.3-1.1,2.8-2,4.4-2.5c0.2,0.3,0.4,0.7,0.7,1
			c0.4,0.5,0.9,0.4,1.2-0.1c0.2-0.3,0.4-0.5,0.6-0.8c1.4,0.3,2.1-0.5,2.8-1.5c1.1-1.5,2.2-3,3.8-4.1c0.9-0.7,1.8-1.3,3-1.5
			c-0.1,0.6-0.2,1.2-0.3,1.9c-0.4,0.2-0.9,0.3-1.3,0.6C120.3,25,119.6,25.7,118.9,26.3z"/>
		<path class="st0" d="M99.5,24.4c0.3,0.4,0.1,0.5-0.2,0.7c-0.4,0.2-0.7,0.4-0.6,1c-0.4,0.3-0.9,0.6-1.3,0.9c-0.5-0.6-1-0.2-1.3,0.1
			c-1.5,1.5-2.3,3.4-2.4,5.5c0,0.3,0.2,0.7,0.4,1c-0.1,0.2-0.1,0.3-0.2,0.5c-0.2,0.1-0.4,0.2-0.7,0.3c0.2,0.2,0.4,0.4,0.6,0.6
			c0,0.1,0,0.3-0.1,0.4c-1-0.1-0.8,0.7-0.9,1.2c-0.1,1-0.2,1.1-1.3,1.3c-0.5-3,0-5.9,1-8.6c0.7-2,2.3-3.4,4.3-4.1
			C97.7,24.9,98.6,24.6,99.5,24.4z"/>
		<path class="st0" d="M97.4,26.9c0.4-0.3,0.9-0.6,1.3-0.9c0.4,0.5,0.9,0.4,1.4,0.1c1.4-0.9,2.9-1,4.5-0.7c1.6,0.2,3,0.8,4.4,1.6
			c0.8,0.4,1.4,1,1.5,2c-1.7,0.5-3.1,1.4-4.4,2.5c-1.3,1.1-2.6,2.2-3,4c-0.1,0.5-0.4,0.9-0.6,1.3c-1,1.6-1.2,3.4-1.1,5.3
			c0,0.2,0,0.3,0,0.5c-0.2-0.2-0.3-0.4-0.5-0.6c-0.3,0.1-0.7,0.5-1,0.5c-0.8,0-0.1-0.7-0.4-1.2c-0.2,0.2-0.4,0.3-0.6,0.4
			c-0.2,0.3-0.6,0.4-0.8,0.2c-0.1-0.1-0.1-0.5-0.1-0.7c0-0.1,0-0.3,0-0.4c-0.5,0.2-0.9,0.3-1.3,0.5c-0.1-0.4-0.2-0.8-0.4-1.3
			c-0.1,0.1-0.3,0.2-0.4,0.3c-0.1,0.1-0.2,0.1-0.4,0.1c0-0.1-0.1-0.3-0.1-0.4c0.1-0.3,0.3-0.6,0.4-0.9c-0.1,0-0.1-0.1-0.2-0.1
			c-0.3,0.2-0.5,0.4-0.9,0.6c-0.6-0.8-1.1-1.6-1-2.6c0-0.4-0.1-0.9-0.1-1.4c0-0.1,0-0.3,0.1-0.4c0.7-0.2,0.4-0.6,0.1-0.9
			c0.1-0.2,0.1-0.3,0.2-0.5c0.5,0,0.6-0.3,0.6-0.7c-0.1-1.9,0.7-3.4,2.2-4.5C97.3,28,97.6,27.5,97.4,26.9z"/>
		<path class="st0" d="M122.6,22c-1.2,0.1-2.1,0.8-3,1.5c-1.5,1.1-2.7,2.6-3.8,4.1c-0.7,1-1.4,1.8-2.8,1.5c0.1-0.2,0.1-0.4,0.2-0.7
			c-0.1-0.1-0.1-0.2-0.2-0.2c-0.2,0.3-0.4,0.5-0.5,0.8c-0.1-0.1-0.2-0.2-0.3-0.3c0.1-0.4,0.3-0.7,0.5-1.3c-0.4,0.2-0.7,0.3-1.1,0.5
			c0-0.3,0-0.5,0-0.6c-0.5-0.2-0.9-0.4-1.3-0.7c-0.8-0.5-1.7-1.1-2.5-1.6c-0.7-0.4-0.4-1-0.3-1.4c0.2-0.6,0.6-1.1,0.8-1.6
			c0.1-0.3,0.2-0.6,0.2-0.8c0.1,0,0.1-0.1,0.2-0.1c0.6,0.3,0.8,0.2,1-0.4c0.1-0.2,0.1-0.5,0.1-0.7c0.2-0.2,0.3-0.4,0.5-0.5
			c0.3,0.1,0.6,0.1,0.9,0.2c0-0.2,0.1-0.5,0.1-0.7c0.2-0.2,0.5-0.4,0.7-0.5c0.4,0,0.9,0.1,1.1-0.1c1.6-1.3,3.3-1.2,5-0.5
			c1.8,0.7,3.6,1.5,4.4,3.5C122.5,21.4,122.5,21.7,122.6,22z"/>
		<g>
			<path class="st5" d="M87.2,19.7c0.1,0.9-0.7,1.4-1.2,1.8c-1.8,1.2-2.7,3-3.4,4.9c-0.2,0.6-0.4,1.3-0.6,2.1
				c0.5-0.1,0.9-0.2,1.2-0.3c0,0.1,0.1,0.1,0.1,0.2c-0.4,0.4-0.8,0.8-1.2,1.2c0,0.1,0.1,0.1,0.1,0.2c0.3-0.1,0.5-0.2,0.8-0.2
				c0,0,0.1,0.1,0.1,0.1c-0.3,0.4-0.6,0.8-0.9,1.2c0,0,0.1,0.1,0.1,0.1c0.3-0.1,0.7-0.3,1-0.4c0.2,0.8-1.3,1-0.6,1.9
				c0.3-0.1,0.6-0.3,0.9-0.4c0.1,0,0.1,0.1,0.2,0.1c-0.1,0.2-0.3,0.5-0.5,0.7c-0.4,0.3-0.2,0.6,0,1c0.2,0.3,0.4,0.6,0.9,0.3
				c0.2-0.1,0.4-0.1,0.7,0c-0.2,0.2-0.4,0.4-0.6,0.6c0.4,1.1,1.1-0.1,1.7,0.2c-0.2,0.3-0.3,0.6-0.6,1c0.3-0.1,0.5,0,0.7-0.1
				c0.2-0.1,0.3-0.4,0.5-0.6c0.2,0.4,0.2,0.4,0.2,0.5c-0.2,1-0.2,1.1,0.8,1.4c1.3,0.4,2.6,0.6,3.9,0.9c1-0.2,1.1-0.3,1.3-1.3
				c0.1-0.5-0.1-1.3,0.9-1.2c0.1,0.5,0.2,0.9,0.1,1.4c-0.1,1.1,0.3,1.9,1,2.6c0.3-0.2,0.6-0.4,0.9-0.6c0.1,0,0.1,0.1,0.2,0.1
				c-0.1,0.3-0.3,0.6-0.4,0.9c0,0.1,0,0.3,0.1,0.4c0.1,0,0.3,0,0.4-0.1c0.2-0.1,0.3-0.2,0.4-0.3c0.1,0.5,0.2,0.9,0.4,1.3
				c0.4-0.1,0.9-0.3,1.3-0.5c0,0.2,0,0.3,0,0.4c0,0.2,0,0.6,0.1,0.7c0.3,0.2,0.6,0.2,0.8-0.2c0.1-0.2,0.4-0.3,0.6-0.4
				c0.3,0.4-0.5,1.1,0.4,1.2c0.4,0,0.7-0.3,1-0.5c0.2,0.2,0.4,0.4,0.5,0.6c0.5,0,1,0.1,1.4,0c0.2,0,0.5-0.4,0.5-0.6
				c-0.1-1.7,0.5-3.2,0.8-4.8c0.1-0.4,0.5-0.6,0.8-0.9c0.6,0.3,0.6,0.6,0.4,1.5c-0.3,0.9-0.5,1.9-0.7,2.9c-0.1,1.3,0.4,2.5,1,3.7
				c0.3,0.5,0.3,1-0.4,1.3c-1.2,0-1.1-1.1-1.4-1.6c-1.2-0.1-2.5,0-3.6-0.3c-2.6-0.7-5-1.8-6.5-4.3c-0.4-0.6-1-0.6-1.6-0.6
				c-2.7,0.2-5.1-0.6-7.1-2.3c-3.2-2.7-4.2-6-3.1-10c0.7-2.6,2-4.7,4.1-6.4C86.3,19.5,86.7,19.4,87.2,19.7z"/>
			<path class="st5" d="M97.1,19.9c0.5,0.2,0.9,0.4,1.3,0.7c0.5,0.4,1,1.2,1.8,0.2c0,0.1,0,0.2,0.1,0.2c-0.1,0.4-0.3,0.7-0.5,1.3
				c0.5-0.2,0.8-0.4,1.1-0.5c0.1,0,0.1,0,0.2,0.1c-0.2,0.4-0.3,0.7-0.5,1.1c0,0,0.1,0.1,0.1,0.1c0.3-0.2,0.5-0.5,0.8-0.7
				c0.1,0.1,0.2,0.2,0.3,0.3c-0.1,0.2-0.3,0.5-0.3,0.7c-0.1,0.2-0.1,0.5-0.1,0.7c0.2,0.1,0.4,0.2,0.6,0.2c1.1,0,2.2,0,3.3,0
				c0.4,0,0.6-0.2,0.7-0.5c0.4-0.9,0.9-1.7,1.3-2.6c0.2-0.4,0.6-0.6,1.1-0.4c0,0,0,0.1,0.1,0.1c-0.1,0.3-0.1,0.6-0.2,0.8
				c-0.3,0.6-0.6,1.1-0.8,1.6c-0.2,0.5-0.4,1,0.3,1.4c0.9,0.5,1.7,1.1,2.5,1.6c0.4,0.2,0.8,0.4,1.3,0.7c0,0.1,0,0.3,0,0.6
				c0.4-0.2,0.7-0.3,1.1-0.5c-0.2,0.5-0.3,0.9-0.5,1.3c0.1,0.1,0.2,0.2,0.3,0.3c0.2-0.3,0.4-0.5,0.5-0.8c0.1,0.1,0.1,0.2,0.2,0.2
				c-0.1,0.2-0.1,0.4-0.2,0.7c-0.2,0.3-0.4,0.5-0.6,0.8c-0.3,0.5-0.8,0.6-1.2,0.1c-0.3-0.3-0.5-0.7-0.7-1c-0.2-0.9-0.8-1.5-1.5-2
				c-1.4-0.8-2.8-1.3-4.4-1.6c-1.6-0.2-3.1-0.1-4.5,0.7c-0.5,0.3-1,0.4-1.4-0.1c-0.2-0.5,0.1-0.8,0.6-1c0.3-0.1,0.5-0.3,0.2-0.7
				c-0.3-1.6-1.3-2.5-2.6-3.4c-0.3-0.2-0.5-0.4-0.5-0.8C96.7,20.1,96.9,20,97.1,19.9z"/>
			<path class="st5" d="M133.4,26.4c-0.9,0.2-1.3,0-1.9-0.7c-0.7-0.8-1.5-1.4-2.6-1.6c-0.9-0.2-1.7-0.4-2.6-0.5
				c-0.7-0.1-1.4,0-2,0.5c-0.8,0.6-1.6,0.4-2.1-0.3c0.1-0.6,0.2-1.2,0.3-1.9c-0.1-0.3-0.1-0.6-0.2-0.8c-0.8-2-2.6-2.8-4.4-3.5
				c-1.7-0.7-3.5-0.8-5,0.5c-0.2,0.2-0.7,0.1-1.1,0.1c-0.3-0.5-0.1-0.8,0.3-1c0.5-0.2,1-0.4,1.4-0.5c3.4-0.7,6.4,0.2,9.1,2.4
				c0.9,0.8,1.6,1.8,1.8,3c0.1,0.5,0.3,0.6,0.8,0.6c2.4,0.1,4.7,0.5,6.7,1.8c0.5,0.3,0.9,0.7,1.2,1.2
				C133.4,25.8,133.4,26.1,133.4,26.4z"/>
			<path class="st5" d="M123.1,41c-0.7-0.2-0.9-0.6-0.7-1.2c0.1-0.2,0.1-0.4,0.1-0.6c0.1-2.7-0.5-5-3-6.5c-1.2-0.7-2.5-1.3-3.7-1.9
				c-0.7-0.3-1.3-0.1-2,0.2c-0.7,0.3-1,0.2-1-0.7c1.1-1.1,2.4-0.1,3.7-0.2c0.2-0.6,0.2-1.2,0.5-1.6c0.5-0.8,0.7-2,1.9-2.2
				c0.2,0.2,0.6,0.5,0.5,0.7c0,0.3-0.2,0.7-0.5,0.9c-0.8,0.5-1.3,2-0.9,2.8c0.1,0.2,0.3,0.3,0.5,0.5c0.5,0.3,1.1,0.6,1.6,0.9
				c0.4,0.3,0.6,0.2,0.9-0.1c0.2-0.2,0.4-0.3,0.6-0.5c0.1,0,0.1,0.1,0.2,0.1c-0.2,0.4-0.3,0.8-0.6,1.5c0.5-0.2,0.7-0.4,1.2-0.6
				c-0.2,0.5-0.3,0.8-0.3,1c0,0.2,0.3,0.4,0.5,0.5c0.1,0.3,0.2,0.7,0.4,1c0.8,1.4,1.1,2.9,1,4.5c0,0.3-0.1,0.6-0.1,0.9
				c0,0.1,0,0.2-0.1,0.2c-0.1,0-0.2,0-0.3,0C123.5,40.7,123.3,40.9,123.1,41z"/>
			<path class="st5" d="M121,45.9c0.5,0.2,0.9,0.8,1.5,0.2c0.1,0.2,0.2,0.3,0.2,0.4c0.1,0.6,0.3,0.8,0.9,0.6c0.1,0,0.4,0.1,0.5,0.2
				c0.4,0.9,0.8,1,1.6,0.7c0.2,0.3,0.3,0.7,0.6,0.9c0.3,0.2,0.7,0.1,1.1,0.2c0.1,0.6,0.5,1,1.3,0.8c0.1,0,0.1,0,0.2,0.1
				c0.6,0.5,0.6,0.5,1.2,0.2c0,0.2,0,0.4,0.1,0.6c0.1,0.2,0.3,0.4,0.4,0.4c0.4,0,0.6,0.1,0.8,0.5c0.2,0.2,0.7,0.2,1.1,0.2
				c0.2,0.3,0.2,0.7,0.9,0.6c0.2,0,0.5,0.5,0.8,0.7c0.7,0.4,1.4,0.9,2.1,1.2c0.2,0.1,0.5,0,0.7-0.1c0.2-0.1,0.4-0.3,0.6-0.5
				c0.1,0.2,0.2,0.5,0.4,0.7c0,0.1,0.1,0.2,0.1,0.3c0.6-0.4,0.5-1.1-0.1-1.4c-0.3-0.2-0.6-0.3-0.9-0.4c-0.4-0.2-0.7-0.6-0.5-1.1
				c0.9,0,1.7,0.4,2.3,1.1c0.2,0.3,0.4,0.7,0.4,1c-0.1,1.5-1.6,2.4-2.9,1.7c-1-0.5-1.8-1.2-2.8-1.7c-3.6-2.1-7.3-4.2-10.9-6.3
				c-0.7-0.4-1.4-0.8-2.1-1.2c0,0,0-0.1,0-0.1C120.9,46.4,121,46.2,121,45.9z"/>
			<path class="st5" d="M121,45.9c-0.1,0.2-0.1,0.4-0.2,0.7c-0.5-0.1-0.5-0.1-0.5,0.2c0,0.1,0,0.2-0.1,0.3c0,0,0,0.1-0.1,0.1
				c-0.4,1-1.3,1.6-2.2,2c-2.5,1-5.2,1.2-7.7,0.2c-1.4-0.5-2.7-1.2-3.8-2.4c-0.2-0.2-0.4-0.6-0.6-0.9c0.7-0.4,1.2-0.3,1.5,0.2
				c0.6,1.1,0.7,1.1,1.7,0.6c0.2,0.3,0.5,0.6,0.7,1c0.3-0.3,0.6-0.5,1-0.9c0,0.4,0,0.6,0,0.8c0.1,0.2,0.2,0.6,0.3,0.6
				c0.2,0,0.5-0.1,0.7-0.3c0.2-0.1,0.4-0.4,0.5-0.6c0.1,0,0.1,0,0.2,0.1c0,0.2,0,0.5,0.1,0.7c0,0.2,0.2,0.4,0.3,0.4
				c0.2,0,0.4-0.1,0.5-0.2c0.2-0.2,0.3-0.5,0.5-0.7c0.2,0.3,0.4,0.5,0.6,0.8c0,0,0.1,0,0.1,0c1.3-0.6,2.8-0.7,3.8-1.9
				c0.2-0.3,0.8-0.4,1.2-0.5c-0.1-0.3-0.2-0.6-0.4-0.9l0.1,0c0.1,0,0.1-0.1,0.2-0.1c0.3,0.1,0.5,0.2,0.8,0.4c0,0.1,0.1,0.1,0.1,0.2
				C120.8,45.8,120.9,45.9,121,45.9z"/>
			<path class="st5" d="M146.4,47.5c0.3-0.2,0.5-0.5,0.9-0.8c-0.3-0.1-0.5-0.1-0.6-0.1c-0.5,0.1-0.7-0.1-0.8-0.7
				c0-0.2-0.2-0.5-0.4-0.7c-3.4-2.5-6.8-5-10.3-7.4c-0.5-0.3-1-0.6-1.4-0.9c-0.4-0.3-0.5-0.6-0.1-1c0.5-0.5,0.9-0.4,1.3,0.1
				c0.2,0.3,0.3,0.7,0.5,0.9c1.4,1.1,2.9,2.1,4.3,3.1c2,1.4,4,2.8,6,4.2c0.7,0.5,1.3,1.1,2,1.6c0.6,0.5,0.3,1.1,0.1,1.5
				c-0.2,0.4-0.7,0.8-1.2,0.9C146.4,48.4,146.4,47.9,146.4,47.5z"/>
			<path class="st5" d="M132.2,38c0.5,0.1,1,0.2,1.4,0.4c0.9,0.6,1.8,1.3,2.7,1.9c0.3,0.2,0.6,0.2,1,0.3c0,0.1,0.1,0.4,0.2,0.7
				c0.3-0.1,0.5-0.2,0.8-0.4c0.1,0.3,0.1,0.5,0.2,0.7c0.2,0,0.4,0,0.5-0.1c0.1,0.8,0.1,1.1,1.2,1c0.2,1.1,1,1.6,2,1.1
				c0,0.3,0,0.6,0,0.9c0.3,0,0.5,0,0.8-0.1c0,0.9,0.4,1.1,1.2,0.7c-0.1,0.9,0.5,1.2,1.2,1.4c0.5,0.2,0.8,0.4,0.7,1
				c-0.4,0.5-0.8,0.2-1.2-0.1c-2-1.4-3.9-2.9-5.9-4.2c-1.6-1.1-3.2-2.2-4.9-3.2c-0.2-0.1-0.5-0.1-0.8-0.2c-0.3,0-0.6,0-0.8-0.1
				C132.4,39.1,132.3,38.6,132.2,38z"/>
			<path class="st5" d="M136.6,52.1c-0.5,0.4-0.9,0.3-1.4,0c-3.2-1.9-6.3-3.9-9.5-5.8c-1.1-0.6-2.2-1.2-3.3-1.8
				c-0.4-0.2-0.8-0.5-0.5-1.1c0-0.2,0-0.4,0-0.6c-0.1-0.7,0.3-1.1,1-1.1c0.2,0.7,0.2,0.8-0.4,1.5c0.7,0.4,1.3,0.8,2,1.2
				c3.5,2,7,4.1,10.4,6.1C135.5,51,136.1,51.6,136.6,52.1z"/>
			<path class="st5" d="M124,40.6c0-0.1,0-0.2,0.1-0.2c0.4-0.6,0.9-0.7,1.5-0.5c0.3,0.1,0.7,0,1.1,0.1c0,0.2-0.1,0.5-0.1,0.8
				c0,0,0.1,0.1,0.1,0.1c0.3-0.3,0.6-0.6,1-1c0.1,0.4,0.1,0.6,0.2,0.9c0.3-0.3,0.6-0.6,0.9-0.9c0.5,0.7,0.5,0.7,1.8-0.1
				c0.1,0.1,0.3,0.3,0.3,0.3c0.5-0.1,1-0.2,1.5-0.2c-0.4,0.4-0.7,0.9-1.2,1.1c-2,0.8-4,1.2-6.2,0.7C124.6,41.5,123.8,41.6,124,40.6z
				"/>
			<path class="st5" d="M113.2,16.3c-0.4,0.6-0.7,0.6-1.3,0.1c-0.6-1.8-2-2.5-3.7-2.9c-1.4-0.3-2.9-0.3-4.3,0.1
				c-0.5,0.1-0.7-0.2-0.5-0.7c1.2-0.9,2.6-0.8,3.9-0.6c1.6,0.2,3,1,4.4,1.8C112.6,14.6,112.8,15.4,113.2,16.3z"/>
			<path class="st5" d="M135.3,35.2c-0.9,0-1.1-0.3-0.8-1.1c0.2-0.5,0.3-1,0.5-1.4c0.2-1.6-0.1-3-1.1-4.3c-0.2-0.2-0.2-0.6-0.3-1
				c0.3-0.1,0.5-0.1,0.8-0.2c0.6,0.4,1,0.9,1.1,1.6c0.1,0.5,0.3,0.9,0.4,1.4c0.5,1.5,0,3-0.2,4.4C135.7,34.8,135.4,35,135.3,35.2z"
				/>
			<path class="st5" d="M102,13.4c0.3,0.3,0.2,0.5-0.1,0.6c-1.5,0.6-2.2,1.9-2.8,3.2c-0.2,0.4-0.2,1-0.3,1.5
				c-0.2,1.1-0.5,1.2-1.5,0.8c0-0.4-0.2-0.8-0.1-1.2c0.6-1.9,1.7-3.5,3.5-4.5C101,13.6,101.5,13.5,102,13.4z"/>
			<path class="st5" d="M96.1,20.1c-0.2,0.5-0.6,0.3-0.9,0.2c-0.9-0.3-1.8-0.6-2.8-0.9c-0.9-0.3-1.7-0.1-2.5,0.3
				c-0.9,0.5-1.3,0.4-1.7-0.3c0.2-0.2,0.5-0.5,0.7-0.6c2.2-0.6,4.4-0.8,6.4,0.4C95.7,19.3,95.8,19.8,96.1,20.1z"/>
			<path class="st5" d="M120.4,46.8c-0.1-0.3-0.1-0.3,0.5-0.2c0,0,0,0.1,0,0.1C120.7,46.7,120.5,46.8,120.4,46.8z"/>
			<path class="st5" d="M120.3,47.2c0,0,0-0.1,0.1-0.1C120.3,47.1,120.3,47.1,120.3,47.2z"/>
			<path class="st5" d="M105.4,35.4c0.1-0.3,0.1-0.7,0.3-1c1.1-1.9,3-2.6,4.8-3.4c0.2-0.1,0.4,0,0.6,0.1c0.2,0.8,0,1.1-0.8,1.3
				c-0.7,0.2-1.5,0.3-2.1,0.7c-0.6,0.4-1.1,1-1.4,1.6C106.4,35.6,106,35.8,105.4,35.4z"/>
			<path class="st5" d="M121.7,24.9c0.1,0.5,0.2,0.8,0.1,0.9c-0.1,0.2-0.5,0.3-0.7,0.4c-0.1-0.2-0.4-0.6-0.3-0.7
				C120.9,25.4,121.2,25.2,121.7,24.9z"/>
			<path class="st5" d="M133.4,35.8c-0.2,0-0.4,0.1-0.6,0.1c-0.6,0-0.9,0.4-0.8,1c0.1,0.3,0,0.7,0,1c-0.4,0.3-0.9,0.4-1.2-0.1
				c-0.3-0.5-0.4-1,0.2-1.5c0.6-0.4,1.1-0.9,1.7-1.2C133.1,35,133.5,35.2,133.4,35.8z"/>
			<path class="st5" d="M121.1,42.9c-0.3,0-0.6,0.1-1,0.1c-0.3,0-0.7,0-0.8,0.1c-0.2,0.2-0.2,0.6-0.3,1c0,0.4,0.1,0.7,0.1,1.1
				c-0.7,0.3-0.9,0.2-1-0.5c-0.4-1.6,0.6-2.8,2.1-2.8C121,41.9,121.2,42.2,121.1,42.9z"/>
			<path class="st5" d="M119.7,45.2c-0.1,0-0.1,0.1-0.2,0.1C119.6,45.3,119.7,45.3,119.7,45.2z"/>
			<path class="st5" d="M120.7,45.8c0-0.1-0.1-0.1-0.1-0.2C120.6,45.7,120.6,45.7,120.7,45.8z"/>
			<path class="st5" d="M108.4,20.9c0.1,0,0.1-0.1,0.2-0.1c0,0,0,0,0,0.1C108.6,20.9,108.5,21,108.4,20.9
				C108.4,21,108.4,21,108.4,20.9z"/>
			<path class="st5" d="M108.6,20.9C108.6,20.9,108.6,20.8,108.6,20.9c-0.1-1.1,0.1-1.4,1.1-1.1c0,0.2,0,0.5-0.1,0.7
				C109.5,21.1,109.3,21.2,108.6,20.9z"/>
			<path class="st5" d="M111.2,18.8c0,0.2-0.1,0.5-0.1,0.7c-0.3-0.1-0.6-0.1-0.9-0.2C110.4,18.6,110.5,18.5,111.2,18.8z"/>
			<path class="st5" d="M97.4,26.9c0.2,0.6-0.1,1.1-0.6,1.5c-1.6,1.1-2.3,2.6-2.2,4.5c0,0.4-0.1,0.7-0.6,0.7c-0.1-0.3-0.4-0.7-0.4-1
				c0.1-2.2,0.9-4,2.4-5.5C96.4,26.6,96.9,26.3,97.4,26.9z"/>
			<path class="st5" d="M93.8,34.1c0.3,0.3,0.6,0.7-0.1,0.9c-0.2-0.2-0.4-0.4-0.6-0.6C93.4,34.3,93.6,34.2,93.8,34.1z"/>
		</g>
	</g>
	<g>
		<path class="st5" d="M98.9,85.6c-1.5-0.2-3.4-0.5-5.2-0.7c-0.4,0-0.7-0.1-1.1-0.1c-0.1,0-0.3,0.1-0.3,0.2
			c-0.3,0.3-0.6,0.4-0.9,0.2c-2.3-1.4-4.9-1.9-7.4-2.6c-1.7-0.5-3.3-1.1-4.9-1.8c-1.3-0.6-2.3-1.6-2.8-2.9c-0.1-0.2-0.3-0.4-0.5-0.5
			c-2.2-1.6-4.1-3.4-5.4-5.9c-1.3-2.6-1.5-5.3-0.8-8.1c0.7-2.9,2-5.6,3.5-8.2c1.9-3.1,4.1-6,6.5-8.6c1.9-2,3.9-4,6.3-5.5
			c1.7-1.1,3.5-2,5.6-2.3c0.9-0.1,1.8,0,2.8,0c0.4,0,0.8,0,1.2,0c1.1-0.1,2.1,0.4,3.1,0.9c2.1,1.2,3.6,3,4.7,5
			c2.2,4,3.6,8.3,4.8,12.7c0.9,3.2,2.1,6.2,3.1,9.3c0.9,2.8,1.4,5.7,1,8.6c-0.5,3.2-1.8,6.1-4.5,8c-1.7,1.2-3.7,1.8-5.8,2.1
			C101.1,85.5,100.2,85.5,98.9,85.6z M75.9,76.6c0-0.3,0-0.4,0-0.6c0-1-0.1-2,0.1-3c0.4-3.4,1.3-6.7,2.4-9.9
			c0.2-0.7,0.4-0.7,1.1-0.4c2.6,1.5,5.2,3,8.1,4c1.1,0.4,2.2,0.7,3.4,0.5c0.5-0.1,0.7,0.1,0.8,0.6c0.4,1.9,0.3,3.8,0.3,5.7
			c0,1.7-0.2,3.4-0.3,5.2c0,1.5,0.2,3,0.2,4.5c0,0.5,0.1,0.7,0.6,0.8c2.6,0.6,5.3,1,8,0.8c1.7-0.1,3.3-0.4,4.9-1
			c4.3-1.9,6.2-5.5,6.4-10c0.2-2.8-0.6-5.5-1.5-8.1c-0.9-2.6-1.9-5.1-2.8-7.6c-0.8-2.4-1.3-4.9-2.4-7.1c-0.7-1.4-1.2-2.8-1.9-4.1
			c-1.1-2.1-2.3-4.1-4.2-5.6c-0.7-0.6-1.5-1.4-2.3-1.7c-1.7-0.7-3.4-0.9-5.2-0.6c-2.7,0.4-4.9,1.7-7,3.3c-2.6,2-4.8,4.3-6.8,6.8
			c-3,3.7-5.5,7.8-7.1,12.3c-0.7,1.8-1.1,3.7-0.9,5.6C70,71.2,72.5,74.1,75.9,76.6z"/>
		<path class="st0" d="M75.9,76.6c-3.4-2.5-5.9-5.4-6.2-9.7c-0.1-1.9,0.3-3.8,0.9-5.6c1.6-4.5,4.1-8.5,7.1-12.3
			c2-2.5,4.2-4.9,6.8-6.8c2.1-1.6,4.3-2.9,7-3.3c1.8-0.3,3.6-0.1,5.2,0.6c0.9,0.4,1.6,1.1,2.3,1.7c1.8,1.6,3.1,3.5,4.2,5.6
			c0.7,1.3,1.3,2.8,1.9,4.1c1.1,2.3,1.6,4.8,2.4,7.1c0.9,2.6,1.9,5.1,2.8,7.6c0.9,2.6,1.7,5.3,1.5,8.1c-0.3,4.5-2.1,8.1-6.4,10
			c-1.6,0.7-3.2,0.9-4.9,1c-2.7,0.1-5.3-0.3-8-0.8c-0.5-0.1-0.6-0.3-0.6-0.8c0-1.5-0.2-3-0.2-4.5c0-1.7,0.2-3.4,0.3-5.2
			c0-1.9,0.1-3.8-0.3-5.7c-0.1-0.5-0.3-0.7-0.8-0.6c-1.2,0.2-2.3-0.2-3.4-0.5c-2.9-1-5.5-2.5-8.1-4c-0.7-0.4-0.8-0.3-1.1,0.4
			c-1.1,3.2-2,6.5-2.4,9.9c-0.1,1,0,2-0.1,3C75.9,76.2,75.9,76.3,75.9,76.6z M99,83.4c1.3-0.8,1.9-2,2.1-3.3
			c0.2-1.7,0.1-3.5-0.4-5.1c-0.7-2.5-1.4-5-2.1-7.5c-0.4-1.4-0.9-2.8-1.3-4.2c-1.3-4.8-3-9.5-5.5-13.9c-0.8-1.5-1.8-2.9-3.3-3.9
			c-1.3-0.8-2.6-0.9-4-0.1c-0.2,0.1-0.4,0.3-0.7,0.5c0.1,0,0.2,0.1,0.2,0.1c0.1-0.1,0.3-0.1,0.4-0.2c1.3-0.8,2.7-0.9,4,0
			c0.5,0.4,1,0.8,1.4,1.3c1.2,1.4,2,3.1,2.7,4.8c1.4,3.5,3.1,7,3.8,10.8c0.3,1.7,1,3.3,1.7,4.9c1.1,2.7,1.9,5.5,2.2,8.4
			c0.1,1.3,0.1,2.6-0.1,3.8c-0.1,0.8-0.6,1.6-0.8,2.5C99.1,82.4,99.1,82.8,99,83.4z M96.4,43.2c-1.1-0.8-4.3,0.2-4.7,1.4
			C93.2,43.8,94.7,43.2,96.4,43.2z"/>
		<path class="st5" d="M99,83.4c0.1-0.5,0.1-0.9,0.3-1.3c0.3-0.8,0.7-1.6,0.8-2.5c0.2-1.3,0.2-2.6,0.1-3.8c-0.3-2.9-1.1-5.7-2.2-8.4
			c-0.6-1.6-1.3-3.2-1.7-4.9c-0.8-3.8-2.4-7.2-3.8-10.8c-0.7-1.7-1.5-3.4-2.7-4.8c-0.4-0.5-0.9-0.9-1.4-1.3c-1.3-0.9-2.6-0.8-4,0
			c-0.1,0.1-0.3,0.2-0.4,0.2c0,0,0,0-0.2-0.1c0.3-0.2,0.5-0.4,0.7-0.5c1.3-0.8,2.7-0.7,4,0.1c1.5,0.9,2.5,2.4,3.3,3.9
			c2.5,4.4,4.2,9.1,5.5,13.9c0.4,1.4,0.9,2.8,1.3,4.2c0.7,2.5,1.5,5,2.1,7.5c0.5,1.7,0.6,3.4,0.4,5.1C101,81.4,100.4,82.5,99,83.4z"
			/>
		<path class="st5" d="M96.4,43.2c-1.7-0.1-3.2,0.6-4.7,1.4C92.1,43.4,95.3,42.4,96.4,43.2z"/>
	</g>
</g>
<g id="レイヤー_3">
</g>
<g id="hashtag">
</g>
<g id="レイヤー_6">
</g>
<g id="レイヤー_7">
</g>
<g id="_x23_">
</g>
<g id="tag_x5F_txt">
</g>
</svg>
