<!DOCTYPE svg PUBLIC "-//W3C//DTD SVG 20010904//EN" "http://www.w3.org/TR/2001/REC-SVG-20010904/DTD/svg10.dtd">
<svg version="1.0" xmlns="http://www.w3.org/2000/svg" width="1372px" height="1600px" viewBox="0 0 13720 16000" preserveAspectRatio="xMidYMid meet">
<g id="layerbg1" fill="#8fc31f" stroke="none">
 <path d="M2220 15985 c-56 -12 -71 -20 -104 -57 -21 -24 -42 -52 -47 -63 -5 -11 -23 -38 -39 -60 l-29 -40 30 -30 c16 -17 29 -35 29 -40 0 -12 47 -104 80 -155 16 -25 48 -79 72 -120 23 -41 50 -88 60 -105 38 -66 218 -435 218 -447 0 -7 9 -26 20 -43 11 -16 20 -37 20 -45 0 -8 9 -32 20 -53 11 -20 20 -42 20 -48 0 -6 6 -25 14 -42 14 -33 37 -100 61 -177 7 -25 18 -58 24 -75 54 -159 142 -534 166 -710 5 -38 15 -93 55 -310 10 -55 21 -120 24 -145 38 -298 114 -573 240 -870 15 -36 33 -74 39 -85 6 -11 27 -51 47 -90 20 -38 49 -89 63 -112 15 -24 27 -45 27 -47 0 -4 82 -126 125 -186 157 -218 381 -452 615 -641 54 -44 181 -133 220 -155 11 -6 28 -18 38 -27 10 -10 22 -17 27 -17 5 0 16 -6 24 -14 9 -8 59 -35 111 -61 52 -26 107 -53 122 -61 14 -8 32 -14 38 -14 18 0 248 -114 356 -176 51 -30 97 -54 102 -54 5 0 17 -9 27 -20 10 -11 22 -20 26 -20 4 0 27 -13 51 -29 69 -47 348 -341 348 -366 0 -5 8 -18 18 -29 28 -32 102 -214 102 -251 0 -12 7 -42 16 -66 18 -51 30 -102 49 -213 39 -217 89 -400 163 -591 39 -99 149 -331 192 -402 11 -18 29 -48 40 -65 11 -18 27 -46 36 -63 9 -16 32 -50 51 -75 18 -25 64 -87 102 -138 164 -220 443 -495 636 -624 22 -15 58 -40 80 -56 22 -15 47 -31 55 -35 8 -4 38 -20 65 -36 28 -17 95 -53 150 -81 245 -126 339 -192 465 -330 150 -162 308 -369 371 -485 43 -78 99 -202 99 -218 0 -6 9 -34 19 -62 24 -62 54 -163 80 -275 11 -47 29 -128 42 -180 53 -228 124 -452 192 -600 49 -107 154 -312 185 -359 9 -14 22 -33 27 -42 47 -76 169 -249 176 -249 5 0 9 -7 9 -15 0 -9 6 -18 14 -21 8 -3 25 -22 39 -42 29 -44 206 -232 286 -305 57 -52 99 -88 202 -170 64 -51 243 -173 309 -209 25 -14 63 -35 85 -48 92 -53 237 -120 259 -120 8 0 18 -4 21 -10 3 -5 27 -16 53 -24 147 -47 244 -92 414 -195 14 -9 50 -30 80 -47 29 -17 74 -48 101 -68 26 -20 50 -36 52 -36 7 0 267 -191 280 -205 6 -6 60 -52 120 -100 146 -118 465 -440 590 -595 146 -180 281 -370 365 -510 11 -19 32 -53 45 -75 13 -22 27 -47 30 -55 4 -8 11 -22 16 -30 5 -8 15 -26 21 -40 7 -14 21 -38 32 -55 12 -16 20 -31 18 -33 -1 -1 13 -35 32 -75 79 -166 116 -248 116 -257 0 -6 8 -29 19 -53 22 -50 50 -127 56 -153 5 -27 58 -178 102 -294 66 -175 172 -340 307 -478 232 -238 529 -390 603 -310 38 42 73 107 73 137 0 24 -9 34 -52 62 -83 52 -203 145 -255 197 -48 48 -129 143 -148 173 -5 9 -23 36 -39 60 -17 24 -41 67 -54 94 -13 28 -28 58 -33 67 -42 80 -90 251 -103 373 -12 106 -9 153 24 365 11 69 29 186 40 260 21 137 36 235 70 435 10 61 27 164 39 230 58 347 126 817 136 945 3 36 12 121 20 190 54 482 54 1268 -1 1715 -8 66 -16 142 -19 170 -8 81 -35 225 -56 296 -10 36 -19 72 -19 80 0 17 -63 211 -96 296 -13 35 -36 93 -50 130 -14 37 -30 74 -35 82 -4 9 -20 43 -35 76 -52 119 -175 360 -193 378 -6 6 -11 17 -11 24 0 7 -20 43 -43 80 -24 37 -47 75 -51 83 -9 20 -22 41 -80 130 -127 195 -164 247 -293 410 -59 73 -322 330 -418 407 -103 83 -378 273 -394 273 -5 0 -14 7 -21 16 -8 8 -27 21 -44 29 -27 12 -99 52 -176 96 -111 64 -243 172 -324 263 -64 73 -196 242 -196 252 0 2 -8 17 -18 32 -48 70 -79 122 -130 218 -6 10 -22 48 -37 84 -14 36 -30 73 -36 82 -5 10 -9 26 -9 36 0 10 -4 22 -9 28 -13 13 -96 320 -112 416 -17 100 -99 357 -162 508 -55 131 -93 205 -174 345 -87 148 -83 142 -126 202 -20 29 -37 55 -37 59 0 4 -7 14 -15 23 -8 9 -52 63 -97 121 -109 140 -364 393 -515 513 -68 53 -125 97 -128 97 -3 0 -29 17 -58 38 -120 85 -387 229 -516 277 -22 8 -60 22 -83 31 -60 22 -128 54 -163 78 -244 167 -485 420 -552 581 -33 78 -103 326 -103 363 0 19 -9 52 -49 187 -10 33 -29 98 -41 145 -67 258 -101 353 -182 520 -39 80 -79 156 -88 170 -66 97 -100 152 -100 159 0 4 -9 16 -20 26 -11 10 -20 22 -20 27 0 15 -152 213 -228 298 -246 275 -590 571 -888 762 -27 18 -59 39 -70 46 -10 6 -28 16 -39 21 -12 5 -27 16 -34 25 -7 9 -17 16 -22 16 -4 0 -48 23 -96 51 -394 230 -783 358 -1248 409 -49 6 -117 15 -150 20 -33 6 -123 15 -200 20 -77 5 -187 14 -245 20 -132 13 -1062 43 -1440 46 -215 2 -301 -1 -350 -11z m2987 -1000 c576 -76 1148 -425 1532 -935 307 -407 471 -846 488 -1300 13 -354 -66 -655 -244 -930 -54 -83 -233 -274 -281 -299 -20 -11 -19 -7 12 51 81 147 145 359 165 546 53 489 -111 1028 -451 1487 -101 136 -338 379 -474 485 -740 579 -1667 626 -2206 112 -86 -83 -88 -80 -22 52 151 301 391 524 694 644 90 36 258 79 355 91 114 14 305 12 432 -4z m2791 -3396 c360 -39 769 -220 1089 -480 461 -376 787 -932 890 -1519 28 -162 26 -516 -4 -666 -95 -466 -343 -810 -721 -999 -128 -63 -129 -62 -47 30 129 146 216 293 278 472 187 536 86 1182 -272 1748 -317 502 -795 874 -1316 1023 -173 50 -230 57 -465 57 -200 -1 -235 -3 -315 -23 -128 -32 -196 -57 -308 -112 -114 -57 -114 -51 -1 69 168 179 372 298 625 366 163 43 372 56 567 34z m2601 -3604 c704 -103 1362 -635 1695 -1373 159 -351 225 -674 213 -1036 -25 -769 -465 -1322 -1146 -1441 -113 -20 -115 -19 -53 14 346 192 595 565 673 1011 99 570 -75 1207 -472 1737 -90 119 -272 309 -394 411 -446 374 -1029 544 -1494 436 -35 -8 -66 -13 -68 -10 -8 8 123 88 222 136 116 56 210 86 350 111 127 22 334 24 474 4z"/>
 <path d="M150 9030 c-11 -21 -5 -44 9 -35 13 7 20 44 11 50 -5 3 -14 -4 -20 -15z"/>
 <path d="M2562 8794 c-42 -82 -88 -274 -104 -432 -43 -432 131 -827 496 -1125 38 -31 73 -54 77 -51 5 2 -14 33 -41 66 -209 259 -348 587 -401 942 -21 144 -26 422 -9 536 9 66 0 98 -18 64z"/>
 <path d="M4398 4644 c-3 -5 -2 -36 3 -69 13 -107 10 -398 -7 -517 -49 -353 -190 -695 -388 -942 -104 -129 -41 -98 128 64 191 183 304 379 367 632 33 133 33 406 1 553 -37 166 -89 306 -104 279z"/>
 <path d="M4066 1682 c-3 -5 3 -17 13 -26 11 -10 22 -13 25 -8 3 5 -3 17 -13 26 -11 10 -22 13 -25 8z"/>
 </g>
<g id="layerbg2" fill="#b0cf0b" stroke="none">
 <path d="M5635 15590 c-3 -5 8 -16 24 -25 18 -9 32 -11 36 -5 3 5 -8 16 -24 25 -18 9 -32 11 -36 5z"/>
 <path d="M4771 15008 c-397 -50 -754 -268 -973 -595 -75 -112 -165 -302 -151 -317 4 -3 45 32 92 77 493 476 1303 489 2025 33 286 -181 602 -504 772 -789 218 -367 333 -753 334 -1114 0 -257 -67 -533 -181 -741 -22 -40 -37 -77 -34 -82 9 -15 109 66 207 168 267 277 401 661 385 1102 -14 370 -134 754 -342 1090 -490 789 -1359 1265 -2134 1168z"/>
 <path d="M7601 11609 c-204 -24 -439 -115 -611 -237 -124 -89 -331 -306 -315 -332 4 -6 22 -1 48 15 106 65 242 119 392 157 80 20 115 22 315 23 235 0 292 -7 465 -57 198 -57 421 -160 589 -273 607 -408 1012 -1083 1066 -1781 36 -466 -107 -905 -389 -1193 -44 -45 -76 -83 -71 -86 11 -7 73 16 160 60 326 163 569 450 689 814 61 186 76 291 76 541 0 234 -11 330 -57 515 -108 433 -349 848 -687 1185 -200 198 -393 337 -636 455 -348 170 -688 234 -1034 194z"/>
 <path d="M10087 10694 c-9 -10 22 -66 33 -59 6 4 4 18 -5 36 -17 31 -18 32 -28 23z"/>
 <path d="M1355 9936 c-236 -31 -504 -119 -643 -213 -18 -13 -35 -23 -38 -23 -3 0 -42 -31 -87 -69 -134 -113 -210 -201 -306 -354 -33 -54 -61 -103 -61 -109 0 -5 -8 -22 -18 -36 -21 -30 -98 -231 -122 -317 -65 -231 -75 -326 -75 -735 0 -345 12 -519 46 -652 10 -43 19 -85 19 -95 0 -27 101 -358 130 -428 9 -22 27 -65 40 -95 12 -30 26 -62 30 -71 60 -119 117 -229 131 -249 9 -14 36 -56 60 -95 81 -129 190 -265 312 -389 117 -118 265 -246 285 -246 5 0 17 -9 27 -20 10 -11 22 -20 26 -20 5 0 25 -11 45 -25 45 -30 197 -105 273 -134 274 -104 604 -124 861 -52 36 11 86 24 113 31 26 7 50 17 53 21 3 5 14 9 25 9 24 0 209 88 262 124 21 14 41 26 44 26 9 0 143 117 181 159 42 45 135 169 156 207 9 16 28 47 41 69 14 22 29 49 34 60 5 11 22 49 39 85 77 164 98 282 81 465 -15 168 -47 295 -139 540 -11 30 -30 81 -41 113 -12 31 -30 75 -40 97 -10 22 -21 52 -25 68 -3 15 -10 30 -15 33 -5 3 -9 12 -9 20 0 8 -8 34 -18 57 -11 23 -29 69 -41 102 -13 33 -31 80 -41 105 -28 73 -52 143 -60 180 -4 19 -15 55 -24 79 -9 24 -16 55 -16 68 0 14 -6 48 -14 76 -7 29 -23 108 -35 177 -83 465 -136 681 -202 815 -10 22 -19 44 -19 48 0 5 -19 41 -42 80 -56 94 -158 195 -292 290 -103 73 -296 177 -329 177 -8 0 -31 7 -52 16 -96 40 -327 53 -510 30z m1197 -1402 c-3 -136 1 -222 13 -313 45 -335 168 -649 352 -899 65 -88 45 -81 -63 25 -278 271 -414 636 -376 1015 7 68 19 152 28 188 16 68 44 170 47 170 1 0 1 -84 -1 -186z"/>
 <path d="M10125 8001 c-178 -32 -305 -78 -455 -166 -89 -52 -165 -114 -153 -126 4 -4 43 1 86 11 407 97 896 -9 1317 -287 660 -436 1098 -1265 1067 -2018 -25 -582 -290 -1049 -716 -1264 -89 -46 -72 -59 51 -42 422 60 777 301 995 676 199 341 263 819 173 1285 -142 731 -650 1412 -1300 1744 -343 175 -739 245 -1065 187z"/>
 <path d="M7776 7132 c-3 -5 3 -17 13 -26 11 -10 22 -13 25 -8 3 5 -3 17 -13 26 -11 10 -22 13 -25 8z"/>
 <path d="M5275 5786 c-201 -24 -413 -121 -610 -279 -126 -102 -186 -173 -251 -297 -85 -164 -138 -359 -214 -785 -12 -66 -30 -160 -41 -210 -11 -49 -19 -97 -19 -105 0 -26 -110 -381 -136 -437 -7 -17 -14 -36 -14 -42 0 -6 -9 -30 -19 -53 -43 -94 -61 -138 -61 -145 -1 -5 -9 -26 -20 -48 -11 -22 -19 -47 -20 -56 0 -8 -4 -19 -9 -25 -5 -5 -16 -29 -25 -54 -8 -25 -27 -76 -41 -115 -15 -38 -30 -83 -35 -100 -4 -16 -15 -50 -23 -75 -48 -139 -87 -344 -87 -453 0 -31 7 -94 16 -139 15 -75 25 -104 69 -203 215 -489 541 -740 1085 -837 96 -17 320 -17 435 0 201 30 477 142 647 263 184 131 317 252 423 384 22 28 46 54 53 58 6 4 12 15 12 22 0 8 4 15 9 15 5 0 17 13 28 29 10 16 39 60 64 98 92 138 118 183 190 333 57 118 79 169 98 220 157 433 216 751 216 1175 0 292 -26 507 -86 705 -10 36 -19 69 -19 75 0 30 -112 284 -178 400 -66 117 -213 286 -332 380 -103 82 -123 95 -210 137 -187 90 -361 138 -590 164 -146 16 -172 16 -305 0z m-793 -1424 c33 -154 32 -415 -1 -550 -42 -172 -111 -321 -207 -453 -54 -74 -161 -187 -219 -233 -36 -28 -38 -29 -23 -6 227 324 334 589 383 946 12 86 16 171 13 311 l-3 193 17 -51 c10 -28 28 -98 40 -157z"/>
 <path d="M11426 2932 c-3 -5 3 -17 13 -26 11 -10 22 -13 25 -8 3 5 -3 17 -13 26 -11 10 -22 13 -25 8z"/>
 </g>
<g id="layer101" fill="#8fc31f" stroke="none">
 <path d="M2255 15990 c-86 -18 -148 -63 -179 -130 -3 -8 -20 -33 -36 -55 l-29 -40 29 -28 c17 -15 30 -33 30 -39 0 -15 45 -103 80 -158 16 -25 48 -79 72 -120 23 -41 50 -88 60 -105 38 -66 218 -435 218 -447 0 -7 9 -26 20 -43 11 -16 20 -37 20 -45 0 -8 9 -32 20 -53 11 -20 20 -42 20 -48 0 -6 6 -25 14 -42 14 -33 37 -100 61 -177 7 -25 18 -58 24 -75 54 -159 142 -534 166 -710 5 -38 15 -93 55 -310 10 -55 21 -120 24 -145 38 -298 114 -573 240 -870 15 -36 33 -74 39 -85 6 -11 27 -51 47 -90 20 -38 49 -89 63 -112 15 -24 27 -45 27 -47 0 -2 24 -39 53 -81 76 -113 81 -119 93 -132 7 -7 34 -42 60 -78 26 -36 51 -65 56 -65 4 0 8 -4 8 -10 0 -11 5 -16 164 -179 66 -67 142 -141 170 -164 28 -23 58 -49 66 -58 8 -9 35 -31 60 -50 25 -19 47 -37 48 -41 2 -5 8 -8 13 -8 6 0 15 -5 22 -10 30 -26 138 -100 145 -100 5 0 17 -9 27 -20 10 -11 23 -20 28 -20 6 0 18 -6 26 -14 9 -8 59 -35 111 -61 52 -26 107 -53 122 -61 14 -8 32 -14 38 -14 17 0 246 -113 346 -171 46 -26 100 -55 119 -65 19 -9 35 -20 35 -25 0 -5 4 -9 9 -9 24 0 105 -67 207 -172 125 -129 204 -220 204 -237 0 -6 4 -11 9 -11 18 0 97 -189 110 -265 4 -22 16 -67 25 -100 31 -108 34 -119 41 -165 29 -209 112 -494 203 -702 40 -90 126 -263 133 -268 4 -3 12 -17 18 -30 6 -14 22 -43 36 -65 13 -22 32 -53 41 -70 9 -16 22 -35 28 -41 6 -7 22 -29 36 -49 34 -49 152 -207 165 -221 5 -6 33 -37 60 -69 41 -47 169 -175 281 -281 35 -34 166 -137 209 -166 22 -15 58 -40 80 -56 22 -15 47 -31 55 -35 8 -4 38 -20 65 -36 28 -17 95 -53 150 -81 55 -29 107 -55 115 -60 36 -20 176 -105 189 -115 34 -25 231 -225 266 -270 22 -27 42 -52 45 -55 3 -3 21 -25 39 -50 19 -25 39 -50 45 -55 6 -6 16 -18 21 -27 6 -9 34 -51 63 -93 28 -42 52 -80 52 -85 0 -5 6 -15 13 -22 7 -7 23 -35 36 -63 12 -27 31 -69 42 -93 10 -23 19 -48 19 -55 0 -6 9 -34 19 -62 24 -62 54 -163 80 -275 11 -47 29 -128 42 -180 53 -228 124 -452 192 -600 54 -120 158 -319 187 -360 11 -16 20 -33 20 -38 0 -6 4 -12 8 -14 4 -1 35 -43 67 -93 70 -105 75 -111 98 -133 9 -9 17 -22 17 -29 0 -7 4 -13 10 -13 5 0 22 -19 39 -42 48 -70 210 -239 307 -324 31 -27 64 -56 73 -64 9 -8 45 -37 81 -65 36 -27 67 -52 70 -55 8 -11 211 -145 260 -172 25 -14 63 -35 85 -48 92 -53 237 -120 259 -120 8 0 18 -4 21 -10 3 -5 27 -16 53 -24 138 -44 197 -70 347 -156 22 -13 49 -28 60 -34 64 -36 220 -139 223 -148 2 -4 8 -8 13 -8 10 0 259 -179 291 -209 22 -21 39 -35 118 -99 78 -64 234 -207 301 -277 189 -196 231 -245 453 -525 6 -8 27 -39 45 -68 19 -28 38 -52 43 -52 5 0 7 -4 4 -9 -3 -5 1 -14 9 -21 8 -6 28 -35 45 -63 17 -29 44 -72 60 -97 16 -25 36 -58 44 -75 9 -16 21 -39 27 -50 22 -36 29 -50 41 -75 7 -14 21 -38 32 -55 12 -16 20 -31 18 -33 -1 -1 13 -35 32 -75 79 -166 116 -248 116 -257 0 -6 8 -29 19 -53 22 -50 50 -127 56 -153 5 -27 58 -178 102 -294 23 -62 69 -154 118 -240 10 -17 58 -89 80 -119 6 -8 62 -66 125 -130 130 -132 238 -210 388 -277 110 -50 149 -55 178 -21 38 44 84 118 84 136 0 12 -20 32 -52 52 -167 105 -342 266 -413 380 -5 9 -23 36 -39 60 -17 24 -41 67 -54 94 -13 28 -28 58 -33 67 -42 80 -90 251 -103 373 -12 106 -9 153 24 365 11 69 29 186 40 260 21 137 36 235 70 435 10 61 27 164 39 230 58 347 126 817 136 945 3 36 12 121 20 190 54 482 54 1268 -1 1715 -8 66 -16 142 -19 170 -8 81 -35 225 -56 296 -10 36 -19 72 -19 80 0 17 -63 211 -96 296 -13 35 -36 93 -50 130 -14 37 -30 74 -35 82 -4 9 -20 43 -34 76 -44 99 -149 309 -162 323 -7 7 -13 19 -13 26 0 8 -7 19 -15 26 -8 7 -15 19 -15 26 0 7 -20 44 -43 81 -24 37 -47 75 -51 83 -9 20 -23 42 -80 130 -95 145 -142 215 -158 235 -10 11 -38 47 -63 80 -84 111 -99 128 -240 270 -77 78 -185 177 -240 222 -103 82 -377 273 -394 273 -5 0 -14 7 -21 16 -8 8 -27 21 -44 29 -17 8 -60 31 -96 51 -36 20 -74 42 -85 48 -42 23 -141 92 -175 121 -82 70 -222 218 -260 275 -8 12 -20 28 -25 34 -19 21 -77 108 -101 151 -9 17 -22 37 -29 45 -10 13 -28 44 -82 145 -6 11 -23 49 -38 85 -14 36 -30 73 -36 82 -5 10 -9 26 -9 36 0 10 -4 22 -9 28 -13 13 -96 320 -112 416 -17 100 -99 357 -162 508 -55 131 -93 205 -174 345 -87 148 -83 142 -126 202 -20 29 -37 55 -37 58 0 3 -7 13 -15 23 -9 9 -53 64 -98 122 -130 166 -365 397 -536 527 -42 32 -77 61 -79 66 -2 4 -8 7 -13 7 -6 0 -33 17 -62 38 -118 84 -386 228 -513 276 -21 8 -59 22 -84 31 -90 33 -210 100 -251 139 -9 9 -19 16 -23 16 -11 0 -84 67 -206 190 -121 122 -212 242 -247 325 -33 78 -103 326 -103 363 0 19 -9 52 -49 187 -10 33 -29 98 -41 145 -67 258 -101 353 -182 520 -39 80 -79 156 -88 170 -66 97 -100 152 -100 159 0 4 -9 16 -20 26 -11 10 -20 22 -20 27 0 8 -44 72 -60 88 -3 3 -25 32 -49 65 -24 33 -52 69 -63 80 -10 11 -42 47 -71 79 -70 80 -260 269 -332 331 -32 28 -63 55 -69 60 -45 43 -176 145 -185 145 -6 0 -11 4 -11 8 0 8 -24 26 -160 120 -36 25 -67 48 -70 52 -4 5 -41 29 -105 67 -11 7 -29 16 -40 22 -12 5 -27 16 -34 25 -7 9 -17 16 -22 16 -4 0 -48 23 -96 51 -354 207 -650 313 -1073 384 -112 19 -107 19 -325 44 -308 36 -593 54 -1150 72 -187 6 -374 14 -415 19 -94 11 -581 11 -635 0z m2952 -995 c578 -76 1154 -429 1542 -945 307 -407 471 -846 488 -1300 16 -437 -118 -824 -379 -1096 -76 -80 -198 -183 -198 -169 0 3 18 38 39 78 317 579 206 1384 -281 2042 -101 136 -329 369 -464 475 -449 352 -1003 523 -1473 455 -306 -45 -537 -155 -743 -353 l-88 -85 14 41 c56 157 177 342 314 480 204 205 491 342 797 381 114 14 305 12 432 -4z m2791 -3396 c209 -23 416 -86 637 -194 389 -189 714 -479 968 -862 204 -307 322 -601 384 -953 28 -162 26 -516 -4 -666 -97 -477 -358 -830 -753 -1018 -142 -67 -146 -66 -58 25 134 139 236 307 301 496 187 536 86 1182 -272 1748 -315 498 -786 864 -1306 1013 -173 50 -230 57 -465 57 -200 -1 -235 -3 -315 -23 -151 -38 -286 -92 -392 -157 -24 -14 -43 -23 -43 -19 0 14 103 135 172 200 166 158 347 257 581 319 161 43 370 56 565 34z m2601 -3604 c705 -103 1370 -642 1705 -1383 159 -351 225 -674 213 -1036 -25 -771 -472 -1331 -1156 -1451 -47 -8 -99 -15 -116 -15 -26 0 -21 5 41 38 357 190 606 557 685 1012 99 570 -75 1207 -472 1737 -90 119 -263 300 -384 401 -453 379 -1036 546 -1512 432 -43 -10 -79 -17 -81 -15 -6 5 82 71 144 108 265 158 600 220 933 172z"/>
 <path d="M150 9010 c0 -7 3 -10 7 -7 3 4 3 10 0 14 -4 3 -7 0 -7 -7z"/>
 <path d="M2551 8740 c-39 -107 -70 -246 -83 -375 -41 -413 120 -805 442 -1080 116 -99 128 -105 71 -34 -210 261 -349 587 -402 943 -21 144 -26 421 -9 536 5 35 8 66 6 67 -2 2 -13 -24 -25 -57z"/>
 <path d="M150 7060 c0 -7 3 -10 7 -7 3 4 3 10 0 14 -4 3 -7 0 -7 -7z"/>
 <path d="M3300 6520 c0 -7 3 -10 7 -7 3 4 3 10 0 14 -4 3 -7 0 -7 -7z"/>
 <path d="M4406 4625 c3 -11 9 -114 11 -230 5 -224 -7 -358 -48 -532 -62 -260 -179 -515 -322 -704 -34 -45 -69 -92 -77 -103 -23 -33 64 38 159 129 185 177 300 376 362 627 33 135 34 396 1 550 -23 110 -62 233 -82 265 -11 16 -11 16 -4 -2z"/>
 </g>
<g id="layer102" fill="#b0cf0b" stroke="none">
 <path d="M4843 15843 c4 -3 10 -3 14 0 3 4 0 7 -7 7 -7 0 -10 -3 -7 -7z"/>
 <path d="M4775 14999 c-306 -39 -593 -176 -797 -381 -137 -138 -258 -323 -314 -480 l-14 -41 88 85 c206 198 437 308 743 353 470 68 1024 -103 1473 -455 135 -106 363 -339 464 -475 294 -397 461 -869 462 -1302 0 -257 -67 -533 -181 -740 -21 -40 -39 -75 -39 -78 0 -14 122 89 198 169 261 272 395 659 379 1096 -11 297 -80 569 -216 855 -358 747 -1069 1292 -1814 1390 -127 16 -318 18 -432 4z"/>
 <path d="M6545 14990 c3 -5 8 -10 11 -10 3 0 2 5 -1 10 -3 6 -8 10 -11 10 -3 0 -2 -4 1 -10z"/>
 <path d="M7601 11599 c-272 -32 -547 -161 -749 -353 -69 -65 -172 -186 -172 -200 0 -4 19 5 43 19 106 65 241 119 392 157 80 20 115 22 315 23 235 0 292 -7 465 -57 268 -77 542 -220 764 -401 203 -165 401 -388 542 -612 358 -566 459 -1212 272 -1748 -65 -189 -167 -357 -301 -496 -88 -91 -84 -92 58 -25 334 159 576 440 699 813 61 186 76 291 76 541 0 174 -4 249 -18 330 -62 352 -180 646 -384 953 -347 523 -854 891 -1408 1022 -181 43 -407 56 -594 34z"/>
 <path d="M3965 11280 c3 -5 8 -10 11 -10 3 0 2 5 -1 10 -3 6 -8 10 -11 10 -3 0 -2 -4 1 -10z"/>
 <path d="M4305 11030 c3 -5 8 -10 11 -10 3 0 2 5 -1 10 -3 6 -8 10 -11 10 -3 0 -2 -4 1 -10z"/>
 <path d="M5515 10240 c3 -5 8 -10 11 -10 3 0 2 5 -1 10 -3 6 -8 10 -11 10 -3 0 -2 -4 1 -10z"/>
 <path d="M5545 10200 c3 -5 8 -10 11 -10 3 0 2 5 -1 10 -3 6 -8 10 -11 10 -3 0 -2 -4 1 -10z"/>
 <path d="M1355 9926 c-236 -31 -504 -119 -643 -213 -18 -13 -37 -23 -42 -23 -5 0 -13 -6 -17 -13 -4 -6 -33 -31 -63 -54 -61 -46 -136 -123 -190 -193 -19 -25 -38 -46 -42 -48 -5 -2 -8 -10 -8 -17 0 -7 -4 -15 -9 -17 -11 -4 -111 -166 -111 -180 0 -5 -8 -22 -18 -36 -16 -23 -57 -126 -102 -252 -34 -99 -67 -241 -90 -390 -19 -120 -21 -169 -18 -445 4 -321 13 -418 59 -613 10 -45 19 -90 19 -100 0 -26 101 -358 130 -427 9 -22 27 -65 40 -95 12 -30 26 -62 30 -71 61 -121 117 -229 131 -249 9 -14 38 -60 65 -102 26 -43 51 -78 56 -78 4 0 8 -4 8 -10 0 -10 74 -111 125 -170 62 -72 253 -257 310 -300 33 -25 62 -48 63 -52 2 -5 9 -8 16 -8 7 0 21 -9 31 -20 10 -11 22 -20 26 -20 5 0 25 -11 45 -25 45 -30 197 -105 273 -134 274 -104 604 -124 861 -52 36 11 86 24 113 31 26 7 50 17 53 21 3 5 14 9 25 9 24 0 209 88 262 124 21 14 40 26 42 26 12 0 157 130 196 175 45 52 111 142 133 180 9 17 28 48 41 70 14 22 29 49 34 60 5 11 22 49 39 85 77 164 98 282 81 465 -15 168 -47 295 -139 540 -11 30 -30 81 -41 113 -12 31 -30 75 -40 97 -10 22 -21 52 -25 68 -3 15 -10 30 -15 33 -5 3 -9 12 -9 20 0 8 -8 34 -18 57 -11 23 -29 69 -41 102 -13 33 -31 80 -41 105 -28 73 -52 143 -60 180 -4 19 -15 55 -24 79 -9 24 -16 55 -16 68 0 14 -6 48 -14 76 -7 29 -23 108 -35 177 -83 465 -136 681 -202 815 -10 22 -19 45 -19 52 0 6 -6 18 -12 25 -7 7 -24 35 -38 62 -21 39 -114 143 -180 200 -28 24 -129 96 -135 96 -3 0 -15 9 -27 20 -26 24 -238 130 -260 130 -9 0 -32 7 -53 16 -96 40 -327 53 -510 30z m1215 -1196 c-17 -115 -12 -392 9 -536 53 -356 192 -682 402 -943 57 -71 45 -65 -71 34 -141 121 -245 254 -326 420 -128 263 -156 576 -79 880 24 95 65 218 71 212 2 -1 -1 -32 -6 -67z"/>
 <path d="M10640 9160 c0 -7 3 -10 7 -7 3 4 3 10 0 14 -4 3 -7 0 -7 -7z"/>
 <path d="M10125 7991 c-176 -32 -318 -84 -459 -168 -62 -37 -150 -103 -144 -108 2 -2 38 5 81 15 408 97 896 -9 1317 -287 666 -440 1108 -1273 1077 -2028 -25 -578 -284 -1040 -711 -1267 -62 -33 -67 -38 -41 -38 17 0 69 7 116 15 530 93 925 453 1085 989 85 283 97 629 34 956 -142 730 -643 1404 -1290 1734 -343 175 -739 245 -1065 187z"/>
 <path d="M12095 7840 c3 -5 8 -10 11 -10 3 0 2 5 -1 10 -3 6 -8 10 -11 10 -3 0 -2 -4 1 -10z"/>
 <path d="M12845 6840 c3 -5 8 -10 11 -10 3 0 2 5 -1 10 -3 6 -8 10 -11 10 -3 0 -2 -4 1 -10z"/>
 <path d="M5275 5776 c-201 -24 -414 -122 -610 -279 -122 -99 -177 -163 -241 -287 -85 -164 -138 -359 -214 -785 -12 -66 -30 -160 -41 -210 -11 -49 -19 -97 -19 -105 0 -26 -110 -381 -136 -437 -7 -17 -14 -36 -14 -42 0 -6 -9 -30 -19 -53 -43 -94 -61 -138 -61 -145 -1 -5 -9 -26 -20 -48 -11 -22 -19 -47 -20 -56 0 -8 -4 -19 -9 -25 -5 -5 -16 -29 -25 -54 -8 -25 -27 -76 -41 -115 -15 -38 -30 -83 -35 -100 -4 -16 -15 -50 -23 -75 -48 -139 -87 -344 -87 -453 0 -71 27 -208 52 -267 71 -166 122 -263 191 -364 51 -76 49 -74 122 -149 139 -143 282 -234 483 -306 187 -68 342 -96 522 -96 173 0 283 17 445 68 108 34 347 143 365 166 3 3 25 19 50 35 142 92 364 293 441 401 18 25 36 45 41 45 4 0 8 7 8 15 0 7 6 18 13 22 13 9 18 15 88 120 93 140 118 184 190 333 57 118 79 169 98 220 157 433 216 751 216 1175 0 292 -26 507 -86 705 -10 36 -19 69 -19 75 0 22 -53 149 -119 285 -55 113 -66 131 -136 227 -130 176 -291 316 -455 395 -187 90 -361 138 -590 164 -146 16 -172 16 -305 0z m-830 -1237 c52 -153 70 -271 70 -459 -1 -195 -17 -285 -80 -445 -82 -209 -238 -412 -435 -565 -49 -38 -49 -38 47 89 143 189 260 444 322 704 41 174 53 308 48 532 -2 116 -8 219 -11 230 -7 18 -7 18 4 2 6 -10 22 -49 35 -88z"/>
 <path d="M8885 4770 c3 -5 8 -10 11 -10 3 0 2 5 -1 10 -3 6 -8 10 -11 10 -3 0 -2 -4 1 -10z"/>
 <path d="M9415 4190 c3 -5 8 -10 11 -10 3 0 2 5 -1 10 -3 6 -8 10 -11 10 -3 0 -2 -4 1 -10z"/>
 <path d="M9535 4090 c3 -5 8 -10 11 -10 3 0 2 5 -1 10 -3 6 -8 10 -11 10 -3 0 -2 -4 1 -10z"/>
 <path d="M13330 3410 c0 -7 3 -10 7 -7 3 4 3 10 0 14 -4 3 -7 0 -7 -7z"/>
 <path d="M13265 570 c3 -5 8 -10 11 -10 3 0 2 5 -1 10 -3 6 -8 10 -11 10 -3 0 -2 -4 1 -10z"/>
 <path d="M13065 310 c3 -5 8 -10 11 -10 3 0 2 5 -1 10 -3 6 -8 10 -11 10 -3 0 -2 -4 1 -10z"/>
 <path d="M13624 8 c-4 -7 -3 -8 4 -4 12 7 16 16 8 16 -3 0 -8 -5 -12 -12z"/>
 </g>

</svg>