<?xml version="1.0" encoding="utf-8"?>
<!-- Generator: Adobe Illustrator 22.1.0, SVG Export Plug-In . SVG Version: 6.00 Build 0)  -->
<svg version="1.1" xmlns="http://www.w3.org/2000/svg" xmlns:xlink="http://www.w3.org/1999/xlink" x="0px" y="0px"
	 viewBox="0 0 384.8 43.7" style="enable-background:new 0 0 384.8 43.7;" xml:space="preserve">
<style type="text/css">
	.st0{fill:#FFFFFF;}
	.st1{fill:#3EBCC2;}
	.st2{fill:#595757;}
	.st3{fill:#69B32D;}
	.st4{fill:#5DAAD8;}
	.st5{fill:#EDA6C5;}
	.st6{fill:#0A9C91;}
	.st7{fill:none;stroke:#FFFFFF;stroke-width:0.4192;stroke-miterlimit:10;}
	.st8{opacity:0.1;}
	.st9{opacity:0.3;}
	.st10{fill:url(#SVGID_1_);}
	.st11{fill:#727272;}
	.st12{fill:#69B22D;}
	.st13{fill:#459543;}
	.st14{fill:#1B1B1B;}
	.st15{fill:#643231;}
	.st16{fill:none;stroke:#595757;stroke-width:0.8944;stroke-miterlimit:10;}
	.st17{fill:#A3A3A3;}
	.st18{fill:none;stroke:#A3A3A3;stroke-miterlimit:10;}
	.st19{fill:#E96447;}
	.st20{fill:#365FA8;}
	.st21{fill:#A961A0;}
	.st22{fill:#F1BC1B;}
	.st23{fill:#69B42D;}
	.st24{fill:#EDA6C5;stroke:#E5A2BF;stroke-width:1.5;stroke-linecap:round;stroke-linejoin:round;stroke-miterlimit:10;}
	.st25{fill:none;stroke:#FFFFFF;stroke-width:8;stroke-miterlimit:10;}
	.st26{fill:none;stroke:#FFFFFF;stroke-width:8;stroke-linecap:round;stroke-linejoin:round;stroke-miterlimit:10;}
	.st27{fill:#0A9D92;stroke:#11968C;stroke-width:1.1728;stroke-linejoin:round;stroke-miterlimit:10;}
</style>
<g id="レイヤー_2">
</g>
<g id="レイヤー_1">
	
		<rect x="309.8" y="16.1" transform="matrix(0.7071 0.7071 -0.7071 0.7071 109.1684 -217.2823)" class="st5" width="14" height="14"/>
	
		<rect x="338.9" y="16.1" transform="matrix(0.7071 0.7071 -0.7071 0.7071 117.667 -237.7999)" class="st5" width="14" height="14"/>
	
		<rect x="367.9" y="16.1" transform="matrix(0.7071 0.7071 -0.7071 0.7071 126.1657 -258.3176)" class="st5" width="14" height="14"/>
	<rect x="2.9" y="16.1" transform="matrix(0.7071 0.7071 -0.7071 0.7071 19.2688 -0.2456)" class="st5" width="14" height="14"/>
	<rect x="31.9" y="16.1" transform="matrix(0.7071 0.7071 -0.7071 0.7071 27.7675 -20.7632)" class="st5" width="14" height="14"/>
	<rect x="60.9" y="16.1" transform="matrix(0.7071 0.7071 -0.7071 0.7071 36.2662 -41.2809)" class="st5" width="14" height="14"/>
	<g>
		<path class="st24" d="M131.5,7.3h-14.1v9.8H131v5.8h-13.6v19.4h-6.1V1.5h20.2V7.3z"/>
		<path class="st24" d="M142.5,21.7c0-5.7,2.1-10.7,6.3-14.8c4.2-4.1,9.2-6.2,15-6.2c5.8,0,10.7,2.1,14.8,6.2
			c4.1,4.1,6.2,9.1,6.2,15c0,5.9-2.1,10.8-6.2,14.9c-4.2,4.1-9.2,6.1-15.1,6.1c-5.2,0-9.9-1.8-14.1-5.5
			C144.8,33.5,142.5,28.2,142.5,21.7z M148.7,21.8c0,4.5,1.5,8.2,4.5,11.1c3,2.9,6.4,4.4,10.4,4.4c4.2,0,7.8-1.5,10.8-4.4
			c2.9-3,4.4-6.6,4.4-10.9c0-4.3-1.4-8-4.3-10.9c-2.9-3-6.4-4.4-10.6-4.4c-4.2,0-7.8,1.5-10.7,4.4C150.2,13.9,148.7,17.5,148.7,21.8
			z"/>
		<path class="st24" d="M193.2,21.7c0-5.7,2.1-10.7,6.3-14.8c4.2-4.1,9.2-6.2,15-6.2c5.8,0,10.7,2.1,14.8,6.2
			c4.1,4.1,6.2,9.1,6.2,15c0,5.9-2.1,10.8-6.2,14.9c-4.2,4.1-9.2,6.1-15.1,6.1c-5.2,0-9.9-1.8-14.1-5.5
			C195.4,33.5,193.2,28.2,193.2,21.7z M199.3,21.8c0,4.5,1.5,8.2,4.5,11.1c3,2.9,6.4,4.4,10.4,4.4c4.2,0,7.8-1.5,10.8-4.4
			c2.9-3,4.4-6.6,4.4-10.9c0-4.3-1.4-8-4.3-10.9c-2.9-3-6.4-4.4-10.6-4.4c-4.2,0-7.8,1.5-10.7,4.4C200.8,13.9,199.3,17.5,199.3,21.8
			z"/>
		<path class="st24" d="M246.1,42.2V1.5h8.5c4.1,0,7.3,0.4,9.6,1.2c2.5,0.8,4.8,2.1,6.9,4c4.2,3.8,6.3,8.9,6.3,15.1
			c0,6.3-2.2,11.3-6.5,15.2c-2.2,1.9-4.5,3.3-6.9,4c-2.2,0.8-5.4,1.1-9.5,1.1H246.1z M252.2,36.5h2.8c2.7,0,5-0.3,6.8-0.9
			c1.8-0.6,3.5-1.6,4.9-2.9c3-2.8,4.5-6.4,4.5-10.8c0-4.5-1.5-8.1-4.5-10.9c-2.7-2.5-6.6-3.7-11.8-3.7h-2.8V36.5z"/>
	</g>
</g>
<g id="レイヤー_3">
</g>
<g id="hashtag">
</g>
<g id="レイヤー_6">
</g>
<g id="レイヤー_7">
</g>
<g id="_x23_">
</g>
<g id="tag_x5F_txt">
</g>
</svg>
