<!DOCTYPE svg PUBLIC "-//W3C//DTD SVG 20010904//EN" "http://www.w3.org/TR/2001/REC-SVG-20010904/DTD/svg10.dtd">
<svg version="1.0" xmlns="http://www.w3.org/2000/svg" width="468px" height="333px" viewBox="0 0 4680 3330" preserveAspectRatio="xMidYMid meet">
<g id="layerbg1" fill="#c6873f" stroke="none">
 <path d="M2307 2946 c-81 -29 -84 -59 -4 -47 63 10 133 -2 193 -32 53 -27 132 -104 158 -156 22 -42 40 -30 32 21 -14 85 -81 169 -166 207 -53 24 -155 27 -213 7z"/>
 <path d="M1887 2746 c-42 -15 -70 -36 -62 -45 4 -3 40 -4 80 -2 132 5 229 -47 306 -163 24 -36 46 -63 50 -58 12 12 -10 103 -36 147 -63 109 -217 164 -338 121z"/>
 <path d="M3970 2673 c-73 -9 -171 -55 -155 -72 4 -3 49 -4 100 -3 83 4 100 1 147 -21 71 -32 120 -76 164 -148 20 -32 41 -56 45 -53 17 10 9 79 -15 129 -49 106 -179 182 -286 168z"/>
 <path d="M1550 2618 c-38 -11 -64 -28 -55 -36 3 -3 36 -6 73 -7 87 -1 159 -38 216 -112 45 -57 63 -56 52 3 -11 54 -96 137 -158 152 -55 14 -80 14 -128 0z"/>
 <path d="M2395 2617 c-47 -18 -77 -38 -70 -45 3 -3 44 -5 90 -3 73 2 92 -1 139 -22 65 -30 138 -95 173 -154 30 -51 48 -47 39 9 -14 85 -82 169 -170 209 -47 21 -153 24 -201 6z"/>
 <path d="M3466 2454 c-43 -15 -80 -44 -70 -53 3 -3 47 -5 97 -3 85 3 97 1 152 -26 64 -32 126 -90 169 -160 15 -24 31 -40 37 -36 15 9 2 89 -21 135 -26 50 -119 133 -167 147 -53 16 -149 14 -197 -4z"/>
 <path d="M2025 2408 c-34 -12 -58 -29 -51 -36 3 -2 38 -5 78 -6 52 -1 84 -8 113 -23 42 -22 113 -92 135 -133 18 -33 30 -11 20 34 -28 125 -175 206 -295 164z"/>
 <path d="M3120 2324 c-40 -17 -71 -43 -65 -54 3 -4 24 -4 47 2 77 17 169 -8 228 -63 14 -13 41 -46 59 -72 42 -62 59 -52 41 24 -10 42 -24 64 -64 104 -73 72 -164 94 -246 59z"/>
 <path d="M3949 2313 c-30 -16 -52 -32 -49 -37 3 -6 52 -10 110 -10 88 -1 112 -4 146 -23 58 -31 99 -68 135 -119 50 -73 86 -51 54 33 -24 61 -84 126 -148 158 -74 36 -173 36 -248 -2z"/>
 <path d="M2550 2301 c-82 -17 -105 -55 -27 -45 87 12 179 -31 237 -112 40 -56 60 -48 41 16 -13 43 -63 100 -109 124 -36 18 -99 26 -142 17z"/>
 <path d="M3600 2114 c-40 -17 -72 -43 -65 -54 2 -4 25 -3 50 3 66 15 157 -5 208 -46 22 -17 55 -55 74 -84 35 -56 53 -61 53 -15 -1 67 -77 165 -152 197 -47 19 -122 19 -168 -1z"/>
 <path d="M4114 2007 c-79 -30 -102 -76 -27 -55 99 27 222 -33 274 -135 22 -42 39 -41 39 3 0 44 -18 81 -58 124 -66 68 -151 92 -228 63z"/>
 </g>
<g id="layerbg2" fill="#cc9248" stroke="none">
 <path d="M2365 2960 c-3 -5 0 -13 8 -16 23 -8 82 0 82 11 0 14 -82 19 -90 5z"/>
 <path d="M2312 2948 c-7 -7 -12 -9 -12 -5 0 4 -9 3 -20 -3 -11 -6 -17 -16 -14 -22 5 -7 2 -9 -9 -5 -19 7 -44 -18 -27 -28 5 -3 16 -3 23 2 6 4 19 8 27 8 8 0 15 5 15 12 0 15 13 28 28 28 14 0 22 18 10 22 -5 2 -14 -2 -21 -9z"/>
 <path d="M2475 2950 c-3 -6 6 -15 20 -20 15 -6 35 -15 45 -20 12 -6 21 -7 25 0 3 5 -12 18 -34 30 -46 23 -48 23 -56 10z"/>
 <path d="M4136 2950 c-33 -6 -89 -24 -125 -41 -36 -17 -154 -62 -261 -101 -107 -38 -199 -74 -205 -78 -39 -31 -305 -166 -380 -193 -58 -21 -113 -50 -149 -78 l-58 -44 7 -75 c3 -41 15 -112 25 -158 23 -96 25 -200 6 -255 -8 -20 -29 -62 -47 -92 -50 -82 -299 -376 -344 -406 -22 -14 -87 -47 -145 -73 -225 -100 -548 -281 -543 -304 2 -6 -4 -9 -11 -6 -8 3 -57 -17 -109 -45 l-94 -51 -6 -148 c-8 -167 3 -282 31 -362 11 -30 23 -77 26 -104 15 -121 118 -211 273 -237 60 -11 77 -10 150 10 45 11 98 21 117 21 92 0 176 32 307 116 39 26 152 88 251 140 98 51 216 116 261 144 45 29 159 93 252 143 94 49 204 111 245 137 105 66 281 157 441 230 75 33 152 75 173 92 65 54 314 364 361 451 41 73 46 179 15 308 -15 66 -25 147 -30 269 -9 185 -20 236 -67 319 -35 60 -52 128 -62 246 -9 101 -37 182 -73 213 -19 16 -160 23 -232 12z m-31 -320 c22 -9 55 -30 74 -46 35 -29 81 -115 80 -149 0 -18 -2 -18 -17 5 -40 60 -109 122 -165 150 -51 26 -72 30 -141 31 -65 0 -76 2 -56 11 70 28 156 28 225 -2z m-443 -192 c78 -23 156 -113 172 -198 l6 -35 -16 25 c-40 60 -122 134 -179 161 -49 24 -74 29 -135 30 -74 1 -74 1 -40 14 44 17 141 19 192 3z m-388 -130 c57 -17 120 -82 134 -139 l11 -44 -22 30 c-66 92 -143 138 -235 139 -58 1 -61 2 -35 13 37 16 95 16 147 1z m924 -14 c62 -31 103 -76 127 -138 18 -47 13 -77 -8 -41 -23 42 -99 113 -149 140 -43 23 -69 30 -138 33 -80 5 -83 6 -55 18 17 7 62 13 101 14 56 0 80 -5 122 -26z m-430 -200 c49 -20 90 -60 113 -109 28 -60 23 -73 -10 -28 -61 85 -147 132 -243 134 -27 0 -30 2 -13 9 33 14 113 11 153 -6z m497 -113 c47 -22 89 -64 104 -104 19 -48 12 -48 -36 4 -57 61 -107 88 -176 96 -38 5 -46 8 -32 14 35 14 99 9 140 -10z m-1689 -742 c-55 -61 -69 -107 -64 -207 3 -61 1 -70 -9 -55 -15 20 -33 79 -33 109 0 71 51 157 115 192 39 22 36 11 -9 -39z m-403 -168 c-73 -72 -97 -127 -101 -232 -2 -47 1 -103 7 -125 l10 -39 -19 25 c-24 30 -50 111 -50 155 0 96 70 208 155 246 22 10 42 19 44 19 2 0 -19 -22 -46 -49z m135 -259 c-57 -60 -71 -103 -66 -197 3 -67 2 -71 -12 -51 -8 11 -16 50 -18 87 -6 94 25 151 103 192 17 9 32 16 34 17 2 0 -16 -22 -41 -48z m-434 -47 c-33 -79 -11 -189 51 -264 l29 -34 -30 16 c-35 18 -56 41 -79 86 -24 48 -17 144 14 194 28 46 34 47 15 2z"/>
 <path d="M2405 2911 c-6 -10 13 -26 21 -18 3 3 32 -10 65 -28 32 -19 61 -30 64 -25 2 4 -1 12 -8 18 -22 17 -97 53 -97 45 0 -4 -5 -2 -12 5 -14 14 -25 15 -33 3z"/>
 <path d="M2586 2892 c-3 -5 5 -19 18 -31 13 -13 26 -18 30 -13 3 5 -5 19 -18 31 -13 13 -26 18 -30 13z"/>
 <path d="M2637 2834 c-3 -4 1 -21 10 -38 10 -17 16 -36 15 -43 -3 -16 15 -26 23 -13 4 6 1 17 -5 25 -7 8 -10 15 -6 15 4 0 0 14 -9 30 -17 32 -18 33 -28 24z"/>
 <path d="M1955 2761 c-7 -13 17 -24 40 -19 9 1 16 8 16 13 0 14 -48 19 -56 6z"/>
 <path d="M1892 2748 c-7 -7 -12 -9 -12 -5 0 10 -54 -18 -69 -36 -14 -18 2 -33 22 -20 6 4 19 8 27 8 8 0 15 5 15 12 0 15 13 28 28 28 14 0 22 18 10 22 -5 2 -14 -2 -21 -9z"/>
 <path d="M2045 2751 c-3 -6 16 -19 42 -31 26 -11 55 -28 64 -36 10 -9 20 -11 23 -6 7 12 -19 35 -71 61 -48 24 -50 24 -58 12z"/>
 <path d="M2647 2734 c-9 -10 22 -66 33 -59 6 4 4 18 -5 36 -17 31 -18 32 -28 23z"/>
 <path d="M1975 2710 c-3 -5 -3 -11 2 -12 12 -2 27 -5 36 -8 4 -1 10 -3 15 -4 4 -1 17 -7 29 -14 13 -7 24 -8 28 -3 3 6 -4 15 -15 21 -11 6 -20 8 -20 4 0 -3 -7 -1 -15 6 -8 7 -15 9 -15 4 0 -4 -5 -3 -12 4 -15 15 -25 15 -33 2z"/>
 <path d="M2198 2654 c-3 -2 7 -29 23 -59 23 -45 25 -55 14 -65 -12 -10 -12 -16 1 -42 9 -16 18 -27 21 -24 11 11 14 75 3 81 -6 3 -8 10 -5 15 3 5 -3 27 -14 49 -21 40 -34 54 -43 45z"/>
 <path d="M2127 2642 c-4 -5 9 -23 27 -41 19 -18 36 -29 39 -23 4 5 -9 23 -27 41 -19 18 -36 29 -39 23z"/>
 <path d="M2455 2630 c-3 -5 0 -13 9 -16 21 -8 61 -1 61 11 0 14 -62 19 -70 5z"/>
 <path d="M1559 2623 c-1 -4 -1 -12 0 -17 1 -5 -4 -4 -13 3 -15 13 -23 6 -22 -19 1 -11 14 -15 46 -16 25 -1 56 -6 70 -12 14 -5 29 -7 33 -5 12 7 -8 26 -30 28 -30 4 -68 22 -65 31 2 5 -1 10 -7 12 -6 2 -12 0 -12 -5z"/>
 <path d="M1645 2621 c-6 -11 1 -16 37 -25 36 -8 46 11 13 24 -33 12 -42 13 -50 1z"/>
 <path d="M2556 2621 c-4 -5 -2 -12 4 -16 5 -3 10 -4 10 0 0 3 18 -6 40 -20 21 -13 42 -20 45 -15 6 9 -34 40 -57 44 -7 1 -18 5 -25 9 -6 4 -14 3 -17 -2z"/>
 <path d="M1474 2586 c-18 -14 -18 -15 -1 -22 22 -8 46 11 31 26 -7 7 -17 5 -30 -4z"/>
 <path d="M2320 2583 c-23 -17 -13 -42 12 -27 7 5 21 8 30 9 24 0 24 17 0 26 -12 5 -28 2 -42 -8z"/>
 <path d="M2475 2580 c-6 -10 15 -23 31 -18 5 1 28 -8 51 -20 24 -13 44 -18 48 -12 3 5 -12 18 -35 30 -22 11 -40 17 -40 13 0 -4 -5 -2 -12 5 -15 15 -35 16 -43 2z"/>
 <path d="M1758 2575 c-4 -4 8 -26 27 -49 18 -22 34 -44 34 -48 1 -5 3 -8 6 -8 3 0 8 0 11 0 4 0 1 6 -5 13 -6 8 -9 16 -6 19 3 2 -10 22 -27 42 -18 21 -36 35 -40 31z"/>
 <path d="M2666 2562 c-3 -5 3 -17 13 -26 11 -10 22 -13 25 -8 3 5 -3 17 -13 26 -11 10 -22 13 -25 8z"/>
 <path d="M1727 2532 c-4 -5 9 -23 27 -41 19 -18 36 -29 39 -23 4 5 -9 23 -27 41 -19 18 -36 29 -39 23z"/>
 <path d="M2717 2504 c-3 -4 1 -21 10 -38 10 -17 16 -36 15 -43 -3 -16 15 -26 23 -13 4 6 1 17 -5 25 -7 8 -10 15 -6 15 4 0 0 14 -9 30 -17 32 -18 33 -28 24z"/>
 <path d="M1796 2452 c-2 -2 5 -19 16 -38 23 -39 42 -33 36 12 -2 20 -9 28 -26 29 -12 1 -24 0 -26 -3z"/>
 <path d="M2686 2452 c-3 -5 3 -17 13 -26 11 -10 22 -13 25 -8 3 5 -3 17 -13 26 -11 10 -22 13 -25 8z"/>
 <path d="M2005 2406 c-37 -16 -60 -42 -45 -51 5 -3 15 -3 21 1 27 16 130 6 179 -18 47 -23 76 -23 47 0 -25 20 -78 43 -87 37 -5 -3 -11 -1 -15 5 -3 5 -17 10 -31 10 -13 0 -23 5 -21 11 3 18 -15 19 -48 5z"/>
 <path d="M2145 2411 c-4 -8 57 -43 88 -49 22 -5 5 16 -29 35 -44 25 -50 27 -59 14z"/>
 <path d="M2727 2404 c-9 -10 22 -66 33 -59 6 4 4 18 -5 36 -17 31 -18 32 -28 23z"/>
 <path d="M2267 2334 c-8 -9 34 -75 44 -68 5 3 2 18 -6 34 -16 31 -29 43 -38 34z"/>
 <path d="M2539 2303 c-1 -4 -1 -12 0 -17 1 -5 -4 -4 -12 2 -11 10 -20 8 -41 -9 -27 -22 -22 -50 5 -33 8 4 30 7 51 5 44 -3 63 6 49 22 -5 7 -9 17 -8 22 1 6 -8 11 -20 13 -13 2 -24 0 -24 -5z"/>
 <path d="M2615 2300 c-6 -10 15 -23 31 -18 5 1 19 -3 31 -10 13 -7 24 -8 28 -3 3 6 -4 15 -15 21 -11 6 -20 7 -20 3 0 -4 -5 -2 -12 5 -15 15 -35 16 -43 2z"/>
 <path d="M2267 2264 c-7 -8 43 -85 52 -80 4 3 7 19 6 38 0 22 -4 32 -14 30 -7 -1 -19 2 -25 8 -7 5 -16 7 -19 4z"/>
 <path d="M2616 2261 c-4 -5 -2 -12 4 -16 5 -3 10 -3 10 0 0 4 13 -3 29 -15 16 -11 32 -16 35 -11 6 10 -16 32 -36 35 -7 1 -18 5 -25 9 -6 4 -14 3 -17 -2z"/>
 <path d="M2756 2221 c-4 -5 -2 -12 3 -15 5 -3 14 -20 20 -36 5 -17 6 -28 1 -25 -5 3 -11 1 -14 -4 -12 -19 12 -20 28 -2 16 18 16 22 2 49 -18 35 -32 46 -40 33z"/>
 <path d="M2706 2212 c-3 -5 5 -19 18 -31 13 -13 26 -18 30 -13 3 5 -5 19 -18 31 -13 13 -26 18 -30 13z"/>
 </g>
<g id="layerbg3" fill="#d5a256" stroke="none">
 <path d="M2508 3235 c-31 -8 -79 -26 -105 -39 -26 -14 -131 -55 -233 -91 -102 -37 -219 -86 -260 -109 -141 -81 -265 -144 -320 -161 -74 -24 -114 -45 -185 -99 -33 -25 -134 -83 -225 -128 -91 -44 -187 -96 -215 -115 -27 -18 -87 -45 -132 -58 -46 -14 -136 -49 -200 -78 -65 -30 -176 -77 -248 -106 -166 -66 -246 -109 -264 -142 -13 -23 -13 -42 -1 -141 l13 -115 -37 -76 c-39 -83 -44 -122 -21 -187 8 -24 15 -77 15 -119 0 -43 5 -104 11 -137 7 -33 12 -163 13 -294 1 -214 3 -241 23 -300 12 -36 27 -91 33 -122 20 -100 99 -179 214 -213 58 -17 146 -19 196 -5 19 6 82 17 140 24 118 16 169 35 269 100 75 49 227 134 366 203 49 25 115 62 145 83 88 59 410 233 418 225 4 -3 7 -11 7 -16 0 -5 3 -9 8 -9 4 0 10 0 13 0 4 0 2 6 -4 13 -6 6 -10 17 -10 22 2 19 307 194 438 250 250 108 259 115 453 349 118 143 170 219 193 283 19 56 17 160 -6 255 -15 58 -23 139 -29 273 -9 209 -7 197 -62 310 -41 85 -69 201 -69 289 0 69 -52 177 -90 187 -44 12 -193 8 -252 -6z m15 -311 c60 -32 96 -66 122 -117 39 -79 32 -98 -15 -39 -44 56 -83 88 -150 123 -36 19 -61 24 -127 24 -45 0 -79 2 -77 4 2 2 25 10 51 17 58 17 151 11 196 -12z m-418 -206 c75 -38 123 -99 140 -178 l7 -35 -29 40 c-86 116 -178 169 -295 170 -79 0 -81 9 -5 25 56 11 133 2 182 -22z m500 -127 c51 -23 103 -74 126 -126 32 -70 23 -83 -21 -28 -45 57 -85 90 -150 123 -35 18 -62 24 -122 24 -42 1 -74 3 -72 5 2 2 25 10 51 17 57 16 132 10 188 -15z m-864 -18 c43 -30 66 -64 83 -120 5 -14 -17 1 -61 46 -72 71 -113 90 -194 92 -35 0 -40 2 -24 10 11 5 49 7 85 6 54 -2 73 -8 111 -34z m457 -192 c47 -24 77 -56 97 -103 23 -57 18 -65 -14 -21 -58 81 -136 123 -228 124 -80 1 -39 17 45 18 43 1 74 -5 100 -18z m511 -124 c43 -29 81 -79 81 -109 0 -11 -15 -1 -46 32 -58 62 -114 90 -185 91 -41 0 -49 3 -34 10 11 5 48 7 81 6 48 -2 71 -9 103 -30z m-1986 -59 c-75 -78 -98 -139 -96 -248 0 -41 6 -88 12 -103 16 -41 -5 -24 -30 25 -47 92 -30 223 38 299 29 32 109 86 132 89 2 0 -23 -28 -56 -62z m158 -244 c-24 -25 -50 -62 -58 -82 -16 -38 -21 -147 -9 -192 4 -16 -2 -10 -16 15 -49 87 -19 215 64 275 59 43 67 37 19 -16z m-459 -229 c-68 -61 -102 -132 -109 -227 -3 -41 -1 -90 6 -112 14 -53 8 -55 -20 -9 -28 44 -37 145 -20 209 16 60 64 119 123 154 73 42 79 38 20 -15z m571 -189 c-59 -64 -77 -118 -71 -211 2 -36 3 -65 1 -65 -1 0 -9 13 -18 30 -34 66 -10 196 46 246 20 18 76 52 88 54 1 0 -19 -24 -46 -54z m-411 -175 c-66 -66 -94 -128 -100 -221 -2 -41 1 -93 7 -114 15 -57 6 -56 -23 3 -28 55 -35 144 -16 212 13 45 80 123 129 149 55 29 56 24 3 -29z m136 -258 c-54 -58 -73 -118 -66 -206 l6 -62 -20 40 c-39 83 -7 197 70 250 56 38 59 30 10 -22z m-434 -48 c-33 -79 -10 -183 57 -260 l34 -38 -30 16 c-62 32 -105 103 -105 174 0 21 11 62 25 91 27 58 42 72 19 17z"/>
 <path d="M2625 1312 c-3 -3 0 -11 6 -18 8 -10 16 -11 31 -3 11 6 17 13 14 17 -8 7 -44 10 -51 4z"/>
 <path d="M2572 1290 c-18 -11 -30 -25 -27 -30 4 -6 17 -3 33 7 l27 17 -26 -30 c-34 -37 -63 -84 -54 -84 4 0 2 -7 -5 -15 -6 -8 -9 -19 -5 -25 8 -13 27 -2 22 13 -5 14 23 58 65 103 24 25 26 33 16 47 -12 16 -15 16 -46 -3z"/>
 <path d="M2490 1215 c-6 -8 -13 -20 -14 -27 -1 -7 -5 -18 -9 -25 -4 -6 -3 -14 2 -17 5 -4 12 -2 16 4 3 5 3 10 0 10 -4 0 3 13 15 29 21 30 12 53 -10 26z"/>
 <path d="M2245 1139 c-4 -6 -13 -8 -21 -5 -21 8 -27 -12 -6 -23 21 -11 67 13 57 30 -8 12 -22 11 -30 -2z"/>
 <path d="M2152 1110 c-46 -28 -30 -44 16 -18 37 22 37 22 19 1 -22 -26 -6 -40 17 -14 15 16 15 19 -2 34 -17 15 -20 15 -50 -3z"/>
 <path d="M2455 1118 c-9 -22 -2 -68 10 -71 14 -3 19 63 6 76 -7 7 -12 5 -16 -5z"/>
 <path d="M2505 1098 c-9 -24 -2 -93 10 -93 14 0 19 85 6 98 -7 7 -12 5 -16 -5z"/>
 <path d="M2468 1024 c-11 -11 21 -66 34 -58 7 5 9 2 5 -8 -7 -19 28 -55 38 -39 3 6 3 17 -2 24 -4 6 -8 19 -8 27 0 9 -7 14 -17 12 -10 -2 -18 1 -18 6 0 15 -25 43 -32 36z"/>
 <path d="M2035 990 c-8 -16 -13 -30 -9 -30 4 0 1 -6 -5 -14 -8 -10 -9 -16 -1 -21 5 -3 11 -4 11 -1 1 3 2 9 3 14 1 4 10 21 19 39 10 19 13 34 7 38 -5 3 -16 -8 -25 -25z"/>
 <path d="M2110 1005 c-6 -8 -13 -22 -15 -32 -2 -10 -4 -19 -5 -20 -2 -2 -3 -6 -4 -10 -1 -5 -5 -13 -9 -20 -4 -6 -3 -14 3 -18 5 -3 11 -4 11 -1 1 3 2 9 3 14 1 4 5 13 9 20 5 6 5 12 2 12 -4 0 3 13 15 29 21 30 12 53 -10 26z"/>
 <path d="M2005 898 c-9 -24 -2 -93 10 -93 14 0 19 85 6 98 -7 7 -12 5 -16 -5z"/>
 <path d="M2065 868 c-9 -24 -1 -103 10 -103 14 0 19 95 6 108 -7 7 -12 5 -16 -5z"/>
 <path d="M2315 863 c-67 -35 -140 -132 -116 -156 6 -6 15 3 26 29 17 42 49 80 80 96 17 9 17 8 -3 -15 -13 -14 -19 -27 -14 -31 12 -7 64 48 55 59 -5 4 -1 6 9 2 21 -8 31 3 17 20 -14 16 -17 16 -54 -4z"/>
 <path d="M1872 807 c-18 -19 -19 -26 -9 -37 10 -10 9 -12 -5 -7 -12 4 -21 -1 -28 -13 -6 -11 -8 -20 -4 -20 3 0 1 -7 -6 -15 -6 -8 -9 -19 -5 -25 8 -14 28 -2 22 14 -6 16 19 50 27 37 4 -5 2 -12 -4 -16 -5 -3 -10 -26 -10 -50 0 -24 5 -47 10 -50 6 -4 8 -10 5 -15 -8 -14 24 -72 36 -65 5 4 7 10 4 14 -31 51 -36 145 -10 208 9 23 17 46 17 50 -1 17 -19 12 -40 -10z"/>
 <path d="M2017 783 c-4 -3 -2 -12 4 -20 6 -7 8 -13 5 -13 -4 0 -2 -9 4 -20 6 -11 15 -18 21 -15 5 4 4 15 -3 28 -7 12 -12 25 -13 29 0 11 -11 18 -18 11z"/>
 <path d="M2260 760 c-6 -11 -8 -20 -4 -20 3 0 1 -6 -5 -14 -8 -10 -9 -16 -1 -21 5 -3 11 -4 11 -1 1 3 2 9 3 14 1 4 7 17 14 29 7 13 8 24 3 28 -6 3 -15 -4 -21 -15z"/>
 <path d="M2056 702 c-8 -13 40 -56 53 -47 8 4 8 12 0 26 -6 12 -13 18 -16 15 -4 -3 -12 -1 -19 5 -7 6 -15 6 -18 1z"/>
 <path d="M2235 678 c-9 -23 -2 -83 10 -83 14 0 19 75 6 88 -7 7 -12 5 -16 -5z"/>
 <path d="M1816 611 c-9 -14 32 -93 44 -86 5 3 1 23 -9 45 -21 48 -27 55 -35 41z"/>
 <path d="M2236 557 c-16 -12 -15 -14 7 -36 26 -23 49 -13 28 13 -6 7 -8 15 -5 18 12 13 -14 17 -30 5z"/>
 <path d="M1925 500 c-3 -5 -10 -8 -15 -5 -5 3 -11 1 -15 -4 -3 -6 8 -17 24 -25 24 -13 31 -13 40 -2 8 10 6 17 -8 30 -13 12 -21 14 -26 6z"/>
 </g>
<g id="layerbg4" fill="#dab071" stroke="none">
 <path d="M758 2269 c-10 -5 -15 -15 -12 -22 2 -7 -11 -28 -30 -46 -20 -19 -33 -38 -29 -43 9 -15 82 62 76 80 -5 12 -1 14 15 10 12 -3 29 0 39 8 10 7 16 14 13 14 -33 7 -59 7 -72 -1z"/>
 <path d="M605 2146 c-9 -14 -18 -31 -19 -38 -1 -7 -5 -18 -9 -25 -4 -6 -3 -14 2 -17 5 -4 12 -2 16 4 3 5 4 10 0 10 -3 0 6 18 20 40 13 21 20 42 15 45 -5 3 -16 -6 -25 -19z"/>
 <path d="M649 2105 c-15 -33 -18 -50 -10 -58 7 -7 12 -5 17 9 4 10 13 34 20 51 21 53 -4 50 -27 -2z"/>
 <path d="M564 2036 c-4 -10 -2 -22 4 -28 8 -8 13 -7 18 6 4 10 2 22 -4 28 -8 8 -13 7 -18 -6z"/>
 <path d="M902 2015 c-18 -8 -31 -19 -27 -25 4 -6 12 -7 18 -4 7 4 2 -4 -11 -18 -12 -13 -19 -28 -15 -31 10 -10 64 44 56 56 -4 6 0 8 10 4 16 -6 41 15 30 26 -9 10 -24 8 -61 -8z"/>
 <path d="M564 1965 c-4 -9 -2 -21 4 -27 6 -6 9 -16 6 -22 -5 -14 39 -93 48 -86 4 3 13 -4 21 -14 19 -26 30 -6 17 29 -8 21 -13 25 -24 16 -11 -9 -17 -3 -31 31 -10 24 -17 50 -16 60 3 22 -18 33 -25 13z"/>
 <path d="M624 1926 c-8 -21 3 -49 16 -41 5 3 10 15 10 25 0 25 -18 36 -26 16z"/>
 <path d="M770 1880 c-11 -21 -5 -44 9 -35 13 7 20 44 11 50 -5 3 -14 -4 -20 -15z"/>
 <path d="M755 1817 c-9 -22 -2 -62 10 -60 6 1 11 14 13 29 4 32 -14 56 -23 31z"/>
 <path d="M804 1816 c-4 -10 -2 -22 4 -28 8 -8 13 -7 18 6 4 10 2 22 -4 28 -8 8 -13 7 -18 -6z"/>
 <path d="M417 1769 c-21 -11 -35 -24 -32 -29 4 -6 19 -4 37 6 16 9 27 11 24 6 -9 -16 10 -24 21 -9 12 16 11 40 -2 43 -5 2 -27 -6 -48 -17z"/>
 <path d="M804 1746 c-4 -10 -2 -22 4 -28 8 -8 13 -7 18 6 4 10 2 22 -4 28 -8 8 -13 7 -18 -6z"/>
 <path d="M331 1706 c-18 -19 -29 -36 -23 -39 5 -4 23 9 41 27 18 19 29 36 23 39 -5 4 -23 -9 -41 -27z"/>
 <path d="M786 1691 c-9 -14 45 -74 57 -62 5 5 6 15 1 23 -5 7 -9 18 -9 23 0 6 -4 10 -10 10 -5 0 -15 4 -22 8 -6 4 -14 3 -17 -2z"/>
 <path d="M275 1629 c-9 -17 -14 -33 -11 -37 3 -3 1 -11 -5 -18 -6 -7 -8 -18 -4 -24 8 -13 26 -3 24 13 -2 11 14 58 26 78 3 4 1 10 -4 14 -6 3 -17 -8 -26 -26z"/>
 <path d="M340 1630 c-6 -11 -8 -20 -4 -20 3 0 1 -6 -5 -14 -8 -10 -9 -16 -1 -21 5 -3 11 -4 11 -1 1 3 2 9 3 14 1 4 7 17 14 29 7 13 8 24 3 28 -6 3 -15 -4 -21 -15z"/>
 <path d="M1069 1613 c-1 -4 -1 -12 0 -16 1 -4 -8 -3 -18 3 -13 7 -22 7 -26 0 -3 -5 -3 -10 1 -10 3 0 -12 -20 -35 -45 -23 -25 -39 -50 -35 -56 4 -6 17 2 33 21 14 17 44 46 65 64 26 22 35 35 28 40 -7 4 -13 4 -13 -1z"/>
 <path d="M905 1506 c-9 -14 -18 -31 -19 -38 -1 -7 -5 -19 -9 -25 -5 -7 -5 -18 -2 -23 8 -13 27 -2 22 13 -2 7 7 29 19 49 26 41 15 64 -11 24z"/>
 <path d="M256 1451 c-4 -5 0 -26 8 -46 19 -45 39 -38 24 8 -13 39 -24 52 -32 38z"/>
 <path d="M642 1424 c-6 -11 -11 -13 -16 -5 -5 7 -19 5 -47 -9 -22 -12 -37 -25 -34 -30 4 -6 19 -3 38 7 26 13 30 13 20 1 -24 -29 -1 -26 42 4 42 30 50 48 20 48 -8 0 -18 -7 -23 -16z"/>
 <path d="M294 1358 c-5 -8 3 -12 19 -9 4 1 12 -11 18 -26 6 -17 13 -23 20 -16 16 16 -5 56 -30 58 -12 1 -24 -2 -27 -7z"/>
 <path d="M548 1332 c-23 -27 -29 -40 -20 -46 5 -3 18 8 30 24 23 31 14 51 -10 22z"/>
 <path d="M875 1330 c-3 -5 1 -22 9 -38 10 -20 22 -28 38 -27 13 1 22 6 20 11 -2 5 -9 8 -17 6 -7 -1 -18 11 -23 28 -12 32 -17 36 -27 20z"/>
 <path d="M2605 1301 c-95 -43 -145 -117 -145 -215 0 -57 23 -119 53 -145 22 -18 26 -2 15 58 -22 109 20 223 102 277 22 15 37 30 34 35 -7 12 -13 11 -59 -10z"/>
 <path d="M440 1269 c-7 -11 -9 -23 -6 -26 3 -4 1 -12 -5 -19 -6 -7 -8 -18 -4 -24 9 -14 28 -1 21 16 -3 7 -1 16 3 19 13 7 20 44 11 50 -5 3 -14 -4 -20 -16z"/>
 <path d="M500 1250 c-6 -11 -8 -20 -4 -20 3 0 1 -7 -6 -15 -6 -8 -9 -19 -5 -25 8 -13 26 -3 23 13 -1 7 3 22 10 34 7 13 8 24 3 28 -6 3 -15 -4 -21 -15z"/>
 <path d="M915 1250 c-2 -4 4 -15 15 -25 18 -16 20 -17 26 -1 4 9 4 20 0 23 -10 10 -35 12 -41 3z"/>
 <path d="M775 1170 c-4 -6 -10 -8 -15 -5 -14 8 -52 -14 -45 -26 4 -5 12 -6 18 -3 7 4 -1 -7 -16 -23 -16 -17 -24 -33 -19 -37 12 -7 74 58 65 69 -5 4 0 5 9 2 17 -6 43 15 31 26 -9 10 -21 8 -28 -3z"/>
 <path d="M666 1111 c-15 -16 -23 -31 -18 -35 5 -3 21 8 36 23 15 16 23 31 18 35 -5 3 -21 -8 -36 -23z"/>
 <path d="M2184 1121 c-61 -28 -124 -89 -150 -146 -29 -60 -32 -165 -8 -223 28 -67 99 -122 74 -57 -20 53 -23 149 -6 215 19 75 56 131 115 177 64 49 50 68 -25 34z"/>
 <path d="M286 1101 c-28 -29 -28 -29 -7 -40 18 -10 22 -7 37 20 22 44 4 56 -30 20z"/>
 <path d="M425 1090 c-8 -13 13 -52 25 -45 9 6 2 43 -11 50 -4 3 -10 1 -14 -5z"/>
 <path d="M620 1049 c-7 -11 -9 -23 -6 -26 3 -4 1 -12 -5 -19 -6 -7 -8 -18 -4 -24 9 -14 28 -1 21 16 -3 7 -1 16 3 19 13 7 20 44 11 50 -5 3 -14 -4 -20 -16z"/>
 <path d="M664 1034 c-11 -25 -12 -40 -5 -47 7 -7 12 -6 15 4 3 8 10 26 15 41 16 43 -7 45 -25 2z"/>
 <path d="M1901 1057 c-8 -11 -6 -18 8 -31 23 -21 37 -6 21 24 -13 24 -14 24 -29 7z"/>
 <path d="M239 1026 c-1 -3 -2 -9 -3 -13 -1 -5 -5 -14 -9 -20 -5 -7 -5 -18 -2 -23 9 -14 28 -1 21 15 -2 7 0 17 6 23 6 6 6 12 -1 16 -6 4 -12 5 -12 2z"/>
 <path d="M457 1023 c-8 -12 21 -55 33 -48 4 3 10 -5 14 -17 4 -16 8 -20 16 -12 14 14 -5 68 -21 59 -6 -4 -16 1 -23 11 -8 10 -16 13 -19 7z"/>
 <path d="M265 997 c-9 -22 -2 -62 10 -60 6 1 11 14 13 29 4 32 -14 56 -23 31z"/>
 <path d="M224 926 c-4 -9 -1 -23 6 -31 7 -8 10 -15 6 -15 -4 0 1 -14 9 -30 9 -17 20 -28 25 -25 6 4 3 19 -7 38 -9 18 -16 39 -15 49 4 22 -17 33 -24 14z"/>
 <path d="M605 930 c-4 -6 -1 -18 7 -27 7 -9 12 -18 11 -20 -2 -1 -1 -3 2 -3 3 0 8 0 12 0 4 0 2 5 -4 11 -6 6 -9 17 -7 24 7 16 -12 29 -21 15z"/>
 <path d="M276 911 c-4 -5 -2 -12 4 -16 6 -4 8 -10 5 -14 -2 -5 9 -29 26 -55 16 -26 25 -45 20 -42 -5 4 -12 2 -16 -3 -8 -13 53 -44 72 -37 12 5 8 14 -20 46 -33 35 -71 95 -72 112 0 13 -13 19 -19 9z"/>
 <path d="M646 861 c-21 -23 -6 -36 20 -16 14 10 16 17 8 25 -7 7 -15 5 -28 -9z"/>
 <path d="M2325 861 c-50 -22 -109 -86 -125 -136 -18 -55 -8 -127 25 -175 16 -23 32 -37 37 -32 4 4 3 34 -3 66 -21 103 18 208 96 256 19 12 33 26 29 31 -7 12 -13 11 -59 -10z"/>
 <path d="M1862 785 c-54 -61 -65 -140 -31 -215 25 -56 44 -77 92 -101 47 -24 67 -15 34 15 -13 12 -37 44 -53 72 -25 42 -29 59 -29 119 0 47 6 81 18 102 24 45 5 50 -31 8z"/>
 </g>
<g id="layerbg5" fill="#e0bd86" stroke="none">
 <path d="M752 2262 c-179 -72 -241 -288 -126 -439 14 -18 29 -31 33 -28 5 2 2 28 -6 57 -9 35 -13 80 -10 132 7 104 41 173 117 235 72 59 70 74 -8 43z"/>
 <path d="M893 2005 c-49 -21 -109 -89 -123 -140 -19 -68 -9 -146 24 -190 35 -45 48 -35 35 25 -14 57 -6 138 17 187 10 21 38 57 61 79 53 52 48 66 -14 39z"/>
 <path d="M425 1766 c-134 -62 -205 -218 -160 -347 32 -90 99 -143 75 -59 -15 52 -12 169 5 227 17 56 87 143 137 169 16 8 26 19 23 24 -9 15 -25 12 -80 -14z"/>
 <path d="M1022 1600 c-112 -45 -179 -187 -138 -294 16 -42 55 -89 57 -70 1 5 1 48 -1 95 -1 70 2 96 20 135 24 56 53 90 93 110 45 24 19 44 -31 24z"/>
 <path d="M579 1405 c-63 -33 -126 -106 -144 -168 -28 -95 -17 -165 38 -245 33 -49 52 -45 37 8 -6 19 -10 73 -10 120 0 70 5 95 26 140 28 60 74 114 117 136 29 15 28 34 -1 34 -9 -1 -38 -12 -63 -25z"/>
 <path d="M735 1156 c-16 -7 -48 -33 -71 -58 -73 -79 -79 -184 -17 -266 28 -37 47 -35 33 4 -6 14 -10 57 -10 96 0 87 25 145 81 190 21 17 36 35 33 39 -7 12 -13 11 -49 -5z"/>
 <path d="M276 1081 c-34 -36 -58 -113 -50 -160 13 -69 54 -130 107 -157 44 -23 49 -7 12 42 -34 44 -65 127 -65 168 1 12 9 45 19 74 10 29 15 55 11 57 -4 2 -19 -8 -34 -24z"/>
 </g>
<g id="layer101" fill="#c6873f" stroke="none">
 <path d="M2306 2935 c-44 -16 -77 -42 -37 -30 13 4 52 7 87 7 112 -1 220 -68 296 -182 l30 -45 -6 43 c-13 88 -71 163 -156 201 -53 24 -155 27 -214 6z"/>
 <path d="M1886 2735 c-64 -23 -59 -31 19 -27 130 7 230 -46 311 -165 l43 -62 -6 37 c-19 134 -132 232 -268 231 -33 0 -77 -6 -99 -14z"/>
 <path d="M3949 2659 c-45 -7 -115 -34 -123 -48 -3 -4 37 -5 89 -3 83 4 99 2 147 -20 70 -33 123 -79 170 -152 l38 -59 0 39 c0 54 -39 132 -85 173 -69 60 -149 84 -236 70z"/>
 <path d="M1550 2608 c-58 -16 -53 -23 18 -23 56 0 76 -5 122 -31 30 -17 74 -54 98 -83 33 -41 42 -47 42 -30 0 63 -79 149 -155 168 -51 13 -77 13 -125 -1z"/>
 <path d="M2395 2608 c-70 -25 -65 -33 21 -29 72 3 90 0 138 -22 64 -30 137 -94 179 -157 l29 -45 -6 43 c-13 88 -73 163 -160 203 -46 21 -152 24 -201 7z"/>
 <path d="M3465 2444 c-81 -30 -73 -41 23 -36 81 4 95 2 150 -23 65 -29 155 -113 186 -173 9 -18 19 -32 22 -32 11 0 -8 95 -26 131 -26 50 -110 123 -158 137 -53 16 -148 14 -197 -4z"/>
 <path d="M2023 2397 c-50 -19 -46 -22 30 -22 54 -1 82 -6 112 -22 40 -21 107 -86 139 -133 l16 -25 -6 35 c-23 130 -167 212 -291 167z"/>
 <path d="M3114 2311 c-58 -27 -64 -41 -11 -29 106 24 212 -24 284 -129 20 -29 38 -51 41 -49 2 3 -1 29 -8 57 -31 129 -186 205 -306 150z"/>
 <path d="M3953 2305 c-29 -13 -53 -25 -53 -27 0 -2 48 -3 107 -3 93 0 114 -3 151 -23 54 -29 115 -84 143 -128 22 -36 49 -45 49 -16 0 34 -47 118 -85 151 -59 52 -110 71 -190 71 -53 0 -82 -6 -122 -25z"/>
 <path d="M2550 2291 c-19 -4 -44 -12 -55 -19 -17 -10 -12 -11 26 -6 94 12 188 -36 257 -131 18 -25 21 -27 22 -11 1 64 -78 148 -157 167 -42 10 -44 10 -93 0z"/>
 <path d="M3594 2101 c-59 -27 -63 -40 -8 -28 107 25 222 -30 288 -137 26 -42 32 -46 34 -28 9 61 -59 160 -133 193 -52 24 -129 24 -181 0z"/>
 <path d="M4130 2003 c-76 -28 -109 -60 -43 -41 100 28 230 -39 286 -147 l16 -30 1 32 c0 68 -51 139 -125 174 -38 18 -103 24 -135 12z"/>
 </g>
<g id="layer102" fill="#cc9248" stroke="none">
 <path d="M2388 2953 c12 -2 32 -2 45 0 12 2 2 4 -23 4 -25 0 -35 -2 -22 -4z"/>
 <path d="M2323 2943 c4 -3 10 -3 14 0 3 4 0 7 -7 7 -7 0 -10 -3 -7 -7z"/>
 <path d="M2483 2943 c4 -3 10 -3 14 0 3 4 0 7 -7 7 -7 0 -10 -3 -7 -7z"/>
 <path d="M4136 2940 c-33 -6 -89 -24 -125 -41 -36 -17 -154 -62 -261 -101 -107 -38 -199 -74 -205 -78 -39 -31 -305 -166 -380 -193 -53 -19 -115 -50 -144 -73 l-52 -39 6 -75 c3 -41 15 -112 25 -158 23 -96 25 -200 6 -255 -8 -20 -28 -61 -46 -91 -34 -56 -231 -299 -303 -373 -39 -41 -139 -96 -288 -158 -77 -33 -175 -85 -331 -178 -114 -67 -117 -70 -107 -95 10 -26 10 -26 -11 -7 -21 19 -22 19 -114 -30 l-93 -49 -6 -151 c-7 -171 2 -267 31 -357 12 -35 24 -84 27 -110 14 -106 116 -194 257 -219 61 -11 77 -10 153 9 47 12 101 22 120 22 91 0 176 32 306 116 39 26 152 88 251 140 98 51 216 116 261 144 45 29 154 90 242 137 88 47 203 111 255 143 137 83 244 139 419 219 84 39 169 82 187 96 59 45 312 360 359 448 41 73 46 179 15 308 -15 66 -25 147 -30 269 -9 185 -20 236 -67 319 -35 60 -52 128 -62 246 -7 77 -15 113 -35 152 -14 29 -30 54 -34 57 -18 11 -169 15 -226 6z m-30 -300 c90 -39 164 -139 164 -224 l0 -39 -38 59 c-47 73 -100 119 -170 152 -48 22 -64 24 -147 20 -52 -2 -92 -1 -89 3 8 14 78 41 123 48 57 9 104 4 157 -19z m-444 -192 c48 -14 132 -87 158 -137 18 -36 37 -131 26 -131 -3 0 -13 14 -22 32 -31 60 -121 144 -186 173 -55 25 -69 27 -150 23 -72 -3 -86 -2 -76 9 39 38 172 55 250 31z m-388 -130 c62 -19 130 -91 146 -157 7 -28 10 -54 8 -57 -3 -2 -21 20 -41 49 -72 105 -178 153 -284 129 -53 -12 -47 2 11 29 48 22 102 24 160 7z m912 -7 c22 -10 58 -34 79 -52 38 -33 85 -117 85 -151 0 -29 -27 -20 -49 16 -28 44 -89 99 -143 128 -37 20 -58 23 -151 23 -59 0 -107 1 -107 3 0 2 24 14 53 27 66 31 171 34 233 6z m-411 -210 c74 -33 142 -132 133 -193 -2 -18 -8 -14 -34 28 -66 107 -181 162 -288 137 -55 -12 -51 1 8 28 52 24 129 24 181 0z m490 -110 c74 -35 125 -106 125 -174 l-1 -32 -16 30 c-56 108 -186 175 -286 147 -66 -19 -33 13 43 41 32 12 97 6 135 -12z m-1621 -700 c-44 -27 -102 -99 -114 -140 -13 -46 -13 -146 0 -190 14 -51 5 -49 -29 4 -39 62 -47 118 -27 187 23 79 112 156 181 158 16 0 14 -4 -11 -19z m-388 -164 c-81 -52 -136 -116 -161 -187 -19 -53 -19 -191 -1 -242 17 -47 5 -49 -29 -3 -30 38 -55 112 -55 160 0 109 86 229 190 265 62 22 84 24 56 7z m79 -299 c-26 -23 -56 -60 -66 -83 -21 -45 -26 -157 -9 -201 16 -40 5 -40 -26 2 -39 50 -46 151 -16 210 30 59 99 113 146 114 14 0 6 -11 -29 -42z m-445 -50 c-40 -89 -20 -201 50 -281 34 -39 27 -47 -18 -23 -61 32 -102 102 -102 175 0 58 12 93 46 138 35 46 47 41 24 -9z"/>
 <path d="M2343 2913 c4 -3 10 -3 14 0 3 4 0 7 -7 7 -7 0 -10 -3 -7 -7z"/>
 <path d="M2235 2900 c-3 -5 -1 -10 4 -10 6 0 11 5 11 10 0 6 -2 10 -4 10 -3 0 -8 -4 -11 -10z"/>
 <path d="M2273 2903 c4 -3 10 -3 14 0 3 4 0 7 -7 7 -7 0 -10 -3 -7 -7z"/>
 <path d="M2413 2903 c4 -3 10 -3 14 0 3 4 0 7 -7 7 -7 0 -10 -3 -7 -7z"/>
 <path d="M2605 2870 c10 -11 20 -20 23 -20 3 0 -3 9 -13 20 -10 11 -20 20 -23 20 -3 0 3 -9 13 -20z"/>
 <path d="M2535 2850 c3 -5 8 -10 11 -10 3 0 2 5 -1 10 -3 6 -8 10 -11 10 -3 0 -2 -4 1 -10z"/>
 <path d="M2625 2760 c3 -5 8 -10 11 -10 3 0 2 5 -1 10 -3 6 -8 10 -11 10 -3 0 -2 -4 1 -10z"/>
 <path d="M1973 2753 c9 -2 23 -2 30 0 6 3 -1 5 -18 5 -16 0 -22 -2 -12 -5z"/>
 <path d="M2670 2750 c0 -7 3 -10 7 -7 3 4 3 10 0 14 -4 3 -7 0 -7 -7z"/>
 <path d="M1903 2743 c4 -3 10 -3 14 0 3 4 0 7 -7 7 -7 0 -10 -3 -7 -7z"/>
 <path d="M2053 2743 c4 -3 10 -3 14 0 3 4 0 7 -7 7 -7 0 -10 -3 -7 -7z"/>
 <path d="M1820 2705 c-7 -9 -8 -15 -2 -15 5 0 12 7 16 15 3 8 4 15 2 15 -2 0 -9 -7 -16 -15z"/>
 <path d="M1853 2703 c4 -3 10 -3 14 0 3 4 0 7 -7 7 -7 0 -10 -3 -7 -7z"/>
 <path d="M1983 2703 c4 -3 10 -3 14 0 3 4 0 7 -7 7 -7 0 -10 -3 -7 -7z"/>
 <path d="M2140 2706 c0 -2 8 -10 18 -17 15 -13 16 -12 3 4 -13 16 -21 21 -21 13z"/>
 <path d="M2205 2640 c3 -5 8 -10 11 -10 3 0 2 5 -1 10 -3 6 -8 10 -11 10 -3 0 -2 -4 1 -10z"/>
 <path d="M2130 2637 c0 -2 15 -16 33 -33 l32 -29 -29 33 c-28 30 -36 37 -36 29z"/>
 <path d="M2473 2623 c9 -2 25 -2 35 0 9 3 1 5 -18 5 -19 0 -27 -2 -17 -5z"/>
 <path d="M1563 2613 c4 -3 10 -3 14 0 3 4 0 7 -7 7 -7 0 -10 -3 -7 -7z"/>
 <path d="M1658 2613 c7 -3 16 -2 19 1 4 3 -2 6 -13 5 -11 0 -14 -3 -6 -6z"/>
 <path d="M1693 2603 c4 -3 10 -3 14 0 3 4 0 7 -7 7 -7 0 -10 -3 -7 -7z"/>
 <path d="M1480 2580 c-13 -8 -12 -10 3 -10 9 0 17 5 17 10 0 12 -1 12 -20 0z"/>
 <path d="M1548 2583 c12 -2 32 -2 45 0 12 2 2 4 -23 4 -25 0 -35 -2 -22 -4z"/>
 <path d="M2348 2578 c5 -5 16 -8 23 -6 8 3 3 7 -10 11 -17 4 -21 3 -13 -5z"/>
 <path d="M2635 2580 c3 -5 8 -10 11 -10 3 0 2 5 -1 10 -3 6 -8 10 -11 10 -3 0 -2 -4 1 -10z"/>
 <path d="M1633 2573 c4 -3 10 -3 14 0 3 4 0 7 -7 7 -7 0 -10 -3 -7 -7z"/>
 <path d="M2240 2570 c0 -7 3 -10 7 -7 3 4 3 10 0 14 -4 3 -7 0 -7 -7z"/>
 <path d="M2315 2570 c-3 -5 -1 -10 4 -10 6 0 11 5 11 10 0 6 -2 10 -4 10 -3 0 -8 -4 -11 -10z"/>
 <path d="M2488 2573 c7 -3 16 -2 19 1 4 3 -2 6 -13 5 -11 0 -14 -3 -6 -6z"/>
 <path d="M1775 2550 c10 -11 20 -20 23 -20 3 0 -3 9 -13 20 -10 11 -20 20 -23 20 -3 0 3 -9 13 -20z"/>
 <path d="M2670 2556 c0 -2 8 -10 18 -17 15 -13 16 -12 3 4 -13 16 -21 21 -21 13z"/>
 <path d="M2248 2517 c-3 -19 -2 -25 4 -19 6 6 8 18 6 28 -3 14 -5 12 -10 -9z"/>
 <path d="M1730 2527 c0 -2 15 -16 33 -33 l32 -29 -29 33 c-28 30 -36 37 -36 29z"/>
 <path d="M1805 2510 c3 -5 8 -10 11 -10 3 0 2 5 -1 10 -3 6 -8 10 -11 10 -3 0 -2 -4 1 -10z"/>
 <path d="M2625 2510 c3 -5 8 -10 11 -10 3 0 2 5 -1 10 -3 6 -8 10 -11 10 -3 0 -2 -4 1 -10z"/>
 <path d="M1805 2440 c3 -5 8 -10 11 -10 3 0 2 5 -1 10 -3 6 -8 10 -11 10 -3 0 -2 -4 1 -10z"/>
 <path d="M1827 2431 c-2 -10 -1 -25 4 -32 6 -10 9 -4 9 19 0 36 -5 42 -13 13z"/>
 <path d="M2690 2446 c0 -2 8 -10 18 -17 15 -13 16 -12 3 4 -13 16 -21 21 -21 13z"/>
 <path d="M2750 2420 c0 -7 3 -10 7 -7 3 4 3 10 0 14 -4 3 -7 0 -7 -7z"/>
 <path d="M2033 2403 c4 -3 10 -3 14 0 3 4 0 7 -7 7 -7 0 -10 -3 -7 -7z"/>
 <path d="M2153 2403 c4 -3 10 -3 14 0 3 4 0 7 -7 7 -7 0 -10 -3 -7 -7z"/>
 <path d="M2003 2393 c4 -3 10 -3 14 0 3 4 0 7 -7 7 -7 0 -10 -3 -7 -7z"/>
 <path d="M1970 2375 c-7 -9 -8 -15 -2 -15 5 0 12 7 16 15 3 8 4 15 2 15 -2 0 -9 -7 -16 -15z"/>
 <path d="M2023 2373 c15 -2 39 -2 55 0 15 2 2 4 -28 4 -30 0 -43 -2 -27 -4z"/>
 <path d="M2225 2370 c3 -5 8 -10 11 -10 3 0 2 5 -1 10 -3 6 -8 10 -11 10 -3 0 -2 -4 1 -10z"/>
 <path d="M2123 2363 c4 -3 10 -3 14 0 3 4 0 7 -7 7 -7 0 -10 -3 -7 -7z"/>
 <path d="M2195 2330 c3 -5 8 -10 11 -10 3 0 2 5 -1 10 -3 6 -8 10 -11 10 -3 0 -2 -4 1 -10z"/>
 <path d="M2275 2320 c3 -5 8 -10 11 -10 3 0 2 5 -1 10 -3 6 -8 10 -11 10 -3 0 -2 -4 1 -10z"/>
 <path d="M2548 2293 c6 -2 18 -2 25 0 6 3 1 5 -13 5 -14 0 -19 -2 -12 -5z"/>
 <path d="M2628 2293 c7 -3 16 -2 19 1 4 3 -2 6 -13 5 -11 0 -14 -3 -6 -6z"/>
 <path d="M2528 2263 c12 -2 32 -2 45 0 12 2 2 4 -23 4 -25 0 -35 -2 -22 -4z"/>
 <path d="M2275 2250 c3 -5 8 -10 11 -10 3 0 2 5 -1 10 -3 6 -8 10 -11 10 -3 0 -2 -4 1 -10z"/>
 <path d="M2473 2253 c4 -3 10 -3 14 0 3 4 0 7 -7 7 -7 0 -10 -3 -7 -7z"/>
 <path d="M2725 2250 c3 -5 8 -10 11 -10 3 0 2 5 -1 10 -3 6 -8 10 -11 10 -3 0 -2 -4 1 -10z"/>
 <path d="M2311 2237 c-1 -11 -6 -15 -13 -11 -7 5 -8 3 -3 -5 10 -16 29 2 22 21 -4 8 -6 7 -6 -5z"/>
 <path d="M2675 2230 c3 -5 8 -10 11 -10 3 0 2 5 -1 10 -3 6 -8 10 -11 10 -3 0 -2 -4 1 -10z"/>
 <path d="M2765 2210 c3 -5 8 -10 11 -10 3 0 2 5 -1 10 -3 6 -8 10 -11 10 -3 0 -2 -4 1 -10z"/>
 <path d="M2725 2190 c10 -11 20 -20 23 -20 3 0 -3 9 -13 20 -10 11 -20 20 -23 20 -3 0 3 -9 13 -20z"/>
 <path d="M2790 2160 c0 -7 3 -10 7 -7 3 4 3 10 0 14 -4 3 -7 0 -7 -7z"/>
 <path d="M2795 2100 c3 -5 8 -10 11 -10 2 0 4 5 4 10 0 6 -5 10 -11 10 -5 0 -7 -4 -4 -10z"/>
 </g>
<g id="layer103" fill="#d5a256" stroke="none">
 <path d="M2508 3225 c-31 -8 -79 -26 -105 -39 -26 -14 -131 -55 -233 -91 -102 -37 -219 -86 -260 -109 -141 -81 -265 -144 -320 -161 -74 -24 -114 -45 -185 -99 -33 -25 -134 -83 -225 -128 -91 -44 -187 -96 -215 -115 -27 -18 -87 -45 -132 -58 -45 -14 -132 -48 -193 -75 -61 -28 -167 -73 -236 -100 -178 -71 -263 -116 -276 -145 -8 -19 -8 -53 2 -138 l13 -114 -37 -76 c-39 -83 -44 -122 -21 -187 8 -24 15 -77 15 -119 0 -43 5 -104 11 -137 7 -33 12 -163 13 -294 1 -214 3 -241 23 -300 12 -36 27 -91 33 -123 16 -80 59 -133 142 -176 77 -39 176 -51 255 -31 26 6 93 18 148 25 113 15 165 35 264 99 75 49 227 134 366 203 49 25 115 62 145 83 30 20 147 88 260 150 113 62 234 131 270 153 106 65 260 147 340 182 249 107 255 111 443 339 118 143 170 219 193 283 19 56 17 160 -6 255 -15 58 -23 139 -29 273 -9 209 -7 197 -62 310 -41 85 -69 201 -69 288 0 37 -9 70 -29 113 -25 52 -33 62 -61 68 -53 10 -181 5 -242 -9z m15 -291 c93 -48 157 -138 157 -218 l-1 -41 -18 35 c-75 142 -251 229 -385 191 -51 -14 -55 -8 -13 18 70 43 191 50 260 15z m-418 -206 c87 -44 142 -120 151 -211 l6 -52 -30 50 c-38 64 -120 141 -180 168 -50 22 -160 30 -215 14 -36 -10 -28 7 14 29 73 37 181 38 254 2z m501 -127 c84 -38 154 -135 153 -216 l0 -40 -19 37 c-29 54 -110 133 -168 162 -61 31 -148 42 -212 27 -58 -13 -62 -7 -11 18 85 44 175 48 257 12z m-861 -21 c54 -39 84 -89 92 -152 l5 -43 -29 45 c-42 64 -115 125 -168 140 -27 8 -73 11 -113 8 l-67 -5 50 24 c40 19 63 23 116 21 56 -3 72 -8 114 -38z m453 -189 c69 -36 122 -113 122 -178 0 -26 -3 -24 -35 25 -39 58 -97 105 -152 123 -19 6 -66 9 -103 7 -38 -2 -66 0 -63 5 23 38 170 49 231 18z m475 -104 c42 -18 94 -63 111 -96 7 -14 16 -44 19 -66 l6 -40 -17 25 c-37 54 -96 110 -138 131 -36 17 -58 20 -114 17 -71 -4 -79 4 -26 28 40 17 118 18 159 1z m-1868 -29 c-11 -6 -44 -33 -73 -62 -96 -93 -120 -215 -76 -376 l7 -25 -22 20 c-92 81 -91 261 2 362 45 49 118 92 157 92 24 0 24 0 5 -11z m112 -278 c-58 -52 -85 -95 -97 -158 -9 -48 -1 -131 16 -177 14 -35 -25 3 -49 49 -45 85 -20 208 55 271 71 60 142 74 75 15z m-467 -241 c-28 -22 -64 -61 -80 -86 -49 -77 -63 -195 -35 -288 8 -27 13 -51 11 -52 -6 -7 -59 62 -73 94 -16 38 -17 133 -3 185 6 21 25 57 43 80 37 48 128 108 165 108 21 0 17 -6 -28 -41z m567 -191 c-43 -44 -67 -76 -75 -104 -15 -52 -15 -141 -1 -183 18 -50 3 -48 -30 5 -26 39 -31 58 -31 106 0 114 61 195 170 229 14 4 26 8 28 8 1 1 -26 -27 -61 -61z m-384 -153 c-122 -86 -173 -242 -128 -391 19 -62 19 -61 -6 -38 -41 37 -69 109 -69 176 0 90 14 129 67 188 44 50 82 75 133 91 52 15 53 8 3 -26z m113 -275 c-68 -63 -91 -122 -83 -214 3 -33 9 -70 13 -81 15 -39 -28 7 -47 50 -36 79 -19 165 46 231 37 36 79 59 118 63 5 1 -16 -22 -47 -49z m-446 -51 c-41 -90 -20 -195 55 -278 38 -42 34 -51 -13 -27 -64 33 -112 113 -112 183 0 43 31 117 62 150 30 32 32 24 8 -28z"/>
 <path d="M2635 1300 c3 -5 8 -10 11 -10 3 0 2 5 -1 10 -3 6 -8 10 -11 10 -3 0 -2 -4 1 -10z"/>
 <path d="M2554 1268 c-4 -7 -3 -8 4 -4 12 7 16 16 8 16 -3 0 -8 -5 -12 -12z"/>
 <path d="M2584 1248 l-29 -33 33 29 c30 28 37 36 29 36 -2 0 -16 -15 -33 -32z"/>
 <path d="M2494 1208 c-4 -7 -3 -8 4 -4 12 7 16 16 8 16 -3 0 -8 -5 -12 -12z"/>
 <path d="M2544 1198 c-4 -7 -3 -8 4 -4 12 7 16 16 8 16 -3 0 -8 -5 -12 -12z"/>
 <path d="M2520 1140 c0 -7 3 -10 7 -7 3 4 3 10 0 14 -4 3 -7 0 -7 -7z"/>
 <path d="M2250 1129 c0 -5 5 -7 10 -4 6 3 10 8 10 11 0 2 -4 4 -10 4 -5 0 -10 -5 -10 -11z"/>
 <path d="M2463 1085 c0 -22 2 -30 4 -17 2 12 2 30 0 40 -3 9 -5 -1 -4 -23z"/>
 <path d="M2134 1088 c-4 -7 -3 -8 4 -4 12 7 16 16 8 16 -3 0 -8 -5 -12 -12z"/>
 <path d="M2189 1083 c-13 -16 -12 -17 4 -4 16 13 21 21 13 21 -2 0 -10 -8 -17 -17z"/>
 <path d="M2513 1055 c0 -27 2 -38 4 -22 2 15 2 37 0 50 -2 12 -4 0 -4 -28z"/>
 <path d="M2144 1038 c-4 -7 -3 -8 4 -4 12 7 16 16 8 16 -3 0 -8 -5 -12 -12z"/>
 <path d="M2114 998 c-4 -7 -3 -8 4 -4 12 7 16 16 8 16 -3 0 -8 -5 -12 -12z"/>
 <path d="M2520 970 c0 -7 3 -10 7 -7 3 4 3 10 0 14 -4 3 -7 0 -7 -7z"/>
 <path d="M2510 946 c0 -2 7 -9 15 -16 9 -7 15 -8 15 -2 0 5 -7 12 -15 16 -8 3 -15 4 -15 2z"/>
 <path d="M2013 855 c0 -27 2 -38 4 -22 2 15 2 37 0 50 -2 12 -4 0 -4 -28z"/>
 <path d="M2073 820 c0 -30 2 -43 4 -27 2 15 2 39 0 55 -2 15 -4 2 -4 -28z"/>
 <path d="M2340 866 c0 -2 7 -7 16 -10 8 -3 12 -2 9 4 -6 10 -25 14 -25 6z"/>
 <path d="M2254 808 l-29 -33 33 29 c30 28 37 36 29 36 -2 0 -16 -15 -33 -32z"/>
 <path d="M2309 813 l-24 -28 28 24 c25 23 32 31 24 31 -2 0 -14 -12 -28 -27z"/>
 <path d="M1874 798 c-12 -14 -13 -18 -3 -10 9 6 20 8 24 4 5 -4 5 -2 2 5 -4 6 -1 14 5 16 8 3 8 6 2 6 -6 1 -19 -9 -30 -21z"/>
 <path d="M1870 750 c0 -7 3 -10 7 -7 3 4 3 10 0 14 -4 3 -7 0 -7 -7z"/>
 <path d="M2080 720 c0 -7 3 -10 7 -7 3 4 3 10 0 14 -4 3 -7 0 -7 -7z"/>
 <path d="M2200 720 c0 -7 3 -10 7 -7 3 4 3 10 0 14 -4 3 -7 0 -7 -7z"/>
 <path d="M1863 675 c0 -27 2 -38 4 -22 2 15 2 37 0 50 -2 12 -4 0 -4 -28z"/>
 <path d="M1820 700 c0 -7 3 -10 7 -7 3 4 3 10 0 14 -4 3 -7 0 -7 -7z"/>
 <path d="M2074 682 c11 -12 24 -22 30 -21 6 0 6 3 -2 6 -6 2 -9 10 -5 16 3 7 3 9 -2 5 -4 -4 -15 -2 -24 4 -10 8 -9 4 3 -10z"/>
 <path d="M2243 640 c0 -25 2 -35 4 -22 2 12 2 32 0 45 -2 12 -4 2 -4 -23z"/>
 <path d="M1820 600 c0 -7 3 -10 7 -7 3 4 3 10 0 14 -4 3 -7 0 -7 -7z"/>
 <path d="M1870 600 c0 -7 3 -10 7 -7 3 4 3 10 0 14 -4 3 -7 0 -7 -7z"/>
 <path d="M2235 540 c3 -5 8 -10 11 -10 3 0 2 5 -1 10 -3 6 -8 10 -11 10 -3 0 -2 -4 1 -10z"/>
 <path d="M2260 520 c0 -7 3 -10 7 -7 3 4 3 10 0 14 -4 3 -7 0 -7 -7z"/>
 <path d="M1939 487 c6 -8 7 -18 3 -22 -4 -5 -1 -5 6 -1 10 6 10 11 1 22 -6 8 -14 14 -16 14 -3 0 0 -6 6 -13z"/>
 </g>
<g id="layer104" fill="#dab071" stroke="none">
 <path d="M770 2266 c0 -2 7 -7 16 -10 8 -3 12 -2 9 4 -6 10 -25 14 -25 6z"/>
 <path d="M684 2218 c-4 -7 -3 -8 4 -4 7 4 12 9 12 12 0 8 -9 4 -16 -8z"/>
 <path d="M719 2193 l-34 -38 38 34 c34 33 42 41 34 41 -2 0 -19 -17 -38 -37z"/>
 <path d="M614 2148 c-4 -7 -3 -8 4 -4 12 7 16 16 8 16 -3 0 -8 -5 -12 -12z"/>
 <path d="M650 2090 c0 -7 3 -10 7 -7 3 4 3 10 0 14 -4 3 -7 0 -7 -7z"/>
 <path d="M640 2060 c0 -7 3 -10 7 -7 3 4 3 10 0 14 -4 3 -7 0 -7 -7z"/>
 <path d="M571 2024 c0 -11 3 -14 6 -6 3 7 2 16 -1 19 -3 4 -6 -2 -5 -13z"/>
 <path d="M630 2010 c0 -7 3 -10 7 -7 3 4 3 10 0 14 -4 3 -7 0 -7 -7z"/>
 <path d="M935 2010 c4 -6 11 -8 16 -5 14 9 11 15 -7 15 -8 0 -12 -5 -9 -10z"/>
 <path d="M903 2003 c4 -3 10 -3 14 0 3 4 0 7 -7 7 -7 0 -10 -3 -7 -7z"/>
 <path d="M889 1963 l-24 -28 28 24 c25 23 32 31 24 31 -2 0 -14 -12 -28 -27z"/>
 <path d="M844 1968 c-4 -7 -3 -8 4 -4 12 7 16 16 8 16 -3 0 -8 -5 -12 -12z"/>
 <path d="M571 1954 c0 -11 3 -14 6 -6 3 7 2 16 -1 19 -3 4 -6 -2 -5 -13z"/>
 <path d="M804 1928 c-4 -7 -3 -8 4 -4 7 4 12 9 12 12 0 8 -9 4 -16 -8z"/>
 <path d="M632 1910 c0 -14 2 -19 5 -12 2 6 2 18 0 25 -3 6 -5 1 -5 -13z"/>
 <path d="M580 1910 c0 -7 3 -10 7 -7 3 4 3 10 0 14 -4 3 -7 0 -7 -7z"/>
 <path d="M770 1860 c0 -7 3 -10 7 -7 3 4 3 10 0 14 -4 3 -7 0 -7 -7z"/>
 <path d="M640 1850 c0 -7 3 -10 7 -7 3 4 3 10 0 14 -4 3 -7 0 -7 -7z"/>
 <path d="M615 1840 c3 -5 8 -10 11 -10 3 0 2 5 -1 10 -3 6 -8 10 -11 10 -3 0 -2 -4 1 -10z"/>
 <path d="M650 1820 c0 -7 3 -10 7 -7 3 4 3 10 0 14 -4 3 -7 0 -7 -7z"/>
 <path d="M762 1790 c0 -19 2 -27 5 -17 2 9 2 25 0 35 -3 9 -5 1 -5 -18z"/>
 <path d="M811 1804 c0 -11 3 -14 6 -6 3 7 2 16 -1 19 -3 4 -6 -2 -5 -13z"/>
 <path d="M453 1773 c4 -3 10 -3 14 0 3 4 0 7 -7 7 -7 0 -10 -3 -7 -7z"/>
 <path d="M454 1748 c-4 -7 -3 -8 4 -4 12 7 16 16 8 16 -3 0 -8 -5 -12 -12z"/>
 <path d="M811 1734 c0 -11 3 -14 6 -6 3 7 2 16 -1 19 -3 4 -6 -2 -5 -13z"/>
 <path d="M334 1698 l-29 -33 33 29 c30 28 37 36 29 36 -2 0 -16 -15 -33 -32z"/>
 <path d="M814 1651 c20 -22 26 -25 26 -13 0 4 -10 13 -22 21 -23 14 -23 14 -4 -8z"/>
 <path d="M270 1600 c0 -7 3 -10 7 -7 3 4 3 10 0 14 -4 3 -7 0 -7 -7z"/>
 <path d="M999 1543 l-34 -38 38 34 c34 33 42 41 34 41 -2 0 -19 -17 -38 -37z"/>
 <path d="M260 1560 c0 -7 3 -10 7 -7 3 4 3 10 0 14 -4 3 -7 0 -7 -7z"/>
 <path d="M964 1558 c-4 -7 -3 -8 4 -4 12 7 16 16 8 16 -3 0 -8 -5 -12 -12z"/>
 <path d="M320 1540 c0 -7 3 -10 7 -7 3 4 3 10 0 14 -4 3 -7 0 -7 -7z"/>
 <path d="M914 1508 c-4 -7 -3 -8 4 -4 7 4 12 9 12 12 0 8 -9 4 -16 -8z"/>
 <path d="M260 1440 c0 -7 3 -10 7 -7 3 4 3 10 0 14 -4 3 -7 0 -7 -7z"/>
 <path d="M880 1430 c0 -7 3 -10 7 -7 3 4 3 10 0 14 -4 3 -7 0 -7 -7z"/>
 <path d="M658 1423 c7 -3 16 -2 19 1 4 3 -2 6 -13 5 -11 0 -14 -3 -6 -6z"/>
 <path d="M270 1410 c0 -7 3 -10 7 -7 3 4 3 10 0 14 -4 3 -7 0 -7 -7z"/>
 <path d="M320 1390 c0 -7 3 -10 7 -7 3 4 3 10 0 14 -4 3 -7 0 -7 -7z"/>
 <path d="M609 1383 c-13 -16 -12 -17 4 -4 16 13 21 21 13 21 -2 0 -10 -8 -17 -17z"/>
 <path d="M330 1350 c0 -7 3 -10 7 -7 3 4 3 10 0 14 -4 3 -7 0 -7 -7z"/>
 <path d="M549 1323 c-13 -16 -12 -17 4 -4 9 7 17 15 17 17 0 8 -8 3 -21 -13z"/>
 <path d="M340 1320 c0 -7 3 -10 7 -7 3 4 3 10 0 14 -4 3 -7 0 -7 -7z"/>
 <path d="M880 1320 c0 -7 3 -10 7 -7 3 4 3 10 0 14 -4 3 -7 0 -7 -7z"/>
 <path d="M2589 1282 c-78 -41 -112 -94 -117 -181 -3 -54 0 -76 17 -109 21 -41 51 -71 38 -39 -15 39 -18 118 -8 168 15 67 49 120 103 159 52 38 37 39 -33 2z"/>
 <path d="M440 1250 c0 -7 3 -10 7 -7 3 4 3 10 0 14 -4 3 -7 0 -7 -7z"/>
 <path d="M920 1245 c0 -2 7 -8 15 -15 12 -10 15 -10 15 2 0 8 -7 15 -15 15 -8 0 -15 -1 -15 -2z"/>
 <path d="M430 1210 c0 -7 3 -10 7 -7 3 4 3 10 0 14 -4 3 -7 0 -7 -7z"/>
 <path d="M490 1200 c0 -7 3 -10 7 -7 3 4 3 10 0 14 -4 3 -7 0 -7 -7z"/>
 <path d="M780 1159 c0 -5 5 -7 10 -4 6 3 10 8 10 11 0 2 -4 4 -10 4 -5 0 -10 -5 -10 -11z"/>
 <path d="M743 1153 c4 -3 10 -3 14 0 3 4 0 7 -7 7 -7 0 -10 -3 -7 -7z"/>
 <path d="M724 1108 l-29 -33 33 29 c30 28 37 36 29 36 -2 0 -16 -15 -33 -32z"/>
 <path d="M669 1103 l-24 -28 28 24 c25 23 32 31 24 31 -2 0 -14 -12 -28 -27z"/>
 <path d="M2184 1111 c-60 -27 -114 -80 -140 -136 -44 -93 -27 -235 35 -290 l22 -19 -12 29 c-18 45 -16 202 4 253 21 55 69 116 120 153 45 33 32 37 -29 10z"/>
 <path d="M289 1093 c-13 -15 -17 -22 -8 -15 9 6 20 8 24 4 5 -4 5 -2 2 5 -4 6 -1 13 5 16 7 2 10 7 7 11 -3 3 -16 -6 -30 -21z"/>
 <path d="M430 1080 c0 -7 3 -10 7 -7 3 4 3 10 0 14 -4 3 -7 0 -7 -7z"/>
 <path d="M1906 1052 c-3 -5 1 -15 9 -22 16 -14 20 -3 6 19 -5 8 -11 9 -15 3z"/>
 <path d="M490 1030 c0 -7 3 -10 7 -7 3 4 3 10 0 14 -4 3 -7 0 -7 -7z"/>
 <path d="M620 1030 c0 -7 3 -10 7 -7 3 4 3 10 0 14 -4 3 -7 0 -7 -7z"/>
 <path d="M670 1030 c0 -7 3 -10 7 -7 3 4 3 10 0 14 -4 3 -7 0 -7 -7z"/>
 <path d="M660 1000 c0 -7 3 -10 7 -7 3 4 3 10 0 14 -4 3 -7 0 -7 -7z"/>
 <path d="M272 970 c0 -19 2 -27 5 -17 2 9 2 25 0 35 -3 9 -5 1 -5 -18z"/>
 <path d="M475 990 c3 -5 8 -10 11 -10 3 0 2 5 -1 10 -3 6 -8 10 -11 10 -3 0 -2 -4 1 -10z"/>
 <path d="M500 990 c0 -7 3 -10 7 -7 3 4 3 10 0 14 -4 3 -7 0 -7 -7z"/>
 <path d="M610 990 c0 -7 3 -10 7 -7 3 4 3 10 0 14 -4 3 -7 0 -7 -7z"/>
 <path d="M230 980 c0 -7 3 -10 7 -7 3 4 3 10 0 14 -4 3 -7 0 -7 -7z"/>
 <path d="M510 960 c0 -7 3 -10 7 -7 3 4 3 10 0 14 -4 3 -7 0 -7 -7z"/>
 <path d="M231 914 c0 -11 3 -14 6 -6 3 7 2 16 -1 19 -3 4 -6 -2 -5 -13z"/>
 <path d="M610 920 c0 -7 3 -10 7 -7 3 4 3 10 0 14 -4 3 -7 0 -7 -7z"/>
 <path d="M660 860 c0 -7 3 -10 7 -7 3 4 3 10 0 14 -4 3 -7 0 -7 -7z"/>
 <path d="M2325 851 c-49 -22 -99 -77 -115 -126 -17 -52 -8 -127 21 -169 13 -19 25 -34 26 -32 2 1 -2 29 -9 60 -20 102 16 200 95 257 46 33 40 37 -18 10z"/>
 <path d="M315 830 c3 -5 8 -10 11 -10 3 0 2 5 -1 10 -3 6 -8 10 -11 10 -3 0 -2 -4 1 -10z"/>
 <path d="M348 787 c12 -13 19 -27 15 -30 -3 -4 2 -7 12 -7 16 0 14 4 -10 30 -16 17 -31 30 -34 30 -2 0 5 -10 17 -23z"/>
 <path d="M1866 780 c-27 -33 -46 -87 -46 -136 0 -52 50 -136 95 -161 51 -29 60 -29 31 0 -12 12 -36 45 -52 72 -25 43 -29 60 -29 120 0 47 6 81 18 103 22 40 16 41 -17 2z"/>
 </g>
<g id="layer105" fill="#e0bd86" stroke="none">
 <path d="M756 2254 c-149 -54 -222 -234 -153 -377 40 -80 58 -92 41 -25 -39 150 3 288 116 377 56 44 56 47 -4 25z"/>
 <path d="M894 1996 c-47 -21 -100 -81 -114 -131 -17 -62 -9 -144 19 -184 13 -18 25 -31 27 -29 1 2 -2 24 -7 48 -14 57 -6 138 17 187 10 21 38 57 61 81 46 45 45 49 -3 28z"/>
 <path d="M425 1756 c-159 -74 -216 -287 -109 -411 18 -21 23 -24 18 -10 -16 46 -16 192 0 247 17 60 84 145 141 180 43 26 9 22 -50 -6z"/>
 <path d="M1030 1593 c-8 -3 -32 -17 -53 -31 -79 -53 -116 -169 -83 -256 31 -82 43 -75 38 20 -7 122 30 205 113 255 28 18 19 24 -15 12z"/>
 <path d="M579 1395 c-152 -79 -195 -285 -88 -415 17 -20 19 -21 13 -5 -4 11 -9 66 -12 122 -4 94 -2 106 22 160 29 62 72 114 121 144 46 29 1 24 -56 -6z"/>
 <path d="M740 1149 c-14 -6 -42 -27 -63 -47 -73 -71 -83 -193 -21 -267 l24 -30 -10 28 c-5 16 -10 60 -10 99 0 87 24 142 83 193 42 36 41 41 -3 24z"/>
 <path d="M281 1076 c-30 -32 -52 -109 -45 -156 9 -53 43 -110 83 -137 51 -34 55 -28 16 22 -34 45 -65 127 -65 169 1 12 9 45 19 74 10 28 17 52 16 52 -1 0 -12 -11 -24 -24z"/>
 </g>

</svg>