<!DOCTYPE svg PUBLIC "-//W3C//DTD SVG 20010904//EN" "http://www.w3.org/TR/2001/REC-SVG-20010904/DTD/svg10.dtd">
<svg version="1.0" xmlns="http://www.w3.org/2000/svg" width="355px" height="316px" viewBox="0 0 3550 3160" preserveAspectRatio="xMidYMid meet">
<g id="layerbg1" fill="#dcdddd" stroke="none">
 <path d="M1360 2984 c-30 -9 -91 -17 -135 -18 -104 -5 -237 -22 -300 -40 -27 -8 -79 -19 -114 -25 -235 -39 -444 -263 -527 -566 -8 -27 -14 -93 -14 -145 0 -76 5 -109 26 -165 82 -225 106 -296 119 -345 14 -50 35 -96 108 -235 14 -27 39 -79 55 -115 16 -36 49 -92 74 -125 25 -33 62 -94 83 -135 20 -41 49 -90 63 -109 14 -19 36 -55 49 -80 12 -25 44 -73 71 -106 26 -33 63 -87 82 -119 53 -89 369 -405 440 -439 102 -49 248 -88 353 -94 122 -7 185 6 293 58 135 66 333 262 405 401 10 21 47 65 80 99 60 61 88 100 179 254 25 41 65 106 89 143 24 37 55 92 70 122 15 31 36 69 47 85 35 49 59 104 99 220 21 60 55 135 76 165 44 65 58 99 99 240 41 139 53 362 26 484 -27 118 -85 224 -169 309 -90 90 -133 113 -354 188 l-178 61 -160 8 c-88 4 -176 14 -195 20 -24 8 -153 13 -410 15 -309 3 -385 1 -430 -11z m845 -89 c48 -12 105 -17 182 -16 95 1 124 -2 185 -22 40 -13 126 -41 190 -61 140 -45 216 -88 281 -159 64 -70 122 -186 137 -279 35 -203 -27 -522 -127 -661 -30 -43 -64 -122 -95 -227 -13 -43 -55 -129 -74 -151 -8 -9 -28 -44 -45 -78 -16 -35 -49 -92 -72 -127 -65 -98 -128 -202 -155 -255 -13 -27 -58 -84 -99 -126 -41 -42 -83 -93 -93 -112 -31 -61 -135 -195 -191 -246 -127 -114 -236 -165 -374 -172 -80 -5 -103 -2 -205 27 -63 18 -140 44 -170 58 -68 32 -192 148 -349 326 -29 33 -62 79 -73 101 -12 22 -40 62 -64 89 -24 28 -54 70 -66 95 -13 25 -37 66 -54 91 -18 25 -50 81 -72 125 -22 44 -60 105 -84 136 -23 30 -53 77 -65 105 -47 105 -74 161 -108 219 -19 33 -41 87 -49 120 -19 75 -77 240 -114 320 -25 55 -27 70 -27 180 1 117 2 122 43 225 94 235 257 380 454 406 29 4 71 13 92 21 48 16 192 35 306 39 47 1 108 9 135 17 77 23 721 16 820 -8z"/>
 <path d="M2966 2549 c-11 -16 -12 -28 -5 -47 8 -20 6 -27 -12 -40 -16 -11 -20 -21 -15 -47 5 -24 2 -36 -14 -50 -37 -33 -19 -75 31 -75 35 0 79 51 79 91 0 16 7 41 16 54 11 17 14 36 10 58 -13 70 -59 99 -90 56z"/>
 <path d="M1794 2466 c-41 -18 -66 -53 -54 -76 14 -27 38 -31 70 -15 36 19 40 19 40 0 0 -25 38 -55 69 -55 26 0 30 -4 33 -31 2 -18 12 -38 23 -45 18 -12 24 -11 44 3 20 13 23 22 18 60 -5 45 -34 88 -68 98 -10 3 -34 22 -53 41 -37 37 -69 43 -122 20z"/>
 <path d="M730 2345 c-7 -8 -13 -40 -14 -71 -1 -52 2 -58 32 -83 17 -15 32 -34 32 -43 0 -8 9 -27 21 -42 42 -53 148 -20 118 37 -6 11 -19 22 -29 24 -12 3 -20 16 -22 37 -2 24 -10 34 -36 46 -28 13 -32 19 -27 43 2 16 0 37 -5 48 -13 23 -53 25 -70 4z"/>
 <path d="M2355 1630 c-11 -13 -15 -27 -11 -44 4 -18 0 -28 -18 -40 -14 -8 -26 -25 -28 -37 -2 -12 -11 -23 -21 -25 -70 -10 -57 -87 14 -87 27 0 89 44 89 64 0 4 14 21 30 37 41 41 42 101 4 131 -33 26 -37 26 -59 1z"/>
 <path d="M1107 1282 c-24 -27 -21 -75 6 -99 31 -29 55 -39 108 -47 35 -5 51 -14 68 -37 30 -40 79 -69 118 -69 17 0 44 -4 58 -10 42 -16 109 6 145 47 34 39 38 63 12 86 -26 24 -38 21 -63 -12 -27 -37 -65 -48 -89 -26 -13 12 -28 14 -53 10 -29 -6 -37 -3 -56 20 -11 15 -21 34 -21 41 0 18 -39 44 -56 37 -8 -3 -34 -2 -59 1 -34 6 -45 12 -45 25 0 19 -29 51 -47 51 -5 0 -17 -8 -26 -18z"/>
 <path d="M2138 579 c-14 -19 -29 -28 -40 -26 -21 6 -58 -19 -58 -40 0 -11 -6 -14 -25 -9 -17 4 -31 0 -45 -14 -25 -25 -25 -32 3 -57 36 -35 73 -34 115 2 17 14 37 25 45 25 18 0 72 60 82 90 7 23 -18 60 -41 60 -7 0 -24 -14 -36 -31z"/>
 </g>
<g id="layerbg2" fill="#ffffff" stroke="none">
 <path d="M1385 2923 c-27 -8 -88 -16 -135 -17 -107 -4 -260 -23 -297 -37 -15 -5 -62 -16 -105 -24 -152 -26 -257 -94 -361 -231 -48 -64 -79 -119 -109 -194 -41 -103 -42 -108 -43 -225 0 -110 2 -125 27 -180 37 -80 95 -245 114 -320 8 -33 30 -87 49 -120 34 -58 61 -114 108 -219 12 -28 42 -75 65 -105 24 -31 62 -92 84 -136 22 -44 54 -100 72 -125 17 -25 41 -66 54 -91 12 -25 42 -67 66 -95 24 -27 52 -67 64 -89 30 -59 153 -198 297 -336 103 -98 149 -122 315 -169 102 -29 125 -32 205 -27 143 8 251 59 384 183 65 60 168 190 201 254 10 19 52 70 93 112 41 42 86 99 99 126 27 54 90 157 155 256 23 35 56 92 72 127 17 34 37 69 45 78 19 22 61 108 74 151 31 105 65 184 95 227 42 57 57 93 97 233 37 128 50 311 30 428 -25 149 -135 311 -263 386 -32 19 -111 51 -175 72 -64 20 -150 48 -190 61 -61 20 -90 23 -185 22 -77 -1 -134 4 -182 16 -99 24 -743 31 -820 8z m1647 -414 c10 -36 10 -46 -5 -71 -9 -16 -17 -42 -17 -57 0 -40 -26 -71 -61 -71 -22 0 -29 5 -29 20 0 10 9 24 21 31 17 9 20 17 14 45 -5 28 -2 38 15 52 17 14 20 22 12 42 -12 32 -5 50 18 50 14 0 23 -12 32 -41z m-1141 -60 c11 -5 24 -21 29 -35 6 -14 18 -24 29 -24 34 0 62 -32 68 -79 4 -30 2 -45 -7 -51 -21 -13 -40 0 -40 29 0 34 -17 51 -50 51 -30 0 -50 17 -50 42 0 27 -24 32 -60 13 -24 -12 -35 -14 -45 -5 -44 36 70 90 126 59z m-1106 -158 c0 -42 2 -45 32 -53 28 -7 32 -13 35 -46 2 -28 8 -38 23 -41 51 -9 38 -51 -16 -51 -41 0 -59 18 -59 59 0 12 -11 26 -29 35 -33 18 -44 49 -35 106 6 34 10 41 28 38 18 -3 21 -10 21 -47z m1616 -671 c30 -17 26 -84 -8 -116 -14 -13 -31 -34 -37 -47 -23 -46 -106 -58 -106 -16 0 11 5 19 10 19 21 0 25 2 43 17 9 9 17 24 17 33 0 9 12 22 26 29 22 10 25 16 19 41 -6 27 -1 50 11 50 3 0 14 -5 25 -10z m-1243 -367 c6 -41 22 -46 155 -53 4 0 7 -7 7 -15 0 -8 14 -31 32 -50 28 -33 35 -36 66 -30 25 5 39 2 52 -10 16 -15 24 -15 55 -5 23 8 40 21 46 37 11 29 43 28 47 -3 7 -52 -92 -107 -153 -84 -14 6 -40 10 -56 10 -41 0 -81 22 -113 64 -22 29 -35 36 -76 42 -73 10 -110 36 -110 77 0 19 3 37 7 41 13 13 38 1 41 -21z m1040 -684 c5 -25 -41 -84 -68 -87 -14 -2 -35 -15 -47 -28 -29 -32 -75 -36 -103 -8 -19 18 0 39 37 39 15 0 30 8 37 20 16 28 24 33 51 27 18 -3 27 3 40 28 17 33 47 38 53 9z"/>
 <path d="M511 2746 c-13 -13 -18 -26 -13 -30 5 -3 19 5 31 18 13 13 18 26 13 30 -5 3 -19 -5 -31 -18z"/>
 <path d="M1156 472 c-3 -5 5 -19 18 -31 13 -13 26 -18 30 -13 3 5 -5 19 -18 31 -13 13 -26 18 -30 13z"/>
 <path d="M2261 326 c-18 -19 -29 -36 -23 -39 5 -4 23 9 41 27 18 19 29 36 23 39 -5 4 -23 -9 -41 -27z"/>
 </g>
<g id="layer101" fill="#dcdddd" stroke="none">
 <path d="M1360 2974 c-30 -9 -91 -17 -135 -18 -104 -5 -237 -22 -300 -40 -27 -8 -79 -19 -115 -25 -195 -32 -388 -209 -475 -436 -45 -116 -55 -165 -55 -265 0 -76 5 -109 26 -165 82 -225 106 -296 119 -345 14 -50 35 -96 108 -235 14 -27 39 -79 55 -115 16 -36 49 -92 74 -125 25 -33 62 -94 83 -135 20 -41 49 -90 63 -109 14 -19 36 -55 49 -80 12 -25 44 -73 71 -106 26 -33 63 -86 82 -119 53 -89 359 -395 430 -429 102 -49 247 -88 353 -94 122 -7 185 6 293 58 134 65 324 254 395 392 11 21 47 66 81 100 60 61 88 100 178 252 25 41 65 106 89 143 24 37 55 92 70 122 15 31 36 69 47 85 35 49 59 104 99 220 21 60 55 135 76 165 44 65 58 99 99 240 41 139 53 362 26 484 -26 115 -85 224 -164 304 -85 85 -130 109 -349 183 l-178 61 -160 8 c-88 4 -176 14 -195 20 -24 8 -153 13 -410 15 -309 3 -385 1 -430 -11z m845 -69 c48 -12 105 -17 182 -16 95 1 124 -2 185 -22 40 -13 126 -41 190 -61 64 -21 143 -53 175 -72 123 -73 228 -228 253 -376 35 -203 -27 -522 -127 -661 -30 -43 -64 -122 -95 -227 -13 -43 -55 -129 -74 -151 -8 -9 -28 -44 -45 -78 -16 -35 -49 -92 -72 -127 -65 -98 -128 -202 -155 -256 -13 -27 -58 -84 -99 -126 -41 -42 -83 -93 -93 -112 -32 -62 -136 -194 -196 -249 -130 -119 -239 -171 -379 -178 -80 -5 -103 -2 -205 27 -167 47 -212 71 -314 169 -144 138 -259 268 -288 326 -12 22 -40 62 -64 89 -24 28 -54 70 -66 95 -13 25 -37 66 -54 91 -18 25 -50 81 -72 125 -22 44 -60 105 -84 136 -23 30 -53 77 -65 105 -47 105 -74 161 -108 219 -19 33 -41 87 -49 120 -19 75 -77 240 -114 320 -25 55 -27 70 -27 180 1 117 2 122 43 225 30 75 61 130 108 192 100 133 201 197 352 223 43 8 90 19 105 24 37 14 190 33 297 37 47 1 108 9 135 17 77 23 721 16 820 -8z"/>
 <path d="M2972 2544 c-6 -12 -7 -27 0 -43 7 -21 5 -28 -13 -41 -17 -14 -20 -23 -14 -49 6 -27 3 -35 -15 -48 -32 -23 -23 -57 16 -61 38 -4 74 35 74 79 0 15 8 41 17 58 16 27 16 34 3 73 -17 48 -50 63 -68 32z"/>
 <path d="M1793 2455 c-42 -18 -58 -48 -37 -69 19 -19 22 -19 54 -1 34 19 50 19 50 -2 0 -31 17 -46 56 -52 34 -5 39 -10 42 -36 4 -39 28 -58 55 -44 16 9 19 18 14 57 -5 50 -41 92 -78 92 -10 0 -19 6 -19 14 0 22 -49 56 -79 56 -14 -1 -40 -7 -58 -15z"/>
 <path d="M737 2343 c-12 -21 -17 -92 -8 -116 6 -15 22 -32 36 -39 15 -7 25 -19 25 -32 0 -12 7 -32 16 -44 20 -28 88 -31 103 -4 12 23 -4 52 -29 52 -15 0 -19 8 -22 38 -3 32 -7 38 -36 47 -31 9 -33 12 -28 43 3 18 2 40 -1 48 -5 14 -48 20 -56 7z"/>
 <path d="M2360 1625 c-7 -8 -9 -26 -5 -43 5 -24 2 -30 -20 -40 -14 -6 -25 -20 -25 -31 0 -10 -7 -24 -15 -31 -8 -7 -15 -9 -15 -6 0 4 -9 2 -20 -4 -44 -24 -2 -81 47 -63 23 8 63 44 63 56 0 5 14 22 30 37 39 36 43 100 8 124 -28 20 -32 20 -48 1z"/>
 <path d="M1111 1276 c-7 -8 -11 -29 -9 -48 4 -41 48 -73 116 -82 41 -5 55 -12 76 -41 32 -41 74 -65 115 -65 16 0 42 -4 56 -10 80 -30 208 72 150 120 -19 16 -45 6 -52 -20 -3 -11 -20 -24 -40 -31 -29 -9 -37 -8 -53 6 -13 12 -27 15 -52 10 -31 -6 -38 -3 -61 25 -15 17 -27 38 -27 45 0 21 -14 26 -78 29 -66 3 -82 10 -82 35 0 36 -38 53 -59 27z"/>
 <path d="M2142 570 c-11 -19 -24 -30 -37 -29 -38 2 -46 -1 -55 -27 -8 -21 -15 -25 -34 -20 -23 6 -56 -14 -56 -33 0 -16 40 -43 65 -43 27 0 75 27 75 42 0 6 11 10 24 10 44 0 100 86 76 115 -19 23 -39 18 -58 -15z"/>
 </g>
<g id="layer102" fill="#ffffff" stroke="none">
 <path d="M1385 2913 c-27 -8 -88 -16 -135 -17 -107 -4 -260 -23 -297 -37 -15 -5 -62 -16 -105 -24 -151 -26 -252 -90 -352 -223 -47 -62 -78 -117 -108 -192 -41 -103 -42 -108 -43 -225 0 -110 2 -125 27 -180 37 -80 95 -245 114 -320 8 -33 30 -87 49 -120 34 -58 61 -114 108 -219 12 -28 42 -75 65 -105 24 -31 62 -92 84 -136 22 -44 54 -100 72 -125 17 -25 41 -66 54 -91 12 -25 42 -67 66 -95 24 -27 52 -67 64 -89 29 -58 144 -188 288 -326 102 -98 147 -122 314 -169 102 -29 125 -32 205 -27 140 7 249 59 379 178 60 55 164 187 196 249 10 19 52 70 93 112 41 42 86 99 99 126 27 54 90 158 155 256 23 35 56 92 72 127 17 34 37 69 45 78 19 22 61 108 74 151 31 105 65 184 95 227 42 57 57 93 97 233 37 128 50 311 30 428 -25 148 -130 303 -253 376 -32 19 -111 51 -175 72 -64 20 -150 48 -190 61 -61 20 -90 23 -185 22 -77 -1 -134 4 -182 16 -99 24 -743 31 -820 8z m1655 -401 c13 -39 13 -46 -3 -73 -9 -17 -17 -43 -17 -58 0 -44 -36 -83 -74 -79 -39 4 -48 38 -16 61 18 13 21 21 15 48 -6 26 -3 35 14 49 18 13 20 20 13 41 -13 33 3 61 31 57 16 -2 26 -15 37 -46z m-1136 -63 c14 -11 26 -27 26 -35 0 -8 9 -14 19 -14 37 0 73 -42 78 -92 5 -39 2 -48 -14 -57 -27 -14 -51 5 -55 44 -3 26 -8 31 -42 36 -39 6 -56 21 -56 52 0 21 -16 21 -50 2 -32 -18 -35 -18 -54 1 -21 21 -5 51 37 69 45 20 80 18 111 -6z m-1111 -113 c3 -8 4 -30 1 -48 -5 -31 -3 -34 28 -43 29 -9 33 -15 36 -47 3 -30 7 -38 22 -38 25 0 41 -29 29 -52 -15 -27 -83 -24 -103 4 -9 12 -16 32 -16 44 0 13 -10 25 -25 32 -14 7 -30 24 -36 39 -9 24 -4 95 8 116 8 13 51 7 56 -7z m1615 -712 c35 -24 31 -88 -8 -124 -16 -15 -30 -32 -30 -37 0 -12 -40 -48 -63 -56 -49 -18 -91 39 -47 63 11 6 20 8 20 4 0 -3 7 -1 15 6 8 7 15 21 15 31 0 11 11 25 25 31 22 10 25 16 20 40 -4 17 -2 35 5 43 16 19 20 19 48 -1z m-1250 -346 c7 -7 12 -20 12 -29 0 -25 16 -32 82 -35 64 -3 78 -8 78 -29 0 -7 12 -28 27 -45 23 -28 30 -31 61 -25 25 5 39 2 52 -10 16 -14 24 -15 53 -6 20 7 37 20 40 31 7 26 33 36 52 20 58 -48 -70 -150 -150 -120 -14 6 -40 10 -56 10 -41 0 -83 24 -115 65 -21 29 -35 36 -76 41 -68 9 -112 41 -116 82 -5 50 27 79 56 50z m1042 -693 c24 -29 -32 -115 -76 -115 -13 0 -24 -4 -24 -10 0 -15 -48 -42 -75 -42 -25 0 -65 27 -65 43 0 19 33 39 56 33 19 -5 26 -1 34 20 9 26 17 29 55 27 13 -1 26 10 37 29 19 33 39 38 58 15z"/>
 <path d="M504 2728 c-4 -7 -3 -8 4 -4 7 4 12 9 12 12 0 8 -9 4 -16 -8z"/>
 <path d="M2554 678 c-4 -7 -3 -8 4 -4 12 7 16 16 8 16 -3 0 -8 -5 -12 -12z"/>
 <path d="M1175 450 c10 -11 20 -20 23 -20 3 0 -3 9 -13 20 -10 11 -20 20 -23 20 -3 0 3 -9 13 -20z"/>
 <path d="M2254 308 l-19 -23 23 19 c12 11 22 21 22 23 0 8 -8 2 -26 -19z"/>
 </g>

</svg>