<?xml version="1.0" encoding="utf-8"?>
<!-- Generator: Adobe Illustrator 22.1.0, SVG Export Plug-In . SVG Version: 6.00 Build 0)  -->
<svg version="1.1" id="レイヤー_1" xmlns="http://www.w3.org/2000/svg" xmlns:xlink="http://www.w3.org/1999/xlink" x="0px"
	 y="0px" viewBox="0 0 300.5 82.2" style="enable-background:new 0 0 300.5 82.2;" xml:space="preserve">
<style type="text/css">
	.st0{fill:#A3A3A3;}
	.st1{fill:none;stroke:#A3A3A3;stroke-miterlimit:10;}
</style>
<g id="レイヤー_2_1_">
</g>
<g id="レイヤー_1_1_">
</g>
<polygon class="st0" points="135.2,63 150.2,82 165.2,63 "/>
<g>
	<g>
		<path class="st0" d="M17.5,2.1v2.5c-2.2-1.5-4.1-2.2-5.9-2.2c-1.3,0-2.4,0.3-3.3,1C7.4,4.1,7,5,7,6c0,0.7,0.3,1.4,0.8,2
			c0.5,0.6,2,1.4,4.5,2.3c2.4,0.9,4,1.9,4.8,2.9c0.7,1,1.1,2.1,1.1,3.4c0,1.7-0.7,3.1-2,4.2c-1.4,1.1-3,1.7-5,1.7
			c-2.2,0-4.3-0.7-6.4-2v-2.2c2.5,1.3,4.8,2,6.8,2c1.3,0,2.4-0.3,3.3-1.1c0.8-0.7,1.3-1.6,1.3-2.7c0-0.7-0.3-1.4-0.8-2.1
			c-0.6-0.6-2-1.4-4.5-2.4c-2.4-1-4-1.9-4.7-2.9c-0.7-0.9-1.1-2-1.1-3.1c0-1.6,0.7-3,2-4.2c1.3-1.1,3-1.7,4.9-1.7
			C13.5,0.3,15.4,0.9,17.5,2.1z"/>
		<path class="st0" d="M50.5,10.6H33.5c0,0.4-0.1,0.7-0.1,1.1c0,2.4,0.9,4.4,2.6,6.1c1.7,1.7,3.7,2.5,6.1,2.5c2.7,0,5.4-1.1,8-3.2
			v2.6c-2.5,1.9-5.2,2.9-8.3,2.9c-3.1,0-5.7-1.1-7.7-3.2c-2-2.1-3-4.9-3-8.2c0-3.1,0.9-5.8,2.8-7.8c1.9-2.1,4.2-3.1,7.1-3.1
			c2.7,0,4.9,0.9,6.8,2.8C49.6,4.9,50.5,7.4,50.5,10.6z M33.8,8.8h13.9C47,4.6,44.7,2.5,41,2.5c-1.8,0-3.3,0.5-4.6,1.6
			S34.3,6.8,33.8,8.8z"/>
		<path class="st0" d="M83.3,10.6H66.3c0,0.4-0.1,0.7-0.1,1.1c0,2.4,0.9,4.4,2.6,6.1c1.7,1.7,3.7,2.5,6.1,2.5c2.7,0,5.4-1.1,8-3.2
			v2.6c-2.5,1.9-5.2,2.9-8.3,2.9c-3.1,0-5.7-1.1-7.7-3.2c-2-2.1-3-4.9-3-8.2c0-3.1,0.9-5.8,2.8-7.8c1.9-2.1,4.2-3.1,7.1-3.1
			c2.7,0,4.9,0.9,6.8,2.8C82.3,4.9,83.3,7.4,83.3,10.6z M66.6,8.8h13.9c-0.8-4.2-3.1-6.3-6.8-6.3c-1.8,0-3.3,0.5-4.6,1.6
			S67,6.8,66.6,8.8z"/>
		<path class="st0" d="M123.4,0.7v3.8h0.1c1.7-2.8,4-4.2,6.8-4.2c3.3,0,5.6,1.7,6.9,5.2c2-3.4,4.5-5.2,7.5-5.2c2.2,0,4,0.8,5.4,2.4
			c1.4,1.6,2.1,3.7,2.1,6.3v13.2H150V10c0-2.3-0.5-4.1-1.5-5.5c-1-1.3-2.4-2-4.1-2c-1.3,0-2.5,0.4-3.5,1.2c-1,0.8-2,2.1-3,3.8v14.6
			h-2.3V9.9c0-2.4-0.5-4.2-1.5-5.5s-2.4-1.9-4.1-1.9c-2.5,0-4.6,1.5-6.5,4.6v15.1h-2.3V0.7H123.4z"/>
		<path class="st0" d="M177.2,0.3c3.1,0,5.7,1.1,7.8,3.2c2.1,2.1,3.1,4.8,3.1,8c0,3.2-1,5.8-3.1,8c-2.1,2.1-4.7,3.2-7.8,3.2
			c-3.1,0-5.7-1.1-7.8-3.2c-2.1-2.1-3.1-4.8-3.1-8c0-3.2,1-5.9,3.1-8C171.5,1.3,174.1,0.3,177.2,0.3z M177.2,20.3
			c2.4,0,4.4-0.8,6.1-2.5c1.6-1.7,2.4-3.8,2.4-6.4c0-2.5-0.8-4.7-2.4-6.4c-1.6-1.7-3.6-2.6-6-2.6c-2.4,0-4.5,0.8-6.1,2.5
			c-1.6,1.7-2.4,3.8-2.4,6.4c0,2.6,0.8,4.7,2.4,6.4C172.8,19.5,174.8,20.3,177.2,20.3z"/>
		<path class="st0" d="M220.6,2.8l-1.3,2.1c-1.8-1.6-3.2-2.5-4.3-2.5c-2.1,0-4.4,2.1-6.9,6.2v13.5h-2.3V0.7h2.3v5.7h0.1
			c2.6-4.1,5.1-6.1,7.5-6.1C217,0.3,218.7,1.1,220.6,2.8z"/>
		<path class="st0" d="M251.3,10.6h-16.9c0,0.4-0.1,0.7-0.1,1.1c0,2.4,0.9,4.4,2.6,6.1c1.7,1.7,3.7,2.5,6.1,2.5c2.7,0,5.4-1.1,8-3.2
			v2.6c-2.5,1.9-5.2,2.9-8.3,2.9c-3.1,0-5.7-1.1-7.7-3.2s-3-4.9-3-8.2c0-3.1,0.9-5.8,2.8-7.8c1.9-2.1,4.2-3.1,7.1-3.1
			c2.7,0,4.9,0.9,6.8,2.8S251.3,7.4,251.3,10.6z M234.7,8.8h13.9c-0.8-4.2-3.1-6.3-6.8-6.3c-1.8,0-3.3,0.5-4.6,1.6
			S235.1,6.8,234.7,8.8z"/>
		<path class="st0" d="M264.9,21.5c0-1.8,1.2-3.1,2.9-3.1s2.8,1.3,2.8,3.1c0,1.7-1.1,3-2.9,3C265.9,24.5,264.9,23.1,264.9,21.5z"/>
		<path class="st0" d="M278.2,21.5c0-1.8,1.2-3.1,2.9-3.1s2.8,1.3,2.8,3.1c0,1.7-1.1,3-2.9,3C279.2,24.5,278.2,23.1,278.2,21.5z"/>
		<path class="st0" d="M291.6,21.5c0-1.8,1.2-3.1,2.9-3.1s2.8,1.3,2.8,3.1c0,1.7-1.1,3-2.9,3C292.6,24.5,291.6,23.1,291.6,21.5z"/>
	</g>
</g>
<line class="st1" x1="0.2" y1="42.9" x2="300.2" y2="42.9"/>
</svg>
