<!DOCTYPE svg PUBLIC "-//W3C//DTD SVG 20010904//EN" "http://www.w3.org/TR/2001/REC-SVG-20010904/DTD/svg10.dtd">
<svg version="1.0" xmlns="http://www.w3.org/2000/svg" width="332px" height="309px" viewBox="0 0 3320 3090" preserveAspectRatio="xMidYMid meet">
<g id="layer101" fill="#9b3538" stroke="none">
 <path d="M1335 2882 c-16 -2 -51 -10 -77 -18 -26 -9 -56 -13 -67 -9 -21 6 -250 -20 -296 -35 -16 -5 -59 -14 -95 -20 -186 -33 -340 -177 -428 -401 -35 -89 -37 -100 -36 -209 0 -108 2 -120 36 -205 20 -49 54 -146 77 -215 23 -69 59 -154 80 -190 22 -36 42 -76 46 -90 13 -44 46 -103 92 -165 25 -33 56 -84 69 -113 13 -29 36 -72 52 -95 16 -23 42 -64 57 -91 15 -27 42 -65 59 -85 18 -20 47 -62 66 -95 20 -33 95 -119 175 -200 157 -160 191 -182 369 -231 224 -62 414 -7 588 172 31 32 82 96 113 143 31 47 83 113 115 147 33 35 71 84 86 110 15 27 62 104 104 173 42 69 90 150 107 180 73 133 90 159 122 186 43 36 61 79 61 147 0 39 7 67 24 98 14 24 32 71 41 104 9 33 24 80 32 105 24 70 29 308 9 393 -32 136 -125 267 -237 334 -30 17 -124 55 -209 84 -148 49 -162 52 -300 59 -80 4 -161 12 -180 18 -32 10 -587 21 -655 14z"/>
 </g>
<g id="layer102" fill="#c07a74" stroke="none">
 <path d="M1335 2882 c-16 -2 -51 -10 -77 -18 -26 -9 -56 -13 -67 -9 -21 6 -259 -21 -294 -34 -12 -5 -53 -14 -92 -20 -74 -13 -140 -40 -99 -41 65 -1 91 -82 54 -168 -22 -50 -64 -103 -46 -57 16 40 18 55 8 55 -6 0 -19 -22 -29 -50 -10 -27 -21 -50 -26 -50 -18 0 -47 22 -58 43 -9 18 -9 20 2 10 22 -22 31 -14 24 20 -9 42 -23 56 -35 37 -7 -11 -10 -4 -10 25 0 27 9 53 26 79 l26 39 -32 -19 c-80 -47 -185 -190 -238 -325 -35 -89 -37 -100 -36 -209 0 -108 2 -120 36 -205 20 -49 54 -146 77 -215 23 -69 59 -154 80 -190 22 -36 42 -76 46 -90 13 -44 46 -103 92 -165 25 -33 56 -84 69 -113 13 -29 36 -72 52 -95 16 -23 42 -64 57 -91 15 -27 42 -65 59 -85 18 -20 47 -62 66 -95 20 -33 95 -119 175 -200 157 -160 191 -182 369 -231 224 -62 414 -7 588 172 31 32 82 96 113 143 31 47 83 113 115 147 33 35 71 84 86 110 15 27 62 104 104 173 42 69 91 151 108 183 18 31 46 82 63 113 17 30 29 58 26 61 -4 3 0 12 8 20 8 8 15 21 15 28 0 23 -20 28 -34 9 -18 -23 -36 -9 -36 28 0 22 -5 31 -21 35 -19 5 -21 11 -17 55 9 89 87 139 135 86 11 -13 23 -32 27 -43 7 -18 10 -16 32 20 13 22 34 72 45 110 12 39 28 90 36 115 24 70 29 308 9 393 -32 136 -125 267 -237 334 -30 17 -124 55 -209 84 -148 49 -162 52 -300 59 -80 4 -161 12 -180 18 -32 10 -587 21 -655 14z m964 -321 c37 -37 40 -146 6 -180 -13 -14 -17 -14 -32 1 -15 16 -17 16 -29 0 -11 -16 -15 -15 -43 12 -33 32 -37 50 -20 109 20 72 77 99 118 58z m-1212 -721 c46 -41 74 -40 36 2 -24 27 -4 22 46 -11 53 -35 81 -76 81 -118 0 -33 -22 -63 -46 -63 -40 0 -103 29 -141 66 -38 36 -43 46 -43 85 0 38 13 69 28 69 2 0 20 -13 39 -30z m1092 -596 c27 -35 26 -46 -6 -85 -39 -46 -131 -81 -117 -44 4 10 -3 18 -21 25 -36 14 -45 13 -39 -5 8 -19 0 -19 -20 1 -25 25 -20 51 12 57 15 3 36 13 47 22 l20 16 -20 -4 c-11 -3 -29 -8 -40 -12 l-20 -7 20 17 c33 28 77 44 122 45 33 0 46 -5 62 -26z m-983 -394 c42 -21 85 -73 98 -120 7 -25 7 -25 -14 3 -22 27 -40 35 -40 18 0 -5 15 -26 34 -46 34 -36 34 -37 15 -56 -10 -10 -31 -19 -46 -19 -26 0 -26 1 -7 14 23 18 19 22 -28 31 -31 6 -38 4 -38 -8 0 -8 6 -18 13 -20 8 -4 8 -6 0 -6 -6 -1 -25 11 -43 25 -85 72 -80 187 9 203 3 1 24 -8 47 -19z"/>
 <path d="M1034 1837 c-10 -27 0 -52 24 -55 21 -3 21 -2 10 25 -17 40 -26 49 -34 30z"/>
 </g>
<g id="layer103" fill="#daa8a1" stroke="none">
 <path d="M1335 2882 c-16 -2 -51 -10 -77 -18 -26 -9 -56 -13 -67 -9 -24 7 -238 -19 -316 -39 -32 -9 -66 -16 -75 -16 -28 0 -90 -21 -90 -30 0 -6 6 -10 13 -10 30 0 57 -45 57 -94 0 -74 -61 -176 -105 -176 -39 0 -55 11 -75 51 -32 61 -22 124 29 183 37 44 -51 -19 -98 -70 -73 -80 -119 -153 -159 -255 -35 -89 -37 -100 -36 -209 0 -108 2 -120 36 -205 20 -49 54 -146 77 -215 23 -69 59 -154 80 -190 22 -36 42 -76 46 -90 13 -44 46 -103 92 -165 25 -33 56 -84 69 -113 13 -29 36 -72 52 -95 16 -23 42 -64 57 -91 15 -27 42 -65 59 -85 18 -20 47 -62 66 -95 20 -33 95 -119 175 -200 157 -160 191 -182 369 -231 224 -62 414 -7 588 172 31 32 82 96 113 143 31 47 83 113 115 147 33 35 71 84 86 110 15 27 62 104 104 173 42 69 91 151 108 183 18 31 46 82 63 113 29 52 30 56 11 49 -34 -10 -49 12 -46 69 1 29 -1 35 -3 16 -6 -51 -20 -58 -26 -13 -21 142 18 228 99 221 31 -2 43 -10 61 -36 l22 -34 21 34 c11 18 30 65 41 103 12 39 28 90 36 115 24 70 29 308 9 393 -32 136 -125 267 -237 334 -30 17 -124 55 -209 84 -148 49 -162 52 -300 59 -80 4 -161 12 -180 18 -32 10 -587 21 -655 14z m974 -328 c16 -21 21 -41 21 -88 0 -61 -21 -113 -41 -101 -5 4 -9 -1 -9 -9 0 -36 -80 -45 -94 -11 -3 9 -2 13 4 10 6 -3 10 1 10 9 0 9 -7 16 -15 16 -12 0 -15 13 -15 61 0 89 31 139 86 139 23 0 38 -7 53 -26z m421 -63 c13 -25 13 -88 0 -96 -5 -3 -10 -22 -10 -41 0 -59 -59 -96 -91 -58 -11 14 -10 19 9 35 18 14 21 24 16 45 -5 20 -2 31 11 40 13 10 16 21 12 42 -9 47 32 72 53 33z m-980 -81 c11 -11 20 -24 20 -30 0 -5 6 -10 14 -10 45 0 90 -87 64 -123 -16 -22 -48 -13 -48 13 0 35 -12 50 -39 50 -32 0 -51 16 -51 43 0 16 -4 18 -22 12 -73 -23 -106 8 -46 45 42 25 82 26 108 0z m-972 -126 c3 -34 7 -42 32 -51 24 -9 30 -17 30 -42 0 -20 5 -31 14 -31 7 0 19 -7 26 -15 18 -22 -4 -45 -44 -45 -39 0 -56 15 -56 52 0 15 -5 28 -12 28 -6 0 -20 7 -30 17 -21 19 -25 102 -6 121 23 23 43 9 46 -34z m357 -430 c59 -31 92 -59 111 -96 20 -39 17 -66 -11 -93 -24 -25 -75 -34 -75 -14 0 5 -5 7 -10 4 -6 -4 -17 -1 -25 5 -8 7 -15 9 -15 6 0 -20 -65 43 -81 78 -24 54 -24 85 3 113 27 29 42 29 103 -3z m1065 -173 c17 -33 11 -57 -25 -103 -54 -67 -67 -78 -91 -78 -47 0 -58 55 -12 62 15 2 24 11 26 26 2 13 14 28 27 34 20 9 22 16 18 44 -5 31 -4 34 20 34 16 0 30 -8 37 -19z m-1092 -314 c13 -27 22 -30 91 -31 30 -1 37 -6 55 -41 19 -37 25 -40 66 -43 25 -2 49 -7 55 -13 18 -17 46 -9 75 23 24 26 31 29 44 18 23 -18 20 -44 -10 -73 -32 -32 -86 -44 -129 -28 -17 6 -44 11 -60 11 -21 0 -40 12 -69 44 -35 36 -49 44 -89 48 -59 7 -87 30 -87 73 0 17 3 35 7 39 13 13 38 1 51 -27z m1052 -102 c58 -30 49 -96 -19 -142 -57 -38 -154 -24 -181 26 -16 30 -12 38 18 44 15 3 36 13 47 22 18 15 18 15 -12 0 -18 -8 -37 -15 -44 -15 -20 0 8 25 53 48 76 37 95 39 138 17z m-962 -409 c36 -19 65 -52 91 -104 30 -58 21 -76 -12 -27 -15 22 -27 33 -27 25 0 -8 15 -29 33 -48 l32 -33 -24 -20 c-33 -27 -99 -25 -142 4 -38 25 -79 97 -79 140 0 35 40 77 75 77 14 0 38 -6 53 -14z m810 -81 c4 -29 -34 -85 -57 -85 -11 0 -31 -11 -45 -25 -29 -29 -67 -32 -91 -9 -24 25 -15 49 19 49 19 1 34 9 44 23 8 12 25 22 37 22 13 0 30 11 39 26 20 29 50 29 54 -1z"/>
 <path d="M1085 1850 c22 -25 55 -45 55 -33 -1 4 -18 19 -38 32 -36 23 -36 23 -17 1z"/>
 <path d="M706 2561 c-9 -16 -16 -38 -16 -48 0 -10 9 2 20 26 23 50 19 68 -4 22z"/>
 </g>

</svg>