<?xml version="1.0" encoding="utf-8"?>
<!-- Generator: Adobe Illustrator 22.1.0, SVG Export Plug-In . SVG Version: 6.00 Build 0)  -->
<svg version="1.1" xmlns="http://www.w3.org/2000/svg" xmlns:xlink="http://www.w3.org/1999/xlink" x="0px" y="0px"
	 viewBox="0 0 447 46.8" style="enable-background:new 0 0 447 46.8;" xml:space="preserve">
<style type="text/css">
	.st0{fill:#FFFFFF;}
	.st1{fill:#3EBCC2;}
	.st2{fill:#595757;}
	.st3{fill:#69B32D;}
	.st4{fill:#5DAAD8;}
	.st5{fill:#EDA6C5;}
	.st6{fill:#0A9C91;}
	.st7{fill:none;stroke:#FFFFFF;stroke-width:0.4192;stroke-miterlimit:10;}
	.st8{opacity:0.1;}
	.st9{opacity:0.3;}
	.st10{fill:url(#SVGID_1_);}
	.st11{fill:#727272;}
	.st12{fill:#69B22D;}
	.st13{fill:#459543;}
	.st14{fill:#1B1B1B;}
	.st15{fill:#643231;}
	.st16{fill:none;stroke:#595757;stroke-width:0.8944;stroke-miterlimit:10;}
	.st17{fill:#A3A3A3;}
	.st18{fill:none;stroke:#A3A3A3;stroke-miterlimit:10;}
	.st19{fill:#E96447;}
	.st20{fill:#365FA8;}
	.st21{fill:#A961A0;}
	.st22{fill:#F1BC1B;}
	.st23{fill:#69B42D;}
	.st24{fill:#EDA6C5;stroke:#E5A2BF;stroke-width:1.5;stroke-linecap:round;stroke-linejoin:round;stroke-miterlimit:10;}
	.st25{fill:none;stroke:#FFFFFF;stroke-width:8;stroke-miterlimit:10;}
	.st26{fill:none;stroke:#FFFFFF;stroke-width:8;stroke-linecap:round;stroke-linejoin:round;stroke-miterlimit:10;}
	.st27{fill:#0A9D92;stroke:#11968C;stroke-width:1.1728;stroke-linejoin:round;stroke-miterlimit:10;}
</style>
<g id="レイヤー_2">
</g>
<g id="レイヤー_1">
	
		<rect x="372.1" y="18.5" transform="matrix(0.7071 0.7071 -0.7071 0.7071 129.0481 -260.5821)" class="st5" width="14" height="14"/>
	
		<rect x="401.1" y="18.5" transform="matrix(0.7071 0.7071 -0.7071 0.7071 137.5468 -281.0998)" class="st5" width="14" height="14"/>
	
		<rect x="430.1" y="18.5" transform="matrix(0.7071 0.7071 -0.7071 0.7071 146.0455 -301.6175)" class="st5" width="14" height="14"/>
	<rect x="2.9" y="18.5" transform="matrix(0.7071 0.7071 -0.7071 0.7071 20.9285 0.4419)" class="st5" width="14" height="14"/>
	<rect x="31.9" y="18.5" transform="matrix(0.7071 0.7071 -0.7071 0.7071 29.4272 -20.0758)" class="st5" width="14" height="14"/>
	<rect x="60.9" y="18.5" transform="matrix(0.7071 0.7071 -0.7071 0.7071 37.9258 -40.5935)" class="st5" width="14" height="14"/>
	<g>
		<g>
			<path class="st24" d="M134,8.8l-5,3c-0.9-1.6-1.8-2.7-2.6-3.2c-0.9-0.6-2-0.8-3.4-0.8c-1.7,0-3.1,0.5-4.2,1.5
				c-1.1,0.9-1.7,2.1-1.7,3.6c0,2,1.5,3.6,4.4,4.8l4,1.7c3.3,1.3,5.7,3,7.2,4.9c1.5,1.9,2.3,4.3,2.3,7.1c0,3.7-1.2,6.8-3.7,9.3
				c-2.5,2.5-5.6,3.7-9.3,3.7c-3.5,0-6.4-1-8.7-3.1c-2.3-2.1-3.7-5-4.2-8.8l6.2-1.4c0.3,2.4,0.8,4,1.5,5c1.3,1.8,3.1,2.6,5.5,2.6
				c1.9,0,3.5-0.6,4.7-1.9c1.3-1.3,1.9-2.9,1.9-4.9c0-0.8-0.1-1.5-0.3-2.2c-0.2-0.7-0.6-1.3-1-1.8c-0.5-0.6-1.1-1.1-1.8-1.6
				c-0.7-0.5-1.6-0.9-2.6-1.4l-3.9-1.6c-5.5-2.4-8.3-5.8-8.3-10.3c0-3.1,1.2-5.6,3.5-7.7c2.3-2.1,5.2-3.1,8.7-3.1
				C127.7,1.9,131.4,4.2,134,8.8z"/>
			<path class="st24" d="M150,2.7l10.5,27.2l11-29.2l10.5,29.2l11.2-27.2h6.6L181.8,46l-10.4-28.8L160.6,46L143.4,2.7H150z"/>
			<path class="st24" d="M233.1,8.5h-16.2v9.8h15.8v5.8h-15.8v13.6h16.2v5.8h-22.3V2.7h22.3V8.5z"/>
			<path class="st24" d="M269.5,8.5h-16.2v9.8H269v5.8h-15.8v13.6h16.2v5.8h-22.3V2.7h22.3V8.5z"/>
			<path class="st24" d="M295.3,8.5v34.9h-6.1V8.5h-9.3V2.7h24.7v5.8H295.3z"/>
			<path class="st24" d="M338.6,8.8l-5,3c-0.9-1.6-1.8-2.7-2.6-3.2c-0.9-0.6-2-0.8-3.4-0.8c-1.7,0-3.1,0.5-4.2,1.5
				c-1.1,0.9-1.7,2.1-1.7,3.6c0,2,1.5,3.6,4.4,4.8l4,1.7c3.3,1.3,5.7,3,7.2,4.9c1.5,1.9,2.3,4.3,2.3,7.1c0,3.7-1.2,6.8-3.7,9.3
				c-2.5,2.5-5.6,3.7-9.3,3.7c-3.5,0-6.4-1-8.7-3.1c-2.3-2.1-3.7-5-4.2-8.8l6.2-1.4c0.3,2.4,0.8,4,1.5,5c1.3,1.8,3.1,2.6,5.5,2.6
				c1.9,0,3.5-0.6,4.7-1.9s1.9-2.9,1.9-4.9c0-0.8-0.1-1.5-0.3-2.2c-0.2-0.7-0.6-1.3-1-1.8c-0.5-0.6-1.1-1.1-1.8-1.6
				c-0.7-0.5-1.6-0.9-2.6-1.4l-3.9-1.6c-5.5-2.4-8.3-5.8-8.3-10.3c0-3.1,1.2-5.6,3.5-7.7c2.3-2.1,5.2-3.1,8.7-3.1
				C332.3,1.9,336,4.2,338.6,8.8z"/>
		</g>
	</g>
</g>
<g id="レイヤー_3">
</g>
<g id="hashtag">
</g>
<g id="レイヤー_6">
</g>
<g id="レイヤー_7">
</g>
<g id="_x23_">
</g>
<g id="tag_x5F_txt">
</g>
</svg>
