<!DOCTYPE svg PUBLIC "-//W3C//DTD SVG 20010904//EN" "http://www.w3.org/TR/2001/REC-SVG-20010904/DTD/svg10.dtd">
<svg version="1.0" xmlns="http://www.w3.org/2000/svg" width="283px" height="274px" viewBox="0 0 2830 2740" preserveAspectRatio="xMidYMid meet">
<g id="layerbg1" fill="#ca1e22" stroke="none">
 <path d="M1318 1741 c-51 -25 -64 -42 -88 -107 -6 -17 -28 -50 -49 -72 -43 -46 -55 -76 -37 -92 17 -13 70 52 97 119 25 59 73 90 151 97 l53 4 -47 -13 c-50 -15 -98 -42 -98 -57 0 -19 18 -19 56 0 21 11 55 20 76 20 44 0 59 17 32 37 -17 13 -17 14 11 7 51 -11 94 -35 121 -67 36 -43 73 -119 87 -183 7 -30 17 -55 22 -55 15 0 25 63 15 96 -5 17 -17 53 -25 82 -20 63 -78 139 -137 178 -36 24 -55 29 -116 31 -61 2 -80 -2 -124 -25z"/>
 <path d="M1422 1527 c-9 -11 -8 -21 3 -44 22 -45 40 -57 54 -39 16 19 7 47 -23 75 -19 18 -25 19 -34 8z"/>
 <path d="M1557 1513 c-9 -9 12 -33 29 -33 14 0 21 -21 26 -73 4 -35 19 -37 37 -5 20 35 7 75 -32 98 -34 21 -49 24 -60 13z"/>
 <path d="M1212 1488 c-30 -30 -4 -74 54 -94 36 -12 41 -12 59 6 19 20 19 20 -11 32 -17 6 -38 24 -47 40 -17 30 -36 35 -55 16z"/>
 <path d="M1417 1280 c-37 -38 -36 -61 2 -41 26 14 62 61 55 72 -9 15 -17 10 -57 -31z"/>
 </g>
<g id="layerbg2" fill="#d13028" stroke="none">
 <path d="M1536 1741 c-3 -5 5 -16 19 -25 24 -16 45 -6 22 11 -24 19 -36 23 -41 14z"/>
 <path d="M1365 1700 c-4 -6 -10 -8 -15 -5 -14 8 -72 -24 -65 -36 4 -5 10 -7 14 -4 5 2 19 8 32 14 13 5 28 10 33 12 5 2 10 -4 12 -15 4 -25 20 -40 34 -31 8 5 6 13 -7 28 -16 19 -16 20 -1 8 10 -7 24 -11 32 -8 8 3 20 -1 27 -9 15 -18 35 -2 23 18 -5 7 -9 17 -9 23 0 13 -102 17 -110 5z"/>
 <path d="M1218 1620 c-14 -29 -21 -53 -16 -58 5 -5 -2 -22 -17 -40 -14 -17 -21 -33 -16 -36 10 -6 61 48 61 65 0 17 3 24 26 61 23 36 23 38 5 47 -16 9 -22 4 -43 -39z"/>
 <path d="M1323 1651 c-40 -25 -57 -53 -41 -69 16 -16 49 14 40 36 -5 14 -3 15 9 5 12 -10 19 -10 33 0 14 10 15 15 4 30 -12 16 -15 16 -45 -2z"/>
 <path d="M1557 1662 c-4 -5 9 -23 27 -41 19 -18 36 -29 39 -23 4 5 -9 23 -27 41 -19 18 -36 29 -39 23z"/>
 <path d="M1419 1538 c-6 -24 -3 -51 8 -59 7 -6 10 -15 7 -20 -3 -5 0 -18 6 -30 11 -20 13 -20 31 -3 17 16 17 40 -1 29 -4 -3 -13 2 -20 10 -7 8 -9 15 -5 15 4 0 2 7 -5 15 -6 8 -9 19 -6 24 4 5 2 12 -4 16 -5 3 -10 5 -11 3z"/>
 <path d="M1658 1525 c-7 -7 9 -63 23 -81 5 -6 6 -14 2 -17 -3 -4 0 -13 6 -21 7 -8 10 -20 7 -25 -10 -16 11 -22 24 -6 15 18 9 60 -9 60 -8 0 -15 10 -16 22 -1 12 3 21 9 20 6 -1 11 5 11 13 0 8 -6 14 -14 12 -7 -1 -18 4 -25 13 -6 9 -14 13 -18 10z"/>
 <path d="M1589 1518 c-6 -25 -5 -39 6 -48 10 -9 16 -7 24 9 9 17 8 22 -9 31 -11 6 -20 9 -21 8z"/>
 <path d="M1225 1501 c-3 -6 0 -13 8 -18 7 -4 20 -20 30 -35 10 -16 23 -27 30 -25 6 1 13 -5 13 -13 1 -8 2 -19 3 -24 0 -5 8 -3 16 4 11 9 12 17 4 31 -5 11 -14 17 -19 14 -5 -3 -21 12 -35 35 -25 40 -39 48 -50 31z"/>
 <path d="M1225 1411 c-8 -15 35 -35 47 -23 6 6 7 15 4 21 -9 14 -43 14 -51 2z"/>
 <path d="M1636 1412 c-4 -4 -13 -7 -19 -7 -7 0 -12 -6 -12 -14 0 -21 34 -22 45 -1 10 19 -1 36 -14 22z"/>
 <path d="M1435 1306 c-10 -15 -29 -32 -43 -37 -28 -11 -25 -32 6 -34 46 -3 91 49 68 80 -12 17 -14 17 -31 -9z"/>
 </g>
<g id="layerbg3" fill="#df5334" stroke="none">
 <path d="M1379 1699 c-87 -13 -124 -43 -159 -124 -23 -54 -58 -98 -72 -89 -4 3 -11 -1 -14 -9 -7 -20 29 -89 70 -135 18 -20 41 -51 49 -69 43 -83 111 -93 263 -38 111 40 155 65 182 103 19 26 19 27 0 95 -29 106 -43 133 -99 192 -65 69 -126 90 -220 74z m91 -236 c0 -12 -4 -23 -10 -23 -5 0 -10 9 -10 19 0 11 -4 23 -10 26 -5 3 -10 13 -10 22 0 14 3 14 20 -2 11 -10 20 -29 20 -42z m168 -23 c2 -18 -1 -37 -6 -42 -5 -5 -7 4 -4 22 3 23 -2 38 -19 58 l-24 26 25 -16 c17 -10 26 -26 28 -48z m-375 19 c9 -17 26 -33 37 -36 32 -9 23 -22 -14 -20 -41 3 -66 22 -66 52 0 44 19 46 43 4z"/>
 </g>
<g id="layerbg4" fill="#dcdddd" stroke="none">
 <path d="M1110 2673 c-14 -2 -53 -10 -87 -19 -35 -9 -70 -13 -79 -10 -32 12 -327 -35 -449 -72 -94 -28 -173 -85 -248 -181 -73 -92 -84 -110 -124 -214 -56 -145 -57 -282 -2 -402 22 -48 74 -199 95 -275 8 -30 27 -75 41 -100 37 -64 69 -127 96 -190 13 -30 41 -75 62 -100 21 -25 53 -77 72 -117 18 -39 43 -83 54 -97 12 -15 32 -48 46 -74 14 -26 43 -69 64 -97 22 -27 58 -78 80 -113 50 -77 288 -318 350 -354 25 -15 99 -43 165 -63 111 -34 126 -37 219 -32 72 3 116 11 155 26 133 54 267 173 373 332 31 46 80 109 110 140 30 31 67 79 82 105 16 27 63 105 105 174 43 69 87 143 98 165 11 22 36 66 55 98 20 32 50 104 68 160 19 56 44 115 57 131 36 44 57 92 92 206 27 89 33 125 37 240 3 80 1 159 -6 195 -16 88 -70 191 -135 262 -92 100 -132 120 -419 212 -86 27 -111 31 -200 30 -61 0 -126 5 -162 14 -44 11 -135 16 -350 19 -159 2 -301 2 -315 1z m655 -92 c17 -7 85 -14 155 -15 123 -3 128 -4 293 -59 92 -32 184 -68 205 -81 102 -64 184 -195 201 -321 27 -192 -23 -449 -111 -571 -16 -22 -47 -92 -69 -155 -21 -63 -55 -137 -74 -165 -19 -28 -35 -55 -35 -61 0 -9 -77 -137 -155 -259 -18 -27 -42 -69 -54 -92 -12 -23 -50 -72 -86 -109 -36 -37 -74 -84 -85 -104 -31 -61 -107 -154 -171 -212 -100 -91 -229 -147 -339 -147 -59 0 -218 43 -298 80 -52 24 -88 55 -195 164 -73 74 -148 160 -167 193 -19 32 -49 75 -67 95 -17 20 -42 56 -54 80 -12 24 -31 57 -44 73 -12 17 -38 62 -58 101 -19 39 -52 92 -72 119 -40 52 -85 131 -85 149 0 6 -20 47 -46 91 -25 44 -52 103 -61 130 -21 69 -88 259 -112 322 -45 114 -37 212 28 364 39 89 106 186 163 234 49 42 145 83 218 95 36 5 90 17 120 25 30 8 109 18 174 22 66 3 138 12 160 19 56 17 677 12 721 -5z"/>
 <path d="M2436 2281 c-13 -14 -14 -24 -7 -43 7 -20 5 -27 -11 -37 -15 -9 -18 -19 -13 -38 4 -19 0 -32 -16 -49 -22 -23 -22 -24 -4 -44 10 -11 27 -20 37 -20 30 0 68 45 68 80 0 17 7 41 15 53 11 18 12 31 5 56 -17 61 -43 76 -74 42z"/>
 <path d="M1402 2200 c-41 -25 -50 -47 -28 -68 14 -14 21 -15 48 -4 17 6 32 11 33 9 21 -42 39 -57 65 -57 27 0 30 -3 30 -30 0 -40 33 -59 61 -34 10 9 19 25 19 34 0 37 -23 81 -50 95 -15 8 -42 28 -58 45 -36 36 -73 39 -120 10z"/>
 <path d="M487 2102 c-11 -12 -17 -36 -17 -64 0 -39 5 -50 30 -71 17 -14 30 -32 30 -39 0 -53 79 -78 116 -37 19 21 18 21 -9 44 -15 13 -27 33 -27 45 0 13 -12 28 -30 38 -23 13 -30 24 -30 48 0 51 -33 70 -63 36z"/>
 <path d="M1894 1475 c-4 -8 -4 -24 -1 -35 3 -13 -1 -24 -14 -30 -10 -6 -21 -21 -25 -35 -3 -14 -14 -25 -26 -27 -34 -5 -45 -33 -24 -57 22 -24 54 -27 78 -8 30 23 98 121 98 142 0 50 -71 91 -86 50z"/>
 <path d="M811 1176 c-7 -8 -11 -29 -9 -48 4 -40 55 -78 105 -78 27 0 42 -9 76 -45 32 -33 51 -45 72 -45 16 0 43 -5 60 -11 45 -17 99 -4 135 32 35 36 38 59 9 85 -20 18 -21 18 -50 -14 -30 -32 -62 -41 -74 -22 -3 6 -26 10 -51 10 -42 0 -46 3 -59 33 -17 42 -40 61 -61 53 -24 -9 -84 4 -84 19 0 14 -32 45 -47 45 -6 0 -16 -6 -22 -14z"/>
 <path d="M1712 565 c-11 -14 -29 -25 -41 -25 -11 0 -28 -11 -36 -24 -11 -16 -22 -22 -36 -19 -22 6 -49 -12 -49 -33 0 -22 38 -54 64 -54 14 0 38 11 54 25 17 14 37 25 45 25 21 0 67 57 67 84 0 24 -17 46 -36 46 -7 0 -21 -11 -32 -25z"/>
 </g>
<g id="layerbg5" fill="#fae3de" stroke="none">
 <path d="M2624 2057 c-7 -20 -2 -47 11 -50 14 -3 19 43 6 56 -7 7 -12 6 -17 -6z"/>
 <path d="M1145 1430 c-8 -13 34 -72 45 -65 5 3 0 21 -11 40 -23 38 -25 40 -34 25z"/>
 <path d="M1696 1365 c-16 -24 -6 -45 11 -22 19 24 23 36 14 41 -5 3 -16 -5 -25 -19z"/>
 <path d="M347 1374 c-9 -10 22 -66 33 -59 6 4 4 18 -5 36 -17 31 -18 32 -28 23z"/>
 <path d="M1216 1332 c-3 -5 3 -17 13 -26 11 -10 22 -13 25 -8 3 5 -3 17 -13 26 -11 10 -22 13 -25 8z"/>
 <path d="M1463 1237 c-33 -12 -42 -34 -12 -30 33 4 70 23 64 33 -7 12 -11 12 -52 -3z"/>
 <path d="M1335 1210 c-7 -12 5 -17 40 -16 17 1 29 5 28 11 -3 12 -61 16 -68 5z"/>
 <path d="M915 1060 c-8 -12 20 -24 35 -15 6 3 8 11 5 16 -8 12 -32 12 -40 -1z"/>
 <path d="M1016 1062 c-3 -5 3 -17 13 -26 11 -10 22 -13 25 -8 3 5 -3 17 -13 26 -11 10 -22 13 -25 8z"/>
 <path d="M737 724 c-9 -10 22 -66 33 -59 6 4 4 18 -5 36 -17 31 -18 32 -28 23z"/>
 </g>
<g id="layerbg6" fill="#ffffff" stroke="none">
 <path d="M1045 2605 c-27 -8 -75 -14 -105 -15 -78 0 -217 -18 -270 -34 -25 -8 -67 -17 -95 -20 -165 -20 -326 -178 -406 -398 -44 -122 -46 -219 -6 -318 43 -107 87 -232 101 -285 13 -53 47 -126 76 -162 10 -13 28 -52 40 -87 13 -36 43 -91 67 -123 25 -32 65 -96 89 -143 60 -113 104 -185 151 -243 21 -27 49 -68 63 -91 41 -71 79 -115 205 -242 132 -133 163 -153 305 -196 172 -52 270 -46 403 25 80 42 211 168 267 257 25 39 78 107 118 151 39 44 82 99 93 121 12 23 36 65 54 92 78 122 155 250 155 259 0 6 16 33 35 61 19 28 52 101 73 162 21 61 54 136 74 165 38 59 56 102 89 224 30 110 30 330 -1 420 -27 77 -69 142 -134 203 -67 64 -108 84 -291 145 -144 48 -155 50 -275 52 -70 2 -138 8 -155 15 -46 19 -653 23 -720 5z m1444 -362 c8 -29 7 -42 -4 -60 -8 -12 -15 -36 -15 -52 0 -34 -22 -61 -50 -61 -29 0 -35 21 -11 39 18 14 21 23 15 45 -5 20 -2 30 11 40 13 10 17 21 12 43 -11 56 27 61 42 6z m-988 -53 c10 -6 19 -17 19 -25 0 -8 16 -21 35 -29 37 -16 58 -53 53 -90 -5 -33 -29 -24 -42 14 -9 29 -16 36 -43 38 -25 3 -34 9 -42 34 -9 25 -14 29 -33 23 -57 -17 -68 -17 -68 -1 0 33 80 57 121 36z m-971 -131 c0 -36 3 -41 30 -50 24 -9 30 -17 30 -40 0 -22 6 -32 26 -39 37 -14 24 -35 -22 -35 -36 0 -39 2 -44 33 -3 22 -13 37 -30 45 -20 10 -26 21 -28 56 -4 52 2 71 23 71 11 0 15 -11 15 -41z m1010 -331 c68 -35 116 -100 145 -198 34 -114 33 -150 -6 -195 -17 -19 -35 -35 -40 -35 -5 0 -31 -10 -57 -21 -119 -54 -131 -57 -193 -63 -46 -4 -109 21 -109 43 0 5 -27 42 -59 81 -83 102 -89 152 -27 220 18 19 37 47 44 63 7 15 17 39 24 53 33 69 187 98 278 52z m416 -285 c5 -16 2 -35 -7 -48 -8 -12 -25 -38 -38 -58 -23 -37 -58 -54 -86 -43 -23 8 -18 34 7 38 13 2 29 15 36 30 7 16 22 32 32 38 15 8 18 17 13 40 -5 26 -2 30 16 30 14 0 23 -8 27 -27z m-1096 -297 c12 -33 24 -38 81 -38 46 0 50 -2 65 -34 19 -40 47 -58 80 -51 13 2 32 -2 41 -9 29 -21 53 -16 84 18 33 35 56 28 45 -15 -8 -32 -67 -61 -110 -54 -122 22 -130 25 -161 60 -23 27 -42 38 -84 46 -68 14 -81 25 -81 67 0 41 26 47 40 10z m900 -599 c0 -29 -26 -67 -47 -67 -8 0 -28 -11 -45 -25 -32 -27 -67 -32 -86 -13 -22 22 -14 41 13 35 19 -3 31 2 44 19 10 13 28 24 40 24 11 0 28 11 37 25 20 31 44 32 44 2z"/>
 </g>
<g id="layer101" fill="#ca1e22" stroke="none">
 <path d="M1320 1733 c-28 -13 -55 -34 -59 -46 -31 -80 -46 -108 -66 -121 -24 -16 -57 -75 -48 -89 9 -14 51 42 82 108 22 47 37 65 69 83 87 48 208 38 281 -24 47 -41 106 -153 117 -222 l8 -47 7 35 c5 19 4 49 -1 65 -5 17 -17 53 -25 81 -19 63 -72 133 -128 170 -60 39 -163 43 -237 7z"/>
 <path d="M1407 1668 c-46 -10 -97 -35 -97 -48 0 -13 0 -13 45 10 22 11 56 20 77 20 21 0 38 4 38 9 0 15 -23 18 -63 9z"/>
 <path d="M1426 1522 c-7 -12 24 -73 39 -75 5 -1 11 5 13 14 4 22 -42 76 -52 61z"/>
 <path d="M1565 1500 c3 -5 12 -10 20 -10 19 0 29 -18 35 -70 l6 -45 13 27 c18 37 7 75 -29 93 -33 17 -54 20 -45 5z"/>
 <path d="M1213 1474 c-10 -27 11 -56 52 -70 34 -11 42 -11 54 1 12 12 10 15 -13 21 -15 3 -33 19 -42 35 -16 32 -41 38 -51 13z"/>
 <path d="M1422 1274 c-34 -36 -32 -45 6 -18 23 16 48 54 35 53 -4 0 -23 -16 -41 -35z"/>
 </g>
<g id="layer102" fill="#d13028" stroke="none">
 <path d="M1383 1753 c4 -3 10 -3 14 0 3 4 0 7 -7 7 -7 0 -10 -3 -7 -7z"/>
 <path d="M1473 1753 c4 -3 10 -3 14 0 3 4 0 7 -7 7 -7 0 -10 -3 -7 -7z"/>
 <path d="M1304 1728 c-4 -7 -3 -8 4 -4 12 7 16 16 8 16 -3 0 -8 -5 -12 -12z"/>
 <path d="M1565 1720 c3 -5 8 -10 11 -10 3 0 2 5 -1 10 -3 6 -8 10 -11 10 -3 0 -2 -4 1 -10z"/>
 <path d="M1383 1693 c9 -2 23 -2 30 0 6 3 -1 5 -18 5 -16 0 -22 -2 -12 -5z"/>
 <path d="M1448 1693 c7 -3 16 -2 19 1 4 3 -2 6 -13 5 -11 0 -14 -3 -6 -6z"/>
 <path d="M1333 1683 c4 -3 10 -3 14 0 3 4 0 7 -7 7 -7 0 -10 -3 -7 -7z"/>
 <path d="M1418 1673 c7 -3 16 -2 19 1 4 3 -2 6 -13 5 -11 0 -14 -3 -6 -6z"/>
 <path d="M1470 1660 c0 -7 3 -10 7 -7 3 4 3 10 0 14 -4 3 -7 0 -7 -7z"/>
 <path d="M1625 1660 c3 -5 8 -10 11 -10 3 0 2 5 -1 10 -3 6 -8 10 -11 10 -3 0 -2 -4 1 -10z"/>
 <path d="M1241 1653 c-1 -17 16 -25 25 -12 4 7 3 9 -4 5 -5 -3 -13 0 -15 6 -4 9 -6 10 -6 1z"/>
 <path d="M1560 1657 c0 -2 15 -16 33 -33 l32 -29 -29 33 c-28 30 -36 37 -36 29z"/>
 <path d="M1393 1643 c4 -3 10 -3 14 0 3 4 0 7 -7 7 -7 0 -10 -3 -7 -7z"/>
 <path d="M1296 1618 c-16 -23 -11 -47 7 -29 9 9 18 51 11 51 -2 0 -10 -10 -18 -22z"/>
 <path d="M1235 1620 c3 -5 8 -10 11 -10 3 0 2 5 -1 10 -3 6 -8 10 -11 10 -3 0 -2 -4 1 -10z"/>
 <path d="M1225 1600 c3 -5 8 -10 11 -10 3 0 2 5 -1 10 -3 6 -8 10 -11 10 -3 0 -2 -4 1 -10z"/>
 <path d="M1204 1578 c-4 -7 -3 -8 4 -4 7 4 12 9 12 12 0 8 -9 4 -16 -8z"/>
 <path d="M1184 1508 l-19 -23 23 19 c21 18 27 26 19 26 -2 0 -12 -10 -23 -22z"/>
 <path d="M1230 1496 c0 -2 7 -7 16 -10 8 -3 12 -2 9 4 -6 10 -25 14 -25 6z"/>
 <path d="M1425 1490 c3 -5 8 -10 11 -10 3 0 2 5 -1 10 -3 6 -8 10 -11 10 -3 0 -2 -4 1 -10z"/>
 <path d="M1670 1490 c0 -7 3 -10 7 -7 3 4 3 10 0 14 -4 3 -7 0 -7 -7z"/>
 <path d="M1700 1490 c0 -7 3 -10 7 -7 3 4 3 10 0 14 -4 3 -7 0 -7 -7z"/>
 <path d="M1595 1480 c3 -5 8 -10 11 -10 3 0 2 5 -1 10 -3 6 -8 10 -11 10 -3 0 -2 -4 1 -10z"/>
 <path d="M1680 1460 c0 -7 3 -10 7 -7 3 4 3 10 0 14 -4 3 -7 0 -7 -7z"/>
 <path d="M1440 1454 c0 -5 4 -15 9 -22 6 -10 11 -9 22 5 7 10 9 15 5 11 -5 -4 -15 -3 -23 3 -7 6 -13 8 -13 3z"/>
 <path d="M1275 1440 c3 -5 8 -10 11 -10 3 0 2 5 -1 10 -3 6 -8 10 -11 10 -3 0 -2 -4 1 -10z"/>
 <path d="M1690 1420 c0 -7 3 -10 7 -7 3 4 3 10 0 14 -4 3 -7 0 -7 -7z"/>
 <path d="M1709 1402 c-3 -20 -2 -29 4 -23 5 5 7 19 5 32 -3 20 -5 19 -9 -9z"/>
 <path d="M1240 1400 c19 -13 30 -13 30 0 0 6 -10 10 -22 10 -19 0 -20 -2 -8 -10z"/>
 <path d="M1314 1398 c-4 -7 -3 -8 4 -4 12 7 16 16 8 16 -3 0 -8 -5 -12 -12z"/>
 <path d="M1610 1390 c0 -7 3 -10 7 -7 3 4 3 10 0 14 -4 3 -7 0 -7 -7z"/>
 <path d="M1444 1308 c-4 -7 -3 -8 4 -4 12 7 16 16 8 16 -3 0 -8 -5 -12 -12z"/>
 <path d="M1419 1273 c-13 -16 -12 -17 4 -4 16 13 21 21 13 21 -2 0 -10 -8 -17 -17z"/>
 <path d="M1439 1263 c-13 -16 -12 -17 4 -4 16 13 21 21 13 21 -2 0 -10 -8 -17 -17z"/>
 <path d="M1380 1249 c0 -5 5 -7 10 -4 6 3 10 8 10 11 0 2 -4 4 -10 4 -5 0 -10 -5 -10 -11z"/>
 </g>
<g id="layer103" fill="#df5334" stroke="none">
 <path d="M1377 1689 c-75 -12 -108 -36 -142 -106 -32 -66 -72 -116 -86 -107 -31 19 18 -82 65 -134 18 -20 41 -51 50 -69 38 -74 104 -82 252 -28 110 40 159 67 176 98 15 27 13 40 -18 139 -19 61 -35 89 -75 132 -63 70 -125 91 -222 75z m87 -15 c25 -10 18 -24 -11 -24 -46 0 -100 -19 -132 -46 -16 -13 -32 -20 -35 -15 -11 16 28 51 79 71 54 21 74 23 99 14z m-7 -166 c26 -25 30 -60 8 -78 -13 -11 -16 -8 -21 19 -4 17 -11 34 -15 37 -11 6 -12 44 -2 44 4 0 17 -10 30 -22z m167 -19 c17 -13 26 -30 26 -49 0 -38 -9 -60 -25 -60 -10 0 -12 10 -8 35 6 37 -16 75 -44 75 -7 0 -13 5 -13 10 0 17 36 11 64 -11z m-359 -19 c9 -17 27 -35 41 -40 36 -14 24 -35 -20 -36 -59 -2 -100 58 -64 94 18 18 26 15 43 -18z m205 -171 c0 -18 -49 -59 -70 -59 -11 0 -20 5 -20 10 0 6 7 10 15 10 8 0 24 13 36 30 21 27 39 32 39 9z"/>
 </g>
<g id="layer104" fill="#dcdddd" stroke="none">
 <path d="M1110 2663 c-14 -2 -53 -10 -87 -19 -35 -9 -70 -13 -79 -10 -34 13 -337 -37 -459 -76 -148 -46 -276 -186 -352 -382 -56 -144 -57 -281 -2 -401 22 -48 74 -199 95 -275 8 -30 27 -75 41 -100 37 -64 69 -127 96 -190 13 -30 41 -75 62 -100 21 -25 53 -77 72 -117 18 -39 43 -83 54 -97 12 -15 32 -48 46 -74 14 -26 43 -69 64 -97 22 -27 58 -78 80 -112 49 -76 280 -310 341 -346 25 -14 98 -42 164 -62 111 -34 126 -37 219 -32 116 5 173 24 276 93 83 55 169 146 243 257 32 47 81 110 110 140 29 30 66 76 81 103 16 27 63 105 105 174 43 69 87 143 98 165 11 22 36 66 55 98 20 32 50 104 68 160 19 56 44 115 57 131 36 44 57 92 92 206 27 89 33 125 37 240 3 80 1 159 -6 195 -24 130 -120 274 -229 343 -46 30 -119 58 -315 121 -86 27 -111 31 -200 30 -61 0 -126 5 -162 14 -44 11 -135 16 -350 19 -159 2 -301 2 -315 1z m655 -72 c17 -7 85 -14 155 -15 123 -3 128 -4 293 -59 189 -64 220 -81 295 -161 65 -69 108 -158 121 -251 27 -192 -23 -449 -111 -571 -16 -22 -47 -92 -69 -155 -21 -63 -55 -137 -74 -165 -19 -28 -35 -55 -35 -61 0 -9 -77 -137 -155 -259 -18 -27 -42 -69 -54 -92 -12 -23 -51 -73 -87 -110 -36 -38 -74 -86 -84 -105 -59 -109 -198 -252 -298 -305 -69 -37 -159 -62 -222 -62 -59 0 -218 43 -299 81 -53 24 -88 54 -200 168 -76 77 -151 165 -171 198 -19 32 -49 75 -67 95 -17 20 -42 56 -54 80 -12 24 -31 57 -44 73 -12 17 -38 62 -58 101 -19 39 -52 92 -72 119 -40 52 -85 131 -85 149 0 6 -20 47 -46 91 -25 44 -52 103 -61 130 -21 69 -88 259 -112 322 -45 114 -37 212 28 364 84 195 219 312 391 339 36 5 90 17 120 25 30 8 109 18 174 22 66 3 138 12 160 19 56 17 677 12 721 -5z"/>
 <path d="M2441 2277 c-8 -10 -9 -22 -2 -41 9 -21 7 -27 -10 -37 -16 -8 -19 -16 -14 -40 5 -23 2 -33 -16 -48 -20 -16 -21 -21 -10 -35 31 -37 91 -1 91 54 0 17 7 41 15 54 30 46 -20 133 -54 93z"/>
 <path d="M1402 2190 c-59 -36 -27 -69 43 -46 16 6 23 1 31 -23 9 -23 19 -30 45 -33 30 -3 34 -7 37 -35 3 -34 27 -50 48 -32 32 27 6 104 -42 121 -19 6 -34 18 -34 24 0 19 -41 44 -70 44 -14 0 -40 -9 -58 -20z"/>
 <path d="M492 2098 c-19 -19 -15 -102 6 -121 10 -10 24 -17 30 -17 7 0 12 -9 12 -21 0 -39 19 -59 54 -59 41 0 64 23 46 45 -7 8 -19 15 -26 15 -9 0 -14 11 -14 31 0 25 -6 33 -30 42 -25 9 -29 17 -32 51 -3 43 -23 57 -46 34z"/>
 <path d="M1903 1445 c4 -27 2 -35 -13 -40 -10 -3 -23 -19 -28 -35 -7 -18 -19 -30 -34 -32 -15 -2 -23 -10 -23 -22 0 -27 29 -42 59 -31 29 12 106 111 106 138 0 33 -20 57 -47 57 -24 0 -25 -3 -20 -35z"/>
 <path d="M817 1174 c-4 -4 -7 -22 -7 -41 0 -27 6 -37 33 -53 17 -11 47 -20 66 -20 27 0 42 -9 75 -45 31 -33 50 -45 71 -45 16 0 43 -5 60 -11 43 -16 97 -4 129 28 30 29 33 55 10 73 -13 11 -20 8 -44 -18 -29 -32 -57 -40 -75 -23 -6 6 -30 11 -55 13 -41 3 -47 6 -66 43 -18 35 -25 40 -55 41 -69 1 -78 4 -91 31 -13 28 -38 40 -51 27z"/>
 <path d="M1714 556 c-9 -15 -26 -26 -39 -26 -12 0 -29 -10 -37 -22 -10 -14 -25 -22 -44 -23 -34 0 -43 -24 -19 -49 24 -23 59 -20 93 9 17 14 37 25 45 25 24 0 58 50 55 79 -4 35 -33 38 -54 7z"/>
 </g>
<g id="layer105" fill="#fae3de" stroke="none">
 <path d="M2632 2035 c0 -16 2 -22 5 -12 2 9 2 23 0 30 -3 6 -5 -1 -5 -18z"/>
 <path d="M1154 1528 c-4 -7 -3 -8 4 -4 12 7 16 16 8 16 -3 0 -8 -5 -12 -12z"/>
 <path d="M1150 1421 c0 -6 4 -13 10 -16 6 -3 7 1 4 9 -7 18 -14 21 -14 7z"/>
 <path d="M1175 1380 c3 -5 8 -10 11 -10 3 0 2 5 -1 10 -3 6 -8 10 -11 10 -3 0 -2 -4 1 -10z"/>
 <path d="M1694 1348 c-4 -7 -3 -8 4 -4 12 7 16 16 8 16 -3 0 -8 -5 -12 -12z"/>
 <path d="M1220 1326 c0 -2 8 -10 18 -17 15 -13 16 -12 3 4 -13 16 -21 21 -21 13z"/>
 <path d="M1644 1298 c-4 -7 -3 -8 4 -4 7 4 12 9 12 12 0 8 -9 4 -16 -8z"/>
 <path d="M1543 1253 c4 -3 10 -3 14 0 3 4 0 7 -7 7 -7 0 -10 -3 -7 -7z"/>
 <path d="M1493 1233 c4 -3 10 -3 14 0 3 4 0 7 -7 7 -7 0 -10 -3 -7 -7z"/>
 <path d="M1463 1223 c4 -3 10 -3 14 0 3 4 0 7 -7 7 -7 0 -10 -3 -7 -7z"/>
 <path d="M1433 1213 c4 -3 10 -3 14 0 3 4 0 7 -7 7 -7 0 -10 -3 -7 -7z"/>
 <path d="M1343 1203 c4 -3 10 -3 14 0 3 4 0 7 -7 7 -7 0 -10 -3 -7 -7z"/>
 <path d="M1383 1203 c4 -3 10 -3 14 0 3 4 0 7 -7 7 -7 0 -10 -3 -7 -7z"/>
 <path d="M928 1053 c7 -3 16 -2 19 1 4 3 -2 6 -13 5 -11 0 -14 -3 -6 -6z"/>
 </g>
<g id="layer106" fill="#ffffff" stroke="none">
 <path d="M1045 2595 c-27 -8 -75 -14 -105 -15 -78 0 -217 -18 -270 -34 -25 -8 -67 -17 -95 -20 -163 -20 -317 -170 -396 -388 -44 -122 -46 -219 -6 -318 43 -107 87 -232 101 -285 13 -53 47 -126 76 -162 10 -13 28 -52 40 -87 13 -36 43 -91 67 -123 25 -32 65 -96 89 -143 60 -113 104 -185 151 -243 21 -27 49 -68 63 -91 41 -70 78 -114 201 -237 128 -129 159 -148 299 -191 172 -52 270 -46 402 24 102 54 240 197 301 313 9 17 45 60 81 97 36 37 75 87 87 110 12 23 36 65 54 92 78 122 155 250 155 259 0 6 16 33 35 61 19 28 52 101 73 162 21 61 54 136 74 165 38 59 56 102 89 224 30 110 30 330 -1 420 -26 76 -69 142 -129 198 -63 59 -106 80 -286 140 -144 48 -155 50 -275 52 -70 2 -138 8 -155 15 -46 19 -653 23 -720 5z m1453 -349 c10 -33 10 -42 -3 -62 -8 -13 -15 -37 -15 -54 0 -55 -60 -91 -91 -54 -11 14 -10 19 9 35 18 14 21 24 16 45 -5 20 -2 31 11 40 13 10 16 21 12 42 -12 62 41 69 61 8z m-990 -52 c12 -8 22 -21 22 -28 0 -6 15 -18 34 -24 48 -17 74 -94 42 -121 -18 -15 -46 -3 -46 19 0 36 -12 50 -42 50 -24 0 -32 6 -41 31 -9 24 -16 29 -32 23 -70 -23 -102 10 -43 46 40 24 76 26 106 4z m-970 -130 c3 -34 7 -42 32 -51 24 -9 30 -17 30 -42 0 -20 5 -31 14 -31 7 0 19 -7 26 -15 18 -22 -4 -45 -44 -45 -39 0 -56 15 -56 52 0 15 -5 28 -12 28 -6 0 -20 7 -30 17 -21 19 -25 102 -6 121 23 23 43 9 46 -34z m998 -323 c63 -29 129 -112 155 -195 12 -39 24 -94 27 -122 4 -48 2 -54 -33 -93 -21 -22 -41 -41 -46 -41 -5 0 -31 -10 -57 -21 -119 -54 -132 -58 -192 -63 -50 -4 -107 18 -116 46 -3 10 -32 50 -64 89 -82 101 -88 151 -26 219 18 19 37 46 43 60 36 84 55 106 118 128 49 17 145 14 191 -7z m428 -294 c11 -30 11 -30 -47 -116 -29 -43 -69 -61 -96 -44 -25 16 -20 47 7 51 15 2 27 14 34 32 5 16 18 32 28 35 15 5 18 13 13 41 -6 34 -5 35 23 32 21 -2 31 -11 38 -31z m-1096 -300 c9 -19 21 -27 40 -28 15 -1 40 -2 56 -3 22 -1 34 -9 49 -36 24 -44 34 -50 74 -48 18 1 38 -3 45 -10 20 -20 48 -14 77 18 32 35 61 32 61 -7 0 -54 -91 -98 -155 -74 -17 6 -44 11 -60 11 -20 0 -39 12 -65 39 -28 30 -50 41 -91 50 -29 7 -61 19 -71 28 -18 16 -25 73 -11 87 13 13 38 1 51 -27z m900 -598 c3 -29 -31 -79 -55 -79 -8 0 -28 -11 -45 -25 -34 -29 -69 -32 -93 -9 -24 25 -15 49 19 49 19 1 34 9 44 23 8 12 25 22 37 22 13 0 30 11 39 26 21 31 50 28 54 -7z"/>
 <path d="M1005 320 c3 -5 8 -10 11 -10 3 0 2 5 -1 10 -3 6 -8 10 -11 10 -3 0 -2 -4 1 -10z"/>
 </g>

</svg>