<!DOCTYPE svg PUBLIC "-//W3C//DTD SVG 20010904//EN" "http://www.w3.org/TR/2001/REC-SVG-20010904/DTD/svg10.dtd">
<svg version="1.0" xmlns="http://www.w3.org/2000/svg" width="539px" height="284px" viewBox="0 0 5390 2840" preserveAspectRatio="xMidYMid meet">
<g id="layer101" fill="#904d1e" stroke="none">
 <path d="M5070 2746 c-174 -77 -751 -373 -1263 -648 l-277 -149 -158 35 c-176 39 -364 69 -557 88 -197 20 -818 16 -1015 -5 -693 -77 -1199 -265 -1508 -561 -240 -230 -299 -436 -186 -647 42 -78 164 -201 268 -271 434 -290 1160 -452 2006 -447 221 1 267 -2 311 -16 67 -23 134 -16 230 23 45 19 109 35 164 42 50 6 167 26 260 45 733 146 1212 438 1265 770 30 189 -96 407 -344 594 -98 75 -223 149 -329 196 -36 17 -67 32 -67 35 0 3 252 138 560 299 689 362 850 448 872 468 53 48 -24 156 -127 177 -22 4 -50 -3 -105 -28z"/>
 </g>
<g id="layer102" fill="#d7b660" stroke="none">
 <path d="M5070 2746 c-174 -77 -751 -373 -1263 -648 l-277 -149 -158 35 c-176 39 -364 69 -557 88 -197 20 -818 16 -1015 -5 -693 -77 -1199 -265 -1508 -561 -240 -230 -299 -436 -186 -647 16 -30 63 -89 103 -132 291 -305 938 -518 1756 -577 167 -12 642 -13 649 -2 3 4 -282 97 -632 206 -617 193 -1132 358 -1239 398 -46 17 -54 24 -63 56 -13 49 -11 247 3 297 11 36 19 43 87 77 118 58 379 160 441 171 l56 11 12 58 12 58 70 35 c89 45 281 124 387 159 58 20 93 26 117 22 93 -18 1038 -322 1043 -337 2 -5 8 -7 13 -3 5 3 221 -65 480 -151 435 -145 471 -159 480 -183 7 -18 7 -72 -1 -167 -18 -227 3 -197 -203 -293 -212 -99 -287 -121 -349 -105 -50 13 -58 7 -58 -47 0 -19 -4 -51 -10 -70 -9 -33 -18 -39 -135 -94 -69 -32 -123 -61 -121 -63 7 -7 217 25 374 58 804 167 1292 517 1232 883 -10 65 -52 162 -100 231 -109 158 -341 337 -573 440 -36 17 -67 32 -67 35 0 3 252 138 560 299 689 362 850 448 872 468 53 48 -24 156 -127 177 -22 4 -50 -3 -105 -28z"/>
 <path d="M1826 1674 c-4 -10 -14 -79 -22 -153 -8 -75 -16 -140 -17 -145 -2 -5 -36 -17 -77 -27 -73 -18 -266 -108 -364 -170 -36 -23 -46 -33 -37 -42 15 -15 61 2 191 75 221 121 261 126 483 59 245 -74 630 -199 1243 -402 495 -164 614 -197 614 -170 0 5 -26 19 -57 31 -204 76 -1432 487 -1728 578 l-190 58 -5 152 c-5 144 -17 200 -34 156z"/>
 <path d="M1226 1333 c-4 -9 -14 -80 -23 -157 -9 -78 -17 -142 -18 -144 -1 -1 -29 -9 -61 -17 -92 -24 -159 -52 -289 -124 -126 -68 -140 -80 -125 -95 14 -14 68 7 171 66 227 129 291 137 509 69 257 -80 667 -213 1226 -397 308 -101 575 -184 593 -184 62 0 26 24 -110 72 -241 86 -1561 525 -1695 564 l-131 38 -7 130 c-8 145 -14 196 -26 196 -4 0 -11 -8 -14 -17z"/>
 </g>
<g id="layer103" fill="#f0e7e0" stroke="none">
 <path d="M2015 2084 c-779 -49 -1382 -251 -1723 -578 -240 -230 -299 -436 -186 -647 16 -30 63 -89 103 -132 291 -305 938 -518 1756 -577 167 -12 642 -13 649 -2 3 4 -282 97 -632 206 -617 193 -1132 358 -1239 398 -46 17 -54 24 -63 56 -13 49 -11 247 3 297 11 36 19 43 87 77 118 58 379 160 441 171 l56 11 12 58 12 58 77 39 c93 46 300 130 400 162 l72 23 118 -34 c64 -18 261 -80 437 -137 176 -56 365 -117 421 -134 l101 -32 139 83 c226 134 313 202 301 234 -16 42 -148 4 -432 -127 -156 -71 -175 -79 -175 -69 0 19 189 131 583 347 154 85 194 111 179 116 -83 31 -465 98 -682 120 -105 10 -702 20 -815 13z"/>
 <path d="M3775 1792 c-199 -108 -412 -221 -609 -323 l-220 -113 463 -154 c427 -142 463 -156 472 -180 7 -18 7 -72 -1 -167 -18 -227 3 -197 -203 -293 -212 -99 -287 -121 -349 -105 -50 13 -58 7 -58 -47 0 -19 -4 -51 -10 -70 -9 -33 -18 -39 -135 -94 -69 -32 -123 -61 -121 -63 7 -7 217 25 374 58 711 148 1180 438 1232 764 42 261 -210 564 -644 776 -55 27 -104 49 -110 49 -6 0 -42 -18 -81 -38z"/>
 </g>

</svg>