<!DOCTYPE svg PUBLIC "-//W3C//DTD SVG 20010904//EN" "http://www.w3.org/TR/2001/REC-SVG-20010904/DTD/svg10.dtd">
<svg version="1.0" xmlns="http://www.w3.org/2000/svg" width="624px" height="624px" viewBox="0 0 6240 6240" preserveAspectRatio="xMidYMid meet">
<g id="layerbg1" fill="#8b4316" stroke="none">
 <path d="M2361 3206 c-6 -7 -8 -29 -4 -52 3 -21 5 -90 4 -153 -1 -69 3 -119 10 -127 6 -7 25 -16 42 -19 48 -10 97 -25 417 -129 529 -171 676 -219 685 -226 6 -5 118 -43 250 -85 132 -43 245 -81 250 -85 6 -5 56 -22 113 -40 56 -17 114 -37 130 -44 15 -7 38 -18 52 -24 l25 -11 -30 0 c-16 -1 -194 53 -395 119 -201 66 -471 154 -600 196 -565 184 -676 220 -775 249 -33 9 -78 23 -100 30 -58 19 -105 28 -145 28 -80 -2 -226 -63 -354 -148 -16 -11 -54 -24 -85 -30 -115 -23 -71 -47 339 -178 216 -70 1328 -418 1540 -483 30 -9 70 -24 89 -32 35 -15 122 -11 145 6 6 5 25 12 41 16 17 4 66 24 110 45 44 21 118 55 163 77 46 21 88 47 93 56 10 19 14 44 29 213 10 109 7 159 -12 182 -8 10 -578 203 -778 263 -41 12 -88 28 -105 35 -16 7 -109 38 -205 69 -96 31 -236 76 -310 100 -74 24 -182 58 -240 76 -58 18 -114 37 -125 42 -18 7 -46 15 -170 48 -16 4 -42 12 -57 18 -20 8 -29 8 -37 -2z"/>
 </g>
<g id="layerbg2" fill="#955826" stroke="none">
 <path d="M2220 3181 c-128 -46 -307 -122 -375 -159 -46 -25 -51 -31 -64 -83 l-14 -56 -52 -10 c-60 -13 -325 -117 -435 -171 -95 -47 -103 -62 -108 -205 -5 -129 3 -192 28 -217 23 -23 410 -151 1260 -415 366 -114 670 -211 675 -215 21 -16 111 -40 147 -40 56 0 131 28 320 120 181 87 175 82 188 180 4 30 9 61 11 69 3 8 -12 17 -41 26 -148 41 -1734 542 -1853 585 -79 29 -87 34 -81 54 4 11 7 21 8 22 0 0 37 21 81 47 115 66 226 116 306 136 38 10 74 22 78 27 5 5 17 74 26 153 13 121 19 147 36 159 11 7 17 18 14 23 -10 16 -47 9 -155 -30z m-461 -512 c1 -88 5 -130 14 -137 6 -5 54 -22 106 -37 235 -67 1745 -571 1841 -614 23 -10 21 -11 -16 -7 -23 2 -288 85 -590 184 -1003 330 -1322 430 -1395 439 -67 8 -143 -18 -315 -108 -83 -43 -157 -79 -163 -79 -26 0 -6 18 72 62 123 70 245 124 312 139 33 7 65 16 71 21 7 5 15 34 18 66 24 209 30 246 37 222 4 -14 7 -82 8 -151z"/>
 <path d="M2365 3077 c-9 -22 -2 -62 10 -60 6 1 11 14 13 29 4 32 -14 56 -23 31z"/>
 <path d="M2785 3080 c-9 -14 45 -34 58 -21 7 7 1 14 -17 21 -33 12 -33 12 -41 0z"/>
 <path d="M3035 3000 c-6 -9 9 -18 62 -34 29 -9 40 12 11 23 -51 19 -67 21 -73 11z"/>
 <path d="M3495 2850 c-3 -6 0 -12 7 -15 100 -37 163 -54 172 -45 10 10 14 9 -93 45 -87 29 -78 28 -86 15z"/>
 <path d="M2505 2840 c-6 -9 9 -18 62 -34 29 -9 40 12 11 23 -51 19 -67 21 -73 11z"/>
 <path d="M2275 2830 c-8 -13 20 -24 41 -16 20 8 9 26 -16 26 -10 0 -22 -5 -25 -10z"/>
 <path d="M2216 2821 c-4 -6 -12 -8 -19 -5 -15 5 -54 -21 -41 -28 5 -3 20 -1 34 5 14 5 30 10 35 11 6 1 11 5 13 11 5 13 -15 18 -22 6z"/>
 <path d="M2425 2800 c-9 -14 45 -34 58 -21 7 7 1 14 -17 21 -33 12 -33 12 -41 0z"/>
 <path d="M2665 2790 c-3 -6 0 -12 7 -15 82 -30 103 -34 111 -26 7 7 5 12 -4 16 -37 13 -102 35 -105 35 -1 0 -6 -5 -9 -10z"/>
 <path d="M2525 2770 c-9 -14 45 -34 58 -21 7 7 1 14 -17 21 -33 12 -33 12 -41 0z"/>
 <path d="M2685 2720 c-6 -9 9 -18 62 -34 29 -9 40 12 11 23 -51 19 -67 21 -73 11z"/>
 <path d="M1907 2677 c-25 -13 -35 -23 -29 -29 10 -10 65 13 77 31 11 18 -10 17 -48 -2z"/>
 <path d="M3005 2680 c-3 -6 0 -12 7 -15 145 -55 494 -163 502 -155 6 6 4 11 -5 15 -20 7 -493 165 -496 165 -1 0 -5 -5 -8 -10z"/>
 <path d="M2905 2650 c-3 -6 0 -12 7 -15 100 -37 163 -54 172 -45 10 10 14 9 -93 45 -87 29 -78 28 -86 15z"/>
 <path d="M3275 2530 c-3 -6 0 -12 7 -15 118 -44 254 -83 262 -75 11 11 20 7 -139 60 -137 46 -122 43 -130 30z"/>
 <path d="M3815 2410 c-7 -12 3 -17 102 -51 56 -19 90 -26 97 -19 11 11 16 8 -106 49 -48 16 -90 26 -93 21z"/>
 <path d="M4155 2290 c-6 -9 9 -18 62 -34 29 -9 40 12 11 23 -51 19 -67 21 -73 11z"/>
 </g>
<g id="layerbg3" fill="#d7b760" stroke="none">
 <path d="M5580 4266 c-224 -99 -1486 -756 -1540 -801 -8 -7 -64 -38 -125 -71 -166 -87 -521 -290 -598 -341 -37 -25 -66 -50 -64 -57 6 -16 13 -13 207 73 203 91 314 131 364 131 94 0 -5 -84 -300 -256 -108 -62 -134 -88 -88 -88 20 0 216 99 661 335 143 77 264 139 267 139 7 0 1182 615 1331 697 120 66 145 87 145 125 0 31 -56 100 -99 122 -55 28 -83 27 -161 -8z"/>
 <path d="M2332 3193 c-6 -11 -18 -84 -27 -164 -9 -79 -18 -144 -18 -144 -143 -25 -472 -185 -472 -230 0 -11 8 -21 17 -23 18 -3 41 7 228 104 151 79 214 93 310 70 104 -26 647 -199 1318 -421 324 -107 606 -195 626 -195 41 0 57 18 32 36 -31 23 -1338 465 -1757 594 l-207 64 -4 148 c-2 120 -6 150 -20 164 -15 15 -17 15 -26 -3z"/>
 <path d="M1732 2853 c-9 -15 -42 -255 -42 -299 0 -6 -29 -16 -64 -23 -38 -8 -113 -37 -183 -72 -194 -96 -228 -117 -228 -142 0 -13 7 -23 17 -25 10 -2 86 33 170 76 174 91 249 117 317 109 73 -9 392 -109 1396 -439 302 -100 568 -183 591 -186 45 -5 66 11 43 33 -24 23 -1505 524 -1835 621 l-132 38 -4 148 c-2 120 -6 150 -20 164 -15 15 -17 15 -26 -3z"/>
 </g>
<g id="layerbg4" fill="#eaddd4" stroke="none">
 <path d="M2525 3603 c-527 -27 -1051 -154 -1385 -336 -194 -105 -386 -265 -479 -397 -53 -75 -37 -88 19 -15 185 240 680 458 1270 559 593 102 1282 98 1850 -11 47 -9 91 -19 99 -23 15 -8 146 60 144 75 -3 21 -324 89 -563 119 -255 31 -666 44 -955 29z"/>
 <path d="M2605 3340 c-893 -55 -1540 -373 -1453 -715 16 -61 38 -66 51 -11 9 36 14 40 96 78 145 66 362 149 425 162 l60 13 13 60 14 60 97 46 c107 50 295 125 384 153 56 17 56 17 155 -11 115 -32 521 -161 780 -246 101 -33 191 -59 200 -57 10 2 23 -2 28 -8 6 -6 216 -80 467 -164 l457 -151 6 -47 c11 -81 13 -82 62 -27 70 77 96 142 91 223 -2 38 -12 84 -23 107 -49 101 -218 235 -392 310 -43 19 -78 40 -78 47 -1 7 -7 12 -14 10 -7 -1 -128 -63 -269 -137 -298 -156 -342 -175 -182 -78 155 93 228 144 270 187 28 30 32 40 24 54 -29 45 -129 19 -414 -109 -200 -89 -195 -83 47 57 96 56 174 105 174 109 0 5 -11 10 -23 11 -13 2 -76 12 -140 23 -266 46 -643 67 -913 51z"/>
 <path d="M4306 3324 c-26 -14 -44 -29 -40 -34 5 -4 34 -16 64 -25 95 -31 281 -113 364 -161 120 -69 208 -137 284 -220 74 -80 100 -89 51 -17 -77 111 -234 251 -384 343 -80 49 -263 140 -279 140 -6 -1 -33 -12 -60 -26z"/>
 <path d="M1335 2230 c-3 -6 0 -12 7 -15 107 -40 193 -64 202 -55 11 11 16 8 -108 50 -104 35 -93 33 -101 20z"/>
 <path d="M4242 2108 c-40 -19 -60 -34 -54 -40 12 -12 135 49 127 62 -3 6 -7 10 -8 9 -1 0 -30 -14 -65 -31z"/>
 <path d="M1735 2100 c-9 -14 45 -34 58 -21 7 7 1 14 -17 21 -33 12 -33 12 -41 0z"/>
 <path d="M3527 1714 c-38 -20 -24 -38 14 -19 16 9 27 20 24 25 -7 12 -4 13 -38 -6z"/>
 <path d="M3045 1690 c-9 -14 45 -34 58 -21 7 7 1 14 -17 21 -33 12 -33 12 -41 0z"/>
 </g>
<g id="layerbg5" fill="#f3ece6" stroke="none">
 <path d="M2505 3500 c-879 -61 -1574 -303 -1843 -643 -58 -73 -80 -114 -98 -182 -41 -152 7 -293 151 -443 297 -311 937 -523 1760 -582 77 -5 253 -10 391 -10 211 0 254 2 264 15 10 12 10 15 -1 18 -8 2 -63 20 -124 39 -160 52 -392 124 -505 158 -41 13 -84 27 -95 31 -11 4 -45 15 -75 24 -30 9 -91 27 -135 41 -102 32 -206 64 -320 100 -49 15 -142 44 -205 65 -63 20 -155 49 -205 64 -49 15 -109 36 -133 46 -23 11 -55 22 -71 25 -57 12 -65 31 -72 187 -4 78 -12 162 -18 187 -30 114 43 244 194 347 448 304 1422 424 2205 273 105 -20 94 -22 205 40 33 19 77 42 97 52 48 23 55 36 26 48 -53 22 -306 62 -540 85 -185 19 -674 27 -853 15z"/>
 <path d="M4235 3284 c-11 -9 -40 -25 -65 -36 -24 -10 -71 -35 -103 -55 -70 -42 -68 -46 45 -93 169 -69 336 -199 383 -296 10 -21 21 -67 23 -102 6 -82 -15 -137 -84 -218 -53 -62 -53 -62 -55 -136 -1 -41 -6 -100 -12 -131 l-10 -55 -86 -43 c-47 -23 -111 -53 -141 -67 -30 -13 -67 -30 -81 -37 -15 -7 -59 -21 -98 -31 -59 -15 -78 -16 -113 -7 -54 15 -68 1 -68 -68 0 -70 -14 -93 -68 -113 -76 -27 -195 -97 -185 -107 20 -20 410 52 636 117 655 187 1030 505 977 828 -17 105 -59 176 -167 285 -111 111 -208 178 -368 256 -120 58 -294 125 -322 125 -10 0 -27 -8 -38 -16z"/>
 </g>
<g id="layer101" fill="#8b4316" stroke="none">
 <path d="M2366 3201 c-3 -4 -3 -26 1 -47 3 -21 6 -93 7 -158 1 -135 -11 -117 96 -146 48 -13 84 -24 360 -114 529 -171 676 -219 685 -226 6 -5 118 -43 250 -85 132 -43 245 -81 250 -85 6 -5 57 -23 115 -40 58 -18 110 -36 115 -40 6 -4 34 -15 63 -25 28 -11 52 -23 52 -27 0 -27 -111 0 -450 112 -201 66 -471 154 -600 196 -565 184 -676 220 -775 249 -33 9 -78 23 -100 30 -102 34 -152 35 -245 7 -70 -21 -147 -59 -260 -130 -19 -12 -56 -25 -82 -28 -27 -4 -48 -10 -48 -15 0 -19 233 -96 1265 -418 336 -105 635 -198 665 -207 30 -9 70 -24 89 -32 35 -15 122 -11 145 6 6 5 25 12 41 16 17 4 66 24 110 45 44 21 117 55 162 76 49 23 85 47 89 58 15 49 35 313 26 350 l-8 32 -349 116 c-193 64 -384 126 -425 139 -41 12 -88 28 -105 36 -16 7 -41 15 -55 16 -14 2 -27 6 -30 9 -3 3 -70 27 -150 53 -80 25 -206 66 -280 90 -74 24 -182 58 -240 76 -58 18 -114 37 -125 42 -18 7 -46 15 -170 48 -16 4 -42 12 -57 18 -15 6 -30 8 -32 3z"/>
 </g>
<g id="layer102" fill="#955826" stroke="none">
 <path d="M2220 3171 c-133 -48 -262 -102 -350 -146 l-69 -35 -12 -58 -12 -58 -56 -11 c-62 -11 -323 -113 -441 -171 -68 -34 -76 -41 -87 -77 -14 -50 -16 -248 -3 -297 9 -32 17 -39 63 -56 114 -43 575 -190 1207 -387 366 -114 670 -211 675 -215 21 -15 110 -40 145 -40 57 0 117 22 305 112 167 79 176 85 185 118 5 19 10 51 10 70 0 19 4 42 10 50 7 11 0 17 -33 26 -54 15 -867 269 -1391 435 -431 137 -566 184 -566 200 0 5 5 9 10 9 6 0 10 6 10 14 0 31 304 185 410 207 30 7 58 15 62 18 3 3 14 70 23 149 17 150 22 175 35 167 5 -3 11 -1 15 5 12 19 -40 9 -145 -29z m-450 -483 l5 -151 180 -54 c176 -53 1343 -441 1639 -546 153 -53 200 -85 115 -75 -24 3 -292 86 -594 186 -1004 330 -1323 430 -1396 439 -67 8 -143 -18 -315 -108 -83 -43 -159 -79 -168 -79 -28 0 -17 34 17 51 18 10 93 48 167 86 86 44 159 74 200 83 36 7 68 16 72 19 3 3 14 70 23 149 18 160 22 179 39 162 6 -6 13 -73 16 -162z"/>
 <path d="M2433 3183 c4 -3 10 -3 14 0 3 4 0 7 -7 7 -7 0 -10 -3 -7 -7z"/>
 <path d="M2360 3160 c0 -7 3 -10 7 -7 3 4 3 10 0 14 -4 3 -7 0 -7 -7z"/>
 <path d="M2503 3163 c4 -3 10 -3 14 0 3 4 0 7 -7 7 -7 0 -10 -3 -7 -7z"/>
 <path d="M2633 3123 c4 -3 10 -3 14 0 3 4 0 7 -7 7 -7 0 -10 -3 -7 -7z"/>
 <path d="M2372 3050 c0 -19 2 -27 5 -17 2 9 2 25 0 35 -3 9 -5 1 -5 -18z"/>
 <path d="M2793 3073 c4 -3 10 -3 14 0 3 4 0 7 -7 7 -7 0 -10 -3 -7 -7z"/>
 <path d="M2823 3063 c4 -3 10 -3 14 0 3 4 0 7 -7 7 -7 0 -10 -3 -7 -7z"/>
 <path d="M3043 2993 c4 -3 10 -3 14 0 3 4 0 7 -7 7 -7 0 -10 -3 -7 -7z"/>
 <path d="M3073 2983 c4 -3 10 -3 14 0 3 4 0 7 -7 7 -7 0 -10 -3 -7 -7z"/>
 <path d="M3103 2973 c4 -3 10 -3 14 0 3 4 0 7 -7 7 -7 0 -10 -3 -7 -7z"/>
 <path d="M2443 2853 c4 -3 10 -3 14 0 3 4 0 7 -7 7 -7 0 -10 -3 -7 -7z"/>
 <path d="M3503 2843 c4 -3 10 -3 14 0 3 4 0 7 -7 7 -7 0 -10 -3 -7 -7z"/>
 <path d="M2513 2833 c4 -3 10 -3 14 0 3 4 0 7 -7 7 -7 0 -10 -3 -7 -7z"/>
 <path d="M3533 2833 c4 -3 10 -3 14 0 3 4 0 7 -7 7 -7 0 -10 -3 -7 -7z"/>
 <path d="M2288 2823 c6 -2 18 -2 25 0 6 3 1 5 -13 5 -14 0 -19 -2 -12 -5z"/>
 <path d="M2543 2823 c4 -3 10 -3 14 0 3 4 0 7 -7 7 -7 0 -10 -3 -7 -7z"/>
 <path d="M3563 2823 c4 -3 10 -3 14 0 3 4 0 7 -7 7 -7 0 -10 -3 -7 -7z"/>
 <path d="M2223 2813 c4 -3 10 -3 14 0 3 4 0 7 -7 7 -7 0 -10 -3 -7 -7z"/>
 <path d="M2363 2813 c4 -3 10 -3 14 0 3 4 0 7 -7 7 -7 0 -10 -3 -7 -7z"/>
 <path d="M2573 2813 c4 -3 10 -3 14 0 3 4 0 7 -7 7 -7 0 -10 -3 -7 -7z"/>
 <path d="M3593 2813 c4 -3 10 -3 14 0 3 4 0 7 -7 7 -7 0 -10 -3 -7 -7z"/>
 <path d="M2183 2803 c4 -3 10 -3 14 0 3 4 0 7 -7 7 -7 0 -10 -3 -7 -7z"/>
 <path d="M3623 2803 c4 -3 10 -3 14 0 3 4 0 7 -7 7 -7 0 -10 -3 -7 -7z"/>
 <path d="M2433 2793 c4 -3 10 -3 14 0 3 4 0 7 -7 7 -7 0 -10 -3 -7 -7z"/>
 <path d="M3653 2793 c4 -3 10 -3 14 0 3 4 0 7 -7 7 -7 0 -10 -3 -7 -7z"/>
 <path d="M2463 2783 c4 -3 10 -3 14 0 3 4 0 7 -7 7 -7 0 -10 -3 -7 -7z"/>
 <path d="M2673 2783 c4 -3 10 -3 14 0 3 4 0 7 -7 7 -7 0 -10 -3 -7 -7z"/>
 <path d="M2703 2773 c4 -3 10 -3 14 0 3 4 0 7 -7 7 -7 0 -10 -3 -7 -7z"/>
 <path d="M2533 2763 c4 -3 10 -3 14 0 3 4 0 7 -7 7 -7 0 -10 -3 -7 -7z"/>
 <path d="M2733 2763 c4 -3 10 -3 14 0 3 4 0 7 -7 7 -7 0 -10 -3 -7 -7z"/>
 <path d="M2563 2753 c4 -3 10 -3 14 0 3 4 0 7 -7 7 -7 0 -10 -3 -7 -7z"/>
 <path d="M2763 2753 c4 -3 10 -3 14 0 3 4 0 7 -7 7 -7 0 -10 -3 -7 -7z"/>
 <path d="M2693 2713 c4 -3 10 -3 14 0 3 4 0 7 -7 7 -7 0 -10 -3 -7 -7z"/>
 <path d="M2723 2703 c4 -3 10 -3 14 0 3 4 0 7 -7 7 -7 0 -10 -3 -7 -7z"/>
 <path d="M2753 2693 c4 -3 10 -3 14 0 3 4 0 7 -7 7 -7 0 -10 -3 -7 -7z"/>
 <path d="M1934 2678 c-4 -7 -3 -8 4 -4 12 7 16 16 8 16 -3 0 -8 -5 -12 -12z"/>
 <path d="M3013 2673 c4 -3 10 -3 14 0 3 4 0 7 -7 7 -7 0 -10 -3 -7 -7z"/>
 <path d="M3043 2663 c4 -3 10 -3 14 0 3 4 0 7 -7 7 -7 0 -10 -3 -7 -7z"/>
 <path d="M1883 2653 c4 -3 10 -3 14 0 3 4 0 7 -7 7 -7 0 -10 -3 -7 -7z"/>
 <path d="M3073 2653 c4 -3 10 -3 14 0 3 4 0 7 -7 7 -7 0 -10 -3 -7 -7z"/>
 <path d="M2913 2643 c4 -3 10 -3 14 0 3 4 0 7 -7 7 -7 0 -10 -3 -7 -7z"/>
 <path d="M3103 2643 c4 -3 10 -3 14 0 3 4 0 7 -7 7 -7 0 -10 -3 -7 -7z"/>
 <path d="M2943 2633 c4 -3 10 -3 14 0 3 4 0 7 -7 7 -7 0 -10 -3 -7 -7z"/>
 <path d="M3133 2633 c4 -3 10 -3 14 0 3 4 0 7 -7 7 -7 0 -10 -3 -7 -7z"/>
 <path d="M2973 2623 c4 -3 10 -3 14 0 3 4 0 7 -7 7 -7 0 -10 -3 -7 -7z"/>
 <path d="M3163 2623 c4 -3 10 -3 14 0 3 4 0 7 -7 7 -7 0 -10 -3 -7 -7z"/>
 <path d="M3003 2613 c4 -3 10 -3 14 0 3 4 0 7 -7 7 -7 0 -10 -3 -7 -7z"/>
 <path d="M3193 2613 c4 -3 10 -3 14 0 3 4 0 7 -7 7 -7 0 -10 -3 -7 -7z"/>
 <path d="M3033 2603 c4 -3 10 -3 14 0 3 4 0 7 -7 7 -7 0 -10 -3 -7 -7z"/>
 <path d="M3223 2603 c4 -3 10 -3 14 0 3 4 0 7 -7 7 -7 0 -10 -3 -7 -7z"/>
 <path d="M3063 2593 c4 -3 10 -3 14 0 3 4 0 7 -7 7 -7 0 -10 -3 -7 -7z"/>
 <path d="M3253 2593 c4 -3 10 -3 14 0 3 4 0 7 -7 7 -7 0 -10 -3 -7 -7z"/>
 <path d="M3283 2583 c4 -3 10 -3 14 0 3 4 0 7 -7 7 -7 0 -10 -3 -7 -7z"/>
 <path d="M3313 2573 c4 -3 10 -3 14 0 3 4 0 7 -7 7 -7 0 -10 -3 -7 -7z"/>
 <path d="M3343 2563 c4 -3 10 -3 14 0 3 4 0 7 -7 7 -7 0 -10 -3 -7 -7z"/>
 <path d="M3373 2553 c4 -3 10 -3 14 0 3 4 0 7 -7 7 -7 0 -10 -3 -7 -7z"/>
 <path d="M3403 2543 c4 -3 10 -3 14 0 3 4 0 7 -7 7 -7 0 -10 -3 -7 -7z"/>
 <path d="M3433 2533 c4 -3 10 -3 14 0 3 4 0 7 -7 7 -7 0 -10 -3 -7 -7z"/>
 <path d="M3283 2523 c4 -3 10 -3 14 0 3 4 0 7 -7 7 -7 0 -10 -3 -7 -7z"/>
 <path d="M3463 2523 c4 -3 10 -3 14 0 3 4 0 7 -7 7 -7 0 -10 -3 -7 -7z"/>
 <path d="M3313 2513 c4 -3 10 -3 14 0 3 4 0 7 -7 7 -7 0 -10 -3 -7 -7z"/>
 <path d="M3493 2513 c4 -3 10 -3 14 0 3 4 0 7 -7 7 -7 0 -10 -3 -7 -7z"/>
 <path d="M3343 2503 c4 -3 10 -3 14 0 3 4 0 7 -7 7 -7 0 -10 -3 -7 -7z"/>
 <path d="M3373 2493 c4 -3 10 -3 14 0 3 4 0 7 -7 7 -7 0 -10 -3 -7 -7z"/>
 <path d="M3403 2483 c4 -3 10 -3 14 0 3 4 0 7 -7 7 -7 0 -10 -3 -7 -7z"/>
 <path d="M3433 2473 c4 -3 10 -3 14 0 3 4 0 7 -7 7 -7 0 -10 -3 -7 -7z"/>
 <path d="M3463 2463 c4 -3 10 -3 14 0 3 4 0 7 -7 7 -7 0 -10 -3 -7 -7z"/>
 <path d="M3493 2453 c4 -3 10 -3 14 0 3 4 0 7 -7 7 -7 0 -10 -3 -7 -7z"/>
 <path d="M3523 2443 c4 -3 10 -3 14 0 3 4 0 7 -7 7 -7 0 -10 -3 -7 -7z"/>
 <path d="M3843 2393 c4 -3 10 -3 14 0 3 4 0 7 -7 7 -7 0 -10 -3 -7 -7z"/>
 <path d="M3873 2383 c4 -3 10 -3 14 0 3 4 0 7 -7 7 -7 0 -10 -3 -7 -7z"/>
 <path d="M3903 2373 c4 -3 10 -3 14 0 3 4 0 7 -7 7 -7 0 -10 -3 -7 -7z"/>
 <path d="M3933 2363 c4 -3 10 -3 14 0 3 4 0 7 -7 7 -7 0 -10 -3 -7 -7z"/>
 <path d="M3963 2353 c4 -3 10 -3 14 0 3 4 0 7 -7 7 -7 0 -10 -3 -7 -7z"/>
 <path d="M3993 2343 c4 -3 10 -3 14 0 3 4 0 7 -7 7 -7 0 -10 -3 -7 -7z"/>
 <path d="M4163 2283 c4 -3 10 -3 14 0 3 4 0 7 -7 7 -7 0 -10 -3 -7 -7z"/>
 <path d="M4193 2273 c4 -3 10 -3 14 0 3 4 0 7 -7 7 -7 0 -10 -3 -7 -7z"/>
 <path d="M4223 2263 c4 -3 10 -3 14 0 3 4 0 7 -7 7 -7 0 -10 -3 -7 -7z"/>
 <path d="M4370 2240 c0 -7 3 -10 7 -7 3 4 3 10 0 14 -4 3 -7 0 -7 -7z"/>
 <path d="M4350 2210 c0 -7 3 -10 7 -7 3 4 3 10 0 14 -4 3 -7 0 -7 -7z"/>
 <path d="M4253 2203 c4 -3 10 -3 14 0 3 4 0 7 -7 7 -7 0 -10 -3 -7 -7z"/>
 <path d="M3973 1983 c4 -3 10 -3 14 0 3 4 0 7 -7 7 -7 0 -10 -3 -7 -7z"/>
 </g>
<g id="layer103" fill="#d7b760" stroke="none">
 <path d="M5580 4256 c-224 -99 -1486 -756 -1540 -801 -8 -7 -64 -38 -125 -71 -288 -152 -655 -369 -655 -386 0 -9 5 -7 220 90 85 38 190 81 232 96 132 45 192 29 132 -36 -33 -36 -187 -138 -327 -218 -53 -30 -97 -58 -97 -61 0 -8 32 -7 40 1 3 3 37 20 75 38 39 19 203 104 365 190 162 86 376 197 475 247 219 112 1181 616 1320 692 55 30 108 62 118 71 53 47 -26 155 -128 176 -22 4 -50 -3 -105 -28z"/>
 <path d="M2337 3186 c-4 -9 -14 -80 -22 -158 -9 -79 -20 -146 -23 -149 -4 -3 -32 -11 -62 -18 -106 -22 -410 -176 -410 -207 0 -24 32 -16 120 31 160 86 245 123 305 136 53 10 69 9 140 -9 122 -32 651 -201 1304 -417 325 -108 605 -195 625 -195 38 0 48 13 19 25 -122 49 -1389 474 -1738 583 l-220 69 -5 151 c-3 89 -10 156 -16 162 -8 8 -13 7 -17 -4z"/>
 <path d="M1737 2846 c-4 -9 -14 -80 -22 -158 -9 -79 -20 -146 -23 -149 -4 -3 -36 -12 -72 -19 -41 -9 -114 -39 -200 -83 -74 -38 -149 -76 -167 -86 -34 -17 -45 -51 -17 -51 9 0 85 36 168 79 172 90 248 116 315 108 73 -9 392 -109 1396 -439 302 -100 570 -183 594 -186 85 -10 38 22 -115 75 -296 105 -1463 493 -1639 546 l-180 54 -5 151 c-3 89 -10 156 -16 162 -8 8 -13 7 -17 -4z"/>
 </g>
<g id="layer104" fill="#eaddd4" stroke="none">
 <path d="M2525 3594 c-781 -49 -1385 -252 -1725 -580 -47 -45 -101 -104 -120 -131 -30 -41 -23 -36 45 32 99 98 201 167 370 250 614 301 1652 413 2545 275 109 -17 235 -41 265 -51 6 -1 39 12 75 30 77 40 82 36 -116 80 -151 32 -359 65 -524 82 -105 10 -702 20 -815 13z"/>
 <path d="M2605 3330 c-785 -49 -1396 -303 -1449 -603 -7 -40 10 -147 23 -147 4 0 12 17 17 38 8 33 16 40 84 74 118 58 379 160 441 171 l56 11 12 58 12 58 77 39 c93 46 300 130 399 162 l72 23 128 -38 c70 -20 297 -91 503 -158 206 -66 391 -126 411 -131 34 -10 42 -7 160 63 233 137 328 211 316 244 -16 40 -134 8 -387 -106 -215 -97 -220 -99 -220 -90 0 11 101 76 262 168 76 43 134 81 130 85 -11 11 -239 47 -397 63 -186 19 -477 26 -650 16z"/>
 <path d="M4312 3316 l-44 -22 44 -13 c85 -25 288 -114 375 -163 125 -71 211 -138 295 -226 60 -65 67 -70 39 -30 -76 113 -223 245 -376 338 -80 49 -263 140 -279 140 -6 -1 -31 -11 -54 -24z"/>
 <path d="M3749 3018 c-145 -76 -270 -138 -276 -138 -47 0 40 -33 448 -169 253 -84 463 -159 465 -166 3 -7 8 -35 12 -61 l7 -48 43 51 c64 77 85 132 80 212 -2 36 -12 83 -23 105 -47 97 -199 219 -364 293 -42 18 -88 39 -102 47 -24 12 -41 5 -290 -126z"/>
 <path d="M634 2818 c-4 -7 -3 -8 4 -4 12 7 16 16 8 16 -3 0 -8 -5 -12 -12z"/>
 <path d="M4380 2270 c0 -7 3 -10 7 -7 3 4 3 10 0 14 -4 3 -7 0 -7 -7z"/>
 <path d="M1343 2223 c4 -3 10 -3 14 0 3 4 0 7 -7 7 -7 0 -10 -3 -7 -7z"/>
 <path d="M1373 2213 c4 -3 10 -3 14 0 3 4 0 7 -7 7 -7 0 -10 -3 -7 -7z"/>
 <path d="M1403 2203 c4 -3 10 -3 14 0 3 4 0 7 -7 7 -7 0 -10 -3 -7 -7z"/>
 <path d="M1433 2193 c4 -3 10 -3 14 0 3 4 0 7 -7 7 -7 0 -10 -3 -7 -7z"/>
 <path d="M1463 2183 c4 -3 10 -3 14 0 3 4 0 7 -7 7 -7 0 -10 -3 -7 -7z"/>
 <path d="M1493 2173 c4 -3 10 -3 14 0 3 4 0 7 -7 7 -7 0 -10 -3 -7 -7z"/>
 <path d="M1523 2163 c4 -3 10 -3 14 0 3 4 0 7 -7 7 -7 0 -10 -3 -7 -7z"/>
 <path d="M4360 2160 c0 -7 3 -10 7 -7 3 4 3 10 0 14 -4 3 -7 0 -7 -7z"/>
 <path d="M1743 2093 c4 -3 10 -3 14 0 3 4 0 7 -7 7 -7 0 -10 -3 -7 -7z"/>
 <path d="M1773 2083 c4 -3 10 -3 14 0 3 4 0 7 -7 7 -7 0 -10 -3 -7 -7z"/>
 <path d="M4193 2073 c4 -3 10 -3 14 0 3 4 0 7 -7 7 -7 0 -10 -3 -7 -7z"/>
 <path d="M1933 2033 c4 -3 10 -3 14 0 3 4 0 7 -7 7 -7 0 -10 -3 -7 -7z"/>
 <path d="M4013 1993 c4 -3 10 -3 14 0 3 4 0 7 -7 7 -7 0 -10 -3 -7 -7z"/>
 <path d="M2093 1983 c4 -3 10 -3 14 0 3 4 0 7 -7 7 -7 0 -10 -3 -7 -7z"/>
 <path d="M2253 1933 c4 -3 10 -3 14 0 3 4 0 7 -7 7 -7 0 -10 -3 -7 -7z"/>
 <path d="M2413 1883 c4 -3 10 -3 14 0 3 4 0 7 -7 7 -7 0 -10 -3 -7 -7z"/>
 <path d="M3770 1860 c0 -7 3 -10 7 -7 3 4 3 10 0 14 -4 3 -7 0 -7 -7z"/>
 <path d="M2543 1843 c4 -3 10 -3 14 0 3 4 0 7 -7 7 -7 0 -10 -3 -7 -7z"/>
 <path d="M2703 1793 c4 -3 10 -3 14 0 3 4 0 7 -7 7 -7 0 -10 -3 -7 -7z"/>
 <path d="M2863 1743 c4 -3 10 -3 14 0 3 4 0 7 -7 7 -7 0 -10 -3 -7 -7z"/>
 <path d="M3053 1683 c4 -3 10 -3 14 0 3 4 0 7 -7 7 -7 0 -10 -3 -7 -7z"/>
 <path d="M3083 1673 c4 -3 10 -3 14 0 3 4 0 7 -7 7 -7 0 -10 -3 -7 -7z"/>
 </g>
<g id="layer105" fill="#f3ece6" stroke="none">
 <path d="M2505 3490 c-871 -60 -1571 -302 -1834 -634 -57 -72 -79 -114 -97 -181 -40 -150 7 -292 145 -438 291 -305 938 -518 1756 -577 184 -13 642 -13 650 0 3 5 -2 10 -11 10 -10 0 -63 15 -118 34 -56 19 -138 45 -184 60 -45 14 -117 36 -160 50 -42 13 -111 34 -152 46 -41 13 -84 27 -95 31 -11 4 -45 15 -75 24 -30 9 -91 27 -135 41 -102 32 -206 64 -320 100 -49 15 -142 44 -205 65 -63 20 -162 51 -220 69 -58 18 -109 36 -115 40 -5 4 -28 13 -50 19 -96 29 -105 47 -105 208 0 59 -7 127 -16 163 -19 74 -12 126 25 194 220 412 1421 641 2381 456 105 -20 94 -22 205 40 33 19 78 42 99 53 29 14 36 21 25 27 -36 19 -314 63 -541 85 -185 19 -674 27 -853 15z"/>
 <path d="M4235 3274 c-11 -9 -42 -26 -70 -38 -27 -13 -72 -37 -100 -54 l-50 -31 40 -16 c165 -67 301 -151 378 -234 68 -74 90 -120 95 -199 6 -82 -15 -137 -84 -218 -53 -62 -53 -62 -55 -136 -1 -40 -7 -100 -12 -133 l-10 -60 -91 -44 c-50 -24 -116 -55 -146 -68 -30 -14 -67 -31 -81 -38 -15 -7 -59 -21 -98 -31 -58 -15 -78 -16 -113 -7 -52 14 -57 8 -58 -62 -1 -72 -16 -92 -101 -128 -41 -18 -94 -45 -119 -60 l-45 -28 50 6 c118 15 351 60 490 95 420 107 720 253 906 440 164 165 205 345 120 527 -38 80 -182 227 -296 302 -97 63 -265 146 -397 195 -108 40 -124 42 -153 20z"/>
 </g>

</svg>