<?xml version="1.0" encoding="utf-8"?>
<!-- Generator: Adobe Illustrator 22.1.0, SVG Export Plug-In . SVG Version: 6.00 Build 0)  -->
<svg version="1.1" id="レイヤー_1" xmlns="http://www.w3.org/2000/svg" xmlns:xlink="http://www.w3.org/1999/xlink" x="0px"
	 y="0px" viewBox="0 0 60 60" style="enable-background:new 0 0 60 60;" xml:space="preserve">
<style type="text/css">
	.st0{fill:#FFFFFF;}
	.st1{fill:#6FBC6F;}
</style>
<circle class="st0" cx="30" cy="30" r="30"/>
<path class="st1" d="M42.6,44.3c-1.4,1.1-3.1,1.6-4.8,1.8c-0.8,0.1-1.5,0.1-2.3,0.1c-3.3,0.1-6.5,0.1-9.8,0c-0.9,0-1.9,0-2.8-0.1
	c-0.9-0.1-1.9-0.2-2.8-0.5c-1.1-0.3-2-0.8-2.9-1.5c-0.5-0.4-0.9-0.9-1.4-1.3c-0.6-0.7-1-1.6-1.4-2.5c-0.4-1.1-0.6-2.2-0.6-3.3
	c-0.1-1.8-0.1-3.5-0.1-5.3c0-1.9,0-3.9,0-5.8c0-1.2,0-2.5,0.2-3.7c0.1-0.7,0.2-1.5,0.4-2.2c0.4-1.3,1.1-2.5,2.1-3.5
	c1.3-1.3,2.8-2,4.5-2.4c0.9-0.2,1.8-0.3,2.7-0.3c3.9-0.1,7.8-0.1,11.7,0c1.4,0,2.9,0.1,4.3,0.5c1.5,0.4,2.8,1.1,3.9,2.2
	c1.2,1.2,2,2.7,2.3,4.4c0.2,0.7,0.2,1.4,0.3,2.1c0.2,3.7,0.1,7.4,0.1,11.2c0,1.1,0,2.3-0.1,3.4c-0.2,2.3-1,4.4-2.7,6
	C43.1,43.9,42.9,44.1,42.6,44.3z M41.8,41.1c0.6-0.7,0.9-1.5,1.1-2.3c0.2-0.7,0.2-1.5,0.3-2.2c0-0.5,0-1,0.1-1.5
	c0.1-1.5,0.1-2.9,0-4.4c0-2.4,0.1-4.8-0.1-7.2c-0.1-0.7-0.1-1.4-0.2-2.1c-0.3-1.6-1.1-2.8-2.5-3.7c-1-0.6-2.1-0.9-3.3-0.9
	c-1.3-0.1-2.5-0.1-3.8-0.1c-3.3,0-6.7-0.1-10,0.1c-0.6,0-1.2,0.1-1.8,0.2c-2.4,0.5-3.9,1.8-4.6,4.2c-0.3,0.9-0.3,1.9-0.3,2.8
	c-0.1,2.4-0.1,4.8-0.1,7.2c0,1.9,0,3.7,0.1,5.6c0,0.7,0.1,1.4,0.3,2c0.3,1.3,1,2.5,2.2,3.3c1,0.7,2.1,1,3.3,1.1
	c1.1,0.1,2.2,0.1,3.3,0.2c3.6,0,7.2,0.1,10.9-0.1c1.3-0.1,2.5-0.2,3.6-0.9C40.8,42.1,41.4,41.6,41.8,41.1z"/>
<path class="st1" d="M36.2,35.6c-0.5,0.5-1.1,1.1-1.7,1.5c-1.1,0.7-2.3,1.1-3.5,1.2c-2.3,0.2-4.4-0.4-6.3-1.9
	c-1.1-0.9-1.9-2-2.4-3.3c-0.3-0.8-0.5-1.6-0.5-2.4c0-0.5-0.1-0.9,0-1.4c0.2-1.5,0.7-2.9,1.6-4.1c1.5-2,3.4-3.1,5.8-3.4
	c4.3-0.5,8.4,2.5,9.1,6.8C38.6,31.1,38,33.5,36.2,35.6C36.2,35.5,36.2,35.6,36.2,35.6z M33.8,33.8C33.9,33.8,33.9,33.8,33.8,33.8
	c1.4-1.6,1.9-3.3,1.3-5.4c-0.3-0.9-0.7-1.7-1.4-2.4c-1.3-1.3-2.9-1.7-4.7-1.4c-2.6,0.4-4.6,2.8-4.5,5.4c0,1.3,0.5,2.5,1.4,3.5
	c1.4,1.5,3.1,2.1,5.1,1.7C32.1,35.1,33.1,34.6,33.8,33.8z"/>
<path class="st1" d="M38.6,23.3c-1.1,0-2-1-1.9-2c0-1.1,0.8-1.9,2-1.9c1.1,0,1.9,0.9,1.9,2C40.6,22.4,39.7,23.3,38.6,23.3z"/>
</svg>
