<?xml version="1.0" encoding="utf-8"?>
<!-- Generator: Adobe Illustrator 22.1.0, SVG Export Plug-In . SVG Version: 6.00 Build 0)  -->
<svg version="1.1" xmlns="http://www.w3.org/2000/svg" xmlns:xlink="http://www.w3.org/1999/xlink" x="0px" y="0px"
	 viewBox="0 0 75 75" style="enable-background:new 0 0 75 75;" xml:space="preserve">
<style type="text/css">
	.st0{fill:#FFFFFF;}
	.st1{fill:#3EBCC2;}
</style>
<g id="レイヤー_2">
</g>
<g id="レイヤー_1">
	<circle class="st0" cx="37.5" cy="37.5" r="37.5"/>
	<g>
		<path class="st1" d="M53.3,55.4c-1.8,1.3-3.9,2-6,2.2c-0.9,0.1-1.9,0.1-2.8,0.2c-4.1,0.1-8.2,0.1-12.3,0.1c-1.2,0-2.3,0-3.5-0.1
			c-1.2-0.1-2.4-0.2-3.5-0.6c-1.3-0.4-2.5-1-3.6-1.8c-0.6-0.5-1.2-1.1-1.7-1.7c-0.8-0.9-1.3-2-1.7-3.1c-0.5-1.3-0.7-2.7-0.8-4.1
			c-0.1-2.2-0.1-4.4-0.2-6.7c0-2.4,0-4.8,0-7.2c0-1.6,0-3.1,0.2-4.7c0.1-0.9,0.2-1.8,0.5-2.7c0.5-1.7,1.4-3.2,2.6-4.4
			c1.6-1.6,3.5-2.5,5.7-3c1.1-0.3,2.3-0.3,3.4-0.4c4.9-0.2,9.8-0.1,14.7,0c1.8,0,3.6,0.1,5.3,0.6c1.9,0.5,3.5,1.4,4.9,2.8
			c1.5,1.5,2.5,3.4,2.9,5.5c0.2,0.9,0.3,1.8,0.3,2.7c0.3,4.6,0.1,9.3,0.1,14c0,1.4,0,2.9-0.2,4.3c-0.3,2.9-1.2,5.5-3.4,7.5
			C54,54.9,53.6,55.1,53.3,55.4z M52.3,51.4c0.7-0.8,1.1-1.8,1.4-2.9c0.2-0.9,0.3-1.8,0.4-2.7c0-0.6,0-1.2,0.1-1.9
			c0.1-1.8,0.1-3.7,0.1-5.5c0-3,0.1-6-0.1-9.1c-0.1-0.9-0.1-1.7-0.3-2.6c-0.4-2-1.4-3.5-3.2-4.6c-1.2-0.8-2.6-1.1-4.1-1.2
			c-1.6-0.1-3.2-0.2-4.8-0.2c-4.2,0-8.3-0.1-12.5,0.1c-0.7,0-1.5,0.1-2.2,0.2c-2.9,0.6-4.9,2.3-5.7,5.2c-0.3,1.2-0.4,2.3-0.4,3.5
			c-0.1,3-0.1,6-0.1,9c0,2.3,0,4.6,0.1,6.9c0,0.9,0.1,1.7,0.4,2.6c0.4,1.7,1.3,3.1,2.7,4.1c1.2,0.9,2.6,1.2,4.1,1.4
			c1.4,0.2,2.7,0.2,4.1,0.2c4.5,0,9.1,0.1,13.6-0.1c1.6-0.1,3.1-0.3,4.6-1.1C51.1,52.6,51.7,52,52.3,51.4z"/>
		<path class="st1" d="M45.2,44.5c-0.7,0.7-1.4,1.3-2.2,1.8c-1.4,0.9-2.8,1.4-4.4,1.5c-2.9,0.3-5.5-0.5-7.8-2.4
			c-1.4-1.1-2.4-2.6-3-4.2c-0.4-1-0.6-2-0.7-3c-0.1-0.6-0.1-1.1,0-1.7c0.2-1.9,0.8-3.6,2-5.2c1.8-2.5,4.3-3.9,7.3-4.3
			c5.4-0.6,10.5,3.1,11.4,8.5c0.6,3.3-0.3,6.2-2.4,8.8C45.3,44.4,45.3,44.5,45.2,44.5z M42.3,42.3C42.3,42.3,42.4,42.2,42.3,42.3
			c1.8-2,2.4-4.2,1.7-6.7c-0.3-1.2-0.9-2.2-1.8-3c-1.7-1.6-3.6-2.2-5.9-1.8c-3.2,0.5-5.7,3.5-5.6,6.8c0,1.7,0.6,3.2,1.7,4.4
			c1.7,1.9,3.8,2.6,6.3,2.2C40.1,43.9,41.3,43.3,42.3,42.3z"/>
		<path class="st1" d="M48.3,29.1c-1.4,0-2.4-1.2-2.4-2.5c0-1.4,1.1-2.4,2.5-2.4c1.3,0,2.4,1.1,2.4,2.5C50.8,28,49.7,29.1,48.3,29.1
			z"/>
	</g>
</g>
<g id="レイヤー_3">
</g>
<g id="hashtag">
</g>
<g id="レイヤー_6">
</g>
<g id="レイヤー_7">
</g>
<g id="_x23_">
</g>
<g id="tag_x5F_txt">
</g>
</svg>
