<?xml version="1.0" encoding="utf-8"?>
<!-- Generator: Adobe Illustrator 22.1.0, SVG Export Plug-In . SVG Version: 6.00 Build 0)  -->
<svg version="1.1" xmlns="http://www.w3.org/2000/svg" xmlns:xlink="http://www.w3.org/1999/xlink" x="0px" y="0px"
	 viewBox="0 0 75 75" style="enable-background:new 0 0 75 75;" xml:space="preserve">
<style type="text/css">
	.st0{fill:#FFFFFF;}
	.st1{fill:#3EBCC2;}
</style>
<g id="レイヤー_2">
</g>
<g id="レイヤー_1">
	<circle class="st0" cx="37.5" cy="37.5" r="37.5"/>
	<g id="vsnKUY_1_">
		<g>
			<path class="st1" d="M61.2,24.7c0,8.5,0,17,0,25.5c-0.1,0.1-0.2,0.2-0.2,0.4c-0.8,3.4-3.1,5.4-6.6,5.4c-11.3,0-22.7,0-34,0
				c-3.1,0-5.5-1.8-6.4-4.6c-0.1-0.4-0.2-0.8-0.4-1.2c0-8.5,0-17,0-25.5c0.1-0.1,0.2-0.2,0.2-0.4c0.8-3.4,3.1-5.4,6.5-5.4
				c11.4,0,22.7,0,34.1,0c2.3,0,4.2,0.9,5.5,2.8C60.6,22.6,60.8,23.7,61.2,24.7z M57.3,23.5c-0.7-0.9-1.5-1.4-2.6-1.4
				c-11.5,0-22.9,0-34.4,0c-1,0-1.9,0.4-2.6,1.4c0.2,0.1,0.3,0.3,0.5,0.4c5.7,5,11.4,9.9,17.1,14.9c1.6,1.4,2.7,1.4,4.4,0
				c4.2-3.7,8.4-7.3,12.7-11C54,26.4,55.6,25,57.3,23.5z M18.8,52.2c0,0.1,0,0.2,0,0.3c0.5,0.1,1.1,0.3,1.6,0.3
				c11.4,0,22.7,0,34.1,0c0.5,0,1.1-0.2,1.9-0.4c-4.8-4.2-9.3-8.1-13.9-12.1c-1.4,1.4-3,2.5-5,2.6c-2.1,0-3.6-1.2-5-2.5
				C27.9,44.3,23.3,48.3,18.8,52.2z M17.2,49.7c4.4-3.9,8.7-7.6,13.1-11.4c-4.4-3.8-8.7-7.5-13.1-11.4
				C17.2,34.6,17.2,42.1,17.2,49.7z M57.8,49.7c0-7.7,0-15.1,0-22.7c-4.4,3.8-8.7,7.6-13,11.4C49.1,42.1,53.4,45.9,57.8,49.7z"/>
		</g>
	</g>
</g>
<g id="レイヤー_3">
</g>
<g id="hashtag">
</g>
<g id="レイヤー_6">
</g>
<g id="レイヤー_7">
</g>
<g id="_x23_">
</g>
<g id="tag_x5F_txt">
</g>
</svg>
