<?xml version="1.0" encoding="utf-8"?>
<!-- Generator: Adobe Illustrator 22.1.0, SVG Export Plug-In . SVG Version: 6.00 Build 0)  -->
<svg version="1.1" id="レイヤー_1" xmlns="http://www.w3.org/2000/svg" xmlns:xlink="http://www.w3.org/1999/xlink" x="0px"
	 y="0px" viewBox="0 0 60 60" style="enable-background:new 0 0 60 60;" xml:space="preserve">
<style type="text/css">
	.st0{fill:#FFFFFF;}
	.st1{fill:#6FBC6F;}
</style>
<circle class="st0" cx="30" cy="30" r="30"/>
<g>
	<path class="st1" d="M49,19.8c0,6.8,0,13.6,0,20.4c0,0.1-0.1,0.2-0.1,0.3c-0.6,2.7-2.5,4.3-5.3,4.4c-9.1,0-18.1,0-27.2,0
		c-2.5,0-4.4-1.5-5.1-3.7c-0.1-0.3-0.2-0.6-0.3-1c0-6.8,0-13.6,0-20.4c0-0.1,0.1-0.2,0.1-0.3c0.6-2.7,2.5-4.3,5.2-4.4
		c9.1,0,18.2,0,27.3,0c1.8,0,3.4,0.7,4.4,2.3C48.4,18.1,48.7,19,49,19.8z M45.8,18.8c-0.5-0.7-1.2-1.1-2.1-1.1c-9.2,0-18.3,0-27.5,0
		c-0.8,0-1.5,0.3-2.1,1.1c0.1,0.1,0.3,0.2,0.4,0.3c4.6,4,9.1,8,13.7,11.9c1.3,1.1,2.2,1.1,3.5,0c3.4-2.9,6.7-5.9,10.1-8.8
		C43.2,21.1,44.5,20,45.8,18.8z M15,41.8c0,0.1,0,0.2,0,0.2c0.4,0.1,0.9,0.2,1.3,0.2c9.1,0,18.2,0,27.3,0c0.4,0,0.9-0.2,1.5-0.3
		c-3.8-3.3-7.5-6.5-11.1-9.7c-1.2,1.1-2.4,2-4,2c-1.7,0-2.9-1-4-2C22.3,35.4,18.7,38.6,15,41.8z M13.7,39.8c3.5-3.1,7-6.1,10.5-9.1
		c-3.5-3.1-6.9-6-10.5-9.1C13.7,27.7,13.7,33.6,13.7,39.8z M46.2,39.8c0-6.1,0-12.1,0-18.2c-3.5,3.1-7,6.1-10.4,9.1
		C39.3,33.7,42.7,36.7,46.2,39.8z"/>
</g>
</svg>
