<?xml version="1.0" encoding="utf-8"?>
<!-- Generator: Adobe Illustrator 22.1.0, SVG Export Plug-In . SVG Version: 6.00 Build 0)  -->
<svg version="1.1" xmlns="http://www.w3.org/2000/svg" xmlns:xlink="http://www.w3.org/1999/xlink" x="0px" y="0px"
	 viewBox="0 0 75 75" style="enable-background:new 0 0 75 75;" xml:space="preserve">
<style type="text/css">
	.st0{fill:#FFFFFF;}
	.st1{fill:#3EBCC2;}
</style>
<g id="レイヤー_2">
</g>
<g id="レイヤー_1">
	<circle class="st0" cx="37.5" cy="37.5" r="37.5"/>
	<path class="st1" d="M54.4,25.5c1.3-0.3,2.6-0.7,3.8-1c0.1,0.1,0.1,0.2,0.2,0.2c-1,1.1-2,2.2-3.2,3.2c-0.7,0.6-0.8,1.3-0.9,2.2
		c-0.6,10.1-5,17.9-14.3,22.3c-7.4,3.5-14.9,3.1-22.2-0.5c-0.4-0.2-0.8-0.5-1.1-0.9c4.4,0.1,8.4-0.9,11.8-3.5
		c-1.6-0.7-3.2-1.3-4.6-2.1c-1.5-0.9-2.4-2.3-3-4.1c1.1-0.1,2.1-0.1,3.1-0.1c-3.7-1.7-6-4.4-6.3-8.7c1.2,0.3,2.3,0.6,3.3,0.9
		c0.1-0.1,0.2-0.2,0.2-0.3c-3.6-3.2-4.1-6.9-2.4-11.3c1.3,1.2,2.4,2.3,3.6,3.3c3.5,3,7.6,4.7,12.1,5.5c0.3,0.1,0.6,0,0.9,0.1
		c1.1,0.2,1.4-0.2,1.4-1.3c-0.1-4.1,2.1-7.5,5.7-8.7c3-1,5.9-0.7,8.4,1.3c0.9,0.8,1.7,0.9,2.7,0.5c1.1-0.5,2.2-0.9,3.4-1.3
		c0.1,0.1,0.2,0.2,0.4,0.3C56.4,22.8,55.4,24.1,54.4,25.5z"/>
</g>
<g id="レイヤー_3">
</g>
<g id="hashtag">
</g>
<g id="レイヤー_6">
</g>
<g id="レイヤー_7">
</g>
<g id="_x23_">
</g>
<g id="tag_x5F_txt">
</g>
</svg>
