<?xml version="1.0" encoding="utf-8"?>
<!-- Generator: Adobe Illustrator 22.1.0, SVG Export Plug-In . SVG Version: 6.00 Build 0)  -->
<svg version="1.1" id="レイヤー_1" xmlns="http://www.w3.org/2000/svg" xmlns:xlink="http://www.w3.org/1999/xlink" x="0px"
	 y="0px" viewBox="0 0 60 60" style="enable-background:new 0 0 60 60;" xml:space="preserve">
<style type="text/css">
	.st0{fill:#FFFFFF;}
	.st1{fill:#6FBC6F;}
</style>
<circle class="st0" cx="30" cy="30" r="30"/>
<path class="st1" d="M43.5,20.4c1.1-0.3,2-0.5,3-0.8c0.1,0.1,0.1,0.1,0.2,0.2c-0.8,0.9-1.6,1.8-2.5,2.6c-0.6,0.5-0.7,1-0.7,1.7
	c-0.5,8-4,14.3-11.4,17.8c-5.9,2.8-11.9,2.5-17.8-0.4c-0.3-0.2-0.6-0.4-0.9-0.7c3.5,0.1,6.7-0.7,9.4-2.8c-1.3-0.6-2.5-1-3.7-1.7
	c-1.2-0.7-1.9-1.9-2.4-3.3c0.9,0,1.7-0.1,2.5-0.1c-3-1.4-4.8-3.5-5.1-7c1,0.3,1.8,0.5,2.6,0.7c0.1-0.1,0.1-0.1,0.2-0.2
	c-2.9-2.5-3.3-5.5-1.9-9.1c1.1,1,1.9,1.9,2.9,2.7c2.8,2.4,6.1,3.8,9.7,4.4c0.2,0,0.5,0,0.7,0.1c0.9,0.1,1.1-0.2,1.1-1.1
	c-0.1-3.3,1.7-6,4.5-6.9c2.4-0.8,4.7-0.6,6.7,1.1c0.7,0.6,1.4,0.7,2.2,0.4c0.9-0.4,1.8-0.7,2.7-1c0.1,0.1,0.2,0.2,0.3,0.3
	C45.1,18.2,44.3,19.2,43.5,20.4z"/>
</svg>
