<?xml version="1.0" encoding="utf-8"?>
<!-- Generator: Adobe Illustrator 22.1.0, SVG Export Plug-In . SVG Version: 6.00 Build 0)  -->
<svg version="1.1" xmlns="http://www.w3.org/2000/svg" xmlns:xlink="http://www.w3.org/1999/xlink" x="0px" y="0px"
	 viewBox="0 0 107 199" style="enable-background:new 0 0 107 199;" xml:space="preserve">
<style type="text/css">
	.st0{fill:#FFFFFF;}
	.st1{fill:#3EBCC2;}
	.st2{fill:#595757;}
	.st3{fill:#69B32D;}
	.st4{fill:#5DAAD8;}
	.st5{fill:#EDA6C5;}
	.st6{fill:#0A9C91;}
	.st7{fill:none;stroke:#FFFFFF;stroke-width:0.4192;stroke-miterlimit:10;}
	.st8{opacity:0.1;}
	.st9{opacity:0.3;}
	.st10{fill:url(#SVGID_1_);}
	.st11{fill:#727272;}
	.st12{fill:#69B22D;}
	.st13{fill:#459543;}
	.st14{fill:#1B1B1B;}
	.st15{fill:#643231;}
	.st16{fill:none;stroke:#595757;stroke-width:0.8944;stroke-miterlimit:10;}
	.st17{fill:#A3A3A3;}
	.st18{fill:none;stroke:#A3A3A3;stroke-miterlimit:10;}
	.st19{fill:#E96447;}
	.st20{fill:#365FA8;}
	.st21{fill:#A961A0;}
	.st22{fill:#F1BC1B;}
	.st23{fill:#69B42D;}
	.st24{fill:#EDA6C5;stroke:#E5A2BF;stroke-width:1.5;stroke-linecap:round;stroke-linejoin:round;stroke-miterlimit:10;}
	.st25{fill:none;stroke:#FFFFFF;stroke-width:8;stroke-miterlimit:10;}
	.st26{fill:none;stroke:#FFFFFF;stroke-width:8;stroke-linecap:round;stroke-linejoin:round;stroke-miterlimit:10;}
	.st27{fill:#0A9D92;stroke:#11968C;stroke-width:1.1728;stroke-linejoin:round;stroke-miterlimit:10;}
</style>
<g id="レイヤー_2">
</g>
<g id="レイヤー_1">
	<g>
		<g>
			<path class="st2" d="M21.7,150.9c-0.5-1.6-0.7-3-0.7-11.8c0-8.8,0.1-10.2,0.7-11.8c1.2-3.8,4.1-5.8,8.3-5.8s7.1,2,8.3,5.8
				c0.5,1.6,0.7,3,0.7,11.8c0,8.8-0.1,10.2-0.7,11.8c-1.2,3.8-4.1,5.8-8.3,5.8S22.9,154.6,21.7,150.9z M32.3,149
				c0.2-0.8,0.3-1.7,0.3-10s-0.1-9.2-0.3-10c-0.3-1-1.1-1.7-2.3-1.7s-2,0.7-2.3,1.7c-0.2,0.8-0.3,1.7-0.3,10s0.1,9.2,0.3,10
				c0.3,1,1.1,1.7,2.3,1.7S32,150,32.3,149z"/>
			<path class="st2" d="M44.2,146.9v-24.4c0-0.3,0.2-0.5,0.5-0.5h5.3c0.3,0,0.5,0.2,0.5,0.5v25.2c0,1.8,0.9,3,2.5,3
				c1.6,0,2.5-1.2,2.5-3v-25.2c0-0.3,0.2-0.5,0.5-0.5h5.3c0.3,0,0.5,0.2,0.5,0.5v24.4c0,6.4-3.4,9.7-8.8,9.7
				C47.5,156.6,44.2,153.4,44.2,146.9z"/>
			<path class="st2" d="M79.8,156.2c-0.3,0-0.4-0.1-0.5-0.4l-3.7-13h-1.8c-0.2,0-0.3,0.1-0.3,0.3v12.6c0,0.3-0.2,0.5-0.5,0.5h-5.3
				c-0.3,0-0.5-0.2-0.5-0.5v-33.2c0-0.3,0.2-0.5,0.5-0.5h7.8c5.8,0,9.5,2.9,9.5,10.5c0,4.3-1.4,7.1-3.6,8.7l4.5,14.5
				c0.1,0.3,0,0.5-0.2,0.5H79.8z M78.7,132.5c0-3.6-1.1-4.7-3.5-4.7h-1.4c-0.2,0-0.3,0.1-0.3,0.3v8.7c0,0.2,0.1,0.3,0.3,0.3h1.4
				C77.6,137.1,78.7,136.1,78.7,132.5z"/>
			<path class="st2" d="M8.8,198.7c-5.9,0-8.7-3.3-8.8-9.2c0-0.3,0.1-0.5,0.4-0.6l5.1-0.9c0.3-0.1,0.5,0.1,0.5,0.4
				c0.1,3.2,1,4.4,2.8,4.4c1.8,0,2.6-1,2.6-4.1c0-3-0.6-4.1-3-5.1l-2-0.8c-4.6-1.9-6.2-4.4-6.2-9.9c0-6.2,2.8-9.5,8.6-9.5
				c5.7,0,8.4,3.1,8.6,8.5c0,0.3-0.1,0.5-0.4,0.6l-4.9,0.8c-0.3,0.1-0.5-0.1-0.5-0.4c0-2.5-0.9-3.7-2.6-3.7c-1.7,0-2.5,1.1-2.5,3.4
				c0,2.6,0.5,3.4,3.1,4.4l2,0.8c4.5,1.8,6.2,4.3,6.2,10.1C17.8,195.1,15.3,198.7,8.8,198.7z"/>
			<path class="st2" d="M28,198.3c-0.3,0-0.5-0.2-0.5-0.5v-27.5c0-0.2-0.1-0.3-0.3-0.3h-5.1c-0.3,0-0.5-0.2-0.5-0.5v-4.9
				c0-0.3,0.2-0.5,0.5-0.5h17.1c0.3,0,0.5,0.2,0.5,0.5v4.9c0,0.3-0.2,0.5-0.5,0.5h-5.1c-0.2,0-0.3,0.1-0.3,0.3v27.5
				c0,0.3-0.2,0.5-0.5,0.5H28z"/>
			<path class="st2" d="M44.6,192.9c-0.5-1.6-0.7-3-0.7-11.8c0-8.8,0.1-10.2,0.7-11.8c1.2-3.8,4.1-5.8,8.3-5.8s7.1,2,8.3,5.8
				c0.5,1.6,0.7,3,0.7,11.8c0,8.8-0.1,10.2-0.7,11.8c-1.2,3.8-4.1,5.8-8.3,5.8S45.8,196.7,44.6,192.9z M55.2,191.1
				c0.2-0.8,0.3-1.7,0.3-10s-0.1-9.2-0.3-10c-0.3-1-1.1-1.7-2.3-1.7s-2,0.7-2.3,1.7c-0.2,0.8-0.3,1.7-0.3,10s0.1,9.2,0.3,10
				c0.3,1,1.1,1.7,2.3,1.7S54.9,192.1,55.2,191.1z"/>
			<path class="st2" d="M79.7,198.3c-0.3,0-0.4-0.1-0.5-0.4l-3.7-13h-1.8c-0.2,0-0.3,0.1-0.3,0.3v12.6c0,0.3-0.2,0.5-0.5,0.5h-5.3
				c-0.3,0-0.5-0.2-0.5-0.5v-33.2c0-0.3,0.2-0.5,0.5-0.5h7.8c5.8,0,9.5,2.9,9.5,10.5c0,4.3-1.4,7.1-3.6,8.7l4.5,14.5
				c0.1,0.3,0,0.5-0.2,0.5H79.7z M78.5,174.5c0-3.6-1.1-4.7-3.5-4.7h-1.4c-0.2,0-0.3,0.1-0.3,0.3v8.7c0,0.2,0.1,0.3,0.3,0.3h1.4
				C77.5,179.2,78.5,178.1,78.5,174.5z"/>
			<path class="st2" d="M94.9,198.3c-0.3,0-0.5-0.2-0.5-0.5v-13.1l-6.3-20.1c-0.1-0.3,0-0.5,0.4-0.5h5.3c0.3,0,0.5,0.2,0.6,0.5
				l3.2,12.5h0.2l3.1-12.5c0.1-0.4,0.2-0.5,0.6-0.5h5.2c0.4,0,0.5,0.2,0.4,0.5l-6.3,20.1v13.1c0,0.3-0.2,0.5-0.5,0.5H94.9z"/>
		</g>
	</g>
	<ellipse class="st3" cx="53.5" cy="52.4" rx="49.9" ry="52.4"/>
	<path class="st0" d="M87.4,49.5c-1.9,0.4-12.7,2-19,12.3c0,0-11.9-27-53.3-27c0,3.9,3.2,13.5,12.1,17.6c8.9,4.1,24.2,8.6,31.9,9.4
		c7.6,0.8,10.8,4.9,10.8,4.9s-0.4,7.4-1.5,9.6c-1.1,2.2,0.4,5.7,2.6,2.2c2.2-3.5,2.2-10.6,1.5-12.9c2.8-0.8,11.7-3.1,19-16
		C93,47.2,89.3,49.1,87.4,49.5z M55.4,56.2C54.1,55,52.3,54,47.5,52c-4-1.7-4.1-1.6-12.3-4.3c-2.8-1.3-0.8-0.8,0-0.7
		c8.5,2.9,11.3,3.7,15,5.4c2.1,1,3.4,1.6,4.8,2.7C56.8,56.8,56.2,56.6,55.4,56.2z M82.5,55.5c0,0-5.2,3.9-6,4.6
		c-0.8,0.7-2.6,2.3-1.8,1.3c2.3-3,7.1-5.9,7.1-5.9C82.8,54.9,82.5,55.5,82.5,55.5z"/>
</g>
<g id="レイヤー_3">
</g>
<g id="hashtag">
</g>
<g id="レイヤー_6">
</g>
<g id="レイヤー_7">
</g>
<g id="_x23_">
</g>
<g id="tag_x5F_txt">
</g>
</svg>
