<?xml version="1.0" encoding="utf-8"?>
<!-- Generator: Adobe Illustrator 22.1.0, SVG Export Plug-In . SVG Version: 6.00 Build 0)  -->
<svg version="1.1" xmlns="http://www.w3.org/2000/svg" xmlns:xlink="http://www.w3.org/1999/xlink" x="0px" y="0px"
	 viewBox="0 0 659.4 596.9" style="enable-background:new 0 0 659.4 596.9;" xml:space="preserve">
<style type="text/css">
	.st0{fill:#643231;}
	.st1{opacity:0.3;fill:#E21F19;}
</style>
<g id="レイヤー_2">
</g>
<g id="レイヤー_1">
	<g>
		<path class="st0" d="M81.9,9.4c2.3,3.1,5.7,5.4,10,6.9c-1,1.4-1.3,2.1-2.1,4c-3.9-1.8-7.4-4.4-9.7-7.2c-0.6,1.1-1.2,1.9-2.2,3
			c-1.6,1.7-2.9,2.6-5.8,4.2c-1.1-1.5-1.7-2.3-2.8-3.2c2.9-1.4,4.4-2.4,5.7-3.8c1.1-1.1,1.9-2.4,2.5-3.8h-8.4v22.2
			c0,2.5,0,3.4,0.2,4.6h-4.7c0.2-1.4,0.3-2.6,0.3-4.4V9.1c0-1.6,0-2.5-0.2-3.7c1.2,0.1,2.3,0.2,4.4,0.2h9.4c0.2-1.5,0.2-2.7,0.2-3.9
			c0-0.4,0-0.6,0-0.9L83.2,1c-0.2,0.8-0.2,1.4-0.4,3c-0.1,0.9-0.2,1.1-0.2,1.6h9.8c2.1,0,3.1,0,4.2-0.2c-0.1,1.1-0.2,2.1-0.2,4.2
			v22.6c0,1.5-0.4,2.4-1.3,2.9c-0.7,0.4-2,0.6-4.1,0.6c-0.7,0-2.9-0.1-4-0.2c-0.1-1.6-0.4-2.5-0.9-4c2,0.2,3.7,0.4,4.9,0.4
			c0.9,0,1.1-0.2,1.1-0.9V9.4H81.9z M83,16.8c-0.2,0.7-0.2,0.7-0.6,2c-0.1,0.5-0.2,0.6-0.4,1.4c0.8,1,1.3,1.5,2.4,2.4
			c2.3,1.9,3.7,2.7,7.4,4.1c-1.2,1.4-1.6,2.1-2.4,3.8c-3.1-1.4-4.3-2.2-6.1-3.6c-1.3-1.1-2.1-1.9-2.9-2.9c-1.9,3.4-4.1,5.4-7.9,7.4
			c-1-1.4-1.8-2.3-3-3.4c2.1-0.9,4-2.1,5.6-3.6c2.1-2,3.7-5.5,3.9-8.2L83,16.8z"/>
		<path class="st0" d="M120.7,8.4c1.5,0,1.8,0,2.4-0.1v3.5c-0.6-0.1-1.1-0.1-2.4-0.1h-2.5c1.4,1.5,2.7,2.6,5.6,4
			c-0.6,0.8-1.2,1.8-1.8,3.2c-2.6-1.9-3.9-3.2-5.2-5c0.1,0.6,0.2,1.4,0.2,2V17c0,0.8,0,1.3,0.1,1.7H113c0.1-0.5,0.2-1,0.2-1.6v-0.9
			c0-0.5,0-1.2,0.1-1.8c-1.8,2.5-3.2,3.8-5.7,5.6c-0.6-1.5-1-2.2-1.8-3.3c2.6-1.4,4.7-3,6.1-4.9h-2.3c-1.4,0-2.2,0-3.2,0.2V8.3
			c1,0.1,1.7,0.2,3.2,0.2h3.5V3.6c0-1.1,0-1.7-0.2-2.5h4c-0.1,0.8-0.2,1.4-0.2,2.5v4.8H120.7z M117.3,25.6c1.2,1.9,2.7,3.2,5.3,4.4
			c-0.9,1.1-1.4,2-2.1,3.6c-2.8-2-3.8-3-5.2-5.2c-1.4,3-3.4,5-7.1,7c-0.7-1.4-1.2-2.1-2.5-3.4c1.9-0.8,2.8-1.4,3.9-2.3
			c1.4-1.2,2.2-2.4,2.8-4.2H110c-1.7,0-2.6,0-3.6,0.2v-4c0.9,0.1,2,0.2,3.7,0.2h3.1c0-0.4,0-0.6,0-0.9c0-0.6,0-1.1-0.2-1.6h4.1
			c-0.1,0.3-0.1,0.4-0.2,1.1c0,0.6,0,0.8-0.1,1.4h3.1c1.5,0,2.4,0,3.3-0.2v4c-1-0.1-2.1-0.2-3.5-0.2H117.3z M109.4,1.6
			c1.5,1.9,1.9,2.6,3,4.8l-2.9,1.6c-0.8-1.9-1.6-3.3-2.9-4.8L109.4,1.6z M123.2,3.1c-1.3,2.3-1.9,3.4-3.1,5l-2.6-1.6
			c1.2-1.4,2-2.7,2.9-4.8L123.2,3.1z M127.3,28.7c-1.2,0-1.9,0-3,0.1c0-1.1,0.1-2.2,0.1-3.5V12.1c0-1.5,0-2.8-0.1-3.6
			c0.8,0,1.6,0.1,3.3,0.1h1.8c0.6-1.2,0.7-1.6,1-2.7h-3.2c-1.7,0-2.7,0-3.7,0.2V2c1.1,0.2,2,0.2,4.1,0.2h9.6c2.1,0,3,0,4.1-0.2V6
			c-1.1-0.2-2.1-0.2-4.1-0.2h-2.7c-0.4,1.2-0.6,1.7-1.1,2.7h2.9c2.1,0,2.7,0,3.7-0.1c-0.1,1.2-0.1,2.2-0.1,3.6v12.8
			c0,1.5,0,2.8,0.1,4c-1.5-0.1-2.2-0.1-3.3-0.1h-1.3c2.2,2.2,3.3,2.9,6.6,4.7c-1.1,1.1-1.9,2-2.7,3.2c-2.9-1.8-4.5-3.2-6.9-5.6
			l2.6-2.3h-6.4l2.5,2.5c-2.3,2.4-4.3,3.8-7.6,5.4c-0.6-0.9-0.9-1.3-1.3-1.7c-0.1-0.1-0.4-0.4-0.8-0.9c-0.1-0.2-0.3-0.4-0.6-0.7
			c3.4-1.3,5-2.3,7.4-4.6H127.3z M128.2,14.2h7.9v-2.3h-7.9V14.2z M128.2,19.7h7.9v-2.3h-7.9V19.7z M128.2,25.2h7.9v-2.3h-7.9V25.2z
			"/>
	</g>
	<g>
		<path class="st0" d="M175.9,356.1c-1.1,0.3-1.1,0.3-4.4,1c-4.7,1.1-8.4,1.7-14.1,2.1c-0.4-1.5-0.7-2.2-1.4-3.7
			c1.8,0,5.1-0.2,7.6-0.6c4-0.5,7.2-1.3,9.3-2.3L175.9,356.1z M176,359.5c-1.4,3-2.4,5-3.8,7.1c0.8,0,1.4-0.1,2-0.2l1.4,2.3
			c-0.7,0.6-0.8,0.7-1.4,1.2c-1.5,1.4-3.1,2.8-5.3,4.2v0.6c2.6-0.3,3.9-0.5,7.5-1.1v3.6c-3.2,0.6-3.3,0.6-7.5,1.1v6
			c0,1.4-0.5,2.4-1.4,2.8c-0.9,0.5-2.1,0.7-4.9,0.7c-1,0-1.6,0-3.1-0.1c-0.2-1.6-0.4-2.5-1-4c1.4,0.2,3.1,0.3,4.7,0.3
			c1.3,0,1.6-0.2,1.6-0.9v-4.3c-0.4,0-0.5,0.1-0.8,0.1c-4,0.4-6.7,0.7-7.8,1l-0.4-4.3c0.3,0,0.4,0,0.6,0c1.2,0,3.1-0.1,8.3-0.6
			c0-1.3,0-1.8-0.2-2.7h1.2c1.2-0.7,2.1-1.3,3.1-2.3h-8.6c-1.7,0-2.3,0-3.3,0.2v-4c1,0.2,1.8,0.2,3.7,0.2h7.4c1.9-3,3-5.1,4-8.6
			L176,359.5z M160.9,359.4c0.9,1.6,1.6,3.3,2.3,5.4l-3.4,1.4c-0.6-2-1.3-3.6-2.2-5.4L160.9,359.4z M166.8,358.7
			c1,1.8,1.5,3,2.2,5.4l-3.4,1.2c-0.6-2.1-1-3.5-2.1-5.6L166.8,358.7z M182,382.7c0,0.8,0.4,1,2.1,1c1.9,0,2.7-0.3,2.9-1.3
			c0.3-1.3,0.4-3.1,0.4-7.7c1.7,1,2.4,1.2,3.9,1.5c-0.2,10.6-0.8,11.4-7.9,11.4c-4.3,0-5.5-0.8-5.5-3.6v-26.4c0-1.7-0.1-3-0.2-4.3
			h4.6c-0.2,1.3-0.2,2.6-0.2,4.3V382.7z"/>
		<path class="st0" d="M221.3,385.7c-5.8,1.2-9.9,1.9-14.1,2.5c-0.9,0.2-1.1,0.2-1.8,0.3l-0.7-3.9c0.2,0,0.3,0,0.4,0
			c1.1,0,2.6-0.2,4.9-0.5v-2.6c-2.8,1.5-5.2,2.5-8.8,3.6c-0.6-1.6-1-2.2-2-3.4c4.9-1,9.2-2.7,11.9-4.7h-7.2c-2.2,0-2.9,0-4.1,0.2
			v-3.7c1.2,0.1,2.1,0.2,4.3,0.2h11.9v-0.7c0-0.4,0-1,0-1.3c-0.8,0-1.1,0-2,0c-0.1-0.9-0.3-1.8-0.6-2.6c0.8,0.1,1.5,0.2,2,0.2
			c0.4,0,0.6-0.2,0.6-0.6v-1.2h-3.7v2c0,1.2,0,2,0.1,3h-3.9c0.1-1.2,0.1-1.6,0.1-3v-2h-3.3v2.3c0,1.2,0,1.6,0.1,2.2h-3.8
			c0.1-1.1,0.1-1.5,0.1-2.4v-2.9c0-0.5,0-1.2-0.1-2.2c0.5,0,1.7,0.1,2.5,0.1h4.4v-1.6h-4.9c-1.4,0-2.3,0-3.5,0.2v-3.3
			c0.8,0.1,1.2,0.1,2.6,0.2c-0.9-0.7-1.7-1.2-2.9-1.8c1.5-1.6,2.3-3,3.1-5.3l3.9,0.8c-0.3,0.8-0.4,1.1-0.7,1.7h2.5
			c0-1.1,0-1.7-0.2-2.5h4c-0.1,0.8-0.2,1.4-0.2,2.5h3.7c1.7,0,2.5,0,3.5-0.2v3.2c-1.2-0.1-1.9-0.1-3.5-0.1h-3.7v1.6h4.2
			c2.2,0,2.8,0,3.8-0.2v3.3c-0.9-0.1-2.1-0.2-3.6-0.2h-4.4v1.6h3.9c1.4,0,2.2,0,3.1-0.1c0,0.4,0,0.9,0,1.6v3c0,1-0.2,1.5-0.7,2h1.8
			c-0.1,0.8-0.2,1.1-0.2,1.9v0.7h10.1c2.1,0,3.4,0,4.3-0.2v3.7c-1.2-0.1-1.9-0.2-4.2-0.2h-1.5l2.8,1.7c-1.4,1.4-2.5,2.2-4.4,3.3
			c2.9,1.4,4.9,2,8,2.6c-1,1.3-1.5,2.2-2.1,3.8c-5-1.4-8.4-3.1-11.5-5.7V385.7z M208.4,359.9v-1.6h-4c-0.4,0.7-0.6,0.9-1.2,1.6
			H208.4z M214,383.5c3.8-0.6,4.9-0.8,7-1.3c-1.9-1.8-3-3.2-4-5.3h-0.8c-0.7,0.7-1.2,1.2-2.1,2V383.5z M220.9,376.9
			c0.7,1.2,1.5,2.1,2.9,3.2c1.4-0.8,2.9-2,3.9-3.2H220.9z M221.1,366.7c0.1-1,0.2-1.5,0.2-2.6v-6.4c0-1-0.1-2.2-0.2-2.9h4.1
			c-0.1,0.6-0.2,1.5-0.2,2.9v6.3c0,1.3,0,1.9,0.2,2.7H221.1z M232.5,367.7c0,2-0.3,2.8-1.3,3.4c-0.8,0.5-2.1,0.7-4.5,0.7
			c-0.8,0-1.9,0-2.8-0.1c-0.1-1.3-0.5-2.6-1-3.6c1.4,0.2,2.8,0.3,3.7,0.3c0.6,0,1.3-0.1,1.5-0.1c0.4-0.1,0.4-0.3,0.4-1v-11
			c0-1.4,0-2.2-0.2-3.3h4.3c-0.2,1-0.2,1.9-0.2,3.5V367.7z"/>
		<path class="st0" d="M243.7,374.2c0-1.4,0-2.5-0.2-3.7c1.2,0.1,2.2,0.2,3.7,0.2h8.4c1.1,0,1.9,0,2.8-0.1c-0.1,0.8-0.1,1.4-0.1,3.4
			v10.2c0,1.6,0,2.6,0.1,3.5h-4.1v-1.4h-6.6v2h-4.3c0.2-1.1,0.2-2.2,0.2-4.2V374.2z M247.7,382.5h6.7v-8.1h-6.7V382.5z M248.8,357.3
			c0-1.4,0-2.4-0.2-3.4c1.1,0.1,2.3,0.2,4.3,0.2h14.4c2.1,0,3.3,0,4.3-0.2c-0.1,0.9-0.2,1.9-0.2,3.4v7.1c0,1.6,0,2.5,0.2,3.5
			c-1.1-0.1-1.9-0.1-3.9-0.1h-15.2c-2,0-2.9,0-4,0.1c0.1-1,0.2-2.1,0.2-3.5V357.3z M252.9,364.1h14.6v-6.2h-14.6V364.1z
			 M273.3,370.7c1.6,0,2.5,0,3.4-0.2c-0.1,1.1-0.2,2.1-0.2,3.7v9.9c0,2.1,0,3.2,0.2,4.2h-4.3v-2h-7.2v2h-4.1c0.1-1,0.1-1.8,0.1-3.5
			v-11.1c0-1.8,0-2.2-0.1-3.2c0.9,0.1,1.7,0.1,2.9,0.1H273.3z M265.2,382.5h7.3v-8.1h-7.3V382.5z"/>
	</g>
	<g>
		<path class="st0" d="M435.9,377.4c0.1,0.2,0.2,0.3,0.2,0.4c0,0.2,0,0.2-0.7,2.1c-0.8,2.4-1.4,4.4-1.5,6c0,0.5-0.2,0.7-0.7,0.8
			c-0.6,0.2-1.6,0.2-2.7,0.2c-0.4,0-0.6-0.1-0.7-0.3c-0.4-0.8-1-3.5-1.3-5.8c-0.3-1.9-0.4-3.8-0.4-5.9c0-4.6,0.5-9,1.9-16.8
			c0.2-1.3,0.3-1.9,0.4-3.1c1.8,0.2,3.1,0.6,4.3,1.2c0.6,0.3,0.8,0.6,0.8,1c0,0.2-0.1,0.4-0.3,0.8c-1.6,2.8-3.1,11.4-3.1,17.8
			c0,1,0,2.5,0.2,4.4c1-2.5,1.4-3.6,2.3-5.5C434.8,375.8,435.1,376.3,435.9,377.4z M442.6,366.9c-1.9,0-2.3-0.1-2.4-0.5
			c-0.1-0.4-0.2-1.6-0.2-2.6c0-0.3,0-0.6,0-1.4c1.1,0.1,1.7,0.1,3,0.1c2.1,0,3.5,0,5.6-0.2c0-5.1-0.1-5.7-0.5-7.6
			c1.9,0,3.4,0.2,4.7,0.5c0.6,0.2,0.8,0.4,0.8,0.8c0,0.2,0,0.3-0.2,0.6c-0.4,0.9-0.6,2.5-0.7,5.3c1.5-0.2,2.7-0.5,5.1-1
			c0.2-0.1,0.3-0.1,0.4-0.1c0.2,0,0.4,0.1,0.4,0.4c0.1,0.4,0.2,1.9,0.2,2.7c0,1,0,1.2-0.4,1.3c-0.6,0.3-2.4,0.6-5.8,1
			c0,2.8,0.2,7.3,0.5,9.9c2.5,1.1,4.2,2,6,3.2c1.1,0.8,1.4,1.1,1.4,1.4c0,0.4-0.7,1.8-1.6,3c-0.5,0.7-0.7,0.9-1,0.9s-0.3,0-1.2-0.9
			c-0.9-0.9-1.8-1.6-3.5-2.7c0,0.2,0,0.3,0,0.3c0,3.5-2.9,5.8-7.3,5.8c-4.5,0-7.4-2.4-7.4-6c0-3.6,3-6.3,7-6.3c1.5,0,2.2,0,3.3,0.2
			c-0.2-3.1-0.2-3.1-0.3-8.5C446.9,366.8,444.2,366.9,442.6,366.9z M445.9,378.7c-2,0-3.3,0.9-3.3,2.3c0,1.3,1.2,2.1,3.1,2.1
			c2.1,0,3.2-1,3.2-2.8c0-0.6,0-1,0-1C447.8,378.9,446.9,378.7,445.9,378.7z"/>
		<path class="st0" d="M472,364.6c-2.1,0-2.2,0-2.5-0.5c-0.2-0.4-0.5-2.1-0.6-3.8c1.5,0.2,2.9,0.2,4.8,0.2c1.2,0,2.7,0,4.3-0.2
			c0.3-2.4,0.4-3.2,0.4-4.7c0-0.7,0-1.2-0.1-2.1c1.9,0.1,4.2,0.5,5.1,0.8c0.3,0.1,0.4,0.2,0.4,0.6c0,0.2,0,0.4-0.3,0.9
			c-0.4,0.8-0.5,1.4-0.8,2.7c-0.1,0.8-0.2,0.9-0.2,1.4c3.3-0.4,6.5-1.1,8.8-2c0.3-0.1,0.5-0.1,0.6-0.1c0.3,0,0.4,0.2,0.6,1
			c0.2,0.9,0.4,2.5,0.4,2.9c0,0.5-0.2,0.6-1.4,0.8c-3.1,0.6-7.1,1.2-9.8,1.5c-1.2,4.8-1.8,6.4-3.2,9c2.2-1.8,3.4-2.4,5.3-3.1
			c1.7-0.6,3.4-0.9,5.2-0.9c2.9,0,5.3,0.8,6.8,2.3c1.4,1.4,2.2,3.5,2.2,5.6c0,3-1.4,5.4-4.4,7.4c-2.2,1.5-5.8,2.8-9.4,3.3
			c-0.6,0.1-1.3,0.2-1.5,0.2c-0.6,0-0.9-0.2-1.2-0.7c-0.8-1.4-1.4-2.3-2.4-3.3c3.7-0.2,6.5-0.7,9.4-1.7c3-1.1,4.8-2.9,4.8-5
			c0-2.7-1.6-4.4-4.3-4.4c-4.5,0-9.5,2.8-12.7,7.1c-0.2,0.3-0.5,0.4-0.7,0.4c-0.7,0-3.5-2.5-3.5-3.2c0-0.2,0-0.3,0.4-0.8
			c2.1-2.9,3.7-6.9,4.9-11.9C476.7,364.4,472.5,364.6,472,364.6z"/>
		<path class="st0" d="M523.2,372.6c-1.4,2.7-3.1,5.3-4.5,7.5c-1.6,2.4-3.5,3.6-5.5,3.6c-2.9,0-4.8-2.4-4.8-5.9c0-3,1.5-5.6,4.3-7.3
			c1.9-1.1,4.7-1.8,7-1.8c0,0,0.2,0,0.4,0c2-4.2,2.5-5.3,3.9-8.4c-3.7,0.2-5.9,0.5-7.5,1c-0.1,0-0.2,0-0.3,0c-0.7,0-1.3-2.1-1.5-5.1
			c0.9,0.2,1.7,0.2,2.8,0.2c1.4,0,3.7-0.1,6.1-0.4c2.3-0.2,2.3-0.2,2.8-0.5c0.3-0.2,0.5-0.2,0.7-0.2c0.5,0,1.3,0.6,2.2,1.7
			c0.6,0.8,1,1.5,1,1.8c0,0.3-0.2,0.6-0.6,1.1c-0.6,0.6-2.4,4.1-4.7,9c3.8,0.8,5.2,1.2,8,2.4c0.2-1.4,0.4-3,0.4-4.2
			c0-0.5,0-1.1-0.1-1.8c1.7,0.2,3.1,0.5,4.3,0.8c0.7,0.2,1,0.4,1,0.7c0,0.3-0.1,0.6-0.3,1c-0.4,0.8-0.5,1.3-0.8,2.9
			c-0.1,0.8-0.2,1.4-0.5,2.6c2,1.3,3.8,2.5,4.6,3.3c0.2,0.2,0.3,0.4,0.3,0.6c0,1.1-1.7,3.7-2.4,3.7c-0.2,0-0.4-0.1-0.7-0.4
			c-1.1-1-2.4-2.1-3.2-2.7c-1.4,2.9-2.7,4.7-4.9,6.6c-1.9,1.6-4.5,3-5.4,3c-0.3,0-0.7-0.2-1-0.4c-0.1-0.1-0.1-0.2-0.6-0.9
			c-0.6-0.9-1.1-1.4-2.1-1.8c3.2-1.1,4.7-1.9,6.4-3.4c1.7-1.5,3-3.4,3.9-5.5C529.1,374,526.4,373.1,523.2,372.6z M512.5,377.4
			c0,1,0.4,1.6,1,1.6c0.9,0,2.4-2,4.9-6.3C514.7,373.1,512.5,374.8,512.5,377.4z"/>
		<path class="st0" d="M556.4,361.7c6.6-1.9,10-2.5,13.8-2.5c4,0,7.2,1.1,9.3,3.2c1.8,1.8,2.7,4.3,2.7,7.2c0,5.1-2.7,9.4-7.5,11.9
			c-2.5,1.3-5.1,2.2-8.7,2.8c-1.6,0.3-2.3,0.4-2.9,0.4c-0.5,0-0.7-0.2-1-0.6c-0.9-1.8-1.3-2.4-2.5-3.6c5.9-0.7,9.1-1.5,12.3-3.1
			c3.4-1.7,5.3-4.4,5.3-7.8c0-3.8-2.5-6.2-6.4-6.2c-4.7,0-10,1.4-16,4.2c-1.1,0.5-1.6,0.8-2,1c-0.7,0.4-0.9,0.5-1.2,0.5
			c-0.8,0-2.1-2.4-3-5.5C550.2,363.3,552.1,362.9,556.4,361.7z"/>
	</g>
	<g>
		<path class="st0" d="M595.7,14.4c0,9.2-1.2,13.9-4.3,17.3c-2.1,2.2-4.7,3.7-9,4.9c-0.6-1.4-1.2-2.5-2.2-3.8c2.9-0.6,5.1-1.4,7-2.8
			c1.9-1.4,2.9-2.8,3.7-5.2c-0.4,0.1-0.4,0.1-1,0.4c-2.3,0.9-4.1,1.4-9.9,3.2l-1-4c0.7-0.1,1.5-0.2,2.4-0.4v-16c0-2,0-2.7-0.1-3.4
			c4.9-0.7,7.9-1.5,11.3-3c0.8-0.4,1.2-0.6,1.8-1l2.4,3.6c-0.6,0.2-0.6,0.2-1.9,0.8c-2.7,1.2-5.8,2.1-9.7,2.8v3.9l2.9-1.6
			c2.2,3.6,2.5,4.2,3.7,6.8c0-1.1,0-1.6,0-2.5v-3.6c0-1.4,0-2.6-0.2-3.4h4.2c-0.1,0.6-0.2,1.7-0.2,3.4V14.4z M585.2,22.9
			c2.6-0.7,3.5-1,6.3-2c0.2-1.4,0.2-2.1,0.3-3.8l-3,1.8c-0.8-2.2-1.6-3.8-3.5-7.1V22.9z M602.4,31.7c0,2.2,0,3.2,0.2,4.5h-4.3
			c0.2-1.2,0.2-2.4,0.2-4.5V5.5c0-1.5,0-2.2-0.1-3.1c1,0.1,2.1,0.1,3.5,0.1h8.2c1.6,0,2.4,0,3.3-0.1c-0.1,1.1-0.2,1.9-0.2,3.5v21.4
			c0,3.4-1.3,4.2-6.6,4.2c-0.4,0-0.8,0-1.6-0.1c-0.1-1.9-0.2-2.3-0.9-4.2c1.3,0.2,2.7,0.3,3.6,0.3c1.3,0,1.7-0.2,1.7-1.1v-5.7
			l-2.8,1.5c-1.7-4.4-2.1-5.4-4.1-8.9V31.7z M605.1,10.8c2.8,5.1,3.1,5.6,4.2,8.4V6.2h-6.9v5.9L605.1,10.8z"/>
	</g>
	<g>
		<path class="st0" d="M318.9,9.8c1.6,0,2.7,0,3.7-0.2c-0.1,1.1-0.2,2-0.2,3.8v9.1c0,1.7,0,2.6,0.2,3.7c-1.1-0.1-2-0.1-3.7-0.1
			h-19.3c-1.6,0-2.6,0-3.7,0.1c0.1-1,0.2-2.1,0.2-3.7V13c-1.2,0.9-1.4,1-2.3,1.6c-0.7-1.5-1.2-2.2-2.4-3.5
			c4.9-2.8,9.5-7.6,10.8-11.2l4.7,0.8c-0.2,0.2-0.6,0.9-1.4,2.2h6.6c2,0,3.1,0,3.7-0.2l1.9,2.4c-0.4,0.5-0.4,0.5-0.8,1
			c-1.1,1.4-2,2.4-3.1,3.6H318.9z M291.8,33.6c2.6-2.3,3.6-3.6,5-6.8l3.6,1.7c-1.5,3.5-2.7,5.4-5,7.8L291.8,33.6z M309,9.8
			c1.5-1.6,1.8-1.9,2.7-3.2h-8.9c-0.8,1-1.8,2-3,3.2H309z M300.1,16.2h6.9v-3h-6.9V16.2z M300.1,22.8h6.9v-3.3h-6.9V22.8z M303.2,36
			c0-2.7-0.2-4.9-0.7-7.8l3.9-0.5c0.5,2.5,0.9,5.2,1,7.8L303.2,36z M312.4,36.1c-0.6-3-1.1-4.9-2.3-7.7l3.8-0.9
			c1.3,2.8,1.9,4.5,2.6,7.4L312.4,36.1z M311,16.2h7.3v-3H311V16.2z M311,22.8h7.3v-3.3H311V22.8z M322.5,36.1
			c-1.6-3.3-2.7-5.1-4.8-7.7l3.5-1.7c2.4,2.7,3.5,4.2,5.3,7L322.5,36.1z"/>
		<path class="st0" d="M354.2,1.2c1.3,2.1,1.9,3,3.4,4.4c3.7,3.7,7.4,6.1,12.6,8.3c-0.9,1.4-1.6,3-2.1,4.5c-3.4-1.7-6.4-3.6-9.7-6.3
			c-2.8-2.3-4.4-4-6.5-7.2c-2.1,3.1-3.5,4.6-6.2,7.1c-2.7,2.4-6,4.7-9.4,6.4c-0.8-2.1-1.2-2.8-2.3-4.3c3.7-1.6,6.4-3.2,9.1-5.7
			c2.7-2.3,4.5-4.5,6.1-7.2H354.2z M348.2,14.2c-0.1,0.9-0.1,1.5-0.2,3.2c-0.1,5.8-0.7,8.8-2.3,11.8c-1.6,3-4,5.2-7.8,7.2
			c-0.9-1.6-1.6-2.4-3.1-3.9c2.5-1.1,3.5-1.8,4.7-2.9c3.1-2.7,4.1-5.8,4.1-12.6c0-0.9-0.1-1.7-0.2-2.8H348.2z M360.3,14.2
			c-0.2,1.3-0.2,2.3-0.2,4.2v12.8c0,1.8,0.1,3,0.3,4.6h-4.9c0.2-1.4,0.3-2.8,0.3-4.5V18.5c0-1.7-0.1-3-0.2-4.2H360.3z"/>
		<path class="st0" d="M392.3,8.4c1.5,0,1.8,0,2.4-0.1v3.5c-0.6-0.1-1.1-0.1-2.4-0.1h-2.5c1.4,1.5,2.7,2.6,5.6,4
			c-0.6,0.8-1.2,1.8-1.8,3.2c-2.6-1.9-3.9-3.2-5.2-5c0.1,0.6,0.2,1.4,0.2,2V17c0,0.8,0,1.3,0.1,1.7h-3.9c0.1-0.5,0.2-1,0.2-1.6v-0.9
			c0-0.5,0-1.2,0.1-1.8c-1.8,2.5-3.2,3.8-5.7,5.6c-0.6-1.5-1-2.2-1.8-3.3c2.6-1.4,4.7-3,6.1-4.9h-2.3c-1.4,0-2.2,0-3.2,0.2V8.3
			c1,0.1,1.7,0.2,3.2,0.2h3.5V3.6c0-1.1,0-1.7-0.2-2.5h4c-0.1,0.8-0.2,1.4-0.2,2.5v4.8H392.3z M388.9,25.6c1.2,1.9,2.7,3.2,5.3,4.4
			c-0.9,1.1-1.4,2-2.1,3.6c-2.8-2-3.8-3-5.2-5.2c-1.4,3-3.4,5-7.1,7c-0.7-1.4-1.2-2.1-2.5-3.4c1.9-0.8,2.8-1.4,3.9-2.3
			c1.4-1.2,2.2-2.4,2.8-4.2h-2.5c-1.7,0-2.6,0-3.6,0.2v-4c0.9,0.1,2,0.2,3.7,0.2h3.1c0-0.4,0-0.6,0-0.9c0-0.6,0-1.1-0.2-1.6h4.1
			c-0.1,0.3-0.1,0.4-0.2,1.1c0,0.6,0,0.8-0.1,1.4h3.1c1.5,0,2.4,0,3.3-0.2v4c-1-0.1-2.1-0.2-3.5-0.2H388.9z M381.1,1.6
			c1.5,1.9,1.9,2.6,3,4.8l-2.9,1.6c-0.8-1.9-1.6-3.3-2.9-4.8L381.1,1.6z M394.9,3.1c-1.3,2.3-1.9,3.4-3.1,5l-2.6-1.6
			c1.2-1.4,2-2.7,2.9-4.8L394.9,3.1z M399,28.7c-1.2,0-1.9,0-3,0.1c0-1.1,0.1-2.2,0.1-3.5V12.1c0-1.5,0-2.8-0.1-3.6
			c0.8,0,1.6,0.1,3.3,0.1h1.8c0.6-1.2,0.7-1.6,1-2.7h-3.2c-1.7,0-2.7,0-3.7,0.2V2c1.1,0.2,2,0.2,4.1,0.2h9.6c2.1,0,3,0,4.1-0.2V6
			c-1.1-0.2-2.1-0.2-4.1-0.2h-2.7c-0.4,1.2-0.6,1.7-1.1,2.7h2.9c2.1,0,2.7,0,3.7-0.1c-0.1,1.2-0.1,2.2-0.1,3.6v12.8
			c0,1.5,0,2.8,0.1,4c-1.5-0.1-2.2-0.1-3.3-0.1h-1.3c2.2,2.2,3.3,2.9,6.6,4.7c-1.1,1.1-1.9,2-2.7,3.2c-2.9-1.8-4.5-3.2-6.9-5.6
			l2.6-2.3h-6.4l2.5,2.5c-2.3,2.4-4.3,3.8-7.6,5.4c-0.6-0.9-0.9-1.3-1.3-1.7c-0.1-0.1-0.4-0.4-0.8-0.9c-0.1-0.2-0.3-0.4-0.6-0.7
			c3.4-1.3,5-2.3,7.4-4.6H399z M399.9,14.2h7.9v-2.3h-7.9V14.2z M399.9,19.7h7.9v-2.3h-7.9V19.7z M399.9,25.2h7.9v-2.3h-7.9V25.2z"
			/>
	</g>
	<g>
		<path class="st0" d="M49.6,216.5c-0.2,0.5-0.5,0.5-0.8,0.1c-0.7-0.7-1.2-2.4-0.1-5.4c1.8-4.7,9.7-17.8,15-25
			c0.4-0.6,0.9-0.8,1.6-0.3c1.9,1.7,2.4,3.4,1.2,7.3c-1.6,4.7-3.3,10.5-5.2,17.3c5.3-8.7,12.5-16.1,17.8-24.5
			c0.4-0.7,0.8-0.7,1.4-0.1c2,2,1.5,4.7,0.1,7.2c-3.4,6.4-8.3,16.3-10.7,23.4c-0.2,0.5-0.4,0.5-0.8,0.1c-0.8-0.6-1.4-2.1-0.5-5.4
			c0.7-2.9,3.9-9.8,7-15.9c-5.6,6.8-11.2,14.3-14.7,20.9c-0.2,0.5-0.5,0.6-0.9,0.3c-1.6-1.2-2.3-2.9-1.9-5.9
			c0.4-2.8,2.1-9.6,4.2-16.1C57.9,201.1,52.4,209.9,49.6,216.5z"/>
		<path class="st0" d="M91.4,187.6c-0.1-0.4,0-0.6,0.5-0.6c4.1,0.2,9.4-1.2,12.2-1.2c2.1,0,3.1,0.8,3.7,2.4c0.1,0.4,0,0.7-0.5,0.6
			c-3.5,0-6.9,0.8-9.9,1.3c-2,2.9-4.3,7.2-6.7,11.6c1.3-0.2,2.6-0.3,3.5-0.4c2.4-0.1,3.5,0.7,4,2.2c0.1,0.4,0.1,0.7-0.5,0.7
			c-2.6,0-6.3,0.7-9,1.4c-1.4,2.7-2.7,5.5-3.8,7.8c2.3-0.7,5.6-1.4,7.6-1.5c2.4-0.1,3.6,0.7,4.2,2.2c0.1,0.4,0.1,0.7-0.5,0.7
			c-2.7,0-8.1,1.2-10.8,2c-0.9,0.2-1.5,0.2-2.1-0.5c-0.4-0.4-0.7-1.2-1-1.8c-0.4-0.8-0.4-1.5,0-2.8c2.2-6,7.1-15.2,11.2-21.6
			C92.2,189.6,91.6,188.6,91.4,187.6z"/>
		<path class="st0" d="M109.2,209c-1.5,2.5-2.7,4.9-3.7,7.1c-0.2,0.4-0.6,0.4-0.9,0.1c-0.6-0.8-0.8-2.3,0.2-5
			c0.3-0.7,0.7-1.7,1.3-2.8c-1.1-0.6-1.5-1.3-1.6-1.7c-0.2-0.6-0.1-0.8,0.6-0.7c0.7,0.1,1.4,0.2,2.2,0.2
			c3.8-6.7,10.6-16.4,15.8-20.7c0.8-0.6,1.3-0.6,1.8,0s0.6,0.8,1.1,2c0.5,1.2,0.4,2.3,0,3.6c-1.3,3.9-2.6,8.9-3.6,14.3
			c1.5,0.5,2,1.5,2.2,2.5c0.1,0.4-0.1,0.6-0.5,0.4c-0.6-0.1-1.3-0.2-2.1-0.3c-0.3,2.6-0.6,5.3-0.7,7.9c0,0.5-0.3,0.6-0.7,0.4
			c-1-0.4-1.8-1.7-1.8-4.5c0-1,0-2.3,0.2-3.7C115.4,208.4,111.5,209,109.2,209z M119.3,205.2c0.7-5.1,2.1-11.3,3.6-15.1
			c-3.7,4.2-8.2,10.1-11.9,16C114,205.8,117,205.2,119.3,205.2z"/>
		<path class="st0" d="M139.8,190.5c-2.9,0.1-5-1-5.6-2.8c-0.1-0.4,0-0.7,0.5-0.6c4.3,0.3,12.5-1.5,15.2-1.4c2.1,0,3.9,0.6,4.6,2.5
			c0.1,0.4,0,0.8-0.6,0.7c-2.4-0.2-5.5,0.2-8.3,0.7c0,1.2-0.3,2.8-1.6,5.2c-2.9,5.4-7.1,12.2-10.9,21.2c-0.2,0.5-0.4,0.5-0.8,0.1
			c-0.7-0.6-1.3-2.1-0.6-4.5c1.1-4,6.4-14.7,10.9-21.6C141.7,190.3,140.7,190.4,139.8,190.5z"/>
	</g>
	<g>
		<path class="st0" d="M12.1,266.3c-0.9,1-1.7,1.8-2.2,2.5c-0.5,0.7-1.1,1.6-1.7,2.8s-1.2,2.7-1.7,4.5c-0.4,1.3-0.7,2.5-1,3.7
			s-0.5,2.4-0.7,3.6c-0.2,1.2-0.3,2.5-0.3,3.7c0,1.9,0.2,3.6,0.7,5.1l-1.1,0.5c-0.2-0.6-0.4-1.4-0.7-2.3c-0.2-0.9-0.5-2-0.7-3.3
			s-0.3-2.6-0.3-3.9c0-2.4,0.3-4.5,0.9-6.5s1.4-3.7,2.3-5.1s1.8-2.7,2.7-3.7c0.9-1,1.8-1.9,2.8-2.8L12.1,266.3z"/>
		<path class="st0" d="M19.3,282c-0.3,0.8-0.8,1.7-1.5,2.6s-1.6,1.3-2.6,1.3c-0.7,0-1.2-0.2-1.6-0.6c-0.4-0.4-0.5-0.9-0.5-1.4
			c0-0.6,0.2-1.4,0.5-2.4l1.6-5.2c0.2-0.5,0.2-0.8,0.2-1c0-0.1,0-0.2-0.1-0.3c-0.1-0.1-0.2-0.1-0.3-0.1c-0.3,0-0.6,0.3-0.9,0.8
			s-0.6,1-0.8,1.4h-1.1c0.5-1.3,1.1-2.3,1.9-3c0.8-0.7,1.6-1.1,2.4-1.1c0.6,0,1,0.2,1.4,0.5s0.5,0.7,0.5,1.3c0,0.6-0.1,1.1-0.3,1.7
			l-2,6.1c-0.1,0.4-0.2,0.8-0.2,1c0,0.1,0,0.2,0.1,0.3s0.2,0.2,0.3,0.2c0.3,0,0.5-0.2,0.8-0.5s0.6-0.9,1-1.7H19.3z M20.2,267.2
			c0,0.5-0.2,1-0.5,1.4c-0.3,0.4-0.7,0.6-1.1,0.6c-0.5,0-0.9-0.2-1.2-0.6c-0.3-0.4-0.5-0.8-0.5-1.4c0-0.5,0.2-0.9,0.5-1.3
			c0.3-0.4,0.7-0.6,1.2-0.6c0.3,0,0.6,0.1,0.8,0.3c0.2,0.2,0.4,0.4,0.6,0.7C20.1,266.5,20.2,266.8,20.2,267.2z"/>
		<path class="st0" d="M34.4,281.7c-0.2,0.5-0.6,1.1-1,1.7s-0.9,1.2-1.6,1.6c-0.6,0.5-1.3,0.7-2,0.7c-0.6,0-1.1-0.2-1.5-0.5
			c-0.4-0.4-0.5-0.8-0.5-1.4c0-0.4,0.1-1.1,0.3-1.8l0.9-3.5c0.3-1,0.4-1.6,0.4-2c0-0.2-0.1-0.4-0.2-0.6s-0.3-0.3-0.5-0.3
			c-0.5,0-1,0.4-1.7,1.3s-1.3,2.1-2,3.6c-0.7,1.5-1.3,3.2-1.8,5h-3l2.3-8.6c0.2-0.9,0.3-1.4,0.3-1.5c0-0.1,0-0.2-0.1-0.4
			c-0.1-0.1-0.1-0.2-0.3-0.2c-0.3,0-0.6,0.2-0.9,0.7s-0.6,1-0.8,1.6h-1.1c0.3-1,0.8-2,1.5-2.8c0.7-0.8,1.5-1.3,2.5-1.3
			c0.7,0,1.1,0.2,1.5,0.6s0.5,0.8,0.5,1.3c0,0.3,0,0.6-0.1,1.2c-0.1,0.5-0.2,1-0.3,1.5l-0.4,1.5c1-1.9,2-3.3,2.9-4.4
			c0.9-1.1,1.9-1.6,3-1.6c0.6,0,1.1,0.2,1.4,0.7s0.4,0.9,0.4,1.4c0,0.3-0.1,0.9-0.3,1.8l-1.3,5.1c-0.2,0.6-0.2,1.1-0.2,1.3
			c0,0.1,0,0.2,0.1,0.3s0.1,0.1,0.2,0.1c0.2,0,0.5-0.2,0.9-0.6c0.4-0.4,0.7-0.9,1-1.5H34.4z"/>
		<path class="st0" d="M46.5,276.1c0,0.6-0.1,1.1-0.4,1.5c-0.3,0.4-0.7,0.6-1.2,0.6c-0.4,0-0.7-0.1-0.9-0.4s-0.3-0.5-0.3-0.9
			c0-0.2,0-0.5,0.1-0.8c0.1-0.3,0.1-0.5,0.1-0.7c0-0.5-0.1-0.8-0.4-0.9c-0.3-0.2-0.5-0.2-0.8-0.2c-0.7,0-1.4,0.5-2.1,1.4
			c-0.6,0.9-1.1,2-1.5,3.3c-0.4,1.3-0.6,2.3-0.6,3.1c0,0.9,0.2,1.5,0.5,1.7s0.7,0.4,1.1,0.4c0.8,0,1.4-0.2,2.1-0.7
			c0.6-0.5,1.1-1,1.6-1.6h1.4c-0.6,1-1.4,2-2.5,2.8s-2.3,1.3-3.6,1.3c-1.2,0-2.1-0.3-2.7-1c-0.6-0.7-1-1.6-1-2.7
			c0-1.4,0.3-2.8,1-4.2c0.7-1.4,1.6-2.6,2.8-3.5c1.2-0.9,2.5-1.4,4-1.4c0.5,0,1,0.1,1.4,0.2c0.4,0.2,0.7,0.4,1,0.7
			c0.3,0.3,0.5,0.6,0.6,1S46.5,275.8,46.5,276.1z"/>
		<path class="st0" d="M54.9,265.3l-4.4,16.8c-0.2,0.8-0.3,1.3-0.3,1.6c0,0.2,0,0.3,0.1,0.4s0.2,0.1,0.3,0.1c0.2,0,0.5-0.2,0.9-0.7
			c0.4-0.5,0.7-1,0.9-1.6h1.2c-0.4,0.9-1,1.8-1.7,2.7s-1.5,1.3-2.6,1.3c-0.6,0-1.1-0.2-1.5-0.6c-0.4-0.4-0.6-0.9-0.6-1.5
			c0-0.4,0.1-1.2,0.4-2.2l3.2-12.2c0.2-0.8,0.3-1.3,0.3-1.6c0-0.3-0.1-0.6-0.4-0.7s-0.7-0.2-1.3-0.2l0.3-1.3h1.3
			c0.6,0,1.1,0,1.6-0.1s0.9-0.1,1.4-0.3H54.9z"/>
		<path class="st0" d="M68.5,281.8c-0.3,1-0.8,1.9-1.5,2.8c-0.7,0.9-1.5,1.3-2.6,1.3c-0.7,0-1.2-0.2-1.5-0.6s-0.4-0.9-0.4-1.5
			c0-0.2,0-0.6,0.1-1c0.1-0.4,0.2-0.8,0.3-1.3l0.4-1.7c-0.9,1.7-1.8,3.1-2.8,4.3s-2,1.8-3.2,1.8c-0.6,0-1.1-0.2-1.4-0.6
			s-0.5-0.9-0.5-1.4c0-0.5,0.1-1.2,0.4-2.1l1.3-4.8c0.2-0.6,0.3-1,0.3-1.3c0-0.1,0-0.2-0.1-0.4c-0.1-0.1-0.2-0.2-0.3-0.2
			c-0.5,0-1.1,0.7-1.9,2.1h-1.2c0.6-1.1,1.2-2,1.9-2.8s1.6-1.2,2.6-1.2c0.5,0,0.9,0.1,1.3,0.4c0.4,0.3,0.6,0.9,0.6,1.7
			c0,0.5-0.1,0.9-0.2,1.3l-1,3.9c-0.2,0.9-0.4,1.5-0.4,1.9c0,0.2,0.1,0.4,0.2,0.6s0.3,0.3,0.5,0.3c0.4,0,0.9-0.3,1.5-1
			c0.6-0.7,1.2-1.8,1.9-3.3c0.7-1.5,1.4-3.3,2-5.6h3l-2.4,8.9c-0.2,0.6-0.2,1-0.2,1.1c0,0.1,0,0.2,0.1,0.4c0.1,0.1,0.2,0.2,0.3,0.2
			c0.3,0,0.6-0.2,0.9-0.7c0.3-0.5,0.5-1,0.8-1.6H68.5z"/>
		<path class="st0" d="M84.6,265.3l-4.5,16.9c-0.2,0.8-0.3,1.2-0.3,1.5c0,0.3,0.1,0.5,0.4,0.5c0.3,0,0.6-0.2,0.9-0.5
			c0.3-0.4,0.6-0.9,0.9-1.5h1.2c-0.1,0.4-0.4,0.9-0.8,1.5s-0.9,1.1-1.4,1.6s-1.2,0.7-1.9,0.7c-1.5,0-2.2-0.9-2.2-2.7
			c0-0.1,0-0.1,0-0.2c0-0.1,0-0.1,0-0.2c-0.3,0.5-0.7,1-1.2,1.5c-0.5,0.5-1,0.9-1.6,1.2c-0.6,0.3-1.2,0.5-1.8,0.5
			c-0.9,0-1.6-0.3-2.1-1c-0.5-0.7-0.7-1.5-0.7-2.5c0-1.1,0.2-2.2,0.6-3.3c0.4-1.1,0.9-2.1,1.5-3c0.6-0.9,1.4-1.6,2.3-2.2
			c0.9-0.5,1.7-0.8,2.7-0.8c0.7,0,1.2,0.1,1.6,0.4s0.7,0.7,0.9,1.1l1.5-5.7c0.2-0.5,0.3-0.9,0.3-1.1c0-0.3-0.1-0.5-0.2-0.6
			c-0.1-0.1-0.3-0.2-0.5-0.2s-0.6,0-1,0l0.3-1.3c0.9,0,1.5,0,2-0.1s0.9,0,1.2-0.1s0.7-0.1,1.1-0.2H84.6z M78.5,276.4
			c0-0.6-0.1-1.2-0.4-1.6c-0.3-0.4-0.7-0.6-1.1-0.6c-0.7,0-1.4,0.4-2.1,1.3c-0.7,0.9-1.2,1.9-1.6,3.1s-0.6,2.3-0.6,3.2
			c0,0.7,0.1,1.1,0.4,1.4c0.3,0.3,0.6,0.4,1,0.4c0.6,0,1.1-0.2,1.7-0.7s1-1.1,1.5-1.9c0.4-0.7,0.7-1.5,1-2.4
			C78.4,277.9,78.5,277.1,78.5,276.4z"/>
		<path class="st0" d="M95.7,275.5c0,0.4-0.1,0.9-0.3,1.4s-0.6,1.1-1.2,1.7c-0.6,0.6-1.4,1.1-2.4,1.6c-1,0.4-2.3,0.8-3.9,0.9l-0.3,0
			c-0.1,0.4-0.1,0.8-0.1,1.1c0,0.7,0.1,1.2,0.4,1.6c0.3,0.3,0.7,0.5,1.3,0.5c1.3,0,2.5-0.8,3.6-2.4h1.3c-0.5,0.9-1.3,1.8-2.4,2.8
			s-2.3,1.4-3.8,1.4c-1,0-1.9-0.3-2.6-0.9c-0.7-0.6-1.1-1.6-1.1-2.8c0-1.5,0.4-2.9,1.1-4.4c0.7-1.4,1.7-2.6,2.9-3.4s2.6-1.3,4-1.3
			c1.2,0,2,0.2,2.5,0.7C95.4,274.2,95.7,274.8,95.7,275.5z M93,275.5c0-0.3-0.1-0.6-0.3-0.9c-0.2-0.3-0.5-0.4-0.8-0.4
			c-0.6,0-1.1,0.2-1.6,0.7c-0.5,0.5-0.9,1-1.2,1.7s-0.6,1.3-0.8,2s-0.3,1.1-0.4,1.2c1.7-0.3,3-0.9,3.9-1.7S93,276.4,93,275.5z"/>
		<path class="st0" d="M121.1,274.2c0,0.3-0.1,0.6-0.3,0.7c-0.2,0.1-0.4,0.2-0.5,0.2c-0.2,0-0.4-0.1-0.7-0.3
			c-0.1-0.1-0.3-0.2-0.4-0.2c-0.2,0-0.4,0.1-0.5,0.4c0.2,0.3,0.3,0.6,0.4,0.9c0.1,0.3,0.1,0.7,0.1,1.2c0,0.4-0.1,0.9-0.2,1.4
			c-0.2,0.5-0.4,1-0.8,1.5s-1,0.9-1.7,1.2s-1.7,0.5-2.8,0.5c-1,0-1.8,0.1-2.1,0.3c-0.4,0.2-0.5,0.5-0.5,0.9c0,0.2,0.1,0.3,0.2,0.5
			c0.1,0.1,0.3,0.3,0.6,0.4s0.7,0.3,1.4,0.5c0.7,0.2,1.3,0.4,1.9,0.6c2.3,0.8,3.4,2,3.4,3.7c0,0.7-0.2,1.4-0.6,2
			c-0.4,0.6-1.1,1.1-2.2,1.6s-2.3,0.6-4,0.6c-0.7,0-1.4-0.1-2.3-0.2c-0.9-0.2-1.7-0.5-2.4-1s-1.1-1.2-1.1-2.2c0-0.5,0.1-0.9,0.3-1.3
			s0.4-0.7,0.7-0.9s0.5-0.3,0.8-0.3c0.2,0,0.3,0,0.4,0.1s0.2,0.2,0.2,0.3s-0.1,0.3-0.3,0.6c-0.3,0.4-0.4,0.8-0.4,1.2
			c0,0.9,0.5,1.6,1.4,1.9c0.9,0.3,1.9,0.5,2.8,0.5c1.2,0,2.1-0.2,2.8-0.6s1.1-0.9,1.1-1.5c0-0.3-0.1-0.5-0.2-0.7s-0.4-0.4-0.8-0.5
			c-0.4-0.2-1.1-0.5-2.2-0.9c-1-0.4-1.7-0.7-2.2-1c-0.5-0.3-0.9-0.6-1.2-1c-0.3-0.4-0.4-0.9-0.4-1.4c0-0.8,0.3-1.5,0.9-2
			c0.6-0.5,1.3-0.8,2.1-1c-0.7-0.3-1.1-0.8-1.5-1.4c-0.3-0.6-0.5-1.2-0.5-1.9c0-0.8,0.2-1.5,0.6-2.3c0.4-0.7,1-1.3,1.8-1.8
			s1.6-0.7,2.6-0.7c1.4,0,2.5,0.4,3.2,1.2c0.3-0.4,0.6-0.6,0.9-0.8s0.6-0.3,1.1-0.3c0.3,0,0.6,0.1,0.8,0.3S121.1,273.9,121.1,274.2z
			 M116.6,276c0-0.3-0.1-0.6-0.2-0.9c-0.1-0.3-0.3-0.5-0.5-0.7s-0.5-0.2-0.8-0.2c-0.5,0-1,0.3-1.4,0.8s-0.7,1.2-0.9,1.9
			c-0.2,0.7-0.3,1.4-0.3,1.9c0,0.6,0.1,1,0.4,1.3s0.6,0.4,1,0.4c0.8,0,1.5-0.5,2-1.6S116.6,276.9,116.6,276z"/>
		<path class="st0" d="M132,275.5c0,0.4-0.1,0.9-0.3,1.4s-0.6,1.1-1.2,1.7c-0.6,0.6-1.4,1.1-2.4,1.6c-1,0.4-2.3,0.8-3.9,0.9l-0.3,0
			c-0.1,0.4-0.1,0.8-0.1,1.1c0,0.7,0.1,1.2,0.4,1.6c0.3,0.3,0.7,0.5,1.3,0.5c1.3,0,2.5-0.8,3.6-2.4h1.3c-0.5,0.9-1.3,1.8-2.4,2.8
			s-2.3,1.4-3.8,1.4c-1,0-1.9-0.3-2.6-0.9c-0.7-0.6-1.1-1.6-1.1-2.8c0-1.5,0.4-2.9,1.1-4.4c0.7-1.4,1.7-2.6,2.9-3.4s2.6-1.3,4-1.3
			c1.2,0,2,0.2,2.5,0.7C131.7,274.2,132,274.8,132,275.5z M129.3,275.5c0-0.3-0.1-0.6-0.3-0.9c-0.2-0.3-0.5-0.4-0.8-0.4
			c-0.6,0-1.1,0.2-1.6,0.7c-0.5,0.5-0.9,1-1.2,1.7s-0.6,1.3-0.8,2s-0.3,1.1-0.4,1.2c1.7-0.3,3-0.9,3.9-1.7S129.3,276.4,129.3,275.5z
			"/>
		<path class="st0" d="M140.4,265.3l-4.4,16.8c-0.2,0.8-0.3,1.3-0.3,1.6c0,0.2,0,0.3,0.1,0.4s0.2,0.1,0.3,0.1c0.2,0,0.5-0.2,0.9-0.7
			c0.4-0.5,0.7-1,0.9-1.6h1.2c-0.4,0.9-1,1.8-1.7,2.7s-1.5,1.3-2.6,1.3c-0.6,0-1.1-0.2-1.5-0.6c-0.4-0.4-0.6-0.9-0.6-1.5
			c0-0.4,0.1-1.2,0.4-2.2l3.2-12.2c0.2-0.8,0.3-1.3,0.3-1.6c0-0.3-0.1-0.6-0.4-0.7s-0.7-0.2-1.3-0.2l0.3-1.3h1.3
			c0.6,0,1.1,0,1.6-0.1s0.9-0.1,1.4-0.3H140.4z"/>
		<path class="st0" d="M153,282c-0.2,0.6-0.5,1.1-0.8,1.6c-0.3,0.5-0.6,0.9-1,1.3c-0.4,0.4-0.7,0.6-1.1,0.8s-0.8,0.3-1.2,0.3
			c-0.9,0-1.4-0.3-1.7-0.9c-0.2-0.6-0.4-1.4-0.4-2.2c-0.7,0.9-1.3,1.7-2,2.3s-1.4,0.9-2.2,0.9c-0.5,0-0.9-0.2-1.2-0.5
			c-0.3-0.3-0.6-0.7-0.7-1.3s-0.2-1.1-0.2-1.7c0-1.3,0.3-2.7,0.9-4.2c0.6-1.5,1.4-2.7,2.4-3.7s2.1-1.5,3.2-1.5
			c0.5,0,0.9,0.1,1.2,0.4c0.3,0.2,0.5,0.5,0.6,0.8s0.2,0.6,0.3,1l0.5-1.8h2.8l-2.3,8.9c-0.2,0.6-0.3,1-0.3,1.2c0,0.1,0,0.2,0.1,0.3
			s0.2,0.1,0.2,0.1c0.5,0,1.1-0.7,1.8-2H153z M148.3,276.1c0-0.5-0.1-0.9-0.2-1.2s-0.4-0.5-0.9-0.5c-0.6,0-1.2,0.4-1.8,1.3
			c-0.6,0.8-1.1,1.9-1.4,3.1c-0.4,1.2-0.5,2.2-0.5,3c0,1.2,0.3,1.8,1,1.8c0.4,0,0.9-0.2,1.4-0.7c0.5-0.5,0.9-1.1,1.3-1.9
			c0.4-0.8,0.7-1.7,1-2.5C148.2,277.6,148.3,276.8,148.3,276.1z"/>
		<path class="st0" d="M162.1,273.5l-0.4,1.3h-2.5l-1.9,7.2c-0.1,0.5-0.2,0.9-0.2,1.1c0,0.2,0.1,0.4,0.2,0.6
			c0.1,0.2,0.3,0.3,0.4,0.3c0.5,0,0.9-0.3,1.3-0.8c0.4-0.6,0.7-1.1,1-1.8h1.2c-0.5,1.2-1,2.2-1.6,2.8s-1.1,1.1-1.7,1.3
			c-0.5,0.2-1,0.3-1.4,0.3c-0.7,0-1.3-0.2-1.7-0.7c-0.4-0.5-0.6-1.1-0.6-1.9c0-0.6,0.1-1.3,0.4-2.3l1.6-6.1h-2.4l0.4-1.3h2.3
			l1.2-4.5h3l-1.2,4.5H162.1z"/>
		<path class="st0" d="M169.2,282c-0.3,0.8-0.8,1.7-1.5,2.6c-0.7,0.9-1.6,1.3-2.6,1.3c-0.7,0-1.2-0.2-1.6-0.6
			c-0.4-0.4-0.5-0.9-0.5-1.4c0-0.6,0.2-1.4,0.5-2.4l1.6-5.2c0.2-0.5,0.2-0.8,0.2-1c0-0.1,0-0.2-0.1-0.3c-0.1-0.1-0.2-0.1-0.3-0.1
			c-0.3,0-0.6,0.3-0.9,0.8c-0.3,0.5-0.6,1-0.8,1.4h-1.1c0.5-1.3,1.1-2.3,1.9-3c0.8-0.7,1.6-1.1,2.4-1.1c0.6,0,1,0.2,1.4,0.5
			c0.4,0.3,0.5,0.7,0.5,1.3c0,0.6-0.1,1.1-0.3,1.7l-2,6.1c-0.1,0.4-0.2,0.8-0.2,1c0,0.1,0,0.2,0.1,0.3c0.1,0.1,0.2,0.2,0.3,0.2
			c0.3,0,0.5-0.2,0.8-0.5c0.3-0.3,0.6-0.9,1-1.7H169.2z M170.1,267.2c0,0.5-0.2,1-0.5,1.4c-0.3,0.4-0.7,0.6-1.1,0.6
			c-0.5,0-0.9-0.2-1.2-0.6c-0.3-0.4-0.5-0.8-0.5-1.4c0-0.5,0.2-0.9,0.5-1.3c0.3-0.4,0.7-0.6,1.2-0.6c0.3,0,0.6,0.1,0.8,0.3
			c0.2,0.2,0.4,0.4,0.6,0.7C170.1,266.5,170.1,266.8,170.1,267.2z"/>
		<path class="st0" d="M184.4,281.7c-0.2,0.5-0.6,1.1-1,1.7s-0.9,1.2-1.6,1.6c-0.6,0.5-1.3,0.7-2,0.7c-0.6,0-1.1-0.2-1.5-0.5
			c-0.4-0.4-0.5-0.8-0.5-1.4c0-0.4,0.1-1.1,0.3-1.8l0.9-3.5c0.3-1,0.4-1.6,0.4-2c0-0.2-0.1-0.4-0.2-0.6s-0.3-0.3-0.5-0.3
			c-0.5,0-1,0.4-1.7,1.3s-1.3,2.1-2,3.6c-0.7,1.5-1.3,3.2-1.8,5h-3l2.3-8.6c0.2-0.9,0.3-1.4,0.3-1.5c0-0.1,0-0.2-0.1-0.4
			c-0.1-0.1-0.1-0.2-0.3-0.2c-0.3,0-0.6,0.2-0.9,0.7s-0.6,1-0.8,1.6h-1.1c0.3-1,0.8-2,1.5-2.8c0.7-0.8,1.5-1.3,2.5-1.3
			c0.7,0,1.1,0.2,1.5,0.6s0.5,0.8,0.5,1.3c0,0.3,0,0.6-0.1,1.2c-0.1,0.5-0.2,1-0.3,1.5l-0.4,1.5c1-1.9,2-3.3,2.9-4.4
			c0.9-1.1,1.9-1.6,3-1.6c0.6,0,1.1,0.2,1.4,0.7s0.4,0.9,0.4,1.4c0,0.3-0.1,0.9-0.3,1.8l-1.3,5.1c-0.2,0.6-0.2,1.1-0.2,1.3
			c0,0.1,0,0.2,0.1,0.3s0.1,0.1,0.2,0.1c0.2,0,0.5-0.2,0.9-0.6c0.4-0.4,0.7-0.9,1-1.5H184.4z"/>
		<path class="st0" d="M196.6,275.5c0,0.4-0.1,0.9-0.3,1.4s-0.6,1.1-1.2,1.7s-1.4,1.1-2.4,1.6s-2.3,0.8-3.9,0.9l-0.3,0
			c-0.1,0.4-0.1,0.8-0.1,1.1c0,0.7,0.1,1.2,0.4,1.6c0.3,0.3,0.7,0.5,1.3,0.5c1.3,0,2.5-0.8,3.6-2.4h1.3c-0.5,0.9-1.3,1.8-2.4,2.8
			c-1.1,0.9-2.3,1.4-3.8,1.4c-1,0-1.9-0.3-2.6-0.9c-0.7-0.6-1.1-1.6-1.1-2.8c0-1.5,0.4-2.9,1.1-4.4c0.7-1.4,1.7-2.6,2.9-3.4
			s2.6-1.3,4-1.3c1.2,0,2,0.2,2.5,0.7C196.4,274.2,196.6,274.8,196.6,275.5z M194,275.5c0-0.3-0.1-0.6-0.3-0.9
			c-0.2-0.3-0.5-0.4-0.8-0.4c-0.6,0-1.1,0.2-1.6,0.7s-0.9,1-1.2,1.7s-0.6,1.3-0.8,2c-0.2,0.7-0.3,1.1-0.4,1.2c1.7-0.3,3-0.9,3.9-1.7
			S194,276.4,194,275.5z"/>
		<path class="st0" d="M38.4,304.5l-0.4,1.3c-0.6,0.1-1,0.4-1.4,0.7c-0.4,0.3-0.8,0.9-1.3,1.5c-0.2,0.2-0.5,0.7-0.9,1.3
			s-0.8,1.1-1.1,1.5c-0.3,0.4-0.5,0.7-0.7,1c-0.2,0.2-0.4,0.5-0.6,0.7c0.8,1.1,1.5,1.7,2.2,1.7c0.5,0,0.9-0.2,1.2-0.5
			c0.3-0.4,0.6-0.8,0.9-1.3h1.4c-0.2,0.7-0.6,1.4-1,2.1s-0.9,1.4-1.5,2c-0.6,0.6-1.3,0.9-2.1,0.9c-0.7,0-1.2-0.2-1.7-0.6
			c-0.5-0.4-1-1-1.5-1.8c0,0,0,0-0.1-0.1c0-0.1,0-0.1,0-0.1c-0.7,0.5-1.2,1-1.7,1.3c-0.5,0.3-1,0.6-1.6,0.9
			c-0.6,0.2-1.2,0.3-1.8,0.3c-0.6,0-1.1-0.1-1.6-0.4s-1-0.6-1.4-1c-0.4-0.4-0.7-1-0.9-1.6s-0.3-1.3-0.3-2c0-0.7,0.1-1.4,0.4-2.1
			s0.8-1.4,1.5-2.1c0.7-0.8,1.8-1.6,3.3-2.5c-0.3-1.3-0.4-2.5-0.4-3.5c0-1,0.2-2,0.5-2.7c0.4-0.8,0.8-1.4,1.5-1.9
			c0.6-0.5,1.3-0.7,2.1-0.7c0.7,0,1.3,0.2,1.8,0.5c0.5,0.3,0.9,0.8,1.1,1.3s0.4,1.1,0.4,1.7c0,0.8-0.2,1.6-0.6,2.2s-0.9,1.2-1.4,1.6
			s-1.2,0.9-2.1,1.5c0.7,2.1,1.7,4,2.8,5.9c0.6-0.7,1.2-1.5,1.7-2.4s0.8-1.6,0.8-2.2c0-0.7-0.3-1-1-1l0.4-1.3H38.4z M29.2,313.6
			c-1.4-2.3-2.4-4.5-3.1-6.7c-0.7,0.4-1.4,1-2,1.8s-0.9,1.6-0.9,2.5c0,0.6,0.1,1.2,0.4,1.8s0.7,1.1,1.1,1.5c0.5,0.4,1,0.6,1.6,0.6
			c0.5,0,0.9-0.1,1.4-0.4S28.7,314,29.2,313.6z M31.2,300.2c0-0.4-0.1-0.8-0.2-1.1c-0.2-0.3-0.4-0.5-0.6-0.7
			c-0.2-0.2-0.5-0.2-0.8-0.2c-0.5,0-1,0.3-1.4,0.8c-0.4,0.5-0.6,1.2-0.6,2.1c0,1,0.2,2.1,0.5,3.1c1.1-0.7,1.9-1.4,2.3-2
			C31,301.6,31.2,300.9,31.2,300.2z"/>
		<path class="st0" d="M62.3,307.6c0,0.6-0.1,1.1-0.4,1.5c-0.3,0.4-0.7,0.6-1.2,0.6c-0.4,0-0.7-0.1-0.9-0.4s-0.3-0.5-0.3-0.9
			c0-0.2,0-0.5,0.1-0.8c0.1-0.3,0.1-0.5,0.1-0.7c0-0.5-0.1-0.8-0.4-0.9c-0.3-0.2-0.5-0.2-0.8-0.2c-0.7,0-1.4,0.5-2.1,1.4
			c-0.6,0.9-1.1,2-1.5,3.3c-0.4,1.3-0.6,2.3-0.6,3.1c0,0.9,0.2,1.5,0.5,1.7s0.7,0.4,1.1,0.4c0.8,0,1.4-0.2,2.1-0.7
			c0.6-0.5,1.1-1,1.6-1.6H61c-0.6,1-1.4,2-2.5,2.8s-2.3,1.3-3.6,1.3c-1.2,0-2.1-0.3-2.7-1c-0.6-0.7-1-1.6-1-2.7c0-1.4,0.3-2.8,1-4.2
			c0.7-1.4,1.6-2.6,2.8-3.5c1.2-0.9,2.5-1.4,4-1.4c0.5,0,1,0.1,1.4,0.2c0.4,0.2,0.7,0.4,1,0.7c0.3,0.3,0.5,0.6,0.6,1
			S62.3,307.2,62.3,307.6z"/>
		<path class="st0" d="M74.9,309.7c0,1-0.2,1.9-0.5,2.9c-0.3,0.9-0.8,1.8-1.4,2.5s-1.4,1.3-2.2,1.7c-0.8,0.4-1.8,0.6-2.8,0.6
			c-1,0-1.8-0.2-2.6-0.7c-0.7-0.4-1.3-1.1-1.7-1.9c-0.4-0.8-0.6-1.7-0.6-2.7c0-1.3,0.3-2.5,0.9-3.7s1.5-2.1,2.5-2.8
			c1.1-0.7,2.2-1,3.5-1c1,0,1.9,0.2,2.7,0.7s1.3,1.1,1.7,1.9S74.9,308.8,74.9,309.7z M72,308.7c0-0.9-0.2-1.6-0.5-2.1
			c-0.3-0.5-0.8-0.8-1.5-0.8c-0.6,0-1.2,0.3-1.7,0.8c-0.5,0.5-0.9,1.2-1.2,2.1c-0.3,0.8-0.6,1.7-0.7,2.5c-0.2,0.8-0.3,1.6-0.3,2.2
			c0,0.8,0.2,1.5,0.5,2.1c0.3,0.5,0.8,0.8,1.4,0.8c0.7,0,1.3-0.3,1.8-0.8c0.5-0.5,0.9-1.2,1.3-2s0.6-1.7,0.7-2.5
			C71.9,309.9,72,309.2,72,308.7z"/>
		<path class="st0" d="M90.7,313.1c-0.2,0.5-0.6,1.1-1,1.7c-0.4,0.6-0.9,1.2-1.6,1.6c-0.6,0.5-1.3,0.7-2,0.7c-0.6,0-1.1-0.2-1.5-0.5
			s-0.5-0.8-0.5-1.4c0-0.4,0.1-1.1,0.3-1.8l0.9-3.5c0.3-1,0.4-1.6,0.4-2c0-0.2-0.1-0.4-0.2-0.6s-0.3-0.3-0.5-0.3
			c-0.5,0-1,0.4-1.7,1.3c-0.7,0.9-1.3,2.1-2,3.6s-1.3,3.2-1.8,5h-3l2.3-8.6c0.2-0.9,0.3-1.4,0.3-1.5c0-0.1,0-0.2-0.1-0.4
			c0-0.1-0.1-0.2-0.3-0.2c-0.3,0-0.6,0.2-0.9,0.7c-0.3,0.5-0.6,1-0.8,1.6h-1.1c0.3-1,0.8-2,1.5-2.8c0.7-0.8,1.5-1.3,2.5-1.3
			c0.7,0,1.1,0.2,1.5,0.6c0.3,0.4,0.5,0.8,0.5,1.3c0,0.3,0,0.6-0.1,1.2c-0.1,0.5-0.2,1-0.3,1.5l-0.4,1.5c1-1.9,2-3.3,2.9-4.4
			s1.9-1.6,3-1.6c0.6,0,1.1,0.2,1.4,0.7s0.4,0.9,0.4,1.4c0,0.3-0.1,0.9-0.3,1.8l-1.3,5.1c-0.2,0.6-0.2,1.1-0.2,1.3
			c0,0.1,0,0.2,0.1,0.3s0.1,0.1,0.2,0.1c0.2,0,0.5-0.2,0.9-0.6c0.4-0.4,0.7-0.9,1-1.5H90.7z"/>
		<path class="st0" d="M102.7,307c0,0.4-0.1,0.8-0.3,1.1c-0.2,0.3-0.5,0.5-0.9,0.5c-0.3,0-0.5-0.1-0.7-0.2c-0.2-0.1-0.3-0.3-0.4-0.6
			s-0.2-0.6-0.4-1.1c-0.1-0.3-0.2-0.6-0.4-0.8s-0.5-0.3-1-0.3c-0.4,0-0.8,0.1-1.2,0.4s-0.5,0.6-0.5,1c0,0.3,0.1,0.6,0.2,0.8
			s0.3,0.5,0.5,0.7c0.2,0.2,0.5,0.6,1,1c0.8,0.8,1.4,1.4,1.8,2c0.4,0.5,0.6,1.2,0.6,2c0,0.6-0.2,1.3-0.5,1.8s-0.8,1-1.6,1.4
			s-1.7,0.5-2.8,0.5c-1.7,0-2.8-0.4-3.5-1.1c-0.7-0.7-1-1.4-1-2.1c0-0.4,0.1-0.8,0.4-1.2s0.6-0.5,1-0.5c0.9,0,1.3,0.6,1.5,1.9
			c0.1,0.5,0.2,1,0.4,1.3c0.2,0.3,0.6,0.5,1.3,0.5c0.6,0,1-0.2,1.4-0.5s0.5-0.8,0.5-1.3c0-0.3-0.1-0.5-0.2-0.8
			c-0.1-0.3-0.4-0.6-0.8-1c-0.7-0.7-1.2-1.2-1.7-1.8c-0.4-0.5-0.8-1-1-1.5c-0.2-0.5-0.3-1-0.3-1.5c0-0.5,0.1-1,0.4-1.5
			c0.3-0.5,0.8-1,1.5-1.4c0.7-0.4,1.7-0.6,2.9-0.6c0.8,0,1.4,0.1,1.9,0.2c0.5,0.2,0.9,0.4,1.2,0.6c0.3,0.2,0.5,0.5,0.6,0.8
			C102.6,306.4,102.7,306.7,102.7,307z"/>
		<path class="st0" d="M115.3,309.7c0,1-0.2,1.9-0.5,2.9c-0.3,0.9-0.8,1.8-1.4,2.5s-1.4,1.3-2.2,1.7c-0.8,0.4-1.8,0.6-2.8,0.6
			c-1,0-1.8-0.2-2.6-0.7c-0.7-0.4-1.3-1.1-1.7-1.9c-0.4-0.8-0.6-1.7-0.6-2.7c0-1.3,0.3-2.5,0.9-3.7s1.5-2.1,2.5-2.8
			c1.1-0.7,2.2-1,3.5-1c1,0,1.9,0.2,2.7,0.7s1.3,1.1,1.7,1.9S115.3,308.8,115.3,309.7z M112.3,308.7c0-0.9-0.2-1.6-0.5-2.1
			c-0.3-0.5-0.8-0.8-1.5-0.8c-0.6,0-1.2,0.3-1.7,0.8c-0.5,0.5-0.9,1.2-1.2,2.1c-0.3,0.8-0.6,1.7-0.7,2.5c-0.2,0.8-0.3,1.6-0.3,2.2
			c0,0.8,0.2,1.5,0.5,2.1c0.3,0.5,0.8,0.8,1.4,0.8c0.7,0,1.3-0.3,1.8-0.8c0.5-0.5,0.9-1.2,1.3-2s0.6-1.7,0.7-2.5
			C112.2,309.9,112.3,309.2,112.3,308.7z"/>
		<path class="st0" d="M140.6,313.1c-1.3,2.7-2.8,4.1-4.6,4.1c-0.6,0-1.1-0.2-1.5-0.6c-0.4-0.4-0.5-0.9-0.5-1.4
			c0-0.4,0.1-0.9,0.3-1.6l1-3.7c0.2-0.8,0.3-1.4,0.3-1.7c0-0.4-0.1-0.6-0.3-0.8c-0.2-0.2-0.4-0.3-0.7-0.3c-0.7,0-1.5,0.5-2.3,1.4
			s-1.5,2.1-2.2,3.5c-0.7,1.5-1.2,2.9-1.6,4.3l-0.2,0.7h-3l1.9-7.4c0.2-0.6,0.2-1.1,0.2-1.4s-0.1-0.6-0.2-0.8
			c-0.1-0.2-0.4-0.3-0.7-0.3c-0.6,0-1.2,0.3-1.8,0.9s-1.2,1.3-1.8,2.3c-0.6,0.9-1.1,1.9-1.5,3c-0.5,1.1-0.8,2.2-1.1,3.3l-0.1,0.5h-3
			l2.2-8.4c0.2-0.9,0.4-1.5,0.4-1.7c0-0.2,0-0.3-0.1-0.4c-0.1-0.1-0.2-0.1-0.3-0.1c-0.1,0-0.3,0.1-0.5,0.2c-0.2,0.1-0.4,0.4-0.6,0.7
			s-0.5,0.8-0.7,1.4h-1.1c0.4-1.1,0.9-2,1.6-2.8c0.7-0.8,1.6-1.3,2.6-1.3c0.3,0,0.7,0.1,1,0.2s0.6,0.4,0.8,0.7
			c0.2,0.3,0.3,0.7,0.3,1.2c0,0.5-0.1,1.4-0.4,2.5l-0.4,1.4c0.5-0.9,1-1.8,1.5-2.5s1.1-1.4,1.7-1.9c0.6-0.5,1.1-0.9,1.7-1.2
			c0.5-0.2,1.1-0.4,1.6-0.4c0.7,0,1.3,0.2,1.7,0.6c0.4,0.4,0.7,1,0.7,1.7c0,0.5-0.1,1.3-0.4,2.3l-0.3,1.3c0.5-1,1.1-1.9,1.7-2.8
			s1.4-1.6,2.2-2.2c0.8-0.6,1.7-0.9,2.6-0.9c0.5,0,1,0.1,1.3,0.4c0.3,0.3,0.6,0.6,0.8,0.9c0.2,0.4,0.2,0.7,0.2,1.1
			c0,0.3,0,0.5-0.1,0.8c0,0.2-0.2,0.7-0.3,1.4l-1.2,4.5c-0.2,0.6-0.2,1-0.2,1.2c0,0.3,0.1,0.5,0.4,0.5c0.2,0,0.5-0.1,0.9-0.4
			s0.7-0.9,1.1-1.7H140.6z"/>
		<path class="st0" d="M164.9,313.1c-1.3,2.7-2.8,4.1-4.6,4.1c-0.6,0-1.1-0.2-1.5-0.6c-0.4-0.4-0.5-0.9-0.5-1.4
			c0-0.4,0.1-0.9,0.3-1.6l1-3.7c0.2-0.8,0.3-1.4,0.3-1.7c0-0.4-0.1-0.6-0.3-0.8s-0.4-0.3-0.7-0.3c-0.7,0-1.5,0.5-2.3,1.4
			c-0.8,0.9-1.5,2.1-2.2,3.5c-0.7,1.5-1.2,2.9-1.6,4.3l-0.2,0.7h-3l1.9-7.4c0.2-0.6,0.2-1.1,0.2-1.4s-0.1-0.6-0.2-0.8
			c-0.1-0.2-0.4-0.3-0.7-0.3c-0.6,0-1.2,0.3-1.8,0.9s-1.2,1.3-1.8,2.3s-1.1,1.9-1.5,3c-0.5,1.1-0.8,2.2-1.1,3.3l-0.1,0.5h-3l2.2-8.4
			c0.2-0.9,0.4-1.5,0.4-1.7c0-0.2,0-0.3-0.1-0.4c-0.1-0.1-0.2-0.1-0.3-0.1c-0.1,0-0.3,0.1-0.5,0.2c-0.2,0.1-0.4,0.4-0.6,0.7
			s-0.5,0.8-0.7,1.4h-1.1c0.4-1.1,0.9-2,1.6-2.8c0.7-0.8,1.6-1.3,2.6-1.3c0.3,0,0.7,0.1,1,0.2c0.3,0.1,0.6,0.4,0.8,0.7
			c0.2,0.3,0.3,0.7,0.3,1.2c0,0.5-0.1,1.4-0.4,2.5l-0.4,1.4c0.5-0.9,1-1.8,1.5-2.5s1.1-1.4,1.7-1.9c0.6-0.5,1.1-0.9,1.7-1.2
			c0.5-0.2,1.1-0.4,1.6-0.4c0.7,0,1.3,0.2,1.7,0.6c0.4,0.4,0.7,1,0.7,1.7c0,0.5-0.1,1.3-0.4,2.3l-0.3,1.3c0.5-1,1.1-1.9,1.7-2.8
			s1.4-1.6,2.2-2.2c0.8-0.6,1.7-0.9,2.6-0.9c0.5,0,1,0.1,1.3,0.4s0.6,0.6,0.8,0.9c0.2,0.4,0.2,0.7,0.2,1.1c0,0.3,0,0.5-0.1,0.8
			c0,0.2-0.2,0.7-0.3,1.4l-1.2,4.5c-0.2,0.6-0.2,1-0.2,1.2c0,0.3,0.1,0.5,0.4,0.5c0.2,0,0.5-0.1,0.9-0.4s0.7-0.9,1.1-1.7H164.9z"/>
		<path class="st0" d="M177.1,306.9c0,0.4-0.1,0.9-0.3,1.4s-0.6,1.1-1.2,1.7s-1.4,1.1-2.4,1.6s-2.3,0.8-3.9,0.9l-0.3,0
			c-0.1,0.4-0.1,0.8-0.1,1.1c0,0.7,0.1,1.2,0.4,1.6c0.3,0.3,0.7,0.5,1.3,0.5c1.3,0,2.5-0.8,3.6-2.4h1.3c-0.5,0.9-1.3,1.8-2.4,2.8
			c-1.1,0.9-2.3,1.4-3.8,1.4c-1,0-1.9-0.3-2.6-0.9c-0.7-0.6-1.1-1.6-1.1-2.8c0-1.5,0.4-2.9,1.1-4.4c0.7-1.4,1.7-2.6,2.9-3.4
			s2.6-1.3,4-1.3c1.2,0,2,0.2,2.5,0.7C176.9,305.7,177.1,306.2,177.1,306.9z M174.5,306.9c0-0.3-0.1-0.6-0.3-0.9
			c-0.2-0.3-0.5-0.4-0.8-0.4c-0.6,0-1.1,0.2-1.6,0.7s-0.9,1-1.2,1.7s-0.6,1.3-0.8,2c-0.2,0.7-0.3,1.1-0.4,1.2c1.7-0.3,3-0.9,3.9-1.7
			S174.5,307.8,174.5,306.9z"/>
		<path class="st0" d="M184.5,306.2c0,2.3-0.3,4.5-0.9,6.5c-0.6,2-1.4,3.7-2.3,5.2c-0.9,1.5-1.8,2.7-2.7,3.6c-0.9,1-1.8,1.9-2.8,2.8
			l-0.9-1c0.8-0.9,1.5-1.7,2.1-2.4s1.1-1.7,1.7-2.9c0.6-1.2,1.2-2.7,1.7-4.5c0.6-2,1.1-3.9,1.4-5.7c0.3-1.8,0.5-3.6,0.5-5.4
			c0-0.7-0.1-1.5-0.2-2.5s-0.3-1.8-0.5-2.6l1.1-0.5c0.1,0.3,0.3,0.8,0.5,1.4c0.2,0.6,0.4,1.4,0.5,2.2c0.2,0.8,0.3,1.7,0.5,2.8
			C184.4,304.1,184.5,305.1,184.5,306.2z"/>
	</g>
	<g>
		<path class="st0" d="M7.1,239.5c5.6-1.4,6.1-1.5,6.5-1.9c0.2-0.1,0.3-0.2,0.5-0.2c0.3,0,0.8,0.4,1.3,1c0.5,0.6,0.8,1.1,0.8,1.3
			c0,0.3,0,0.3-0.5,0.7c-0.2,0.2-0.3,0.2-1.2,1.6c-0.6,0.8-1.9,2.3-2.7,2.9c-0.2,0.2-0.4,0.3-0.5,0.3c-0.1,0-0.2,0-0.3-0.2
			c-0.4-0.5-0.8-0.7-1.6-1.1c1.7-1.2,3.1-2.7,3.6-3.7l-0.8,0.2c-0.1,0-1.8,0.5-5.1,1.4v3.6c0,1.1,0.2,1.6,0.8,1.8
			c0.6,0.2,1.4,0.3,2.6,0.3c1,0,2.4-0.1,3.6-0.3c0.4,0,0.5-0.1,0.6-0.1c0.4,0,0.5,0.3,0.6,1.9c0,0,0,0.1,0,0.1c0,0,0,0.1,0,0.1
			c0,0.2-0.1,0.4-0.2,0.5c-0.2,0.1-1.7,0.2-3.7,0.2c-2.5,0-3.8-0.2-4.8-0.6c-1.2-0.5-1.8-1.7-1.8-3.2v-3.6c-2.3,0.7-2.6,0.8-3.3,1.1
			c-0.1,0.1-0.2,0.1-0.3,0.1c-0.4,0-0.8-0.9-1.2-2.5c1.3-0.1,2.8-0.4,4.8-0.9v-1.9c0-1.7,0-2.6-0.2-3.5c0.9,0,2,0.1,2.6,0.3
			c0.2,0,0.3,0.1,0.3,0.3c0,0.1,0,0.1-0.2,0.5c-0.1,0.3-0.2,0.9-0.2,2V239.5z M14.9,237.1c-0.5-0.8-0.8-1.3-1.5-2
			c-0.1-0.1-0.1-0.1-0.1-0.2c0-0.1,0.1-0.2,0.5-0.5c0.3-0.2,0.5-0.3,0.6-0.3c0.2,0,0.4,0.2,0.9,0.7c0.6,0.7,1.1,1.3,1.1,1.5
			c0,0.2-0.9,0.9-1.2,0.9C15.1,237.2,15,237.2,14.9,237.1z M17.7,235.6c-0.3,0.2-0.4,0.3-0.5,0.3c-0.1,0-0.1,0-0.2-0.2
			c-0.5-0.9-0.9-1.3-1.5-1.9c-0.1-0.1-0.1-0.1-0.1-0.2c0-0.2,0.8-0.7,1-0.7c0.1,0,0.2,0.1,0.4,0.2c0.6,0.5,1.5,1.7,1.5,1.9
			C18.3,235.1,18.2,235.3,17.7,235.6z"/>
		<path class="st0" d="M21,241.8c0,0-0.1,0-0.2,0c-0.4,0-0.6-0.7-0.8-2.7c1,0.2,2.3,0.2,6,0.2c4,0,5,0,5.4,0c0.3,0,0.4,0,0.8-0.2
			c0.1-0.1,0.3-0.1,0.4-0.1c0.3,0,0.5,0.1,0.9,0.5c0.5,0.6,0.9,1.2,0.9,1.4c0,0.2-0.1,0.4-0.3,0.6c-0.2,0.1-0.3,0.3-0.6,1.2
			c-1.3,2.9-2.8,4.7-5.2,6.2c-1.1,0.7-2.8,1.5-3.2,1.5c-0.3,0-0.4-0.1-0.8-0.5c-0.5-0.6-0.8-0.8-1.3-1.1c2.3-0.7,4.3-1.8,5.8-3.2
			c1.1-1.1,1.9-2.5,2.5-4.2C23.8,241.5,22.4,241.5,21,241.8z M27.5,234.7c2.1,0,2.1,0,4.4-0.2c0.1,0,0.1,0,0.2,0
			c0.3,0,0.4,0.2,0.4,0.8c0,0.2,0,0.5,0,0.7c0,0,0,0.1,0,0.1c0,0.7-0.1,0.9-0.3,0.9c-0.1,0-0.2,0-0.4,0c-0.4,0-1.9-0.1-2.5-0.1
			c-3,0-5.1,0-6.3,0.1c-0.1,0-0.1,0-0.2,0c-0.5,0-0.6-0.3-0.7-2.5C23.3,234.7,24.6,234.7,27.5,234.7z"/>
		<path class="st0" d="M45.3,240.9c0-0.5,0-0.7,0-1.5c0-0.2,0-0.7,0-1.6c-1.4,0.3-3.9,0.7-4.4,0.7c-0.2,0-0.3-0.1-0.4-0.3
			c-0.1-0.3-0.4-0.8-0.6-1.1c0,0-0.2-0.2-0.5-0.6c2.6,0,5.2-0.4,7.7-1.2c1.1-0.4,1.8-0.7,2.7-1.2c0.9,0.8,1.6,1.7,1.6,2
			c0,0.2-0.1,0.3-0.4,0.3c-0.4,0-0.6,0.1-1.1,0.3c-1,0.3-1.2,0.4-2.2,0.7c0,0.8,0,0.9,0,2c0,1,0,1.1,0,1.7c3,0,5.2-0.1,5.8-0.2
			c0.1,0,0.1,0,0.2,0c0.3,0,0.3,0.2,0.3,1.1c0,1.3,0,1.3-0.3,1.3c0,0-0.7,0-0.9-0.1c-0.8-0.1-2-0.1-5.2-0.1c-0.2,2-0.8,3.7-1.7,5.1
			c-0.6,0.9-1.6,2-2.3,2.6c-0.1,0.1-0.2,0.1-0.3,0.1c-0.2,0-0.2,0-0.8-0.4c-0.4-0.3-0.9-0.5-1.6-0.7c1.5-0.9,2.4-1.8,3.2-3.1
			c0.6-1,1-2.3,1.2-3.5c-3.7,0-5.2,0.1-6.1,0.3c-0.2,0-0.3,0-0.4,0c-0.2,0-0.3-0.1-0.3-0.2c-0.1-0.5-0.2-1.3-0.3-2.3
			c0.9,0.1,2.1,0.1,4.7,0.1h0.6L45.3,240.9z"/>
		<path class="st0" d="M72.3,239.5c0.1,0.2,0.1,0.3,0.1,0.5c0,0.2-0.1,0.3-0.3,0.7c-1.1,1.4-2.3,2.6-4,4c-2,1.6-3.7,2.6-6.1,3.7
			c-1.5,0.7-1.6,0.8-1.8,1c-0.2,0.2-0.2,0.2-0.4,0.2c-0.2,0-0.3-0.2-0.6-0.6c-0.4-0.6-0.8-1.4-1-2.1c2-0.5,4.4-1.5,6.7-3
			c3.1-1.9,5-3.9,6.5-6.5C71.6,238.1,71.8,238.5,72.3,239.5z M59.1,236.2c0.3-0.4,0.5-0.5,0.7-0.5c0.4,0,1.9,1,3.1,2
			c0.8,0.6,1,0.9,1,1.1c0,0.1-0.4,0.7-0.8,1.2c-0.4,0.5-0.7,0.7-0.8,0.7c-0.1,0-0.1,0-1-0.8c-0.5-0.5-1.6-1.3-2.1-1.7
			c-0.7-0.5-0.7-0.5-0.8-0.5c-0.1-0.1-0.1-0.1-0.1-0.2C58.2,237.3,58.6,236.8,59.1,236.2z"/>
		<path class="st0" d="M75.2,246.1c0.4-0.3,0.5-0.4,0.6-0.4c0.3,0,1.5,0.9,2.3,1.7c1,0.9,2.1,2.3,2.1,2.5c0,0.2,0,0.2-0.6,0.7
			c-0.8,0.7-0.9,0.8-1.1,0.8c-0.1,0-0.2-0.1-0.3-0.3c-0.7-1.2-2.3-2.9-3.7-3.8c-0.2-0.1-0.2-0.2-0.2-0.3
			C74.3,247,74.3,246.9,75.2,246.1z"/>
		<path class="st0" d="M106.1,238.9c-0.8,0-1.3,0-1.8,0c-3.6,0-7.3,0.1-7.8,0.2c-0.1,0-0.2,0-0.2,0l-0.1,0l-0.1,0
			c-0.2-0.1-0.2-0.1-0.3-0.2c-0.1-0.5-0.1-1-0.2-2.5c1.2,0.1,2.6,0.2,5.3,0.2c5.2,0,5.6,0,7.6-0.1c-0.1,1.9-0.1,3.1-0.1,6.4
			c0,1.2,0.1,4.7,0.1,5.4c0,0.3,0,0.3,0,0.4c0,0.3-0.1,0.4-0.2,0.5c-0.1,0-1,0.1-1.5,0.1c-0.8,0-0.8,0-0.8-0.5c0-0.1,0-0.1,0-0.9
			c-0.5,0-0.8,0-1,0h-1c-2.2,0-6.2,0.1-6.9,0.1c-0.5,0-0.8,0.1-1.1,0.1c-0.1,0-0.1,0-0.2,0c-0.2,0-0.3-0.1-0.4-0.5
			c-0.1-0.4-0.1-1.1-0.2-2.2c1.3,0.1,2.6,0.2,5.8,0.2c2.1,0,2.1,0,5,0V238.9z"/>
		<path class="st0" d="M128.4,239.5c0.1,0.2,0.1,0.3,0.1,0.5c0,0.2-0.1,0.3-0.3,0.7c-1.1,1.4-2.3,2.6-4,4c-2,1.6-3.7,2.6-6.1,3.7
			c-1.5,0.7-1.6,0.8-1.8,1c-0.2,0.2-0.2,0.2-0.4,0.2c-0.2,0-0.3-0.2-0.6-0.6c-0.4-0.6-0.8-1.4-1-2.1c2-0.5,4.4-1.5,6.7-3
			c3.1-1.9,5-3.9,6.5-6.5C127.7,238.1,127.9,238.5,128.4,239.5z M115.2,236.2c0.3-0.4,0.5-0.5,0.7-0.5c0.4,0,1.9,1,3.1,2
			c0.8,0.6,1,0.9,1,1.1c0,0.1-0.4,0.7-0.8,1.2c-0.4,0.5-0.7,0.7-0.8,0.7c-0.1,0-0.1,0-1-0.8c-0.5-0.5-1.6-1.3-2.1-1.7
			c-0.7-0.5-0.7-0.5-0.8-0.5c-0.1-0.1-0.1-0.1-0.1-0.2C114.3,237.3,114.7,236.8,115.2,236.2z"/>
		<path class="st0" d="M134.5,240.5c-0.6-1.2-1.4-2.6-2-3.3c-0.1-0.1-0.1-0.2-0.1-0.3c0-0.1,0.3-0.4,1-0.8c0.5-0.3,0.8-0.5,1-0.5
			c0.1,0,0.2,0.1,0.3,0.3c1,1.3,2.6,4,2.6,4.4c0,0.1-0.1,0.2-0.3,0.4c-0.5,0.3-1.5,0.9-1.7,0.9C135,241.6,135,241.6,134.5,240.5z
			 M146.9,236.7c0,0.1,0,0.2-0.2,0.5c-0.2,0.4-0.3,0.7-0.7,1.5c-0.7,1.9-1.1,2.8-1.6,3.9c-1.3,2.5-2.8,4.4-5,6.3
			c-1,0.8-2,1.5-2.3,1.5c-0.2,0-0.2,0-0.7-0.4c-0.3-0.3-0.9-0.6-1.6-0.9c4.1-2.3,6.8-5.4,8.3-9.9c0.5-1.4,0.8-2.6,0.8-3.7
			C146.3,236.1,146.9,236.3,146.9,236.7z"/>
		<path class="st0" d="M160.9,236.3c0.2-0.6,0.3-1,0.4-1.7c1.7,0.6,2.8,1.2,2.8,1.6c0,0.1,0,0.2-0.2,0.3c-0.4,0.4-0.7,0.9-1,1.5
			c-1,2.1-1.5,3-2.5,4.5c0.9,0.7,1.8,1.6,2.5,2.4c0.2,0.2,0.3,0.3,0.3,0.5c0,0.2-0.2,0.6-0.8,1.2c-0.4,0.5-0.7,0.7-0.8,0.7
			c-0.1,0-0.2-0.1-0.4-0.2c-1.2-1.4-1.3-1.5-2.2-2.4c-1.7,2.1-3.6,4-5.5,5.2c-0.6,0.4-1,0.6-1.2,0.6c-0.2,0-0.2,0-0.7-0.5
			c-0.3-0.3-0.8-0.7-1.4-1c2.7-1.4,5-3.3,7-5.9c-0.9-0.8-1.4-1.1-3.1-2.2c-0.4-0.2-0.4-0.3-0.4-0.4c0-0.2,0.2-0.6,0.9-1.3
			c0.2-0.3,0.4-0.4,0.5-0.4c0.3,0,1.6,0.9,3.5,2.3C159.6,239.3,160.3,237.8,160.9,236.3z"/>
		<path class="st0" d="M173.3,238.4c-1.7,1.1-2.8,1.8-4.3,2.5c-0.4-0.8-0.6-1.2-1.3-1.9c1.8-0.7,3.4-1.5,4.8-2.5
			c1.2-0.9,2.2-1.8,3.1-2.9h2.2c1.1,1.3,2,2.1,3.6,3.1c1.5,1,2.8,1.6,4.6,2.2c-0.6,0.7-0.7,1-1.2,2c-1.8-0.8-2.8-1.3-4.4-2.4v1.1
			c-0.5-0.1-0.9-0.1-1.6-0.1h-4c-0.7,0-1.1,0-1.6,0.1V238.4z M182,244.4c0.7,0,1.1,0,1.5-0.1c-0.1,0.5-0.1,0.9-0.1,1.6v3.7
			c0,0.6,0,1.1,0.1,1.6h-2.2v-0.8h-8.8v0.8h-2.2c0.1-0.6,0.1-1,0.1-1.7v-3.7c0-0.6,0-1-0.1-1.5c0.5,0,1,0.1,1.6,0.1h5.4l2.4-2.1
			h-7.5c-0.8,0-1.3,0-1.9,0.1v-1.9c0.4,0.1,0.9,0.1,1.5,0.1h8.5c0.9,0,1.3,0,1.7-0.1l1.2,1.1c-0.1,0.1-0.1,0.1-0.7,0.7l-2.3,2.1H182
			z M172.5,248.6h8.8v-2.3h-8.8V248.6z M179,237.8c0.2,0,0.3,0,0.6,0c-1-0.8-1.9-1.6-2.8-2.5c-1,1.1-1.8,1.9-2.6,2.5
			c0.3,0,0.4,0,0.7,0H179z"/>
		<path class="st0" d="M191.3,236.3c0-0.8-0.1-1.6-0.2-2.3c1,0,1.7,0.1,2.2,0.2c0.4,0.1,0.5,0.2,0.5,0.4c0,0.1,0,0.2-0.1,0.4
			c-0.2,0.4-0.2,0.6-0.3,1.6c0.9-0.1,1.7-0.3,2.6-0.5c0.1,0,0.2,0,0.2,0c0.1,0,0.2,0,0.2,0.2c0.1,0.2,0.2,1,0.2,1.4
			c0,0.3-0.1,0.4-0.2,0.5c-0.4,0.2-1.9,0.4-3.1,0.5c0,1.1-0.1,1.7-0.1,3.2c0.2,0.8,0.3,1.1,0.3,1.7c0,1.5-0.3,2.2-1.3,3.2
			c-0.1,0.2-0.2,0.4-0.2,0.6c0,0.3,0.1,0.6,0.2,0.7c0.3,0.3,1.2,0.5,2.7,0.5c1.7,0,3.1-0.2,3.7-0.6c0.5-0.3,0.7-0.9,0.7-1.8
			c0-0.6-0.1-1-0.2-1.8c1.1,0.5,1.2,0.5,2,0.6c0.2,0,0.3,0.1,0.4,0.2c0.1,0.1,0.2,0.8,0.2,1.4c0,1.4-0.3,2.3-1,3
			c-0.5,0.5-1.4,0.9-2.3,1c-0.8,0.1-2.2,0.2-3.2,0.2c-2,0-3.6-0.3-4.3-0.8c-0.7-0.5-0.9-1-0.9-1.8c0-0.4,0-0.8,0.1-1.2
			c-1.4,0-2.4-1.3-2.4-3.2c0-2,1.1-3.4,2.7-3.4c0.3,0,0.5,0,0.7,0.1c0-0.6,0-1.1,0-1.5c-0.6,0.1-1.8,0.1-2.7,0.1
			c-0.6,0-0.8-0.1-0.9-0.3c-0.1-0.2-0.2-0.8-0.2-1.4c0-0.1,0-0.3,0-0.5c0.6,0.1,0.9,0.1,1.6,0.1c0.7,0,1.5,0,2.2-0.1
			C191.3,236.6,191.3,236.5,191.3,236.3z M189.7,243.6c0,0.8,0.4,1.4,0.9,1.4c0.6,0,1-0.6,1-1.5c0-0.9-0.3-1.3-0.9-1.3
			C190.1,242.2,189.7,242.7,189.7,243.6z M199.5,237.7c0.3-0.4,0.3-0.4,0.5-0.4c0.2,0,0.9,0.3,1.4,0.5c1,0.5,2.2,1.5,2.9,2.4
			c0.1,0.1,0.2,0.2,0.2,0.3c0,0.2-0.1,0.4-0.5,0.9c-0.4,0.5-0.7,0.7-0.8,0.7c-0.1,0-0.2-0.1-0.4-0.2c-1.1-1.3-2.1-2.2-3.6-2.9
			c-0.1-0.1-0.2-0.1-0.2-0.2C198.8,238.6,199.2,238.1,199.5,237.7z"/>
	</g>
	<g>
		<path class="st0" d="M318.5,266.3c-0.9,1-1.7,1.8-2.2,2.5s-1.1,1.6-1.7,2.8s-1.2,2.7-1.7,4.5c-0.4,1.3-0.7,2.5-1,3.7
			c-0.3,1.2-0.5,2.4-0.7,3.6c-0.2,1.2-0.3,2.5-0.3,3.7c0,1.9,0.2,3.6,0.7,5.1l-1.1,0.5c-0.2-0.6-0.4-1.4-0.7-2.3
			c-0.2-0.9-0.5-2-0.7-3.3s-0.3-2.6-0.3-3.9c0-2.4,0.3-4.5,0.9-6.5c0.6-2,1.4-3.7,2.3-5.1c0.9-1.5,1.8-2.7,2.7-3.7
			c0.9-1,1.8-1.9,2.8-2.8L318.5,266.3z"/>
		<path class="st0" d="M325.2,282c-0.3,0.8-0.8,1.7-1.5,2.6c-0.7,0.9-1.6,1.3-2.6,1.3c-0.7,0-1.2-0.2-1.6-0.6
			c-0.4-0.4-0.5-0.9-0.5-1.4c0-0.6,0.2-1.4,0.5-2.4l1.6-5.2c0.2-0.5,0.2-0.8,0.2-1c0-0.1,0-0.2-0.1-0.3c-0.1-0.1-0.2-0.1-0.3-0.1
			c-0.3,0-0.6,0.3-0.9,0.8c-0.3,0.5-0.6,1-0.8,1.4h-1.1c0.5-1.3,1.1-2.3,1.9-3c0.8-0.7,1.6-1.1,2.4-1.1c0.6,0,1,0.2,1.4,0.5
			c0.4,0.3,0.5,0.7,0.5,1.3c0,0.6-0.1,1.1-0.3,1.7l-2,6.1c-0.1,0.4-0.2,0.8-0.2,1c0,0.1,0,0.2,0.1,0.3c0.1,0.1,0.2,0.2,0.3,0.2
			c0.3,0,0.5-0.2,0.8-0.5c0.3-0.3,0.6-0.9,1-1.7H325.2z M326.1,267.2c0,0.5-0.2,1-0.5,1.4c-0.3,0.4-0.7,0.6-1.1,0.6
			c-0.5,0-0.9-0.2-1.2-0.6c-0.3-0.4-0.5-0.8-0.5-1.4c0-0.5,0.2-0.9,0.5-1.3c0.3-0.4,0.7-0.6,1.2-0.6c0.3,0,0.6,0.1,0.8,0.3
			c0.2,0.2,0.4,0.4,0.6,0.7C326.1,266.5,326.1,266.8,326.1,267.2z"/>
		<path class="st0" d="M340.4,281.7c-0.2,0.5-0.6,1.1-1,1.7c-0.4,0.6-0.9,1.2-1.6,1.6c-0.6,0.5-1.3,0.7-2,0.7
			c-0.6,0-1.1-0.2-1.5-0.5c-0.4-0.4-0.5-0.8-0.5-1.4c0-0.4,0.1-1.1,0.3-1.8l0.9-3.5c0.3-1,0.4-1.6,0.4-2c0-0.2-0.1-0.4-0.2-0.6
			c-0.1-0.2-0.3-0.3-0.5-0.3c-0.5,0-1,0.4-1.7,1.3s-1.3,2.1-2,3.6c-0.7,1.5-1.3,3.2-1.8,5h-3l2.3-8.6c0.2-0.9,0.3-1.4,0.3-1.5
			c0-0.1,0-0.2-0.1-0.4c-0.1-0.1-0.1-0.2-0.3-0.2c-0.3,0-0.6,0.2-0.9,0.7s-0.6,1-0.8,1.6h-1.1c0.3-1,0.8-2,1.5-2.8
			c0.7-0.8,1.5-1.3,2.5-1.3c0.7,0,1.1,0.2,1.5,0.6s0.5,0.8,0.5,1.3c0,0.3,0,0.6-0.1,1.2c-0.1,0.5-0.2,1-0.3,1.5l-0.4,1.5
			c1-1.9,2-3.3,2.9-4.4c0.9-1.1,1.9-1.6,3-1.6c0.6,0,1.1,0.2,1.4,0.7s0.4,0.9,0.4,1.4c0,0.3-0.1,0.9-0.3,1.8l-1.3,5.1
			c-0.2,0.6-0.2,1.1-0.2,1.3c0,0.1,0,0.2,0.1,0.3s0.1,0.1,0.2,0.1c0.2,0,0.5-0.2,0.9-0.6c0.4-0.4,0.7-0.9,1-1.5H340.4z"/>
		<path class="st0" d="M352.4,276.1c0,0.6-0.1,1.1-0.4,1.5c-0.3,0.4-0.7,0.6-1.2,0.6c-0.4,0-0.7-0.1-0.9-0.4s-0.3-0.5-0.3-0.9
			c0-0.2,0-0.5,0.1-0.8c0.1-0.3,0.1-0.5,0.1-0.7c0-0.5-0.1-0.8-0.4-0.9c-0.3-0.2-0.5-0.2-0.8-0.2c-0.7,0-1.4,0.5-2.1,1.4
			c-0.6,0.9-1.1,2-1.5,3.3c-0.4,1.3-0.6,2.3-0.6,3.1c0,0.9,0.2,1.5,0.5,1.7s0.7,0.4,1.1,0.4c0.8,0,1.4-0.2,2.1-0.7
			c0.6-0.5,1.1-1,1.6-1.6h1.4c-0.6,1-1.4,2-2.5,2.8c-1.1,0.8-2.3,1.3-3.6,1.3c-1.2,0-2.1-0.3-2.7-1c-0.6-0.7-1-1.6-1-2.7
			c0-1.4,0.3-2.8,1-4.2c0.7-1.4,1.6-2.6,2.8-3.5c1.2-0.9,2.5-1.4,4-1.4c0.5,0,1,0.1,1.4,0.2c0.4,0.2,0.7,0.4,1,0.7
			c0.3,0.3,0.5,0.6,0.6,1C352.3,275.4,352.4,275.8,352.4,276.1z"/>
		<path class="st0" d="M360.9,265.3l-4.4,16.8c-0.2,0.8-0.3,1.3-0.3,1.6c0,0.2,0,0.3,0.1,0.4c0.1,0.1,0.2,0.1,0.3,0.1
			c0.2,0,0.5-0.2,0.9-0.7c0.4-0.5,0.7-1,0.9-1.6h1.2c-0.4,0.9-1,1.8-1.7,2.7c-0.7,0.9-1.5,1.3-2.6,1.3c-0.6,0-1.1-0.2-1.5-0.6
			c-0.4-0.4-0.6-0.9-0.6-1.5c0-0.4,0.1-1.2,0.4-2.2l3.2-12.2c0.2-0.8,0.3-1.3,0.3-1.6c0-0.3-0.1-0.6-0.4-0.7s-0.7-0.2-1.3-0.2
			l0.3-1.3h1.3c0.6,0,1.1,0,1.6-0.1c0.5,0,0.9-0.1,1.4-0.3H360.9z"/>
		<path class="st0" d="M374.4,281.8c-0.3,1-0.8,1.9-1.5,2.8c-0.7,0.9-1.5,1.3-2.6,1.3c-0.7,0-1.2-0.2-1.5-0.6s-0.4-0.9-0.4-1.5
			c0-0.2,0-0.6,0.1-1s0.2-0.8,0.3-1.3l0.4-1.7c-0.9,1.7-1.8,3.1-2.8,4.3s-2,1.8-3.2,1.8c-0.6,0-1.1-0.2-1.4-0.6s-0.5-0.9-0.5-1.4
			c0-0.5,0.1-1.2,0.4-2.1l1.3-4.8c0.2-0.6,0.3-1,0.3-1.3c0-0.1,0-0.2-0.1-0.4c-0.1-0.1-0.2-0.2-0.3-0.2c-0.5,0-1.1,0.7-1.9,2.1h-1.2
			c0.6-1.1,1.2-2,1.9-2.8s1.6-1.2,2.6-1.2c0.5,0,0.9,0.1,1.3,0.4c0.4,0.3,0.6,0.9,0.6,1.7c0,0.5-0.1,0.9-0.2,1.3l-1,3.9
			c-0.2,0.9-0.4,1.5-0.4,1.9c0,0.2,0.1,0.4,0.2,0.6s0.3,0.3,0.5,0.3c0.4,0,0.9-0.3,1.5-1c0.6-0.7,1.2-1.8,1.9-3.3
			c0.7-1.5,1.4-3.3,2-5.6h3l-2.4,8.9c-0.2,0.6-0.2,1-0.2,1.1c0,0.1,0,0.2,0.1,0.4c0.1,0.1,0.2,0.2,0.3,0.2c0.3,0,0.6-0.2,0.9-0.7
			c0.3-0.5,0.5-1,0.8-1.6H374.4z"/>
		<path class="st0" d="M390.6,265.3l-4.5,16.9c-0.2,0.8-0.3,1.2-0.3,1.5c0,0.3,0.1,0.5,0.4,0.5c0.3,0,0.6-0.2,0.9-0.5
			c0.3-0.4,0.6-0.9,0.9-1.5h1.2c-0.1,0.4-0.4,0.9-0.8,1.5s-0.9,1.1-1.4,1.6s-1.2,0.7-1.9,0.7c-1.5,0-2.2-0.9-2.2-2.7
			c0-0.1,0-0.1,0-0.2s0-0.1,0-0.2c-0.3,0.5-0.7,1-1.2,1.5c-0.5,0.5-1,0.9-1.6,1.2c-0.6,0.3-1.2,0.5-1.8,0.5c-0.9,0-1.6-0.3-2.1-1
			c-0.5-0.7-0.7-1.5-0.7-2.5c0-1.1,0.2-2.2,0.6-3.3s0.9-2.1,1.5-3c0.6-0.9,1.4-1.6,2.3-2.2c0.9-0.5,1.7-0.8,2.7-0.8
			c0.7,0,1.2,0.1,1.6,0.4s0.7,0.7,0.9,1.1l1.5-5.7c0.2-0.5,0.3-0.9,0.3-1.1c0-0.3-0.1-0.5-0.2-0.6s-0.3-0.2-0.5-0.2s-0.6,0-1,0
			l0.3-1.3c0.9,0,1.5,0,2-0.1s0.9,0,1.2-0.1s0.7-0.1,1.1-0.2H390.6z M384.4,276.4c0-0.6-0.1-1.2-0.4-1.6c-0.3-0.4-0.7-0.6-1.1-0.6
			c-0.7,0-1.4,0.4-2.1,1.3c-0.7,0.9-1.2,1.9-1.6,3.1c-0.4,1.2-0.6,2.3-0.6,3.2c0,0.7,0.1,1.1,0.4,1.4s0.6,0.4,1,0.4
			c0.6,0,1.1-0.2,1.7-0.7c0.5-0.5,1-1.1,1.5-1.9c0.4-0.7,0.7-1.5,1-2.4S384.4,277.1,384.4,276.4z"/>
		<path class="st0" d="M401.6,275.5c0,0.4-0.1,0.9-0.3,1.4s-0.6,1.1-1.2,1.7s-1.4,1.1-2.4,1.6s-2.3,0.8-3.9,0.9l-0.3,0
			c-0.1,0.4-0.1,0.8-0.1,1.1c0,0.7,0.1,1.2,0.4,1.6c0.3,0.3,0.7,0.5,1.3,0.5c1.3,0,2.5-0.8,3.6-2.4h1.3c-0.5,0.9-1.3,1.8-2.4,2.8
			c-1.1,0.9-2.3,1.4-3.8,1.4c-1,0-1.9-0.3-2.6-0.9c-0.7-0.6-1.1-1.6-1.1-2.8c0-1.5,0.4-2.9,1.1-4.4c0.7-1.4,1.7-2.6,2.9-3.4
			s2.6-1.3,4-1.3c1.2,0,2,0.2,2.5,0.7C401.4,274.2,401.6,274.8,401.6,275.5z M398.9,275.5c0-0.3-0.1-0.6-0.3-0.9
			c-0.2-0.3-0.5-0.4-0.8-0.4c-0.6,0-1.1,0.2-1.6,0.7s-0.9,1-1.2,1.7c-0.3,0.6-0.6,1.3-0.8,2c-0.2,0.7-0.3,1.1-0.4,1.2
			c1.7-0.3,3-0.9,3.9-1.7S398.9,276.4,398.9,275.5z"/>
		<path class="st0" d="M294.5,308.8c0,1-0.2,2-0.6,3s-0.9,1.9-1.7,2.8c-0.7,0.8-1.5,1.5-2.5,2c-0.9,0.5-1.9,0.7-2.9,0.7
			c-1.4,0-2.4-0.4-3.2-1.2c-0.7-0.8-1.1-1.7-1.1-2.8c0-0.7,0.2-1.6,0.5-2.8l2.8-10.5c0.1-0.4,0.2-0.7,0.2-0.8c0-0.3-0.1-0.6-0.4-0.7
			s-0.6-0.2-1.1-0.2h-0.4l0.4-1.3c2,0,3.4-0.1,4.3-0.4h0.8l-2.6,9.9c0.1-0.1,0.3-0.3,0.6-0.6s0.6-0.5,0.8-0.7
			c0.3-0.2,0.6-0.4,1.1-0.5s1-0.2,1.5-0.2c0.6,0,1.2,0.2,1.7,0.5s0.9,0.8,1.2,1.4C294.4,307.1,294.5,307.9,294.5,308.8z
			 M291.4,308.8c0-0.7-0.1-1.3-0.4-1.8c-0.3-0.5-0.7-0.7-1.3-0.7c-1.4,0-2.5,1.2-3.4,3.6c-0.3,0.8-0.5,1.6-0.7,2.4
			c-0.2,0.8-0.2,1.4-0.2,1.7c0,0.6,0.2,1.1,0.5,1.5c0.3,0.4,0.7,0.6,1.3,0.6c0.9,0,1.7-0.4,2.3-1.3c0.7-0.8,1.1-1.8,1.5-3
			C291.3,310.7,291.4,309.7,291.4,308.8z"/>
		<path class="st0" d="M307.7,309.7c0,1-0.2,1.9-0.5,2.9s-0.8,1.8-1.4,2.5s-1.4,1.3-2.2,1.7c-0.8,0.4-1.8,0.6-2.8,0.6
			c-1,0-1.8-0.2-2.6-0.7c-0.7-0.4-1.3-1.1-1.7-1.9c-0.4-0.8-0.6-1.7-0.6-2.7c0-1.3,0.3-2.5,0.9-3.7c0.6-1.2,1.5-2.1,2.5-2.8
			c1.1-0.7,2.2-1,3.5-1c1,0,1.9,0.2,2.7,0.7c0.7,0.5,1.3,1.1,1.7,1.9S307.7,308.8,307.7,309.7z M304.7,308.7c0-0.9-0.2-1.6-0.5-2.1
			s-0.8-0.8-1.5-0.8c-0.6,0-1.2,0.3-1.7,0.8c-0.5,0.5-0.9,1.2-1.2,2.1c-0.3,0.8-0.6,1.7-0.7,2.5c-0.2,0.8-0.3,1.6-0.3,2.2
			c0,0.8,0.2,1.5,0.5,2.1c0.3,0.5,0.8,0.8,1.4,0.8c0.7,0,1.3-0.3,1.8-0.8c0.5-0.5,0.9-1.2,1.3-2c0.3-0.8,0.6-1.7,0.7-2.5
			C304.7,309.9,304.7,309.2,304.7,308.7z"/>
		<path class="st0" d="M323.4,313.1c-0.2,0.5-0.6,1.1-1,1.7c-0.4,0.6-0.9,1.2-1.6,1.6c-0.6,0.5-1.3,0.7-2,0.7
			c-0.6,0-1.1-0.2-1.5-0.5s-0.5-0.8-0.5-1.4c0-0.4,0.1-1.1,0.3-1.8l0.9-3.5c0.3-1,0.4-1.6,0.4-2c0-0.2-0.1-0.4-0.2-0.6
			s-0.3-0.3-0.5-0.3c-0.5,0-1,0.4-1.7,1.3c-0.7,0.9-1.3,2.1-2,3.6s-1.3,3.2-1.8,5h-3l2.3-8.6c0.2-0.9,0.3-1.4,0.3-1.5
			c0-0.1,0-0.2-0.1-0.4c0-0.1-0.1-0.2-0.3-0.2c-0.3,0-0.6,0.2-0.9,0.7c-0.3,0.5-0.6,1-0.8,1.6h-1.1c0.3-1,0.8-2,1.5-2.8
			c0.7-0.8,1.5-1.3,2.5-1.3c0.7,0,1.1,0.2,1.5,0.6c0.3,0.4,0.5,0.8,0.5,1.3c0,0.3,0,0.6-0.1,1.2c-0.1,0.5-0.2,1-0.3,1.5l-0.4,1.5
			c1-1.9,2-3.3,2.9-4.4s1.9-1.6,3-1.6c0.6,0,1.1,0.2,1.4,0.7s0.4,0.9,0.4,1.4c0,0.3-0.1,0.9-0.3,1.8l-1.3,5.1
			c-0.2,0.6-0.2,1.1-0.2,1.3c0,0.1,0,0.2,0.1,0.3s0.1,0.1,0.2,0.1c0.2,0,0.5-0.2,0.9-0.6c0.4-0.4,0.7-0.9,1-1.5H323.4z"/>
		<path class="st0" d="M331,313.4c-0.3,0.8-0.8,1.7-1.5,2.6s-1.6,1.3-2.6,1.3c-0.7,0-1.2-0.2-1.6-0.6c-0.4-0.4-0.5-0.9-0.5-1.4
			c0-0.6,0.2-1.4,0.5-2.4l1.6-5.2c0.2-0.5,0.2-0.8,0.2-1c0-0.1,0-0.2-0.1-0.3c-0.1-0.1-0.2-0.1-0.3-0.1c-0.3,0-0.6,0.3-0.9,0.8
			s-0.6,1-0.8,1.4h-1.1c0.5-1.3,1.1-2.3,1.9-3c0.8-0.7,1.6-1.1,2.4-1.1c0.6,0,1,0.2,1.4,0.5s0.5,0.7,0.5,1.3c0,0.6-0.1,1.1-0.3,1.7
			l-2,6.1c-0.1,0.4-0.2,0.8-0.2,1c0,0.1,0,0.2,0.1,0.3s0.2,0.2,0.3,0.2c0.3,0,0.5-0.2,0.8-0.5s0.6-0.9,1-1.7H331z M332,298.6
			c0,0.5-0.2,1-0.5,1.4c-0.3,0.4-0.7,0.6-1.1,0.6c-0.5,0-0.9-0.2-1.2-0.6c-0.3-0.4-0.5-0.8-0.5-1.4c0-0.5,0.2-0.9,0.5-1.3
			c0.3-0.4,0.7-0.6,1.2-0.6c0.3,0,0.6,0.1,0.8,0.3c0.2,0.2,0.4,0.4,0.6,0.7C331.9,297.9,332,298.3,332,298.6z"/>
		<path class="st0" d="M340.2,304.9l-0.4,1.3h-2.5l-1.9,7.2c-0.1,0.5-0.2,0.9-0.2,1.1c0,0.2,0.1,0.4,0.2,0.6s0.3,0.3,0.4,0.3
			c0.5,0,0.9-0.3,1.3-0.8c0.4-0.6,0.7-1.1,1-1.8h1.2c-0.5,1.2-1,2.2-1.6,2.8c-0.6,0.7-1.1,1.1-1.7,1.3c-0.5,0.2-1,0.3-1.4,0.3
			c-0.7,0-1.3-0.2-1.7-0.7s-0.6-1.1-0.6-1.9c0-0.6,0.1-1.3,0.4-2.3l1.6-6.1H332l0.4-1.3h2.3l1.2-4.5h3l-1.2,4.5H340.2z"/>
		<path class="st0" d="M351.7,306.9c0,0.4-0.1,0.9-0.3,1.4s-0.6,1.1-1.2,1.7s-1.4,1.1-2.4,1.6s-2.3,0.8-3.9,0.9l-0.3,0
			c-0.1,0.4-0.1,0.8-0.1,1.1c0,0.7,0.1,1.2,0.4,1.6c0.3,0.3,0.7,0.5,1.3,0.5c1.3,0,2.5-0.8,3.6-2.4h1.3c-0.5,0.9-1.3,1.8-2.4,2.8
			c-1.1,0.9-2.3,1.4-3.8,1.4c-1,0-1.9-0.3-2.6-0.9c-0.7-0.6-1.1-1.6-1.1-2.8c0-1.5,0.4-2.9,1.1-4.4c0.7-1.4,1.7-2.6,2.9-3.4
			s2.6-1.3,4-1.3c1.2,0,2,0.2,2.5,0.7C351.5,305.7,351.7,306.2,351.7,306.9z M349.1,306.9c0-0.3-0.1-0.6-0.3-0.9
			c-0.2-0.3-0.5-0.4-0.8-0.4c-0.6,0-1.1,0.2-1.6,0.7s-0.9,1-1.2,1.7c-0.3,0.6-0.6,1.3-0.8,2c-0.2,0.7-0.3,1.1-0.4,1.2
			c1.7-0.3,3-0.9,3.9-1.7S349.1,307.8,349.1,306.9z"/>
		<path class="st0" d="M371.1,308.8c0,1-0.2,2-0.6,3s-0.9,1.9-1.7,2.8s-1.5,1.5-2.5,2c-0.9,0.5-1.9,0.7-2.9,0.7
			c-1.4,0-2.4-0.4-3.2-1.2c-0.7-0.8-1.1-1.7-1.1-2.8c0-0.7,0.2-1.6,0.5-2.8l2.8-10.5c0.1-0.4,0.2-0.7,0.2-0.8c0-0.3-0.1-0.6-0.4-0.7
			s-0.6-0.2-1.1-0.2h-0.4l0.4-1.3c2,0,3.4-0.1,4.3-0.4h0.8l-2.6,9.9c0.1-0.1,0.3-0.3,0.6-0.6s0.6-0.5,0.8-0.7s0.6-0.4,1.1-0.5
			s1-0.2,1.5-0.2c0.6,0,1.2,0.2,1.7,0.5s0.9,0.8,1.2,1.4C370.9,307.1,371.1,307.9,371.1,308.8z M368,308.8c0-0.7-0.1-1.3-0.4-1.8
			c-0.3-0.5-0.7-0.7-1.3-0.7c-1.4,0-2.5,1.2-3.4,3.6c-0.3,0.8-0.5,1.6-0.7,2.4s-0.2,1.4-0.2,1.7c0,0.6,0.2,1.1,0.5,1.5
			s0.7,0.6,1.3,0.6c0.9,0,1.7-0.4,2.3-1.3c0.7-0.8,1.1-1.8,1.5-3C367.8,310.7,368,309.7,368,308.8z"/>
		<path class="st0" d="M383.8,306.4c0,0.6-0.1,1.2-0.4,1.6s-0.7,0.7-1.1,0.7c-0.4,0-0.7-0.3-1.1-0.8c-0.2-0.3-0.4-0.5-0.6-0.5
			c-0.2,0-0.5,0.2-0.9,0.7c-0.4,0.5-0.8,1.2-1.2,2c-0.4,0.8-0.8,1.8-1.2,2.8s-0.8,2.1-1,3.3l-0.2,0.6h-3l2-8.2
			c0.2-0.8,0.3-1.3,0.3-1.7c0-0.1,0-0.2-0.1-0.3s-0.2-0.2-0.3-0.2c-0.3,0-0.7,0.3-1,0.8c-0.3,0.5-0.6,1-0.8,1.5h-1.2
			c0.5-1.1,1-2,1.5-2.6c0.5-0.6,1-1.1,1.5-1.3c0.5-0.2,0.9-0.4,1.3-0.4c0.7,0,1.1,0.2,1.3,0.7s0.3,1,0.3,1.4c0,0.8-0.2,2.2-0.7,4
			c0.5-1,0.9-1.7,1.2-2.3s0.7-1.2,1.1-1.8s0.9-1.1,1.3-1.5s0.9-0.6,1.4-0.6c0.6,0,1.1,0.2,1.3,0.6
			C383.7,305.6,383.8,306,383.8,306.4z"/>
		<path class="st0" d="M395.8,309.7c0,1-0.2,1.9-0.5,2.9s-0.8,1.8-1.4,2.5s-1.4,1.3-2.2,1.7c-0.8,0.4-1.8,0.6-2.8,0.6
			c-1,0-1.8-0.2-2.6-0.7c-0.7-0.4-1.3-1.1-1.7-1.9c-0.4-0.8-0.6-1.7-0.6-2.7c0-1.3,0.3-2.5,0.9-3.7c0.6-1.2,1.5-2.1,2.5-2.8
			c1.1-0.7,2.2-1,3.5-1c1,0,1.9,0.2,2.7,0.7c0.7,0.5,1.3,1.1,1.7,1.9S395.8,308.8,395.8,309.7z M392.8,308.7c0-0.9-0.2-1.6-0.5-2.1
			c-0.3-0.5-0.8-0.8-1.5-0.8c-0.6,0-1.2,0.3-1.7,0.8c-0.5,0.5-0.9,1.2-1.2,2.1s-0.6,1.7-0.7,2.5c-0.2,0.8-0.3,1.6-0.3,2.2
			c0,0.8,0.2,1.5,0.5,2.1s0.8,0.8,1.4,0.8c0.7,0,1.3-0.3,1.8-0.8c0.5-0.5,0.9-1.2,1.3-2c0.3-0.8,0.6-1.7,0.7-2.5
			S392.8,309.2,392.8,308.7z"/>
		<path class="st0" d="M405.3,304.9l-0.4,1.3h-2.5l-1.9,7.2c-0.1,0.5-0.2,0.9-0.2,1.1c0,0.2,0.1,0.4,0.2,0.6s0.3,0.3,0.4,0.3
			c0.5,0,0.9-0.3,1.3-0.8c0.4-0.6,0.7-1.1,1-1.8h1.2c-0.5,1.2-1,2.2-1.6,2.8c-0.6,0.7-1.1,1.1-1.7,1.3c-0.5,0.2-1,0.3-1.4,0.3
			c-0.7,0-1.3-0.2-1.7-0.7c-0.4-0.5-0.6-1.1-0.6-1.9c0-0.6,0.1-1.3,0.4-2.3l1.6-6.1h-2.4l0.4-1.3h2.3l1.2-4.5h3l-1.2,4.5H405.3z"/>
		<path class="st0" d="M419.1,313.1c-0.5,1.2-1.2,2.1-2,2.9s-1.6,1.2-2.5,1.2c-0.7,0-1.2-0.2-1.5-0.5c-0.3-0.4-0.5-0.8-0.5-1.3
			c0-0.2,0-0.5,0.1-0.7c0-0.2,0.1-0.6,0.3-1l1-3.7c0.2-0.7,0.3-1.3,0.3-1.8c0-0.2,0-0.4-0.1-0.5s-0.1-0.3-0.3-0.4
			c-0.1-0.1-0.3-0.1-0.4-0.1c-0.7,0-1.4,0.6-2.2,1.8c-0.8,1.2-1.4,2.3-1.8,3.4c-0.7,2-1.1,3.3-1.2,3.7l-0.2,1h-3l4.3-16.4
			c0.2-0.6,0.3-1,0.3-1.3c0-0.3-0.1-0.6-0.4-0.7c-0.2-0.1-0.6-0.2-1-0.2h-0.4l0.4-1.3c2,0,3.4-0.1,4.2-0.4h0.9l-3.3,12.5
			c0.6-0.9,1.1-1.7,1.5-2.3c0.4-0.6,1-1.1,1.7-1.6c0.7-0.5,1.5-0.8,2.3-0.8c0.6,0,1.1,0.2,1.5,0.5c0.4,0.4,0.6,0.8,0.6,1.4
			c0,0.5-0.2,1.3-0.5,2.4l-1.3,4.8c-0.1,0.5-0.2,0.9-0.2,1.1c0,0.1,0,0.2,0.1,0.3c0,0.1,0.1,0.2,0.2,0.2c0.5,0,1.1-0.7,1.9-2.1
			H419.1z"/>
		<path class="st0" d="M427.4,306.2c0,2.3-0.3,4.5-0.9,6.5c-0.6,2-1.4,3.7-2.3,5.2c-0.9,1.5-1.8,2.7-2.7,3.6c-0.9,1-1.8,1.9-2.8,2.8
			l-0.9-1c0.8-0.9,1.5-1.7,2.1-2.4c0.6-0.7,1.1-1.7,1.7-2.9c0.6-1.2,1.2-2.7,1.7-4.5c0.6-2,1.1-3.9,1.4-5.7c0.3-1.8,0.5-3.6,0.5-5.4
			c0-0.7-0.1-1.5-0.2-2.5c-0.1-0.9-0.3-1.8-0.5-2.6l1.1-0.5c0.1,0.3,0.3,0.8,0.5,1.4c0.2,0.6,0.4,1.4,0.5,2.2
			c0.2,0.8,0.3,1.7,0.5,2.8C427.4,304.1,427.4,305.1,427.4,306.2z"/>
	</g>
	<g>
		<path class="st0" d="M292.1,241c-0.2,0-0.2,0.1-0.4,0.1c-0.1,0.1-0.2,0.1-0.3,0.1c-0.4,0-0.7-0.8-1-2.3c0.2,0,0.3,0,0.4,0
			c0.8,0,3-0.3,4.2-0.5c0.4-1.8,0.6-3.1,0.6-4c0-0.1,0-0.2,0-0.3c0.9,0.1,1.7,0.3,2.2,0.5c0.3,0.1,0.5,0.3,0.5,0.5
			c0,0.1,0,0.2-0.1,0.3c-0.3,0.5-0.3,0.5-0.9,2.7c0.5-0.1,1-0.1,1.4-0.1c0.8,0,1.5,0.2,1.9,0.5c0.8,0.6,1.2,1.8,1.2,3.6
			c0,3-0.5,5.5-1.5,6.8c-0.6,0.9-1.5,1.3-2.6,1.3c-0.7,0-1.4-0.1-1.6-0.2c-0.2-0.1-0.2-0.1-0.2-0.8c-0.1-0.5-0.2-1-0.4-1.6
			c1,0.3,1.3,0.4,1.9,0.4c1,0,1.4-0.5,1.8-2.1c0.3-1.1,0.5-2.4,0.5-3.9c0-1.6-0.4-2.1-1.4-2.1c-0.4,0-0.9,0-1.4,0.1
			c-0.1,0.2-0.1,0.2-0.2,0.5c-0.6,2-1.6,4.7-2.6,6.9c-1.1,2.2-1.3,2.6-1.6,2.6c-0.2,0-0.7-0.3-1.3-0.7c-0.5-0.3-0.6-0.4-0.6-0.6
			c0-0.1,0-0.1,0.8-1.4c1.1-1.7,2.5-5,3-7C293.1,240.7,292.2,240.9,292.1,241z M302.2,238.7c0-0.1,0.2-0.3,0.8-0.8
			c0.4-0.3,0.6-0.4,0.7-0.4c0.1,0,0.2,0.1,0.5,0.3c1.2,1.1,2.3,2.7,2.9,4c0.2,0.4,0.3,0.7,0.3,0.8c0,0.2-0.1,0.3-0.7,0.8
			c-0.4,0.3-0.9,0.6-1,0.6c-0.1,0-0.2-0.1-0.3-0.4c-0.4-1-0.8-1.7-1.3-2.5c-0.5-0.8-0.6-0.9-1.8-2.2
			C302.2,238.8,302.2,238.8,302.2,238.7z"/>
		<path class="st0" d="M312.6,237.9c3.3-0.9,5-1.2,6.9-1.2c2,0,3.6,0.5,4.6,1.6c0.9,0.9,1.4,2.1,1.4,3.6c0,2.6-1.4,4.7-3.8,6
			c-1.3,0.6-2.6,1.1-4.3,1.4c-0.8,0.2-1.2,0.2-1.5,0.2c-0.2,0-0.4-0.1-0.5-0.3c-0.5-0.9-0.6-1.2-1.2-1.8c3-0.4,4.6-0.8,6.1-1.5
			c1.7-0.8,2.6-2.2,2.6-3.9c0-1.9-1.3-3.1-3.2-3.1c-2.4,0-5,0.7-8,2.1c-0.5,0.2-0.8,0.4-1,0.5c-0.4,0.2-0.5,0.2-0.6,0.2
			c-0.4,0-1.1-1.2-1.5-2.8C309.5,238.7,310.4,238.5,312.6,237.9z"/>
		<path class="st0" d="M331.9,240.3c-1.6,0.2-2,0.2-2.9,0.2c-0.6,0-0.7-0.3-0.9-2c0.4,0,0.6,0,0.8,0c1,0,1.8-0.1,2.9-0.2v-0.4
			c0-1.3-0.1-2.3-0.3-3.4c1.5,0.1,2.1,0.2,2.5,0.3c0.2,0.1,0.3,0.2,0.3,0.4c0,0.1,0,0.2-0.1,0.4c-0.2,0.4-0.3,1.1-0.3,2.5
			c0.7-0.1,1.7-0.4,2.5-0.6c0.1,0,0.1,0,0.1,0c0.2,0,0.3,0.1,0.3,0.2c0.1,0.4,0.2,1.2,0.2,1.5c0,0.2-0.1,0.3-0.3,0.4
			c-0.2,0.1-1.7,0.4-3,0.6v2.6c2-0.7,3.5-1,4.8-1c2.5,0,4.2,1.6,4.2,4.2c0,1.6-0.7,3-1.8,3.7c-0.6,0.4-1.5,0.6-2.4,0.6
			c-1,0-1.8-0.1-2-0.2c-0.2-0.1-0.2-0.2-0.3-0.7c0-0.6-0.2-1-0.4-1.6c0.8,0.3,1.5,0.4,2.3,0.4c1.6,0,2.4-0.8,2.4-2.2
			c0-1.4-0.8-2.2-2.2-2.2c-1.3,0-2.8,0.4-4.6,1.1c0,0.1,0,0.1,0,0.9c0,1.3,0,1.3,0,1.6c0,0.4,0,0.7,0,0.9c0,1.6-0.6,2.4-1.9,2.4
			c-1.3,0-2.6-0.7-3.4-1.7c-0.3-0.4-0.5-0.9-0.5-1.4c0-1.3,1.2-2.5,3.7-3.8V240.3z M331.9,245.6c-1.2,0.7-1.6,1.2-1.6,1.6
			c0,0.5,0.7,1,1.3,1c0.3,0,0.4-0.2,0.4-0.6V245.6z M343,241.1c-1-1.1-2.4-2-3.7-2.4c-0.2-0.1-0.2-0.1-0.2-0.2
			c0-0.1,0.2-0.4,0.8-1.2c0.2-0.3,0.2-0.3,0.4-0.3c0.2,0,1,0.3,1.5,0.5c1.3,0.6,2.9,1.8,2.9,2.2c0,0.4-1,1.6-1.3,1.6
			C343.1,241.3,343.1,241.2,343,241.1z"/>
		<path class="st0" d="M353.5,235.5c0-0.9,0-1.4-0.1-1.9h2.4c-0.1,0.6-0.1,1-0.1,1.9v4.2h4.1v-3.1c0-0.6,0-1-0.1-1.5h2.3
			c-0.1,0.6-0.1,1-0.1,1.7v3.8c0,0.5,0,0.9,0.1,1.2c-0.4,0-0.9-0.1-1.4-0.1h-4.9v6.3h4.7v-3.2c0-0.7,0-1.2-0.1-1.7h2.3
			c-0.1,0.5-0.1,1.1-0.1,1.8v4.1c0,0.9,0,1.4,0.1,1.9h-2.2v-1H349v1h-2.2c0.1-0.6,0.1-1.1,0.1-1.9v-4c0-0.8,0-1.3-0.1-1.8h2.3
			c-0.1,0.5-0.1,0.9-0.1,1.6v3.1h4.5v-6.3h-4.6c-0.5,0-1,0-1.4,0.1c0-0.5,0.1-0.8,0.1-1.2v-3.8c0-0.7,0-1.2-0.1-1.7h2.3
			c-0.1,0.4-0.1,0.9-0.1,1.5v3.1h3.8V235.5z"/>
		<path class="st0" d="M365.8,238.3c1.7,0.9,2.4,1.3,3.8,2.3l-1.2,1.8c-1.4-1.1-2.1-1.6-3.8-2.4L365.8,238.3z M369.9,244.8
			c-1.1,2.7-1.5,3.4-2.7,5.6c-0.1,0.2-0.2,0.4-0.4,0.7l-1.9-1.7c0.9-0.7,2.1-3,3.2-5.8L369.9,244.8z M366.9,233.6
			c1.4,0.8,2.3,1.4,3.6,2.5l-1.3,1.7c-1.2-1.1-2.1-1.8-3.6-2.7L366.9,233.6z M377,248.3c0,1.2,0,2,0.1,2.8h-2.5
			c0.1-0.8,0.1-1.6,0.1-2.8v-6.8h-2.5c-0.9,0-1.5,0-2.3,0.1v-2.3c0.7,0.1,1.3,0.1,2.3,0.1h2.5v-3c0-1.1,0-1.9-0.1-2.8h2.5
			c-0.1,0.7-0.1,1.6-0.1,2.7v3.1h2.9c0.8,0,1.6,0,2.3-0.1v2.3c-0.7-0.1-1.5-0.1-2.3-0.1H377V248.3z"/>
		<path class="st0" d="M388.5,238.4c-1.7,1.1-2.8,1.8-4.3,2.5c-0.4-0.8-0.6-1.2-1.3-1.9c1.8-0.7,3.4-1.5,4.8-2.5
			c1.2-0.9,2.2-1.8,3.1-2.9h2.2c1.1,1.3,2,2.1,3.6,3.1c1.5,1,2.8,1.6,4.6,2.2c-0.6,0.7-0.7,1-1.2,2c-1.8-0.8-2.8-1.3-4.4-2.4v1.1
			c-0.5-0.1-0.9-0.1-1.6-0.1h-4c-0.7,0-1.1,0-1.7,0.1V238.4z M397.2,244.4c0.7,0,1.1,0,1.5-0.1c-0.1,0.5-0.1,0.9-0.1,1.6v3.7
			c0,0.6,0,1.1,0.1,1.6h-2.2v-0.8h-8.8v0.8h-2.2c0.1-0.6,0.1-1,0.1-1.7v-3.7c0-0.6,0-1-0.1-1.5c0.5,0,1,0.1,1.6,0.1h5.4l2.4-2.1
			h-7.5c-0.8,0-1.3,0-1.9,0.1v-1.9c0.4,0.1,0.9,0.1,1.5,0.1h8.5c0.9,0,1.3,0,1.7-0.1l1.2,1.1c-0.1,0.1-0.1,0.1-0.7,0.7l-2.3,2.1
			H397.2z M387.7,248.6h8.8v-2.3h-8.8V248.6z M394.2,237.8c0.2,0,0.3,0,0.6,0c-1-0.8-1.9-1.6-2.8-2.5c-1,1.1-1.8,1.9-2.6,2.5
			c0.3,0,0.4,0,0.7,0H394.2z"/>
		<path class="st0" d="M406.5,236.3c0-0.8-0.1-1.6-0.2-2.3c1,0,1.7,0.1,2.2,0.2c0.4,0.1,0.5,0.2,0.5,0.4c0,0.1,0,0.2-0.1,0.4
			c-0.2,0.4-0.2,0.6-0.3,1.6c0.9-0.1,1.7-0.3,2.6-0.5c0.1,0,0.2,0,0.2,0c0.1,0,0.2,0,0.2,0.2c0.1,0.2,0.2,1,0.2,1.4
			c0,0.3-0.1,0.4-0.2,0.5c-0.4,0.2-1.9,0.4-3.1,0.5c0,1.1-0.1,1.7-0.1,3.2c0.2,0.8,0.3,1.1,0.3,1.7c0,1.5-0.3,2.2-1.3,3.2
			c-0.1,0.2-0.2,0.4-0.2,0.6c0,0.3,0.1,0.6,0.2,0.7c0.3,0.3,1.2,0.5,2.7,0.5c1.7,0,3.1-0.2,3.7-0.6c0.5-0.3,0.7-0.9,0.7-1.8
			c0-0.6-0.1-1-0.2-1.8c1.1,0.5,1.2,0.5,2,0.6c0.2,0,0.3,0.1,0.4,0.2c0.1,0.1,0.2,0.8,0.2,1.4c0,1.4-0.3,2.3-1,3
			c-0.5,0.5-1.4,0.9-2.3,1c-0.8,0.1-2.2,0.2-3.2,0.2c-2,0-3.6-0.3-4.3-0.8c-0.7-0.5-0.9-1-0.9-1.8c0-0.4,0-0.8,0.1-1.2
			c-1.4,0-2.4-1.3-2.4-3.2c0-2,1.1-3.4,2.7-3.4c0.3,0,0.5,0,0.7,0.1c0-0.6,0-1.1,0-1.5c-0.6,0.1-1.8,0.1-2.7,0.1
			c-0.6,0-0.8-0.1-0.9-0.3c-0.1-0.2-0.2-0.8-0.2-1.4c0-0.1,0-0.3,0-0.5c0.6,0.1,0.9,0.1,1.6,0.1c0.7,0,1.5,0,2.2-0.1
			C406.5,236.6,406.5,236.5,406.5,236.3z M405,243.6c0,0.8,0.4,1.4,0.9,1.4c0.6,0,1-0.6,1-1.5c0-0.9-0.3-1.3-0.9-1.3
			C405.3,242.2,405,242.7,405,243.6z M414.7,237.7c0.3-0.4,0.3-0.4,0.5-0.4c0.2,0,0.9,0.3,1.4,0.5c1,0.5,2.2,1.5,2.9,2.4
			c0.1,0.1,0.2,0.2,0.2,0.3c0,0.2-0.1,0.4-0.5,0.9c-0.4,0.5-0.7,0.7-0.8,0.7c-0.1,0-0.2-0.1-0.4-0.2c-1.1-1.3-2.1-2.2-3.6-2.9
			c-0.1-0.1-0.2-0.1-0.2-0.2C414,238.6,414.4,238.1,414.7,237.7z"/>
	</g>
	<g>
		<path class="st0" d="M398.4,159.9c-4.4-4.6-7.4-7.8-11.1-11.7c-11,15-25.6,21.2-44.2,18.3c0-12.2,0-24.2,0-37.8
			c16.1-2.1,30.9,3.2,44.1,14.8c3.4-2.9,6.7-5.8,11.2-9.7C398.4,142.6,398.4,150.2,398.4,159.9z"/>
		<path class="st0" d="M335.2,129c-7.3,6.1-14.1,11.8-20,16.7c3.2,14.2,12.2,1.6,17.9,6.7c-3.4,1.8-6,3.2-10.3,5.4
			c5.5,2.8,9.7,5,13.9,7.1C341.2,154.3,340.8,141.6,335.2,129z M329.2,145.6c-1.9,0-3.4-1.5-3.4-3.5c0-1.9,1.5-3.5,3.4-3.5
			s3.4,1.5,3.4,3.5C332.6,144.1,331.1,145.6,329.2,145.6z"/>
	</g>
	<g>
		<path class="st0" d="M279.3,210.3c2,1.6,5.3,4.1,8.4,4.1c1.4,0,2.4-0.3,3-0.9c0.8-0.9,0.6-2-0.1-2.6c-2.6-2.2-10.3-5.3-10.3-10.3
			c0-6.7,7.6-12.5,11.9-14.3c2.3-1,4.7-1.4,6.3,0.1c1.2,1.1,2.1,2.7,2.4,4.1c0.5,2-0.7,3.9-1.4,4.9c-1.3,1.7-2.7,4.2-3.4,5.5
			c-0.2,0.4-0.5,0.7-1.1,0.1c-0.9-0.9-1.5-2.5-0.5-4.8c1-2.4,4.7-6.4,3.5-7.7c-1.7-1.7-13.7,5.8-13.9,11.9c-0.1,3.2,6.1,5.8,8.8,7.8
			c1.9,1.3,1.6,3.6-0.5,6.1c-2.9,3.4-11.4,4.3-18.3-4c-0.5-0.6-0.3-1,0.1-1.1C276,208.8,278,209.3,279.3,210.3z"/>
		<path class="st0" d="M307.8,187.6c-0.1-0.4,0-0.6,0.5-0.6c4.1,0.2,9.4-1.2,12.2-1.2c2.1,0,3.1,0.8,3.7,2.4c0.1,0.4,0,0.7-0.5,0.6
			c-3.5,0-6.9,0.8-9.9,1.3c-2,2.9-4.3,7.2-6.7,11.6c1.3-0.2,2.6-0.3,3.5-0.4c2.4-0.1,3.5,0.7,4,2.2c0.1,0.4,0.1,0.7-0.5,0.7
			c-2.6,0-6.3,0.7-9,1.4c-1.4,2.7-2.7,5.5-3.8,7.8c2.3-0.7,5.6-1.4,7.6-1.5c2.4-0.1,3.6,0.7,4.2,2.2c0.1,0.4,0.1,0.7-0.5,0.7
			c-2.7,0-8.1,1.2-10.8,2c-0.9,0.2-1.5,0.2-2.1-0.5c-0.4-0.4-0.7-1.2-1-1.8c-0.4-0.8-0.4-1.5,0-2.8c2.2-6,7.1-15.2,11.2-21.6
			C308.6,189.6,308,188.6,307.8,187.6z"/>
		<path class="st0" d="M321.7,209c-1.5,2.5-2.7,4.9-3.7,7.1c-0.2,0.4-0.6,0.4-0.9,0.1c-0.6-0.8-0.8-2.3,0.2-5
			c0.3-0.7,0.7-1.7,1.3-2.8c-1.1-0.6-1.5-1.3-1.6-1.7c-0.2-0.6-0.1-0.8,0.6-0.7c0.7,0.1,1.4,0.2,2.2,0.2
			c3.8-6.7,10.6-16.4,15.8-20.7c0.8-0.6,1.3-0.6,1.8,0s0.6,0.8,1.1,2c0.5,1.2,0.4,2.3,0,3.6c-1.3,3.9-2.6,8.9-3.6,14.3
			c1.5,0.5,2,1.5,2.2,2.5c0.1,0.4-0.1,0.6-0.5,0.4c-0.6-0.1-1.3-0.2-2.1-0.3c-0.3,2.6-0.6,5.3-0.7,7.9c0,0.5-0.3,0.6-0.7,0.4
			c-1-0.4-1.8-1.7-1.8-4.5c0-1,0-2.3,0.2-3.7C327.9,208.4,324,209,321.7,209z M331.8,205.2c0.7-5.1,2.1-11.3,3.6-15.1
			c-3.7,4.2-8.2,10.1-11.9,16C326.5,205.8,329.5,205.2,331.8,205.2z"/>
		<path class="st0" d="M347.9,187.6c-0.1-0.4,0-0.6,0.5-0.6c4.1,0.2,9.2-1.2,12-1.2c2.1,0,3.4,1,4,2.5c0.1,0.4,0,0.7-0.6,0.7
			c-3.7,0-7.1,0.9-10.1,1.4c-1.7,2.8-4,6.8-6.4,11.2c1.3-0.2,2.4-0.3,3.3-0.4c2.4-0.1,3.7,0.9,4.1,2.4c0.1,0.4,0,0.7-0.5,0.7
			c-2.4,0-6.2,0.7-9,1.4c-1.9,3.6-3.7,7.3-5.1,10.6c-0.2,0.5-0.5,0.5-0.8,0.2c-0.9-0.8-1.4-2.4-0.4-5.4c1.5-4.3,6.6-13.9,10.9-21
			C348.7,189.5,348.1,188.5,347.9,187.6z"/>
		<path class="st0" d="M381,205.7c-4,7.3-10.1,13.1-16.7,10.6c-4-1.5-5.6-5.2-5.6-9.2c0-10.5,9.1-19.5,14.6-21.5
			c2.8-1,5.3-0.4,6.6,1C386,189.2,384.7,198.9,381,205.7z M379,187.8c-2.4-0.9-8.6,2.5-13.2,9.6c-4.7,7.3-4.8,15.6-1.5,17
			c3.2,1.4,9-2.6,13.1-10.1C381.9,196.1,381.7,188.7,379,187.8z"/>
		<path class="st0" d="M407.2,205.7c-4,7.3-10.1,13.1-16.7,10.6c-4-1.5-5.6-5.2-5.6-9.2c0-10.5,9.1-19.5,14.6-21.5
			c2.8-1,5.3-0.4,6.6,1C412.2,189.2,410.8,198.9,407.2,205.7z M405.2,187.8c-2.4-0.9-8.6,2.5-13.2,9.6c-4.7,7.3-4.8,15.6-1.5,17
			c3.2,1.4,9-2.6,13.1-10.1C408.1,196.1,407.9,188.7,405.2,187.8z"/>
		<path class="st0" d="M417.2,189.2c-0.2-0.5-0.1-0.8,0.5-0.9c3.4-0.4,5.8-2.4,9-2.9c3.1-0.5,5.6,1.1,7.4,4.3
			c4.5,7.9-4.2,22.2-17.3,26.6c-1.4,0.5-2.3,0.3-3.1-0.3c-0.6-0.5-1.4-1.1-2.1-2.1c-0.9-1.3-1.2-2-0.1-5.2
			c1.5-4.6,5.6-12.3,8.9-17.3C418.5,191.2,417.5,190,417.2,189.2z M421.7,196c-2.4,4.4-6.4,10.9-7.8,15.4c-0.6,2.1-0.3,2.8,1.2,2.2
			c13.3-5.1,19.5-19.2,16.6-23.8c-1.7-2.8-5.3-0.1-8.7,1C423.2,192,422.9,193.8,421.7,196z"/>
	</g>
	<g>
		<path class="st0" d="M571.3,187.6c-0.1-0.4,0-0.6,0.5-0.6c4.1,0.2,9.4-1.2,12.2-1.2c2.1,0,3.1,0.8,3.7,2.4c0.1,0.4,0,0.7-0.5,0.6
			c-3.5,0-6.9,0.8-9.9,1.3c-2,2.9-4.3,7.2-6.7,11.6c1.3-0.2,2.6-0.3,3.5-0.4c2.4-0.1,3.5,0.7,4,2.2c0.1,0.4,0.1,0.7-0.5,0.7
			c-2.6,0-6.3,0.7-9,1.4c-1.4,2.7-2.7,5.5-3.8,7.8c2.3-0.7,5.6-1.4,7.6-1.5c2.4-0.1,3.6,0.7,4.2,2.2c0.1,0.4,0.1,0.7-0.5,0.7
			c-2.7,0-8.1,1.2-10.8,2c-0.9,0.2-1.5,0.2-2.1-0.5c-0.4-0.4-0.7-1.2-1-1.8c-0.4-0.8-0.4-1.5,0-2.8c2.2-6,7.1-15.2,11.2-21.6
			C572.1,189.6,571.6,188.6,571.3,187.6z"/>
		<path class="st0" d="M593.7,216.2c-2.4,0.7-5.5,1.1-8.2-1c-1.8-1.3-3.2-3.5-3.3-7.6c-0.1-10.6,9.8-19.9,15.3-21.7
			c2.7-0.9,4.9-0.9,6.6,0.3c1.4,1,2.1,2.2,2.5,3.5c0.4,1.4,0.3,2.7-0.3,4.3c-0.6,1.3-1.4,3.3-1.9,4.7c-0.1,0.4-0.5,0.7-1,0.2
			c-1.1-0.8-1.9-2.2-1.3-4.7s2.4-5.2,1.4-6.3c-1.6-1.6-9.5,2.6-14.2,9.7c-4.5,7-4.4,14.4-2.4,16.3c2.7,2.5,8.4-1.2,11.4-7.1
			c-1.6,0.3-3.1,0.6-4.3,0.7c-2.4,0.2-4-0.8-4.7-2.4c-0.2-0.5-0.1-0.8,0.5-0.8c3.8,0,7.5-1.3,10.5-1.3c2.4,0,3.8,1,4.4,2.5
			c0.2,0.5,0.1,0.9-0.5,0.8c-0.9-0.1-2.1,0-3.4,0.1C602.1,211.1,596.1,215.5,593.7,216.2z"/>
		<path class="st0" d="M619.2,216.2c-2.4,0.7-5.5,1.1-8.2-1c-1.8-1.3-3.2-3.5-3.3-7.6c-0.1-10.6,9.8-19.9,15.3-21.7
			c2.7-0.9,4.9-0.9,6.6,0.3c1.4,1,2.1,2.2,2.5,3.5c0.4,1.4,0.3,2.7-0.3,4.3c-0.6,1.3-1.4,3.3-1.9,4.7c-0.1,0.4-0.5,0.7-1,0.2
			c-1.1-0.8-1.9-2.2-1.3-4.7s2.4-5.2,1.4-6.3c-1.6-1.6-9.5,2.6-14.2,9.7c-4.5,7-4.4,14.4-2.4,16.3c2.7,2.5,8.4-1.2,11.4-7.1
			c-1.6,0.3-3.1,0.6-4.3,0.7c-2.4,0.2-4-0.8-4.7-2.4c-0.2-0.5-0.1-0.8,0.5-0.8c3.8,0,7.5-1.3,10.5-1.3c2.4,0,3.8,1,4.4,2.5
			c0.2,0.5,0.1,0.9-0.5,0.8c-0.9-0.1-2.1,0-3.4,0.1C627.6,211.1,621.6,215.5,619.2,216.2z"/>
	</g>
	<g>
		<path class="st0" d="M465.6,582.7c1.1,0.5,1.7,1.3,1.9,2.2c0.1,0.4,0,0.6-0.5,0.5c-0.8-0.1-1.7-0.2-2.7-0.1
			c-1.7,3.2-3.4,6.7-5,10.4c-0.2,0.5-0.5,0.5-0.8,0.1c-0.7-1-1.1-2.4-0.1-5.4c0.3-1,1.1-2.7,2.1-4.7c-3.6,0.4-7.3,1.1-9.6,1.1
			c-1.5,3-3,6.3-4.4,9.6c-0.2,0.5-0.6,0.6-0.9,0.2c-0.7-1-1.1-2.4-0.2-5.4c0.3-1,1.1-2.8,2.1-5c-1.1-0.5-1.5-1.2-1.7-1.6
			c-0.3-0.6-0.2-0.8,0.6-0.7c0.7,0,1.4,0.1,2.1,0.1c3.1-6.5,7.7-15,9.7-17.9c0.4-0.6,0.9-0.5,1.2,0c0.7,1.4,0.6,3.8-1.2,7.3
			c-1.4,2.7-3.4,6.2-5.6,10.3c3.4-0.4,6.4-1.3,9.6-1.5c3.2-6.3,7.5-14.1,9.4-16.7c0.5-0.6,0.9-0.6,1.2,0c0.7,1.4,0.5,3.7-1.5,7.4
			C469.6,575.6,467.7,578.9,465.6,582.7z"/>
		<path class="st0" d="M493.6,585.6c-4,7.3-10.1,13.1-16.7,10.6c-4-1.5-5.6-5.2-5.6-9.2c0-10.5,9.1-19.5,14.6-21.5
			c2.8-1,5.3-0.4,6.6,1C498.6,569.1,497.3,578.8,493.6,585.6z M491.6,567.6c-2.4-0.9-8.6,2.5-13.2,9.6c-4.7,7.3-4.8,15.6-1.5,17
			c3.2,1.4,9-2.6,13.1-10.1C494.5,576,494.3,568.6,491.6,567.6z"/>
		<path class="st0" d="M497.6,596.1c-0.1,0.5-0.5,0.6-0.8,0.2c-0.8-0.9-1.2-2.8-0.2-5.5c2.4-6.6,8.8-18.3,12.6-24.8
			c0.4-0.7,0.8-0.8,1.3-0.4c1.8,1.3,2.2,2.7,1.7,6.1c-0.8,4.7-1.3,10.8-1.6,17.7c3.3-7.6,8.9-17.8,12.6-23.5
			c0.4-0.6,0.8-0.4,1.1,0.1c0.7,1.5,0.7,3.4-1.5,7.1c-2.9,4.8-9.1,16.6-12,23.1c-0.2,0.5-0.4,0.6-1,0.3c-1.5-0.8-2.1-2-2.4-5.1
			c-0.2-3,0-9.6,0.8-16.6C504.6,581,499.6,590.2,497.6,596.1z"/>
		<path class="st0" d="M529.5,567.5c-0.1-0.4,0-0.6,0.5-0.6c4.1,0.2,9.4-1.2,12.2-1.2c2.1,0,3.1,0.8,3.7,2.4c0.1,0.4,0,0.7-0.5,0.6
			c-3.5,0-6.9,0.8-9.9,1.3c-2,2.9-4.3,7.2-6.7,11.6c1.3-0.2,2.6-0.3,3.5-0.4c2.4-0.1,3.5,0.7,4,2.2c0.1,0.4,0.1,0.7-0.5,0.7
			c-2.6,0-6.3,0.7-9,1.4c-1.4,2.8-2.7,5.5-3.8,7.8c2.3-0.7,5.6-1.4,7.6-1.5c2.4-0.1,3.6,0.7,4.2,2.2c0.1,0.4,0.1,0.7-0.5,0.7
			c-2.7,0-8.1,1.2-10.8,2c-0.9,0.2-1.5,0.2-2.1-0.5c-0.4-0.4-0.7-1.2-1-1.8c-0.4-0.8-0.4-1.5,0-2.8c2.2-6,7.1-15.2,11.2-21.6
			C530.3,569.5,529.8,568.5,529.5,567.5z"/>
		<path class="st0" d="M543.2,596.3c-0.2,0.5-0.5,0.5-0.9,0.1c-0.7-0.6-1.2-2.4-0.5-4.9c0.5-1.8,1.7-4.4,3-7.1
			c0.1-6,0.5-13.5,1.4-18.2c0.1-0.8,0.6-0.8,1-0.5c1.2,0.7,1.9,2.2,1.7,5.7c-0.1,2.8-0.5,5.9-0.7,9.6c4.5-5.1,11.4-11.8,15.3-15.3
			c0.5-0.4,0.9-0.3,1,0.2c0.4,1.4-0.1,3.6-3,6.4c-3.5,3.4-7.7,7.2-13.7,13.7C545.8,589.8,544.2,593.3,543.2,596.3z"/>
	</g>
	<g>
		<path class="st0" d="M81.7,569.1c-0.2-0.5-0.1-0.8,0.5-0.9c3.4-0.4,5.8-2.4,9-2.9c3.1-0.5,5.6,1.1,7.4,4.3
			c4.5,7.9-4.2,22.2-17.3,26.6c-1.4,0.5-2.3,0.3-3.1-0.3c-0.6-0.5-1.4-1.1-2.1-2.1c-0.9-1.3-1.2-2-0.1-5.2
			c1.5-4.6,5.6-12.3,8.9-17.3C83,571.1,82,569.8,81.7,569.1z M86.2,575.8c-2.4,4.4-6.4,10.9-7.8,15.4c-0.6,2.1-0.3,2.8,1.2,2.2
			c13.3-5.1,19.5-19.2,16.6-23.8c-1.7-2.8-5.3-0.1-8.7,1C87.8,571.9,87.5,573.7,86.2,575.8z"/>
		<path class="st0" d="M102.6,588.8c-1.5,2.5-2.7,4.9-3.7,7.1c-0.2,0.4-0.6,0.4-0.9,0.1c-0.6-0.8-0.8-2.3,0.2-5
			c0.3-0.7,0.7-1.7,1.3-2.8c-1.1-0.6-1.5-1.3-1.6-1.7c-0.2-0.6-0.1-0.8,0.6-0.7c0.7,0.1,1.4,0.2,2.2,0.2
			c3.8-6.7,10.6-16.4,15.8-20.7c0.8-0.6,1.3-0.6,1.8,0s0.6,0.8,1.1,2c0.5,1.2,0.4,2.3,0,3.6c-1.3,3.9-2.6,8.9-3.6,14.3
			c1.5,0.5,2,1.5,2.2,2.5c0.1,0.4-0.1,0.6-0.5,0.4c-0.6-0.1-1.3-0.2-2.1-0.3c-0.3,2.6-0.6,5.3-0.7,7.9c0,0.5-0.3,0.6-0.7,0.4
			c-1-0.4-1.8-1.7-1.8-4.5c0-1,0-2.3,0.2-3.7C108.9,588.3,104.9,588.9,102.6,588.8z M112.7,585.1c0.7-5.1,2.1-11.3,3.6-15.1
			c-3.7,4.2-8.2,10.1-11.9,16C107.5,585.7,110.4,585.1,112.7,585.1z"/>
		<path class="st0" d="M133.2,565.6c0.7,1.4,0.6,3.8-1.5,7.5c-3,5.4-8.4,14.8-12,22.9c-0.2,0.5-0.4,0.5-0.8,0.1
			c-0.7-0.7-1.3-2.5-0.2-5.5c2.4-6.7,9.3-19.3,13.2-25.1C132.5,564.9,133,565,133.2,565.6z"/>
		<path class="st0" d="M130.3,595.9c-0.2,0.5-0.4,0.5-0.8,0.2c-0.7-0.7-1.2-2.2-0.4-4.9c1.2-4.5,5.8-13.8,10.1-20.6
			c-1.7-0.1-2.5-0.9-3.1-2c-0.2-0.5-0.1-0.7,0.5-0.8c4.1-0.5,7.8-2.5,11-2.7c2.5-0.1,4.6,0.6,5.8,4c1,2.9,0.3,5.9-1.5,8.4
			c-2.6,3.5-7.9,6.6-13.3,7.9c1.9,2.3,3.6,4.7,4.6,6.7c0.7,1.3,0.9,3,0.2,4c-0.2,0.4-0.5,0.5-0.8,0.1c-3.2-4.4-5.8-7.6-8.1-10.2
			C133.4,588.8,132,591.9,130.3,595.9z M140.4,575.9c-1.3,2.4-2.5,4.4-3.9,6.8c10.8-2.4,16.3-9.6,14.9-13.1c-1.1-2.8-6-0.2-9.2,0.7
			C142.2,571.8,141.7,573.5,140.4,575.9z"/>
		<path class="st0" d="M154.5,596.3c-0.2,0.5-0.5,0.5-0.9,0.1c-0.7-0.6-1.2-2.4-0.5-4.9c0.5-1.8,1.7-4.4,3-7.1
			c0.1-6,0.5-13.5,1.4-18.2c0.1-0.8,0.6-0.8,1-0.5c1.2,0.7,1.9,2.2,1.7,5.7c-0.1,2.8-0.5,5.9-0.7,9.6c4.5-5.1,11.4-11.8,15.3-15.3
			c0.5-0.4,0.9-0.3,1,0.2c0.4,1.4-0.1,3.6-3,6.4c-3.5,3.4-7.7,7.2-13.7,13.7C157,589.8,155.5,593.3,154.5,596.3z"/>
		<path class="st0" d="M186.8,568.7c-0.2-0.5-0.1-0.8,0.5-0.9c4.1-0.4,7.7-2.5,11-2.7c2.5-0.1,4.6,0.7,5.8,4.1
			c1,2.9,0.2,5.8-1.5,8.4c-2.4,3.8-7.7,7.5-14.1,8.7c-1.1,0.2-2.2,0-3-0.5c-1.4,2.7-2.8,5.9-4.5,10c-0.2,0.5-0.4,0.5-0.8,0.1
			c-0.7-0.7-1.2-2.2-0.4-4.9c1.3-4.5,5.9-13.7,10.1-20.4C188.2,570.6,187.3,569.7,186.8,568.7z M202.1,569.7c-1-2.7-5.9-0.1-9.1,0.8
			c0,1.3-0.5,3-1.9,5.4c-1.3,2.3-2.6,4.5-4.1,7.3C197.9,581.1,203.4,573.1,202.1,569.7z"/>
		<path class="st0" d="M202.3,595.9c-0.2,0.5-0.4,0.5-0.8,0.2c-0.7-0.7-1.2-2.2-0.4-4.9c1.2-4.5,5.8-13.8,10.1-20.6
			c-1.7-0.1-2.5-0.9-3.1-2c-0.2-0.5-0.1-0.7,0.5-0.8c4.1-0.5,7.8-2.5,11-2.7c2.5-0.1,4.6,0.6,5.8,4c1,2.9,0.3,5.9-1.5,8.4
			c-2.6,3.5-7.9,6.6-13.3,7.9c1.9,2.3,3.6,4.7,4.6,6.7c0.7,1.3,0.9,3,0.2,4c-0.2,0.4-0.5,0.5-0.8,0.1c-3.2-4.4-5.8-7.6-8.1-10.2
			C205.4,588.8,204,591.9,202.3,595.9z M212.4,575.9c-1.3,2.4-2.5,4.4-3.9,6.8c10.8-2.4,16.3-9.6,14.9-13.1c-1.1-2.8-6-0.2-9.2,0.7
			C214.2,571.8,213.7,573.5,212.4,575.9z"/>
		<path class="st0" d="M246.7,585.6c-4,7.3-10.1,13.1-16.7,10.6c-4-1.5-5.6-5.2-5.6-9.2c0-10.5,9.1-19.5,14.6-21.5
			c2.8-1,5.3-0.4,6.6,1C251.8,569.1,250.4,578.8,246.7,585.6z M244.7,567.6c-2.4-0.9-8.6,2.5-13.2,9.6c-4.7,7.3-4.8,15.6-1.5,17
			c3.2,1.4,9-2.6,13.1-10.1C247.6,576,247.4,568.6,244.7,567.6z"/>
		<path class="st0" d="M255.8,569.1c-0.2-0.5-0.1-0.8,0.5-0.9c3.4-0.4,5.8-2.4,9-2.9c3.1-0.5,5.6,1.1,7.4,4.3
			c4.5,7.9-4.2,22.2-17.3,26.6c-1.4,0.5-2.3,0.3-3.1-0.3c-0.6-0.5-1.4-1.1-2.1-2.1c-0.9-1.3-1.2-2-0.1-5.2
			c1.5-4.6,5.6-12.3,8.9-17.3C257.1,571.1,256.1,569.8,255.8,569.1z M260.3,575.8c-2.4,4.4-6.4,10.9-7.8,15.4
			c-0.6,2.1-0.3,2.8,1.2,2.2c13.3-5.1,19.5-19.2,16.6-23.8c-1.7-2.8-5.3-0.1-8.7,1C261.8,571.9,261.5,573.7,260.3,575.8z"/>
		<path class="st0" d="M272.9,587.5c1.4-5.5,6.9-14.8,11.3-21.6c0.4-0.6,0.8-0.5,1.2,0c0.8,1.2,1,3.1-0.9,6.8
			c-2.4,4.7-7.3,12-8.5,17.2c-0.6,2.5-0.4,4.4,1,4.9c3,1.2,6.9-3.1,10.3-9.8c2.7-5.3,8-15,10.7-19.2c0.4-0.6,0.8-0.5,1.2,0
			c0.6,1,0.6,3.2-0.6,6.1c-1.7,3.8-7.8,15.1-11,19.6c-3.5,4.8-7.8,6-11.2,4.7C273.8,595.4,271.6,592.9,272.9,587.5z"/>
		<path class="st0" d="M315.1,585.8c1.2,3.3-1.9,7-4,8.4c-3.5,2.5-7.6,2.5-10.2,1c-2.2-1.2-4.1-4.2-4.2-8.2
			c-0.2-10.4,8.5-19.3,14-21.4c2.6-1,5-1.2,6.6,0.1c1.1,0.9,2.2,2.4,2.6,3.6c0.4,1.4,0.3,2.8-0.4,4.3s-1.4,3.4-2,4.9
			c-0.1,0.4-0.5,0.7-1.1,0.3c-1.1-0.7-1.9-2.3-1.2-4.7c0.8-2.6,2.5-5.4,1.4-6.6c-1.4-1.5-8.8,2.5-13.2,9.8
			c-4.3,7.2-3.8,14.4-1.4,16.4c3.1,2.6,8.3-0.7,12-8.1C314.3,585.1,314.8,585.1,315.1,585.8z"/>
		<path class="st0" d="M327.3,570.3c-2.9,0.1-5-1-5.6-2.8c-0.1-0.4,0-0.7,0.5-0.6c4.3,0.3,12.5-1.5,15.2-1.4c2.1,0,3.9,0.6,4.6,2.5
			c0.1,0.4,0,0.8-0.6,0.7c-2.4-0.2-5.5,0.2-8.3,0.7c0,1.2-0.3,2.8-1.6,5.2c-2.9,5.4-7.1,12.2-10.9,21.2c-0.2,0.5-0.4,0.5-0.8,0.1
			c-0.7-0.6-1.3-2.1-0.6-4.5c1.1-4,6.4-14.7,10.9-21.6C329.2,570.2,328.2,570.3,327.3,570.3z"/>
		<path class="st0" d="M337.1,590.2c2,1.6,5.3,4.1,8.4,4.1c1.4,0,2.4-0.3,3-0.9c0.8-0.9,0.6-2-0.1-2.6c-2.6-2.2-10.3-5.3-10.3-10.3
			c0-6.7,7.6-12.5,11.9-14.3c2.3-1,4.7-1.4,6.3,0.1c1.2,1.1,2.1,2.7,2.4,4.1c0.5,2-0.7,3.9-1.4,4.9c-1.3,1.7-2.7,4.2-3.4,5.5
			c-0.2,0.4-0.5,0.7-1.1,0.1c-0.9-0.9-1.5-2.5-0.5-4.8c1-2.4,4.7-6.4,3.5-7.7c-1.7-1.7-13.7,5.8-13.9,11.9c-0.1,3.2,6.1,5.8,8.8,7.8
			c1.9,1.3,1.6,3.6-0.5,6.1c-2.9,3.4-11.4,4.3-18.3-4c-0.5-0.6-0.3-1,0.1-1.1C333.8,588.7,335.8,589.1,337.1,590.2z"/>
	</g>
	<g id="_x32_W84oI_1_">
		<g>
			<path class="st0" d="M310.4,108c2.8,5.3,5.4,10.2,7.9,14.9c-9,3.5-21.7-2.5-27.6-13.7c1.6-1.6,3.3-3.2,5.1-5
				C300.2,108.1,305.4,109.4,310.4,108z"/>
			<path class="st0" d="M321.3,93.8c6.9-0.6,12.6-3.7,17.8-8.5c2.2,6.6,1.7,12.8-0.5,19c-0.1,0.4-1,0.8-1.6,0.8
				c-5.4,0.2-10.4-0.8-15-3.8c-1.6-1.1-2.2-2-1.5-3.9C321,96.4,321,95.2,321.3,93.8z"/>
			<path class="st0" d="M318.7,102.2c5.4,4.2,11.4,5.7,18.4,5.6c-3.2,6.3-7.2,11-13.3,13.6c-0.6,0.3-1.8-0.2-2.4-0.7
				c-3.3-2.9-5.5-6.4-6.7-10.6c-0.7-2.3-0.9-4.2,1.5-5.6C317.1,104.1,317.7,103.2,318.7,102.2z"/>
			<path class="st0" d="M321.4,91c-1.5-2.9-2.7-5.4-4.1-8c4.2-4.1,8.5-8.4,13-12.8c3.3,3.2,5.7,6.9,7.4,11c0.2,0.5-0.1,1.5-0.5,1.9
				C332.8,87.7,327.6,90.6,321.4,91z"/>
			<path class="st0" d="M273.2,89.2c2.8,0.6,5.6,1.3,8.7,2c0.3-3.3,0.5-6.2,0.7-9.2c0.2,0,0.3-0.1,0.5-0.1c1.4,2.5,2.8,4.9,4.2,7.4
				c2,3.5,3.8,7.2,5.9,10.6c1,1.7,0.8,2.7-0.7,3.8c-1.2,0.9-2.3,1.9-3.4,2.9c-5.5-5.6-10.9-11.2-16.3-16.7
				C272.9,89.6,273.1,89.4,273.2,89.2z"/>
			<path class="st0" d="M316.4,86.1c0.7,1.8,1.1,2.8,1.6,3.9c-3.2,0.4-6.3,0.7-9.4,1.1c-0.1-0.2-0.2-0.3-0.3-0.5
				C310.9,89.2,313.5,87.7,316.4,86.1z"/>
			<path class="st0" d="M309,93.1c2.8-0.3,5.6-0.7,9.2-1.1c-0.3,1.8-0.6,3-0.8,4.2c-2.6-0.8-5.5-1.7-8.3-2.5
				C309.1,93.5,309,93.3,309,93.1z"/>
			<path class="st0" d="M316.6,98.9c-0.8,1.7-1.3,2.8-2,4.1c-2.2-2.3-4.3-4.4-6.3-6.5c0-0.2,0.1-0.3,0.1-0.5
				C311,96.9,313.6,97.8,316.6,98.9z"/>
			<path class="st0" d="M353.7,86.7c-6.3-12.1-15-22.2-26.1-30c-7.6-5.3-16-9.3-25.4-10.3c-6.4-0.7-9.3,2.8-7.6,9
				c0.8,2.9,2.1,5.7-0.8,8.3c7,5.8,13.7,11.4,20.5,17.2c4.2-4.7,8.1-9.2,12.4-14.1c-8.2-4.2-16.5-6.7-25.3-7.9
				c-4-0.5-4.9-1.5-5.3-5.6c-0.3-3.4,1-5.1,4.5-5c2.2,0.1,4.5,0.4,6.7,1c20.8,6.1,34.9,20,44.9,38.8c0.5,0.9,1.1,1.7,1.7,2.6
				c0.4-0.2,0.7-0.3,1.1-0.5C354.5,89.1,354.2,87.8,353.7,86.7z M306.7,63.9c0.4,0.4,0.1,1.6,0.2,2.9c-1.3-0.2-2.6-0.1-2.8-0.6
				c-0.4-0.7,0-1.8,0-2.7C304.9,63.5,306.1,63.4,306.7,63.9z"/>
		</g>
	</g>
	<g id="TQMOYY_1_">
		<g>
			<path class="st0" d="M363,102c-0.2-0.6-0.5-1.1-0.7-1.7c-0.1-0.4-0.4-0.8-0.4-1.2c0-1.2,0.1-2.4,0.1-3.6c0-0.2,0-0.5-0.1-0.7
				c-0.6-1.5-0.3-2.8,0.6-4.1c0.6-0.9,1.4-1.2,2.4-1.3c0.9-0.1,1.7-0.4,2.6-0.6c7.2-2,14.4-4.1,21.5-6.1c1.5-0.4,3-0.9,4.4-1.5
				c-10.1,2.3-20.3,4.6-30.4,6.8c-0.7-1-0.4-1.8,0.1-2.7c0.3-0.5,0.5-1,0.7-1.5c0.2-0.5,0.5-0.2,0.9-0.1c1,0.1,2.1-0.1,3.2-0.2
				c1.2-0.1,2.4-0.3,3.5-0.4c6.8-0.8,13.6-1.6,20.3-2.4c0.1,0,0.3-0.1,0.4-0.3c-9.2,0.6-18.3,1.2-27.7,1.9c0.2-0.4,0.3-0.7,0.5-0.9
				c1.4-2.3,3.3-4.1,5.5-5.4c2.2-1.3,4.4-1.8,6.9-0.8c1.8,0.7,3.8,1.2,5.7,1.6c0.4,0.1,1-0.1,1.3-0.4c1.6-1.5,3.1-3,4.8-4.4
				c1.4-1.1,1.6-1,2.8,0.2c4.9,5.1,9.8,10.2,14.8,15.2c0.9,0.9,0.9,1.7,0.1,2.5c-1.4,1.6-2.8,3.1-4.4,4.5c-0.7,0.7-0.9,1.2-0.6,2.2
				c0.6,2.1,1,4.3,1.7,6.4c0.5,1.7,0.2,3.1-0.5,4.6c-1.3,2.6-3.2,4.7-5.6,6.4c-0.6,0.4-1.2,0.8-1.7,1.1c0.9-9.4,1.8-18.9,2.7-28.4
				c-0.1,0-0.2,0-0.3,0c-0.5,3.2-0.9,6.4-1.4,9.6c-0.9,6.1-1.8,12.2-2.7,18.3c-0.2,1.1-2,2.2-3.2,2c-0.4-0.1-0.7-0.2-1.1-0.3
				c2.7-10.4,5.4-20.8,8-31.2c-0.1,0-0.2,0-0.2-0.1c-1.7,5.4-3.4,10.7-5.2,16.1c-1.6,4.9-3.1,9.9-4.7,14.8c-0.3,1.1-2.2,1.8-3.6,1.4
				c-0.7-0.2-1.3-0.3-1.8-0.4c0.4-1,0.8-2.2,1.4-3.3c4.6-8.3,7.9-17.2,11.8-25.8c0.1-0.3,0.2-0.5,0.1-0.9c-1.8,3.6-3.7,7.3-5.5,10.9
				c-3,5.9-5.9,11.8-8.9,17.7c-0.9,1.9-2.6,2-3.9,0.4c-0.1-0.2-0.3-0.3-0.3-0.4c6.1-9.9,12.2-19.7,18.2-29.5
				c-0.1-0.1-0.2-0.1-0.2-0.2c-2,2.9-4,5.8-6,8.7c-4.4,6.4-8.9,12.9-13.3,19.3c-0.9,1.3-1.5,1.4-2.9,0.6c-0.2-0.1-0.4-0.2-0.5-0.3
				c-0.5-0.5-0.9-1-1.1-1.2c7.6-8.9,15.1-17.8,22.6-26.7c-0.1-0.1-0.1-0.1-0.2-0.2c-0.3,0.2-0.5,0.5-0.8,0.7
				c-7.6,8.1-15.2,16.3-22.8,24.4c-0.7,0.8-1.7,0.7-2.5-0.1c-0.8-0.8-0.9-2-0.2-2.7c8.3-7.4,16.6-14.9,24.8-22.3
				c0.1-0.1,0.3-0.3,0.2-0.6c-8.9,7.2-17.8,14.4-26.8,21.6c-1.1-0.7-1.7-1.7-1.9-3c-0.1-0.5-0.4-0.9-0.6-1.3c0.5-0.1,1.2,0,1.6-0.2
				c1.1-0.6,2.1-1.2,3.1-1.9c1.8-1.3,3.6-2.6,5.5-3.8c5.9-3.9,11.8-7.7,17.8-11.6c0.3-0.2,0.6-0.4,0.9-0.7c-0.2-0.1-0.4-0.1-0.5,0
				c-9.3,5.4-18.5,10.8-27.8,16.3C363.4,100.9,363.3,101.5,363,102z M362.4,97c9.5-4.4,19-8.8,28.5-13.3c0-0.1-0.1-0.2-0.1-0.3
				c-0.2,0.1-0.4,0.1-0.6,0.2c-9.1,3.8-18.2,7.6-27.3,11.4C361.9,95.4,362,96,362.4,97z"/>
		</g>
	</g>
	<g id="sE1Q7m_4_">
		<g>
			<path class="st0" d="M659.2,124.5c0.1,1.2,0.1,2.4,0.2,3.6c-1.4,6.6-5.6,11.2-10.7,15.1c-6,4.6-12.7,8-19.9,10.3
				c-3.7,1.2-7.5,2-11.2,3c-2,0.1-4,0.2-6,0.3c-0.2-0.1-0.4-0.2-0.5-0.2c-7.4-0.6-13.6-3.5-18.6-9.2c-4.1-4.7-7-9.9-7.6-16.2
				c-1.6-17,12.2-31.5,29.4-30.7c10.4,0.5,20.1,3.3,29.2,8.1C650.4,112.2,656.6,116.5,659.2,124.5z M587.9,129.6
				c0.1,0.2,0.5,0.6,0.8,1.1c0.3-0.5,0.6-0.9,0.8-1.4c0.1-0.4,0.1-0.8,0.1-1.2c1.3-9.7,5.5-17.4,14.8-21.2c2.9-1.2,6.1-1.4,9.2-2.2
				c0.5-0.1,1-0.7,1.4-1c-0.5-0.2-1-0.6-1.5-0.6C598.9,103.9,589.2,113.9,587.9,129.6z"/>
			<path class="st0" d="M572.5,84.6c1.2-0.1,2.4-0.1,3.6-0.2c10.4,2.5,15.5,10.7,20.5,19.2c-8.5,5.8-13.4,13.6-13.7,23.7
				c-0.4,10.1,3.7,18.4,11.6,25.1c-2.3,1.3-4.3,2.7-6.4,3.6c-2.3,1-4.8,1.6-7.2,2.4c-2,0.1-4,0.2-6,0.3c-0.4-0.1-0.8-0.3-1.1-0.3
				c-11.8-1.1-21.4-9.2-24.6-20.7c-0.3-1-0.6-1.9-0.8-2.9c-0.1-2-0.2-4-0.3-6.1c0.1-0.3,0.3-0.6,0.3-1c0.6-8.8,3-17.1,6.7-25
				C558.9,94.8,563.3,87.4,572.5,84.6z M550.4,131.2c0.1,0.1,0.3,0.1,0.4,0.2c0.1,0.4,0.1,0.8,0.2,1.2c2.1,14.6,13.1,21.9,26.1,22.9
				c0.4,0,0.9-0.5,1.4-0.7c-0.4-0.3-0.7-0.8-1.2-0.9c-1.1-0.2-2.3-0.3-3.4-0.4c-12.3-2.1-20.4-10.5-21.4-22.2c-0.1-1-0.6-1.9-1-2.8
				C551.1,129.3,550.8,130.3,550.4,131.2z"/>
		</g>
	</g>
	<g>
		<path class="st0" d="M536.3,470.6c-1.6-3.5-3.4-6.8-4.9-10.3c-1.4-3.2,0.1-5.5,3.5-6.1c0.6-0.1,1.5-0.6,1.5-0.9
			c0.1-2.3,0.1-4.5-0.2-6.8c-0.1-0.7-1.4-1.8-2.1-1.8c-4-0.2-8.1-0.1-12.3-0.1c0,0.9,0,1.6,0,2.3c0,7.1,0,14.2,0,21.3
			c0,0.9-0.1,1.9-0.4,2.8c-0.6,2-2.6,3.3-4.6,3.2c-2.1-0.1-3.8-1.5-4.3-3.6c-0.2-0.8-0.2-1.6-0.2-2.4c0-3.4,0.1-6.8-0.1-10.3
			c-0.1-2.4-1.8-3.8-4.1-3.7c-2.2,0.1-3.8,1.7-3.9,4c0,0.8,0,1.6,0,2.4c-0.1,2.5-1.9,4.3-4.1,4.3c-2.3,0-4-1.9-4-4.4
			c0-4.6,0-9.3,0-13.9c0-0.7,0-1.4,0-2.3c-7.2,0-14,0-20.9,0c-1.9,0-3,1.4-3.1,3.3c-0.1,1.4,0,2.8,0,4.2c0,1.3,0.4,2,1.9,2.2
			c3,0.4,4.5,2.8,3.4,5.7c-0.8,2.1-1.8,4-2.8,6c-4.6,8.8-7.5,17.9-5.6,28c2.6,13.8,10.1,23.3,23.8,27.2c2.3,0.7,4.7,1,7,1.5
			c3.1,0,6.1,0,9.2,0c0.6-0.2,1.3-0.4,1.9-0.5c12-1.8,21-7.7,26.1-19.1C541.7,492.2,541.2,481.4,536.3,470.6z M517,488.4
			c-2.3,0.1-4.4-2-4.4-4.3c0-2.3,1.8-4.2,4.1-4.3c2.4-0.1,4.4,1.8,4.4,4.2C521.2,486.2,519.2,488.3,517,488.4z"/>
		<path class="st0" d="M478.6,440.9c0.1,0.4,0.7,0.8,1.1,0.8c2.5,0.1,5,0,7.5,0c-0.1-7.1-8.5-19.2-14.7-21.6
			c-0.9-0.3-1.9-0.5-2.9-0.5c-2.4,0-3.9,1.6-4,4c0,2.3,1,3.9,2.8,5.2C472.8,432.1,476.8,435.5,478.6,440.9z"/>
	</g>
	<g>
		<path class="st0" d="M89.2,66.7c-2.6,0-5.2,0-8,0c0-1.7,0-3.1,0-4.5c-0.1-3.2-2.1-5.3-5-5.3c-2.8,0-4.8,2-5,5
			c-0.1,1.5,0,3.1,0,4.6c-3.3,0-6.2,0-9.4,0c0-1.7,0.1-3.2,0-4.8c-0.2-3-2.3-5-5.2-4.9c-2.8,0.1-4.8,2.2-4.9,5.2c0,1.4,0,2.9,0,4.6
			c-2.9,0-5.5-0.1-8.2,0c-2.4,0.1-3,1-2.4,3.3c1,3.7,3,6.8,6.5,8.7c1.2,0.6,1.4,1.4,1.4,2.5c0,6.5-0.1,12.9,0,19.4
			c0,5.6,3.1,9.6,8.3,11.2c0.7,0.2,1.5,1,1.7,1.7c1.3,3.6,3.9,5.8,7.4,5.8c3.6,0,6.3-2.2,7.4-6c0.2-0.6,0.8-1.3,1.4-1.5
			c5.9-2,8.5-5.6,8.5-11.9c0-6.2,0-12.5,0-18.7c0-1.2,0.3-1.9,1.4-2.5c3.5-1.8,5.5-4.9,6.6-8.6C92.5,67.8,91.7,66.8,89.2,66.7z
			 M75,62.2c0-0.5,0.7-0.9,1-1.3c0.4,0.4,1.2,0.9,1.2,1.3c0.2,1.4,0.1,2.8,0.1,4.5c-0.9,0-1.5,0-2.4,0C75,65.1,74.9,63.6,75,62.2z
			 M74.7,84.7c1.2,0,2.1,1,2.1,2.1s-1,2.1-2.1,2.1c-1.2,0-2.1-1-2.1-2.1S73.5,84.7,74.7,84.7z M55.6,62.2c0.1-0.5,0.8-1,1.2-1.4
			c0.4,0.5,1.1,0.9,1.2,1.4c0.2,1.4,0.1,2.8,0.1,4.3c-0.9,0-1.5,0-2.5,0C55.5,65,55.4,63.6,55.6,62.2z M66.7,115.5
			c-2,0.1-3.3-1-3.9-3.2c2.6,0,4.9,0,7.3,0C69.8,114.4,68.5,115.4,66.7,115.5z M79.9,101.8c-0.3,3.6-3.2,6.5-7,6.6
			c-4.3,0.1-8.6,0.1-12.8,0c-4.1-0.1-7.2-3.3-7.2-7.5c0-7.1-0.1-14.2,0-21.3c0-1.9-0.4-3-2.4-3.7c-2.4-0.8-4-2.6-5.1-5.2
			c6.4,0,12.4,0,18.6,0C63.8,83,67.7,92.8,80,97.8C80,99.1,80,100.4,79.9,101.8z"/>
		<path class="st0" d="M59.2,84.7c1.2,0,2.1,1,2.1,2.1s-1,2.1-2.1,2.1C58,89,57,88,57,86.8S58,84.7,59.2,84.7z"/>
	</g>
	<g id="r565g1_1_">
		<g>
			<path class="st0" d="M88.3,117.8c1.3-1.8,2.5-3.6,3.9-5.2c0.5-0.7,0.7-1.1,0.4-2c-1.6-4.2,0-7.1,4.3-8.1c0.5-0.1,0.9-0.5,1.3-0.9
				c2.4-2.3,5.5-2.4,8-0.2c0.4,0.4,1,0.8,1.5,0.7c3.8,0,7,3.8,5.1,8.3c-0.8,1.9-0.8,3.2,0.3,5c0.9,1.4,1.3,3.2,1.4,4.8
				c0.6,5.8,4.6,10.5,10.1,11.4c3.1,0.5,4.9-0.3,6.4-3.1c1.3-2.5,2.3-5.1,3.8-7.4c3.2-5.2,7.7-8.5,13.9-9.1c5.3-0.6,13.6,2,15.9,8.8
				c0,1.5,0,3,0,4.5c-0.8,2-2,3.6-4,4.6c-0.4,0.2-0.6,0.9-0.7,1.3c-0.3,3.8-2.3,6.4-5.9,7.6c-0.9,0.3-1.4,0.7-1.6,1.7
				c-0.7,2.8-2.2,4.9-4.9,6c-0.9,0.4-1.2,1-1.4,1.9c-0.8,4.6-2.3,9-4.9,12.9c-7.9,11.6-23.2,12.2-32.8,5.5
				c-8.6-6-12.3-14.4-11.3-24.9c0.2-1.8,0.2-3.6,0.4-5.5c-0.4,0-0.7-0.1-0.9-0.1c-4.9,0.1-7.7-4-5.8-8.5c0.5-1.2,1.3-2.4,1.9-3.5
				c0.3-0.5,0.5-0.9,0.9-1.6c-2.1-0.4-4.2-0.5-5.2-2.5C88.3,119.4,88.3,118.6,88.3,117.8z M92.4,118.7c2.7-0.1,4.7,0.7,5.9,3.1
				c0.4,0.8,0.7,1.5,1,2.3c1.6,5.2,2.1,10.5,1.6,15.9c-0.2,2.6-0.3,5.3-0.1,7.9c1.1,12.7,13.8,21.9,26.1,18.9
				c7.2-1.7,11.6-6.5,13.9-13.2c1-2.8,1.4-5.9,2-8.9c0.2-0.9,0.4-1.5,1.5-1.5c3.4,0,5.2-3.2,3.9-6.4c-0.2-0.4-0.2-1.1,0-1.4
				c0.2-0.3,0.8-0.4,1.3-0.4c0.6,0,1.3,0.3,1.9,0.3c1.9,0,3.3-0.9,4.2-2.6c0.8-1.6,0.2-2.8-1-4c-0.3-0.3-0.5-1-0.3-1.3
				c0.2-0.4,0.8-0.6,1.3-0.8c0.3-0.1,0.7,0.1,1,0.1c2.1,0.2,4-1.1,4.2-2.9c0.3-1.7-0.1-3.2-1.4-4.5c-2.2-2.3-4.9-3.5-8-3.7
				c-6.2-0.5-10.6,2.4-13.7,7.5c-1.4,2.4-2.5,5-3.8,7.4c-1.7,3.3-4.5,4.9-8.2,4.8c-7.6-0.1-14.1-6.5-14.8-14.7
				c-0.4-4.4-3.6-8.2-7.2-8.6C98.9,111.5,94.2,114.1,92.4,118.7z M109.7,108.5c0.1-2.2-1.4-3.1-2.9-2.3c-1.8,1-1.8,0.9-2.6-1.1
				c-0.3-0.7-1.1-1.4-1.7-1.5c-0.6,0-1.7,0.7-1.9,1.2c-0.5,1.7-1.2,2.2-2.9,1.4c-0.4-0.2-1.7,0.4-1.7,0.7c-0.1,1,0.1,2,0.4,2.9
				c0.1,0.2,1,0.4,1.5,0.3c3.3-0.8,6.4-0.9,9.5,0.8c0.3,0.2,1.1,0,1.2-0.2C109.1,109.9,109.4,109,109.7,108.5z M97.2,125
				c-0.2-0.1-0.5-0.1-0.7-0.2c-0.8,1.7-1.9,3.4-2.5,5.3c-0.5,1.4,0.5,2.6,1.8,2.6c1.2,0,2.6-1.3,2.4-2.5
				C98,128.4,97.6,126.7,97.2,125z"/>
			<path class="st0" d="M101.9,119.4c-1.2,0-2.1-0.8-2.1-2c0-1.1,0.8-2,1.9-2c1.2,0,2.1,0.9,2.1,2
				C103.8,118.5,103,119.3,101.9,119.4z"/>
		</g>
	</g>
	<g>
		<g>
			<path class="st0" d="M151.2,521c0-30.9,0-61.2,0-91.4c10.8,0,21.5,0,32.4,0c0,31.6,0,62.6,0,94.4C172.8,523,162.2,522,151.2,521z
				"/>
			<path class="st0" d="M185.9,523.8c0-31.4,0-62.5,0-94c5.2-0.9,10.3-1.9,15.7-2.8c0.2,1.3,0.4,2.3,0.4,3.4c0,28.9,0,57.7,0.1,86.6
				c0,3.2-0.9,4.6-4.1,5C194,522.3,190.1,523.1,185.9,523.8z"/>
			<path class="st0" d="M192.3,417.6c-3,4-4.8,6.6-6.9,9c-0.6,0.7-1.8,1.3-2.8,1.3c-10.2,0.1-20.4,0.1-31.5,0.1
				c4.3-6.4,7.2-11.8,15.9-10.6C174.8,418.5,182.9,417.6,192.3,417.6z"/>
			<path class="st0" d="M193.1,408.7c0,2.6,0,4.8,0,7.2c-10.8,0-21.7,0-32.8,0c0-2.6,0-4.7,0-7.2
				C171.2,408.7,181.8,408.7,193.1,408.7z"/>
			<path class="st0" d="M200.5,425.6c-4.9,0.9-9.1,1.6-14.2,2.5c2.9-3.8,5.3-6.8,7.9-10.3C196.3,420.4,198.1,422.7,200.5,425.6z"/>
		</g>
	</g>
	<g>
		<g>
			<path class="st0" d="M300.1,486c-1.5-0.7-2-1.9-2.1-3.4c-0.1-1.6,0.5-2.9,2-3.7c0.4-0.2,0.9-0.6,1-1c0.1-2.2,0-4.4,0-6.8
				c-27.4,4-54.5,8-81.6,12c0,0.6-0.1,1-0.1,1.3c0.1,1.6-0.4,3.3,1.4,4.6c1.1,0.8,0.6,2.3-0.7,3.2c-1.3,1-1.1,4.1,0.3,4.9
				c2.5,1.5,2.5,4.5-0.1,6c-0.4,0.2-1,0.6-1,0.9c-0.1,2.4,0,4.8,0,7.4c27.3-3.7,54.4-7.4,81.8-11.1c0-4.5,0-8.9,0-13.2
				C301,486.8,300.5,486.2,300.1,486z M232.4,496.3c-2.6-0.1-4.7-2.3-4.7-4.9c0-2.7,2.2-4.9,4.9-4.8c2.7,0,4.8,2.2,4.7,5
				C237.3,494.2,235,496.4,232.4,496.3z M245,504.5c-2.1,0-3.6-1.5-3.7-3.6c0-2,1.6-3.7,3.6-3.7c1.9,0,3.7,1.7,3.7,3.6
				C248.6,502.8,247,504.5,245,504.5z M256.9,493c-3,0-5.3-2.4-5.3-5.4c0-3,2.5-5.5,5.5-5.5c2.9,0,5.3,2.5,5.4,5.4
				C262.4,490.6,259.9,493,256.9,493z M268.3,500.4c-2.3,0-4.1-1.9-4-4.2c0-2.3,2-4.1,4.2-4c2.3,0.1,4,2,3.9,4.3
				C272.3,498.7,270.5,500.4,268.3,500.4z M278.6,486c-1.7,0-3-1.4-3-3.1c0-1.6,1.5-3.1,3.1-3c1.7,0,3,1.4,3,3.1
				C281.6,484.7,280.3,486,278.6,486z M288.3,495.9c-2.1,0-3.7-1.7-3.7-3.8c0-2.2,1.7-3.9,3.8-3.9c2,0,3.7,1.8,3.8,3.8
				C292.2,494.2,290.4,496,288.3,495.9z"/>
			<path class="st0" d="M222.3,480.9c25.3-3.9,50.6-7.9,75.8-11.8c3.3-0.5,3.6-1.1,1.9-4.1c-0.2-0.4-0.4-0.8-0.7-1.1
				c-3.4-3.4-6.6-7.1-10.3-10.2c-3.1-2.5-6.7-4.4-10.1-6.5c-1.5-0.9-3-0.7-4.6,0.3c-17.4,10.8-34.8,21.5-52.3,32.2
				c-0.5,0.3-1,0.7-1.5,1c0,0.1,0.1,0.2,0.1,0.3C221.1,480.9,221.7,481,222.3,480.9z"/>
		</g>
	</g>
	<g>
		<g id="p6C9M1_1_">
			<g>
				<path class="st0" d="M141,90.3c0,1.4-0.8,2.6-1.8,2.6c-1,0-1.8-1.2-1.8-2.6c0-1.4,0.8-2.5,1.7-2.5C140.2,87.7,141,88.8,141,90.3
					z"/>
				<path class="st0" d="M133.2,90.7c-0.1,0.2-0.1,0.8-0.4,1.2c-0.3,0.4-0.9,0.9-1.4,0.9c-0.5,0-1.1-0.5-1.4-0.9
					c-0.3-0.4-0.4-1.1-0.4-1.6c0-1.4,0.8-2.5,1.7-2.5C132.4,87.7,133.2,88.8,133.2,90.7z"/>
			</g>
		</g>
		<path class="st0" d="M159.6,64.1c-4.9-3.3-9.8-3.6-14.1-0.7c-0.5,0.3-1.3,0.6-1.8,0.4c-4.8-1.4-9.7-1.6-14.5-0.4
			c-2,0.5-3.6,0.7-5.2-0.7c-0.2-0.2-0.6-0.3-0.9-0.4c-7.6-3-17.1,3.4-17.5,11.8c-0.2,4.3,2.3,7.5,6.1,7.9c4.4,0.4,7.2-1.9,7.6-6.7
			c0.2-2.1-0.1-4.3-0.1-6.4c0-0.3,0.3-0.7,0.4-1c0.2,0.3,0.7,0.6,0.7,0.9c0,2.7,0.3,5.4-0.1,8.1c-0.5,3.6-3,5.8-6.5,6.3
			c-0.5,0.1-1.2,0.6-1.4,1.1c-2.1,4.8-0.8,10.5,3.5,14.6c5.5,5.2,12.3,6.9,19.9,7.1c1.1-0.1,2.5-0.1,3.9-0.3
			c5.8-0.7,11.1-2.7,15.4-6.8c4.2-4.1,5.6-9.6,3.6-14.5c-0.3-0.7-0.6-1.1-1.5-1.2c-3.4-0.4-5.9-2.5-6.4-5.9
			c-0.4-2.8-0.2-5.7-0.2-8.5c0-0.3,0.4-0.6,0.7-0.9c0.1,0.4,0.4,0.7,0.4,1.1c0,2.4-0.2,4.9,0,7.3c0.3,3.5,2.8,5.8,6.2,5.9
			c3.8,0.1,6.5-1.9,7.2-5.4C166,72.2,163.7,66.9,159.6,64.1z M124.5,76.1c0-1.1,0.9-1.9,1.9-1.9s1.9,0.9,1.9,1.9
			c0,1.1-0.9,1.9-1.9,1.9S124.5,77.1,124.5,76.1z M143.4,92.8c-4,2.9-11.8,2.9-15.9,0c-2.6-1.9-2.6-4.2,0.1-6.1
			c2.4-1.6,5.1-2.1,9.1-2.1c1.6,0,4.3,0.5,6.6,2.2C145.9,88.7,145.9,90.9,143.4,92.8z M144.3,78c-1.1,0-1.9-0.9-1.9-1.9
			c0-1.1,0.9-1.9,1.9-1.9c1.1,0,1.9,0.9,1.9,1.9C146.3,77.1,145.4,78,144.3,78z"/>
	</g>
	<path class="st1" d="M354,26.6c-148,0-268,120-268,268s120,268,268,268s268-120,268-268S502,26.6,354,26.6z M101.5,294.6
		c0-66.5,25.9-127.1,68-172.2L526.2,479c-45.1,42.2-105.7,68-172.2,68C214.8,547.1,101.5,433.8,101.5,294.6z M538.5,466.8
		L181.8,110.1C227,68,287.5,42.1,354,42.1c139.2,0,252.5,113.3,252.5,252.5C606.5,361.1,580.7,421.6,538.5,466.8z"/>
</g>
<g id="レイヤー_3">
</g>
<g id="hashtag">
</g>
<g id="レイヤー_6">
</g>
<g id="レイヤー_7">
</g>
<g id="_x23_">
</g>
<g id="tag_x5F_txt">
</g>
</svg>
