<?xml version="1.0" encoding="utf-8"?>
<!-- Generator: Adobe Illustrator 22.1.0, SVG Export Plug-In . SVG Version: 6.00 Build 0)  -->
<svg version="1.1" xmlns="http://www.w3.org/2000/svg" xmlns:xlink="http://www.w3.org/1999/xlink" x="0px" y="0px"
	 viewBox="0 0 265 199" style="enable-background:new 0 0 265 199;" xml:space="preserve">
<style type="text/css">
	.st0{fill:#FFFFFF;}
	.st1{fill:#3EBCC2;}
	.st2{fill:#595757;}
	.st3{fill:#69B32D;}
	.st4{fill:#5DAAD8;}
	.st5{fill:#EDA6C5;}
	.st6{fill:#0A9C91;}
	.st7{fill:none;stroke:#FFFFFF;stroke-width:0.4192;stroke-miterlimit:10;}
	.st8{opacity:0.1;}
	.st9{opacity:0.3;}
	.st10{fill:url(#SVGID_1_);}
	.st11{fill:#727272;}
	.st12{fill:#69B22D;}
	.st13{fill:#459543;}
	.st14{fill:#1B1B1B;}
	.st15{fill:#643231;}
	.st16{fill:none;stroke:#595757;stroke-width:0.8944;stroke-miterlimit:10;}
	.st17{fill:#A3A3A3;}
	.st18{fill:none;stroke:#A3A3A3;stroke-miterlimit:10;}
	.st19{fill:#E96447;}
	.st20{fill:#365FA8;}
	.st21{fill:#A961A0;}
	.st22{fill:#F1BC1B;}
	.st23{fill:#69B42D;}
	.st24{fill:#EDA6C5;stroke:#E5A2BF;stroke-width:1.5;stroke-linecap:round;stroke-linejoin:round;stroke-miterlimit:10;}
	.st25{fill:none;stroke:#FFFFFF;stroke-width:8;stroke-miterlimit:10;}
	.st26{fill:none;stroke:#FFFFFF;stroke-width:8;stroke-linecap:round;stroke-linejoin:round;stroke-miterlimit:10;}
	.st27{fill:#0A9D92;stroke:#11968C;stroke-width:1.1728;stroke-linejoin:round;stroke-miterlimit:10;}
</style>
<g id="レイヤー_2">
</g>
<g id="レイヤー_1">
	<g>
		<path class="st2" d="M0,122.5c0-0.3,0.2-0.5,0.5-0.5h5.6c0.3,0,0.5,0.2,0.5,0.5v13c0,0.2,0.1,0.3,0.3,0.3h4.8
			c0.2,0,0.3-0.1,0.3-0.3v-13c0-0.3,0.2-0.5,0.5-0.5H18c0.3,0,0.5,0.2,0.5,0.5v33.2c0,0.3-0.2,0.5-0.5,0.5h-5.6
			c-0.3,0-0.5-0.2-0.5-0.5V142c0-0.2-0.1-0.3-0.3-0.3H6.9c-0.2,0-0.3,0.1-0.3,0.3v13.7c0,0.3-0.2,0.5-0.5,0.5H0.5
			c-0.3,0-0.5-0.2-0.5-0.5V122.5z"/>
		<path class="st2" d="M24.7,150.9c-0.6-1.6-0.7-3-0.7-11.8c0-8.8,0.2-10.2,0.7-11.8c1.3-3.8,4.3-5.8,8.7-5.8s7.5,2,8.7,5.8
			c0.6,1.6,0.7,3,0.7,11.8c0,8.8-0.2,10.2-0.7,11.8c-1.3,3.8-4.3,5.8-8.7,5.8S26,154.6,24.7,150.9z M35.9,149
			c0.3-0.8,0.4-1.7,0.4-10s-0.1-9.2-0.4-10c-0.3-1-1.2-1.7-2.4-1.7s-2.1,0.7-2.4,1.7c-0.3,0.8-0.4,1.7-0.4,10s0.1,9.2,0.4,10
			c0.3,1,1.2,1.7,2.4,1.7S35.6,150,35.9,149z"/>
		<path class="st2" d="M65.2,156.2c-0.3,0-0.5-0.2-0.5-0.5l-3.1-20.3h-0.1l-3.2,20.3c-0.1,0.3-0.3,0.5-0.6,0.5H53
			c-0.3,0-0.5-0.2-0.6-0.5l-5.5-33.2c-0.1-0.3,0.1-0.5,0.5-0.5H53c0.3,0,0.5,0.2,0.6,0.5l2.3,21.1h0.1l3.2-21.1
			c0.1-0.4,0.3-0.5,0.6-0.5h3.8c0.3,0,0.5,0.2,0.6,0.5l3.2,21.1h0.2l2.3-21.1c0.1-0.4,0.3-0.5,0.6-0.5h5.6c0.4,0,0.5,0.2,0.4,0.5
			l-5.5,33.2c-0.1,0.3-0.3,0.5-0.6,0.5H65.2z"/>
		<path class="st2" d="M98.1,156.2c-0.3,0-0.5-0.2-0.5-0.5v-27.5c0-0.2-0.1-0.3-0.3-0.3h-5.4c-0.3,0-0.5-0.2-0.5-0.5v-4.9
			c0-0.3,0.2-0.5,0.5-0.5h17.9c0.3,0,0.5,0.2,0.5,0.5v4.9c0,0.3-0.2,0.5-0.5,0.5h-5.4c-0.2,0-0.3,0.1-0.3,0.3v27.5
			c0,0.3-0.2,0.5-0.5,0.5H98.1z"/>
		<path class="st2" d="M115.5,150.9c-0.6-1.6-0.7-3-0.7-11.8c0-8.8,0.2-10.2,0.7-11.8c1.3-3.8,4.3-5.8,8.7-5.8s7.5,2,8.7,5.8
			c0.6,1.6,0.7,3,0.7,11.8c0,8.8-0.2,10.2-0.7,11.8c-1.3,3.8-4.3,5.8-8.7,5.8S116.7,154.6,115.5,150.9z M126.6,149
			c0.3-0.8,0.4-1.7,0.4-10s-0.1-9.2-0.4-10c-0.3-1-1.2-1.7-2.4-1.7s-2.1,0.7-2.4,1.7c-0.3,0.8-0.4,1.7-0.4,10s0.1,9.2,0.4,10
			c0.3,1,1.2,1.7,2.4,1.7S126.3,150,126.6,149z"/>
		<path class="st2" d="M151.8,150.9c-0.6-1.6-0.7-3-0.7-11.8c0-8.8,0.2-10.2,0.7-11.8c1.3-3.8,4.3-5.8,8.7-5.8s7.5,2,8.7,5.8
			c0.6,1.6,0.7,3,0.7,11.8c0,8.8-0.2,10.2-0.7,11.8c-1.3,3.8-4.3,5.8-8.7,5.8S153.1,154.6,151.8,150.9z M163,149
			c0.3-0.8,0.4-1.7,0.4-10s-0.1-9.2-0.4-10c-0.3-1-1.2-1.7-2.4-1.7s-2.1,0.7-2.4,1.7c-0.3,0.8-0.4,1.7-0.4,10s0.1,9.2,0.4,10
			c0.3,1,1.2,1.7,2.4,1.7S162.7,150,163,149z"/>
		<path class="st2" d="M188.7,156.2c-0.3,0-0.5-0.1-0.6-0.4l-3.9-13h-1.9c-0.2,0-0.3,0.1-0.3,0.3v12.6c0,0.3-0.2,0.5-0.5,0.5H176
			c-0.3,0-0.5-0.2-0.5-0.5v-33.2c0-0.3,0.2-0.5,0.5-0.5h8.1c6.1,0,10,2.9,10,10.5c0,4.3-1.5,7.1-3.8,8.7l4.7,14.5
			c0.1,0.3,0,0.5-0.3,0.5H188.7z M187.5,132.5c0-3.6-1.1-4.7-3.7-4.7h-1.5c-0.2,0-0.3,0.1-0.3,0.3v8.7c0,0.2,0.1,0.3,0.3,0.3h1.5
			C186.4,137.1,187.5,136.1,187.5,132.5z"/>
		<path class="st2" d="M200,122.5c0-0.3,0.2-0.5,0.5-0.5h8.6c4.7,0,7.5,1.8,8.7,5.7c0.6,1.9,0.9,4.2,0.9,11.4
			c0,7.2-0.3,9.5-0.9,11.4c-1.3,3.9-4,5.7-8.7,5.7h-8.6c-0.3,0-0.5-0.2-0.5-0.5V122.5z M206.8,150.3h1.6c1.7,0,2.6-0.6,3.1-2.1
			c0.4-1.1,0.6-2.5,0.6-9s-0.2-8-0.6-9c-0.5-1.5-1.4-2.1-3.1-2.1h-1.6c-0.2,0-0.3,0.1-0.3,0.3v21.7
			C206.5,150.2,206.6,150.3,206.8,150.3z"/>
		<path class="st2" d="M224.2,122.5c0-0.3,0.2-0.5,0.5-0.5h14.9c0.3,0,0.5,0.2,0.5,0.5v4.9c0,0.3-0.2,0.5-0.5,0.5h-8.5
			c-0.2,0-0.3,0.1-0.3,0.3v7.4c0,0.2,0.1,0.3,0.3,0.3h7.4c0.3,0,0.5,0.2,0.5,0.5v4.9c0,0.3-0.2,0.5-0.5,0.5h-7.4
			c-0.2,0-0.3,0.1-0.3,0.3v7.7c0,0.2,0.1,0.3,0.3,0.3h8.5c0.3,0,0.5,0.2,0.5,0.5v4.9c0,0.3-0.2,0.5-0.5,0.5h-14.9
			c-0.3,0-0.5-0.2-0.5-0.5V122.5z"/>
		<path class="st2" d="M258.5,156.2c-0.3,0-0.5-0.1-0.6-0.4l-3.9-13h-1.9c-0.2,0-0.3,0.1-0.3,0.3v12.6c0,0.3-0.2,0.5-0.5,0.5h-5.6
			c-0.3,0-0.5-0.2-0.5-0.5v-33.2c0-0.3,0.2-0.5,0.5-0.5h8.1c6.1,0,10,2.9,10,10.5c0,4.3-1.5,7.1-3.8,8.7l4.7,14.5
			c0.1,0.3,0,0.5-0.3,0.5H258.5z M257.3,132.5c0-3.6-1.1-4.7-3.7-4.7h-1.5c-0.2,0-0.3,0.1-0.3,0.3v8.7c0,0.2,0.1,0.3,0.3,0.3h1.5
			C256.1,137.1,257.3,136.1,257.3,132.5z"/>
		<path class="st2" d="M28.6,198.3c-0.3,0-0.5-0.2-0.6-0.5l-6.8-33.2c-0.1-0.3,0.1-0.5,0.4-0.5h5.7c0.3,0,0.5,0.2,0.6,0.5l3.5,21.6
			h0.2l3.3-21.6c0.1-0.4,0.3-0.5,0.6-0.5h5.6c0.4,0,0.5,0.2,0.4,0.5l-6.8,33.2c-0.1,0.3-0.2,0.5-0.5,0.5H28.6z"/>
		<path class="st2" d="M46.2,164.6c0-0.3,0.2-0.5,0.5-0.5h14.9c0.3,0,0.5,0.2,0.5,0.5v4.9c0,0.3-0.2,0.5-0.5,0.5H53
			c-0.2,0-0.3,0.1-0.3,0.3v7.4c0,0.2,0.1,0.3,0.3,0.3h7.4c0.3,0,0.5,0.2,0.5,0.5v4.9c0,0.3-0.2,0.5-0.5,0.5H53
			c-0.2,0-0.3,0.1-0.3,0.3v7.7c0,0.2,0.1,0.3,0.3,0.3h8.5c0.3,0,0.5,0.2,0.5,0.5v4.9c0,0.3-0.2,0.5-0.5,0.5H46.7
			c-0.3,0-0.5-0.2-0.5-0.5V164.6z"/>
		<path class="st2" d="M66.8,181.2c0-8.8,0.2-10.2,0.7-11.8c1.3-3.7,4.2-5.7,8.8-5.7c5.5,0,8.7,3,9.2,8.5c0.1,0.3-0.1,0.6-0.4,0.6
			l-5.3,0.9c-0.3,0-0.5-0.1-0.6-0.5c-0.2-2.5-1.2-3.6-2.9-3.6c-1.2,0-2.2,0.7-2.5,1.6c-0.3,0.8-0.3,1.2-0.3,10c0,8.7,0.1,9.2,0.3,10
			c0.3,1,1.4,1.7,2.6,1.7s2.3-0.7,2.6-1.7c0.2-0.7,0.3-1.2,0.3-6.2c0-0.2-0.1-0.3-0.3-0.3h-2.2c-0.3,0-0.5-0.2-0.5-0.5v-4.4
			c0-0.3,0.2-0.5,0.5-0.5h8.3c0.3,0,0.5,0.2,0.5,0.5v1.5c0,8.8-0.2,10.2-0.7,11.8c-1.3,3.8-4.2,5.8-8.7,5.8c-4.6,0-7.5-2-8.8-5.7
			C66.9,191.4,66.8,190,66.8,181.2z"/>
		<path class="st2" d="M96.7,164.6c0.1-0.3,0.3-0.5,0.6-0.5h5.9c0.3,0,0.5,0.2,0.6,0.5l7.3,33.2c0.1,0.3-0.1,0.5-0.4,0.5h-5.6
			c-0.4,0-0.5-0.2-0.6-0.5l-1.1-6.2h-6.5l-1.2,6.2c-0.1,0.3-0.2,0.5-0.6,0.5h-5.6c-0.3,0-0.5-0.2-0.4-0.5L96.7,164.6z M102.5,186.3
			l-2.2-11.9h-0.2l-2.3,11.9H102.5z"/>
		<path class="st2" d="M115.8,164.6c0-0.3,0.2-0.5,0.5-0.5h6.3c0.4,0,0.6,0.2,0.7,0.5L129,186h0.3v-21.5c0-0.3,0.2-0.5,0.5-0.5h4.8
			c0.3,0,0.5,0.2,0.5,0.5v33.2c0,0.3-0.2,0.5-0.5,0.5h-6c-0.4,0-0.6-0.2-0.7-0.5l-5.9-21.5h-0.3v21.5c0,0.3-0.2,0.5-0.5,0.5h-4.8
			c-0.3,0-0.5-0.2-0.5-0.5V164.6z"/>
		<path class="st2" d="M153.4,164.6c0-0.3,0.2-0.5,0.5-0.5h14.9c0.3,0,0.5,0.2,0.5,0.5v4.9c0,0.3-0.2,0.5-0.5,0.5h-8.5
			c-0.2,0-0.3,0.1-0.3,0.3v7.7c0,0.2,0.1,0.3,0.3,0.3h7.4c0.3,0,0.5,0.2,0.5,0.5v5c0,0.3-0.2,0.5-0.5,0.5h-7.4
			c-0.2,0-0.3,0.1-0.3,0.3v13.1c0,0.3-0.2,0.5-0.5,0.5h-5.6c-0.3,0-0.5-0.2-0.5-0.5V164.6z"/>
		<path class="st2" d="M174.6,192.9c-0.6-1.6-0.7-3-0.7-11.8c0-8.8,0.2-10.2,0.7-11.8c1.3-3.8,4.3-5.8,8.7-5.8s7.5,2,8.7,5.8
			c0.6,1.6,0.7,3,0.7,11.8c0,8.8-0.2,10.2-0.7,11.8c-1.3,3.8-4.3,5.8-8.7,5.8S175.9,196.7,174.6,192.9z M185.8,191.1
			c0.3-0.8,0.4-1.7,0.4-10s-0.1-9.2-0.4-10c-0.3-1-1.2-1.7-2.4-1.7s-2.1,0.7-2.4,1.7c-0.3,0.8-0.4,1.7-0.4,10s0.1,9.2,0.4,10
			c0.3,1,1.2,1.7,2.4,1.7S185.5,192.1,185.8,191.1z"/>
		<path class="st2" d="M198.6,192.9c-0.6-1.6-0.7-3-0.7-11.8c0-8.8,0.2-10.2,0.7-11.8c1.3-3.8,4.3-5.8,8.7-5.8s7.5,2,8.7,5.8
			c0.6,1.6,0.7,3,0.7,11.8c0,8.8-0.2,10.2-0.7,11.8c-1.3,3.8-4.3,5.8-8.7,5.8S199.9,196.7,198.6,192.9z M209.8,191.1
			c0.3-0.8,0.4-1.7,0.4-10s-0.1-9.2-0.4-10c-0.3-1-1.2-1.7-2.4-1.7s-2.1,0.7-2.4,1.7c-0.3,0.8-0.4,1.7-0.4,10s0.1,9.2,0.4,10
			c0.3,1,1.2,1.7,2.4,1.7S209.5,192.1,209.8,191.1z"/>
		<path class="st2" d="M222.3,164.6c0-0.3,0.2-0.5,0.5-0.5h8.6c4.7,0,7.5,1.8,8.7,5.7c0.6,1.9,0.9,4.2,0.9,11.4
			c0,7.2-0.3,9.5-0.9,11.4c-1.3,3.9-4,5.7-8.7,5.7h-8.6c-0.3,0-0.5-0.2-0.5-0.5V164.6z M229.2,192.3h1.6c1.7,0,2.6-0.6,3.1-2.1
			c0.4-1.1,0.6-2.5,0.6-9s-0.2-8-0.6-9c-0.5-1.5-1.4-2.1-3.1-2.1h-1.6c-0.2,0-0.3,0.1-0.3,0.3V192
			C228.9,192.2,229,192.3,229.2,192.3z"/>
	</g>
	<circle class="st4" cx="132.4" cy="52.4" r="52.4"/>
	<polygon class="st4" points="140.7,22.2 123.3,19.8 105.3,68.2 120.9,83.2 135.2,87.3 147.1,84 164.6,29.6 	"/>
	<path class="st0" d="M150.3,43.1c-0.7-0.1-4.4-1-7.6,1.5c0,0-0.7-9.8-14.2-15c-0.5,1.2-0.6,4.6,1.9,7c2.4,2.4,6.9,5.7,9.3,6.8
		c2.4,1.2,2.9,2.9,2.9,2.9s-1,2.3-1.6,2.8c-0.6,0.5-0.5,1.8,0.6,1c1.1-0.8,2-3,2-3.8c1,0.1,4.2,0.5,8.1-2.6
		C152.3,43,150.9,43.2,150.3,43.1z M139.1,41.2c-0.3-0.5-0.8-1.1-2.1-2.3c-1.1-1-1.2-1-3.5-2.9c-0.8-0.7-0.2-0.4,0.1-0.2
		c2.4,1.9,3.2,2.5,4.3,3.5c0.6,0.6,0.9,0.9,1.2,1.4C139.4,41.6,139.3,41.4,139.1,41.2z M147.9,44.3c0,0-2.1,0.6-2.5,0.7
		c-0.4,0.1-1.1,0.4-0.7,0.2c1.1-0.7,3-1,3-1C148.1,44.2,147.9,44.3,147.9,44.3z"/>
	<g>
		<path class="st0" d="M123.2,49.1l2.3,0.9l-0.1,0.4l-1.9-0.7l-0.5,1.2l1.8,0.7l-0.1,0.4l-1.8-0.7l-0.6,1.5l1.8,0.7l-0.1,0.4
			l-2.2-0.8L123.2,49.1z"/>
		<path class="st0" d="M125.4,54.4l1.5-3.9l0.1,0l1.5,4l1.1-3l0.4,0.1l-1.5,3.9l-0.1,0l-1.5-4l-1.1,3L125.4,54.4z"/>
		<path class="st0" d="M132.9,52.8l0.4,0.1l-1,2.7c-0.2,0.4-0.3,0.7-0.4,0.8c-0.1,0.1-0.3,0.2-0.5,0.3c-0.2,0-0.4,0-0.6-0.1
			c-0.2-0.1-0.3-0.2-0.4-0.3c-0.1-0.1-0.3-0.3-0.4-0.5l0.3-0.2c0.2,0.2,0.3,0.4,0.4,0.5c0.1,0.1,0.2,0.1,0.2,0.2c0.1,0,0.2,0,0.3,0
			c0.1,0,0.2-0.1,0.3-0.2s0.2-0.3,0.3-0.6L132.9,52.8z"/>
		<path class="st0" d="M136.9,54.2c0.6,0.2,1,0.6,1.3,1.2c0.2,0.5,0.3,1.1,0,1.7c-0.2,0.6-0.6,1-1.2,1.2c-0.6,0.2-1.1,0.3-1.7,0
			c-0.6-0.2-1-0.6-1.2-1.2c-0.3-0.6-0.3-1.1-0.1-1.7c0.1-0.4,0.4-0.7,0.7-0.9c0.3-0.3,0.6-0.4,1-0.5C136.1,54,136.5,54.1,136.9,54.2
			z M136.8,54.6c-0.3-0.1-0.6-0.1-0.9-0.1c-0.3,0.1-0.6,0.2-0.8,0.4c-0.2,0.2-0.4,0.5-0.5,0.8c-0.2,0.5-0.2,0.9,0,1.4
			c0.2,0.4,0.5,0.8,1,0.9c0.3,0.1,0.6,0.1,0.9,0.1c0.3,0,0.6-0.2,0.8-0.4c0.2-0.2,0.4-0.5,0.5-0.8c0.1-0.3,0.2-0.6,0.1-0.9
			c0-0.3-0.2-0.6-0.4-0.8C137.3,54.9,137.1,54.7,136.8,54.6z"/>
		<path class="st0" d="M139.9,55.4l0.5,0.2l0.4,2l1.6-1.2l0.5,0.2l-2,1.6L140,60l-0.4-0.1l0.7-1.9L139.9,55.4z"/>
		<path class="st0" d="M119.1,55.7l0.4,0.2l0.1,3.5l2.5-2.5l0.4,0.2l-3.2,3.3l-0.1,0L119.1,55.7z"/>
		<path class="st0" d="M124,57.5l2.3,0.9l-0.1,0.4l-1.9-0.7l-0.5,1.2l1.8,0.7l-0.1,0.4l-1.8-0.7l-0.6,1.5l1.8,0.7l-0.1,0.4l-2.2-0.8
			L124,57.5z"/>
		<path class="st0" d="M131.2,61l-0.4,0.2c-0.1-0.3-0.3-0.6-0.5-0.8c-0.2-0.2-0.5-0.4-0.7-0.5c-0.3-0.1-0.6-0.2-1-0.1
			c-0.3,0-0.6,0.2-0.9,0.4s-0.4,0.4-0.5,0.7c-0.1,0.3-0.1,0.6-0.1,0.9c0.1,0.3,0.2,0.6,0.4,0.9c0.2,0.3,0.5,0.5,0.8,0.6
			c0.4,0.2,0.8,0.2,1.2,0c0.4-0.1,0.6-0.4,0.8-0.7l-1.3-0.5l0.1-0.4l1.7,0.6c-0.2,0.6-0.6,1-1.1,1.2c-0.5,0.2-1,0.2-1.6,0
			c-0.7-0.3-1.2-0.7-1.4-1.4c-0.2-0.5-0.2-1,0-1.5c0.1-0.4,0.4-0.7,0.7-0.9c0.3-0.3,0.7-0.4,1.1-0.5c0.4-0.1,0.8,0,1.2,0.1
			c0.3,0.1,0.6,0.3,0.9,0.5C130.8,60.3,131,60.6,131.2,61z"/>
		<path class="st0" d="M134.6,61.5l0.3,4.6l-0.4-0.2l-0.1-1.5l-1.7-0.6l-1.1,1.1l-0.4-0.2L134.6,61.5L134.6,61.5z M134.2,62.3
			l-1.2,1.2l1.3,0.5L134.2,62.3z"/>
		<path class="st0" d="M136.2,66.6l1.5-3.9l0.1,0l1.5,4l1.1-3l0.4,0.1l-1.5,3.9l-0.1,0l-1.5-4l-1.1,3L136.2,66.6z"/>
	</g>
	<g>
		<path class="st0" d="M168.8,27.7c-2.8,8.4-5.5,16.9-8.5,25.3c-3,8.4-6.3,16.8-9.6,25.1c-0.8,2.1-2.2,4.1-3.5,6
			c-4.4,6.1-12.8,7.6-19.5,4.7C119.1,84.9,110.5,81,102,77c-5.5-2.6-7.5-7.7-7.3-13.1c0-1.4,0.3-2.9,0.5-4.6c0.6,0.2,1,0.3,1.4,0.5
			c10,4.1,20.1,8.1,30.2,12.2c0.9,0.4,1.2,0.8,1.2,1.8c0,1.6,0.2,3.2,0.6,4.7c1.6,5.9,8,7.7,12.4,3.5c1.6-1.5,3-3.3,3.8-5.3
			c2.7-6.3,5.3-12.7,7.6-19.1c3.2-8.9,6.1-17.9,9.2-26.9c0.1-0.4,0.2-0.8,0.4-1.3c-12.2-2.4-24.3-4.8-36.6-7.3
			c-0.2,0.5-0.4,0.9-0.6,1.3c-4,11-11.3,30.8-15.3,41.8c-0.9,2.6-2.4,3.5-4.2,2.9c-1.7-0.6-2.2-2.3-1.3-4.8
			c4.4-12,12-32.7,16.3-44.7c0.9-2.4,2-3,4.6-2.5c13.4,2.7,26.8,5.4,40.1,8c1.7,0.3,3,1,3.6,2.6C168.8,27.1,168.8,27.4,168.8,27.7z"
			/>
	</g>
	<line class="st7" x1="116.1" y1="61.7" x2="140" y2="71.3"/>
	<line class="st7" x1="122.6" y1="46.1" x2="146.5" y2="55.7"/>
	<circle class="st0" cx="121.3" cy="66.6" r="0.8"/>
	<circle class="st0" cx="126.3" cy="68.6" r="0.8"/>
	<circle class="st0" cx="131.4" cy="70.6" r="0.8"/>
</g>
<g id="レイヤー_3">
</g>
<g id="hashtag">
</g>
<g id="レイヤー_6">
</g>
<g id="レイヤー_7">
</g>
<g id="_x23_">
</g>
<g id="tag_x5F_txt">
</g>
</svg>
