<?xml version="1.0" encoding="utf-8"?>
<!-- Generator: Adobe Illustrator 22.1.0, SVG Export Plug-In . SVG Version: 6.00 Build 0)  -->
<svg version="1.1" id="レイヤー_1" xmlns="http://www.w3.org/2000/svg" xmlns:xlink="http://www.w3.org/1999/xlink" x="0px"
	 y="0px" viewBox="0 0 512 512" style="enable-background:new 0 0 512 512;" xml:space="preserve">
<style type="text/css">
	.st0{fill:#339900;}
	.st1{fill:#FFFFFF;}
</style>
<title>アートボード 1 のコピー 2</title>
<path class="st0" d="M434.6,134.4C409.1,53,339.5-0.6,256,0C172.5-0.6,102.9,53,77.4,134.4c-14.8,47.5-6.6,93.9,10.6,139.3
	c31,82,81.5,151.7,138.3,217.3c11.9,13.8,20.8,20.7,29.6,21c8.9-0.3,17.7-7.2,29.6-21C342.5,425.4,393,355.7,424,273.7
	C441.1,228.3,449.4,181.9,434.6,134.4z"/>
<path class="st1" d="M256,285.8c-58.5-1.6-100.2-44.5-99.6-103c0.6-52,46.5-96.6,99.6-97c53,0.3,99,44.9,99.6,97
	C356.2,241.3,314.5,284.2,256,285.8z"/>
</svg>
