<svg id="レイヤー_1" data-name="レイヤー 1" xmlns="http://www.w3.org/2000/svg" viewBox="0 0 512 512"><defs><style>.cls-1{fill:#390;}</style></defs><title>アートボード 1 のコピー 2</title><path class="cls-1" d="M434.57,134.39C409.12,53,339.47-.61,256,0,172.53-.61,102.88,53,77.43,134.39c-14.84,47.47-6.56,93.9,10.59,139.3,31,82.05,81.5,151.74,138.33,217.32,11.92,13.76,20.8,20.71,29.65,21,8.85-.28,17.73-7.23,29.65-21C342.48,425.43,393,355.74,424,273.69,441.13,228.29,449.41,181.86,434.57,134.39ZM256,285.84c-58.54-1.63-100.2-44.5-99.56-103,.56-52,46.51-96.62,99.56-97,53.05.35,99,44.94,99.56,97C356.2,241.34,314.54,284.21,256,285.84Z"/></svg>