<?xml version="1.0" encoding="utf-8"?>
<!-- Generator: Adobe Illustrator 22.1.0, SVG Export Plug-In . SVG Version: 6.00 Build 0)  -->
<svg version="1.1" xmlns="http://www.w3.org/2000/svg" xmlns:xlink="http://www.w3.org/1999/xlink" x="0px" y="0px"
	 viewBox="0 0 290.2 103.5" style="enable-background:new 0 0 290.2 103.5;" xml:space="preserve">
<style type="text/css">
	.st0{fill:#FFFFFF;}
	.st1{fill:#3EBCC2;}
	.st2{fill:#595757;}
	.st3{fill:#69B32D;}
	.st4{fill:#5DAAD8;}
	.st5{fill:#EDA6C5;}
	.st6{fill:#0A9C91;}
	.st7{fill:none;stroke:#FFFFFF;stroke-width:0.4192;stroke-miterlimit:10;}
	.st8{opacity:0.1;}
	.st9{opacity:0.3;}
	.st10{fill:url(#SVGID_1_);}
	.st11{fill:#727272;}
	.st12{fill:#69B22D;}
	.st13{fill:#459543;}
	.st14{fill:#1B1B1B;}
	.st15{fill:#643231;}
	.st16{fill:none;stroke:#595757;stroke-width:0.8944;stroke-miterlimit:10;}
	.st17{fill:#A3A3A3;}
	.st18{fill:none;stroke:#A3A3A3;stroke-miterlimit:10;}
	.st19{fill:#E96447;}
	.st20{fill:#365FA8;}
	.st21{fill:#A961A0;}
	.st22{fill:#F1BC1B;}
	.st23{fill:#69B42D;}
	.st24{fill:#EDA6C5;stroke:#E5A2BF;stroke-width:1.5;stroke-linecap:round;stroke-linejoin:round;stroke-miterlimit:10;}
	.st25{fill:none;stroke:#FFFFFF;stroke-width:8;stroke-miterlimit:10;}
	.st26{fill:none;stroke:#FFFFFF;stroke-width:8;stroke-linecap:round;stroke-linejoin:round;stroke-miterlimit:10;}
	.st27{fill:#0A9D92;stroke:#11968C;stroke-width:1.1728;stroke-linejoin:round;stroke-miterlimit:10;}
</style>
<g id="レイヤー_2">
</g>
<g id="レイヤー_1">
	<g>
		<g class="st8">
			<path d="M276.5,103.5H19.7C12.1,103.5,6,97.3,6,89.8v-70C6,12.1,12.1,6,19.7,6h256.7c7.6,0,13.7,6.1,13.7,13.7v70
				C290.2,97.3,284,103.5,276.5,103.5z"/>
		</g>
		<g>
			<path class="st23" d="M270.5,97.5H13.7C6.1,97.5,0,91.3,0,83.8v-70C0,6.1,6.1,0,13.7,0h256.7c7.6,0,13.7,6.1,13.7,13.7v70
				C284.2,91.3,278,97.5,270.5,97.5z"/>
		</g>
	</g>
	<g>
		<circle class="st25" cx="61.2" cy="42.7" r="19.5"/>
		<line class="st26" x1="74.4" y1="57" x2="91.7" y2="74.3"/>
	</g>
	<g>
		<path class="st0" d="M121.2,66.1c-6.8,0-10-3.6-10.1-10c0-0.3,0.1-0.5,0.4-0.6l5.9-0.9c0.4-0.1,0.6,0.1,0.6,0.4
			c0.1,3.5,1.1,4.8,3.2,4.8c2,0,3-1,3-4.4c0-3.3-0.7-4.4-3.5-5.5l-2.3-0.9c-5.3-2-7.1-4.8-7.1-10.8c0-6.8,3.2-10.4,9.9-10.4
			c6.5,0,9.6,3.4,9.9,9.3c0,0.3-0.2,0.5-0.5,0.6l-5.6,0.9c-0.3,0.1-0.6-0.1-0.6-0.4c-0.1-2.7-1-4.1-3-4.1c-1.9,0-2.9,1.2-2.9,3.7
			c0,2.8,0.6,3.7,3.5,4.8l2.2,0.9c5.1,2,7.1,4.7,7.1,11C131.5,62.2,128.6,66.1,121.2,66.1z"/>
		<path class="st0" d="M136.3,60.6c-0.5-1.4-0.7-3-0.7-8.2c0-5.2,0.2-6.8,0.7-8.2c1.2-3.6,4-5.6,8.5-5.6c4.5,0,7.3,2,8.5,5.6
			c0.5,1.4,0.7,2.9,0.7,9.8c0,0.3-0.2,0.5-0.5,0.5h-10.6c-0.2,0-0.3,0.1-0.3,0.3c0,2.7,0.1,3.3,0.3,3.8c0.3,1,1,1.5,2.1,1.5
			c1.3,0,2-0.7,2.5-2.1c0.1-0.3,0.3-0.4,0.7-0.4l5.2,1c0.3,0.1,0.4,0.3,0.4,0.7c-0.8,4.2-4.2,6.7-8.8,6.7
			C140.3,66.1,137.5,64.1,136.3,60.6z M147.3,49.4c0-2.5-0.1-3.1-0.3-3.7c-0.3-0.9-1-1.4-2.1-1.4c-1.2,0-1.8,0.5-2.1,1.4
			c-0.2,0.5-0.3,1.2-0.3,3.7c0,0.2,0.1,0.3,0.3,0.3h4.2C147.2,49.7,147.3,49.6,147.3,49.4z"/>
		<path class="st0" d="M170,65.7c-0.3,0-0.5-0.2-0.5-0.5v-1.8h-0.1c-0.7,1.7-2.5,2.9-4.9,2.9c-3.1,0-6.3-1.9-6.3-8
			c0-6.5,4.1-8.5,8.3-8.5h2.6c0.2,0,0.3-0.1,0.3-0.3V48c0-2.4-0.7-3.6-3.4-3.6c-1.8,0-3.1,0.6-4.4,1.5c-0.3,0.2-0.7,0.2-0.8-0.2
			l-1.8-4.2c-0.2-0.3-0.1-0.5,0.2-0.8c1.9-1.4,4.6-2.2,7.7-2.2c6.6,0,9,2.9,9,9.3v17.2c0,0.3-0.2,0.5-0.5,0.5H170z M169.5,57.6v-2.7
			c0-0.2-0.1-0.3-0.3-0.3h-1.5c-2.3,0-3.2,1.3-3.2,3.2s0.7,3,2.3,3C168.4,60.8,169.5,59.6,169.5,57.6z"/>
		<path class="st0" d="M182.3,65.7c-0.3,0-0.5-0.2-0.5-0.5V39.6c0-0.3,0.2-0.5,0.5-0.5h5.8c0.3,0,0.5,0.2,0.5,0.5v2.5h0.1
			c1-2.2,3-3.5,6.1-3.5h0.8c0.3,0.1,0.5,0.2,0.4,0.5l-1.3,5.9c-0.1,0.3-0.2,0.4-0.5,0.3h-0.9c-3,0-4.7,1.6-4.7,5.4v14.3
			c0,0.3-0.2,0.5-0.5,0.5H182.3z"/>
		<path class="st0" d="M200,60.6c-0.5-1.6-0.7-2.9-0.7-8.2c0-5.4,0.2-6.6,0.7-8.2c1.2-3.7,4.1-5.5,8.3-5.5c5,0,8.4,2.9,8.7,7.6
			c0,0.4-0.1,0.5-0.4,0.6l-5.3,1c-0.3,0.1-0.6-0.1-0.7-0.5c-0.2-1.9-1-2.6-2.2-2.6c-1,0-1.7,0.4-2,1.4c-0.2,0.6-0.2,1.2-0.2,6.4
			c0,5.2,0.1,5.8,0.2,6.4c0.3,0.9,1,1.4,2,1.4c1.3,0,2.1-0.8,2.2-2.6c0.1-0.4,0.3-0.5,0.7-0.5l5.3,1c0.3,0.1,0.4,0.2,0.4,0.6
			c-0.3,4.7-3.7,7.6-8.7,7.6C204,66.1,201.1,64.3,200,60.6z"/>
		<path class="st0" d="M233.6,65.7c-0.3,0-0.5-0.2-0.5-0.5V47.8c0-2.1-0.8-3.1-2.3-3.1s-2.3,1-2.3,3.1v17.3c0,0.3-0.2,0.5-0.5,0.5
			h-5.8c-0.3,0-0.5-0.2-0.5-0.5V28.9c0-0.3,0.2-0.5,0.5-0.5h5.8c0.3,0,0.5,0.2,0.5,0.5v12.8h0.1c0.9-1.8,2.6-3.1,5.2-3.1
			c4.2,0,6.3,2.5,6.3,8.2v18.3c0,0.3-0.2,0.5-0.5,0.5H233.6z"/>
	</g>
</g>
<g id="レイヤー_3">
</g>
<g id="hashtag">
</g>
<g id="レイヤー_6">
</g>
<g id="レイヤー_7">
</g>
<g id="_x23_">
</g>
<g id="tag_x5F_txt">
</g>
</svg>
