<?xml version="1.0" encoding="utf-8"?>
<!-- Generator: Adobe Illustrator 22.1.0, SVG Export Plug-In . SVG Version: 6.00 Build 0)  -->
<svg version="1.1" id="レイヤー_1" xmlns="http://www.w3.org/2000/svg" xmlns:xlink="http://www.w3.org/1999/xlink" x="0px"
	 y="0px" viewBox="0 0 343 129" style="enable-background:new 0 0 343 129;" xml:space="preserve">
<style type="text/css">
	.st0{opacity:0.1;}
	.st1{fill:#FFFFFF;}
	.st2{opacity:0.3;}
	.st3{fill:none;stroke:#000000;stroke-width:4.7737;stroke-miterlimit:10;}
	.st4{fill:url(#SVGID_1_);}
	.st5{fill:none;stroke:#FFFFFF;stroke-width:4.7737;stroke-miterlimit:10;}
	.st6{enable-background:new    ;}
	.st7{fill:#69B22D;}
</style>
<g id="レイヤー_2_1_">
</g>
<g id="レイヤー_1_1_">
</g>
<g id="レイヤー_3">
	<g>
		<g>
			<g class="st0">
				<path d="M292.9,120.9H62.6c-27.4,0-49.8-22.4-49.8-49.8l0,0c0-27.4,22.4-49.8,49.8-49.8h230.3c27.4,0,49.8,22.4,49.8,49.8l0,0
					C342.8,98.5,320.3,120.9,292.9,120.9z"/>
			</g>
			<g>
				<path class="st1" d="M282.8,110.8H52.5C25.1,110.8,2.7,88.4,2.7,61l0,0c0-27.4,22.4-49.8,49.8-49.8h230.3
					c27.4,0,49.8,22.4,49.8,49.8l0,0C332.6,88.3,310.2,110.8,282.8,110.8z"/>
			</g>
		</g>
		<g>
			<g class="st2">
				<circle cx="68" cy="68.1" r="58.2"/>
				<circle class="st3" cx="68" cy="68.1" r="58.2"/>
			</g>
			<g>
				
					<linearGradient id="SVGID_1_" gradientUnits="userSpaceOnUse" x1="6.195" y1="88.2866" x2="115.605" y2="48.4646" gradientTransform="matrix(1 0 0 -1 0 129.2756)">
					<stop  offset="0" style="stop-color:#B1FF00"/>
					<stop  offset="1" style="stop-color:#18903B"/>
				</linearGradient>
				<circle class="st4" cx="60.9" cy="60.9" r="58.2"/>
				<circle class="st5" cx="60.9" cy="60.9" r="58.2"/>
			</g>
		</g>
		<path class="st1" d="M90.2,56.2L91.9,46H78.4l2.4-13.6H70.6L68.2,46h-9.4l2.4-13.6H51.1L48.6,46H35.8l-1.7,10.2h12.8l-1.7,9.4
			H31.5l-1.7,10.2h13.5l-2.4,13.6h10.2l2.4-13.6h9.4l-2.4,13.6h10.2l2.4-13.6H86l1.7-10.2H74.9l1.7-9.4
			C76.6,56.2,90.2,56.2,90.2,56.2z M64.7,65.6h-9.4l1.7-9.4h9.4L64.7,65.6z"/>
		<g class="st6">
			<path class="st7" d="M154,78.9c-6.8,0-10-3.6-10.1-10c0-0.3,0.1-0.5,0.4-0.6l5.9-0.9c0.4-0.1,0.6,0.1,0.6,0.4
				c0.1,3.5,1.1,4.8,3.2,4.8c2,0,3-1,3-4.4c0-3.3-0.7-4.4-3.5-5.5l-2.3-0.9c-5.3-2-7.1-4.8-7.1-10.8c0-6.8,3.2-10.4,9.9-10.4
				c6.5,0,9.6,3.4,9.9,9.3c0,0.3-0.2,0.5-0.5,0.6l-5.6,0.9c-0.3,0.1-0.6-0.1-0.6-0.4c-0.1-2.7-1-4.1-3-4.1c-1.9,0-2.9,1.2-2.9,3.7
				c0,2.8,0.6,3.7,3.5,4.8l2.2,0.9c5.1,2,7.1,4.7,7.1,11C164.4,74.9,161.4,78.9,154,78.9z"/>
		</g>
		<g class="st6">
			<path class="st7" d="M171.4,73.3c-0.5-1.4-0.7-3-0.7-8.2s0.2-6.8,0.7-8.2c1.2-3.6,4-5.6,8.5-5.6c4.5,0,7.3,2,8.5,5.6
				c0.5,1.4,0.7,2.9,0.7,9.8c0,0.3-0.2,0.5-0.5,0.5h-10.6c-0.2,0-0.3,0.1-0.3,0.3c0,2.7,0.1,3.3,0.3,3.8c0.3,1,1,1.5,2.1,1.5
				c1.3,0,2-0.7,2.5-2.1c0.1-0.3,0.3-0.4,0.7-0.4l5.2,1c0.3,0.1,0.4,0.3,0.4,0.7c-0.8,4.2-4.2,6.7-8.8,6.7
				C175.4,78.9,172.7,76.8,171.4,73.3z M182.4,62.1c0-2.5-0.1-3.1-0.3-3.7c-0.3-0.9-1-1.4-2.1-1.4c-1.2,0-1.8,0.5-2.1,1.4
				c-0.2,0.5-0.3,1.2-0.3,3.7c0,0.2,0.1,0.3,0.3,0.3h4.2C182.3,62.4,182.4,62.3,182.4,62.1z"/>
		</g>
		<g class="st6">
			<path class="st7" d="M206.8,78.4c-0.3,0-0.5-0.2-0.5-0.5V76h-0.1c-0.7,1.7-2.5,2.9-4.9,2.9c-3.1,0-6.3-1.9-6.3-8
				c0-6.5,4.1-8.5,8.3-8.5h2.6c0.2,0,0.3-0.1,0.3-0.3v-1.3c0-2.4-0.7-3.6-3.4-3.6c-1.8,0-3.1,0.6-4.4,1.5c-0.3,0.2-0.7,0.2-0.8-0.2
				l-1.8-4.2c-0.2-0.3-0.1-0.5,0.2-0.8c1.9-1.4,4.6-2.2,7.7-2.2c6.6,0,9,2.9,9,9.3v17.2c0,0.3-0.2,0.5-0.5,0.5H206.8z M206.3,70.4
				v-2.7c0-0.2-0.1-0.3-0.3-0.3h-1.5c-2.3,0-3.2,1.3-3.2,3.2s0.7,3,2.3,3C205.2,73.6,206.3,72.3,206.3,70.4z"/>
		</g>
		<g class="st6">
			<path class="st7" d="M221.2,78.4c-0.3,0-0.5-0.2-0.5-0.5V52.4c0-0.3,0.2-0.5,0.5-0.5h5.8c0.3,0,0.5,0.2,0.5,0.5v2.5h0.1
				c1-2.2,3-3.5,6.1-3.5h0.8c0.3,0.1,0.5,0.2,0.4,0.5l-1.3,5.9c-0.1,0.3-0.2,0.4-0.5,0.3h-0.9c-3,0-4.7,1.6-4.7,5.4v14.3
				c0,0.3-0.2,0.5-0.5,0.5H221.2z"/>
			<path class="st7" d="M239.6,73.3c-0.5-1.6-0.7-2.9-0.7-8.2c0-5.4,0.2-6.6,0.7-8.2c1.2-3.7,4.1-5.5,8.3-5.5c5,0,8.4,2.9,8.7,7.6
				c0,0.4-0.1,0.5-0.4,0.6l-5.3,1c-0.3,0.1-0.6-0.1-0.7-0.5c-0.2-1.9-1-2.6-2.3-2.6c-1,0-1.7,0.4-2,1.4c-0.2,0.6-0.2,1.2-0.2,6.4
				s0.1,5.8,0.2,6.4c0.3,0.9,1,1.4,2,1.4c1.3,0,2.1-0.8,2.3-2.6c0.1-0.4,0.3-0.5,0.7-0.5l5.3,1c0.3,0.1,0.4,0.2,0.4,0.6
				c-0.3,4.7-3.7,7.6-8.7,7.6C243.7,78.9,240.8,77,239.6,73.3z"/>
		</g>
		<g class="st6">
			<path class="st7" d="M275,78.4c-0.3,0-0.5-0.2-0.5-0.5V60.5c0-2.1-0.8-3.1-2.3-3.1s-2.3,1-2.3,3.1v17.3c0,0.3-0.2,0.5-0.5,0.5
				h-5.8c-0.3,0-0.5-0.2-0.5-0.5V41.6c0-0.3,0.2-0.5,0.5-0.5h5.8c0.3,0,0.5,0.2,0.5,0.5v12.8h0.1c0.9-1.8,2.6-3.1,5.2-3.1
				c4.2,0,6.3,2.5,6.3,8.2v18.3c0,0.3-0.2,0.5-0.5,0.5H275z"/>
		</g>
	</g>
</g>
</svg>
