<?xml version="1.0" encoding="utf-8"?>
<!-- Generator: Adobe Illustrator 22.1.0, SVG Export Plug-In . SVG Version: 6.00 Build 0)  -->
<svg version="1.1" xmlns="http://www.w3.org/2000/svg" xmlns:xlink="http://www.w3.org/1999/xlink" x="0px" y="0px"
	 viewBox="0 0 82.4 46.9" style="enable-background:new 0 0 82.4 46.9;" xml:space="preserve">
<style type="text/css">
	.st0{fill:#FFBE00;}
</style>
<g id="レイヤー_2">
</g>
<g id="レイヤー_1">
	<g>
		<g>
			<path class="st0" d="M8.8,21.2c0-0.1,0-0.1-0.1-0.3c0-0.1-0.1-0.2-0.1-0.3c0,0-0.1-0.1-0.1-0.2c-0.1-0.1-0.1-0.2-0.1-0.2
				c0,0,0,0-0.1,0.1c0,0-0.1,0.1-0.1,0.1c0,0-0.1,0-0.1,0.1S8,20.5,8,20.5c0,0-0.1,0-0.1,0.1c-0.1,0.1-0.1,0.1-0.1,0.1l-0.3-0.2
				c0,0-0.1,0.1-0.1,0.1c-0.1,0.1-0.1,0.1-0.1,0.1l-0.1,0l-0.1,0c-0.1,0-0.1-0.1-0.3-0.1c-0.1-0.1-0.2-0.1-0.2-0.1c0,0,0,0-0.1-0.1
				c0-0.1,0-0.1-0.1-0.2c-0.1-0.1-0.1-0.1-0.2-0.1c0,0-0.1,0.1-0.1,0.1c0,0,0,0-0.1,0c0,0,0,0-0.1,0c0,0,0,0,0,0H5.9H5.9
				c0,0,0,0,0,0c0,0-0.1-0.1-0.2-0.2c-0.1-0.1-0.2-0.2-0.2-0.2c0,0-0.1,0-0.1,0.1s-0.1,0.1-0.1,0.1H5.1H5c-0.1,0-0.1,0-0.3-0.1
				s-0.2-0.1-0.3-0.1c0,0-0.1-0.1-0.2-0.1C4.1,19.6,4,19.6,4,19.5s0-0.1,0-0.1c0-0.1,0-0.1,0-0.2c0-0.1,0-0.2,0-0.2
				c0-0.1,0-0.1,0-0.1c0-0.1-0.1-0.2-0.3-0.3c-0.1-0.2-0.2-0.3-0.3-0.3c0,0,0,0-0.1,0.1c0,0-0.1,0-0.1,0.1s0,0.1-0.1,0.2
				C3,18.6,3,18.7,3,18.7c0,0,0,0,0,0H2.9H2.8c0,0,0,0,0,0c0,0-0.1-0.1-0.2-0.1s-0.2-0.1-0.2-0.1c0,0-0.1,0-0.2-0.1
				c-0.1,0-0.2-0.1-0.2-0.1s0-0.1-0.1-0.3c0-0.2-0.1-0.3-0.1-0.4c0,0,0-0.1,0-0.1v-0.2c0,0,0-0.1,0-0.2c0-0.1,0-0.1,0-0.1
				c0,0,0,0,0.1-0.1C2,17,2,17,2.1,17H1.8l-0.3-0.9H1.3c0,0.1,0,0.1,0,0.3c0,0.1-0.1,0.2-0.1,0.2c0,0,0,0-0.1,0s-0.1,0-0.1,0
				c0,0,0,0-0.1,0c0,0-0.1,0-0.1,0c0-0.1,0-0.2-0.1-0.5c0-0.2-0.1-0.4-0.1-0.5c0-0.1,0-0.1-0.1-0.3c0-0.1,0-0.2-0.1-0.2
				c0,0,0-0.1-0.1-0.1s-0.1,0-0.2,0v-1.7c0,0-0.1-0.1-0.1-0.1C0.1,13.1,0,13,0,13c0,0,0-0.1,0-0.1c0-0.1,0-0.1,0-0.2
				c0-0.1,0-0.1,0-0.2c0-0.1,0-0.1,0-0.2c0,0,0-0.1,0.1-0.3c0-0.1,0.1-0.2,0.1-0.2c0,0,0-0.2,0-0.4c0-0.2,0-0.3,0.1-0.4
				c0,0,0,0,0-0.1s0,0,0,0c0,0,0,0,0,0l0.1-0.1c0,0,0-0.1,0.1-0.3c0-0.1,0.1-0.2,0.1-0.3c0,0,0-0.1,0-0.1s0-0.2,0-0.2
				c0-0.1,0-0.2,0-0.2s0-0.1,0-0.1c0-0.1,0-0.1,0.1-0.3S0.8,9,0.8,9c0,0,0,0,0.1-0.1c0-0.1,0-0.1,0-0.1c0,0,0.1-0.1,0.1-0.2
				c0.1-0.1,0.1-0.2,0.1-0.2c0,0,0-0.1,0.1-0.2S1.3,8,1.3,7.9c0,0,0.1,0,0.1-0.1l0.1-0.1c0,0,0-0.1,0.1-0.1c0-0.1,0.1-0.1,0.1-0.1
				c0-0.1,0.1-0.2,0.2-0.4C2,7,2.1,6.9,2.2,6.9l0.1,0.1c0,0,0,0,0.1,0.1s0.1,0,0.1,0h0.1h0.1c0,0,0,0,0.1,0c0,0,0.1-0.1,0.1-0.2
				c0.1-0.1,0.1-0.2,0.1-0.2c0,0,0.1,0,0.1-0.1c0.1,0,0.1,0,0.1-0.1s0.1-0.1,0.1-0.1c0.1-0.1,0.1-0.1,0.1-0.1c0,0,0.1,0,0.1,0
				s0.1,0,0.1,0c0,0,0.1-0.1,0.1-0.2c0-0.1,0-0.2,0-0.2c0.1,0,0.2,0,0.4-0.1s0.3-0.1,0.4-0.2c0,0,0.1-0.1,0.1-0.3c0-0.2,0-0.3,0-0.3
				l0.1,0l0.1,0C4.9,4.9,4.9,5,5,5C5,5.1,5.1,5.1,5.1,5.1v0.3l0.2,0.1v0.2v0.1c0,0,0,0.1-0.1,0.1S5.1,5.9,5.1,5.9c0,0-0.1,0-0.2,0
				s-0.1,0-0.2,0c0,0.1,0,0.2,0,0.4c0,0.2,0,0.3,0,0.3c0,0,0,0.1,0,0.2c0,0.1,0.1,0.1,0.1,0.1c0,0,0,0,0.1-0.1c0,0,0-0.1,0.1-0.1
				c0,0,0.1-0.1,0.1-0.2c0.1-0.1,0.1-0.2,0.1-0.2c0,0.1,0,0.1,0,0.3c0,0.1,0.1,0.2,0.1,0.3c0,0,0.1,0,0.2,0.1c0.1,0,0.2,0.1,0.2,0.1
				v0.8L5.6,7.9c0,0,0,0-0.1-0.1c0,0,0-0.1,0-0.1c0,0,0-0.1-0.1-0.2c0-0.1-0.1-0.2-0.1-0.2c0,0,0,0-0.1-0.1c0,0,0,0-0.1-0.1
				c0,0,0,0,0,0c0,0,0,0,0,0H5.1c0,0,0,0.1,0,0.1c0,0.1,0,0.1,0,0.1c0,0,0,0.1,0.1,0.2c0.1,0.1,0.1,0.2,0.1,0.2c0,0,0,0-0.1,0
				s0,0-0.1,0C5.1,8,5,8,5,8.1c0,0-0.1,0.1-0.1,0.2c0,0.1,0,0.2,0,0.2c0,0-0.1,0.1-0.1,0.3C4.6,8.9,4.6,9,4.6,9L4.4,9.2
				c0,0-0.1,0-0.2,0c-0.1,0-0.1,0-0.2,0v0.6H4c-0.1,0-0.1,0-0.1,0c0,0-0.1-0.1-0.2-0.1C3.6,9.5,3.5,9.4,3.5,9.4c0,0,0,0,0,0s0,0,0,0
				H3.4c0,0,0,0,0,0.1s0,0,0,0.1c0,0,0.1,0.1,0.1,0.2c0.1,0.1,0.1,0.2,0.1,0.3c0,0,0,0.1-0.1,0.1s-0.1,0-0.1,0s-0.1,0-0.2-0.1
				c-0.1,0-0.2-0.1-0.2-0.1c0,0,0,0-0.1,0c0,0-0.1,0-0.1,0c0,0,0,0,0,0.1c0,0,0,0,0,0.1c0,0,0,0.1-0.1,0.2c0,0.1-0.1,0.2-0.1,0.2
				v0.1v0.1c0,0,0,0,0.1,0.1S3,10.9,3,10.9v0.2v0.2c0,0,0,0.1-0.1,0.3c0,0.2-0.1,0.3-0.1,0.3v0.6c0,0,0,0.1-0.1,0.2
				c0,0.1-0.1,0.2-0.1,0.2c0,0,0,0.2-0.1,0.4c0,0.2-0.1,0.4-0.1,0.5v0.1v0.1l0.6-0.2l0.1,0.2L3.1,14c0,0,0,0,0,0c0,0,0,0,0,0
				s0,0-0.1,0s0,0-0.1,0c0,0-0.1,0.1-0.1,0.1v0.1c0,0,0,0,0,0.1c0,0,0,0,0,0.1h0.3c0,0,0,0,0,0.1v0.1c0,0,0,0.1-0.1,0.1
				S3,14.7,3,14.8c0,0,0,0,0,0v0.1l0,0c0,0,0.1,0,0.1,0.1C3.2,15,3.2,15,3.2,15s0,0.1-0.1,0.1s-0.1,0.1-0.1,0.1v0.1v0.1
				c0,0,0,0,0.1,0.1s0.1,0.1,0.1,0.1c0,0,0-0.1,0.1-0.1c0,0,0.1-0.1,0.1-0.1h0c0,0,0,0,0,0s0,0,0,0s0,0,0.1,0s0,0.1,0.1,0.1
				c0,0.1,0,0.1,0.1,0.1c0,0,0,0,0,0.1c0,0,0.1,0.1,0.1,0.1c0,0,0.1,0,0.1,0.1S4,15.9,4,16c0,0,0.1,0.1,0.1,0.2
				c0.1,0.1,0.1,0.2,0.2,0.2c0,0,0,0.1,0,0.1c0,0.1,0,0.1,0.1,0.1c0,0,0,0.1,0.1,0.1s0.1,0,0.1,0c0,0,0-0.1,0-0.1
				c0-0.1,0.1-0.1,0.1-0.1h0.1h0.1L5,16.6c0,0,0.1,0.1,0.1,0.1v0.4c0,0,0,0.1,0.1,0.1s0.1,0,0.1,0c0,0,0-0.1,0.1-0.1S5.3,17,5.4,17
				h0.1h0.1c0,0,0.2,0.1,0.4,0.2c0.2,0.1,0.3,0.2,0.4,0.2s0.1,0,0.2,0.1s0.2,0,0.2,0c0,0,0,0,0.1,0c0,0,0.1,0,0.1,0H7c0,0,0,0,0.1,0
				c0,0,0.1,0,0.2,0c0.1,0,0.2,0,0.2-0.1h0.3h0.2c0,0,0.1,0.1,0.2,0.2c0.1,0.1,0.2,0.2,0.2,0.2l0.1,0c0,0,0,0,0.1,0
				c0,0,0.1-0.1,0.2-0.1c0.1-0.1,0.2-0.1,0.2-0.2c0,0,0.1,0,0.2-0.1c0.1,0,0.2,0,0.2,0c0,0,0.1,0,0.2,0.1s0.2,0.1,0.2,0.1
				c0,0,0.1,0,0.3,0c0.2,0,0.2,0,0.3,0c0,0,0.1,0.1,0.1,0.2c0.1,0.1,0.1,0.1,0.1,0.1c0,0,0.1,0.1,0.2,0.1c0.1,0,0.2,0,0.2,0H11h0.1
				c0.1,0,0.1,0,0.1-0.1c0.1,0,0.1-0.1,0.1-0.1h0.2h0.2c0,0,0.1,0.1,0.1,0.1s0.1,0.1,0.1,0.1c0.1,0,0.2,0,0.3,0s0.2-0.1,0.3-0.1
				c0-0.1,0-0.1,0-0.2s0-0.2,0-0.2c0,0,0,0,0-0.1s0,0,0,0c0,0,0,0,0,0c0,0,0.1,0,0.2-0.1c0.1,0,0.1-0.1,0.1-0.1s0.1,0,0.2,0
				s0.2,0,0.3,0s0.2,0,0.3,0s0.2,0,0.2,0c0,0,0.1,0,0.2,0c0.1,0,0.2-0.1,0.3-0.1s0.2-0.1,0.3-0.1c0.1,0,0.2-0.1,0.2-0.1
				c0,0,0.1,0,0.1,0s0.2,0,0.2,0s0.2,0,0.3,0c0.1,0,0.1,0,0.1,0c0.1,0,0.1,0,0.1-0.1s0.1,0,0.1-0.1c0,0,0,0,0.1,0c0,0,0.1,0,0.3,0
				c0.1,0,0.2,0,0.3,0c0,0,0.1,0,0.1-0.1c0.1-0.1,0.1-0.1,0.2-0.1c0,0,0.2-0.1,0.4-0.1s0.4-0.1,0.5-0.1h0.1h0.1c0,0,0,0,0.1,0.1
				s0.1,0.1,0.1,0.1c0,0,0,0.2,0,0.4c0,0.2,0,0.3,0.1,0.4c0,0,0,0.1,0,0.1c0,0.1,0,0.1,0,0.1h-0.4c0,0.1,0,0.2,0,0.3
				c0,0.2-0.1,0.3-0.1,0.5c0,0.2-0.1,0.3-0.1,0.5c0,0.1-0.1,0.2-0.1,0.3s-0.1,0.1-0.2,0.2c-0.1,0.1-0.2,0.2-0.3,0.3
				c-0.1,0.1-0.2,0.2-0.3,0.3c-0.1,0.1-0.2,0.2-0.2,0.2c0,0-0.1,0-0.3-0.1c-0.1,0-0.2,0-0.3-0.1h-0.3h-0.2c-0.1,0-0.1,0.1-0.3,0.1
				s-0.3,0.1-0.4,0.2s-0.3,0.1-0.4,0.2c-0.1,0.1-0.2,0.1-0.3,0.1c0-0.1,0-0.2,0-0.3c0-0.2-0.1-0.3-0.1-0.3c0,0-0.1-0.1-0.2-0.1
				s-0.2,0-0.2-0.1c0,0,0,0-0.1-0.1c0,0-0.1-0.1-0.1-0.1c0,0-0.1,0-0.1,0c-0.1,0-0.1,0-0.1-0.1h-0.1h-0.1c0,0,0,0,0,0c0,0,0,0,0,0
				s0,0,0,0.1c0,0,0,0.1,0,0.2s0,0.2,0,0.2c0,0,0,0-0.1-0.1s-0.1-0.1-0.1-0.1c0,0,0-0.1-0.1-0.2s-0.1-0.2-0.1-0.2
				c-0.1-0.1-0.1-0.1-0.1-0.1l-0.5,0.2v0.9c0,0-0.1,0-0.1,0s-0.1,0-0.1,0c0,0,0,0.1-0.1,0.1S11.2,21,11.2,21c0,0.1-0.1,0.1-0.2,0.2
				c-0.1,0.1-0.2,0.2-0.2,0.2c0,0-0.1,0.1-0.3,0.1c-0.2,0.1-0.3,0.1-0.3,0.1L10,21.8h0H9.9c-0.1,0-0.1,0-0.2-0.1
				c-0.1,0-0.2-0.1-0.2-0.1c0,0-0.1,0-0.2-0.1c-0.1-0.1-0.1-0.1-0.1-0.1c0,0,0-0.1-0.1-0.2c0-0.1-0.1-0.2-0.1-0.2L8.8,21.2z
				 M1.9,12.3C1.9,12.4,1.9,12.4,1.9,12.3C2,12.5,2,12.5,2.1,12.5h0h0.1l0.1-0.1c0,0,0,0,0.1-0.1l-0.2-0.5c0,0,0,0.1-0.1,0.2
				c0,0.1-0.1,0.2-0.1,0.2V12.3L1.9,12.3z M6.2,6.9c0,0,0-0.1,0.1-0.2s0-0.2,0-0.2V6.4V6.3c0-0.1,0-0.1,0-0.2c0-0.1,0-0.2-0.1-0.2
				S6.1,5.9,6,5.7S5.8,5.6,5.8,5.5c0,0,0-0.1-0.1-0.1S5.6,5.3,5.6,5.3c0,0,0.1,0,0.1-0.1l0.1-0.1h0.1h0.1c0,0,0,0,0.1,0
				c0,0,0,0,0.1,0L6,5.3c0,0,0,0.1,0.1,0.2c0,0.1,0.1,0.1,0.1,0.1c0,0,0.1,0,0.1,0c0.1,0,0.1-0.1,0.1-0.1V4.8c0,0,0.1,0.1,0.1,0.1
				C6.6,5,6.6,5,6.7,5h0.2h0.2c0,0,0.1,0,0.1-0.1c0,0,0-0.1,0-0.1c0-0.1,0.1-0.2,0.1-0.3c0-0.2,0-0.3,0-0.3c0,0,0.1,0.1,0.2,0.1
				c0.1,0.1,0.2,0.1,0.2,0.1h0.1h0.1c0,0,0.1-0.1,0.2-0.2c0.1-0.1,0.2-0.2,0.3-0.2l0.1-0.1c0,0,0-0.1,0.1-0.1c0-0.1,0.1-0.1,0.1-0.1
				L9,4.1V3.2c0.1,0,0.2,0,0.3,0c0.1,0,0.2,0,0.3,0s0.2,0,0.2,0c0,0,0,0,0,0c0,0,0,0.1,0,0.1L10,3.4c0,0,0.1,0,0.1,0
				c0.1,0,0.1,0,0.1,0s0,0.1,0.1,0.2c0,0.1,0,0.2,0.1,0.2c0,0,0,0.1,0.1,0.1c0,0.1,0,0.1,0.1,0.1l0.2,0.2h0h0.1
				c0.1,0,0.1-0.1,0.2-0.3c0.1-0.1,0.1-0.2,0.1-0.3c0,0,0-0.1-0.1-0.1c-0.1-0.1-0.1-0.1-0.2-0.1l-0.1-0.1c0,0,0-0.1,0-0.1h1.4
				c0,0,0,0.1,0.1,0.2c0,0.1,0,0.2,0.1,0.2c0,0,0.1,0.1,0.1,0.2s0.1,0.2,0.1,0.2h0.1h0.1c0,0,0-0.1,0-0.3c0-0.1,0.1-0.2,0.1-0.3
				c0,0,0.1,0,0.2-0.1s0.2,0,0.3-0.1c0,0,0-0.1,0.1-0.1c0-0.1,0.1-0.1,0.1-0.1l0.1,0l0.1,0c0,0,0.1,0.1,0.1,0.1s0.1,0.1,0.1,0.1H14
				H14c0,0,0.1,0,0.1-0.1s0.1-0.1,0.1-0.1s0,0,0.1,0s0.1,0,0.1,0v0.7c0,0,0.1,0,0.1,0c0.1,0,0.1,0,0.1,0.1c0,0,0,0.1,0.1,0.1
				c0,0,0.1,0.1,0.1,0.1h0.1c0,0,0.1,0,0.1,0.1s0.1,0.1,0.2,0.1h0.1c0,0,0,0.1,0.1,0.2c0,0.1,0,0.2,0.1,0.3V5v0.2l-0.6-0.2
				c0,0-0.1,0.1-0.1,0.1c0,0.1,0,0.1,0,0.1c0,0,0,0.1,0.1,0.2c0.1,0.1,0.1,0.2,0.1,0.2v0.4v0.4c0,0,0,0.1-0.1,0.1c0,0-0.1,0-0.1,0
				c0,0-0.1,0-0.1-0.1c0,0-0.1,0-0.1-0.1c-0.1,0-0.1,0-0.3,0s-0.2,0-0.3,0v0.4c-0.1,0-0.1,0-0.1-0.1l-0.3-0.3
				c-0.1,0-0.1,0.1-0.1,0.1c0,0,0,0-0.1,0c0,0,0,0-0.1,0c0,0-0.1,0-0.2-0.1s-0.2-0.1-0.2-0.2c0,0,0-0.1-0.1-0.2S13,6,13,5.9
				c0,0-0.1-0.1-0.2-0.3c-0.1-0.1-0.2-0.2-0.3-0.3c0,0-0.1,0-0.1-0.1c-0.1,0-0.1-0.1-0.1-0.1c0,0-0.1,0-0.2-0.1s-0.2-0.1-0.3-0.1
				h-0.1h-0.1c0,0-0.1,0-0.1,0.1c-0.1,0-0.1,0.1-0.1,0.1s-0.1,0-0.1,0S11,5.2,11,5.1c-0.1,0-0.2,0.1-0.3,0.2s-0.2,0.2-0.3,0.2
				s-0.1,0.1-0.3,0.2S9.9,5.8,9.9,5.8c0,0-0.1,0-0.3,0.1c-0.2,0-0.2,0.1-0.3,0.1c0,0-0.1,0-0.1,0.1S9.1,6.1,9.1,6.1c0,0-0.1,0-0.2,0
				c-0.2,0-0.2,0-0.3,0c0,0-0.1,0-0.1,0.1c-0.1,0-0.1,0.1-0.1,0.1c0,0,0,0-0.1,0.1c0,0-0.1,0.1-0.1,0.1c0,0,0,0-0.1,0.1
				S7.9,6.5,7.9,6.5c-0.1,0-0.2,0.1-0.3,0.2C7.4,6.8,7.3,6.9,7.2,6.9C7.2,6.9,7.2,7,7,7C6.9,7.1,6.8,7.1,6.8,7.1
				c0,0-0.1,0.1-0.1,0.1S6.6,7.3,6.6,7.3c0,0,0,0-0.1,0H6.4H6.3c0,0,0,0-0.1,0L6.2,7.2c0,0-0.1-0.1-0.1-0.1V7V6.9z M8.9,18.2
				C8.9,18.2,8.9,18.2,8.9,18.2c-0.1,0.1,0,0.1,0,0.1C9,18.3,9,18.3,8.9,18.2C9,18.2,9,18.2,8.9,18.2z M9.1,20.3
				c0,0,0.1,0.1,0.1,0.2c0.1,0.1,0.1,0.2,0.1,0.2c0,0,0,0,0,0h0.1h0.1c0,0,0,0,0,0c0,0,0,0,0.1-0.1c0,0,0-0.1,0-0.1v0c0,0,0,0,0,0
				c0,0,0,0,0,0c0,0,0,0,0,0c0,0,0,0-0.1-0.1s-0.1-0.1-0.2-0.1H9.2H9.1z M9.6,3.9c0,0,0,0.1,0,0.1c0,0.1,0,0.1,0,0.2
				c0,0,0,0,0.1,0.1s0.1,0,0.1,0.1h0.1h0.1c0,0,0,0,0.1-0.1c0,0,0,0,0-0.1c0,0,0-0.1-0.1-0.2C9.8,4,9.8,4,9.8,3.9c0,0,0,0-0.1,0
				S9.6,3.9,9.6,3.9z M9.8,18.1h0.1l-0.1-0.2V18.1z M10.6,20.5c-0.1,0-0.1,0-0.2,0.1c0,0,0,0.1-0.1,0.2c0,0.1,0,0.2-0.1,0.2
				s0,0.1,0,0.1s0,0.1,0,0.1h0.2c0,0,0-0.1,0.1-0.2c0-0.1,0-0.2,0.1-0.3v-0.1C10.6,20.6,10.6,20.6,10.6,20.5
				C10.6,20.6,10.6,20.5,10.6,20.5z M10.3,19.3c0,0,0,0.1,0,0.1c0,0.1,0.1,0.1,0.1,0.1c0,0,0.1-0.1,0.2-0.1s0.1-0.1,0.1-0.1
				c0,0,0-0.1,0-0.1s0-0.1,0-0.1c0,0-0.1,0-0.1,0c-0.1,0-0.1,0-0.2,0C10.3,19.2,10.3,19.2,10.3,19.3z M10.7,4.5
				c-0.1,0-0.1,0-0.1,0.1s0,0.1,0.1,0.1c0.1,0,0.1,0,0.1-0.1S10.8,4.5,10.7,4.5z M11.5,19.5c-0.1,0-0.1,0-0.1,0.1s0,0.1,0.1,0.1
				s0.1,0,0.1-0.1S11.6,19.5,11.5,19.5z M13.5,3.7C13.5,3.7,13.5,3.7,13.5,3.7c0.1,0.1,0.1,0.1,0.1,0.2V3.8V3.7
				c-0.1-0.1-0.1-0.1-0.1-0.1V3.7L13.5,3.7z M14.2,19.6C14.2,19.6,14.2,19.6,14.2,19.6c-0.1,0-0.2,0-0.2,0.1s0,0.1-0.1,0.1
				s-0.1,0.1-0.1,0.1c0,0,0,0.1,0,0.2c0,0.1,0,0.2,0,0.2c0,0,0,0,0.1,0c0,0,0.1,0,0.1,0c0,0,0.1,0,0.1-0.1c0,0,0-0.1,0-0.1
				c0,0,0-0.1,0-0.3S14.2,19.7,14.2,19.6z M13.9,19C13.9,19,13.9,19,13.9,19c0.1-0.1,0.1-0.1,0.1-0.1v-0.1v-0.1L13.9,19z M14.3,18.6
				c-0.1,0-0.1,0-0.1,0.1s0,0.1,0.1,0.1c0.1,0,0.1,0,0.1-0.1S14.4,18.6,14.3,18.6z M14.4,4.6C14.4,4.6,14.4,4.6,14.4,4.6
				c-0.1,0.1-0.1,0.1,0,0.1C14.5,4.7,14.5,4.6,14.4,4.6z M14.6,5.4c-0.1,0-0.1,0-0.1,0.1s0,0.1,0.1,0.1c0.1,0,0.1,0,0.1-0.1
				S14.6,5.4,14.6,5.4z M14.7,18.3C14.7,18.3,14.6,18.3,14.7,18.3c-0.1,0.1-0.1,0.1,0,0.1C14.8,18.4,14.8,18.4,14.7,18.3z
				 M16.2,19.8c-0.1,0-0.1,0-0.1,0.1s0,0.1,0.1,0.1c0.1,0,0.1,0,0.1-0.1S16.2,19.8,16.2,19.8z M16.7,18.8
				C16.7,18.8,16.7,18.8,16.7,18.8c0,0.1,0,0.1,0.1,0.1c0,0,0,0.1,0.1,0.1s0,0,0.1-0.1s0.1-0.1,0.1-0.1v-0.1c0,0,0,0,0,0s0,0,0,0
				c0,0,0-0.1,0-0.1h-0.2c0,0,0,0-0.1,0.1C16.7,18.7,16.7,18.7,16.7,18.8L16.7,18.8z"/>
			<path class="st0" d="M23.7,20.5c0-0.2,0-0.3-0.1-0.3c-0.1-0.1-0.2-0.1-0.3-0.2c-0.1,0-0.1-0.1-0.2-0.1s-0.2-0.1-0.2-0.1
				c-0.1,0-0.1,0.1-0.2,0.2c-0.1,0.1-0.1,0.2-0.1,0.2c-0.1-0.1-0.2-0.1-0.3-0.2s-0.3-0.1-0.4-0.1c-0.1,0-0.2,0.1-0.2,0.2
				s-0.1,0.2-0.2,0.2l0-0.1c0,0,0-0.2,0-0.4c0-0.2,0-0.3,0-0.4v-0.1v-0.1c0,0-0.1,0.1-0.1,0.3c-0.1,0.1-0.1,0.2-0.2,0.3
				c-0.1,0.1-0.1,0.1-0.2,0.2S21,20,20.9,20h-0.1c0.1-0.1,0.2-0.3,0.2-0.5c0-0.2,0-0.2,0-0.3c0,0-0.1,0-0.2,0c0,0,0,0,0,0.1
				c0,0,0,0.1,0,0.1c0,0-0.1,0-0.1,0.1c-0.1,0-0.1,0.1-0.1,0.1c-0.1,0-0.1,0-0.1-0.1c0-0.1,0-0.1,0-0.2V19c0,0,0,0,0,0s0,0,0-0.1
				l0.1-0.1c0,0,0-0.1,0-0.1c0-0.1,0-0.1,0-0.1c0,0,0.1-0.1,0.3-0.1s0.2-0.1,0.2-0.2v-0.9c0-0.1,0-0.1-0.1-0.1c0,0-0.1,0-0.1-0.1
				c-0.1,0-0.1-0.1-0.1-0.1c0,0-0.1-0.1-0.1-0.2s0-0.2,0-0.3c0-0.1,0.1-0.2,0.2-0.2c0,0.2,0.1,0.3,0.2,0.3c0.1,0,0.2,0.1,0.4,0.1
				c0-0.1,0-0.2-0.1-0.3c-0.1-0.1-0.2-0.2-0.3-0.3s-0.2-0.2-0.3-0.2s-0.1-0.1-0.1-0.2c0-0.1,0.1-0.2,0.2-0.2c0.2,0,0.3-0.1,0.4-0.1
				c0,0,0,0,0,0.1c0,0,0,0,0,0.1c0,0.1,0.1,0.1,0.1,0.2c0,0.1,0.1,0.2,0.1,0.2h0.1v-0.7l-0.1,0c0,0-0.1,0-0.1-0.1c0,0-0.1,0-0.1-0.1
				v-0.1v-0.1c0,0,0.1,0,0.1,0s0.1,0,0.1,0v-0.1v-0.1c0-0.1-0.1-0.2-0.2-0.3c-0.1-0.1-0.1-0.2-0.2-0.2c0,0-0.1,0-0.1,0
				s-0.1,0.1-0.1,0.1c0,0,0,0.1,0,0.1c0,0,0,0.1,0,0.1c0,0,0,0.1,0,0.2c0,0.1,0,0.2,0.1,0.2h-0.1c-0.1,0-0.2,0-0.4-0.1
				c-0.2,0-0.3-0.1-0.3-0.1c0-0.1,0-0.2,0.1-0.3c0.1-0.1,0.2-0.2,0.3-0.3s0.2-0.2,0.3-0.3S21,14.1,21,14c0,0,0-0.1,0-0.2
				c0-0.1,0-0.1,0-0.2c0,0,0.1,0,0.1,0c0.1,0,0.1,0,0.1,0l0.1-0.1v-0.6c0.1,0,0.2-0.1,0.2-0.1c0.1,0,0.1-0.1,0.1-0.2l0-0.1v-0.1
				c-0.1,0.1-0.2,0.1-0.4,0.2c-0.1,0.1-0.2,0.1-0.4,0.1l0-0.1l0-0.1c0,0,0.1-0.1,0.2-0.2s0.2-0.2,0.2-0.2c0,0,0.1,0,0.2-0.1
				s0.2-0.1,0.2-0.1v-0.1c0,0,0,0,0,0c0,0,0,0,0,0l0-0.1v-0.1c-0.1,0.1-0.2,0.2-0.4,0.2s-0.3,0.1-0.4,0.1c0-0.1,0-0.2,0.1-0.2
				c0.1-0.1,0.1-0.1,0.2-0.1s0.1-0.1,0.2-0.1c0.1-0.1,0.1-0.1,0.1-0.2s-0.1-0.2-0.3-0.3s-0.3-0.2-0.4-0.3h-0.4c0,0,0,0-0.1-0.1
				c0-0.1,0-0.1,0-0.1c0,0,0-0.1,0-0.3s0-0.2,0-0.3c0,0,0-0.1-0.1-0.2c0-0.1-0.1-0.1-0.1-0.2V9.5V9.3c0,0,0,0,0.1,0s0,0,0.1,0
				c0,0.1,0.1,0.2,0.1,0.3c0.1,0.2,0.1,0.3,0.1,0.3c0,0,0,0,0.1,0c0,0,0,0,0.1,0c0,0,0.1,0,0.2-0.1c0.1,0,0.1-0.1,0.2-0.1
				c0,0-0.1-0.1-0.1-0.1c0-0.1-0.1-0.1-0.1-0.1V9.6V9.5c0,0,0-0.1,0.1-0.2c0-0.1,0.1-0.2,0.1-0.2c0,0,0,0,0.1,0c0,0,0,0,0.1,0.1
				c0,0,0,0.1,0,0.1L21,9.4c0,0,0.1,0,0.2,0c0.1,0,0.2,0,0.2,0c0-0.1,0-0.2,0-0.3c0-0.1,0-0.2,0-0.3c0-0.1,0-0.1,0.1-0.1
				c0,0.1,0.1,0.1,0.1,0.1s0.1,0,0.1,0V8.3h-1.1c0,0,0-0.1,0-0.2c0-0.1,0-0.1,0-0.1c0,0,0.1-0.1,0.1-0.2c0.1-0.1,0.1-0.1,0.1-0.2
				c0,0,0-0.1,0-0.3c0-0.1,0-0.2,0-0.2c0-0.1,0-0.1,0.1-0.1C21,7.1,21,7.2,21,7.3c0,0.1,0,0.2,0,0.2l0.4-0.4
				c-0.1-0.1-0.2-0.2-0.4-0.3c-0.1,0-0.3-0.1-0.5-0.1c0,0,0-0.1,0.1-0.1c0,0,0.1,0,0.2,0s0.1,0,0.2,0c0,0,0.1,0,0.2,0
				c0.1,0,0.2,0,0.2,0c0,0,0-0.1,0.1-0.2c0.1-0.1,0.1-0.2,0.1-0.3l0,0c0,0,0,0,0-0.1c0,0,0,0-0.1-0.1c0,0-0.1,0-0.1,0
				c0,0,0-0.1-0.1-0.3c0-0.1-0.1-0.2-0.1-0.3c0,0,0.1-0.1,0.2-0.1c0.1-0.1,0.1-0.1,0.1-0.1V5.1c0,0,0,0,0,0c0,0,0,0,0,0s0,0,0,0
				c0,0,0,0,0-0.1V4.8c0,0,0-0.1-0.1-0.2s-0.1-0.2-0.1-0.2c0,0,0-0.1,0-0.2c0-0.1,0-0.1,0-0.2l-0.1-0.1c0,0-0.1-0.1-0.1-0.1
				c0,0,0-0.1,0-0.3c0-0.1,0-0.2,0-0.3h0.2c0-0.1,0-0.2-0.1-0.2c0-0.1-0.1-0.2-0.1-0.3c0-0.4,0.2-0.5,0.5-0.5c0.2,0,0.3,0.1,0.3,0.2
				s0.1,0.2,0.3,0.3l0.1-0.1V2c0,0,0-0.1,0-0.1c0-0.1,0-0.1,0.1-0.1c0.1,0,0.2,0,0.3,0c0.2,0,0.3,0,0.3-0.1l0.1-0.1l0.1-0.1
				c0,0,0.1,0,0.2-0.1s0.1,0,0.1,0c0.1,0,0.1,0,0.1,0.1v0.5c0,0,0,0.1,0.1,0.1c0.1,0.1,0.1,0.1,0.1,0.1c0,0,0.1,0.1,0.1,0.2
				s0.1,0.2,0.1,0.3c0,0,0,0,0,0.1s0,0.1,0,0.1c0,0-0.1,0-0.2,0S24,3.1,24,3.2c0,0,0,0.1,0.1,0.1c0,0.1,0.1,0.1,0.1,0.1
				c0,0.1,0,0.1,0,0.3c0,0.1,0,0.2,0,0.4c0,0.1,0,0.2,0,0.4c0,0.1,0,0.2,0,0.2c0,0.2,0,0.3-0.1,0.4c-0.1,0.1-0.1,0.2-0.1,0.4l0.1,0
				h0c0,0,0,0,0.1-0.1s0.1,0,0.1-0.1c0,0,0,0.1,0,0.1c0,0.1,0,0.1,0,0.1c0,0,0,0.1,0,0.2c0,0.1,0,0.1,0,0.1L24.1,6c0,0,0,0.1,0,0.1
				c0,0,0,0.1,0,0.2c0,0.1,0,0.2,0,0.3c0,0.1,0,0.2,0,0.3C24,7,24,7,24,7.1v0.7c0,0.1,0,0.1-0.1,0.1c0,0.1-0.1,0.2-0.1,0.2
				c0,0,0,0.1-0.1,0.1c0,0.1-0.1,0.1-0.1,0.1v0.6v0.4l0.1,0.1v0.9c-0.1,0-0.2,0.1-0.2,0.3s0,0.3,0,0.4c0,0.2,0,0.4,0.1,0.5
				c0.1,0.2,0.1,0.4,0.1,0.6v0.6c0,0.2,0.1,0.4,0.1,0.6c0.1,0.2,0.1,0.4,0.1,0.6c0,0.1,0,0.3-0.1,0.4S24,14.4,24,14.5v0.3
				c0,0.1,0,0.1,0,0.3s0,0.3,0.1,0.4c0,0.1,0,0.3,0.1,0.4s0,0.2,0,0.2c-0.1,0.1-0.1,0.3-0.1,0.4c0,0.1,0,0.2,0.1,0.3
				c0.1,0.1,0.2,0.2,0.3,0.3c0.1,0.1,0.3,0.2,0.4,0.3c0.1,0.1,0.2,0.1,0.3,0.1h1.9c0-0.1,0.1-0.1,0.1-0.1c0.1,0,0.1,0,0.1,0
				s0.1,0,0.2,0c0.1,0,0.1,0,0.1,0.1c0,0,0,0.1-0.1,0.1s-0.1,0.1-0.1,0.1c0,0.1,0,0.1,0.1,0.1c0,0,0.1,0,0.2-0.1s0.1-0.1,0.1-0.1
				h0.2c0,0,0-0.1,0-0.2c0-0.1,0-0.1,0-0.2c0,0,0,0,0.1,0c0,0,0,0,0.1,0c0.2-0.1,0.5-0.2,0.7-0.2s0.5-0.1,0.7-0.1
				c0,0.1,0,0.3-0.1,0.3c-0.1,0.1-0.2,0.2-0.2,0.2c-0.1,0.1-0.2,0.1-0.2,0.1c-0.1,0-0.1,0.1-0.1,0.1c0,0.1,0.1,0.2,0.2,0.2
				c0.1,0,0.2,0.1,0.2,0.1c0,0.1,0,0.2,0,0.3c0,0.1-0.1,0.1-0.2,0.1c-0.1,0-0.2,0-0.2-0.1c-0.1,0.2-0.2,0.3-0.3,0.4v0.8h-0.1v-0.2
				h-0.3v0.3c0,0-0.1,0-0.3,0s-0.2,0.1-0.2,0.2c-0.1,0-0.2,0-0.4,0c-0.2,0-0.3,0-0.4,0.1h0.2v0.3h-1.7c-0.1-0.1-0.2-0.1-0.3-0.1
				c0,0,0,0,0,0c0,0,0,0,0,0h0c0,0-0.1,0.1-0.1,0.2c0,0.1-0.1,0.2-0.1,0.2h0h-0.1c0,0-0.1-0.1-0.1-0.2c-0.1-0.1-0.1-0.1-0.2-0.1
				c0,0-0.1-0.1-0.3-0.1S23.7,20.5,23.7,20.5z M21,7.7C21,7.7,20.9,7.8,21,7.7c-0.1,0.2,0,0.2,0,0.2C21.1,7.9,21.1,7.9,21,7.7
				C21.1,7.8,21.1,7.7,21,7.7z M21.3,14c-0.1,0-0.1,0.1-0.1,0.1c0,0.1-0.1,0.1-0.1,0.2l0.1,0h0c0.1,0,0.1,0,0.1-0.1s0-0.1,0-0.1V14z
				 M21.4,17.9c-0.1,0-0.1,0-0.1,0.1c0,0.1,0,0.1,0.1,0.1c0,0,0.1,0,0.1-0.1C21.5,18,21.5,17.9,21.4,17.9z M21.7,2.5
				c-0.1,0-0.1,0-0.1,0.1s0,0.1,0.1,0.1c0.1,0,0.1,0,0.1-0.1S21.7,2.5,21.7,2.5z M21.9,19.3c0,0.1,0,0.2,0.1,0.3l0.1-0.1
				C22.1,19.3,22.1,19.3,21.9,19.3z M22.1,14.5c-0.1,0-0.1,0-0.1,0.1s0,0.1,0.1,0.1s0.1,0,0.1-0.1S22.1,14.5,22.1,14.5z M22.2,7.6
				C22.1,7.6,22.1,7.7,22.2,7.6c-0.1,0.2-0.1,0.2,0,0.2C22.2,7.8,22.3,7.8,22.2,7.6C22.3,7.7,22.2,7.6,22.2,7.6z M22.5,17.3
				L22.5,17.3l0.1-0.1h-0.1V17.3z M22.9,15.3c-0.2,0-0.3,0.1-0.3,0.2h0.3V15.3z M22.9,2.9c-0.1,0.1-0.1,0.1-0.1,0.2l0,0.1h0.2
				c0,0,0.1,0,0.2-0.1s0.1,0,0.1-0.1c0,0,0-0.1-0.1-0.1c-0.1-0.1-0.1-0.1-0.1-0.1H22.9L22.9,2.9z M23.1,9.9C23,9.9,23,9.9,23.1,9.9
				c-0.1,0.1-0.1,0.1-0.1,0.2h0.4c0-0.1,0-0.1-0.1-0.1S23.1,9.9,23.1,9.9z M22.9,2.6h0.1l-0.1-0.1V2.6z M23.1,3.9
				C23,3.9,23,3.9,23.1,3.9C23,4,23,4,23.1,3.9C23.1,4,23.1,4,23.1,3.9C23.1,3.9,23.1,3.9,23.1,3.9z M23.1,10.8h0.2
				c0-0.1,0-0.1-0.1-0.2c0-0.1-0.1-0.1-0.1-0.1h-0.1V10.8z M23.1,2.4c0,0,0.1,0.1,0.1,0.1s0.1,0.1,0.1,0.1c0.1,0.1,0.1,0.2,0.1,0.3
				c0,0.1,0.1,0.1,0.2,0.1c0-0.1,0-0.3-0.1-0.5c-0.1-0.2-0.2-0.3-0.2-0.4h0c0,0,0,0-0.1,0l-0.1,0l-0.1,0.1c0,0,0,0,0,0.1
				S23.1,2.3,23.1,2.4L23.1,2.4L23.1,2.4z M23.2,13.1l0.1-0.1L23.2,13.1L23.2,13.1z M23.5,4.5l0.1-0.1h-0.1V4.5z M23.8,13.8
				C23.8,13.8,23.8,13.7,23.8,13.8c-0.1-0.1-0.1,0-0.1,0C23.7,13.8,23.7,13.8,23.8,13.8C23.7,13.8,23.8,13.8,23.8,13.8z M24,3.4
				c-0.1,0-0.1,0-0.1,0.1s0,0.1,0.1,0.1s0.1,0,0.1-0.1S24.1,3.4,24,3.4z M27.4,19.9L27.4,19.9L27.4,19.9c0.1,0,0.1,0,0.1-0.1
				c0,0,0-0.1,0-0.1l-0.1-0.1L27.4,19.9z M27.9,19.1c-0.1,0-0.1,0-0.1,0.1s0,0.1,0.1,0.1c0,0,0.1,0,0.1-0.1S28,19.1,27.9,19.1z"/>
			<path class="st0" d="M35.2,20.9c0-0.1-0.1-0.3-0.2-0.4c-0.1-0.1-0.2-0.2-0.3-0.2c-0.1,0-0.2,0.1-0.3,0.2
				c-0.1,0.1-0.2,0.1-0.3,0.2c-0.2,0-0.3,0-0.4-0.1c-0.1-0.1-0.2-0.2-0.2-0.3c0-0.1-0.1-0.2-0.1-0.4s0-0.3-0.1-0.4
				c-0.1,0-0.2,0.1-0.4,0.1c-0.1,0-0.2,0.1-0.2,0.3c-0.1-0.2-0.3-0.4-0.5-0.5c-0.3-0.2-0.5-0.3-0.7-0.2c0-0.1,0-0.3-0.1-0.6
				c0-0.3-0.1-0.5-0.1-0.6c0-0.1,0-0.2,0-0.3c0-0.1,0-0.3-0.1-0.4c0-0.1,0-0.3-0.1-0.5c0-0.1,0-0.4,0-0.8c0-0.4,0-0.8,0-1.2
				s0-0.8,0-1.2c0-0.4,0-0.7,0-0.8c0-0.2,0.1-0.5,0.1-0.8s0-0.5,0.1-0.7c0,0,0-0.1,0.1-0.2c0.1-0.1,0.1-0.1,0.1-0.1
				c0-0.2,0-0.4,0-0.5c0-0.1,0-0.3,0-0.4c0-0.1,0-0.3,0.1-0.4c0.1-0.1,0.2-0.3,0.3-0.4v0c0,0,0,0,0,0c0,0,0,0,0,0l0.1,0.1
				c0,0,0.1,0,0.1,0.1c0,0.1,0.1,0.1,0.1,0.1c0,0,0.1,0,0.2,0s0.2,0,0.2,0l0.4,0.8c0.1,0,0.1,0,0.1,0c0,0,0.1,0,0.1,0s0,0,0.1,0l0,0
				c0,0,0,0,0,0.1l0,0c0,0,0,0.1,0,0.1s0,0.1,0,0.1c0.1-0.1,0.2-0.1,0.4-0.1c0.1,0,0.3,0,0.4,0.1c0.1,0,0.2,0.1,0.4,0.2
				c0.1,0.1,0.2,0.2,0.2,0.4c0,0.1,0,0.2-0.1,0.3c-0.1,0.1-0.2,0.2-0.4,0.3c-0.1,0.1-0.3,0.2-0.4,0.3c-0.1,0.1-0.2,0.2-0.2,0.2
				c-0.1,0.1,0,0.2,0,0.3c0.1,0.1,0.2,0.1,0.3,0.2s0.3,0.1,0.4,0.2c0.1,0.1,0.2,0.2,0.2,0.3c0,0.1,0,0.2-0.1,0.2
				c-0.1,0-0.2,0.1-0.2,0.1c-0.1,0-0.2,0-0.3,0.1c-0.1,0-0.2,0.1-0.2,0.2c0,0.1,0,0.2,0,0.3c0.1,0.1,0.1,0.2,0.2,0.3
				s0.1,0.2,0.2,0.2s0.1,0.1,0.1,0.2c0,0.1-0.1,0.2-0.2,0.2s-0.1,0-0.2,0.1c-0.1,0-0.1,0.1-0.2,0.1s-0.1,0.1-0.1,0.3
				c0,0.1,0,0.2,0.1,0.2c0.1,0.1,0.1,0.1,0.2,0.1c0.1,0,0.2-0.1,0.1-0.1c0-0.1,0-0.2,0.1-0.3H34l0.1,0c0,0,0,0,0.1,0.1
				c0,0,0,0.1,0,0.1c0,0.2,0,0.3,0,0.4c0,0.1-0.1,0.1-0.2,0.2c-0.1,0-0.1,0.1-0.2,0.2c0,0.1,0,0.2,0,0.4c0.2,0,0.3,0,0.3,0
				s0.1,0,0.2-0.1v0c0,0.2,0,0.4-0.1,0.6c-0.1,0.2-0.1,0.4-0.1,0.6c0,0.2,0.1,0.3,0.1,0.4s0.2,0.1,0.4,0.2c0.1-0.1,0.3-0.1,0.5-0.2
				s0.4-0.1,0.6-0.1c0.2,0,0.3-0.1,0.5-0.2c0.1-0.1,0.2-0.2,0.3-0.4c0,0,0.1,0,0.1,0.1c0.1,0,0.1,0.1,0.1,0.1h0c0.1,0,0.2,0,0.3-0.1
				c0.1,0,0.1-0.1,0.2-0.1l0.1,0c0,0,0,0,0.1,0c0,0,0,0,0.1,0c0,0,0.1,0,0.1,0c0,0,0,0,0,0c0,0,0.1-0.1,0.4-0.1c-0.1,0-0.1,0-0.2,0
				h-0.2l0,0c0,0,0.1,0,0.1,0c0,0,0.1,0,0.1,0c0,0,0-0.1,0.1-0.2c0-0.1,0.1-0.2,0.1-0.2c0,0,0.1,0,0.2-0.1c0.1-0.1,0.1-0.1,0.1-0.1
				c0,0,0-0.1,0.1-0.2c0-0.1,0-0.2,0-0.2h0.1c0.2,0,0.3,0.1,0.3,0.2c0,0,0,0,0,0c0,0,0,0,0,0v0.1c0,0-0.1,0.1-0.1,0.2
				c-0.1,0.1-0.1,0.2-0.1,0.2c0,0,0,0.1,0,0.2c0,0.1,0,0.2,0,0.3c0,0.1,0,0.2,0,0.3s0,0.2,0.1,0.2c0,0.1-0.1,0.2-0.2,0.2
				c-0.1,0-0.2,0-0.2,0.1s-0.1,0-0.2,0.1s-0.1,0.1-0.1,0.2c0,0.1,0.1,0.2,0.2,0.2c0,0,0,0,0,0c0.1,0,0.2-0.1,0.4-0.2
				c0.2-0.1,0.3-0.2,0.3-0.2l0.1,0.1c0,0.1-0.1,0.2-0.2,0.3c-0.1,0.2-0.2,0.3-0.3,0.5c-0.1,0.2-0.2,0.4-0.4,0.5
				c-0.1,0.1-0.2,0.2-0.2,0.2c-0.1,0-0.1,0-0.2,0c-0.1,0-0.2,0-0.2-0.1c0,0,0-0.1,0-0.1c0-0.1,0-0.1,0-0.2v-0.1c0,0,0,0,0-0.1
				c0,0,0,0,0-0.1c0-0.1,0-0.2-0.1-0.3c-0.1-0.1-0.1-0.1-0.2-0.2l-0.3,0.4l0.3,0.2c0,0.1-0.1,0.2-0.2,0.2c-0.1,0-0.2,0.1-0.3,0.2
				c-0.1,0.2-0.1,0.3-0.2,0.4c0,0.1-0.1,0.2-0.1,0.3c0,0.1-0.1,0.1-0.2,0.2S36.4,21,36.2,21c-0.2,0-0.3,0-0.4,0S35.4,21,35.2,20.9z
				 M32.8,7.4c0,0-0.1,0-0.1,0.1c-0.1,0-0.1,0.1-0.1,0.1h0h-0.1c0,0-0.1,0-0.1,0c0,0,0,0,0-0.1c-0.2-0.3-0.4-0.7-0.5-1.1
				s-0.2-0.8-0.3-1.1c0,0,0-0.1,0.1-0.3s0.2-0.3,0.2-0.5C32,4.3,32.1,4.1,32.2,4c0.1-0.1,0.2-0.2,0.2-0.2c0,0,0.1,0,0.2,0
				c0.1,0,0.3,0.1,0.5,0.1c0.2,0,0.3,0.1,0.5,0.1c0.2,0,0.3,0,0.3,0c0,0,0.1,0.1,0.1,0.1s0.1,0.1,0.1,0.1c0,0.1,0.1,0.1,0.1,0.1
				c0-0.1,0.1-0.1,0.1-0.1c0.1,0,0.1,0,0.2-0.1c0.1,0,0.1,0,0.2,0.1c0,0,0.1,0.1,0.1,0.2S35,4.5,35,4.5c0,0,0.1,0.1,0.1,0.1
				c0,0,0.1,0,0.1-0.1s0.1-0.1,0.1-0.1s0,0,0.1,0c0,0,0,0,0,0c0,0,0,0,0,0c0,0.2,0,0.4-0.1,0.6l0.2,0c0,0,0,0.1,0,0.3
				c0,0.1,0,0.2,0,0.3c0,0.1,0.1,0.1,0.1,0.3c0.1,0.1,0.1,0.2,0.2,0.2c0,0,0,0.1-0.1,0.2c0,0.1-0.1,0.2-0.1,0.4S35.5,6.8,35.5,7
				c-0.1,0.1-0.2,0.2-0.2,0.2c0,0-0.1,0-0.1,0c-0.1,0-0.1,0-0.1,0s-0.1,0-0.2-0.1c-0.1,0-0.1,0-0.1,0c-0.1,0.1-0.2,0.1-0.3,0.2
				c-0.1,0.1-0.2,0.1-0.2,0.2c-0.1,0.1-0.2,0.1-0.3,0.2c-0.1,0-0.2,0.1-0.4,0.1c-0.2,0-0.3,0-0.3-0.1S33,7.3,32.8,7.4z M32.5,4.6
				c0,0,0,0.1,0,0.1c0,0.1,0,0.1,0.1,0.1c0.1,0,0.1,0,0.1-0.1C32.6,4.6,32.6,4.6,32.5,4.6z M33.7,10c0.1,0,0.1,0,0.1,0.1
				c0,0.1,0,0.1-0.1,0.1c-0.1,0-0.1,0-0.1-0.1C33.6,10,33.7,10,33.7,10z M35,5.2C35.1,5.1,35.1,5.1,35,5.2C35,5.1,34.9,5.1,35,5.2
				C35,5.2,35,5.3,35,5.2C35,5.3,35,5.2,35,5.2z M35.1,19.9C35,19.9,35,19.9,35.1,19.9c-0.1,0.1,0,0.1,0,0.1
				C35.1,20,35.1,20,35.1,19.9z M35.2,18.5v-0.2l-0.1,0.1L35.2,18.5z M36,20.5C36,20.5,35.9,20.5,36,20.5c-0.1-0.1-0.1,0-0.1,0
				C35.9,20.6,36,20.6,36,20.5z M36.6,19.1c-0.2,0-0.3,0.1-0.4,0.1S36,19.4,36,19.5s0,0.2,0.1,0.3c0.1,0.1,0.2,0.2,0.4,0.2
				c0,0,0,0,0.1-0.1c0-0.1,0-0.2,0.1-0.3c0-0.1,0-0.2,0-0.3C36.6,19.1,36.6,19.1,36.6,19.1z M38.9,16C39,16,39,16,38.9,16
				C39,16.1,39,16.1,38.9,16C39,16.2,38.9,16.2,38.9,16C38.9,16.1,38.9,16,38.9,16z"/>
			<path class="st0" d="M48.8,20.8c0,0,0-0.1-0.1-0.2c0-0.1,0-0.2-0.1-0.2c0-0.1-0.1-0.1-0.1-0.1s-0.1,0-0.2,0s-0.1,0-0.2-0.1
				s-0.1-0.1-0.1-0.2C48.1,20,48,20,47.9,20.1s-0.2,0.2-0.3,0.2V20c-0.1,0-0.2,0-0.2,0.1c-0.1,0.1-0.1,0.1-0.1,0.2
				c0,0.1-0.1,0.2-0.1,0.2c0,0.1,0,0.1-0.1,0.1c-0.1,0-0.2-0.1-0.2-0.2c0-0.1,0-0.2,0.1-0.3c0.1-0.1,0.1-0.2,0.1-0.3
				c0-0.3-0.1-0.4-0.3-0.4c0,0,0,0-0.1,0c0,0,0,0-0.1,0.1c0,0.1-0.1,0.1-0.1,0.1c0,0-0.1,0-0.3,0c-0.2,0-0.3,0-0.3,0
				c0,0,0,0-0.1,0.1c0,0.1-0.1,0.1-0.1,0.1L45.3,20l-0.1-0.2h-0.1c0,0-0.1,0-0.1,0c0,0,0,0-0.1,0c-0.1,0-0.2,0-0.3,0.1
				s-0.2,0.1-0.3,0.1c-0.1,0-0.1,0-0.2-0.1c0,0-0.1-0.1-0.2-0.1h-0.1c0,0-0.1,0.1-0.2,0.2c-0.1,0.1-0.1,0.2-0.1,0.2
				c0,0,0-0.1-0.1-0.1c0-0.1,0-0.1,0-0.2c0,0,0.1-0.1,0.1-0.2c0.1-0.1,0.1-0.2,0.1-0.2l0-0.1c0-0.1-0.1-0.2-0.2-0.2
				c-0.1,0-0.1,0-0.1,0.1c0,0.1,0,0.2,0,0.2c-0.1,0-0.2-0.1-0.1-0.2c0-0.2,0-0.3,0-0.3c0,0-0.1,0-0.1,0s-0.1,0-0.2,0
				c-0.1,0-0.1,0-0.2-0.1c0,0-0.1-0.1-0.1-0.1c0-0.1,0-0.2,0-0.2c0-0.1,0-0.1,0-0.2v-0.1c0,0,0,0-0.1-0.1s-0.1,0-0.1,0
				c-0.1,0-0.2,0-0.2,0.1c0,0-0.1,0.1-0.1,0.1c0,0.1,0,0.1-0.1,0.1c0,0-0.1,0.1-0.2,0.1v-0.2c0,0,0-0.1-0.1-0.1s-0.1-0.1-0.1-0.1
				c0-0.1,0-0.1,0.1-0.2l0.1-0.1c0,0,0-0.1,0-0.2c0-0.1,0-0.1,0-0.2c0,0-0.1,0-0.1,0s-0.1,0-0.1,0c0,0,0-0.1-0.1-0.1
				s-0.1-0.1-0.1-0.1h-0.1h-0.1c0,0,0,0.1-0.1,0.1c0,0.1,0,0.1,0,0.1c0,0.1,0.1,0.1,0.1,0.2c0.1,0,0.1,0,0.2,0c0.1,0,0.1,0,0.1,0
				c0,0,0.1,0.1,0.1,0.1h-0.7c0-0.2,0-0.3-0.1-0.4c-0.1-0.1-0.1-0.2-0.2-0.2c-0.1-0.1-0.1-0.1-0.2-0.1s-0.1-0.1-0.1-0.2v-0.1
				c0,0,0,0,0.1,0c0,0,0.1-0.1,0.1-0.1v-0.1c0-0.1,0-0.1-0.1-0.2c-0.1,0-0.1-0.1-0.1-0.2c0,0,0-0.1,0-0.1c0,0,0,0,0-0.1
				c0,0,0,0,0-0.1c0,0,0-0.1,0-0.1c0,0,0-0.1-0.1-0.1c-0.1,0-0.1-0.1-0.1-0.1c0,0,0,0,0,0v-0.1c0-0.1,0-0.2,0.1-0.2s0.2-0.1,0.3-0.1
				c0.1,0,0.2,0,0.3-0.1s0.2-0.1,0.2-0.2c0-0.1-0.1-0.1-0.2-0.1c0,0,0,0,0,0s0,0,0,0h0c0,0-0.1,0-0.1,0.1c-0.1,0.1-0.1,0.1-0.1,0.1
				h-0.1h-0.1l-0.1-0.1c0,0-0.1,0-0.1,0s-0.1,0-0.1,0.1c0,0,0-0.1,0-0.1c0-0.1,0-0.1,0-0.1c0-0.1,0-0.2,0.1-0.3
				c0.1-0.1,0.2-0.2,0.2-0.3c0.1-0.1,0.2-0.2,0.2-0.3c0.1-0.1,0.1-0.2,0.1-0.2c0-0.1,0-0.3-0.1-0.4c-0.1-0.1-0.1-0.2-0.1-0.3
				c0-0.1,0.1-0.3,0.2-0.4c0.1-0.1,0.2-0.3,0.2-0.5v-0.4c0-0.1,0-0.1,0.1-0.1s0.1,0,0.1,0c0,0,0.1-0.1,0.1-0.1c0-0.1,0-0.1,0-0.3
				h0.2v0.5c0,0,0.1-0.1,0.2-0.2c0.1-0.1,0.1-0.1,0.2-0.1c0.1,0,0.2,0.1,0.3,0.1c0.1,0,0.2,0.1,0.2,0.1s0.1,0.1,0.1,0.1s0,0,0.1,0
				l0,0c0,0,0,0,0-0.1c-0.1-0.1-0.2-0.1-0.3-0.2c-0.1-0.1-0.3-0.2-0.4-0.2V11c0,0,0.1,0,0.1,0.1c0,0,0.1,0,0.1,0.1h0.1h0.1
				c0,0,0-0.1,0-0.1s0-0.1,0-0.1h0.1h0.1c0,0.1,0,0.2,0.1,0.3c0,0.1,0.1,0.2,0.2,0.3c0,0,0,0,0.1,0c0,0,0.1,0,0.1,0v-0.9
				c-0.1,0-0.2-0.1-0.3-0.2s-0.3-0.2-0.3-0.2v-0.1c0.1-0.2,0.2-0.3,0.2-0.4c0.1-0.1,0.2-0.2,0.5-0.2h0.2c0,0,0.1,0,0.1,0.1
				c0,0,0,0.1,0,0.1c0,0,0.1-0.1,0.1-0.2c0.1-0.1,0.1-0.2,0.2-0.4C44,9,44,8.9,44.1,8.8c0.1-0.1,0.1-0.1,0.2-0.1c0,0,0,0.1,0,0.2
				c0,0.1,0,0.3,0,0.5c0,0.2,0,0.3,0,0.5c0,0.1,0,0.2,0,0.2c0,0,0,0-0.1,0C44,10,44,10,43.9,10c0,0-0.1,0.1-0.1,0.2
				s-0.1,0.1-0.1,0.1c0,0,0,0.1,0,0.1c0,0,0,0,0,0.1h0.6c0,0,0,0,0,0.1c0,0,0,0.1-0.1,0.1c0,0,0,0.1,0,0.1s0,0,0,0l0.3,0.1v-0.2V10
				h0.3l0.3,0.2c0.1,0,0.1,0.1,0.2,0.1s0.1,0.1,0.1,0c0,0-0.1-0.1-0.1-0.1S45.2,10,45.2,10C45.1,9.9,45,9.8,45,9.7
				c-0.1-0.1-0.1-0.1-0.1-0.1c0-0.1,0.1-0.1,0.1-0.1c0.1,0,0.1,0.1,0.1,0.1c0,0,0.1,0,0.1,0s0.1-0.1,0.1-0.3c0-0.1,0-0.2-0.1-0.3
				c0-0.1-0.1-0.2-0.1-0.4c0,0,0.1,0,0.2,0c0.1,0,0.2,0.1,0.2,0c0,0,0,0,0.1,0.1s0.1,0,0.1,0.1h0.1h0c0,0,0.1-0.1,0.1-0.1
				c0-0.1,0-0.1,0-0.1c0,0,0.1-0.1,0.2-0.2s0.2-0.2,0.3-0.2c0.1,0,0.2,0,0.2-0.1c0.1,0,0.1,0,0.2-0.1c0,0,0.1,0,0.1,0s0.1,0,0.1,0
				c0.1,0,0.2,0.1,0.3,0.1c0.1,0,0.2,0.1,0.4,0.1c0,0,0,0,0,0.1c0,0-0.1,0.1-0.1,0.1c0,0.1-0.1,0.1-0.1,0.1s0,0.1,0,0.1
				c0.1,0,0.2,0,0.3-0.1c0.1-0.1,0.2-0.1,0.2-0.2C48,8.2,48,8.1,48.1,8.1c0.1-0.1,0.1-0.1,0.2-0.1c0.1,0,0.1,0,0.2,0.1
				c0.1,0.1,0.1,0.1,0.2,0.2c0.1,0.1,0.1,0.1,0.2,0.2C49,8.5,49,8.6,49.1,8.6c0,0,0,0,0.1,0c0,0,0-0.1,0.1-0.2c0-0.1,0-0.1,0-0.2
				s0-0.1-0.1-0.1s-0.1,0-0.1,0c0,0-0.1,0-0.1-0.1S48.9,8,48.9,7.9c0-0.1,0-0.1,0.1-0.1c0.1,0,0.2,0,0.2,0c0.1,0,0.1,0,0.2,0.1
				s0,0-0.1,0l0.6,0.6c0,0,0,0,0.1,0c0,0,0.1-0.1,0.1-0.1s0-0.1,0.1-0.2c0-0.1,0-0.1,0-0.1h0.1c0,0,0.1,0,0.2,0.1
				c0.1,0,0.2,0,0.2,0.1c0,0,0,0.1,0,0.3c0,0.2,0,0.3,0.1,0.3c0,0,0,0,0,0.1c0,0,0,0,0.1,0.1c0,0,0,0,0.1-0.1c0,0,0-0.1,0-0.1v-1
				l0.1,0.1l0.3,1.4l0.6-0.5l0-0.1c0-0.1-0.1-0.1-0.2-0.1s-0.2,0-0.2-0.1c0-0.1,0.1-0.1,0.2-0.1c0.1,0,0.2,0,0.2,0h0.2
				c0,0,0,0.1,0.1,0.2c0,0.1,0.1,0.2,0.1,0.2v0c0,0.1,0,0.2-0.1,0.2c-0.1,0.1-0.1,0.1-0.2,0.2c0.1-0.1,0.1-0.1,0.2,0
				s0.1,0.1,0.1,0.1c0,0.1,0,0.1,0.1,0.2c0,0.1,0,0.1,0.1,0.1c0,0,0.1,0,0.1,0c0.1,0,0.1,0,0.1-0.1c0,0,0,0.1,0,0.1
				c0,0,0.1,0.1,0.1,0.1c0.1,0,0.1,0.1,0.2,0.1c0.1,0,0.1,0.1,0.1,0.1c0,0,0,0.1,0,0.2c0,0.1,0,0.2,0,0.2V11c0,0.1,0,0.1,0.1,0.2
				c0,0,0.1,0,0.1,0.1c0.1,0,0.1,0,0.2,0.1c0.1,0,0.1,0.1,0.1,0.1c0,0,0,0,0,0.1c0,0,0,0-0.1,0.1h0h-0.1c-0.1,0-0.2-0.1-0.4-0.2
				s-0.3-0.2-0.4-0.2c-0.1,0-0.1,0.1-0.1,0.1c0,0.1,0,0.1,0,0.2c-0.1,0-0.3,0-0.4-0.1c-0.1-0.1-0.3-0.1-0.3-0.2
				c0.1,0,0.1-0.1,0.1-0.2s0-0.1,0-0.2c0,0,0-0.1,0-0.1c0,0,0-0.1,0-0.1s0-0.1-0.1-0.1s-0.2-0.1-0.2-0.1h0c-0.1,0-0.3,0-0.3,0.1
				s-0.2,0.2-0.3,0.3l-0.1,0c0,0,0,0-0.1,0s0-0.1-0.1-0.1c0-0.1-0.1-0.1-0.1-0.1c0,0-0.1,0-0.2,0c-0.1,0-0.2,0-0.2,0
				c0,0-0.1-0.1-0.1-0.1s-0.1-0.1-0.1-0.1h0c-0.1,0-0.1,0-0.2,0.1s-0.1,0.1-0.2,0.2c-0.1,0.1-0.1,0.2-0.2,0.2
				c-0.1,0.1-0.1,0.1-0.2,0.1c0,0-0.1,0-0.2,0s-0.3,0-0.4,0.1s-0.3,0-0.4,0.1s-0.2,0-0.2,0c0,0-0.1,0-0.2,0.1
				c-0.1,0-0.2,0.1-0.2,0.1H47c0,0.1-0.1,0.1-0.1,0.2c0,0-0.1,0-0.2,0c-0.1,0-0.2-0.1-0.2-0.2s-0.1-0.2-0.2-0.2
				c-0.1,0-0.1,0-0.2,0.1c0,0-0.1,0.1-0.2,0.1c-0.1,0-0.2,0-0.2-0.1c0-0.1-0.1-0.1-0.2-0.1c0,0.2,0,0.3,0.1,0.4
				c0,0.1,0.1,0.2,0.2,0.3c0,0,0,0,0,0.1c0,0,0,0,0,0.1c0,0,0,0.1,0,0.1c0,0.1,0,0.2-0.1,0.2c-0.1,0.1-0.1,0.1-0.2,0.1
				s-0.2,0-0.2,0.1c-0.1,0-0.1,0-0.2,0l0,0.1c0,0.1,0,0.1,0,0.1c0,0,0.1,0.1,0.2,0c-0.1,0.2-0.2,0.3-0.2,0.4
				c-0.1,0.1-0.1,0.3-0.2,0.4v0.6c0,0.1,0,0.1-0.1,0.3c0,0.1-0.1,0.3-0.1,0.4c0,0.1-0.1,0.3-0.1,0.5l-0.7-0.5c0,0,0,0-0.1,0
				s0,0.1,0,0.1s0,0.1,0,0.2c0,0.1,0,0.1,0,0.2v0.1v0.1c0,0,0,0.1,0,0.2c0,0.1,0,0.2,0,0.2c0,0,0,0.1,0.1,0.2S44,16,44,16v0.1
				c0,0,0,0,0,0c0.1,0,0.2,0,0.3-0.1s0.2-0.1,0.3-0.1h0.2l-0.2,0.5h0.2V17c0.2,0,0.3,0,0.3,0s0,0.1,0,0.3h0.1c0,0,0.1,0.1,0.2,0.2
				c0.1,0.1,0.2,0.2,0.3,0.3c0,0,0,0.1,0.1,0.2c0,0.1,0.1,0.1,0.1,0.1c0,0,0.1,0,0.2,0c0.1,0,0.2,0,0.2,0c0,0,0.1,0,0.1,0.1
				c0.1,0.1,0.1,0.1,0.1,0.1c0,0,0.1,0,0.2,0c0.1,0,0.2,0,0.2,0c0,0,0.1,0,0.3,0.1s0.2,0,0.2,0c0.1,0,0.2,0,0.4,0c0.2,0,0.4,0,0.6,0
				c0.2,0,0.4,0,0.6,0s0.3,0,0.4,0v0.3c0.1,0,0.2-0.1,0.2-0.3c0-0.1,0.1-0.3,0.2-0.3c0.3-0.1,0.6-0.2,0.9-0.3s0.6-0.1,0.9-0.2
				c0,0,0.1-0.1,0.2-0.1s0.2-0.1,0.2-0.1h0.1c0,0,0,0,0,0c0,0,0,0,0,0c0,0,0,0,0,0h0.1h0.1c0,0,0,0,0.1,0.1c0,0,0.1,0,0.1,0H53
				c0.1,0,0.2,0.1,0.3,0.1s0.2,0.1,0.3,0.1c0,0,0.1,0.1,0.1,0.3s0.1,0.2,0.1,0.3H54c0,0,0,0,0,0.1c0,0,0,0,0,0c0,0,0,0-0.1,0.1
				s-0.1,0.1-0.1,0.1c0,0,0,0.1,0,0.1c0,0.1,0,0.1,0,0.1c0,0.1-0.1,0.2-0.2,0.2c-0.1,0.1-0.2,0.1-0.3,0.1l0,0c0,0,0,0,0-0.1
				s0.1-0.1,0.1-0.2c0.1-0.1,0.1-0.1,0.2-0.2v-0.1c0-0.1-0.1-0.2-0.2-0.3c-0.1,0-0.1,0.1-0.1,0.2c0,0.1,0,0.1-0.1,0.2
				c-0.1,0-0.2,0-0.4,0.1c-0.2,0-0.3,0-0.4,0.1c0,0-0.1,0-0.2,0.1c-0.1,0-0.1,0.1-0.1,0.1v0.2c0,0.1,0,0.2,0,0.2
				c0,0.1,0.1,0.1,0.2,0.2c0,0-0.1,0-0.2,0c-0.1,0-0.2,0.1-0.2,0.1c0,0,0,0.1,0,0.2s0,0.2,0,0.2c0,0.1-0.1,0.1-0.2,0.2
				c-0.1,0-0.2,0.1-0.2,0.3h0c0-0.1,0-0.1,0-0.3c0-0.1,0-0.2-0.1-0.2c-0.1,0-0.2,0-0.2-0.1c0,0,0,0-0.1,0c0,0,0,0-0.1,0l0,0.1
				c0,0,0,0.1-0.1,0.2c0,0.1,0,0.2-0.1,0.2h-0.1c0,0-0.1,0.1-0.2,0.1c-0.1,0.1-0.2,0.1-0.2,0.1c0,0-0.1,0-0.1,0c-0.1,0-0.1,0-0.2,0
				c0,0-0.1,0.1-0.2,0.1c-0.1,0.1-0.2,0.1-0.3,0.1c0,0,0,0-0.1,0h-0.1c-0.1,0-0.2,0-0.3-0.1C49.1,20.8,49,20.7,48.8,20.8z
				 M40.7,15.5c-0.1,0-0.1,0-0.1,0.1c0,0.1,0,0.1,0.1,0.1C40.8,15.7,40.8,15.6,40.7,15.5C40.8,15.5,40.8,15.5,40.7,15.5z M40.7,14.6
				C40.7,14.6,40.7,14.6,40.7,14.6C40.7,14.7,40.7,14.7,40.7,14.6C40.8,14.7,40.8,14.7,40.7,14.6C40.8,14.6,40.8,14.6,40.7,14.6z
				 M41.3,15.5c0.1,0,0.1,0,0.2-0.1h-0.2V15.5z M41.9,15.7c-0.1,0-0.2,0-0.2,0.1h0h0.1c0.1,0,0.1,0,0.2-0.1H41.9z M41.9,11.9
				c0,0.1,0,0.2,0,0.3c0,0.1,0.1,0.1,0.2,0.1c0,0,0.1,0,0.1,0c0.1,0,0.1,0,0.1-0.1c0-0.1-0.1-0.2-0.2-0.2S42,11.9,41.9,11.9z
				 M42,12.8L42,12.8l0.1-0.2H42V12.8z M42.3,16.5C42.3,16.5,42.3,16.5,42.3,16.5c-0.1,0-0.1,0-0.1,0C42.2,16.6,42.2,16.6,42.3,16.5
				C42.3,16.6,42.3,16.6,42.3,16.5z M42.7,14.8c-0.1,0-0.2,0-0.3,0.1c-0.1,0.1-0.1,0.2-0.1,0.3c0.1,0,0.2,0,0.4-0.1s0.2-0.1,0.2-0.2
				v-0.1C42.8,14.8,42.7,14.8,42.7,14.8z M42.4,13.9C42.4,13.9,42.4,13.9,42.4,13.9c0.1-0.1,0.1-0.1,0.1-0.2c0-0.1,0-0.1-0.1-0.1
				V13.9z M42.7,17.7C42.6,17.7,42.6,17.8,42.7,17.7c-0.1,0.1-0.1,0.2,0,0.2C42.7,17.9,42.7,17.9,42.7,17.7
				C42.7,17.8,42.7,17.7,42.7,17.7z M42.9,13.6c-0.1,0-0.1,0-0.1,0.1s0,0.1,0.1,0.1c0.1,0,0.1,0,0.1-0.1S42.9,13.6,42.9,13.6z
				 M42.9,14.1H43V14h-0.1V14.1z M43.1,10h0.1V9.9L43.1,10z M43.3,12.5c0,0,0,0.1,0,0.2c0,0.1,0,0.1-0.1,0.1h0.1h0.1c0,0,0,0,0-0.1
				c0,0,0,0,0-0.1C43.4,12.7,43.4,12.6,43.3,12.5c0.1-0.2,0.1-0.3,0.1-0.3c-0.1,0-0.1,0-0.2,0s-0.1,0.1-0.1,0.1l0,0.1L43.3,12.5z
				 M43.4,11.8C43.3,11.8,43.3,11.8,43.4,11.8C43.2,11.9,43.2,11.9,43.4,11.8C43.3,12,43.3,12,43.4,11.8
				C43.4,11.9,43.4,11.9,43.4,11.8z M43.3,13.4C43.3,13.5,43.3,13.5,43.3,13.4c0,0.1,0,0.1,0,0.2s0,0.1,0.1,0.1s0.1,0.1,0.1,0.1
				c0,0,0,0.1,0.1,0.2c0,0.1,0.1,0.2,0.1,0.2c0,0,0.1,0,0.1,0.1s0.1,0,0.1,0.1c0,0,0,0,0.1,0.1c0,0.1,0,0.1,0,0.1
				c0.1,0,0.2-0.1,0.2-0.1s0.1-0.2,0.1-0.2c0-0.2,0-0.3-0.1-0.6c-0.1-0.2-0.2-0.3-0.4-0.3c-0.1,0-0.2,0-0.3,0S43.3,13.3,43.3,13.4z
				 M43.5,18.6C43.5,18.6,43.5,18.6,43.5,18.6c-0.1,0.1-0.1,0.1-0.1,0.1v0.1v0.1c0,0,0,0,0.1-0.1C43.5,18.7,43.5,18.7,43.5,18.6
				L43.5,18.6L43.5,18.6z M43.9,11.1L43.9,11.1l0.2,0.1c0,0,0,0-0.1,0L44,11.1H43.9L43.9,11.1z M44.2,12.7c0,0,0,0.1,0,0.2
				s0.1,0.1,0.1,0.2c0.1,0,0.1-0.1,0.1-0.2c0-0.1,0-0.1,0-0.2H44.2z M46,9.9c0.1,0,0.2-0.1,0.2-0.2H46V9.9z M46.5,9
				c0,0.1,0,0.1,0.1,0.1c0,0,0.1,0,0.1,0s0.1,0,0.1-0.1H46.5z M47.1,9.2C47.1,9.2,47.1,9.3,47.1,9.2C47,9.3,47,9.4,47,9.4
				c0,0.1,0,0.3-0.1,0.6c0,0.3,0,0.5,0,0.6H47c0.1-0.2,0.1-0.3,0.2-0.4c0.1-0.1,0.1-0.3,0.1-0.5c0-0.1,0-0.2,0-0.2
				C47.3,9.3,47.2,9.2,47.1,9.2z M47.4,8.9c0,0.2,0.1,0.4,0.2,0.5c0.1-0.1,0.1-0.2,0.2-0.3l0.4,0.2c0.1,0,0.1,0,0.1-0.1
				c0-0.1,0-0.2-0.1-0.3S48,8.7,47.9,8.7c-0.1,0-0.2,0-0.4,0C47.4,8.7,47.4,8.8,47.4,8.9z M47.4,10.2C47.4,10.2,47.4,10.2,47.4,10.2
				c0.1,0.1,0.1,0.1,0.1,0.1h0.1h0c0,0,0-0.1,0.1-0.2c0-0.1,0-0.1,0.1-0.1c0,0,0.1-0.1,0.2-0.1s0.2-0.1,0.2-0.1v0V9.7
				c0,0-0.1-0.1-0.1-0.1c-0.1-0.1-0.1-0.1-0.1-0.1c-0.1,0.1-0.2,0.2-0.3,0.4C47.4,9.9,47.4,10,47.4,10.2z M47.6,10.7l0.1-0.1h-0.1
				V10.7z M47.9,10.1c-0.1,0-0.1,0-0.1,0.1s0,0.1,0.1,0.1c0,0,0.1,0,0.1-0.1S47.9,10.1,47.9,10.1z M47.9,11.1V11h-0.1L47.9,11.1z
				 M48.4,10.8c0.1-0.1,0.1-0.1,0.1-0.2h-0.1V10.8z M48.5,9.1C48.5,9.1,48.5,9.1,48.5,9.1C48.4,9.1,48.4,9.1,48.5,9.1l-0.1,0.1l0,0
				L48.5,9.1L48.5,9.1C48.6,9,48.6,9,48.5,9.1L48.5,9.1z M48.5,8.6C48.6,8.6,48.5,8.6,48.5,8.6C48.5,8.6,48.4,8.6,48.5,8.6
				C48.5,8.7,48.5,8.7,48.5,8.6C48.5,8.7,48.5,8.7,48.5,8.6z M49.2,8.9C49.1,8.9,49,9,49,9.1h0.1V8.9z M49,20.6c0.1,0,0.3,0,0.4-0.1
				s0.3-0.1,0.4-0.1c0,0,0-0.1,0-0.1s0-0.2-0.1-0.2s-0.1-0.2-0.1-0.2s-0.1-0.1-0.1-0.1l-0.1,0l-0.1,0.1c0,0,0,0.1,0,0.1
				c0,0,0,0-0.1,0.1s0,0-0.1,0c0,0-0.1,0-0.1,0.1s-0.1,0-0.1,0V20.6z M49.2,10.4C49.1,10.4,49.1,10.4,49.2,10.4
				c-0.1,0.2-0.1,0.2,0,0.2S49.2,10.5,49.2,10.4C49.2,10.4,49.2,10.4,49.2,10.4z M49.7,8.7c0,0,0,0.1-0.1,0.1s0,0.1-0.1,0.1
				c0,0-0.1,0-0.1,0.1c0,0-0.1,0.1-0.1,0.1l0,0c0,0.1,0,0.2-0.1,0.3c0,0.1,0,0.2,0,0.3h0.1h0.1l0,0c0,0,0,0,0.1-0.1
				c0,0,0-0.1,0.1-0.1s0.1,0,0.2-0.1c0.1,0,0.2,0,0.2,0c0,0,0.1,0,0.2-0.1c0.1,0,0.1,0,0.1-0.1C50.2,9.2,50.1,9.1,50,9
				s-0.2-0.2-0.2-0.3H49.7L49.7,8.7z M49.3,10.1c0,0.1,0,0.2,0.1,0.2s0.1,0.1,0.1,0.2c0.1,0,0.1,0,0.1-0.1c0,0,0-0.1,0-0.3
				c0-0.2,0-0.3,0-0.3c-0.1,0-0.1,0-0.2,0S49.3,10,49.3,10.1z M50.4,20.2c0,0,0,0,0,0.1c0,0.1,0,0.1,0,0.1
				C50.4,20.3,50.4,20.3,50.4,20.2C50.4,20.2,50.4,20.2,50.4,20.2z M50.4,9.1h0.1L50.4,9V9.1z M50.5,8.4h0.1V8.2L50.5,8.4z
				 M51.9,18.3c0,0,0,0-0.1,0.1s-0.1,0.2-0.1,0.2c0,0,0,0.1,0,0.1c0,0,0,0.1,0,0.1c0.1,0,0.2,0,0.2-0.1s0-0.2,0-0.3l0.1-0.1
				c0,0,0,0,0-0.1c0,0,0,0,0-0.1H51.9z M52.2,8.9C52.1,8.9,52.1,9,52.2,8.9c-0.1,0.2-0.1,0.2,0,0.2C52.2,9.1,52.2,9.1,52.2,8.9
				C52.2,9,52.2,8.9,52.2,8.9z M52.4,10c-0.1,0-0.2,0.1-0.2,0.3v0.1C52.3,10.2,52.4,10.1,52.4,10z M52.5,10.9
				C52.5,10.8,52.4,10.8,52.5,10.9c-0.1-0.1-0.1,0-0.1,0C52.4,10.9,52.4,10.9,52.5,10.9C52.5,10.9,52.5,10.9,52.5,10.9z M53,17.9
				c-0.1,0-0.1,0-0.1,0.1c0,0.1,0,0.1,0.1,0.1c0,0,0.1,0,0.1-0.1C53,17.9,53,17.9,53,17.9z"/>
			<path class="st0" d="M57.2,17.1c0,0,0-0.1,0-0.3c0-0.1,0-0.3,0-0.5c0-0.2,0-0.3-0.1-0.5c0-0.2,0-0.3,0-0.3v-0.3
				c0-0.4,0.1-0.8,0.2-1.2c0.1-0.4,0.2-0.8,0.2-1.2c0-0.8-0.1-1.5-0.3-2.2c-0.2-0.7-0.3-1.5-0.3-2.2c0-0.4,0.1-0.7,0.2-0.8
				s0.3-0.2,0.3-0.4c0,0,0-0.1-0.1-0.2s-0.1-0.1-0.1-0.2c0,0-0.1,0-0.1,0c0,0-0.1,0-0.1,0c0,0-0.1,0.1-0.1,0.1C57,6.9,57,7,57,7V5.8
				c0.1,0,0.2,0,0.2,0.1c0,0.1,0,0.2,0,0.3c0.1-0.1,0.1-0.2,0.2-0.2s0.2,0,0.3-0.1l0-0.1c0-0.1-0.1-0.2-0.2-0.4s-0.2-0.2-0.4-0.2
				c-0.1,0-0.1,0-0.2,0.1s-0.1,0.1-0.2,0.1c0,0,0,0-0.1,0c0,0,0,0-0.1,0L57,5.2C56.9,5,56.7,5,56.6,4.9s-0.2-0.2-0.2-0.4
				c0.2,0,0.3-0.1,0.5-0.2C57,4.2,57.2,4.1,57.3,4c0.1-0.1,0.2-0.2,0.4-0.4c0.1-0.1,0.3-0.2,0.5-0.2c0,0,0,0,0,0.1v0.1
				c0,0,0,0.1-0.1,0.1C58,3.8,58,3.9,58,3.9c0,0,0,0,0.1,0.1s0.1,0,0.1,0c0,0,0.1,0,0.2-0.1c0.1,0,0.2-0.1,0.2-0.1h0.1
				c0.2,0,0.4,0.2,0.6,0.6c0.2,0.4,0.4,0.9,0.5,1.4s0.3,1,0.4,1.5c0.1,0.5,0.2,0.8,0.2,0.9v1.1v1.1c0,0-0.1,0.1-0.1,0.1
				c0,0.1,0,0.1,0,0.1c0,0.4,0.1,0.7,0.2,1.1s0.2,0.7,0.4,1.1l0.1,0.1l0.1,0.1c0.2,0.1,0.3,0.3,0.4,0.4c0.1,0.2,0.2,0.3,0.3,0.5
				c0.1,0.1,0.2,0.3,0.2,0.4s0.2,0.2,0.3,0.2c0.2,0,0.4-0.1,0.5-0.2c0.1-0.1,0.2-0.2,0.3-0.4c0.1-0.1,0.2-0.3,0.3-0.4
				c0.1-0.1,0.3-0.2,0.5-0.2h0.2c-0.1,0.1-0.2,0.1-0.3,0.1s-0.1,0.1-0.1,0.2h1c0.1,0,0.1-0.1,0.2-0.2c0-0.1,0.1-0.3,0.1-0.5
				c0-0.2,0.1-0.3,0.1-0.5s0.1-0.2,0.3-0.2v0.2c0,0,0,0.1-0.1,0.1c0,0.1-0.1,0.1,0,0.1c0,0.1,0.1,0.2,0.1,0.2s0.1,0.1,0.2,0.1
				s0.1,0,0.2,0c0.1,0,0.2,0,0.2,0c0-0.2-0.1-0.3-0.2-0.3c-0.1,0-0.2-0.1-0.2-0.3c0,0,0-0.1,0-0.2c0-0.1,0-0.2,0-0.3
				c0,0,0-0.1-0.1-0.2c0-0.1-0.1-0.2-0.1-0.2h0.1h0.1c0,0,0.1,0,0.1,0.1s0.1,0.1,0.2,0.1h0.1c0.1,0,0.2-0.1,0.3-0.2
				c0.1-0.2,0.2-0.3,0.2-0.3c-0.1,0-0.2,0-0.3-0.1c-0.1-0.1-0.2-0.2-0.2-0.3h0.8c0,0,0,0.1,0,0.2c0,0.1,0.1,0.2,0.1,0.2h0.1h0.1
				c0.1-0.4,0.3-0.7,0.6-1c0.3-0.3,0.6-0.5,1-0.5h0.1l1.1,0.3c0,0,0,0,0.1,0c0,0,0.1,0,0.1,0c0-0.2-0.1-0.4-0.2-0.4
				c-0.1-0.1-0.3-0.1-0.4-0.2c-0.1,0-0.3-0.1-0.4-0.2c-0.1-0.1-0.2-0.2-0.2-0.4c0,0,0.1,0,0.1,0h0.2c0,0,0.1,0.1,0.2,0.1
				s0.2,0.1,0.2,0.1c0.1,0,0.3,0,0.5,0s0.4-0.1,0.5-0.1c-0.2-0.5-0.2-0.9-0.2-1c0-0.1,0.1-0.2,0.2-0.2c0.1,0,0.3,0,0.5,0.1
				c0.2,0,0.3,0,0.5-0.2c0,0,0.1,0,0.1,0.1s0.1,0.1,0.1,0.2c0,0,0,0.1-0.1,0.2C71,8.6,71,8.7,70.9,8.8c-0.1,0.2-0.1,0.3-0.2,0.5
				c-0.1,0.2-0.1,0.3-0.1,0.4c0,0,0,0.1,0,0.1c0,0.1,0,0.1,0,0.1c0-0.1,0.1-0.2,0.2-0.3c0.1-0.1,0.1-0.2,0.2-0.2
				c-0.1,0.2,0,0.3,0,0.3c0.1,0.1,0.2,0.1,0.2,0.1c0.1,0,0.2,0,0.3,0c0.1,0,0.2,0,0.2,0.1c0,0,0,0.1,0.1,0.2c0,0.1,0.1,0.2,0.1,0.3
				c0.1,0.1,0.1,0.2,0.2,0.4l-2-0.2l-0.1,0.2c0.1,0,0.2,0,0.4,0s0.4,0,0.5,0.1c0.2,0,0.4,0.1,0.5,0.2c0.2,0.1,0.2,0.2,0.3,0.3
				l-1.7-0.1c0,0,0,0,0.1,0.1c0.1,0.1,0.2,0.1,0.2,0.2c0.1,0.1,0.2,0.1,0.3,0.2c0.1,0.1,0.1,0.1,0.1,0.1c0,0.1,0,0.1-0.1,0.2
				c-0.1,0-0.2,0.1-0.2,0.1s-0.2,0.1-0.2,0.1s-0.1,0.1-0.1,0.2h-0.7c0,0,0,0.1,0.1,0.2s0.1,0.2,0,0.2C69.6,13,69.5,13,69.5,13
				s-0.1,0-0.1,0c0,0-0.1,0.1-0.2,0.1c-0.1,0.1-0.2,0.2-0.3,0.5c0,0-0.1,0.1-0.1,0.1s-0.1,0.1-0.2,0.1v-0.4h-0.2
				c0,0.2,0,0.3,0.1,0.5c0,0.1,0.1,0.3,0.1,0.5c0,0.1-0.1,0.3-0.2,0.4c-0.1,0.1-0.3,0.3-0.5,0.4c-0.2,0.1-0.4,0.2-0.6,0.3
				c-0.2,0.1-0.3,0.2-0.5,0.2c-0.1-0.3-0.3-0.4-0.5-0.4h-0.1c0.1,0.4,0.3,0.6,0.6,0.9c0.4,0.2,0.8,0.4,1.3,0.6
				c0.5,0.2,0.9,0.3,1.4,0.4c0.5,0.1,0.8,0.3,1.1,0.4c0.2,0.1,0.3,0.2,0.3,0.2c0.1,0.1,0.1,0.2,0.2,0.2s0.1,0.1,0.2,0.2
				c0.1,0,0.2,0,0.4,0c0,0,0,0,0,0.1c0,0,0,0,0,0.1c0,0.2-0.1,0.3-0.4,0.3c0,0,0.1,0.1,0.1,0.1c0,0.1,0,0.1,0,0.1l-0.1,0.1
				c0,0-0.1,0.1-0.1,0.1l-0.1,0h-0.1c0,0,0,0,0,0l-0.7-0.6v-0.1v-0.1l0.1-0.3h-0.4c0,0.3,0.1,0.6,0.3,0.8c0.2,0.3,0.5,0.5,0.8,0.6
				l-0.4,0.9c-0.4,0.1-0.6,0.2-0.8,0.2c-0.1,0-0.2-0.1-0.2-0.2c0-0.1,0-0.3-0.1-0.4c0-0.2-0.1-0.3-0.2-0.5c0,0.1,0,0.2,0,0.3
				c0,0.1-0.1,0.2-0.3,0.2h-0.1c0,0,0-0.1,0.1-0.2c0-0.1,0-0.2,0.1-0.2v-0.1v-0.1c-0.1-0.1-0.3-0.2-0.3-0.2s-0.2-0.1-0.3-0.1
				c-0.2,0-0.4,0.1-0.6,0.3c-0.1,0.2-0.2,0.4-0.2,0.6h-0.1c-0.1,0-0.2-0.1-0.2-0.2c0-0.1-0.1-0.2-0.1-0.4c0-0.1-0.1-0.2-0.2-0.3
				c-0.1-0.1-0.2-0.1-0.3-0.1c0-0.1-0.1-0.3-0.2-0.5c-0.1-0.2-0.2-0.4-0.3-0.5c0,0.1-0.1,0.1-0.2,0.2c-0.1,0.1-0.2,0.2-0.3,0.3
				c-0.1,0.1-0.2,0.2-0.3,0.3S65.5,19,65.4,19c0,0,0-0.1-0.1-0.2c0-0.1-0.1-0.2-0.2-0.3s-0.1-0.2-0.2-0.3c-0.1-0.1-0.1-0.1-0.2-0.1
				c-0.1,0-0.2,0.1-0.2,0.3c0,0.2-0.1,0.3-0.1,0.4c0-0.1-0.1-0.2-0.2-0.3c-0.1-0.1-0.2-0.2-0.3-0.2c0,0,0,0-0.1,0s-0.1,0-0.1,0.1
				s-0.1,0.1-0.2,0.1h-0.1h-0.1c0,0,0-0.1,0-0.2c0-0.1,0-0.2,0-0.3c0-0.1,0-0.2-0.1-0.3c0-0.1-0.1-0.1-0.2-0.1c-0.1,0-0.2,0-0.2,0.1
				s-0.2,0.1-0.2,0.1s-0.2,0-0.2,0c0,0-0.1-0.1-0.2-0.2c0,0.2-0.1,0.3-0.3,0.3c0,0,0-0.1,0-0.2s0-0.1,0-0.1l0.1-0.1l0.1-0.1l0-0.1
				c0,0,0,0,0,0v-0.1c-0.1,0-0.2-0.1-0.3-0.1s-0.3-0.1-0.3-0.1c-0.1-0.1-0.2-0.2-0.1-0.2c0-0.1,0.1-0.2,0.1-0.3H61c0,0,0,0.1,0,0.2
				c0,0.1,0,0.1,0,0.2c0,0.1,0,0.2,0,0.2c0,0.1-0.1,0.1-0.1,0.1h-1c0,0,0,0.1,0,0.1c0,0,0,0.1,0,0.1c0.1,0.1,0.2,0.2,0.3,0.2
				c0.1,0,0.2,0.1,0.2,0.3c0,0.1,0,0.2,0,0.4c0,0.2,0,0.4,0,0.4c0,0.1,0,0.1,0,0.3c0,0.1,0,0.3,0,0.4c0,0.1,0,0.3-0.1,0.4
				c0,0.1-0.1,0.2-0.2,0.2c-0.2,0-0.4,0-0.6-0.1c-0.2-0.1-0.4-0.1-0.6-0.1h-0.1c0,0,0,0.1-0.1,0.2s-0.1,0.2-0.1,0.2c0,0,0,0-0.1,0.1
				c0,0.1-0.1,0.1-0.1,0.1c0,0,0,0.1,0.1,0.2c0.1,0.1,0.1,0.1,0.2,0.1h-0.1c-0.2,0-0.4-0.1-0.5-0.2c-0.2-0.1-0.3-0.2-0.5-0.2v-0.6
				c0,0,0.1,0,0.1,0c0.1,0,0.1-0.1,0.1-0.1c0-0.1,0-0.1,0-0.3c0-0.1-0.1-0.2-0.1-0.2h-0.3c0-0.1,0-0.3-0.1-0.5
				c0-0.2-0.1-0.3-0.3-0.3V17.1z M57.1,4.9c0.1,0.1,0.1,0.2,0.3,0.2V4.9H57.1z M57.5,7.7h0.1V7.6h-0.1V7.7z M58,20.6h-0.1v-0.1
				L58,20.6z M58.4,11.5c0,0,0.1,0.1,0.1,0.1c0.1,0.1,0.1,0.1,0.1,0.1c0-0.1,0.1-0.2,0.2-0.4c0.1-0.1,0.1-0.3,0.1-0.4v-0.1
				c-0.1,0-0.2,0.1-0.3,0.2c-0.1,0.1-0.2,0.2-0.2,0.3V11.5L58.4,11.5z M58.9,5.1c-0.1,0-0.2,0.1-0.2,0.2c0,0.1,0,0.2,0,0.3v0.2
				c0.1,0,0.1,0,0.2-0.1C59,5.6,59,5.5,59,5.4c0,0,0-0.1,0-0.2C59,5.2,58.9,5.1,58.9,5.1L58.9,5.1z M60,18h0.1v-0.1H60V18z
				 M60.1,16.6c0.1,0,0.2,0,0.3-0.1s0.2-0.1,0.2-0.2h-0.5V16.6z M61.1,15.5h0.2l-0.2-0.1V15.5z M63.2,14.7c-0.1,0-0.1,0-0.1,0.1
				c0,0.1,0,0.1,0.1,0.1s0.1,0,0.1-0.1C63.3,14.8,63.3,14.7,63.2,14.7z M63.4,15C63.3,15,63.3,15,63.4,15c-0.1,0.1,0,0.1,0,0.1
				C63.4,15.1,63.4,15.1,63.4,15C63.4,15,63.4,15,63.4,15z M63.9,15.3c0.1,0,0.1-0.1,0.1-0.3h-0.1V15.3z M64,17.3v-0.1h-0.1L64,17.3
				z M64.1,16c0,0,0.1,0.1,0.1,0.1c0,0,0,0.1,0.1,0.1c0.1,0,0.2,0,0.2-0.1c0,0,0-0.1,0-0.2c0-0.1,0-0.1,0-0.2c0-0.1-0.1-0.1-0.2-0.1
				c0,0,0,0-0.1,0c0,0,0,0-0.1,0.1c0,0.1-0.1,0.1-0.1,0.1V16L64.1,16z M64.4,17.1c0.1,0,0.1-0.1,0.1-0.2v-0.2L64.4,17.1z M64.8,13.7
				h0.2l-0.2-0.1V13.7z M65.1,15.9h0.1l-0.1-0.1V15.9z M65.1,16.5h0.1v-0.1h-0.1V16.5z M66.2,18.9L66.2,18.9
				C66.3,18.9,66.3,18.9,66.2,18.9C66.3,18.9,66.3,18.9,66.2,18.9h0.1l0.1,0.1l0,0.1c0,0,0,0,0,0.1L66.1,19L66.2,18.9z M66.4,13.5
				C66.3,13.6,66.3,13.6,66.4,13.5c-0.1,0.1-0.1,0.1-0.1,0.1v0.9h0.1c0,0,0.1-0.1,0.2-0.3c0.1-0.2,0.1-0.3,0.2-0.4
				c0,0-0.1-0.1-0.1-0.2c-0.1-0.1-0.1-0.2-0.1-0.2H66.4L66.4,13.5z M66.4,12.1c0,0.1,0.1,0.2,0.2,0.3s0.2,0.2,0.3,0.2h0.1
				c0.1,0,0.3-0.1,0.5-0.2s0.3-0.2,0.3-0.4c0,0,0,0,0-0.1s-0.1-0.1-0.1-0.1s-0.1-0.1-0.1-0.2v-0.1v-0.1l0.1-0.1c0,0,0-0.1,0.1-0.1
				s0,0,0-0.1c0,0-0.1-0.1-0.2-0.2c-0.1-0.1-0.2-0.2-0.2-0.2L67,11.1v1.1h-0.1c0,0-0.1,0-0.1-0.1S66.6,12,66.6,12h-0.1h-0.1
				C66.5,12,66.4,12,66.4,12.1L66.4,12.1z M66.8,15.1c0,0.1,0,0.2,0,0.2c0,0,0,0.1,0.1,0.2c0.2-0.1,0.3-0.1,0.5-0.2s0.2-0.2,0.2-0.4
				c0-0.1,0-0.1,0-0.2s0-0.1-0.1-0.1l-0.3,0.2v-0.2c0-0.1,0-0.2,0.1-0.2c0,0,0.1-0.1,0.1-0.2c0-0.1,0-0.2,0-0.2c0,0-0.1-0.1-0.2-0.1
				c-0.1,0-0.2,0-0.2,0.1c0,0.1-0.1,0.2-0.1,0.3c0,0.1,0,0.3,0,0.4C66.7,15,66.8,15.1,66.8,15.1z M66.8,13.3
				C66.8,13.3,66.8,13.3,66.8,13.3c0.1,0.1,0.1,0.1,0.1,0.1c0,0,0,0,0,0H67l0.1,0l-0.1-0.1H66.8C66.8,13.3,66.8,13.3,66.8,13.3
				C66.8,13.3,66.8,13.3,66.8,13.3L66.8,13.3z M67.1,18.8c-0.1,0-0.1,0-0.1,0.1c0,0.1,0,0.1,0.1,0.1s0.1,0,0.1-0.1
				C67.3,18.8,67.2,18.8,67.1,18.8z M67.3,18.7h0.3c0-0.1,0-0.2-0.1-0.2c-0.1-0.1-0.1-0.1-0.2-0.2V18.7z M67.5,13.5
				c0,0.1,0.1,0.1,0.3,0.1c0.1,0,0.1,0,0.2,0c0.1,0,0.1-0.1,0.1-0.2v-0.1c0,0,0,0-0.1-0.1c0,0-0.1,0-0.1-0.1l-0.1,0l-0.1,0
				c0,0-0.1,0.1-0.1,0.1C67.6,13.5,67.6,13.5,67.5,13.5z M67.7,18.7c-0.1,0-0.1,0-0.1,0.1s0,0.1,0.1,0.1s0.1,0,0.1-0.1
				S67.7,18.7,67.7,18.7z M67.7,10.6c0,0.1,0,0.2,0.1,0.3c0.1,0.1,0.1,0.2,0.1,0.4H68c0-0.1,0-0.3,0.1-0.4c0-0.1,0.1-0.2,0.3-0.3
				c-0.1-0.2-0.3-0.3-0.5-0.3h-0.1c0,0,0,0-0.1,0.1c0,0,0,0.1-0.1,0.1V10.6z M68.3,17.2c-0.1,0.1-0.2,0.1-0.2,0.3h0.2V17.2z
				 M68.7,17.9h0.1v-0.1L68.7,17.9z M69,11.3c0,0.1,0,0.1,0.1,0.2c0,0.1,0.1,0.2,0.1,0.3s0.1,0.2,0.2,0.3c0.1,0.1,0.1,0.1,0.2,0.1
				h0.2c0,0,0-0.1,0-0.1s0-0.1,0-0.1c0,0,0-0.1-0.1-0.1c0-0.1-0.1-0.1-0.1-0.2c0,0,0,0,0-0.1c0,0,0-0.1,0-0.1c0,0,0-0.1,0.1-0.1
				c0,0,0,0,0-0.1c0,0,0-0.1,0-0.1c0-0.1,0-0.2-0.1-0.2s-0.1-0.1-0.2-0.2l-0.1,0c-0.1,0-0.2,0.1-0.3,0.2S69,11.2,69,11.3z M69,12.2
				h0.2c0-0.1-0.1-0.2-0.2-0.2V12.2z M69.3,9h0.1c0,0,0.1,0,0.2,0.1s0.2,0,0.2,0.1c0,0-0.1,0-0.1,0c-0.1,0-0.1,0-0.1,0
				c-0.1,0-0.1,0-0.2,0S69.1,9.1,69.1,9H69.3z M69.6,19.8c0.1,0,0.1,0,0.1,0.1c0,0.1,0,0.1-0.1,0.1s-0.1,0-0.1-0.1
				C69.5,19.9,69.5,19.8,69.6,19.8z M69.8,18.4C69.7,18.4,69.7,18.4,69.8,18.4c-0.1,0.1,0,0.1,0,0.1C69.8,18.5,69.8,18.5,69.8,18.4
				C69.8,18.4,69.8,18.4,69.8,18.4z M70.3,10.3C70.3,10.3,70.3,10.2,70.3,10.3c-0.1-0.1-0.1,0-0.1,0C70.2,10.3,70.2,10.3,70.3,10.3
				C70.3,10.3,70.3,10.3,70.3,10.3z M70.4,13c0,0-0.1,0.1-0.1,0.1c-0.1,0-0.1,0-0.1-0.1c0,0,0-0.1,0.1-0.1S70.4,13,70.4,13z
				 M70.4,7.6L70.4,7.6C70.4,7.7,70.4,7.7,70.4,7.6c0,0.1,0,0.2,0,0.2c0,0-0.1,0.1-0.1,0.1V7.8C70.3,7.6,70.3,7.6,70.4,7.6L70.4,7.6
				z M71.5,9.4C71.5,9.4,71.5,9.4,71.5,9.4c-0.1,0-0.1,0.1-0.2,0.1s-0.1,0-0.2,0c-0.1,0-0.1,0-0.2,0s0,0,0,0c0,0,0.1,0,0.2,0
				s0.1,0,0.2,0C71.4,9.4,71.5,9.4,71.5,9.4z M72.9,10.3c0,0,0-0.1-0.1-0.2c-0.1-0.1-0.1-0.1-0.1-0.1c0,0,0-0.1,0.1-0.1
				c0-0.1,0-0.1,0-0.1c-0.2-0.1-0.4-0.1-0.6-0.1c-0.1,0-0.2-0.1-0.3-0.1s-0.1-0.1-0.1-0.1s0-0.1,0-0.3L72.3,9c0.1,0,0.2,0,0.3,0.1
				c0.1,0.1,0.3,0.1,0.4,0.2c0.2,0.1,0.4,0.2,0.6,0.3c0,0.2-0.1,0.4-0.3,0.5c-0.2,0.1-0.4,0.3-0.5,0.3c-0.1,0-0.1-0.1-0.1-0.2H72.9z
				 M72,9.5C72,9.5,72,9.4,72,9.5c-0.1-0.1-0.2,0-0.1,0S71.9,9.6,72,9.5C71.9,9.6,72,9.5,72,9.5z M72.6,7.9v0.3l-0.1-0.2L72.6,7.9z
				 M73,8.7c0.1,0,0.1,0,0.2,0.1c0.1,0,0.1,0.1,0.1,0.2h-0.5c0,0,0-0.1,0.1-0.1S73,8.7,73,8.7z"/>
			<path class="st0" d="M78.8,9c0-0.4,0-0.8,0-1.3c0-0.5-0.1-1-0.2-1.3l0.1-3.6c0-0.2,0.1-0.3,0.2-0.4s0.2-0.1,0.2-0.3
				c0-0.1,0-0.2-0.1-0.2c-0.1,0-0.1-0.1-0.1-0.1c0-0.2,0.1-0.4,0.2-0.4c0.1,0,0.2-0.1,0.3-0.2c0,0,0.1-0.1,0.1-0.2s0-0.2,0-0.3
				c0-0.1,0-0.2,0.1-0.2c0-0.1,0.1-0.1,0.1-0.1c0,0,0.1,0,0.2,0c0,0,0.1,0,0.2,0.1c0.1,0.1,0.2,0.1,0.2,0.1c0,0,0,0,0,0c0,0,0,0,0,0
				c0,0,0,0,0.1-0.1s0.1-0.1,0.1-0.1c0,0-0.1-0.1-0.2-0.1S80,0.2,80,0.2V0c0.1,0,0.2,0,0.3,0c0.2,0,0.3,0,0.5,0.1s0.3,0.1,0.4,0.2
				c0.1,0.1,0.2,0.2,0.2,0.3c0,0,0,0.1,0,0.3c0,0.2,0,0.3,0,0.3c0,0.1,0,0.1,0.1,0.1c0.1,0,0.2,0,0.2-0.1c0,0,0.1-0.1,0.1-0.1
				s0-0.1,0.1-0.1c0,0,0.1,0,0.1,0c0.1,0,0.1,0,0.2,0.1s0.1,0.2,0.1,0.3c0,0.1,0.1,0.2,0.1,0.4c0,0.1,0,0.2,0,0.3
				c0,0.2-0.1,0.5-0.2,0.7C82.1,3,82,3.2,82,3.5c0,0.1,0,0.1,0,0.2c0,0,0.1,0.1,0.1,0.1c0,0,0.1,0.1,0.1,0.1s0.1,0.1,0.1,0.2v0.1
				c-0.1,0.2-0.2,0.5-0.3,0.8c-0.1,0.3-0.2,0.6-0.2,0.8l0.1,0c0,0.3,0,0.7,0,1s0,0.7,0,1c0,0.2,0,0.4-0.1,0.6
				c-0.1,0.2-0.2,0.5-0.2,0.6c0,0.1-0.1,0.2-0.1,0.5c-0.1,0.2-0.1,0.4-0.1,0.5c0,0-0.1-0.1-0.1-0.1s-0.1-0.1-0.1-0.1V9.7V9.6
				c0,0,0-0.1,0.1-0.2c0-0.1,0.1-0.2,0.1-0.2v0V9.1c-0.1,0.1-0.2,0.1-0.4,0.3c-0.2,0.1-0.3,0.3-0.3,0.4c0,0.1,0,0.2,0.1,0.3
				c0,0.1,0.1,0.1,0.2,0.2c0.1,0.1,0.1,0.1,0.2,0.2c0.1,0.1,0.1,0.2,0.1,0.3c-0.1,0-0.2,0-0.3-0.1s-0.1-0.1-0.1-0.2
				s-0.1-0.1-0.1-0.2c0-0.1-0.1-0.1-0.2-0.1l0,1h-0.1c0,0-0.1,0-0.1,0s-0.1,0-0.1,0c0,0-0.1,0-0.2-0.1S79.9,11,79.8,11
				c-0.1,0-0.1,0.1-0.2,0.2s-0.1,0.2-0.2,0.2l-0.1,0c-0.1,0-0.2-0.1-0.2-0.4s-0.1-0.5-0.1-0.8C79,9.9,79,9.6,79,9.4
				C78.9,9.1,78.9,9,78.8,9z M78.7,19.6c0-0.6,0.1-1.3,0.3-2c0.2-0.7,0.5-1.2,1-1.6c0.1-0.1,0.1-0.1,0.2-0.2c0-0.1,0.1-0.1,0.3-0.1
				v0.2h-0.2v0.1c0,0,0.1,0,0.2,0.1c0.1,0,0.2,0.1,0.2,0.1l0.1,0.1c0.1,0,0.2,0,0.4,0c0.2,0,0.4,0.1,0.5,0.2c0,0,0.1,0,0.1,0.1
				s0,0.1,0,0.2c0.1,0.1,0.1,0.1,0.1,0.1c0,0,0.1,0,0.1,0s0,0,0.1,0c0,0,0,0.1,0.1,0.2c0,0,0,0.1,0,0.3s0,0.3,0,0.4v0.1v0.1
				c0,0.1,0,0.2-0.1,0.3c0,0.1,0,0.2-0.1,0.2c0,0-0.1,0.1-0.1,0.1s-0.1,0-0.1,0.1c-0.1,0-0.1,0.1-0.1,0.2c0,0.1-0.1,0.1-0.1,0.2
				c0,0.1-0.1,0.2-0.1,0.2s-0.1,0.1-0.2,0.1c-0.1,0-0.3-0.1-0.4-0.2s-0.3-0.2-0.5-0.2h-0.4l0.4,0.2c-0.1,0.2-0.2,0.3-0.3,0.5
				c-0.1,0.1-0.2,0.3-0.2,0.4c-0.1,0.1-0.2,0.2-0.4,0.3c-0.1,0.1-0.3,0.1-0.6,0.1c-0.1,0-0.2-0.1-0.3-0.3
				C78.8,19.9,78.7,19.7,78.7,19.6z M78.9,5.6c-0.1,0-0.1,0.1-0.1,0.1c0,0.1,0,0.1,0.1,0.1c0.1,0,0.1,0,0.1-0.1
				C79,5.6,79,5.6,78.9,5.6z M78.9,8.5c0,0-0.1,0-0.1,0.1c0,0.1,0,0.1,0.1,0.1C79,8.7,79,8.6,78.9,8.5z M79.2,1.4
				C79.1,1.4,79.1,1.4,79.2,1.4c-0.1,0.1-0.1,0.1,0,0.1S79.2,1.5,79.2,1.4C79.2,1.5,79.2,1.4,79.2,1.4z M79.5,20.5
				c0.1,0,0.1,0,0.1,0.1s0,0.1-0.1,0.1s-0.1,0-0.1-0.1S79.5,20.5,79.5,20.5z M80,19.7c-0.1,0-0.2,0-0.3,0s-0.2,0.1-0.2,0.2H80V19.7z
				 M79.7,6.2c-0.1,0-0.1,0-0.1,0.1c0,0.1,0,0.1,0.1,0.1C79.7,6.4,79.7,6.3,79.7,6.2C79.8,6.2,79.8,6.2,79.7,6.2z M80,1.2
				C80,1.1,80,1.1,80,1.2C79.8,1.1,79.8,1.1,80,1.2C79.9,1.2,79.9,1.2,80,1.2C79.9,1.2,80,1.2,80,1.2z M80,19.6
				c0.1-0.1,0.1-0.1,0.2-0.2H80L80,19.6z M80.2,17.5c-0.1,0-0.1,0-0.1,0.1c0,0.1,0,0.1,0.1,0.1c0.1,0,0.1,0,0.1-0.1
				C80.3,17.6,80.3,17.5,80.2,17.5z M80.3,10.4c-0.1,0-0.1,0-0.1,0.1s0,0.1,0.1,0.1s0.1,0,0.1-0.1S80.3,10.4,80.3,10.4z M80.5,1.6
				c-0.1,0-0.1,0-0.1,0.1c0,0.1,0,0.1,0.1,0.1s0.1,0,0.1-0.1C80.5,1.7,80.5,1.6,80.5,1.6z M80.5,18.4h0.1l-0.1-0.1V18.4z M81,0.8
				c-0.2,0-0.3,0.1-0.3,0.2C80.9,1.1,81,1,81,0.8L81,0.8z M80.9,15.8c0.1,0,0.1,0.1,0.1,0.1s0,0.1-0.1,0.1c-0.1,0-0.1,0-0.1-0.1
				S80.8,15.8,80.9,15.8z M81.1,8.5c-0.2,0-0.3,0.1-0.3,0.2c0.1,0,0.1,0,0.2,0C81.1,8.7,81.1,8.6,81.1,8.5L81.1,8.5z M81,10.9
				l-0.1,0.2v-0.2L81,10.9z M81,1.6C81,1.6,81,1.6,81,1.6c0.1-0.1,0.1-0.1,0.1-0.1V1.5l0-0.1L81,1.6z M81.2,18.9l0.1,0l-0.1-0.1
				V18.9z M81.2,4.4l0.2-0.2h-0.1L81.2,4.4z M81.6,10.4c0,0.1,0,0-0.1,0C81.5,10.4,81.5,10.3,81.6,10.4
				C81.6,10.4,81.6,10.4,81.6,10.4z M81.7,3.7C81.7,3.7,81.8,3.7,81.7,3.7c0.1-0.1,0.1-0.2,0.1-0.2c0-0.1,0-0.2,0-0.2
				c0,0-0.1,0-0.1-0.1c0,0,0,0,0,0c0,0,0,0,0,0h0L81.7,3.7z M81.7,4.1V4l-0.1,0L81.7,4.1z M81.7,8h0.1l-0.1-0.1V8z M81.9,4.2
				C81.9,4.1,81.9,4.1,81.9,4.2c-0.1,0-0.1,0-0.1,0C81.8,4.2,81.9,4.2,81.9,4.2z M82.1,0.3L82.1,0.3c0,0.1-0.1,0.2-0.1,0.1h0h-0.1
				L82.1,0.3L82.1,0.3z M82.1,0.7C82.1,0.7,82.1,0.7,82.1,0.7C82,0.8,82,0.7,82,0.7C82,0.7,82,0.7,82.1,0.7
				C82.2,0.6,82.2,0.6,82.1,0.7z"/>
		</g>
		<path class="st0" d="M30.4,41.9l1.2-0.1c0-0.2,0-0.5,0.1-0.7c0-0.6,0.1-1.3,0.2-1.9c0.1-0.6,0.3-1.3,0.4-1.9
			c0.1-0.3,0.1-0.5,0.2-0.8c0.2-0.8,0.5-1.6,1.1-2.5c0.9-1.5,2.1-2.5,3.5-3c0.1,0,0.1-0.1,0.1-0.1c1.1-1.8,2.8-3,5.4-4
			c0.9-0.3,1.8-0.5,2.5-0.5c0.1,0,0.1,0,0.2,0l0.3,0l0,0.3c-2.5,0.6-4.6,1.8-6.4,3.8c0.7,0.1,1.3,0.3,1.9,0.7c1.1,0.8,1.6,2,1.3,3.5
			c-0.2,1.1-1.3,2-2.5,2.1c-0.1,0-0.2,0-0.4,0c-0.8,0-1.5-0.3-2.1-0.9c-0.8-0.7-1.1-1.5-1.1-2.7c0,0,0,0,0,0
			c-0.2,0.2-0.4,0.3-0.5,0.5c-0.6,0.8-1,1.8-1.3,2.8c-0.4,1.6-0.5,3.2-0.4,4.7l0,0.2l1.2,0l-2.2,5.2L30.4,41.9z M38.6,32.5
			c-0.2,0-0.3,0-0.3,0.1c-0.1,0.1-0.1,0.3-0.1,0.6c0,0.8,0.3,1.4,0.8,1.8c0.2,0.1,0.4,0.2,0.7,0.2c0.2,0,0.5-0.1,0.7-0.3
			c0.2-0.2,0.4-0.5,0.4-0.8c0-0.4-0.1-0.8-0.3-1c-0.4-0.4-0.9-0.5-1.4-0.6C38.8,32.5,38.7,32.5,38.6,32.5z"/>
	</g>
</g>
<g id="レイヤー_3">
</g>
<g id="hashtag">
</g>
<g id="レイヤー_6">
</g>
<g id="レイヤー_7">
</g>
<g id="_x23_">
</g>
<g id="tag_x5F_txt">
</g>
</svg>
