<?xml version="1.0" encoding="utf-8"?>
<!-- Generator: Adobe Illustrator 22.1.0, SVG Export Plug-In . SVG Version: 6.00 Build 0)  -->
<svg version="1.1" xmlns="http://www.w3.org/2000/svg" xmlns:xlink="http://www.w3.org/1999/xlink" x="0px" y="0px"
	 viewBox="0 0 440 151.5" style="enable-background:new 0 0 440 151.5;" xml:space="preserve">
<style type="text/css">
	.st0{fill:#FFFFFF;}
	.st1{fill:#3EBCC2;}
	.st2{fill:#595757;}
	.st3{fill:#69B32D;}
	.st4{fill:#5DAAD8;}
	.st5{fill:#EDA6C5;}
	.st6{fill:#0A9C91;}
	.st7{fill:none;stroke:#FFFFFF;stroke-width:0.4192;stroke-miterlimit:10;}
	.st8{opacity:0.1;}
	.st9{opacity:0.3;}
	.st10{fill:url(#SVGID_1_);}
	.st11{fill:#727272;}
	.st12{fill:#69B22D;}
	.st13{fill:#459543;}
	.st14{fill:#1B1B1B;}
	.st15{fill:#643231;}
	.st16{fill:none;stroke:#595757;stroke-width:0.8944;stroke-miterlimit:10;}
	.st17{fill:#A3A3A3;}
	.st18{fill:none;stroke:#A3A3A3;stroke-miterlimit:10;}
	.st19{fill:#E96447;}
	.st20{fill:#365FA8;}
	.st21{fill:#A961A0;}
	.st22{fill:#F1BC1B;}
	.st23{fill:#69B42D;}
	.st24{fill:#EDA6C5;stroke:#E5A2BF;stroke-width:1.5;stroke-linecap:round;stroke-linejoin:round;stroke-miterlimit:10;}
	.st25{fill:none;stroke:#FFFFFF;stroke-width:8;stroke-miterlimit:10;}
	.st26{fill:none;stroke:#FFFFFF;stroke-width:8;stroke-linecap:round;stroke-linejoin:round;stroke-miterlimit:10;}
	.st27{fill:#0A9D92;stroke:#11968C;stroke-width:1.1728;stroke-linejoin:round;stroke-miterlimit:10;}
</style>
<g id="レイヤー_2">
</g>
<g id="レイヤー_1">
	<g>
		<path class="st13" d="M239.3,39c-5.2,1-35.3,5.2-53,32.7C186.3,71.7,153,0,37.6,0c0,10.4,8.8,35.9,33.8,46.8
			c25,10.9,67.6,22.9,88.9,25c21.3,2.1,30.1,13,30.1,13s-1,19.8-4.2,25.5s1,15.1,7.3,5.7c6.2-9.4,6.2-28.1,4.2-34.3
			c7.8-2.1,32.5-8.3,52.9-42.6C254.9,32.7,244.5,37.9,239.3,39z M150,56.7c-3.9-3.2-8.7-5.8-22.1-11c-11-4.4-11.6-4.2-34.2-11.5
			c-7.9-3.3-2.1-2.2,0-1.8c23.7,7.6,31.6,9.9,42,14.4c5.9,2.6,9.5,4.3,13.3,7.3C153.8,58.5,152.2,57.9,150,56.7z M225.5,54.9
			c0,0-14.4,10.4-16.7,12.3c-2.3,1.9-7.2,6.1-5.1,3.5c6.3-8.1,19.8-15.8,19.8-15.8C226.2,53.3,225.5,54.9,225.5,54.9z"/>
		<g>
			<path class="st13" d="M331.7,126.9c0.3,0,0.5,0.2,0.4,0.5v16.1c0,5-3.1,8-8.3,8c-2.2,0-4.6-0.7-5.8-1.7c-0.2-0.2-0.3-0.4-0.2-0.6
				l1.7-4.8c0.1-0.3,0.4-0.3,0.7-0.1c0.7,0.5,1.5,0.9,2.6,0.9c1.3,0,2.2-0.9,2.3-2.3v-15.4c0-0.3,0.2-0.5,0.5-0.5H331.7z"/>
			<path class="st13" d="M358.5,150.5c0.1,0.2,0,0.5-0.3,0.5h-6.9c-0.3,0-0.6-0.2-0.7-0.5l-1-3.7h-6.6l-1,3.7
				c-0.1,0.3-0.4,0.5-0.7,0.5h-6.9c-0.3,0-0.4-0.2-0.3-0.5l7.9-23.2c0.1-0.2,0.5-0.5,0.8-0.5h7.1c0.3,0,0.7,0.2,0.8,0.5L358.5,150.5
				z M346.2,135.2l-1.9,6.6h3.8L346.2,135.2z"/>
			<path class="st13" d="M369.9,126.9c6.1,0,9.8,3.3,9.8,8.3c0,5-3.7,8.3-9.8,8.3h-1.4v7c0,0.2-0.2,0.5-0.6,0.5h-6.3
				c-0.2,0-0.5-0.2-0.5-0.5v-23.1c0-0.3,0.2-0.5,0.5-0.5H369.9z M370.2,137.3c1.2,0,2.1-0.8,2.1-2.1s-0.8-2.1-2.1-2.1h-1.8v4.1
				H370.2z"/>
			<path class="st13" d="M404.1,150.5c0.1,0.2,0,0.5-0.3,0.5h-6.9c-0.3,0-0.6-0.2-0.7-0.5l-1-3.7h-6.6l-1,3.7
				c-0.1,0.3-0.4,0.5-0.7,0.5h-6.9c-0.3,0-0.4-0.2-0.3-0.5l7.9-23.2c0.1-0.2,0.5-0.5,0.8-0.5h7.1c0.3,0,0.7,0.2,0.8,0.5L404.1,150.5
				z M391.9,135.2l-1.9,6.6h3.8L391.9,135.2z"/>
			<path class="st13" d="M426.9,126.9c0.3,0,0.5,0.2,0.5,0.5v23.1c0,0.2-0.2,0.5-0.5,0.5h-6c-0.2,0-0.6-0.2-0.7-0.5l-6.1-10.9v10.8
				c0,0.2-0.2,0.5-0.5,0.5h-6.2c-0.3,0-0.5-0.2-0.5-0.5v-23.1c0-0.3,0.2-0.5,0.5-0.5h6c0.3,0,0.7,0.2,0.8,0.5l6,10.9v-10.8
				c0-0.3,0.2-0.5,0.5-0.5H426.9z"/>
		</g>
		<g>
			<path class="st13" d="M0.1,119.3c0,0-0.1-0.1-0.1-0.3V75.6l28.6-0.1c0.1,0,0.1,0.1,0.1,0.1l0,9.9c0,0.1,0,0.1-0.1,0.1H11.3v6.9
				h14.1l-0.9,9.1c0,0,0,0,0,0c0,0-0.1,0.1-0.2,0.1h-13v7.3h18l0.1,10.1l-0.1,0.1H0.1z"/>
			<path class="st13" d="M57.4,119.3l0-19.8c0-3.1-1.5-5-3.9-5c-3.4,0-4.8,2.9-5,4.4l0,20.3l-11.1,0.1l-0.1-34.4l7.1-0.1
				c0.2,0,0.2,0,0.2,0.1l1.3,3.4l0.9-1.1c1.7-2,5.6-3.4,9.5-3.4c8.5,0,12.3,4.2,12.3,13.6v21.7l-0.1,0.1H57.4z"/>
			<path class="st13" d="M72.9,124.7c0,0,0-0.2,0.3-0.5c2.5-2.4,3.9-5.4,3.9-8.1V84.8l11.1-0.1l0.1,31.3c0,7.7-3.8,14.1-10.2,17.1
				l-0.1,0L72.9,124.7z M82.6,81.9c-3.7,0-6-2.2-6-5.7c0-3.6,2.4-5.9,6-5.9c3.7,0,6,2.3,6,5.9C88.6,79.6,86.2,81.9,82.6,81.9z"/>
			<path class="st13" d="M113.6,120.2c-10.5,0-17.6-7.3-17.6-18.2c0-10.9,7.1-18.2,17.6-18.2s17.6,7.3,17.6,18.2
				C131.2,112.9,124.1,120.2,113.6,120.2z M113.6,94c-4.2,0-7.1,3.3-7.1,8.1c0,4.7,2.9,8,7.1,8c4.2,0,7.1-3.3,7.1-8.1
				C120.7,97.3,117.8,94,113.6,94z"/>
			<path class="st13" d="M147.1,132.5c-4.1,0-8.1-1.3-10.1-3.3c-0.1-0.1-0.1-0.2-0.1-0.3l3.3-7.1c2.1,1.4,4.3,2.2,6.2,2.2
				c3.6,0,5.6-1.8,6.6-6l0.2-1.1h-6.2c-0.2,0-0.3-0.2-0.3-0.3l-10.1-32h12.4c0.2,0,0.4,0.3,0.4,0.3l4.8,20.6l1.7,0l4.8-20.7
				c0-0.2,0.2-0.3,0.3-0.3h12.2l-10.7,35.1C159.8,128.8,155.4,132.5,147.1,132.5z"/>
		</g>
		<g>
			<path class="st13" d="M279.1,75.7c0.5,0,0.8,0.4,0.6,0.9l-13.8,41.7c-0.1,0.4-0.6,0.9-1.1,0.9h-13.2c-0.5,0-1-0.4-1.1-0.9
				l-13.8-41.7c-0.2-0.4,0.1-0.9,0.6-0.9h13.4c0.5,0,1,0.4,1.1,0.9l6.3,25.9l6.3-25.9c0.1-0.4,0.6-0.9,1.1-0.9H279.1z"/>
			<path class="st13" d="M313.1,107.9c0.5,0,0.9,0.4,0.9,0.8v9.6c0,0.4-0.4,0.9-0.9,0.9h-27.9c-0.4,0-0.8-0.5-1-0.9V76.6
				c0-0.6,0.3-0.9,0.8-0.9h27.3c0.5,0,1,0.4,1,0.9v9.5c0,0.6-0.4,0.9-1,0.9h-15.7v5h12.7c0.5,0,0.8,0.4,0.8,0.8l-0.8,8.8
				c-0.1,0.4-0.5,0.8-1,0.8h-11.7v5.4H313.1z"/>
			<path class="st13" d="M354.5,92.6c0.5,0,0.9,0.4,0.9,0.9v20c0,0.6-0.3,1.1-0.7,1.5c-3.6,3.2-9.1,5.1-14.9,5.1
				c-13,0-21.6-9.1-21.6-22.7c0-13.6,8.7-22.7,21.6-22.7c4.4,0,9.1,1.4,12.6,3.7c0.5,0.3,0.7,0.8,0.5,1.1l-3,9.3
				c-0.2,0.4-0.6,0.6-1.1,0.5c-2.5-1.4-5.6-2.2-8.7-2.2c-5.5,0-9.3,4.2-9.3,10.3c0,6.3,3.7,10.5,9.3,10.5c2.2,0,3.7-0.4,4.4-1.2V103
				H339c-0.5,0-0.9-0.3-1-0.7l-0.8-8.7c-0.1-0.6,0.3-1.1,1-1.1H354.5z M344.9,105.7v0.3V105.7z"/>
			<path class="st13" d="M401,118.4c0.2,0.4-0.1,0.8-0.5,0.8h-11.9c-0.5,0-1-0.3-1.3-0.8l-1.8-6.6h-11.3l-1.8,6.6
				c-0.2,0.5-0.7,0.8-1.3,0.8h-11.9c-0.5,0-0.7-0.4-0.5-0.8l13.6-41.8c0.2-0.4,0.8-0.8,1.4-0.8H386c0.6,0,1.3,0.4,1.4,0.8L401,118.4
				z M379.8,90.8l-3.2,12h6.5L379.8,90.8z"/>
			<path class="st13" d="M439.1,75.7c0.5,0,0.9,0.4,0.9,0.9v41.6c0,0.4-0.4,0.9-0.9,0.9h-10.4c-0.4,0-1-0.3-1.3-0.8L417,98.8v19.5
				c0,0.4-0.4,0.9-0.9,0.9h-10.6c-0.5,0-0.8-0.4-0.8-0.9V76.7c0-0.5,0.4-0.9,0.8-0.9h10.4c0.5,0,1.1,0.3,1.4,0.8l10.4,19.6V76.7
				c0-0.5,0.4-0.9,0.8-0.9H439.1z"/>
		</g>
	</g>
</g>
<g id="レイヤー_3">
</g>
<g id="hashtag">
</g>
<g id="レイヤー_6">
</g>
<g id="レイヤー_7">
</g>
<g id="_x23_">
</g>
<g id="tag_x5F_txt">
</g>
</svg>
