<?xml version="1.0" encoding="utf-8"?>
<!-- Generator: Adobe Illustrator 22.1.0, SVG Export Plug-In . SVG Version: 6.00 Build 0)  -->
<svg version="1.1" xmlns="http://www.w3.org/2000/svg" xmlns:xlink="http://www.w3.org/1999/xlink" x="0px" y="0px"
	 viewBox="0 0 24.3 24.3" style="enable-background:new 0 0 24.3 24.3;" xml:space="preserve">
<style type="text/css">
	.st0{opacity:0.75;}
	.st1{fill:#69B62D;}
	.st2{fill:#FFFFFF;}
</style>
<g id="レイヤー_2">
</g>
<g id="レイヤー_1">
	<g>
		<g>
			<g class="st0">
				<path d="M5.9,1h13.4c2.7,0,5,2.2,5,5v13.4c0,2.7-2.2,5-5,5H5.9c-2.7,0-5-2.2-5-5V5.9C1,3.2,3.2,1,5.9,1z"/>
			</g>
			<g>
				<path class="st1" d="M5,0h13.4c2.7,0,5,2.2,5,5v13.4c0,2.7-2.2,5-5,5H5c-2.7,0-5-2.2-5-5V5C0,2.2,2.2,0,5,0z"/>
			</g>
		</g>
		<path class="st2" d="M19.2,10.2l0.4-2.6h-3.5l0.6-3.5h-2.6l-0.6,3.5h-2.4l0.6-3.5H9.2L8.5,7.5H5.2l-0.4,2.6h3.3l-0.4,2.4H4.2
			l-0.4,2.6h3.5l-0.6,3.5h2.6l0.6-3.5h2.4l-0.6,3.5h2.6l0.6-3.5h3.3l0.4-2.6h-3.3l0.4-2.4H19.2z M12.7,12.6h-2.4l0.4-2.4h2.4
			L12.7,12.6z"/>
	</g>
</g>
<g id="レイヤー_3">
</g>
</svg>
