<?xml version="1.0" encoding="utf-8"?>
<!-- Generator: Adobe Illustrator 22.1.0, SVG Export Plug-In . SVG Version: 6.00 Build 0)  -->
<svg version="1.1" xmlns="http://www.w3.org/2000/svg" xmlns:xlink="http://www.w3.org/1999/xlink" x="0px" y="0px"
	 viewBox="0 0 800 520" style="enable-background:new 0 0 800 520;" xml:space="preserve">
<style type="text/css">
	.st0{fill:#60C4CF;}
	.st1{fill:#F8F1DD;}
</style>
<g id="レイヤー_2">
</g>
<g id="レイヤー_1">
</g>
<g id="レイヤー_3">
	<rect class="st0" width="800" height="520"/>
	<g>
		<defs>
			<path id="SVGID_1_" d="M377.8,353.3c-3.6,0.1-6.5,1.2-9.6,1.9c-0.6,0.1-1.1,0.5-1.6,0.7c-1.4,0.8-2.8,1.7-4.1,2.6
				c-1,0.7-2.3,0.9-3.9,0.9c-4.4,0-8.7,0-13.1-0.3c-1.6-0.1-3,0-4.5,0.3c-4.5,0.8-8.9,1.7-13.5,2.4c-2.5,0.4-4.9,0.8-7.2,1.3
				c-1.7,0.3-3.5,0.2-5.3,0.3c-4.7,0.3-4.7,0.2-9.4-0.9c-1.4-0.3-2.8-0.6-4.3-1c-0.9-0.2-1.6-0.1-2.2,0.2c-1.3,0.7-2.7,1.4-4,2
				c-0.8,0.4-1.1,0.9-1.2,1.4c-0.3,1-0.6,2-0.8,3c-0.2,1-1,1.5-2.7,1.7c-1.4,0.2-2.7,0.5-4,0.7c-1.4,0.3-2.8,0.2-4.2-0.3
				c-2.1-0.6-4.2-1.1-6.2-1.7c-1.2-0.3-2.3-0.4-3.5-0.4c-4.5,0.1-8.8,0.7-13.2,1c-1.4,0.1-2.7,0-4-0.4c-1.4-0.4-2.8-0.8-4.1-1.2
				c-1.2-0.4-2.5-0.6-3.8-0.6c-1.5,0-3.1,0-4.6-0.1c-1.2-0.1-1.7-0.3-1.8-1c-0.3-1.2-0.5-2.3-0.7-3.5c-0.3-1.5-0.5-3.1-0.7-4.6
				c-0.1-1.2,0.1-1.4,2.1-1.7c3.4-0.5,6.9-0.9,10.6-0.6c2.9,0.2,5.1-0.2,7.2-1.2c5.5-2.8,11.6-5.3,17.8-7.6c2.4-0.9,4.5-2,6.6-3
				c4.5-2.1,9.1-4.3,13.6-6.4c2.2-1,3.9-2.3,5.8-3.5c2.2-1.3,4.4-2.7,6.5-4.1c0.9-0.6,2.1-0.9,3.5-1.1c4.4-0.6,9-0.6,13.7-0.5
				c1.2,0,2.2,0.3,2.8,1c0.3,0.3,0.7,0.7,1.1,1c0.8,0.7,1.1,0.8,2.3,0.6c1.4-0.2,2.9-0.4,4.3-0.7c1.4-0.3,2.9-0.4,4.5-0.2
				c4.7,0.5,9.3,0.6,13.9,0.6c1.5,0,2.9,0,4.3-0.2c0.4,0,0.9-0.1,1.3-0.1c4-0.1,7.4-0.9,10.8-1.8c1.5-0.4,3-0.5,4.6-0.6
				c4-0.2,8.1-0.3,12.1-0.3c1.9,0,3.5-0.2,5-0.7c1.3-0.4,2.6-0.8,3.9-1.1c0.8-0.2,1.5-0.2,2.3,0.1c1.7,0.6,3.4,1.3,5,2.1
				c0.5,0.3,0.9,0.6,1.3,0.9c0.4,0.3,0.7,0.7,1.1,1c2.1,2,1.6,1.8,5.5,2.1c0.5,0,0.9,0,1.4,0.1c3.6,0.4,6.8-0.1,10-0.6
				c1-0.2,1.9-0.4,2.6-0.9c1.4-1,2.7-2,4.1-3c0.7-0.5,0.9-1.1,0.5-1.7c-0.5-0.9-0.9-1.8-1.5-2.7c-0.5-0.8-0.5-1.6-0.2-2.3
				c0.4-1,0.8-2,1.1-3c0.3-0.8,0.8-1.4,1.6-2c3-2.3,6.1-4.5,9.8-6.3c2.9-1.5,5-3.3,7.5-5c0.7-0.5,1-1,1.2-1.6
				c0.4-1.1,0.8-2.2,1.2-3.3c0.4-1.1,0-2.2,0-3.3c0-1.5-0.4-3.1-1.4-4.6c-0.3-0.5-0.5-0.9-0.8-1.4c-0.6-1-0.7-1.9-0.3-2.8
				c0.4-0.9,0.7-1.9,1-2.8c0.2-0.9,1-1.5,2.5-1.9c3.4-0.8,6.9-1.6,10.4-2.3c2.4-0.5,4.9-0.7,7.6-0.4c0.9,0.1,1.8,0.1,2.7,0.2
				c1,0.1,1.4,0.4,1.1,0.9c-0.4,0.6-0.8,1.2-1.3,1.8c-2.8,3-1.3,2.3-6.6,4.5c-2,0.8-3.9,1.7-5.7,2.7c-0.4,0.2-0.9,0.5-1.3,0.7
				c-0.4,0.3-0.2,0.6,0.5,0.7c0.6,0.1,1.3,0.2,1.9,0.3c0.7,0.1,1.5,0.2,2.2,0.4c1.1,0.2,1.4,0.4,1.5,1.1c0.1,0.8,0,1.7,0.1,2.5
				c0,2,0,2,3.5,2.8c0.9,0.2,1.8,0.4,2.6,0.6c1.6,0.5,2.8,0.3,3.8-0.4c0.8-0.6,1.8-1,2.7-1.6c1-0.6,2.2-1.1,3.4-1.5
				c4.3-1.4,8.5-2.8,12.8-4.1c4.5-1.4,9.2-2.5,13.9-3.6c0.6-0.1,1.3-0.3,1.9-0.5c2.1-1,4.2-2,6.2-3c0.4-0.2,0.7-0.4,1-0.7
				c2.1-2.2,4.8-4.2,6.4-6.6c0.7-1.2,1.6-2.3,2.6-3.4c2-1.9,4.5-3.6,7.5-5c1.4-0.6,3.1-1,4.8-1.4c1.5-0.4,2.4-1,3-1.9
				c0.6-0.9,1.3-1.7,1.9-2.6c0.6-0.9,1.1-1.8,1.2-2.8c0.4-2.7,1.1-5.3,1.5-8c0.2-1.1,0.8-2,1.9-2.7c1-0.7,2-1.5,3-2.2
				c0.8-0.5,1.3-1.1,1.6-1.9c0.4-1.2,1-2.4,1.4-3.6c0.3-0.7,0.5-1.5,0.6-2.3c0.3-2.9,1.2-5.7,2.2-8.5c0.6-1.7,1.2-3.4,1.8-5.1
				c0.4-1.2,0.3-2.4-0.3-3.6c-1.9-3.7-1.1-2.7-5.6-5.3c-1.2-0.7-2.4-1.1-4-1.3c-0.8-0.1-1.6-0.2-2.5-0.3c-0.6-0.1-1.3-0.2-1.9-0.3
				c-0.4-0.1-0.8-0.2-0.7-0.4c0-0.1,0.2-0.3,0.4-0.3c1-0.3,2.1-0.5,3.1-0.7c0.5-0.1,1-0.2,1.5-0.3c0.8-0.2,1.4-0.6,1.5-1.1
				c0.3-1.2,0.7-2.3,1.1-3.5c0.2-0.6,0.1-1.1,0-1.7c-0.1-0.4-0.2-0.7-0.2-1.1c-0.2-2.2-1.5-4.3-3.2-6.4c-0.8-0.9-1.2-1.8-1.1-2.8
				c0.1-1,0.2-2,0.2-3c0-0.7,0.6-1.2,1.7-1.5c1.5-0.4,2.9-0.9,4.4-1.3c1.1-0.3,1.8-0.7,2.2-1.4c0.7-1,1.4-2,2.2-3
				c0.3-0.4,0.4-0.8,0.2-1.2c-0.2-0.7-0.5-1.4-0.7-2.1c-0.2-0.5-0.5-0.9-0.6-1.4c-0.3-1-0.1-1.3,1.4-1.7c1.5-0.4,3.1-0.7,4.6-1
				c0.8-0.2,1.6-0.1,2.3,0.3c1.6,0.9,3.3,1.8,4.9,2.7c0.8,0.4,1.2,1,1.5,1.6c0.5,0.8,0.9,1.7,1.5,2.5c0.6,0.9,1.2,1.1,2.8,1.1
				c0.9,0,1.8-0.1,2.6-0.3c0.8-0.2,1.6-0.4,2.4-0.6c1.7-0.5,3.6-0.7,5.6-0.7c0.4,0,0.7,0,1.1,0c1.4,0,2.3-0.4,2.5-1.2
				c0.2-1,0.6-1.9,0.8-2.9c0.1-0.4-0.2-0.7-0.9-0.7c-2.3-0.1-4.6-0.4-6.7,0c-1.5,0.3-3,0.5-4.5,0.8c-0.4,0.1-0.8,0.1-1.3,0.2
				c-0.7,0.1-1.3-0.1-1.6-0.5c-0.9-1.2-1.8-2.3-2.6-3.5c-0.3-0.5-0.3-0.9-0.1-1.4c0.7-1.4,1.3-2.8,2-4.2c0.5-0.9,1.2-1.1,2.9-0.8
				c1.2,0.2,2.3,0.5,3.5,0.7c3.1,0.8,6.3,1.2,9.5,1.2c0.8,0,1.6,0.1,2.5,0.2c1,0.1,1.8,0.4,2,1c0.8,1.9,1.9,3.7,1.5,5.7
				c-0.4,2.1,0.4,4.2,1.2,6.3c0.7,1.9,1.7,3.7,2.6,5.5c0.5,0.9,1.2,1.9,2.2,2.7c0.2,0.2,0.5,0.4,0.6,0.6c1.7,1.7,3.8,3.1,6.4,4.4
				c2.5,1.2,4.5,2.6,6.3,4.2c4.3,3.6,8,7.4,11,11.4c1.9,2.5,4,5,4.8,7.7c0.2,0.7,0.7,1.4,1,2c0.4,0.6,0.5,1.3,0.2,1.9
				c-1.3,3.3-2.7,6.5-4,9.8c-0.2,0.6-0.7,1.1-1.3,1.6c-0.5,0.4-0.9,0.8-1.4,1.2c-2.7,2.3-4,4.9-5.2,7.6c-0.2,0.6-0.3,1.1-0.1,1.7
				c0.8,2.5,1.6,5,3.2,7.4c1.1,1.8,1,1.8-2.1,2c-3,0.2-6.1,0.2-9.2,0c-1.9-0.1-3.1,0.2-4,1c-1,0.9-2,1.7-3.1,2.5
				c-0.7,0.5-1,1.1-1,1.8c0,0.8,0.1,1.7,0,2.5c-0.2,1.2,0.5,2.4,1.5,3.6c1.7,2.1,3.3,4.1,4.4,6.3c2.1,3.9,3,7.9,2.7,11.8
				c0,0.4-0.2,0.8-0.3,1.2c-1.4,3.5-2.9,6.9-4.8,10.2c-0.7,1.2-1.6,2.4-2.5,3.6c-1.1,1.4-1.7,2.9-2.1,4.5c-0.6,2.5,0.2,4.9,0.9,7.4
				c0.1,0.4,0.3,0.7,0.5,1.1c1.8,2.2,3.2,4.5,5.8,6.5c2.2,1.7,4.1,3.4,5.7,5.3c0.4,0.5,0.9,1,1.3,1.5c0.5,0.7,0.3,0.9-0.8,1.2
				c-1.6,0.3-3.1,0.6-4.7,0.8c-1.3,0.2-2.3,0.6-3.2,1.2c-1.1,0.8-2.3,1.6-3.6,2.3c-0.9,0.5-1.2,1.1-1.2,1.9c0.1,1,0,2,0.1,3
				c0,0.7-0.1,1.4-0.6,2.1c-0.7,1-1.4,1.9-2,2.9c-0.4,0.7-1.3,1.1-2.5,1.4c-1.6,0.3-3.1,0.6-4.7,0.9c-1,0.2-1.9,0.5-2.5,0.9
				c-1.1,0.7-2.3,1.4-3.5,2.2c-0.5,0.3-1,0.5-1.5,0.8c-0.4,0.2-0.9,0.2-1.2-0.1c-1.8-1.5-4-2.8-4-4.7c0-0.1,0-0.2,0-0.3
				c-0.6-3.9-0.6-3.9,1.1-7.5c0.5-1.1,1.6-2.1,2.4-3.1c0.4-0.5,0.8-1.1,1.1-1.7c0.1-0.2-0.2-0.4-0.6-0.5c-1.8-0.2-3.4,0-5,0.3
				c-0.6,0.1-1,0.4-1.3,0.7c-1,1.3-2,2.5-2.9,3.8c-0.3,0.4-0.1,0.8,0.1,1.2c0.4,0.8,0.8,1.6,1.2,2.3c0.2,0.4,0.4,0.8,0.4,1.3
				c0,0.3-0.3,0.5-0.8,0.4c-0.7-0.1-1.5-0.2-2.2-0.3c-3.2-0.7-6.5-1-9.8-1.4c-1.4-0.2-2.5-0.1-3.5,0.4c-1.3,0.7-2.5,1.3-3.8,1.9
				c-0.8,0.4-1.2,0.9-1.2,1.6c0,1.1,0,2.2,0,3.3c0,0.3,0.1,0.6-0.1,0.9c-0.8,1.9-1.8,3.8-2.9,5.6c-0.1,0.1-0.2,0.3-0.4,0.4
				c-1.6,1-3.2,2-4.9,3c-0.8,0.5-1.4,0.4-2.2-0.3c-1.2-1-2.3-2-3.5-2.9c-0.7-0.5-0.9-1.1-0.8-1.7c0.2-1.1,0.3-2.2,0.6-3.2
				c0.3-0.9-0.1-1.8-1.3-2.5c-0.7-0.4-1.2-0.9-1.9-1.3c-0.5-0.3-1.2-0.4-1.7-0.2c-2.4,0.9-4.8,1.8-6.7,3.1c-1.3,0.9-2.6,1.8-3.8,2.7
				c-0.9,0.6-1.5,1.3-1.8,2.1c-0.5,1.2-1.1,2.3-1.6,3.5c-0.3,0.7-1,1-2.4,1c-5.1-0.1-10.2-0.3-15.3-0.7c-2.4-0.2-4.7-0.6-7.1-1
				c-2.2-0.4-4.1-0.3-6,0.1c-3.5,0.9-7.1,1.6-10.9,2.1c-0.3,0-0.5,0.1-0.8,0.1c-0.3,0.1-0.7,0.1-1-0.1c-0.4-0.2-0.1-0.4,0.1-0.6
				c0.4-0.3,0.8-0.7,1.2-0.9c1.6-1,2.1-2.3,2.7-3.5c0.2-0.4-0.2-0.6-1-0.6c-1,0-2,0-3,0.1c-1.9,0.2-3.7,0.3-5.7-0.1
				c-0.8-0.1-1.2,0.1-1,0.6c0.2,0.5,0.4,0.9,0.6,1.4c0,0.1-0.1,0.2-0.2,0.2c-0.1,0-0.4,0-0.5,0c-1.7-0.8-3.3-1.6-4.8-2.5
				c-0.6-0.3-0.8-0.8-0.8-1.2c-0.1-0.7-0.1-1.5-0.2-2.2c0-0.4-0.1-0.8-0.3-1.3c-0.1-0.2-0.5-0.4-0.8-0.4c-2.2,0.3-4.5,0.6-5.3,2
				c-0.7,1.1-1.4,2.3-2.2,3.4c-0.4,0.6-0.3,1.2,0.6,1.8c1.7,1.1,3.3,2.2,5.1,3.3c0.7,0.4,1.5,0.7,2.3,1c2.1,0.8,4.3,1.6,6.4,2.4
				c1.3,0.5,1.4,0.7,1.1,1.5c-0.4,1-0.9,2.1-1.3,3.1c-0.3,0.8-1.1,1.1-2.4,1c-1.7-0.1-3.5-0.1-5.2-0.1c-1.5-0.1-2.9,0-4.2,0.3
				c-1.2,0.3-2.5,0.5-3.7,0.7c-1.3,0.2-2.3,0.7-2.6,1.5c-0.7,2-2.8,3.5-5,4.9c-4.1,2.7-6.9,5.9-9.6,9.2c-0.7,0.9-1.4,1.7-2.1,2.6
				c-0.4,0.5-1,0.8-2,0.8c-2.1,0-4.1,0.1-6.2,0.1c-1.1,0-2.2-0.2-3.2-0.6c-2.2-0.7-4.3-1.5-6.5-2.2c-1.1-0.3-1.8-0.8-2.4-1.4
				c-0.8-1-1.8-2-2.6-3c-0.6-0.8-1.6-1.4-2.9-1.8c-1.2-0.4-2.3-0.8-3.4-1.3c-0.7-0.2-1.3-0.5-1.9-0.7c-1.7-0.6-2.5-1.4-2.4-2.4
				c0-0.1,0-0.2,0-0.3c0-2.3-0.6-4.6-2.2-6.9c-0.2-0.3-0.3-0.5-0.4-0.8c-0.3-0.6-0.1-1,0.6-1.4c0.5-0.2,0.9-0.4,1.4-0.6
				c3.2-1.3,5.8-3,8.5-4.6c0.2-0.1,0.4-0.3,0.6-0.5c0.3-0.3,0.3-0.6-0.1-0.9c-1-0.7-2.1-1.5-3.2-2.2c-0.6-0.4-1.3-0.5-2-0.4
				c-1.4,0.1-2.8,0.3-4.2,0.5c-1.9,0.3-3.8,0.2-5.9-0.3c-3.7-0.9-7.5-1.6-11.2-2.5c-2.9-0.7-5.8-1-8.6-0.6
				C378.6,353.2,378.2,353.3,377.8,353.3z M569.9,121.8c0.4,0.7,0.2,1.2-0.7,1.6c-1.3,0.6-2.7,1.2-3.9,1.9c-1,0.6-2.1,0.7-3.7,0.4
				c-2.9-0.4-5.8-0.8-8.8-1.1c-4.5-0.5-9-0.9-13.4-1.6c-0.6-0.1-1.3-0.2-1.9-0.3c-0.9-0.1-1.3,0.2-1.3,0.7c0,0.1,0,0.2,0,0.3
				c0.6,2.4,1.1,4.8,3.3,7c0.2,0.2,0.4,0.5,0.6,0.8c0.5,0.6,0.3,1.2-0.3,1.6c-2.5,1.7-4.7,3.6-8.1,4.8c-3.5,1.2-5.9,3.1-8.2,4.9
				c-0.6,0.5-0.9,1-0.7,1.7c0.6,2.6,1.3,5.2,2.8,7.7c0.7,1.2,1.6,2.1,3.6,2.7c1.8,0.6,3.6,1.4,5.3,2c0.9,0.4,1.5,0.8,1.9,1.4
				c0.5,0.7,0.8,1.5,1.5,2.1c1.1,1.1,1.2,2,0.6,3.1c-0.1,0.2-0.2,0.5-0.3,0.7c-1.4,3.6-1.4,3.6,0.9,7.4c0,0.1,0.1,0.1,0.1,0.2
				c0.4,0.8,1.2,1.4,2.5,1.8c1.4,0.5,2.9,0.9,4.3,1.4c1.2,0.4,2.1,0.4,2.9-0.1c1.2-0.6,2.4-1.2,3.7-1.8c1.1-0.5,1.6-1.1,1.7-1.9
				c0.1-0.9,0.4-1.7,0.4-2.6c0-1,0.8-1.6,2.2-2c1.1-0.3,2.1-0.7,3-1.1c1.3-0.6,2.6-0.6,4.3-0.2c1.7,0.5,3.5,0.8,5.3,1.2
				c0.9,0.2,1.6,0.1,2.1-0.3c1.1-0.9,2.2-1.7,3.2-2.6c1.2-1,1.1-1.2-0.8-2.1c-0.2-0.1-0.5-0.2-0.7-0.3c-4.3-1.8-8.5-3.5-12.8-5.3
				c-1.6-0.7-3.3-1.2-5.1-1.5c-1.8-0.3-3.6-0.6-5.4-0.9c-0.8-0.1-1.6-0.3-2.2-0.7c-1.4-1-2.8-2-4.2-3c-0.5-0.4-0.6-0.8-0.3-1.2
				c0.8-1,1.6-2.1,2.4-3.1c0.4-0.6,1.1-0.8,2.2-0.8c1.6,0.1,3.3,0.1,4.9,0.1c1.5,0,2.7,0.3,3.8,0.9c1.6,0.9,3.4,1.7,5,2.6
				c1,0.5,2.1,1,3.3,1.4c1.8,0.6,2.2,0.6,3-0.3c0.3-0.3,0.5-0.6,0.8-0.9c0.6-0.8,1.3-1.5,1.8-2.3c0.5-0.7,1.4-1.2,2.6-1.6
				c3.7-1.3,7.6-2.4,11.8-3.3c1-0.2,2-0.3,3.2-0.1c1.8,0.3,3.6,0.6,5.5,0.8c1.6,0.2,3,0.6,4.5,1.1c3,1,6,2,9.1,2.9
				c5.4,1.5,11,3,16.4,4.5c2.6,0.7,5.3,1.3,8.1,1.5c3.7,0.3,7,1.1,10.2,2.4c1.1,0.5,2.3,0.8,3.5,1.2c0.6,0.2,1.1,0,1.2-0.3
				c0.3-0.7,0.5-1.5,0.7-2.3c0.4-1.2,0.6-2.4-0.1-3.7c-0.4-0.7-0.5-1.5-0.8-2.2c-0.3-0.7-0.3-1.4-0.1-2c0.8-2.7,1.9-5.3,4.4-7.5
				c0.7-0.7,1.3-1.4,1.9-2.1c0.3-0.3,0.6-0.7,1.1-1c3.3-2.5,6.8-4.9,10.9-7c1.1-0.5,2.3-0.8,3.8-0.8c4.2-0.1,8.5-0.1,12.8,0.1
				c1.1,0,2.2,0.1,3.2-0.1c3.3-0.9,6.8-1.6,9.3-3.1c3-1.9,6.6-3.4,10.3-4.7c0.9-0.3,1.6-0.7,2.3-1.1c2.6-1.7,5.3-3.3,8.2-4.8
				c0.4-0.2,0.7-0.4,1-0.7c0.2-0.1,0-0.3-0.4-0.4c-0.4,0-0.7,0-1.1,0c-3.6,0.3-7.2,0.7-10.5,1.3c-0.3,0.1-0.6,0.1-1,0.2
				c-0.9,0.1-1.3,0-1.9-0.5c-0.8-0.7-1.3-1.5-1.7-2.3c-0.6-1.2-1.8-2.3-3.4-3.3c-2.7-1.7-5-3.6-7.5-5.4c-1.1-0.8-1.2-1.5-0.8-2.4
				c1.3-2.6,2.5-5.1,3.3-7.8c0.7-2.3,0.9-2.1-3.1-3.5c-1-0.3-1.5-0.2-1.9,0.3c-0.4,0.6-0.9,1.2-1.2,1.8c-0.9,1.9-2.5,3.5-4.6,4.9
				c-3.6,2.7-3.6,2.7-9.4,3.7c-1.1,0.2-2.1,0.2-3.2,0c-4-0.8-8.1-1.5-12-2.7c-1.7-0.5-3.5-0.9-5.3-1.1c-4.8-0.5-9.5-1.2-14.2-2.1
				c-1.5-0.3-2.8-0.7-4.2-1.1c-3.3-1.1-6.7-2.3-10.1-3.3c-5.1-1.5-10.1-3-14.8-5c-1.8-0.8-3.8-1.4-5.4-2.3c-3.1-1.7-6.3-3.4-9.1-5.3
				c-3.6-2.4-7.5-4.6-11.3-6.9c-1-0.6-2.2-1.1-3.4-1.6c-3.3-1.4-6.6-2.8-9.9-4.2c-0.9-0.4-1.9-0.8-2.8-1.2c-1.4-0.6-1.8-0.6-2.9,0
				c-1.1,0.6-2,1.2-3.1,1.7c-1,0.5-1.5,1.2-1.9,1.9c-0.3,0.8-0.6,1.6-1.1,2.3c-0.7,1.1-0.2,2.2,0.7,3.4c1.9,2.3,4,4.4,6.2,6.6
				c2.8,2.9,5,5.9,5.8,9c0.1,0.4,0.2,0.8,0.4,1.3c0.3,0.6,0.3,1.2,0.2,1.7c-0.2,1.1-0.3,2.2-0.5,3.2c-0.2,0.9-0.1,1.8,0.2,2.7
				c0.5,1.3,0.8,2.5,1.1,3.8c0.3,1.2,0.6,2.4,1,3.6c0.3,1,0,1.7-1.4,2.2c-1.2,0.4-2.2,1-3.3,1.4c-1.3,0.5-2,1.2-1.9,2.1
				c0.1,0.9,0,1.9-0.1,2.8c-0.1,0.7,0.2,1.4,0.8,2.2c1.3,1.7,3,3.4,3.9,5.6C569,120.2,569.4,121,569.9,121.8z M235.8,439.4
				c-0.1-0.2-0.2-0.3-0.3-0.5c-1.3-1.7-1.2-3.4-1-5c0-0.4,0.6-0.5,1.2-0.2c1.5,0.7,3,1.5,4.4,2.2c0.7,0.4,1,0.8,1.1,1.3
				c0.2,1.1,0.4,2.1,0.7,3.2c0.1,0.6,0,1-0.6,1.4c-0.9,0.7-1.7,1.5-2.5,2.2c-0.5,0.5-1,0.9-1.3,1.4c-0.3,0.3,0.2,0.8,0.9,0.8
				c0.5,0.1,1.1,0.1,1.6,0.1c1.4,0,2.7,0,4.1,0c1.4,0,2.6-0.2,3.7-0.6c1.3-0.5,2.7-1.1,4-1.6c1-0.4,1.6-0.8,1.9-1.5
				c0.4-0.8,0.9-1.5,1.2-2.3c0.5-1,1.3-1.8,2.2-2.7c0.8-0.8,1.9-1.1,3.6-0.7c1.4,0.3,2.9,0.6,4.3,0.8c1.4,0.2,1.8,0.1,2.3-0.6
				c0.8-1.2,1.5-2.5,2.2-3.7c0.5-0.8,0.8-1.7,0.8-2.5c0.2-2.7,0.4-5.4,0.6-8.1c0.1-0.8,0.3-1.6,0.8-2.4c1.1-2.1,2.4-4.1,3.1-6.3
				c0.8-2.7,2.3-5.2,4-7.6c0.5-0.7,1.2-1.3,2.2-1.8c1.4-0.7,2.8-1.4,4.2-2.1c0.7-0.4,1.2-0.8,1.2-1.4c0.1-1.3,0.2-2.6,0.3-3.9
				c0-0.6-0.2-1.1-0.7-1.7c-0.9-1-1.7-2-2.5-3c-0.5-0.7-1.3-1.2-2.3-1.7c-2.6-1.3-5.1-2.6-7.9-3.8c-0.7-0.3-1.4-0.6-2-1
				c-0.4-0.2-0.5-0.5-0.2-0.7c0.3-0.3,0.6-0.5,0.9-0.7c0.8-0.6,1.6-1.3,2.5-1.9c1-0.7,1-1.4,0.3-2.3c-0.7-0.8-1.3-1.7-2-2.6
				c-0.7-0.9-1.2-1.1-2.8-1.1c-3.2,0.1-6.3,0.1-9.4,0.4c-1.2,0.1-2.4,0.2-3.7,0.4c-1.5,0.1-2.9-0.1-4-0.9c-0.9-0.6-1.8-1.2-2.8-1.8
				c-1.8-1-2.5-2.1-2.9-3.3c-0.2-0.8-0.4-1.6-0.7-2.4c-0.2-0.6-0.7-0.8-1.8-0.9c-0.6,0-1.3,0-1.9,0c-3.8-0.1-7.6-0.1-11.4-0.2
				c-3.6,0-3.2-0.4-5.7,1.2c-4.1,2.6-9,4.8-14,6.8c-1.4,0.6-2.9,0.9-4.7,0.6c-1.1-0.1-2.2-0.2-3.3-0.2c-3.2-0.2-2.9-0.3-4.6,1.1
				c-2.4,1.9-4.7,3.8-8.3,5.1c-0.1,0.1-0.3,0.1-0.4,0.2c-0.9,0.5-1,0.8-0.1,1.5c1,0.8,1.9,1.6,3,2.3c1,0.7,1.3,1.5,0.9,2.3
				c-0.3,0.6-0.5,1.3-0.8,1.9c-1.1,2.4-1.2,2,1.4,4.1c2.9,2.4,2.9,2.4,3.7,5.2c0.2,0.7,0.4,1.5,0.7,2.2c0.3,0.6,1.2,0.8,1.9,0.5
				c0.9-0.4,1.8-0.9,2.6-1.4c2.2-1.5,5.5-1.9,8.8-2.2c0.5,0,1,0.2,1,0.4c-0.3,1.4-0.5,2.9-0.9,4.3c-0.1,0.3-0.5,0.5-0.8,0.8
				c-1.1,1.1-2.2,2.1-3.4,3.1c-0.7,0.6-0.9,1.3-0.4,2.1c0.3,0.5,0.7,1,0.9,1.6c0.7,1.6,2,3.1,4.3,4.3c0.4,0.2,0.8,0.5,1.2,0.8
				c1.1,0.7,1.8,1.4,2.2,2.3c0.4,1,0.8,2,1.2,3c1.4,3.2,2.6,6.4,4.4,9.6c0.7,1.2,0.5,1.3-1.1,1.9c-1.2,0.4-2.4,0.8-3.5,1.2
				c-1.2,0.5-1.3,0.7-0.7,1.6c0.7,0.9,1.5,1.8,2.3,2.7c0.6,0.7,1.5,1.1,2.8,1.3c3.9,0.6,7.8,1.2,11.7,1.8c0.6,0.1,1.3,0.2,1.9,0.2
				c1.1,0.1,1.6-0.2,1.3-0.8C236.7,440.8,236.2,440.1,235.8,439.4C235.8,439.4,235.8,439.4,235.8,439.4z M391.1,375.7
				c-1.7-2-3.1-4-4.4-6.1c-0.7-1.1-1.7-1.8-3.4-2.3c-3.1-0.9-6.1-1.9-9-3c-1.6-0.6-3.1-1.1-4.7-1.7c-1-0.4-2.1-0.6-3.2-0.6
				c-1.9-0.1-3.8-0.2-5.8-0.3c-1.6-0.1-3.1,0.1-4.4,0.5c-2,0.6-3.9,1.3-5.8,1.9c-1.1,0.4-1.8,0.9-1.8,1.7c0,0.6-0.2,1.1-0.2,1.7
				c-0.3,1.9-0.4,1.9-3.1,2.8c-3.1,1-6.4,1.4-10.1,1.3c-2.3-0.1-4.4-0.3-6.3-1.1c-2.3-1-4.7-1.5-7.4-1.4c-0.9,0-1.8,0-2.7-0.1
				c-2-0.2-3.2,0.3-4,1.2c-2,2.1-4.1,4.2-5.3,6.6c-0.7,1.3-1.9,2.2-3.9,2.8c-0.5,0.1-0.9,0.3-1.3,0.5c-3.7,1.3-7.4,2.6-11.1,4
				c-0.8,0.3-1.6,0.5-2.2,1c-0.3,0.3,0,0.7,0.6,0.8c0.7,0.1,1.3,0.1,1.9,0c2.7-0.3,5,0.7,7.4,1.3c0.4,0.1,0.7,0.4,0.9,0.6
				c1.2,1.3,2.4,2.6,3.2,3.9c0.3,0.5,0.3,0.9,0.4,1.4c0.1,0.9,0.1,1.9,0.1,2.8c0,0.9,0.5,1.6,1.8,2.1c2.9,1.2,5,2.8,6.6,4.6
				c0.1,0.1,0.2,0.2,0.3,0.3c0.6,0.8,1.7,1.2,3.1,1.2c2.8,0.2,5.7,0.4,8.5,0.7c2.5,0.2,3.7,0.3,2.7-1.6c-0.4-0.8-0.3-1.6,0.4-2.2
				c0.2-0.2,0.4-0.4,0.6-0.7c1.9-2.1,4-4.2,5.5-6.4c0.9-1.2,2.2-2.4,3.8-3.3c1.1-0.6,2.1-1.3,3.1-1.9c0.7-0.5,1.6-0.9,2.7-1.1
				c0.8-0.2,1.6-0.4,2.4-0.6c3.2-1.1,7.1-1.1,10.9-1c1,0,2,0.2,2.9,0.6c1.6,0.7,3.2,1.3,4.7,2c1.8,0.9,3.8,1.3,5.9,1.2
				c0.4,0,0.7,0,1.1,0c1.6,0.1,2.5-0.3,3.1-1.1c0.7-1,1.5-1.9,2.2-2.9c0.8-1,1.9-1.8,3.5-2.5c1.6-0.6,3.1-1.2,4.6-1.9
				c2-0.9,4-1.8,6.1-2.7c0.7-0.3,0.9-0.7,0.5-1.2c-0.1-0.2-0.2-0.3-0.5-0.7C391.7,376.5,391.4,376.1,391.1,375.7z M504.7,269.5
				c0.3,0.5,1,0.8,1.9,0.9c1.6,0.2,3.1,0.3,4.7,0.5c0.7,0.1,1.3-0.1,1.6-0.4c1.2-1.3,2.4-2.5,3.3-3.9c0.4-0.6,0.2-1.1-0.4-1.7
				c-1.8-1.9-3.2-3.9-4.3-5.9c-0.2-0.4-0.5-0.7-0.8-1c-0.2-0.2-0.9-0.3-1.2-0.2c-0.3,0.2-0.6,0.4-0.8,0.5c-1.9,1.3-3.2,2.9-4.5,4.5
				c-2.2,2.5-2.2,1.8-0.4,4.8C504,268.3,504.4,268.9,504.7,269.5z M396.2,367.1c1.1-0.1,1.6-0.5,1.6-1.1c0-0.2,0-0.4,0-0.6
				c-0.1-2.1-0.2-4.3-0.3-6.4c0-0.2,0-0.4-0.1-0.6c-0.1-0.2-0.2-0.4-0.6-0.5c-0.5-0.1-0.9-0.1-1.2,0.1c-0.2,0.1-0.4,0.2-0.5,0.3
				c-1.6,1.1-3.2,2.1-4.8,3.2c-0.4,0.3-0.8,0.5-0.8,0.9c-0.3,1.5-0.4,3-0.4,4.5c0,0.4,0.6,0.7,1.3,0.7c1.5,0,3-0.1,4.2-0.2
				C395.3,367.2,395.7,367.1,396.2,367.1z M190.6,450.5c-0.6,3-5.1,3.7-8.6,4.8c-2.3,0.7-3.1,3-7.1,2.2c-1.2-0.3-2.5-0.3-1.9-1.2
				c0.7-1,0.1-2-2.4-2.3c-1.3-0.2-3.4-1.9-5.1,0.2c-1,1.3,2.5,2.8-0.5,3.5c0.7,0.6,1.7,0.7,2.7,0.9c-0.5,0.2-0.8,0.5-0.4,1
				c0.1,0.1,0.1,0.2,0.2,0.4l-4.5,0.1c-0.9-0.2-1.5-0.2-2,0l0,0l0,0c-1.1,0.6-1.1,2.1-2.8,2.1c-3-0.5-5.1,0.2-7.1,1.1
				c0.6,0.3,1.1,0.6,1.7,1c0,0-0.1,0-0.1,0c-0.4,0.8,0.3,1.6,1.2,2.3c1.1,1.5-1.3,1.4-2.4,2c-1.8,0.9-6.3,0.7-5,3.1
				c0.8,1.6,0,2.6-0.7,3.8c0.6,0.2,1.3,0.4,1.9,0.6c2.5-0.5,5.1-0.9,7.5-1.5c1.1-0.3,5.2-0.7,0-1.8c-1.3-0.3-1.6-0.9-0.8-1.4
				c1.7-1.2,3.5-2.2,5.3-3.4c1.7-1.1,2,0.5,3,0.7c0.2,0.6,1,0.8,1.8,0.9c-0.3-1.7,3.5,0.1,3.6-1.2l-0.2-0.2c0.6-0.2,1.2-0.4,1.8-0.6
				c0.5-1.5-2.8-2.5-2.6-4.2c0.1-0.8-1.5-0.1-2.1,0.5c-0.9,0.8-0.5,2.4-2.9,2.4c-0.1,0-0.1-0.1-0.2-0.1c-0.1-0.1-0.2-0.2-0.3-0.3
				c0.3-0.6,0.5-1.2,0.8-1.8l0.9-0.1l1.5-1.9l5.1,0.3l0,0c0.7,0.3,1.4,0.4,2.5,0.2c-1-0.4-1.5-0.8-1.8-1.1l1.3-1.5l-1,0
				c0.1-0.1,0.2-0.2,0.3-0.4c0.2,0.1,0.4,0.1,0.6,0.2c2.8,0.7,5.4,1.9,8.4,1.8c0.6-0.1,0.9-0.3,0.8-0.7c0.3-1.4,1.5-1.5,4.1-1.3
				c5.1,0.4,7.4-2,9.1-4C195.9,453.9,194.6,451.8,190.6,450.5z M159.1,452c2,0.5,3.4,1,4.1,0.3c0.4-0.5-0.5-1.2-1.7-1.3
				c-1.2-0.1-2.8-1-3.4,0.1C157.7,451.8,159.1,452,159.1,452z"/>
		</defs>
		<clipPath id="SVGID_2_">
			<use xlink:href="#SVGID_1_"  style="overflow:visible;"/>
		</clipPath>
	</g>
	<path class="st1" d="M377.8,353.3c-3.6,0.1-6.5,1.2-9.6,1.9c-0.6,0.1-1.1,0.5-1.6,0.7c-1.4,0.8-2.8,1.7-4.1,2.6
		c-1,0.7-2.3,0.9-3.9,0.9c-4.4,0-8.7,0-13.1-0.3c-1.6-0.1-3,0-4.5,0.3c-4.5,0.8-8.9,1.7-13.5,2.4c-2.5,0.4-4.9,0.8-7.2,1.3
		c-1.7,0.3-3.5,0.2-5.3,0.3c-4.7,0.3-4.7,0.2-9.4-0.9c-1.4-0.3-2.8-0.6-4.3-1c-0.9-0.2-1.6-0.1-2.2,0.2c-1.3,0.7-2.7,1.4-4,2
		c-0.8,0.4-1.1,0.9-1.2,1.4c-0.3,1-0.6,2-0.8,3c-0.2,1-1,1.5-2.7,1.7c-1.4,0.2-2.7,0.5-4,0.7c-1.4,0.3-2.8,0.2-4.2-0.3
		c-2.1-0.6-4.2-1.1-6.2-1.7c-1.2-0.3-2.3-0.4-3.5-0.4c-4.5,0.1-8.8,0.7-13.2,1c-1.4,0.1-2.7,0-4-0.4c-1.4-0.4-2.8-0.8-4.1-1.2
		c-1.2-0.4-2.5-0.6-3.8-0.6c-1.5,0-3.1,0-4.6-0.1c-1.2-0.1-1.7-0.3-1.8-1c-0.3-1.2-0.5-2.3-0.7-3.5c-0.3-1.5-0.5-3.1-0.7-4.6
		c-0.1-1.2,0.1-1.4,2.1-1.7c3.4-0.5,6.9-0.9,10.6-0.6c2.9,0.2,5.1-0.2,7.2-1.2c5.5-2.8,11.6-5.3,17.8-7.6c2.4-0.9,4.5-2,6.6-3
		c4.5-2.1,9.1-4.3,13.6-6.4c2.2-1,3.9-2.3,5.8-3.5c2.2-1.3,4.4-2.7,6.5-4.1c0.9-0.6,2.1-0.9,3.5-1.1c4.4-0.6,9-0.6,13.7-0.5
		c1.2,0,2.2,0.3,2.8,1c0.3,0.3,0.7,0.7,1.1,1c0.8,0.7,1.1,0.8,2.3,0.6c1.4-0.2,2.9-0.4,4.3-0.7c1.4-0.3,2.9-0.4,4.5-0.2
		c4.7,0.5,9.3,0.6,13.9,0.6c1.5,0,2.9,0,4.3-0.2c0.4,0,0.9-0.1,1.3-0.1c4-0.1,7.4-0.9,10.8-1.8c1.5-0.4,3-0.5,4.6-0.6
		c4-0.2,8.1-0.3,12.1-0.3c1.9,0,3.5-0.2,5-0.7c1.3-0.4,2.6-0.8,3.9-1.1c0.8-0.2,1.5-0.2,2.3,0.1c1.7,0.6,3.4,1.3,5,2.1
		c0.5,0.3,0.9,0.6,1.3,0.9c0.4,0.3,0.7,0.7,1.1,1c2.1,2,1.6,1.8,5.5,2.1c0.5,0,0.9,0,1.4,0.1c3.6,0.4,6.8-0.1,10-0.6
		c1-0.2,1.9-0.4,2.6-0.9c1.4-1,2.7-2,4.1-3c0.7-0.5,0.9-1.1,0.5-1.7c-0.5-0.9-0.9-1.8-1.5-2.7c-0.5-0.8-0.5-1.6-0.2-2.3
		c0.4-1,0.8-2,1.1-3c0.3-0.8,0.8-1.4,1.6-2c3-2.3,6.1-4.5,9.8-6.3c2.9-1.5,5-3.3,7.5-5c0.7-0.5,1-1,1.2-1.6c0.4-1.1,0.8-2.2,1.2-3.3
		c0.4-1.1,0-2.2,0-3.3c0-1.5-0.4-3.1-1.4-4.6c-0.3-0.5-0.5-0.9-0.8-1.4c-0.6-1-0.7-1.9-0.3-2.8c0.4-0.9,0.7-1.9,1-2.8
		c0.2-0.9,1-1.5,2.5-1.9c3.4-0.8,6.9-1.6,10.4-2.3c2.4-0.5,4.9-0.7,7.6-0.4c0.9,0.1,1.8,0.1,2.7,0.2c1,0.1,1.4,0.4,1.1,0.9
		c-0.4,0.6-0.8,1.2-1.3,1.8c-2.8,3-1.3,2.3-6.6,4.5c-2,0.8-3.9,1.7-5.7,2.7c-0.4,0.2-0.9,0.5-1.3,0.7c-0.4,0.3-0.2,0.6,0.5,0.7
		c0.6,0.1,1.3,0.2,1.9,0.3c0.7,0.1,1.5,0.2,2.2,0.4c1.1,0.2,1.4,0.4,1.5,1.1c0.1,0.8,0,1.7,0.1,2.5c0,2,0,2,3.5,2.8
		c0.9,0.2,1.8,0.4,2.6,0.6c1.6,0.5,2.8,0.3,3.8-0.4c0.8-0.6,1.8-1,2.7-1.6c1-0.6,2.2-1.1,3.4-1.5c4.3-1.4,8.5-2.8,12.8-4.1
		c4.5-1.4,9.2-2.5,13.9-3.6c0.6-0.1,1.3-0.3,1.9-0.5c2.1-1,4.2-2,6.2-3c0.4-0.2,0.7-0.4,1-0.7c2.1-2.2,4.8-4.2,6.4-6.6
		c0.7-1.2,1.6-2.3,2.6-3.4c2-1.9,4.5-3.6,7.5-5c1.4-0.6,3.1-1,4.8-1.4c1.5-0.4,2.4-1,3-1.9c0.6-0.9,1.3-1.7,1.9-2.6
		c0.6-0.9,1.1-1.8,1.2-2.8c0.4-2.7,1.1-5.3,1.5-8c0.2-1.1,0.8-2,1.9-2.7c1-0.7,2-1.5,3-2.2c0.8-0.5,1.3-1.1,1.6-1.9
		c0.4-1.2,1-2.4,1.4-3.6c0.3-0.7,0.5-1.5,0.6-2.3c0.3-2.9,1.2-5.7,2.2-8.5c0.6-1.7,1.2-3.4,1.8-5.1c0.4-1.2,0.3-2.4-0.3-3.6
		c-1.9-3.7-1.1-2.7-5.6-5.3c-1.2-0.7-2.4-1.1-4-1.3c-0.8-0.1-1.6-0.2-2.5-0.3c-0.6-0.1-1.3-0.2-1.9-0.3c-0.4-0.1-0.8-0.2-0.7-0.4
		c0-0.1,0.2-0.3,0.4-0.3c1-0.3,2.1-0.5,3.1-0.7c0.5-0.1,1-0.2,1.5-0.3c0.8-0.2,1.4-0.6,1.5-1.1c0.3-1.2,0.7-2.3,1.1-3.5
		c0.2-0.6,0.1-1.1,0-1.7c-0.1-0.4-0.2-0.7-0.2-1.1c-0.2-2.2-1.5-4.3-3.2-6.4c-0.8-0.9-1.2-1.8-1.1-2.8c0.1-1,0.2-2,0.2-3
		c0-0.7,0.6-1.2,1.7-1.5c1.5-0.4,2.9-0.9,4.4-1.3c1.1-0.3,1.8-0.7,2.2-1.4c0.7-1,1.4-2,2.2-3c0.3-0.4,0.4-0.8,0.2-1.2
		c-0.2-0.7-0.5-1.4-0.7-2.1c-0.2-0.5-0.5-0.9-0.6-1.4c-0.3-1-0.1-1.3,1.4-1.7c1.5-0.4,3.1-0.7,4.6-1c0.8-0.2,1.6-0.1,2.3,0.3
		c1.6,0.9,3.3,1.8,4.9,2.7c0.8,0.4,1.2,1,1.5,1.6c0.5,0.8,0.9,1.7,1.5,2.5c0.6,0.9,1.2,1.1,2.8,1.1c0.9,0,1.8-0.1,2.6-0.3
		c0.8-0.2,1.6-0.4,2.4-0.6c1.7-0.5,3.6-0.7,5.6-0.7c0.4,0,0.7,0,1.1,0c1.4,0,2.3-0.4,2.5-1.2c0.2-1,0.6-1.9,0.8-2.9
		c0.1-0.4-0.2-0.7-0.9-0.7c-2.3-0.1-4.6-0.4-6.7,0c-1.5,0.3-3,0.5-4.5,0.8c-0.4,0.1-0.8,0.1-1.3,0.2c-0.7,0.1-1.3-0.1-1.6-0.5
		c-0.9-1.2-1.8-2.3-2.6-3.5c-0.3-0.5-0.3-0.9-0.1-1.4c0.7-1.4,1.3-2.8,2-4.2c0.5-0.9,1.2-1.1,2.9-0.8c1.2,0.2,2.3,0.5,3.5,0.7
		c3.1,0.8,6.3,1.2,9.5,1.2c0.8,0,1.6,0.1,2.5,0.2c1,0.1,1.8,0.4,2,1c0.8,1.9,1.9,3.7,1.5,5.7c-0.4,2.1,0.4,4.2,1.2,6.3
		c0.7,1.9,1.7,3.7,2.6,5.5c0.5,0.9,1.2,1.9,2.2,2.7c0.2,0.2,0.5,0.4,0.6,0.6c1.7,1.7,3.8,3.1,6.4,4.4c2.5,1.2,4.5,2.6,6.3,4.2
		c4.3,3.6,8,7.4,11,11.4c1.9,2.5,4,5,4.8,7.7c0.2,0.7,0.7,1.4,1,2c0.4,0.6,0.5,1.3,0.2,1.9c-1.3,3.3-2.7,6.5-4,9.8
		c-0.2,0.6-0.7,1.1-1.3,1.6c-0.5,0.4-0.9,0.8-1.4,1.2c-2.7,2.3-4,4.9-5.2,7.6c-0.2,0.6-0.3,1.1-0.1,1.7c0.8,2.5,1.6,5,3.2,7.4
		c1.1,1.8,1,1.8-2.1,2c-3,0.2-6.1,0.2-9.2,0c-1.9-0.1-3.1,0.2-4,1c-1,0.9-2,1.7-3.1,2.5c-0.7,0.5-1,1.1-1,1.8c0,0.8,0.1,1.7,0,2.5
		c-0.2,1.2,0.5,2.4,1.5,3.6c1.7,2.1,3.3,4.1,4.4,6.3c2.1,3.9,3,7.9,2.7,11.8c0,0.4-0.2,0.8-0.3,1.2c-1.4,3.5-2.9,6.9-4.8,10.2
		c-0.7,1.2-1.6,2.4-2.5,3.6c-1.1,1.4-1.7,2.9-2.1,4.5c-0.6,2.5,0.2,4.9,0.9,7.4c0.1,0.4,0.3,0.7,0.5,1.1c1.8,2.2,3.2,4.5,5.8,6.5
		c2.2,1.7,4.1,3.4,5.7,5.3c0.4,0.5,0.9,1,1.3,1.5c0.5,0.7,0.3,0.9-0.8,1.2c-1.6,0.3-3.1,0.6-4.7,0.8c-1.3,0.2-2.3,0.6-3.2,1.2
		c-1.1,0.8-2.3,1.6-3.6,2.3c-0.9,0.5-1.2,1.1-1.2,1.9c0.1,1,0,2,0.1,3c0,0.7-0.1,1.4-0.6,2.1c-0.7,1-1.4,1.9-2,2.9
		c-0.4,0.7-1.3,1.1-2.5,1.4c-1.6,0.3-3.1,0.6-4.7,0.9c-1,0.2-1.9,0.5-2.5,0.9c-1.1,0.7-2.3,1.4-3.5,2.2c-0.5,0.3-1,0.5-1.5,0.8
		c-0.4,0.2-0.9,0.2-1.2-0.1c-1.8-1.5-4-2.8-4-4.7c0-0.1,0-0.2,0-0.3c-0.6-3.9-0.6-3.9,1.1-7.5c0.5-1.1,1.6-2.1,2.4-3.1
		c0.4-0.5,0.8-1.1,1.1-1.7c0.1-0.2-0.2-0.4-0.6-0.5c-1.8-0.2-3.4,0-5,0.3c-0.6,0.1-1,0.4-1.3,0.7c-1,1.3-2,2.5-2.9,3.8
		c-0.3,0.4-0.1,0.8,0.1,1.2c0.4,0.8,0.8,1.6,1.2,2.3c0.2,0.4,0.4,0.8,0.4,1.3c0,0.3-0.3,0.5-0.8,0.4c-0.7-0.1-1.5-0.2-2.2-0.3
		c-3.2-0.7-6.5-1-9.8-1.4c-1.4-0.2-2.5-0.1-3.5,0.4c-1.3,0.7-2.5,1.3-3.8,1.9c-0.8,0.4-1.2,0.9-1.2,1.6c0,1.1,0,2.2,0,3.3
		c0,0.3,0.1,0.6-0.1,0.9c-0.8,1.9-1.8,3.8-2.9,5.6c-0.1,0.1-0.2,0.3-0.4,0.4c-1.6,1-3.2,2-4.9,3c-0.8,0.5-1.4,0.4-2.2-0.3
		c-1.2-1-2.3-2-3.5-2.9c-0.7-0.5-0.9-1.1-0.8-1.7c0.2-1.1,0.3-2.2,0.6-3.2c0.3-0.9-0.1-1.8-1.3-2.5c-0.7-0.4-1.2-0.9-1.9-1.3
		c-0.5-0.3-1.2-0.4-1.7-0.2c-2.4,0.9-4.8,1.8-6.7,3.1c-1.3,0.9-2.6,1.8-3.8,2.7c-0.9,0.6-1.5,1.3-1.8,2.1c-0.5,1.2-1.1,2.3-1.6,3.5
		c-0.3,0.7-1,1-2.4,1c-5.1-0.1-10.2-0.3-15.3-0.7c-2.4-0.2-4.7-0.6-7.1-1c-2.2-0.4-4.1-0.3-6,0.1c-3.5,0.9-7.1,1.6-10.9,2.1
		c-0.3,0-0.5,0.1-0.8,0.1c-0.3,0.1-0.7,0.1-1-0.1c-0.4-0.2-0.1-0.4,0.1-0.6c0.4-0.3,0.8-0.7,1.2-0.9c1.6-1,2.1-2.3,2.7-3.5
		c0.2-0.4-0.2-0.6-1-0.6c-1,0-2,0-3,0.1c-1.9,0.2-3.7,0.3-5.7-0.1c-0.8-0.1-1.2,0.1-1,0.6c0.2,0.5,0.4,0.9,0.6,1.4
		c0,0.1-0.1,0.2-0.2,0.2c-0.1,0-0.4,0-0.5,0c-1.7-0.8-3.3-1.6-4.8-2.5c-0.6-0.3-0.8-0.8-0.8-1.2c-0.1-0.7-0.1-1.5-0.2-2.2
		c0-0.4-0.1-0.8-0.3-1.3c-0.1-0.2-0.5-0.4-0.8-0.4c-2.2,0.3-4.5,0.6-5.3,2c-0.7,1.1-1.4,2.3-2.2,3.4c-0.4,0.6-0.3,1.2,0.6,1.8
		c1.7,1.1,3.3,2.2,5.1,3.3c0.7,0.4,1.5,0.7,2.3,1c2.1,0.8,4.3,1.6,6.4,2.4c1.3,0.5,1.4,0.7,1.1,1.5c-0.4,1-0.9,2.1-1.3,3.1
		c-0.3,0.8-1.1,1.1-2.4,1c-1.7-0.1-3.5-0.1-5.2-0.1c-1.5-0.1-2.9,0-4.2,0.3c-1.2,0.3-2.5,0.5-3.7,0.7c-1.3,0.2-2.3,0.7-2.6,1.5
		c-0.7,2-2.8,3.5-5,4.9c-4.1,2.7-6.9,5.9-9.6,9.2c-0.7,0.9-1.4,1.7-2.1,2.6c-0.4,0.5-1,0.8-2,0.8c-2.1,0-4.1,0.1-6.2,0.1
		c-1.1,0-2.2-0.2-3.2-0.6c-2.2-0.7-4.3-1.5-6.5-2.2c-1.1-0.3-1.8-0.8-2.4-1.4c-0.8-1-1.8-2-2.6-3c-0.6-0.8-1.6-1.4-2.9-1.8
		c-1.2-0.4-2.3-0.8-3.4-1.3c-0.7-0.2-1.3-0.5-1.9-0.7c-1.7-0.6-2.5-1.4-2.4-2.4c0-0.1,0-0.2,0-0.3c0-2.3-0.6-4.6-2.2-6.9
		c-0.2-0.3-0.3-0.5-0.4-0.8c-0.3-0.6-0.1-1,0.6-1.4c0.5-0.2,0.9-0.4,1.4-0.6c3.2-1.3,5.8-3,8.5-4.6c0.2-0.1,0.4-0.3,0.6-0.5
		c0.3-0.3,0.3-0.6-0.1-0.9c-1-0.7-2.1-1.5-3.2-2.2c-0.6-0.4-1.3-0.5-2-0.4c-1.4,0.1-2.8,0.3-4.2,0.5c-1.9,0.3-3.8,0.2-5.9-0.3
		c-3.7-0.9-7.5-1.6-11.2-2.5c-2.9-0.7-5.8-1-8.6-0.6C378.6,353.2,378.2,353.3,377.8,353.3z M569.9,121.8c0.4,0.7,0.2,1.2-0.7,1.6
		c-1.3,0.6-2.7,1.2-3.9,1.9c-1,0.6-2.1,0.7-3.7,0.4c-2.9-0.4-5.8-0.8-8.8-1.1c-4.5-0.5-9-0.9-13.4-1.6c-0.6-0.1-1.3-0.2-1.9-0.3
		c-0.9-0.1-1.3,0.2-1.3,0.7c0,0.1,0,0.2,0,0.3c0.6,2.4,1.1,4.8,3.3,7c0.2,0.2,0.4,0.5,0.6,0.8c0.5,0.6,0.3,1.2-0.3,1.6
		c-2.5,1.7-4.7,3.6-8.1,4.8c-3.5,1.2-5.9,3.1-8.2,4.9c-0.6,0.5-0.9,1-0.7,1.7c0.6,2.6,1.3,5.2,2.8,7.7c0.7,1.2,1.6,2.1,3.6,2.7
		c1.8,0.6,3.6,1.4,5.3,2c0.9,0.4,1.5,0.8,1.9,1.4c0.5,0.7,0.8,1.5,1.5,2.1c1.1,1.1,1.2,2,0.6,3.1c-0.1,0.2-0.2,0.5-0.3,0.7
		c-1.4,3.6-1.4,3.6,0.9,7.4c0,0.1,0.1,0.1,0.1,0.2c0.4,0.8,1.2,1.4,2.5,1.8c1.4,0.5,2.9,0.9,4.3,1.4c1.2,0.4,2.1,0.4,2.9-0.1
		c1.2-0.6,2.4-1.2,3.7-1.8c1.1-0.5,1.6-1.1,1.7-1.9c0.1-0.9,0.4-1.7,0.4-2.6c0-1,0.8-1.6,2.2-2c1.1-0.3,2.1-0.7,3-1.1
		c1.3-0.6,2.6-0.6,4.3-0.2c1.7,0.5,3.5,0.8,5.3,1.2c0.9,0.2,1.6,0.1,2.1-0.3c1.1-0.9,2.2-1.7,3.2-2.6c1.2-1,1.1-1.2-0.8-2.1
		c-0.2-0.1-0.5-0.2-0.7-0.3c-4.3-1.8-8.5-3.5-12.8-5.3c-1.6-0.7-3.3-1.2-5.1-1.5c-1.8-0.3-3.6-0.6-5.4-0.9c-0.8-0.1-1.6-0.3-2.2-0.7
		c-1.4-1-2.8-2-4.2-3c-0.5-0.4-0.6-0.8-0.3-1.2c0.8-1,1.6-2.1,2.4-3.1c0.4-0.6,1.1-0.8,2.2-0.8c1.6,0.1,3.3,0.1,4.9,0.1
		c1.5,0,2.7,0.3,3.8,0.9c1.6,0.9,3.4,1.7,5,2.6c1,0.5,2.1,1,3.3,1.4c1.8,0.6,2.2,0.6,3-0.3c0.3-0.3,0.5-0.6,0.8-0.9
		c0.6-0.8,1.3-1.5,1.8-2.3c0.5-0.7,1.4-1.2,2.6-1.6c3.7-1.3,7.6-2.4,11.8-3.3c1-0.2,2-0.3,3.2-0.1c1.8,0.3,3.6,0.6,5.5,0.8
		c1.6,0.2,3,0.6,4.5,1.1c3,1,6,2,9.1,2.9c5.4,1.5,11,3,16.4,4.5c2.6,0.7,5.3,1.3,8.1,1.5c3.7,0.3,7,1.1,10.2,2.4
		c1.1,0.5,2.3,0.8,3.5,1.2c0.6,0.2,1.1,0,1.2-0.3c0.3-0.7,0.5-1.5,0.7-2.3c0.4-1.2,0.6-2.4-0.1-3.7c-0.4-0.7-0.5-1.5-0.8-2.2
		c-0.3-0.7-0.3-1.4-0.1-2c0.8-2.7,1.9-5.3,4.4-7.5c0.7-0.7,1.3-1.4,1.9-2.1c0.3-0.3,0.6-0.7,1.1-1c3.3-2.5,6.8-4.9,10.9-7
		c1.1-0.5,2.3-0.8,3.8-0.8c4.2-0.1,8.5-0.1,12.8,0.1c1.1,0,2.2,0.1,3.2-0.1c3.3-0.9,6.8-1.6,9.3-3.1c3-1.9,6.6-3.4,10.3-4.7
		c0.9-0.3,1.6-0.7,2.3-1.1c2.6-1.7,5.3-3.3,8.2-4.8c0.4-0.2,0.7-0.4,1-0.7c0.2-0.1,0-0.3-0.4-0.4c-0.4,0-0.7,0-1.1,0
		c-3.6,0.3-7.2,0.7-10.5,1.3c-0.3,0.1-0.6,0.1-1,0.2c-0.9,0.1-1.3,0-1.9-0.5c-0.8-0.7-1.3-1.5-1.7-2.3c-0.6-1.2-1.8-2.3-3.4-3.3
		c-2.7-1.7-5-3.6-7.5-5.4c-1.1-0.8-1.2-1.5-0.8-2.4c1.3-2.6,2.5-5.1,3.3-7.8c0.7-2.3,0.9-2.1-3.1-3.5c-1-0.3-1.5-0.2-1.9,0.3
		c-0.4,0.6-0.9,1.2-1.2,1.8c-0.9,1.9-2.5,3.5-4.6,4.9c-3.6,2.7-3.6,2.7-9.4,3.7c-1.1,0.2-2.1,0.2-3.2,0c-4-0.8-8.1-1.5-12-2.7
		c-1.7-0.5-3.5-0.9-5.3-1.1c-4.8-0.5-9.5-1.2-14.2-2.1c-1.5-0.3-2.8-0.7-4.2-1.1c-3.3-1.1-6.7-2.3-10.1-3.3c-5.1-1.5-10.1-3-14.8-5
		c-1.8-0.8-3.8-1.4-5.4-2.3c-3.1-1.7-6.3-3.4-9.1-5.3c-3.6-2.4-7.5-4.6-11.3-6.9c-1-0.6-2.2-1.1-3.4-1.6c-3.3-1.4-6.6-2.8-9.9-4.2
		c-0.9-0.4-1.9-0.8-2.8-1.2c-1.4-0.6-1.8-0.6-2.9,0c-1.1,0.6-2,1.2-3.1,1.7c-1,0.5-1.5,1.2-1.9,1.9c-0.3,0.8-0.6,1.6-1.1,2.3
		c-0.7,1.1-0.2,2.2,0.7,3.4c1.9,2.3,4,4.4,6.2,6.6c2.8,2.9,5,5.9,5.8,9c0.1,0.4,0.2,0.8,0.4,1.3c0.3,0.6,0.3,1.2,0.2,1.7
		c-0.2,1.1-0.3,2.2-0.5,3.2c-0.2,0.9-0.1,1.8,0.2,2.7c0.5,1.3,0.8,2.5,1.1,3.8c0.3,1.2,0.6,2.4,1,3.6c0.3,1,0,1.7-1.4,2.2
		c-1.2,0.4-2.2,1-3.3,1.4c-1.3,0.5-2,1.2-1.9,2.1c0.1,0.9,0,1.9-0.1,2.8c-0.1,0.7,0.2,1.4,0.8,2.2c1.3,1.7,3,3.4,3.9,5.6
		C569,120.2,569.4,121,569.9,121.8z M235.8,439.4c-0.1-0.2-0.2-0.3-0.3-0.5c-1.3-1.7-1.2-3.4-1-5c0-0.4,0.6-0.5,1.2-0.2
		c1.5,0.7,3,1.5,4.4,2.2c0.7,0.4,1,0.8,1.1,1.3c0.2,1.1,0.4,2.1,0.7,3.2c0.1,0.6,0,1-0.6,1.4c-0.9,0.7-1.7,1.5-2.5,2.2
		c-0.5,0.5-1,0.9-1.3,1.4c-0.3,0.3,0.2,0.8,0.9,0.8c0.5,0.1,1.1,0.1,1.6,0.1c1.4,0,2.7,0,4.1,0c1.4,0,2.6-0.2,3.7-0.6
		c1.3-0.5,2.7-1.1,4-1.6c1-0.4,1.6-0.8,1.9-1.5c0.4-0.8,0.9-1.5,1.2-2.3c0.5-1,1.3-1.8,2.2-2.7c0.8-0.8,1.9-1.1,3.6-0.7
		c1.4,0.3,2.9,0.6,4.3,0.8c1.4,0.2,1.8,0.1,2.3-0.6c0.8-1.2,1.5-2.5,2.2-3.7c0.5-0.8,0.8-1.7,0.8-2.5c0.2-2.7,0.4-5.4,0.6-8.1
		c0.1-0.8,0.3-1.6,0.8-2.4c1.1-2.1,2.4-4.1,3.1-6.3c0.8-2.7,2.3-5.2,4-7.6c0.5-0.7,1.2-1.3,2.2-1.8c1.4-0.7,2.8-1.4,4.2-2.1
		c0.7-0.4,1.2-0.8,1.2-1.4c0.1-1.3,0.2-2.6,0.3-3.9c0-0.6-0.2-1.1-0.7-1.7c-0.9-1-1.7-2-2.5-3c-0.5-0.7-1.3-1.2-2.3-1.7
		c-2.6-1.3-5.1-2.6-7.9-3.8c-0.7-0.3-1.4-0.6-2-1c-0.4-0.2-0.5-0.5-0.2-0.7c0.3-0.3,0.6-0.5,0.9-0.7c0.8-0.6,1.6-1.3,2.5-1.9
		c1-0.7,1-1.4,0.3-2.3c-0.7-0.8-1.3-1.7-2-2.6c-0.7-0.9-1.2-1.1-2.8-1.1c-3.2,0.1-6.3,0.1-9.4,0.4c-1.2,0.1-2.4,0.2-3.7,0.4
		c-1.5,0.1-2.9-0.1-4-0.9c-0.9-0.6-1.8-1.2-2.8-1.8c-1.8-1-2.5-2.1-2.9-3.3c-0.2-0.8-0.4-1.6-0.7-2.4c-0.2-0.6-0.7-0.8-1.8-0.9
		c-0.6,0-1.3,0-1.9,0c-3.8-0.1-7.6-0.1-11.4-0.2c-3.6,0-3.2-0.4-5.7,1.2c-4.1,2.6-9,4.8-14,6.8c-1.4,0.6-2.9,0.9-4.7,0.6
		c-1.1-0.1-2.2-0.2-3.3-0.2c-3.2-0.2-2.9-0.3-4.6,1.1c-2.4,1.9-4.7,3.8-8.3,5.1c-0.1,0.1-0.3,0.1-0.4,0.2c-0.9,0.5-1,0.8-0.1,1.5
		c1,0.8,1.9,1.6,3,2.3c1,0.7,1.3,1.5,0.9,2.3c-0.3,0.6-0.5,1.3-0.8,1.9c-1.1,2.4-1.2,2,1.4,4.1c2.9,2.4,2.9,2.4,3.7,5.2
		c0.2,0.7,0.4,1.5,0.7,2.2c0.3,0.6,1.2,0.8,1.9,0.5c0.9-0.4,1.8-0.9,2.6-1.4c2.2-1.5,5.5-1.9,8.8-2.2c0.5,0,1,0.2,1,0.4
		c-0.3,1.4-0.5,2.9-0.9,4.3c-0.1,0.3-0.5,0.5-0.8,0.8c-1.1,1.1-2.2,2.1-3.4,3.1c-0.7,0.6-0.9,1.3-0.4,2.1c0.3,0.5,0.7,1,0.9,1.6
		c0.7,1.6,2,3.1,4.3,4.3c0.4,0.2,0.8,0.5,1.2,0.8c1.1,0.7,1.8,1.4,2.2,2.3c0.4,1,0.8,2,1.2,3c1.4,3.2,2.6,6.4,4.4,9.6
		c0.7,1.2,0.5,1.3-1.1,1.9c-1.2,0.4-2.4,0.8-3.5,1.2c-1.2,0.5-1.3,0.7-0.7,1.6c0.7,0.9,1.5,1.8,2.3,2.7c0.6,0.7,1.5,1.1,2.8,1.3
		c3.9,0.6,7.8,1.2,11.7,1.8c0.6,0.1,1.3,0.2,1.9,0.2c1.1,0.1,1.6-0.2,1.3-0.8C236.7,440.8,236.2,440.1,235.8,439.4
		C235.8,439.4,235.8,439.4,235.8,439.4z M391.1,375.7c-1.7-2-3.1-4-4.4-6.1c-0.7-1.1-1.7-1.8-3.4-2.3c-3.1-0.9-6.1-1.9-9-3
		c-1.6-0.6-3.1-1.1-4.7-1.7c-1-0.4-2.1-0.6-3.2-0.6c-1.9-0.1-3.8-0.2-5.8-0.3c-1.6-0.1-3.1,0.1-4.4,0.5c-2,0.6-3.9,1.3-5.8,1.9
		c-1.1,0.4-1.8,0.9-1.8,1.7c0,0.6-0.2,1.1-0.2,1.7c-0.3,1.9-0.4,1.9-3.1,2.8c-3.1,1-6.4,1.4-10.1,1.3c-2.3-0.1-4.4-0.3-6.3-1.1
		c-2.3-1-4.7-1.5-7.4-1.4c-0.9,0-1.8,0-2.7-0.1c-2-0.2-3.2,0.3-4,1.2c-2,2.1-4.1,4.2-5.3,6.6c-0.7,1.3-1.9,2.2-3.9,2.8
		c-0.5,0.1-0.9,0.3-1.3,0.5c-3.7,1.3-7.4,2.6-11.1,4c-0.8,0.3-1.6,0.5-2.2,1c-0.3,0.3,0,0.7,0.6,0.8c0.7,0.1,1.3,0.1,1.9,0
		c2.7-0.3,5,0.7,7.4,1.3c0.4,0.1,0.7,0.4,0.9,0.6c1.2,1.3,2.4,2.6,3.2,3.9c0.3,0.5,0.3,0.9,0.4,1.4c0.1,0.9,0.1,1.9,0.1,2.8
		c0,0.9,0.5,1.6,1.8,2.1c2.9,1.2,5,2.8,6.6,4.6c0.1,0.1,0.2,0.2,0.3,0.3c0.6,0.8,1.7,1.2,3.1,1.2c2.8,0.2,5.7,0.4,8.5,0.7
		c2.5,0.2,3.7,0.3,2.7-1.6c-0.4-0.8-0.3-1.6,0.4-2.2c0.2-0.2,0.4-0.4,0.6-0.7c1.9-2.1,4-4.2,5.5-6.4c0.9-1.2,2.2-2.4,3.8-3.3
		c1.1-0.6,2.1-1.3,3.1-1.9c0.7-0.5,1.6-0.9,2.7-1.1c0.8-0.2,1.6-0.4,2.4-0.6c3.2-1.1,7.1-1.1,10.9-1c1,0,2,0.2,2.9,0.6
		c1.6,0.7,3.2,1.3,4.7,2c1.8,0.9,3.8,1.3,5.9,1.2c0.4,0,0.7,0,1.1,0c1.6,0.1,2.5-0.3,3.1-1.1c0.7-1,1.5-1.9,2.2-2.9
		c0.8-1,1.9-1.8,3.5-2.5c1.6-0.6,3.1-1.2,4.6-1.9c2-0.9,4-1.8,6.1-2.7c0.7-0.3,0.9-0.7,0.5-1.2c-0.1-0.2-0.2-0.3-0.5-0.7
		C391.7,376.5,391.4,376.1,391.1,375.7z M504.7,269.5c0.3,0.5,1,0.8,1.9,0.9c1.6,0.2,3.1,0.3,4.7,0.5c0.7,0.1,1.3-0.1,1.6-0.4
		c1.2-1.3,2.4-2.5,3.3-3.9c0.4-0.6,0.2-1.1-0.4-1.7c-1.8-1.9-3.2-3.9-4.3-5.9c-0.2-0.4-0.5-0.7-0.8-1c-0.2-0.2-0.9-0.3-1.2-0.2
		c-0.3,0.2-0.6,0.4-0.8,0.5c-1.9,1.3-3.2,2.9-4.5,4.5c-2.2,2.5-2.2,1.8-0.4,4.8C504,268.3,504.4,268.9,504.7,269.5z M396.2,367.1
		c1.1-0.1,1.6-0.5,1.6-1.1c0-0.2,0-0.4,0-0.6c-0.1-2.1-0.2-4.3-0.3-6.4c0-0.2,0-0.4-0.1-0.6c-0.1-0.2-0.2-0.4-0.6-0.5
		c-0.5-0.1-0.9-0.1-1.2,0.1c-0.2,0.1-0.4,0.2-0.5,0.3c-1.6,1.1-3.2,2.1-4.8,3.2c-0.4,0.3-0.8,0.5-0.8,0.9c-0.3,1.5-0.4,3-0.4,4.5
		c0,0.4,0.6,0.7,1.3,0.7c1.5,0,3-0.1,4.2-0.2C395.3,367.2,395.7,367.1,396.2,367.1z M190.6,450.5c-0.6,3-5.1,3.7-8.6,4.8
		c-2.3,0.7-3.1,3-7.1,2.2c-1.2-0.3-2.5-0.3-1.9-1.2c0.7-1,0.1-2-2.4-2.3c-1.3-0.2-3.4-1.9-5.1,0.2c-1,1.3,2.5,2.8-0.5,3.5
		c0.7,0.6,1.7,0.7,2.7,0.9c-0.5,0.2-0.8,0.5-0.4,1c0.1,0.1,0.1,0.2,0.2,0.4l-4.5,0.1c-0.9-0.2-1.5-0.2-2,0l0,0l0,0
		c-1.1,0.6-1.1,2.1-2.8,2.1c-3-0.5-5.1,0.2-7.1,1.1c0.6,0.3,1.1,0.6,1.7,1c0,0-0.1,0-0.1,0c-0.4,0.8,0.3,1.6,1.2,2.3
		c1.1,1.5-1.3,1.4-2.4,2c-1.8,0.9-6.3,0.7-5,3.1c0.8,1.6,0,2.6-0.7,3.8c0.6,0.2,1.3,0.4,1.9,0.6c2.5-0.5,5.1-0.9,7.5-1.5
		c1.1-0.3,5.2-0.7,0-1.8c-1.3-0.3-1.6-0.9-0.8-1.4c1.7-1.2,3.5-2.2,5.3-3.4c1.7-1.1,2,0.5,3,0.7c0.2,0.6,1,0.8,1.8,0.9
		c-0.3-1.7,3.5,0.1,3.6-1.2l-0.2-0.2c0.6-0.2,1.2-0.4,1.8-0.6c0.5-1.5-2.8-2.5-2.6-4.2c0.1-0.8-1.5-0.1-2.1,0.5
		c-0.9,0.8-0.5,2.4-2.9,2.4c-0.1,0-0.1-0.1-0.2-0.1c-0.1-0.1-0.2-0.2-0.3-0.3c0.3-0.6,0.5-1.2,0.8-1.8l0.9-0.1l1.5-1.9l5.1,0.3l0,0
		c0.7,0.3,1.4,0.4,2.5,0.2c-1-0.4-1.5-0.8-1.8-1.1l1.3-1.5l-1,0c0.1-0.1,0.2-0.2,0.3-0.4c0.2,0.1,0.4,0.1,0.6,0.2
		c2.8,0.7,5.4,1.9,8.4,1.8c0.6-0.1,0.9-0.3,0.8-0.7c0.3-1.4,1.5-1.5,4.1-1.3c5.1,0.4,7.4-2,9.1-4
		C195.9,453.9,194.6,451.8,190.6,450.5z M159.1,452c2,0.5,3.4,1,4.1,0.3c0.4-0.5-0.5-1.2-1.7-1.3c-1.2-0.1-2.8-1-3.4,0.1
		C157.7,451.8,159.1,452,159.1,452z"/>
</g>
</svg>
