<?xml version="1.0" encoding="utf-8"?>
<!-- Generator: Adobe Illustrator 22.1.0, SVG Export Plug-In . SVG Version: 6.00 Build 0)  -->
<svg version="1.1" xmlns="http://www.w3.org/2000/svg" xmlns:xlink="http://www.w3.org/1999/xlink" x="0px" y="0px"
	 viewBox="0 0 343 128" style="enable-background:new 0 0 343 128;" xml:space="preserve">
<style type="text/css">
	.st0{fill:#FFFFFF;}
	.st1{fill:#3EBCC2;}
	.st2{fill:#595757;}
	.st3{fill:#69B32D;}
	.st4{fill:#5DAAD8;}
	.st5{fill:#EDA6C5;}
	.st6{fill:#0A9C91;}
	.st7{fill:none;stroke:#FFFFFF;stroke-width:0.4192;stroke-miterlimit:10;}
	.st8{opacity:0.1;}
	.st9{opacity:0.3;}
	.st10{fill:url(#SVGID_1_);}
	.st11{fill:#727272;}
	.st12{fill:#69B22D;}
	.st13{fill:#459543;}
	.st14{fill:#1B1B1B;}
	.st15{fill:#643231;}
	.st16{fill:none;stroke:#595757;stroke-width:0.8944;stroke-miterlimit:10;}
	.st17{fill:#A3A3A3;}
	.st18{fill:none;stroke:#A3A3A3;stroke-miterlimit:10;}
	.st19{fill:#E96447;}
	.st20{fill:#365FA8;}
	.st21{fill:#A961A0;}
	.st22{fill:#F1BC1B;}
	.st23{fill:#69B42D;}
	.st24{fill:#EDA6C5;stroke:#E5A2BF;stroke-width:1.5;stroke-linecap:round;stroke-linejoin:round;stroke-miterlimit:10;}
	.st25{fill:none;stroke:#FFFFFF;stroke-width:8;stroke-miterlimit:10;}
	.st26{fill:none;stroke:#FFFFFF;stroke-width:8;stroke-linecap:round;stroke-linejoin:round;stroke-miterlimit:10;}
	.st27{fill:#0A9D92;stroke:#11968C;stroke-width:1.1728;stroke-linejoin:round;stroke-miterlimit:10;}
</style>
<g id="レイヤー_2">
</g>
<g id="レイヤー_1">
	<g>
		<g>
			<g class="st8">
				<path d="M292.7,120.6H62.4c-27.4,0-49.8-22.4-49.8-49.8v0c0-27.4,22.4-49.8,49.8-49.8h230.3c27.4,0,49.8,22.4,49.8,49.8v0
					C342.5,98.2,320.1,120.6,292.7,120.6z"/>
			</g>
			<g>
				<path class="st0" d="M282.5,110.5H52.2C24.8,110.5,2.4,88,2.4,60.6v0c0-27.4,22.4-49.8,49.8-49.8l230.3,0
					c27.4,0,49.8,22.4,49.8,49.8v0C332.4,88,310,110.5,282.5,110.5z"/>
			</g>
		</g>
		<g>
			<g class="st9">
				<circle cx="67.8" cy="67.8" r="58.2"/>
				<path d="M67.8,128.4c-33.4,0-60.6-27.2-60.6-60.6S34.4,7.2,67.8,7.2c33.4,0,60.6,27.2,60.6,60.6S101.2,128.4,67.8,128.4z
					 M67.8,11.9C37,11.9,11.9,37,11.9,67.8s25.1,55.9,55.9,55.9c30.8,0,55.9-25.1,55.9-55.9S98.6,11.9,67.8,11.9z"/>
			</g>
			<g>
				<g>
					<linearGradient id="SVGID_1_" gradientUnits="userSpaceOnUse" x1="5.884" y1="40.7012" x2="115.3666" y2="80.5496">
						<stop  offset="0" style="stop-color:#B1FF00"/>
						<stop  offset="1" style="stop-color:#18903B"/>
					</linearGradient>
					<circle class="st10" cx="60.6" cy="60.6" r="58.2"/>
					<path class="st0" d="M60.6,121.3C27.2,121.3,0,94.1,0,60.6S27.2,0,60.6,0c33.4,0,60.6,27.2,60.6,60.6S94.1,121.3,60.6,121.3z
						 M60.6,4.8C29.8,4.8,4.8,29.8,4.8,60.6s25.1,55.9,55.9,55.9c30.8,0,55.9-25.1,55.9-55.9S91.4,4.8,60.6,4.8z"/>
				</g>
			</g>
		</g>
		<path class="st0" d="M90,55.9l1.7-10.2H78.2l2.4-13.6H70.4L68,45.7h-9.4l2.4-13.6H50.8l-2.4,13.6H35.5l-1.7,10.2h12.8l-1.7,9.4
			H31.3l-1.7,10.2h13.5l-2.4,13.6h10.2l2.4-13.6h9.4l-2.4,13.6h10.2l2.4-13.6h12.9l1.7-10.2H74.7l1.7-9.4H90z M64.5,65.3h-9.4
			l1.7-9.4h9.4L64.5,65.3z"/>
		<g>
			<path class="st11" d="M149.8,33.7h-2.9V33c0-0.7-0.2-1.2-0.5-1.7c-0.3-0.5-0.8-0.7-1.6-0.7c-0.4,0-0.7,0.1-1,0.2
				c-0.2,0.2-0.4,0.3-0.6,0.6c-0.2,0.2-0.3,0.5-0.3,0.8s-0.1,0.6-0.1,1c0,0.4,0,0.7,0,1s0.1,0.5,0.2,0.7c0.1,0.2,0.3,0.4,0.5,0.5
				s0.5,0.3,0.9,0.5l2.2,0.9c0.6,0.2,1.2,0.5,1.6,0.9s0.7,0.7,0.9,1.2c0.2,0.5,0.4,1,0.4,1.6c0.1,0.6,0.1,1.2,0.1,2
				c0,0.9-0.1,1.7-0.3,2.4c-0.2,0.7-0.4,1.4-0.8,1.9c-0.4,0.5-0.9,1-1.6,1.3c-0.6,0.3-1.4,0.5-2.4,0.5c-0.7,0-1.4-0.1-2-0.4
				c-0.6-0.2-1.1-0.6-1.6-1c-0.4-0.4-0.8-0.9-1-1.5c-0.3-0.6-0.4-1.2-0.4-1.9v-1.1h2.9v0.9c0,0.5,0.2,1,0.5,1.4
				c0.3,0.4,0.8,0.6,1.6,0.6c0.5,0,0.9-0.1,1.2-0.2c0.3-0.1,0.5-0.3,0.6-0.6c0.2-0.3,0.2-0.6,0.3-1c0-0.4,0-0.8,0-1.2
				c0-0.5,0-1-0.1-1.3c0-0.3-0.1-0.6-0.2-0.8c-0.1-0.2-0.3-0.4-0.5-0.5c-0.2-0.1-0.5-0.3-0.9-0.4l-2.1-0.9c-1.3-0.5-2.1-1.2-2.5-2
				c-0.4-0.8-0.6-1.9-0.6-3.2c0-0.8,0.1-1.5,0.3-2.2c0.2-0.7,0.5-1.3,0.9-1.8c0.4-0.5,0.9-0.9,1.5-1.2c0.6-0.3,1.4-0.4,2.2-0.4
				c0.7,0,1.4,0.1,2,0.4c0.6,0.3,1.1,0.6,1.6,1.1c0.9,0.9,1.3,2,1.3,3.2V33.7z"/>
			<path class="st11" d="M160.3,42h-5.8v2c0,0.5,0.1,0.8,0.4,1.1c0.3,0.2,0.6,0.4,1,0.4c0.6,0,0.9-0.2,1.1-0.5
				c0.2-0.3,0.3-0.6,0.3-1h2.9c0,1.3-0.4,2.3-1.2,3.1c-0.4,0.4-0.8,0.7-1.4,0.9c-0.5,0.2-1.1,0.3-1.8,0.3c-0.9,0-1.7-0.2-2.3-0.6
				c-0.6-0.4-1.1-0.9-1.5-1.5c-0.2-0.4-0.4-0.8-0.4-1.3c-0.1-0.5-0.1-1-0.1-1.6v-4.8c0-0.6,0-1.1,0.1-1.6c0.1-0.5,0.2-0.9,0.4-1.3
				c0.3-0.6,0.8-1.1,1.5-1.5c0.6-0.4,1.4-0.6,2.3-0.6c0.7,0,1.3,0.1,1.8,0.3c0.5,0.2,1,0.5,1.4,0.9c0.8,0.9,1.1,1.9,1.1,3.2V42z
				 M154.5,39.7h2.9v-1.7c0-0.6-0.1-1-0.4-1.2s-0.6-0.4-1-0.4c-0.4,0-0.8,0.1-1,0.4s-0.4,0.7-0.4,1.2V39.7z"/>
			<path class="st11" d="M168,48.2v-1.5h-0.1c-0.4,0.5-0.8,0.9-1.2,1.2c-0.4,0.3-0.9,0.4-1.6,0.4c-0.3,0-0.7-0.1-1-0.2
				c-0.4-0.1-0.7-0.3-1-0.6c-0.3-0.3-0.6-0.7-0.8-1.2c-0.2-0.5-0.3-1.2-0.3-2c0-0.8,0.1-1.5,0.2-2.2c0.1-0.6,0.4-1.1,0.7-1.6
				c0.3-0.4,0.8-0.7,1.4-0.9c0.6-0.2,1.3-0.3,2.3-0.3c0.1,0,0.2,0,0.3,0s0.2,0,0.3,0c0.1,0,0.2,0,0.3,0c0.1,0,0.3,0,0.4,0v-1.5
				c0-0.5-0.1-0.9-0.3-1.2c-0.2-0.3-0.6-0.5-1.1-0.5c-0.4,0-0.7,0.1-1,0.4c-0.3,0.2-0.5,0.6-0.6,1.1H162c0.1-1.3,0.5-2.3,1.3-3.2
				c0.4-0.4,0.8-0.7,1.4-0.9c0.5-0.2,1.1-0.3,1.8-0.3c0.6,0,1.2,0.1,1.7,0.3c0.5,0.2,1,0.5,1.4,0.9c0.4,0.4,0.7,0.9,0.9,1.4
				s0.3,1.2,0.3,2v10.1H168z M168,41.9c-0.3-0.1-0.6-0.1-0.8-0.1c-0.6,0-1.2,0.1-1.6,0.4s-0.7,0.8-0.7,1.6c0,0.6,0.1,1,0.4,1.3
				c0.3,0.3,0.6,0.5,1.1,0.5c0.5,0,0.9-0.2,1.2-0.5c0.3-0.3,0.4-0.8,0.4-1.4V41.9z"/>
			<path class="st11" d="M173,48.2V33.7h2.9v1.5c0.6-0.5,1.2-1,1.7-1.3c0.6-0.3,1.3-0.5,2.1-0.5v3.1c-0.3-0.1-0.6-0.2-0.9-0.2
				c-0.3,0-0.6,0.1-1,0.2c-0.4,0.1-0.7,0.3-1,0.5c-0.3,0.2-0.6,0.6-0.7,1c-0.2,0.4-0.3,0.9-0.3,1.5v8.6H173z"/>
			<path class="st11" d="M184.1,44c0,0.5,0.1,0.8,0.4,1.1c0.3,0.2,0.6,0.4,1,0.4c0.6,0,0.9-0.2,1.1-0.5c0.2-0.3,0.3-0.6,0.3-1h2.9
				c0,1.3-0.4,2.3-1.2,3.1c-0.4,0.4-0.8,0.7-1.4,0.9c-0.5,0.2-1.1,0.3-1.8,0.3c-0.9,0-1.7-0.2-2.3-0.6c-0.6-0.4-1.1-0.9-1.5-1.5
				c-0.2-0.4-0.4-0.8-0.4-1.3c-0.1-0.5-0.1-1-0.1-1.6v-4.8c0-0.6,0-1.1,0.1-1.6c0.1-0.5,0.2-0.9,0.4-1.3c0.3-0.6,0.8-1.1,1.5-1.5
				c0.6-0.4,1.4-0.6,2.3-0.6c0.7,0,1.3,0.1,1.8,0.3c0.5,0.2,1,0.5,1.4,0.9c0.8,0.9,1.1,2,1.1,3.4H187c0-0.6-0.1-1-0.4-1.3
				s-0.6-0.4-1-0.4c-0.4,0-0.8,0.1-1,0.4s-0.4,0.7-0.4,1.2V44z"/>
			<path class="st11" d="M191.6,48.2V27.8h2.9v7.3h0.1c0.3-0.5,0.7-0.8,1.1-1.1c0.4-0.3,1-0.4,1.6-0.4c0.4,0,0.7,0.1,1.1,0.2
				c0.4,0.1,0.7,0.3,1,0.6c0.3,0.3,0.5,0.7,0.7,1.1s0.3,1,0.3,1.6v11.1h-2.9V38.1c0-0.5-0.1-1-0.4-1.3s-0.6-0.5-1.1-0.5
				c-0.6,0-0.9,0.2-1.1,0.5s-0.3,0.8-0.3,1.5v9.8H191.6z"/>
			<path class="st11" d="M208.1,48.2V27.8h2.9V35h0.1c0.3-0.5,0.7-0.8,1.2-1.1c0.4-0.3,1-0.4,1.5-0.4c0.7,0,1.3,0.1,1.6,0.4
				c0.4,0.2,0.7,0.6,1,0.9c0.2,0.3,0.3,0.7,0.4,1.2c0.1,0.5,0.1,1.3,0.1,2.3v5.5c0,0.8,0,1.4-0.1,1.9c-0.1,0.5-0.2,0.9-0.4,1.2
				c-0.5,0.9-1.3,1.4-2.5,1.4c-0.7,0-1.3-0.1-1.7-0.4s-0.8-0.6-1.1-1.1v1.3H208.1z M213.9,38.1c0-0.5-0.1-0.9-0.3-1.2
				c-0.2-0.3-0.6-0.5-1.1-0.5c-0.4,0-0.8,0.1-1,0.4c-0.3,0.3-0.4,0.7-0.4,1.1v5.6c0,0.5,0.1,1,0.4,1.3c0.3,0.3,0.6,0.5,1.1,0.5
				c0.5,0,0.9-0.2,1.1-0.5c0.2-0.4,0.3-0.8,0.3-1.4V38.1z"/>
			<path class="st11" d="M218,33.7h3.1l2,9.1h0.1l2-9.1h3l-4.2,17c-0.2,0.6-0.4,1.2-0.6,1.6c-0.3,0.4-0.6,0.8-1,1
				c-0.4,0.3-0.8,0.5-1.2,0.6c-0.4,0.1-0.8,0.2-1.3,0.2h-0.8v-2.7h0.7c0.3,0,0.5,0,0.7-0.1c0.2-0.1,0.4-0.2,0.6-0.5
				c0.2-0.3,0.3-0.6,0.4-1.1c0.1-0.5,0.3-1.2,0.5-2L218,33.7z"/>
		</g>
		<g>
			<path class="st12" d="M152.1,92.6c-0.3,0-0.5-0.2-0.5-0.5V74.7c0-2.1-0.8-3.1-2.3-3.1c-1.5,0-2.3,1-2.3,3.1V92
				c0,0.3-0.2,0.5-0.5,0.5h-5.8c-0.3,0-0.5-0.2-0.5-0.5V55.8c0-0.3,0.2-0.5,0.5-0.5h5.8c0.3,0,0.5,0.2,0.5,0.5v12.8h0.1
				c0.9-1.8,2.6-3.1,5.2-3.1c4.2,0,6.3,2.5,6.3,8.2V92c0,0.3-0.2,0.5-0.5,0.5H152.1z"/>
			<path class="st12" d="M175.2,92.6c-0.3,0-0.5-0.2-0.5-0.5v-1.8h-0.1c-0.7,1.7-2.5,2.9-4.9,2.9c-3.1,0-6.3-1.9-6.3-8
				c0-6.5,4.1-8.5,8.3-8.5h2.6c0.2,0,0.3-0.1,0.3-0.3v-1.3c0-2.4-0.7-3.6-3.4-3.6c-1.8,0-3.1,0.6-4.4,1.5c-0.3,0.2-0.7,0.2-0.8-0.2
				l-1.8-4.2c-0.2-0.3-0.1-0.5,0.2-0.8c1.9-1.4,4.6-2.2,7.7-2.2c6.6,0,9,2.9,9,9.3V92c0,0.3-0.2,0.5-0.5,0.5H175.2z M174.6,84.5
				v-2.7c0-0.2-0.1-0.3-0.3-0.3h-1.5c-2.3,0-3.2,1.3-3.2,3.2s0.7,3,2.3,3C173.6,87.7,174.6,86.5,174.6,84.5z"/>
			<path class="st12" d="M185.6,86.1c-0.1-0.3,0.1-0.5,0.4-0.6l5-0.9c0.3-0.1,0.6,0.1,0.7,0.4c0.2,1.8,1.3,2.7,2.7,2.7
				c1.5,0,2.4-0.9,2.4-2.4s-0.6-2.2-2.5-2.9l-2.1-0.8c-4-1.4-6.2-4-6.2-8.1c0-4.7,3.2-8,8.5-8c5,0,7.8,2.8,8.2,6.3
				c0.1,0.4-0.1,0.7-0.3,0.7l-4.8,0.9c-0.3,0.1-0.5-0.1-0.6-0.4c-0.3-1.3-1-2.1-2.5-2.1c-1.4,0-2.1,0.9-2.1,2.2c0,1,0.6,1.9,2.5,2.6
				l2.1,0.8c4.6,1.6,6.2,4.2,6.2,8.3c0,5-3.2,8.4-8.9,8.4C189.1,93.1,186,90.4,185.6,86.1z"/>
			<path class="st12" d="M219.9,92.6c-0.3,0-0.5-0.2-0.5-0.5V74.7c0-2.1-0.8-3.1-2.3-3.1s-2.3,1-2.3,3.1V92c0,0.3-0.2,0.5-0.5,0.5
				h-5.8c-0.3,0-0.5-0.2-0.5-0.5V55.8c0-0.3,0.2-0.5,0.5-0.5h5.8c0.3,0,0.5,0.2,0.5,0.5v12.8h0.1c0.9-1.8,2.6-3.1,5.2-3.1
				c4.2,0,6.3,2.5,6.3,8.2V92c0,0.3-0.2,0.5-0.5,0.5H219.9z"/>
			<path class="st12" d="M241,92.9c-5.4,0-7.9-2-7.9-8.2V71.4c0-0.2-0.1-0.3-0.3-0.3h-1.6c-0.3,0-0.5-0.2-0.5-0.5v-4
				c0-0.3,0.2-0.5,0.5-0.5h1.6c0.2,0,0.3-0.1,0.3-0.3v-7.1c0-0.3,0.2-0.5,0.5-0.5h5.8c0.3,0,0.5,0.2,0.5,0.5v7.1
				c0,0.2,0.1,0.3,0.3,0.3h2.6c0.3,0,0.5,0.2,0.5,0.5v4c0,0.3-0.2,0.5-0.5,0.5h-2.6c-0.2,0-0.3,0.1-0.3,0.3v13
				c0,1.6,0.7,2.3,2.1,2.3h0.8c0.3,0,0.5,0.2,0.5,0.5v5c0,0.3-0.2,0.5-0.5,0.5H241z"/>
			<path class="st12" d="M259.2,92.6c-0.3,0-0.5-0.2-0.5-0.5v-1.8h-0.1c-0.7,1.7-2.5,2.9-4.9,2.9c-3.1,0-6.3-1.9-6.3-8
				c0-6.5,4.1-8.5,8.3-8.5h2.6c0.2,0,0.3-0.1,0.3-0.3v-1.3c0-2.4-0.7-3.6-3.4-3.6c-1.8,0-3.1,0.6-4.4,1.5c-0.3,0.2-0.7,0.2-0.8-0.2
				l-1.8-4.2c-0.2-0.3-0.1-0.5,0.2-0.8c1.9-1.4,4.6-2.2,7.7-2.2c6.6,0,9,2.9,9,9.3V92c0,0.3-0.2,0.5-0.5,0.5H259.2z M258.6,84.5
				v-2.7c0-0.2-0.1-0.3-0.3-0.3h-1.5c-2.3,0-3.2,1.3-3.2,3.2s0.7,3,2.3,3C257.6,87.7,258.6,86.5,258.6,84.5z"/>
			<path class="st12" d="M270.9,96.9c-0.1-0.3,0.1-0.5,0.3-0.6l5.3-1.5c0.3-0.1,0.5,0,0.7,0.3c0.4,1.2,1.2,1.9,2.4,1.9
				c1.5,0,2.4-0.9,2.4-2.8v-5.4H282c-0.8,1.9-2.4,3.2-5,3.2c-3.1,0-4.8-1.4-5.8-4.3c-0.5-1.5-0.8-3.4-0.8-8.9c0-5.4,0.3-7.3,0.8-8.8
				c1-3,2.7-4.3,5.8-4.3c2.7,0,4.3,1.3,5.1,3.2h0.1v-2.2c0-0.3,0.2-0.5,0.5-0.5h5.7c0.3,0,0.5,0.2,0.5,0.5v26.8
				c0,6.4-3.6,9.6-9.4,9.6C274.8,102.9,271.6,100.4,270.9,96.9z M281.8,84.4c0.2-0.6,0.2-1.2,0.2-5.7c0-4.5-0.1-5-0.2-5.7
				c-0.3-1-1-1.5-2.2-1.5c-1.2,0-1.8,0.5-2.1,1.5c-0.2,0.6-0.3,1.2-0.3,5.7c0,4.6,0.1,5.1,0.3,5.7c0.3,1,1,1.5,2.1,1.5
				C280.8,86,281.5,85.4,281.8,84.4z"/>
		</g>
	</g>
</g>
<g id="レイヤー_3">
</g>
<g id="hashtag">
</g>
<g id="レイヤー_6">
</g>
<g id="レイヤー_7">
</g>
<g id="_x23_">
</g>
<g id="tag_x5F_txt">
</g>
</svg>
