<?xml version="1.0" encoding="utf-8"?>
<!-- Generator: Adobe Illustrator 22.1.0, SVG Export Plug-In . SVG Version: 6.00 Build 0)  -->
<svg version="1.1" xmlns="http://www.w3.org/2000/svg" xmlns:xlink="http://www.w3.org/1999/xlink" x="0px" y="0px"
	 viewBox="0 0 506.6 91.5" style="enable-background:new 0 0 506.6 91.5;" xml:space="preserve">
<style type="text/css">
	.st0{fill:#FFFFFF;}
	.st1{fill:#3EBCC2;}
	.st2{fill:#595757;}
	.st3{fill:#69B32D;}
	.st4{fill:#5DAAD8;}
	.st5{fill:#EDA6C5;}
	.st6{fill:#0A9C91;}
	.st7{fill:none;stroke:#FFFFFF;stroke-width:0.4192;stroke-miterlimit:10;}
	.st8{opacity:0.1;}
	.st9{opacity:0.3;}
	.st10{fill:url(#SVGID_1_);}
	.st11{fill:#727272;}
	.st12{fill:#69B22D;}
	.st13{fill:#459543;}
	.st14{fill:#1B1B1B;}
	.st15{fill:#643231;}
	.st16{fill:none;stroke:#595757;stroke-width:0.8944;stroke-miterlimit:10;}
	.st17{fill:#A3A3A3;}
	.st18{fill:none;stroke:#A3A3A3;stroke-miterlimit:10;}
	.st19{fill:#E96447;}
	.st20{fill:#365FA8;}
	.st21{fill:#A961A0;}
	.st22{fill:#F1BC1B;}
	.st23{fill:#69B42D;}
	.st24{fill:#EDA6C5;stroke:#E5A2BF;stroke-width:1.5;stroke-linecap:round;stroke-linejoin:round;stroke-miterlimit:10;}
	.st25{fill:none;stroke:#FFFFFF;stroke-width:8;stroke-miterlimit:10;}
	.st26{fill:none;stroke:#FFFFFF;stroke-width:8;stroke-linecap:round;stroke-linejoin:round;stroke-miterlimit:10;}
	.st27{fill:#0A9D92;stroke:#11968C;stroke-width:1.1728;stroke-linejoin:round;stroke-miterlimit:10;}
</style>
<g id="レイヤー_2">
</g>
<g id="レイヤー_1">
	
		<rect x="431.6" y="41.6" transform="matrix(0.7071 0.7071 -0.7071 0.7071 162.8436 -295.9152)" class="st21" width="14" height="14"/>
	
		<rect x="460.6" y="41.6" transform="matrix(0.7071 0.7071 -0.7071 0.7071 171.3423 -316.4328)" class="st21" width="14" height="14"/>
	
		<rect x="489.6" y="41.6" transform="matrix(0.7071 0.7071 -0.7071 0.7071 179.841 -336.9505)" class="st21" width="14" height="14"/>
	<rect x="2.9" y="41.6" transform="matrix(0.7071 0.7071 -0.7071 0.7071 37.2826 7.216)" class="st21" width="14" height="14"/>
	<rect x="31.9" y="41.6" transform="matrix(0.7071 0.7071 -0.7071 0.7071 45.7813 -13.3017)" class="st21" width="14" height="14"/>
	<rect x="60.9" y="41.6" transform="matrix(0.7071 0.7071 -0.7071 0.7071 54.2799 -33.8194)" class="st21" width="14" height="14"/>
</g>
<g id="レイヤー_3">
	<g id="sE1Q7m_2_">
		<g>
			<path class="st21" d="M288.2,49.7c0,0.8,0.1,1.5,0.1,2.3c-0.9,4.1-3.5,7-6.7,9.4c-3.8,2.9-8,5-12.5,6.5c-2.3,0.8-4.7,1.3-7,1.9
				c-1.3,0.1-2.5,0.1-3.8,0.2c-0.1-0.1-0.2-0.1-0.3-0.2c-4.7-0.4-8.5-2.2-11.7-5.8c-2.6-2.9-4.4-6.2-4.8-10.1
				c-1-10.7,7.7-19.7,18.5-19.2c6.5,0.3,12.6,2.1,18.4,5C282.7,42,286.6,44.7,288.2,49.7z M243.4,52.9c0.1,0.1,0.3,0.4,0.5,0.7
				c0.2-0.3,0.4-0.6,0.5-0.9c0.1-0.2,0.1-0.5,0.1-0.8c0.8-6,3.4-10.9,9.3-13.3c1.8-0.7,3.8-0.9,5.8-1.3c0.3-0.1,0.6-0.4,0.9-0.6
				c-0.3-0.1-0.6-0.4-0.9-0.4C250.3,36.9,244.2,43.1,243.4,52.9z"/>
			<path class="st21" d="M233.7,24.8c0.8,0,1.5-0.1,2.3-0.1c6.5,1.6,9.7,6.7,12.9,12c-5.3,3.6-8.4,8.5-8.6,14.8
				c-0.2,6.3,2.3,11.5,7.3,15.7c-1.5,0.8-2.7,1.7-4,2.3c-1.4,0.6-3,1-4.5,1.5c-1.3,0.1-2.5,0.1-3.8,0.2c-0.2-0.1-0.5-0.2-0.7-0.2
				C227.1,70.2,221,65.2,219,58c-0.2-0.6-0.4-1.2-0.5-1.8c-0.1-1.3-0.1-2.5-0.2-3.8c0.1-0.2,0.2-0.4,0.2-0.6
				c0.4-5.5,1.9-10.7,4.2-15.7C225.1,31.2,227.9,26.5,233.7,24.8z M219.8,53.9c0.1,0,0.2,0.1,0.3,0.1c0,0.3,0.1,0.5,0.1,0.8
				c1.3,9.1,8.2,13.7,16.4,14.3c0.3,0,0.6-0.3,0.9-0.5c-0.2-0.2-0.5-0.5-0.7-0.5c-0.7-0.1-1.4-0.2-2.1-0.3
				c-7.8-1.3-12.8-6.6-13.5-13.9c-0.1-0.6-0.4-1.2-0.6-1.7C220.3,52.7,220,53.3,219.8,53.9z"/>
		</g>
	</g>
	<g>
		<g>
			<path class="st21" d="M128.9,89.1c0-24.5,0-48.5,0-72.5c8.6,0,17.1,0,25.9,0c0,25.1,0,49.7,0,74.9
				C146.1,90.7,137.6,89.9,128.9,89.1z"/>
			<path class="st21" d="M156.6,91.3c0-24.9,0-49.6,0-74.6c4.1-0.7,8.2-1.5,12.5-2.3c0.1,1,0.3,1.8,0.3,2.7c0,22.9,0,45.8,0.1,68.7
				c0,2.6-0.7,3.7-3.3,3.9C163.1,90.2,159.9,90.8,156.6,91.3z"/>
			<path class="st21" d="M161.7,7.1c-2.4,3.1-3.9,5.2-5.5,7.1c-0.5,0.6-1.5,1.1-2.2,1.1c-8.1,0.1-16.2,0-25.1,0
				c3.4-5.1,5.8-9.4,12.7-8.4C147.7,7.7,154.2,7.1,161.7,7.1z"/>
			<path class="st21" d="M162.3,0c0,2.1,0,3.8,0,5.8c-8.6,0-17.3,0-26.2,0c0-2,0-3.8,0-5.8C144.8,0,153.3,0,162.3,0z"/>
			<path class="st21" d="M168.2,13.4c-3.9,0.7-7.2,1.3-11.4,2c2.3-3,4.2-5.4,6.3-8.2C164.9,9.3,166.4,11.1,168.2,13.4z"/>
		</g>
	</g>
	<g>
		<g>
			<path class="st21" d="M389.7,52.1c-1.2-0.5-1.6-1.5-1.6-2.7c0-1.3,0.4-2.3,1.6-2.9c0.3-0.2,0.8-0.5,0.8-0.8c0.1-1.7,0-3.5,0-5.4
				c-21.9,3.2-43.5,6.3-65.1,9.5c0,0.5-0.1,0.8,0,1c0,1.3-0.3,2.6,1.1,3.6c0.9,0.7,0.5,1.8-0.5,2.6c-1.1,0.8-0.9,3.2,0.2,3.9
				c2,1.2,2,3.6-0.1,4.8c-0.3,0.2-0.8,0.5-0.8,0.7c-0.1,1.9,0,3.8,0,5.9c21.8-2.9,43.4-5.9,65.3-8.8c0-3.6,0-7.1,0-10.5
				C390.4,52.7,390,52.3,389.7,52.1z M335.7,60.2c-2-0.1-3.7-1.9-3.7-3.9c0-2.1,1.8-3.9,3.9-3.8c2.1,0,3.8,1.8,3.8,3.9
				C339.6,58.6,337.8,60.3,335.7,60.2z M345.7,66.8c-1.6,0-2.9-1.2-2.9-2.8c0-1.6,1.2-2.9,2.8-3c1.5,0,2.9,1.3,3,2.9
				C348.7,65.5,347.3,66.8,345.7,66.8z M355.2,57.6c-2.4,0-4.2-1.9-4.3-4.3c0-2.4,2-4.4,4.4-4.3c2.3,0,4.3,2,4.3,4.3
				C359.7,55.7,357.7,57.7,355.2,57.6z M364.3,63.5c-1.8,0-3.3-1.5-3.2-3.4c0-1.8,1.6-3.3,3.4-3.2c1.8,0.1,3.2,1.6,3.1,3.4
				C367.6,62.2,366.1,63.6,364.3,63.5z M372.5,52.1c-1.3,0-2.4-1.1-2.4-2.4c0-1.3,1.2-2.4,2.5-2.4c1.3,0,2.4,1.1,2.4,2.5
				C375,51.1,373.9,52.1,372.5,52.1z M380.3,60c-1.7,0-2.9-1.4-3-3c0-1.7,1.4-3.1,3.1-3.1c1.6,0,3,1.4,3,3
				C383.4,58.6,382,60,380.3,60z"/>
			<path class="st21" d="M327.7,48c20.2-3.1,40.3-6.2,60.5-9.3c2.7-0.4,2.9-0.9,1.5-3.3c-0.2-0.3-0.3-0.6-0.6-0.9
				c-2.7-2.7-5.3-5.7-8.2-8.1c-2.4-2-5.3-3.5-8.1-5.1c-1.2-0.7-2.4-0.5-3.7,0.3c-13.9,8.5-27.8,17-41.7,25.5
				c-0.4,0.3-0.8,0.5-1.2,0.8c0,0.1,0.1,0.2,0.1,0.2C326.7,48.1,327.2,48.1,327.7,48z"/>
		</g>
	</g>
</g>
<g id="hashtag">
</g>
<g id="レイヤー_6">
</g>
<g id="レイヤー_7">
</g>
<g id="_x23_">
</g>
<g id="tag_x5F_txt">
</g>
</svg>
