<?xml version="1.0" encoding="utf-8"?>
<!-- Generator: Adobe Illustrator 22.1.0, SVG Export Plug-In . SVG Version: 6.00 Build 0)  -->
<svg version="1.1" xmlns="http://www.w3.org/2000/svg" xmlns:xlink="http://www.w3.org/1999/xlink" x="0px" y="0px"
	 viewBox="0 0 506.6 74.5" style="enable-background:new 0 0 506.6 74.5;" xml:space="preserve">
<style type="text/css">
	.st0{fill:#FFFFFF;}
	.st1{fill:#3EBCC2;}
	.st2{fill:#595757;}
	.st3{fill:#69B32D;}
	.st4{fill:#5DAAD8;}
	.st5{fill:#EDA6C5;}
	.st6{fill:#0A9C91;}
	.st7{fill:none;stroke:#FFFFFF;stroke-width:0.4192;stroke-miterlimit:10;}
	.st8{opacity:0.1;}
	.st9{opacity:0.3;}
	.st10{fill:url(#SVGID_1_);}
	.st11{fill:#727272;}
	.st12{fill:#69B22D;}
	.st13{fill:#459543;}
	.st14{fill:#1B1B1B;}
	.st15{fill:#643231;}
	.st16{fill:none;stroke:#595757;stroke-width:0.8944;stroke-miterlimit:10;}
	.st17{fill:#A3A3A3;}
	.st18{fill:none;stroke:#A3A3A3;stroke-miterlimit:10;}
	.st19{fill:#E96447;}
	.st20{fill:#365FA8;}
	.st21{fill:#A961A0;}
	.st22{fill:#F1BC1B;}
	.st23{fill:#69B42D;}
	.st24{fill:#EDA6C5;stroke:#E5A2BF;stroke-width:1.5;stroke-linecap:round;stroke-linejoin:round;stroke-miterlimit:10;}
	.st25{fill:none;stroke:#FFFFFF;stroke-width:8;stroke-miterlimit:10;}
	.st26{fill:none;stroke:#FFFFFF;stroke-width:8;stroke-linecap:round;stroke-linejoin:round;stroke-miterlimit:10;}
	.st27{fill:#0A9D92;stroke:#11968C;stroke-width:1.1728;stroke-linejoin:round;stroke-miterlimit:10;}
</style>
<g id="レイヤー_2">
</g>
<g id="レイヤー_1">
	
		<rect x="431.6" y="39.2" transform="matrix(0.7071 0.7071 -0.7071 0.7071 161.154 -296.615)" class="st22" width="14" height="14"/>
	
		<rect x="460.6" y="39.2" transform="matrix(0.7071 0.7071 -0.7071 0.7071 169.6527 -317.1327)" class="st22" width="14" height="14"/>
	
		<rect x="489.6" y="39.2" transform="matrix(0.7071 0.7071 -0.7071 0.7071 178.1514 -337.6503)" class="st22" width="14" height="14"/>
	<rect x="2.9" y="39.2" transform="matrix(0.7071 0.7071 -0.7071 0.7071 35.593 6.5161)" class="st22" width="14" height="14"/>
	<rect x="31.9" y="39.2" transform="matrix(0.7071 0.7071 -0.7071 0.7071 44.0917 -14.0015)" class="st22" width="14" height="14"/>
	<rect x="60.9" y="39.2" transform="matrix(0.7071 0.7071 -0.7071 0.7071 52.5904 -34.5192)" class="st22" width="14" height="14"/>
</g>
<g id="レイヤー_3">
	<g>
		<g>
			<path class="st22" d="M376.1,36.9c-1.2-2.5-2.5-4.9-3.6-7.5c-1-2.3,0.1-4,2.6-4.4c0.4-0.1,1.1-0.4,1.1-0.7
				c0.1-1.6,0.1-3.3-0.2-4.9c-0.1-0.5-1-1.3-1.6-1.3c-2.9-0.1-5.9-0.1-9-0.1c0,0.7,0,1.2,0,1.7c0,5.1,0,10.3,0,15.4
				c0,0.7-0.1,1.4-0.3,2c-0.4,1.4-1.9,2.4-3.3,2.3c-1.5-0.1-2.8-1.1-3.1-2.6c-0.1-0.6-0.1-1.2-0.2-1.7c0-2.5,0-5-0.1-7.4
				c-0.1-1.7-1.3-2.8-3-2.7c-1.6,0-2.7,1.2-2.8,2.9c0,0.6,0,1.2,0,1.7c-0.1,1.8-1.4,3.1-3,3.1c-1.6,0-2.9-1.4-2.9-3.2
				c0-3.3,0-6.7,0-10c0-0.5,0-1,0-1.6c-5.2,0-10.2,0-15.2,0c-1.3,0-2.2,1-2.3,2.4c-0.1,1,0,2,0,3.1c0,1,0.3,1.5,1.4,1.6
				c2.2,0.3,3.3,2.1,2.5,4.1c-0.6,1.5-1.3,2.9-2,4.3c-3.4,6.4-5.4,13-4.1,20.3c1.9,10,7.3,16.8,17.3,19.7c1.7,0.5,3.4,0.7,5.1,1.1
				c2.2,0,4.5,0,6.7,0c0.5-0.1,0.9-0.3,1.4-0.3c8.7-1.3,15.3-5.6,19-13.8C380,52.5,379.6,44.6,376.1,36.9z M362,49.7
				c-1.7,0.1-3.2-1.4-3.2-3.1c0-1.7,1.3-3.1,3-3.1c1.8,0,3.2,1.3,3.2,3C365.1,48.2,363.6,49.7,362,49.7z"/>
			<path class="st22" d="M334.1,15.4c0.1,0.3,0.5,0.6,0.8,0.6c1.8,0.1,3.7,0,5.5,0c-0.1-5.1-6.2-13.9-10.7-15.7
				C329,0.1,328.3,0,327.5,0c-1.8,0-2.9,1.1-2.9,2.9c0,1.6,0.7,2.8,2,3.8C329.9,9,332.8,11.5,334.1,15.4z"/>
		</g>
	</g>
	<g>
		<g>
			<path class="st22" d="M277.6,36.9c-1.2-2.5-2.5-4.9-3.6-7.5c-1-2.3,0.1-4,2.6-4.4c0.4-0.1,1.1-0.4,1.1-0.7
				c0.1-1.6,0.1-3.3-0.2-4.9c-0.1-0.5-1-1.3-1.6-1.3c-2.9-0.1-5.9-0.1-9-0.1c0,0.7,0,1.2,0,1.7c0,5.1,0,10.3,0,15.4
				c0,0.7-0.1,1.4-0.3,2c-0.4,1.4-1.9,2.4-3.3,2.3c-1.5-0.1-2.8-1.1-3.1-2.6c-0.1-0.6-0.1-1.2-0.2-1.7c0-2.5,0-5-0.1-7.4
				c-0.1-1.7-1.3-2.8-3-2.7c-1.6,0-2.7,1.2-2.8,2.9c0,0.6,0,1.2,0,1.7c-0.1,1.8-1.4,3.1-3,3.1c-1.6,0-2.9-1.4-2.9-3.2
				c0-3.3,0-6.7,0-10c0-0.5,0-1,0-1.6c-5.2,0-10.2,0-15.2,0c-1.4,0-2.2,1-2.3,2.4c-0.1,1,0,2,0,3.1c0,1,0.3,1.5,1.4,1.6
				c2.2,0.3,3.3,2.1,2.5,4.1c-0.6,1.5-1.3,2.9-2,4.3c-3.4,6.4-5.4,13-4.1,20.3c1.9,10,7.3,16.8,17.3,19.7c1.7,0.5,3.4,0.7,5.1,1.1
				c2.2,0,4.5,0,6.7,0c0.5-0.1,0.9-0.3,1.4-0.3c8.7-1.3,15.3-5.6,19-13.8C281.5,52.5,281.1,44.6,277.6,36.9z M263.5,49.7
				c-1.7,0.1-3.2-1.4-3.2-3.1c0-1.7,1.3-3.1,3-3.1c1.8,0,3.2,1.3,3.2,3C266.6,48.2,265.1,49.7,263.5,49.7z"/>
			<path class="st22" d="M235.6,15.4c0.1,0.3,0.5,0.6,0.8,0.6c1.8,0.1,3.7,0,5.5,0c-0.1-5.1-6.2-13.9-10.7-15.7
				C230.5,0.1,229.8,0,229,0c-1.8,0-2.9,1.1-2.9,2.9c0,1.6,0.7,2.8,2,3.8C231.4,9,234.3,11.5,235.6,15.4z"/>
		</g>
	</g>
	<g>
		<g>
			<path class="st22" d="M179.1,36.9c-1.2-2.5-2.5-4.9-3.6-7.5c-1-2.3,0.1-4,2.6-4.4c0.4-0.1,1.1-0.4,1.1-0.7
				c0.1-1.6,0.1-3.3-0.2-4.9c-0.1-0.5-1-1.3-1.6-1.3c-2.9-0.1-5.9-0.1-9-0.1c0,0.7,0,1.2,0,1.7c0,5.1,0,10.3,0,15.4
				c0,0.7-0.1,1.4-0.3,2c-0.4,1.4-1.9,2.4-3.3,2.3c-1.5-0.1-2.8-1.1-3.1-2.6c-0.1-0.6-0.1-1.2-0.2-1.7c0-2.5,0-5-0.1-7.4
				c-0.1-1.7-1.3-2.8-3-2.7c-1.6,0-2.7,1.2-2.8,2.9c0,0.6,0,1.2,0,1.7c-0.1,1.8-1.4,3.1-3,3.1c-1.6,0-2.9-1.4-2.9-3.2
				c0-3.3,0-6.7,0-10c0-0.5,0-1,0-1.6c-5.2,0-10.2,0-15.2,0c-1.3,0-2.2,1-2.3,2.4c-0.1,1,0,2,0,3.1c0,1,0.3,1.5,1.4,1.6
				c2.2,0.3,3.3,2.1,2.5,4.1c-0.6,1.5-1.3,2.9-2,4.3c-3.4,6.4-5.4,13-4.1,20.3c1.9,10,7.3,16.8,17.3,19.7c1.7,0.5,3.4,0.7,5.1,1.1
				c2.2,0,4.5,0,6.7,0c0.5-0.1,0.9-0.3,1.4-0.3c8.7-1.3,15.3-5.6,19-13.8C183,52.5,182.6,44.6,179.1,36.9z M165,49.7
				c-1.7,0.1-3.2-1.4-3.2-3.1c0-1.7,1.3-3.1,3-3.1c1.8,0,3.2,1.3,3.2,3C168.1,48.2,166.6,49.7,165,49.7z"/>
			<path class="st22" d="M137.1,15.4c0.1,0.3,0.5,0.6,0.8,0.6c1.8,0.1,3.7,0,5.5,0c-0.1-5.1-6.2-13.9-10.7-15.7
				C132,0.1,131.3,0,130.5,0c-1.8,0-2.9,1.1-2.9,2.9c0,1.6,0.7,2.8,2,3.8C132.9,9,135.8,11.5,137.1,15.4z"/>
		</g>
	</g>
</g>
<g id="hashtag">
</g>
<g id="レイヤー_6">
</g>
<g id="レイヤー_7">
</g>
<g id="_x23_">
</g>
<g id="tag_x5F_txt">
</g>
</svg>
