<?xml version="1.0" encoding="utf-8"?>
<!-- Generator: Adobe Illustrator 22.1.0, SVG Export Plug-In . SVG Version: 6.00 Build 0)  -->
<svg version="1.1" xmlns="http://www.w3.org/2000/svg" xmlns:xlink="http://www.w3.org/1999/xlink" x="0px" y="0px"
	 viewBox="0 0 231 200" style="enable-background:new 0 0 231 200;" xml:space="preserve">
<style type="text/css">
	.st0{fill:#FFFFFF;}
	.st1{fill:#3EBCC2;}
	.st2{fill:#595757;}
	.st3{fill:#69B32D;}
	.st4{fill:#5DAAD8;}
	.st5{fill:#EDA6C5;}
	.st6{fill:#0A9C91;}
	.st7{fill:none;stroke:#FFFFFF;stroke-width:0.4192;stroke-miterlimit:10;}
	.st8{opacity:0.1;}
	.st9{opacity:0.3;}
	.st10{fill:url(#SVGID_1_);}
	.st11{fill:#727272;}
	.st12{fill:#69B22D;}
	.st13{fill:#459543;}
	.st14{fill:#1B1B1B;}
	.st15{fill:#643231;}
	.st16{fill:none;stroke:#595757;stroke-width:0.8944;stroke-miterlimit:10;}
	.st17{fill:#A3A3A3;}
	.st18{fill:none;stroke:#A3A3A3;stroke-miterlimit:10;}
	.st19{fill:#E96447;}
	.st20{fill:#365FA8;}
	.st21{fill:#A961A0;}
	.st22{fill:#F1BC1B;}
	.st23{fill:#69B42D;}
	.st24{fill:#EDA6C5;stroke:#E5A2BF;stroke-width:1.5;stroke-linecap:round;stroke-linejoin:round;stroke-miterlimit:10;}
	.st25{fill:none;stroke:#FFFFFF;stroke-width:8;stroke-miterlimit:10;}
	.st26{fill:none;stroke:#FFFFFF;stroke-width:8;stroke-linecap:round;stroke-linejoin:round;stroke-miterlimit:10;}
	.st27{fill:#0A9D92;stroke:#11968C;stroke-width:1.1728;stroke-linejoin:round;stroke-miterlimit:10;}
</style>
<g id="レイヤー_2">
</g>
<g id="レイヤー_1">
	<g>
		<g>
			<path class="st2" d="M0,122.5c0-0.3,0.2-0.5,0.5-0.5h5.6c0.3,0,0.5,0.2,0.5,0.5v33.2c0,0.3-0.2,0.5-0.5,0.5H0.5
				c-0.3,0-0.5-0.2-0.5-0.5V122.5z"/>
			<path class="st2" d="M12.4,122.5c0-0.3,0.2-0.5,0.5-0.5h6.3c0.4,0,0.6,0.2,0.7,0.5l5.7,21.5h0.3v-21.5c0-0.3,0.2-0.5,0.5-0.5h4.8
				c0.3,0,0.5,0.2,0.5,0.5v33.2c0,0.3-0.2,0.5-0.5,0.5h-6c-0.4,0-0.6-0.2-0.7-0.5l-5.9-21.5h-0.3v21.5c0,0.3-0.2,0.5-0.5,0.5h-4.8
				c-0.3,0-0.5-0.2-0.5-0.5V122.5z"/>
			<path class="st2" d="M37.1,139.1c0-8.8,0.2-10.2,0.7-11.8c1.3-3.7,4.2-5.7,8.8-5.7c5.5,0,8.7,3,9.2,8.5c0.1,0.3-0.1,0.6-0.4,0.6
				l-5.3,0.9c-0.3,0-0.5-0.1-0.6-0.5c-0.2-2.5-1.2-3.6-2.9-3.6c-1.2,0-2.2,0.7-2.5,1.6c-0.3,0.8-0.3,1.2-0.3,10
				c0,8.7,0.1,9.2,0.3,10c0.3,1,1.4,1.7,2.6,1.7s2.3-0.7,2.6-1.7c0.2-0.7,0.3-1.2,0.3-6.2c0-0.2-0.1-0.3-0.3-0.3h-2.2
				c-0.3,0-0.5-0.2-0.5-0.5v-4.4c0-0.3,0.2-0.5,0.5-0.5h8.3c0.3,0,0.5,0.2,0.5,0.5v1.5c0,8.8-0.2,10.2-0.7,11.8
				c-1.3,3.8-4.2,5.8-8.7,5.8c-4.6,0-7.5-2-8.8-5.7C37.3,149.3,37.1,147.9,37.1,139.1z"/>
			<path class="st2" d="M74.5,156.2c-0.3,0-0.5-0.1-0.6-0.4l-3.9-13h-1.9c-0.2,0-0.3,0.1-0.3,0.3v12.6c0,0.3-0.2,0.5-0.5,0.5h-5.6
				c-0.3,0-0.5-0.2-0.5-0.5v-33.2c0-0.3,0.2-0.5,0.5-0.5h8.1c6.1,0,10,2.9,10,10.5c0,4.3-1.5,7.1-3.8,8.7l4.7,14.5
				c0.1,0.3,0,0.5-0.3,0.5H74.5z M73.3,132.5c0-3.6-1.1-4.7-3.7-4.7h-1.5c-0.2,0-0.3,0.1-0.3,0.3v8.7c0,0.2,0.1,0.3,0.3,0.3h1.5
				C72.2,137.1,73.3,136.1,73.3,132.5z"/>
			<path class="st2" d="M85.7,122.5c0-0.3,0.2-0.5,0.5-0.5h14.9c0.3,0,0.5,0.2,0.5,0.5v4.9c0,0.3-0.2,0.5-0.5,0.5h-8.5
				c-0.2,0-0.3,0.1-0.3,0.3v7.4c0,0.2,0.1,0.3,0.3,0.3h7.4c0.3,0,0.5,0.2,0.5,0.5v4.9c0,0.3-0.2,0.5-0.5,0.5h-7.4
				c-0.2,0-0.3,0.1-0.3,0.3v7.7c0,0.2,0.1,0.3,0.3,0.3h8.5c0.3,0,0.5,0.2,0.5,0.5v4.9c0,0.3-0.2,0.5-0.5,0.5H86.2
				c-0.3,0-0.5-0.2-0.5-0.5V122.5z"/>
			<path class="st2" d="M106.8,122.5c0-0.3,0.2-0.5,0.5-0.5h8.6c4.7,0,7.5,1.8,8.7,5.7c0.6,1.9,0.9,4.2,0.9,11.4
				c0,7.2-0.3,9.5-0.9,11.4c-1.3,3.9-4,5.7-8.7,5.7h-8.6c-0.3,0-0.5-0.2-0.5-0.5V122.5z M113.7,150.3h1.6c1.7,0,2.6-0.6,3.1-2.1
				c0.4-1.1,0.6-2.5,0.6-9s-0.2-8-0.6-9c-0.5-1.5-1.4-2.1-3.1-2.1h-1.6c-0.2,0-0.3,0.1-0.3,0.3v21.7
				C113.4,150.2,113.5,150.3,113.7,150.3z"/>
			<path class="st2" d="M131,122.5c0-0.3,0.2-0.5,0.5-0.5h5.6c0.3,0,0.5,0.2,0.5,0.5v33.2c0,0.3-0.2,0.5-0.5,0.5h-5.6
				c-0.3,0-0.5-0.2-0.5-0.5V122.5z"/>
			<path class="st2" d="M143.4,122.5c0-0.3,0.2-0.5,0.5-0.5h14.9c0.3,0,0.5,0.2,0.5,0.5v4.9c0,0.3-0.2,0.5-0.5,0.5h-8.5
				c-0.2,0-0.3,0.1-0.3,0.3v7.4c0,0.2,0.1,0.3,0.3,0.3h7.4c0.3,0,0.5,0.2,0.5,0.5v4.9c0,0.3-0.2,0.5-0.5,0.5h-7.4
				c-0.2,0-0.3,0.1-0.3,0.3v7.7c0,0.2,0.1,0.3,0.3,0.3h8.5c0.3,0,0.5,0.2,0.5,0.5v4.9c0,0.3-0.2,0.5-0.5,0.5h-14.9
				c-0.3,0-0.5-0.2-0.5-0.5V122.5z"/>
			<path class="st2" d="M164.5,122.5c0-0.3,0.2-0.5,0.5-0.5h6.3c0.4,0,0.6,0.2,0.7,0.5l5.7,21.5h0.3v-21.5c0-0.3,0.2-0.5,0.5-0.5
				h4.8c0.3,0,0.5,0.2,0.5,0.5v33.2c0,0.3-0.2,0.5-0.5,0.5h-6c-0.4,0-0.6-0.2-0.7-0.5l-5.9-21.5h-0.3v21.5c0,0.3-0.2,0.5-0.5,0.5
				H165c-0.3,0-0.5-0.2-0.5-0.5V122.5z"/>
			<path class="st2" d="M195.2,156.2c-0.3,0-0.5-0.2-0.5-0.5v-27.5c0-0.2-0.1-0.3-0.3-0.3H189c-0.3,0-0.5-0.2-0.5-0.5v-4.9
				c0-0.3,0.2-0.5,0.5-0.5H207c0.3,0,0.5,0.2,0.5,0.5v4.9c0,0.3-0.2,0.5-0.5,0.5h-5.4c-0.2,0-0.3,0.1-0.3,0.3v27.5
				c0,0.3-0.2,0.5-0.5,0.5H195.2z"/>
			<path class="st2" d="M220.8,156.6c-6.2,0-9.2-3.3-9.3-9.2c0-0.3,0.1-0.5,0.4-0.6l5.4-0.9c0.4-0.1,0.6,0.1,0.6,0.4
				c0.1,3.2,1,4.4,3,4.4c1.9,0,2.7-1,2.7-4.1c0-3-0.6-4.1-3.2-5.1l-2.1-0.8c-4.8-1.9-6.5-4.4-6.5-9.9c0-6.2,3-9.5,9-9.5
				c6,0,8.8,3.1,9.1,8.5c0,0.3-0.2,0.5-0.5,0.6l-5.1,0.8c-0.3,0.1-0.6-0.1-0.6-0.4c-0.1-2.5-0.9-3.7-2.7-3.7c-1.8,0-2.6,1.1-2.6,3.4
				c0,2.6,0.6,3.4,3.2,4.4l2.1,0.8c4.7,1.8,6.5,4.3,6.5,10.1C230.2,153,227.6,156.6,220.8,156.6z"/>
			<path class="st2" d="M18.4,164.6c0-0.3,0.2-0.5,0.5-0.5h14.9c0.3,0,0.5,0.2,0.5,0.5v4.9c0,0.3-0.2,0.5-0.5,0.5h-8.5
				c-0.2,0-0.3,0.1-0.3,0.3v7.4c0,0.2,0.1,0.3,0.3,0.3h7.4c0.3,0,0.5,0.2,0.5,0.5v4.9c0,0.3-0.2,0.5-0.5,0.5h-7.4
				c-0.2,0-0.3,0.1-0.3,0.3v7.7c0,0.2,0.1,0.3,0.3,0.3h8.5c0.3,0,0.5,0.2,0.5,0.5v4.9c0,0.3-0.2,0.5-0.5,0.5H18.9
				c-0.3,0-0.5-0.2-0.5-0.5V164.6z"/>
			<path class="st2" d="M39.4,164.6c0-0.3,0.2-0.5,0.5-0.5h6.3c0.4,0,0.6,0.2,0.7,0.5l5.7,21.5h0.3v-21.5c0-0.3,0.2-0.5,0.5-0.5h4.8
				c0.3,0,0.5,0.2,0.5,0.5v33.2c0,0.3-0.2,0.5-0.5,0.5h-6c-0.4,0-0.6-0.2-0.7-0.5l-5.9-21.5h-0.3v21.5c0,0.3-0.2,0.5-0.5,0.5h-4.8
				c-0.3,0-0.5-0.2-0.5-0.5V164.6z"/>
			<path class="st2" d="M64.1,181.2c0-8.8,0.2-10.2,0.7-11.8c1.3-3.7,4.2-5.7,8.8-5.7c5.5,0,8.7,3,9.2,8.5c0.1,0.3-0.1,0.6-0.4,0.6
				l-5.3,0.9c-0.3,0-0.5-0.1-0.6-0.5c-0.2-2.5-1.2-3.6-2.9-3.6c-1.2,0-2.2,0.7-2.5,1.6c-0.3,0.8-0.3,1.2-0.3,10
				c0,8.7,0.1,9.2,0.3,10c0.3,1,1.4,1.7,2.6,1.7s2.3-0.7,2.6-1.7c0.2-0.7,0.3-1.2,0.3-6.2c0-0.2-0.1-0.3-0.3-0.3h-2.2
				c-0.3,0-0.5-0.2-0.5-0.5v-4.4c0-0.3,0.2-0.5,0.5-0.5h8.3c0.3,0,0.5,0.2,0.5,0.5v1.5c0,8.8-0.2,10.2-0.7,11.8
				c-1.3,3.8-4.2,5.8-8.7,5.8c-4.6,0-7.5-2-8.8-5.7C64.3,191.4,64.1,190,64.1,181.2z"/>
			<path class="st2" d="M146.5,195.5l3.6-3.5c0.3-0.2,0.5-0.2,0.8,0.1c0.5,0.5,1.2,0.8,1.9,0.8c1.8,0,2.7-1,2.7-3.3v-24.9
				c0-0.3,0.2-0.5,0.5-0.5h5.6c0.3,0,0.5,0.2,0.5,0.5v24.3c0,6.9-3.7,9.9-9.4,9.9c-2.6,0-5-0.9-6.3-2.5
				C146.2,195.9,146.2,195.7,146.5,195.5z"/>
			<path class="st2" d="M168.4,198.3c-0.3,0-0.5-0.2-0.5-0.5v-33.2c0-0.3,0.2-0.5,0.5-0.5h8c6.2,0,10.1,3,10.1,10.8
				c0,7.7-4,10.8-10.1,10.8h-1.7c-0.2,0-0.3,0.1-0.3,0.3v11.9c0,0.3-0.2,0.5-0.5,0.5H168.4z M179.9,174.8c0-3.9-1.1-5-3.7-5h-1.5
				c-0.2,0-0.3,0.1-0.3,0.3v9.4c0,0.2,0.1,0.3,0.3,0.3h1.5C178.8,179.8,179.9,178.7,179.9,174.8z"/>
			<path class="st2" d="M191.6,164.6c0-0.3,0.2-0.5,0.5-0.5h6.3c0.4,0,0.6,0.2,0.7,0.5l5.7,21.5h0.3v-21.5c0-0.3,0.2-0.5,0.5-0.5
				h4.8c0.3,0,0.5,0.2,0.5,0.5v33.2c0,0.3-0.2,0.5-0.5,0.5h-6c-0.4,0-0.6-0.2-0.7-0.5l-5.9-21.5h-0.3v21.5c0,0.3-0.2,0.5-0.5,0.5
				h-4.8c-0.3,0-0.5-0.2-0.5-0.5V164.6z"/>
		</g>
	</g>
	<circle class="st6" cx="115.1" cy="52.4" r="52.4"/>
	<path class="st2" d="M123.5,181.6l0.7-0.9c1-1.4,2.4-2.9,3.8-4.2h-25.5v-4.3H128c-1.4-1.3-2.8-2.8-3.8-4.2l-0.7-0.9l3.7-2.2
		l0.6,0.7c2.2,2.8,5.5,5.8,8.7,7.9l1.4,0.9l-1.4,0.9c-3.2,2-6.5,5.1-8.7,7.9l-0.6,0.7L123.5,181.6z"/>
	<path class="st2" d="M103.1,198.4c-2.2-2.8-5.5-5.8-8.7-7.9l-1.4-0.9l1.4-0.9c3.2-2,6.5-5,8.7-7.9l0.6-0.7l3.7,2.2l-0.7,0.9
		c-1,1.4-2.4,2.9-3.8,4.2h25.5v4.3h-25.5c1.4,1.3,2.8,2.8,3.8,4.2l0.7,0.9l-3.7,2.2L103.1,198.4z"/>
	<path class="st0" d="M159,62.1c-0.7-0.3-0.9-0.8-0.9-1.4c0-0.7,0.2-1.2,0.8-1.6c0.2-0.1,0.4-0.3,0.4-0.4c0-0.9,0-1.9,0-2.9
		c-11.8,1.7-23.4,3.4-35.1,5.1c0,0.3,0,0.4,0,0.5c0,0.7-0.2,1.4,0.6,2c0.5,0.4,0.3,1-0.3,1.4c-0.6,0.4-0.5,1.7,0.1,2.1
		c1.1,0.6,1.1,1.9,0,2.6c-0.2,0.1-0.4,0.3-0.4,0.4c0,1,0,2.1,0,3.2c11.8-1.6,23.4-3.2,35.2-4.7c0-1.9,0-3.8,0-5.7
		C159.4,62.4,159.2,62.2,159,62.1z M129.9,66.5c-1.1,0-2-1-2-2.1c0-1.1,1-2.1,2.1-2.1c1.2,0,2.1,1,2,2.1
		C132,65.6,131,66.5,129.9,66.5z M135.3,70c-0.9,0-1.6-0.6-1.6-1.5c0-0.9,0.7-1.6,1.5-1.6c0.8,0,1.6,0.7,1.6,1.5
		C136.9,69.3,136.2,70,135.3,70z M140.4,65.1c-1.3,0-2.3-1-2.3-2.3c0-1.3,1.1-2.4,2.4-2.3c1.3,0,2.3,1.1,2.3,2.3
		C142.8,64,141.7,65.1,140.4,65.1z M145.3,68.2c-1,0-1.8-0.8-1.7-1.8c0-1,0.8-1.8,1.8-1.7c1,0,1.7,0.9,1.7,1.9
		C147.1,67.5,146.3,68.2,145.3,68.2z M149.7,62.1c-0.7,0-1.3-0.6-1.3-1.3c0-0.7,0.6-1.3,1.3-1.3c0.7,0,1.3,0.6,1.3,1.3
		C151.1,61.5,150.5,62.1,149.7,62.1z M153.9,66.3c-0.9,0-1.6-0.7-1.6-1.6c0-0.9,0.7-1.7,1.7-1.7c0.9,0,1.6,0.8,1.6,1.6
		C155.6,65.6,154.8,66.3,153.9,66.3z"/>
	<path class="st0" d="M125.6,59.9c10.9-1.7,21.7-3.4,32.6-5c1.4-0.2,1.6-0.5,0.8-1.8c-0.1-0.2-0.2-0.3-0.3-0.5
		c-1.5-1.5-2.8-3.1-4.4-4.4c-1.3-1.1-2.9-1.9-4.3-2.8c-0.6-0.4-1.3-0.3-2,0.1c-7.5,4.6-15,9.2-22.5,13.8c-0.2,0.1-0.4,0.3-0.7,0.4
		c0,0,0,0.1,0,0.1C125.1,59.9,125.3,59.9,125.6,59.9z"/>
	<path class="st0" d="M119.5,90.8c-1.1-3.5-1.9-5.9-2.9-8.8c-9.5,5-18.6,4.5-27.6-1.7c3-6.3,6.1-12.5,9.4-19.6
		c8.9,3,15.3,9.4,19.3,18.7c2.5-0.7,4.9-1.3,8.3-2.2C123.8,81.8,121.9,85.7,119.5,90.8z"/>
	<path class="st0" d="M94.3,58.9c-5.3,1.3-10.3,2.6-14.6,3.6c-1.9,8.1,5.9,3.9,7.6,8c-2.2,0.1-3.9,0.1-6.7,0.2
		c2.2,2.8,3.8,5,5.5,7.2C91.1,73.5,94.1,66.8,94.3,58.9z M87,66c-1-0.5-1.4-1.7-0.9-2.7s1.7-1.4,2.7-0.9c1,0.5,1.4,1.7,0.9,2.7
		C89.2,66,88,66.4,87,66z"/>
	<g id="_x34_ydgeI_1_">
		<g>
			<path class="st0" d="M103.1,20c0-1.3,0-2.4,0-3.5c0.1-2.3,1.6-3.9,3.7-3.9c2.2-0.1,3.8,1.4,3.9,3.7c0.1,1.2,0,2.4,0,3.6
				c2.4,0,4.6,0,7.1,0c0-1.2-0.1-2.3,0-3.5c0.1-2.3,1.7-3.8,3.8-3.8c2.2,0,3.7,1.6,3.8,4c0,1.1,0,2.1,0,3.4c2.1,0,4.1,0,6.1,0
				c1.9,0,2.5,0.8,1.9,2.6c-0.8,2.8-2.3,5.1-5,6.5c-0.9,0.4-1.1,1-1.1,1.9c0,4.7,0,9.4,0,14.1c0,4.7-2,7.4-6.4,9
				c-0.4,0.2-0.9,0.7-1.1,1.1c-0.9,2.8-2.9,4.5-5.7,4.5c-2.6,0-4.6-1.6-5.6-4.4c-0.2-0.5-0.8-1.1-1.3-1.3c-3.9-1.2-6.3-4.3-6.3-8.5
				c0-4.9,0-9.7,0-14.6c0-0.9-0.2-1.5-1.1-1.9c-2.6-1.4-4.2-3.7-4.9-6.5c-0.5-1.8,0-2.5,1.8-2.5C98.9,20,100.9,20,103.1,20z
				 M98.4,23c0.8,2,2.1,3.3,3.9,3.9c1.5,0.5,1.8,1.4,1.8,2.8c-0.1,5.4,0,10.7,0,16.1c0,3.2,2.3,5.6,5.5,5.7c3.2,0.1,6.5,0.1,9.7,0
				c2.8-0.1,5.1-2.2,5.3-5c0.1-1,0-2,0-3c-9.3-3.8-12.3-11.1-12.1-20.5C107.8,23,103.2,23,98.4,23z M111.5,54.4
				c0.4,1.7,1.5,2.5,2.9,2.4c1.4-0.1,2.4-0.8,2.6-2.4C115.2,54.4,113.5,54.4,111.5,54.4z M106,19.9c0.7,0,1.2,0,1.9,0
				c0-1.1,0.1-2.2,0-3.3c0-0.4-0.6-0.7-0.9-1.1c-0.3,0.4-0.9,0.7-0.9,1.1C105.9,17.7,106,18.8,106,19.9z M122.6,20
				c0-1.2,0.1-2.3,0-3.4c0-0.4-0.6-0.7-0.9-1c-0.3,0.3-0.8,0.7-0.8,1c-0.1,1.1,0,2.2,0,3.4C121.5,20,121.9,20,122.6,20z"/>
			<path class="st6" d="M98.4,23c4.9,0,9.4,0,14.1,0c-0.2,9.3,2.8,16.7,12.1,20.5c0,1,0.1,2,0,3c-0.2,2.7-2.5,4.9-5.3,5
				c-3.2,0.1-6.5,0.1-9.7,0c-3.1-0.1-5.4-2.5-5.5-5.7c0-5.4,0-10.7,0-16.1c0-1.4-0.3-2.3-1.8-2.8C100.5,26.4,99.2,25,98.4,23z"/>
			<path class="st6" d="M111.5,54.4c1.9,0,3.7,0,5.6,0c-0.2,1.6-1.2,2.4-2.6,2.4C113,56.9,112,56.1,111.5,54.4z"/>
			<path class="st6" d="M106,19.9c0-1.2-0.1-2.2,0-3.3c0-0.4,0.6-0.7,0.9-1.1c0.3,0.4,0.8,0.7,0.9,1.1c0.1,1,0,2.1,0,3.3
				C107.3,19.9,106.7,19.9,106,19.9z"/>
			<path class="st6" d="M122.6,20c-0.7,0-1.1,0-1.8,0c0-1.2-0.1-2.3,0-3.4c0-0.4,0.5-0.7,0.8-1c0.3,0.3,0.9,0.6,0.9,1
				C122.7,17.7,122.6,18.8,122.6,20z"/>
		</g>
	</g>
	<circle class="st6" cx="120.5" cy="35.2" r="1.6"/>
	<circle class="st0" cx="108.1" cy="35.2" r="1.6"/>
</g>
<g id="レイヤー_3">
</g>
<g id="hashtag">
</g>
<g id="レイヤー_6">
</g>
<g id="レイヤー_7">
</g>
<g id="_x23_">
</g>
<g id="tag_x5F_txt">
</g>
</svg>
