<?xml version="1.0" encoding="utf-8"?>
<!-- Generator: Adobe Illustrator 22.1.0, SVG Export Plug-In . SVG Version: 6.00 Build 0)  -->
<svg version="1.1" xmlns="http://www.w3.org/2000/svg" xmlns:xlink="http://www.w3.org/1999/xlink" x="0px" y="0px"
	 viewBox="0 0 228 47.1" style="enable-background:new 0 0 228 47.1;" xml:space="preserve">
<style type="text/css">
	.st0{fill:#FFFFFF;}
	.st1{fill:#3EBCC2;}
	.st2{fill:#595757;}
	.st3{fill:#69B32D;}
	.st4{fill:#5DAAD8;}
	.st5{fill:#EDA6C5;}
	.st6{fill:#0A9C91;}
	.st7{fill:none;stroke:#FFFFFF;stroke-width:0.4192;stroke-miterlimit:10;}
	.st8{opacity:0.1;}
	.st9{opacity:0.3;}
	.st10{fill:url(#SVGID_1_);}
	.st11{fill:#727272;}
	.st12{fill:#69B22D;}
	.st13{fill:#459543;}
	.st14{fill:#1B1B1B;}
	.st15{fill:#643231;}
	.st16{fill:none;stroke:#595757;stroke-width:0.8944;stroke-miterlimit:10;}
	.st17{fill:#A3A3A3;}
	.st18{fill:none;stroke:#A3A3A3;stroke-miterlimit:10;}
	.st19{fill:#E96447;}
	.st20{fill:#365FA8;}
	.st21{fill:#A961A0;}
	.st22{fill:#F1BC1B;}
	.st23{fill:#69B42D;}
	.st24{fill:#EDA6C5;stroke:#E5A2BF;stroke-width:1.5;stroke-linecap:round;stroke-linejoin:round;stroke-miterlimit:10;}
	.st25{fill:none;stroke:#FFFFFF;stroke-width:8;stroke-miterlimit:10;}
	.st26{fill:none;stroke:#FFFFFF;stroke-width:8;stroke-linecap:round;stroke-linejoin:round;stroke-miterlimit:10;}
	.st27{fill:#0A9D92;stroke:#11968C;stroke-width:1.1728;stroke-linejoin:round;stroke-miterlimit:10;}
</style>
<g id="レイヤー_2">
</g>
<g id="レイヤー_1">
</g>
<g id="レイヤー_3">
	<g>
		<path class="st27" d="M0.6,31.7h4.1v11.3h9V0.7h4.1v42.6c0,1.9-1.3,3.2-3.2,3.2H3.8c-1.9,0-3.2-1.3-3.2-3.2V31.7z"/>
		<path class="st27" d="M29.3,46.5v-0.1l8.2-45.8h4l8.1,45.8v0.1h-4l-1.6-10.2h-9.1l-1.6,10.2H29.3z M35.3,32.7h8l-4-24.8L35.3,32.7
			z"/>
		<path class="st27" d="M61.1,46.5V0.7h14.9c1.9,0,3.3,1.3,3.3,3.2v21.1c0,1.9-1.4,3.3-3.3,3.3H65.1v18.2H61.1z M65.1,24.7h10V4.3
			h-10V24.7z"/>
		<path class="st27" d="M89.9,46.5v-0.1L98,0.6h4l8.1,45.8v0.1h-4l-1.6-10.2h-9.1l-1.6,10.2H89.9z M95.9,32.7h8l-4-24.8L95.9,32.7z"
			/>
		<path class="st27" d="M121.7,46.5V0.7h3.1l12,33.1V0.7h3.8v45.8h-2.8l-12.2-33.7v33.7H121.7z"/>
		<path class="st27" d="M153.9,46.5V0.7h14.9v3.6H158v17.1h9.8v3.7H158v17.9h11v3.6H153.9z"/>
		<path class="st27" d="M181.1,31.7h4.1v11.3h9.9V32l-12.7-15.3c-1-1.1-1.3-1.9-1.3-3.5V3.9c0-1.9,1.4-3.2,3.3-3.2h11.5
			c1.9,0,3.2,1.3,3.2,3.2v10.7h-4.1V4.3h-9.9V14l12.7,15.3c1,1.1,1.3,1.9,1.3,3.4v10.6c0,1.9-1.3,3.2-3.2,3.2h-11.5
			c-1.9,0-3.3-1.3-3.3-3.2V31.7z"/>
		<path class="st27" d="M212.4,46.5V0.7h14.9v3.6h-10.8v17.1h9.8v3.7h-9.8v17.9h11v3.6H212.4z"/>
	</g>
</g>
<g id="hashtag">
</g>
<g id="レイヤー_6">
</g>
<g id="レイヤー_7">
</g>
<g id="_x23_">
</g>
<g id="tag_x5F_txt">
</g>
</svg>
