<?xml version="1.0" encoding="utf-8"?>
<!-- Generator: Adobe Illustrator 22.1.0, SVG Export Plug-In . SVG Version: 6.00 Build 0)  -->
<svg version="1.1" xmlns="http://www.w3.org/2000/svg" xmlns:xlink="http://www.w3.org/1999/xlink" x="0px" y="0px"
	 viewBox="0 0 506.6 72.8" style="enable-background:new 0 0 506.6 72.8;" xml:space="preserve">
<style type="text/css">
	.st0{fill:#FFFFFF;}
	.st1{fill:#3EBCC2;}
	.st2{fill:#595757;}
	.st3{fill:#69B32D;}
	.st4{fill:#5DAAD8;}
	.st5{fill:#EDA6C5;}
	.st6{fill:#0A9C91;}
	.st7{fill:none;stroke:#FFFFFF;stroke-width:0.4192;stroke-miterlimit:10;}
	.st8{opacity:0.1;}
	.st9{opacity:0.3;}
	.st10{fill:url(#SVGID_1_);}
	.st11{fill:#727272;}
	.st12{fill:#69B22D;}
	.st13{fill:#459543;}
	.st14{fill:#1B1B1B;}
	.st15{fill:#643231;}
	.st16{fill:none;stroke:#595757;stroke-width:0.8944;stroke-miterlimit:10;}
	.st17{fill:#A3A3A3;}
	.st18{fill:none;stroke:#A3A3A3;stroke-miterlimit:10;}
	.st19{fill:#E96447;}
	.st20{fill:#365FA8;}
	.st21{fill:#A961A0;}
	.st22{fill:#F1BC1B;}
	.st23{fill:#69B42D;}
	.st24{fill:#EDA6C5;stroke:#E5A2BF;stroke-width:1.5;stroke-linecap:round;stroke-linejoin:round;stroke-miterlimit:10;}
	.st25{fill:none;stroke:#FFFFFF;stroke-width:8;stroke-miterlimit:10;}
	.st26{fill:none;stroke:#FFFFFF;stroke-width:8;stroke-linecap:round;stroke-linejoin:round;stroke-miterlimit:10;}
	.st27{fill:#0A9D92;stroke:#11968C;stroke-width:1.1728;stroke-linejoin:round;stroke-miterlimit:10;}
</style>
<g id="レイヤー_2">
</g>
<g id="レイヤー_1">
	
		<rect x="431.6" y="35.2" transform="matrix(0.7071 0.7071 -0.7071 0.7071 158.3221 -297.788)" class="st19" width="14" height="14"/>
	
		<rect x="460.6" y="35.2" transform="matrix(0.7071 0.7071 -0.7071 0.7071 166.8208 -318.3057)" class="st19" width="14" height="14"/>
	
		<rect x="489.6" y="35.2" transform="matrix(0.7071 0.7071 -0.7071 0.7071 175.3195 -338.8234)" class="st19" width="14" height="14"/>
	<rect x="2.9" y="35.2" transform="matrix(0.7071 0.7071 -0.7071 0.7071 32.7611 5.3431)" class="st19" width="14" height="14"/>
	<rect x="31.9" y="35.2" transform="matrix(0.7071 0.7071 -0.7071 0.7071 41.2598 -15.1746)" class="st19" width="14" height="14"/>
	<rect x="60.9" y="35.2" transform="matrix(0.7071 0.7071 -0.7071 0.7071 49.7585 -35.6922)" class="st19" width="14" height="14"/>
</g>
<g id="レイヤー_3">
	<g>
		<path class="st19" d="M175.3,11.4c-3-0.1-6.1,0-9.3,0c0-1.9,0-3.6,0-5.3c-0.1-3.7-2.4-6.1-5.8-6.2c-3.3,0-5.6,2.3-5.8,5.9
			c-0.1,1.8,0,3.6,0,5.4c-3.9,0-7.3,0-10.9,0c0-1.9,0.1-3.8,0-5.6c-0.2-3.5-2.7-5.8-6-5.7c-3.3,0.1-5.6,2.5-5.7,6.1
			c0,1.7,0,3.3,0,5.3c-3.4,0-6.5-0.1-9.5,0c-2.8,0.1-3.5,1.1-2.8,3.9c1.2,4.4,3.5,7.9,7.6,10.1c1.3,0.7,1.6,1.6,1.6,3
			c0,7.5-0.1,15,0,22.6c0.1,6.5,3.6,11.2,9.7,13.1c0.8,0.3,1.7,1.2,2,2c1.5,4.2,4.6,6.7,8.6,6.7c4.2,0,7.3-2.6,8.7-7
			c0.2-0.7,1-1.5,1.6-1.8c6.8-2.4,9.9-6.5,9.9-13.9c0-7.3,0-14.5,0-21.8c0-1.4,0.3-2.3,1.6-2.9c4.1-2.1,6.4-5.7,7.7-10
			C179.1,12.6,178.2,11.5,175.3,11.4z M158.8,6.1c0.1-0.6,0.8-1,1.2-1.6c0.5,0.5,1.4,1,1.4,1.6c0.2,1.6,0.1,3.3,0.1,5.2
			c-1,0-1.7,0-2.8,0C158.7,9.6,158.6,7.8,158.8,6.1z M158.4,32.4c1.4,0,2.5,1.1,2.5,2.5s-1.1,2.5-2.5,2.5c-1.4,0-2.5-1.1-2.5-2.5
			S157,32.4,158.4,32.4z M136.1,6.2c0.1-0.6,0.9-1.1,1.4-1.7c0.5,0.6,1.3,1.1,1.4,1.7c0.2,1.6,0.1,3.3,0.1,5c-1,0-1.8,0-2.9,0
			C136,9.5,135.9,7.8,136.1,6.2z M149,68.3c-2.3,0.1-3.8-1.1-4.5-3.8c3,0,5.7,0,8.5,0C152.6,67,151.1,68.2,149,68.3z M164.5,52.3
			c-0.3,4.2-3.8,7.5-8.1,7.7c-5,0.1-10,0.1-15,0c-4.8-0.1-8.4-3.8-8.4-8.8c-0.1-8.3-0.1-16.5,0-24.8c0-2.2-0.5-3.5-2.8-4.3
			c-2.8-0.9-4.7-3-5.9-6.1c7.5,0,14.5,0,21.6,0c-0.4,14.4,4.3,25.8,18.5,31.6C164.5,49.1,164.6,50.7,164.5,52.3z"/>
		<path class="st19" d="M140.3,32.4c1.4,0,2.5,1.1,2.5,2.5s-1.1,2.5-2.5,2.5c-1.4,0-2.5-1.1-2.5-2.5S138.9,32.4,140.3,32.4z"/>
	</g>
	<g id="r565g1_3_">
		<g>
			<path class="st19" d="M321.4,18.4c1.2-1.7,2.4-3.4,3.7-5c0.5-0.6,0.7-1.1,0.4-1.9c-1.5-4,0-6.7,4.1-7.7c0.5-0.1,0.9-0.5,1.2-0.8
				c2.3-2.2,5.2-2.2,7.6-0.2c0.4,0.3,1,0.7,1.4,0.7c3.6,0,6.7,3.6,4.8,7.9c-0.8,1.8-0.8,3,0.3,4.7c0.8,1.3,1.2,3,1.3,4.5
				c0.5,5.5,4.4,9.9,9.5,10.8c3,0.5,4.6-0.3,6-2.9c1.2-2.3,2.2-4.8,3.6-7c3-4.9,7.2-8,13.1-8.6c5-0.6,12.8,1.9,15,8.3
				c0,1.4,0,2.8,0,4.2c-0.8,1.9-1.9,3.4-3.8,4.4c-0.3,0.2-0.6,0.8-0.6,1.3c-0.3,3.6-2.2,6.1-5.6,7.2c-0.9,0.3-1.3,0.7-1.5,1.6
				c-0.6,2.6-2.1,4.6-4.6,5.7c-0.9,0.4-1.1,1-1.3,1.8c-0.7,4.4-2.1,8.5-4.7,12.2c-7.5,11-22,11.5-31,5.2
				c-8.1-5.7-11.6-13.6-10.7-23.5c0.2-1.7,0.2-3.4,0.3-5.2c-0.4,0-0.6-0.1-0.8-0.1c-4.6,0.1-7.2-3.7-5.5-8c0.5-1.2,1.2-2.2,1.8-3.4
				c0.2-0.4,0.5-0.9,0.8-1.5c-2-0.4-4-0.4-5-2.4C321.4,19.9,321.4,19.2,321.4,18.4z M325.3,19.2c2.5-0.1,4.5,0.7,5.6,2.9
				c0.3,0.7,0.7,1.4,0.9,2.2c1.5,4.9,1.9,9.9,1.6,15.1c-0.2,2.5-0.3,5-0.1,7.5c1,12,13,20.7,24.7,17.9c6.8-1.6,11-6.1,13.2-12.5
				c0.9-2.7,1.3-5.6,1.9-8.4c0.2-0.8,0.4-1.4,1.4-1.4c3.2,0,5-3,3.7-6c-0.2-0.4-0.2-1,0-1.3c0.2-0.3,0.8-0.4,1.2-0.4
				c0.6,0,1.2,0.2,1.8,0.3c1.8,0,3.1-0.8,4-2.4c0.8-1.5,0.2-2.7-1-3.7c-0.3-0.2-0.5-0.9-0.3-1.2c0.2-0.4,0.7-0.6,1.2-0.7
				c0.3-0.1,0.6,0.1,1,0.1c2,0.2,3.7-1,4-2.8c0.2-1.6-0.1-3.1-1.3-4.3c-2.1-2.2-4.6-3.3-7.6-3.5c-5.8-0.4-10,2.2-12.9,7.1
				c-1.3,2.3-2.4,4.7-3.6,7c-1.6,3.2-4.3,4.6-7.8,4.6c-7.2-0.1-13.3-6.1-14-13.9c-0.4-4.1-3.4-7.7-6.8-8.2
				C331.4,12.5,327,14.9,325.3,19.2z M341.6,9.6c0-2.1-1.3-2.9-2.8-2.2c-1.7,0.9-1.7,0.9-2.4-1c-0.2-0.6-1-1.4-1.6-1.4
				c-0.6,0-1.6,0.6-1.8,1.2c-0.4,1.6-1.1,2.1-2.7,1.4c-0.4-0.2-1.6,0.3-1.6,0.6c-0.1,0.9,0.1,1.9,0.4,2.8c0.1,0.2,1,0.4,1.4,0.3
				c3.1-0.8,6.1-0.9,9,0.7c0.3,0.2,1,0,1.1-0.2C341.1,11,341.4,10.1,341.6,9.6z M329.9,25.2c-0.2,0-0.4-0.1-0.6-0.1
				c-0.8,1.6-1.8,3.2-2.3,5c-0.4,1.4,0.5,2.4,1.7,2.5c1.2,0,2.4-1.2,2.2-2.4C330.6,28.4,330.2,26.8,329.9,25.2z"/>
			<path class="st19" d="M334.2,19.9c-1.2,0-2-0.7-2-1.9c0-1.1,0.8-1.9,1.8-1.9c1.1,0,2,0.8,2,1.9C336.1,19.1,335.3,19.9,334.2,19.9
				z"/>
		</g>
	</g>
	<g>
		<g id="p6C9M1_3_">
			<g>
				<path class="st19" d="M259.8,45.2c0,1.7-0.9,3-2.1,3c-1.2,0-2.1-1.4-2.1-3c0-1.6,0.9-2.9,2-2.9
					C258.8,42.2,259.8,43.4,259.8,45.2z"/>
				<path class="st19" d="M250.7,45.6c-0.1,0.2-0.1,0.9-0.5,1.4c-0.4,0.5-1.1,1.1-1.6,1.1c-0.5,0-1.2-0.6-1.6-1.1
					c-0.3-0.5-0.4-1.2-0.5-1.9c0-1.6,0.9-2.9,2-2.9C249.8,42.2,250.7,43.4,250.7,45.6z"/>
			</g>
		</g>
		<path class="st19" d="M281.5,14.6c-5.7-3.9-11.4-4.2-16.5-0.9c-0.6,0.4-1.5,0.6-2.2,0.5c-5.6-1.6-11.3-1.9-16.9-0.5
			c-2.3,0.5-4.2,0.9-6.1-0.8c-0.3-0.2-0.7-0.3-1-0.5c-8.8-3.5-19.9,4-20.4,13.8c-0.2,5,2.6,8.8,7.1,9.2c5.2,0.5,8.4-2.3,8.9-7.8
			c0.2-2.5-0.1-5-0.1-7.5c0-0.4,0.3-0.8,0.5-1.2c0.3,0.4,0.8,0.7,0.8,1.1c0,3.2,0.3,6.3-0.1,9.4c-0.6,4.2-3.5,6.7-7.6,7.4
			c-0.6,0.1-1.3,0.7-1.6,1.2c-2.5,5.6-0.9,12.2,4.1,17c6.4,6.1,14.3,8,23.2,8.3c1.3-0.1,2.9-0.2,4.5-0.4c6.8-0.9,13-3.1,18-8
			c4.9-4.7,6.5-11.2,4.2-16.9c-0.3-0.8-0.7-1.3-1.7-1.4c-3.9-0.5-6.9-2.9-7.4-6.9c-0.5-3.2-0.2-6.6-0.2-9.9c0-0.3,0.5-0.7,0.8-1
			c0.2,0.4,0.4,0.8,0.4,1.2c0,2.8-0.2,5.7,0,8.5c0.4,4.1,3.3,6.7,7.2,6.9c4.4,0.2,7.6-2.2,8.4-6.3C289,24.1,286.3,17.9,281.5,14.6z
			 M240.6,28.6c0-1.2,1-2.3,2.2-2.3c1.2,0,2.2,1,2.2,2.3s-1,2.3-2.2,2.3C241.6,30.9,240.6,29.9,240.6,28.6z M262.6,48.1
			c-4.6,3.4-13.8,3.4-18.5,0c-3.1-2.2-3.1-4.9,0.1-7.1c2.8-1.9,6-2.5,10.6-2.5c1.9,0,5,0.6,7.7,2.5
			C265.6,43.3,265.6,45.9,262.6,48.1z M263.7,30.9c-1.2,0-2.2-1-2.2-2.3s1-2.3,2.2-2.3c1.2,0,2.2,1,2.2,2.3S264.9,30.9,263.7,30.9z"
			/>
	</g>
</g>
<g id="hashtag">
</g>
<g id="レイヤー_6">
</g>
<g id="レイヤー_7">
</g>
<g id="_x23_">
</g>
<g id="tag_x5F_txt">
</g>
</svg>
