<?xml version="1.0" encoding="utf-8"?>
<!-- Generator: Adobe Illustrator 22.1.0, SVG Export Plug-In . SVG Version: 6.00 Build 0)  -->
<svg version="1.1" xmlns="http://www.w3.org/2000/svg" xmlns:xlink="http://www.w3.org/1999/xlink" x="0px" y="0px"
	 viewBox="0 0 506.6 65.8" style="enable-background:new 0 0 506.6 65.8;" xml:space="preserve">
<style type="text/css">
	.st0{fill:#FFFFFF;}
	.st1{fill:#3EBCC2;}
	.st2{fill:#595757;}
	.st3{fill:#69B32D;}
	.st4{fill:#5DAAD8;}
	.st5{fill:#EDA6C5;}
	.st6{fill:#0A9C91;}
	.st7{fill:none;stroke:#FFFFFF;stroke-width:0.4192;stroke-miterlimit:10;}
	.st8{opacity:0.1;}
	.st9{opacity:0.3;}
	.st10{fill:url(#SVGID_1_);}
	.st11{fill:#727272;}
	.st12{fill:#69B22D;}
	.st13{fill:#459543;}
	.st14{fill:#1B1B1B;}
	.st15{fill:#643231;}
	.st16{fill:none;stroke:#595757;stroke-width:0.8944;stroke-miterlimit:10;}
	.st17{fill:#A3A3A3;}
	.st18{fill:none;stroke:#A3A3A3;stroke-miterlimit:10;}
	.st19{fill:#E96447;}
	.st20{fill:#365FA8;}
	.st21{fill:#A961A0;}
	.st22{fill:#F1BC1B;}
	.st23{fill:#69B42D;}
	.st24{fill:#EDA6C5;stroke:#E5A2BF;stroke-width:1.5;stroke-linecap:round;stroke-linejoin:round;stroke-miterlimit:10;}
	.st25{fill:none;stroke:#FFFFFF;stroke-width:8;stroke-miterlimit:10;}
	.st26{fill:none;stroke:#FFFFFF;stroke-width:8;stroke-linecap:round;stroke-linejoin:round;stroke-miterlimit:10;}
	.st27{fill:#0A9D92;stroke:#11968C;stroke-width:1.1728;stroke-linejoin:round;stroke-miterlimit:10;}
</style>
<g id="レイヤー_2">
</g>
<g id="レイヤー_1">
	
		<rect x="431.6" y="29.6" transform="matrix(0.7071 0.7071 -0.7071 0.7071 154.3436 -299.436)" class="st20" width="14" height="14"/>
	
		<rect x="460.6" y="29.6" transform="matrix(0.7071 0.7071 -0.7071 0.7071 162.8423 -319.9536)" class="st20" width="14" height="14"/>
	
		<rect x="489.6" y="29.6" transform="matrix(0.7071 0.7071 -0.7071 0.7071 171.341 -340.4713)" class="st20" width="14" height="14"/>
	<rect x="2.9" y="29.6" transform="matrix(0.7071 0.7071 -0.7071 0.7071 28.7826 3.6952)" class="st20" width="14" height="14"/>
	<rect x="31.9" y="29.6" transform="matrix(0.7071 0.7071 -0.7071 0.7071 37.2813 -16.8225)" class="st20" width="14" height="14"/>
	<rect x="60.9" y="29.6" transform="matrix(0.7071 0.7071 -0.7071 0.7071 45.78 -37.3402)" class="st20" width="14" height="14"/>
</g>
<g id="レイヤー_3">
	<g>
		<g>
			<path class="st20" d="M193.9,49c-4.5-4.7-7.6-7.9-11.3-11.9c-11.3,15.3-26.2,21.5-45.2,18.6c0-12.4,0-24.6,0-38.5
				c16.5-2.1,31.6,3.3,45.1,15c3.5-3,6.8-5.9,11.5-9.9C193.9,31.5,193.9,39.1,193.9,49z"/>
			<path class="st20" d="M129.3,17.6c-7.4,6.2-14.4,12-20.4,17c3.3,14.4,12.5,1.6,18.3,6.8c-3.4,1.8-6.1,3.2-10.6,5.5
				c5.6,2.9,9.9,5,14.2,7.2C135.5,43.3,135.1,30.4,129.3,17.6z M123.2,34.5c-1.9,0-3.5-1.6-3.5-3.5s1.6-3.5,3.5-3.5
				c1.9,0,3.5,1.6,3.5,3.5S125.1,34.5,123.2,34.5z"/>
		</g>
	</g>
	<g id="_x32_W84oI_3_">
		<g>
			<g>
				<path class="st20" d="M352.6,52.3c2.4,4.5,4.6,8.6,6.8,12.7c-7.7,3-18.5-2.1-23.5-11.6c1.4-1.3,2.8-2.7,4.3-4.3
					C343.9,52.4,348.3,53.5,352.6,52.3z"/>
				<path class="st20" d="M361.8,40.2c5.9-0.5,10.7-3.1,15.2-7.2c1.9,5.6,1.4,10.9-0.4,16.1c-0.1,0.4-0.9,0.7-1.3,0.7
					c-4.6,0.2-8.9-0.6-12.8-3.2c-1.4-0.9-1.9-1.7-1.2-3.3C361.6,42.5,361.6,41.5,361.8,40.2z"/>
				<path class="st20" d="M359.6,47.4c4.6,3.6,9.8,4.9,15.7,4.8c-2.7,5.3-6.2,9.3-11.4,11.5c-0.5,0.2-1.5-0.1-2-0.6
					c-2.8-2.4-4.7-5.4-5.7-9c-0.6-1.9-0.7-3.5,1.3-4.7C358.2,49,358.8,48.2,359.6,47.4z"/>
				<path class="st20" d="M361.9,37.9c-1.3-2.4-2.3-4.5-3.5-6.8c3.6-3.5,7.3-7.1,11.1-10.9c2.8,2.7,4.9,5.8,6.3,9.3
					c0.2,0.4-0.1,1.3-0.4,1.6C371.7,35,367.2,37.5,361.9,37.9z"/>
				<path class="st20" d="M320.8,36.4c2.4,0.5,4.8,1.1,7.4,1.7c0.2-2.8,0.4-5.3,0.6-7.8c0.1,0,0.3-0.1,0.4-0.1
					c1.2,2.1,2.4,4.2,3.6,6.3c1.7,3,3.3,6.1,5,9c0.8,1.4,0.7,2.3-0.6,3.2c-1,0.8-2,1.6-2.9,2.4c-4.7-4.8-9.3-9.5-13.9-14.2
					C320.6,36.7,320.7,36.6,320.8,36.4z"/>
				<path class="st20" d="M357.7,33.7c0.6,1.5,1,2.4,1.3,3.3c-2.8,0.3-5.4,0.6-8,0.9c-0.1-0.1-0.2-0.3-0.2-0.4
					C353,36.3,355.2,35.1,357.7,33.7z"/>
				<path class="st20" d="M351.4,39.7c2.4-0.3,4.8-0.6,7.9-0.9c-0.3,1.5-0.5,2.6-0.7,3.6c-2.2-0.7-4.7-1.4-7.1-2.2
					C351.4,40,351.4,39.9,351.4,39.7z"/>
				<path class="st20" d="M357.8,44.6c-0.7,1.5-1.2,2.4-1.7,3.5c-1.9-1.9-3.6-3.7-5.4-5.5c0-0.1,0.1-0.3,0.1-0.4
					C353.1,42.9,355.3,43.7,357.8,44.6z"/>
				<path class="st20" d="M389.4,34.2c-5.4-10.3-12.8-18.9-22.3-25.4c-6.5-4.5-13.6-7.9-21.6-8.7c-5.4-0.6-7.9,2.4-6.5,7.6
					c0.7,2.5,1.8,4.8-0.6,7.1c5.9,5,11.6,9.7,17.5,14.6c3.5-4,6.9-7.8,10.5-11.9c-7-3.6-14.1-5.7-21.5-6.7c-3.4-0.5-4.2-1.3-4.5-4.8
					c-0.3-2.9,0.9-4.3,3.8-4.2c1.9,0.1,3.9,0.4,5.7,0.9c17.7,5.2,29.8,16.9,38.3,32.9c0.4,0.8,0.9,1.5,1.4,2.2
					c0.3-0.1,0.6-0.3,0.9-0.4C390.1,36.2,389.9,35.2,389.4,34.2z M349.4,14.9c0.4,0.3,0.1,1.4,0.1,2.5c-1.1-0.2-2.2-0.1-2.4-0.5
					c-0.3-0.6,0-1.5,0-2.3C347.9,14.6,348.9,14.4,349.4,14.9z"/>
			</g>
		</g>
	</g>
	<g id="TQMOYY_3_">
		<g>
			<g>
				<path class="st20" d="M233.5,45.8c-0.2-0.6-0.5-1.2-0.7-1.9c-0.2-0.4-0.4-0.8-0.4-1.3c0-1.3,0.1-2.6,0.1-3.9
					c0-0.3,0-0.6-0.1-0.8c-0.6-1.6-0.3-3,0.7-4.4c0.7-1,1.5-1.3,2.6-1.4c1-0.1,1.9-0.4,2.8-0.7c7.8-2.2,15.7-4.4,23.5-6.6
					c1.6-0.5,3.2-1,4.8-1.7c-11.1,2.5-22.2,5-33.2,7.4c-0.7-1.1-0.5-2,0.1-3c0.3-0.5,0.5-1.1,0.8-1.6c0.3-0.6,0.6-0.2,1-0.2
					c1.1,0.1,2.3-0.1,3.5-0.2c1.3-0.1,2.6-0.3,3.9-0.5c7.4-0.9,14.8-1.7,22.2-2.6c0.1,0,0.3-0.1,0.4-0.3c-10,0.7-20,1.4-30.2,2
					c0.2-0.4,0.3-0.7,0.5-1c1.5-2.5,3.5-4.4,6-5.9c2.4-1.4,4.8-2,7.6-0.9c2,0.8,4.1,1.3,6.2,1.8c0.4,0.1,1-0.1,1.4-0.4
					c1.8-1.6,3.4-3.3,5.2-4.8c1.5-1.2,1.7-1.1,3.1,0.2c5.4,5.5,10.7,11,16.2,16.5c1,1,1,1.8,0.1,2.7c-1.5,1.7-3.1,3.4-4.8,4.9
					c-0.8,0.7-0.9,1.3-0.6,2.4c0.7,2.3,1.1,4.6,1.8,6.9c0.5,1.8,0.2,3.4-0.6,5c-1.4,2.9-3.5,5.2-6.1,6.9c-0.6,0.4-1.3,0.8-1.8,1.2
					c1-10.2,2-20.5,3-30.8c-0.1,0-0.2,0-0.3,0c-0.5,3.5-1,7-1.5,10.4c-1,6.6-1.9,13.2-2.9,19.8c-0.2,1.2-2.2,2.4-3.5,2.2
					c-0.4-0.1-0.8-0.2-1.2-0.3c2.9-11.3,5.8-22.6,8.8-33.8c-0.1,0-0.2,0-0.3-0.1c-1.9,5.8-3.8,11.7-5.6,17.5
					c-1.7,5.4-3.4,10.7-5.1,16.1c-0.4,1.2-2.4,2-3.9,1.6c-0.7-0.2-1.5-0.3-2-0.4c0.4-1,0.8-2.4,1.5-3.6c5-9,8.6-18.7,12.9-28
					c0.1-0.3,0.2-0.6,0.1-0.9c-2,3.9-4,7.9-6,11.8c-3.2,6.4-6.5,12.8-9.7,19.2c-1,2-2.8,2.2-4.3,0.4c-0.1-0.2-0.3-0.3-0.4-0.4
					c6.7-10.7,13.3-21.4,19.9-32c-0.1-0.1-0.2-0.1-0.3-0.2c-2.2,3.1-4.4,6.3-6.6,9.4c-4.9,7-9.7,14-14.6,21c-1,1.4-1.6,1.5-3.1,0.7
					c-0.2-0.1-0.4-0.2-0.6-0.4c-0.5-0.5-1-1-1.2-1.3c8.2-9.7,16.4-19.3,24.6-29c-0.1-0.1-0.1-0.1-0.2-0.2c-0.3,0.3-0.6,0.5-0.8,0.8
					c-8.3,8.8-16.6,17.7-24.9,26.5c-0.8,0.8-1.8,0.8-2.8-0.2c-0.9-0.9-1-2.2-0.2-2.9c9-8.1,18.1-16.1,27.1-24.2
					c0.2-0.1,0.3-0.3,0.2-0.7c-9.7,7.8-19.5,15.6-29.2,23.5c-1.2-0.8-1.9-1.9-2.1-3.3c-0.1-0.5-0.4-1-0.7-1.5c0.6-0.1,1.3,0,1.8-0.3
					c1.2-0.6,2.3-1.3,3.4-2.1c2-1.4,4-2.8,6-4.2c6.4-4.2,12.9-8.4,19.4-12.6c0.3-0.2,0.6-0.5,1-0.7c-0.3-0.1-0.4-0.1-0.5,0
					c-10.1,5.9-20.2,11.8-30.3,17.7C233.9,44.6,233.7,45.3,233.5,45.8z M232.8,40.4c10.4-4.8,20.8-9.6,31.1-14.4
					c0-0.1-0.1-0.2-0.1-0.3c-0.2,0.1-0.4,0.1-0.6,0.2c-9.9,4.1-19.8,8.3-29.8,12.3C232.3,38.7,232.3,39.3,232.8,40.4z"/>
			</g>
		</g>
	</g>
</g>
<g id="hashtag">
</g>
<g id="レイヤー_6">
</g>
<g id="レイヤー_7">
</g>
<g id="_x23_">
</g>
<g id="tag_x5F_txt">
</g>
</svg>
