<?xml version="1.0" encoding="utf-8"?>
<!-- Generator: Adobe Illustrator 22.1.0, SVG Export Plug-In . SVG Version: 6.00 Build 0)  -->
<svg version="1.1" xmlns="http://www.w3.org/2000/svg" xmlns:xlink="http://www.w3.org/1999/xlink" x="0px" y="0px"
	 viewBox="0 0 506.6 44.4" style="enable-background:new 0 0 506.6 44.4;" xml:space="preserve">
<style type="text/css">
	.st0{fill:#FFFFFF;}
	.st1{fill:#3EBCC2;}
	.st2{fill:#595757;}
	.st3{fill:#69B32D;}
	.st4{fill:#5DAAD8;}
	.st5{fill:#EDA6C5;}
	.st6{fill:#0A9C91;}
	.st7{fill:none;stroke:#FFFFFF;stroke-width:0.4192;stroke-miterlimit:10;}
	.st8{opacity:0.1;}
	.st9{opacity:0.3;}
	.st10{fill:url(#SVGID_1_);}
	.st11{fill:#727272;}
	.st12{fill:#69B22D;}
	.st13{fill:#459543;}
	.st14{fill:#1B1B1B;}
	.st15{fill:#643231;}
	.st16{fill:none;stroke:#595757;stroke-width:0.8944;stroke-miterlimit:10;}
	.st17{fill:#A3A3A3;}
	.st18{fill:none;stroke:#A3A3A3;stroke-miterlimit:10;}
	.st19{fill:#E96447;}
	.st20{fill:#365FA8;}
	.st21{fill:#A961A0;}
	.st22{fill:#F1BC1B;}
	.st23{fill:#69B42D;}
	.st24{fill:#EDA6C5;stroke:#E5A2BF;stroke-width:1.5;stroke-linecap:round;stroke-linejoin:round;stroke-miterlimit:10;}
	.st25{fill:none;stroke:#FFFFFF;stroke-width:8;stroke-miterlimit:10;}
	.st26{fill:none;stroke:#FFFFFF;stroke-width:8;stroke-linecap:round;stroke-linejoin:round;stroke-miterlimit:10;}
	.st27{fill:#0A9D92;stroke:#11968C;stroke-width:1.1728;stroke-linejoin:round;stroke-miterlimit:10;}
</style>
<g id="レイヤー_2">
</g>
<g id="レイヤー_1">
	
		<rect x="431.6" y="12.4" transform="matrix(0.7071 0.7071 -0.7071 0.7071 142.2265 -304.455)" class="st23" width="14" height="14"/>
	
		<rect x="460.6" y="12.4" transform="matrix(0.7071 0.7071 -0.7071 0.7071 150.7252 -324.9727)" class="st23" width="14" height="14"/>
	
		<rect x="489.6" y="12.4" transform="matrix(0.7071 0.7071 -0.7071 0.7071 159.2239 -345.4904)" class="st23" width="14" height="14"/>
	<rect x="2.9" y="12.4" transform="matrix(0.7071 0.7071 -0.7071 0.7071 16.6655 -1.3239)" class="st23" width="14" height="14"/>
	<rect x="31.9" y="12.4" transform="matrix(0.7071 0.7071 -0.7071 0.7071 25.1642 -21.8416)" class="st23" width="14" height="14"/>
	<rect x="60.9" y="12.4" transform="matrix(0.7071 0.7071 -0.7071 0.7071 33.6628 -42.3593)" class="st23" width="14" height="14"/>
</g>
<g id="レイヤー_3">
	<path class="st23" d="M382.9,14.4c-1.9,0.4-13.1,1.9-19.7,12.1c0,0-12.3-26.6-55.1-26.6c0,3.9,3.3,13.3,12.5,17.3
		c9.2,4,25,8.5,32.9,9.2c7.9,0.8,11.2,4.8,11.2,4.8s-0.4,7.3-1.5,9.4c-1.2,2.1,0.4,5.6,2.7,2.1c2.3-3.5,2.3-10.4,1.5-12.7
		c2.9-0.8,12.1-3.1,19.6-15.8C388.7,12.1,384.9,14.1,382.9,14.4z M349.9,21c-1.4-1.2-3.2-2.2-8.2-4.1c-4.1-1.6-4.3-1.6-12.7-4.3
		c-2.9-1.2-0.8-0.8,0-0.7c8.8,2.8,11.7,3.7,15.6,5.4c2.2,1,3.5,1.6,4.9,2.7C351.3,21.7,350.7,21.5,349.9,21z M377.8,20.4
		c0,0-5.3,3.8-6.2,4.6c-0.8,0.7-2.7,2.3-1.9,1.3c2.3-3,7.3-5.9,7.3-5.9C378.1,19.8,377.8,20.4,377.8,20.4z"/>
	<path class="st23" d="M288.4,14.4c-1.9,0.4-13.1,1.9-19.7,12.1c0,0-12.3-26.6-55.1-26.6c0,3.9,3.3,13.3,12.5,17.3
		c9.2,4,25,8.5,32.9,9.2c7.9,0.8,11.2,4.8,11.2,4.8s-0.4,7.3-1.5,9.4c-1.2,2.1,0.4,5.6,2.7,2.1c2.3-3.5,2.3-10.4,1.5-12.7
		c2.9-0.8,12.1-3.1,19.6-15.8C294.2,12.1,290.3,14.1,288.4,14.4z M255.3,21c-1.4-1.2-3.2-2.2-8.2-4.1c-4.1-1.6-4.3-1.6-12.7-4.3
		c-2.9-1.2-0.8-0.8,0-0.7c8.8,2.8,11.7,3.7,15.6,5.4c2.2,1,3.5,1.6,4.9,2.7C256.7,21.7,256.1,21.5,255.3,21z M283.3,20.4
		c0,0-5.3,3.8-6.2,4.6c-0.8,0.7-2.7,2.3-1.9,1.3c2.3-3,7.3-5.9,7.3-5.9C283.5,19.8,283.3,20.4,283.3,20.4z"/>
	<path class="st23" d="M193.8,14.4c-1.9,0.4-13.1,1.9-19.7,12.1c0,0-12.3-26.6-55.1-26.6c0,3.9,3.3,13.3,12.5,17.3
		c9.2,4,25,8.5,32.9,9.2c7.9,0.8,11.2,4.8,11.2,4.8s-0.4,7.3-1.5,9.4c-1.2,2.1,0.4,5.6,2.7,2.1c2.3-3.5,2.3-10.4,1.5-12.7
		c2.9-0.8,12.1-3.1,19.6-15.8C199.6,12.1,195.8,14.1,193.8,14.4z M160.7,21c-1.4-1.2-3.2-2.2-8.2-4.1c-4.1-1.6-4.3-1.6-12.7-4.3
		c-2.9-1.2-0.8-0.8,0-0.7c8.8,2.8,11.7,3.7,15.6,5.4c2.2,1,3.5,1.6,4.9,2.7C162.1,21.7,161.5,21.5,160.7,21z M188.7,20.4
		c0,0-5.3,3.8-6.2,4.6c-0.8,0.7-2.7,2.3-1.9,1.3c2.3-3,7.3-5.9,7.3-5.9C189,19.8,188.7,20.4,188.7,20.4z"/>
</g>
<g id="hashtag">
</g>
<g id="レイヤー_6">
</g>
<g id="レイヤー_7">
</g>
<g id="_x23_">
</g>
<g id="tag_x5F_txt">
</g>
</svg>
